<?xml version="1.0" encoding="UTF-8"?> <svg xmlns="http://www.w3.org/2000/svg" id="Layer_1" data-name="Layer 1" viewBox="0 0 300 300"><defs><style>.cls-1{fill:#ffe922;}.cls-1,.cls-10,.cls-2,.cls-3,.cls-9{stroke:#000;}.cls-1,.cls-10,.cls-2,.cls-3,.cls-4,.cls-5,.cls-6,.cls-7,.cls-8,.cls-9{stroke-miterlimit:10;}.cls-2{fill:#c6d8db;}.cls-3{fill:#daebef;}.cls-4{fill:#2d2d2d;}.cls-4,.cls-5,.cls-6,.cls-7,.cls-8{stroke:#070707;}.cls-5{fill:#444;}.cls-6{fill:#ff5050;}.cls-7{fill:#ffc9c5;}.cls-8{fill:#f29999;}.cls-9{fill:#c2ffc9;}.cls-10{fill:#2eef6f;}</style></defs><path class="cls-1" d="M238.39,224.3V124.51L69,131.78v99.79a7.13,7.13,0,0,0,3.59,6.22l67.11,38.74a15.39,15.39,0,0,0,15.42,0l79.69-46A7.1,7.1,0,0,0,238.39,224.3Z"></path><path class="cls-1" d="M72.58,125.56l79.69-46a15.46,15.46,0,0,1,15.43,0l67.1,38.75a7.17,7.17,0,0,1,0,12.43l-79.69,46a15.39,15.39,0,0,1-15.42,0L72.58,138a7.19,7.19,0,0,1,0-12.44Z"></path><path class="cls-1" d="M234.8,118.3,167.7,79.55a15.46,15.46,0,0,0-15.43,0l-79.69,46A7.12,7.12,0,0,0,69,131.78v99.79a7.13,7.13,0,0,0,3.59,6.22l67.11,38.74a15.39,15.39,0,0,0,15.42,0l79.69-46a7.1,7.1,0,0,0,3.59-6.22V124.51a7.09,7.09,0,0,0-3.59-6.21Z"></path><path class="cls-1" d="M196,76.17,111.4,83.24v96.19h0c.19,5.43,3.58,10.6,10.32,14.49,15.29,8.83,42,7.72,59.66-2.48,10-5.77,15-13.21,14.59-20.19h0V76.17Z"></path><ellipse class="cls-2" cx="153.74" cy="79.95" rx="42.52" ry="24.06" transform="translate(-8.54 19.18) rotate(-6.95)"></ellipse><path class="cls-3" d="M189.21,89.31l-71,5.93V176h0c.16,4.56,3,8.9,8.66,12.16,12.85,7.42,35.27,6.49,50.1-2.07,8.4-4.85,12.55-11.1,12.25-17h0V89.31Z"></path><ellipse class="cls-3" cx="153.74" cy="92.49" rx="35.71" ry="20.2" transform="translate(-10.06 19.28) rotate(-6.95)"></ellipse><path class="cls-3" d="M178.81,66.8V56l-2.19.18a14.54,14.54,0,0,0-3.94-3.2c-9.08-5.25-25-4.59-35.43,1.47a20.74,20.74,0,0,0-6.6,5.66l-2.08.18V70.81h0c0,3.33,2,6.5,6.13,8.88,9.09,5.24,25,4.58,35.44-1.47C175.8,75,178.74,70.78,178.81,66.8Z"></path><path class="cls-4" d="M188.55,49.14a2.54,2.54,0,0,0,0-.39V34.15l-3,.26A20.33,20.33,0,0,0,180.05,30c-12.61-7.28-34.63-6.36-49.18,2a29,29,0,0,0-9.16,7.86l-2.89.25V54.72h0c0,4.62,2.81,9,8.51,12.32,12.61,7.28,34.63,6.37,49.19-2,7.86-4.55,11.94-10.35,12-15.87Z"></path><path class="cls-5" d="M176.52,50.41C191.07,42,192.65,29.29,180.05,22s-34.63-6.36-49.18,2-16.14,21.12-3.53,28.39S162,58.81,176.52,50.41Z"></path><path class="cls-1" d="M173.54,218.42c-21,4.65-24.87-33.14-8.69-84.4s46.31-96.58,67.29-101.23S257,65.94,240.82,117.2,194.52,213.78,173.54,218.42Z"></path><path class="cls-4" d="M190.52,75.8h0a56.68,56.68,0,0,1,19.6,4.52,1.74,1.74,0,0,1-1,3.31,76,76,0,0,0-22.36-1.14C188,80.2,189.24,78,190.52,75.8Z"></path><path class="cls-1" d="M164.94,133.74,166,133c.56,0,1.14,0,1.75.06a56.68,56.68,0,0,1,19.49,4.49,1.75,1.75,0,0,1-1,3.33,75.53,75.53,0,0,0-23.13-1.06c.58-2,1.19-4,1.83-6Z"></path><path class="cls-4" d="M178,100a82.3,82.3,0,0,1,31.63,9.39,1.75,1.75,0,0,1-1.25,3.23A118.62,118.62,0,0,0,174,109.12q1.93-4.65,4-9.14Z"></path><path class="cls-6" d="M212.63,153.52c0-25-20.29-35.26-45.31-35.26S122,128.49,122,153.52a45.31,45.31,0,0,0,90.62,0Z"></path><path class="cls-7" d="M234.8,130.73l-79.69,46a15.39,15.39,0,0,1-15.42,0L72.58,138A7.13,7.13,0,0,1,69,131.78v99.79a7.13,7.13,0,0,0,3.59,6.22l67.11,38.74a15.39,15.39,0,0,0,15.42,0l79.69-46a7.1,7.1,0,0,0,3.59-6.22V124.51a7.1,7.1,0,0,1-3.59,6.22Z"></path><path class="cls-8" d="M139.69,276.53a15.39,15.39,0,0,0,15.42,0l79.69-46a7.12,7.12,0,0,0,3.59-6.22V124.51a7.12,7.12,0,0,1-3.59,6.22h0l-79.69,46a15.39,15.39,0,0,1-15.42,0Z"></path><path class="cls-9" d="M155.52,99.44a17.73,17.73,0,0,0-22.69-26.56A18.81,18.81,0,0,0,105.55,64,27.67,27.67,0,0,0,55.7,80.5,28.24,28.24,0,0,0,56,84.31a26.27,26.27,0,0,0-10.22,20.81,26,26,0,0,0,.41,4.61,20.79,20.79,0,0,0,9,37.78A25.48,25.48,0,0,0,95,160.94a27.24,27.24,0,0,0,51.73-16.08c.74.07,1.49.11,2.24.11a23.24,23.24,0,0,0,6.59-45.53Z"></path><circle class="cls-10" cx="75.72" cy="129.94" r="12.36"></circle><circle class="cls-10" cx="101.87" cy="107.88" r="8.88"></circle><circle class="cls-10" cx="92.27" cy="113.14" r="5.79"></circle><circle class="cls-10" cx="149.1" cy="120.7" r="7.62"></circle><circle class="cls-10" cx="98.22" cy="140.52" r="9.45"></circle><circle class="cls-10" cx="119.85" cy="129.48" r="5.79"></circle><circle class="cls-10" cx="143.22" cy="127.59" r="5.83"></circle><circle class="cls-10" cx="121.21" cy="150.22" r="10.37"></circle><circle class="cls-10" cx="114.27" cy="81.47" r="4.43"></circle><circle class="cls-10" cx="123.25" cy="92.25" r="2.89"></circle><circle class="cls-10" cx="134.91" cy="91.31" r="2.91"></circle><ellipse class="cls-10" cx="123.92" cy="102.72" rx="5.17" ry="5.29"></ellipse><path class="cls-4" d="M181.6,201.44l34.72-20.05V156.74l-34.72,20Z"></path><path class="cls-6" d="M213.75,182.74l2.57-1.35V156.74l-2.57,1.35Z"></path></svg> 