<?xml version="1.0" encoding="UTF-8"?> <svg xmlns="http://www.w3.org/2000/svg" id="Layer_1" data-name="Layer 1" viewBox="0 0 300 300"><defs><style>.cls-1{fill:#ff5050;}.cls-1,.cls-2,.cls-3,.cls-5,.cls-6,.cls-9{stroke:#070707;}.cls-1,.cls-2,.cls-3,.cls-4,.cls-5,.cls-6,.cls-7,.cls-8,.cls-9{stroke-miterlimit:10;}.cls-2{fill:#f99ba4;}.cls-3{fill:#b73232;}.cls-4{fill:#ffe922;}.cls-4,.cls-7,.cls-8{stroke:#000;}.cls-5{fill:#444;}.cls-6{fill:#ffc9c5;}.cls-7{fill:#31323d;}.cls-8{fill:#2eef6f;}.cls-9{fill:#c62c2c;opacity:0.3;}</style></defs><path class="cls-1" d="M222.55,133.25l-.54,99.1c0,10.59-7,21.08-20.88,29.23-27.94,16.27-73.44,16.27-101.59,0-14.13-8.18-21.2-18.85-21.2-29.63l.53-99.1c0,10.7,7.07,21.45,21.2,29.62,28.15,16.28,73.65,16.17,101.59,0C215.48,154.33,222.43,143.74,222.55,133.25Z"></path><path class="cls-2" d="M201.35,103.59c28.15,16.27,28.27,42.61.31,58.77s-73.44,16.28-101.59,0-28.26-42.61-.32-58.87C127.69,87.43,173.19,87.43,201.35,103.59Z"></path><path class="cls-1" d="M213.44,141.38a33.47,33.47,0,0,1-9.95,13.06,53.09,53.09,0,0,1-7.15,4.93,76.61,76.61,0,0,1-14.44,6.31c-16.49,5.35-36.19,6.13-53.65,2.25a76,76,0,0,1-22.8-8.46c-.1-.1-.1-.1-.21-.1C96.36,154.26,90.58,147.8,88,141.16c-3.88-10.06-.56-20.8,9.91-29.44a67.09,67.09,0,0,1,7.15-5A79.76,79.76,0,0,1,117.94,101h.12c22.91-7.81,52.34-6.74,73.44,3.21,1.6.86,3.21,1.62,4.71,2.58a45.17,45.17,0,0,1,13.06,10.76C215.05,125.1,216.42,133.35,213.44,141.38Z"></path><path class="cls-3" d="M213.44,141.38A31.76,31.76,0,0,1,206.06,152a26,26,0,0,1-4.09,3.54,39.24,39.24,0,0,1-5.78,3.85,69.75,69.75,0,0,1-16.81,7.06,22.53,22.53,0,0,1-2.67.64,48.74,48.74,0,0,1-7,1.5.41.41,0,0,1-.33.12c-1.17.21-2.24.42-3.42.53-1.5.21-3,.31-4.49.53a15.68,15.68,0,0,1-2.36.21,103.78,103.78,0,0,1-16.35.12c-1.93-.12-4-.33-5.89-.55-.32-.1-.65-.1-1-.21s-.85-.1-1.28-.21a83.81,83.81,0,0,1-21.2-5.78,5.48,5.48,0,0,1-1.39-.64h-.11c-2.35-1.07-4.5-2.15-6.64-3.32-9.1-5.11-14.88-11.57-17.45-18.31a26.28,26.28,0,0,1,4.39-7.38A46.7,46.7,0,0,1,105,123.12c.65-.31,1.29-.74,2-1.07a25.08,25.08,0,0,1,2.24-1.18,81.83,81.83,0,0,1,18.2-6.21c2.36-.53,4.82-1,7.15-1.27l2.36-.33a116.49,116.49,0,0,1,22.17-.58c.74.1,1.6.1,2.36.21q4.49.48,8.66,1.29a66,66,0,0,1,9.1,2.13,75.37,75.37,0,0,1,7.5,2.58h.1a58,58,0,0,1,9,4.38,48.57,48.57,0,0,1,8.18,5.68,36.76,36.76,0,0,1,3.53,3.42A28.34,28.34,0,0,1,213.44,141.38Z"></path><path class="cls-4" d="M116.45,41.81,95.26,45.13l4.08-19.26,2.15-10.39,5.24,9.31Z"></path><path class="cls-5" d="M134.69,169.1a83.38,83.38,0,0,1-21.2-5.77L107.11,122l-.32-2.14-.51-3.58L95.47,45.79a.89.89,0,0,1-.11-.53v-.12a5.14,5.14,0,0,1,.21-1,7,7,0,0,1,2.25-3.21c3.86-3,10.49-4.08,15-2.24A6.23,6.23,0,0,1,116,40.91c.11.11.22.22.22.32v.11a.41.41,0,0,1,.1.32c.11.11.11.11.11.21a2.24,2.24,0,0,0,.22.65l10.21,66.59H127l.85,5.56,6.48,42.47,1.82,12.1C135.62,169.22,135.08,169.1,134.69,169.1Z"></path><path class="cls-5" d="M106.75,25.25a18.55,18.55,0,0,1-7.15,1.12l2-9.92Z"></path><path class="cls-4" d="M161.74,68.91H137.11L145,47.83l4.28-11.45,4.39,11.45Z"></path><path class="cls-6" d="M161.74,69.65l-.11,43.14v4.83l-.1,52.1a17,17,0,0,1-2.36.21,103.78,103.78,0,0,1-16.35.11c-1.93-.11-4-.32-5.89-.54v-8l.11-43v-5.32l.1-43.47c0-.21,0-.53.11-.64v-.1c.22-1.62,1.39-3.07,3.43-4.29,4.82-2.78,12.52-2.78,17.36,0a6.4,6.4,0,0,1,3.54,4.29V69C161.74,69.12,161.74,69.34,161.74,69.65Z"></path><path class="cls-6" d="M153.71,47.83a21.46,21.46,0,0,1-8.67,0l4.28-11.45Z"></path><path class="cls-7" d="M169.87,168.57a.37.37,0,0,1-.31.12v-.22Z"></path><path class="cls-4" d="M214.83,38.29l-7.15,93.88L206.06,152a26,26,0,0,1-4.09,3.54l2-26.77,6.86-88.54Z"></path><path class="cls-4" d="M211,40.21l-6.82,88.54-2,26.77a38.72,38.72,0,0,1-5.78,3.85,69.85,69.85,0,0,1-16.8,7.06,24.85,24.85,0,0,1-2.68.64,48.74,48.74,0,0,1-7,1.5.37.37,0,0,1-.31.12c-1.19.21-2.25.41-3.44.53l4.18-55.17,7.39-96.36Z"></path><path class="cls-4" d="M214.83,38.29l-4,1.92L177.8,17.73l3.95-1.92Z"></path><path class="cls-7" d="M179.51,166.43a24.85,24.85,0,0,1-2.68.64l-6.74-4.6.21-2.46Z"></path><path class="cls-7" d="M182.7,150.91l-.21,2.46-11.24-7.6.22-2.46Z"></path><path class="cls-7" d="M182.08,159.37l-.21,2.46-11.24-7.6.21-2.46Z"></path><path class="cls-7" d="M189.78,146.93l-.21,2.46-17.66-12,.21-2.46Z"></path><path class="cls-7" d="M184,134.21l-.21,2.46-11.24-7.6.21-2.46Z"></path><path class="cls-7" d="M189.78,59l-.21,2.46-11.24-7.6.22-2.46Z"></path><path class="cls-7" d="M195.57,71.8l-.22,2.46-17.66-12,.21-2.47Z"></path><path class="cls-7" d="M188.5,75.75l-.22,2.46L177,70.61l.22-2.46Z"></path><path class="cls-7" d="M187.86,84.11l-.21,2.46L176.41,79l.22-2.46Z"></path><path class="cls-7" d="M193.63,96.87l-.2,2.46-17.67-12,.21-2.47Z"></path><path class="cls-7" d="M186.58,100.81l-.22,2.46-11.24-7.6.21-2.47Z"></path><path class="cls-7" d="M185.93,109.13l-.16,2.49L174.53,104l.22-2.46Z"></path><path class="cls-7" d="M191.71,121.9l-.21,2.46-17.66-12,.21-2.46Z"></path><path class="cls-7" d="M184.64,125.86l-.21,2.46-11.24-7.6.22-2.46Z"></path><path class="cls-7" d="M190.43,50.6l-.22,2.46L179,45.46l.22-2.46Z"></path><path class="cls-7" d="M197.5,46.64l-.22,2.46-17.64-12,.21-2.46Z"></path><path class="cls-7" d="M191.6,33.9l-.21,2.46-11.24-7.6.21-2.46Z"></path><path class="cls-4" d="M69,60,51.26,72.11l-4.6-19.17L44.09,42.57l8.78,6.13Z"></path><path class="cls-8" d="M143.84,170c-1.92-.1-4-.31-5.89-.53-.32-.11-.64-.11-1-.21s-.86-.12-1.29-.22a83.37,83.37,0,0,1-21.21-5.73,5.32,5.32,0,0,1-1.39-.64h-.11L93.78,134.42l-.64-.86L51.47,72.43a2.17,2.17,0,0,1-.31-.53.27.27,0,0,1-.11-.22c0-.1,0-.21-.11-.21s-.07-.32-.07-.53a7.14,7.14,0,0,1,.76-4,16.5,16.5,0,0,1,12.52-8.46,8.26,8.26,0,0,1,3.42.43h.12a.1.1,0,0,0,.09.11h0a2.72,2.72,0,0,1,.64.42v.11c.12.1.12.1.22.1a.24.24,0,0,1,.21.22c.22.11.22.32.43.54L107.09,116l.11.1h.1l3.07,4.5,24.73,36.3,2.88,4.32Z"></path><path class="cls-8" d="M52.91,48.77a19.63,19.63,0,0,1-6.21,4.29L44.09,42.72Z"></path><path class="cls-9" d="M201.58,162.47c13.81-8.14,20.77-18.73,20.88-29.22l-.53,99.1c0,10.59-7,21.08-20.88,29.23"></path></svg> 