<?xml version="1.0" encoding="UTF-8"?> <svg xmlns="http://www.w3.org/2000/svg" id="Layer_1" data-name="Layer 1" viewBox="0 0 780 135"><defs><style>.cls-1{fill:#7c7c7c;}.cls-2{fill:#6f6f6f;fill-rule:evenodd;}</style></defs><path class="cls-1" d="M71.06,39.49a14.76,14.76,0,0,0-2.65-.32c-2,0-3.14.79-3.14,2.62v1.55h4.61v4.11H65.31v9.38c1.28.12,2.66.26,3.8.45v3.45H54.84V57.27c1.14-.17,2.52-.34,3.83-.46V47.44h-4.1V43.35h4.1V41.87c0-4.64,2.78-7,9.09-7a24.29,24.29,0,0,1,3.71.28Z"></path><path class="cls-1" d="M87.93,39.49a15.59,15.59,0,0,0-2.64-.31c-2,0-3.14.79-3.14,2.62v1.55h4.57v4.11H82.15v9.38c1.29.12,2.67.26,3.81.45v3.45H71.71V57.27c1.16-.17,2.47-.34,3.8-.46V47.44h-4.1V43.35h4.11V41.87c0-4.64,2.81-7,9.09-7a24.29,24.29,0,0,1,3.71.28Z"></path><path class="cls-1" d="M95.41,41.54c-2.22,0-4.07-1.41-4.07-3.14s1.83-3.14,4.07-3.14,4.06,1.38,4.06,3.14-1.8,3.14-4.06,3.14m-7.14,19.2V57.27c1.14-.17,2.5-.34,3.78-.46V47.39c-1-.14-2.52-.28-3.78-.33V43.63a83.18,83.18,0,0,1,10.47-.31V56.81c1.21.12,2.49.27,3.49.46v3.45h-14Z"></path><path class="cls-1" d="M112.85,61.07c-7,0-10.83-2.85-10.83-8.49,0-5.24,3.47-9.59,11.78-9.59a23.37,23.37,0,0,1,5,.57v6h-4.29c-.16-.71-.28-1.36-.4-2a4,4,0,0,0-1.19-.12c-2.31,0-4,1.64-4,4.5s1.5,4.52,5.41,4.52a12.78,12.78,0,0,0,4.16-.69l.45,4.61a25.12,25.12,0,0,1-6.11.69"></path><path class="cls-1" d="M130.55,46.82a3.29,3.29,0,0,0-3.48,3h6.57c.07-1.92-1.16-3-3.09-3M140,53.34H127c.07,2.33,1.79,3.64,5.38,3.64a18.84,18.84,0,0,0,6.4-1.09l.6,4a26.33,26.33,0,0,1-8,1.28c-7.16,0-11.06-2.83-11.06-8.92,0-5.33,3.71-9.3,10.45-9.3,6.56,0,9.44,3.54,9.44,8.11a16.11,16.11,0,0,1-.19,2.31"></path><path class="cls-1" d="M32.64,48.3c0,4.09,2.52,7.23,6.68,7.23S46,52.39,46,48.3C46,44.49,43.68,41,39.32,41s-6.68,3.54-6.68,7.33m21,0C53.64,56.23,47.22,61,39.29,61S25,56.23,25,48.3c0-7.75,6.47-12.8,14.34-12.8s14.35,5,14.35,12.8"></path><path class="cls-1" d="M158.22,47a4.44,4.44,0,0,0-1.09.07V57a3,3,0,0,0,1,0c3.09,0,5.9-1.79,5.9-5,0-2.69-1.12-5-5.76-5m-1,13.92c-2.69,0-5.71-.14-6.64-.14h-3.21v-2.9a21.6,21.6,0,0,1,3.21-.36v-11a25.44,25.44,0,0,1-3.21-.26v-3h3c2.07,0,4.23-.07,7.92-.07,7.4,0,12.57,2.09,12.57,8.38,0,5.92-5.45,9.25-13.66,9.25"></path><path class="cls-1" d="M171.78,60.72V57.88a22.6,22.6,0,0,1,3.17-.35v-11a25.09,25.09,0,0,1-3.17-.26v-3h19.44V48h-5.11a6.17,6.17,0,0,1-.24-1.21h-4.31V50.3h4a4.87,4.87,0,0,1,.23-.83h3.79v4.7h-3.79a2.66,2.66,0,0,1-.23-.74h-4v4h4.29c.09-.47.21-1.12.33-1.57h5.23v4.88Z"></path><path class="cls-1" d="M205.41,47c-.4,0-.81,0-1.21,0v4.88a5.45,5.45,0,0,0,1.07.07c1.9,0,3.4-.88,3.4-2.52,0-1.24-.71-2.48-3.26-2.48M205,55.39h-.76v2.19a28.5,28.5,0,0,1,3.19.33v2.84H194.58V57.91a28,28,0,0,1,3.16-.36v-11a30.36,30.36,0,0,1-3.16-.26v-3h3.12c1.21,0,4.16-.12,6.92-.12,6.78,0,10.47,2,10.47,5.81,0,3.38-3.28,6.38-10.07,6.38"></path><path class="cls-1" d="M256.41,49.08c-.12-.57-.28-1.45-.36-2.09h-2.64V57.55a23.28,23.28,0,0,1,3.12.36v2.81H243.71V57.91a24.33,24.33,0,0,1,3.19-.36V47h-2.64a14.48,14.48,0,0,1-.36,2.09h-4.37V43.32h21.24v5.76Z"></path><path class="cls-1" d="M260.7,59.05h.24c.31,0,.52-.12.52-.36s-.14-.33-.52-.33h-.24Zm0,1.07h-.29V58.17a3.21,3.21,0,0,1,.62,0,1.19,1.19,0,0,1,.66.17.48.48,0,0,1,.17.4c0,.29-.17.4-.4.48h0c.16,0,.28.17.33.48a3.64,3.64,0,0,0,.14.47h-.36a1.59,1.59,0,0,1-.11-.49.44.44,0,0,0-.48-.39h-.21v.86ZM261,57.6a1.5,1.5,0,1,0,0,3,1.5,1.5,0,0,0,0-3Zm0-.29a1.81,1.81,0,0,1,1.85,1.75v0a1.78,1.78,0,0,1-1.76,1.79H261a1.83,1.83,0,0,1-1.9-1.77h0A1.89,1.89,0,0,1,261,57.31Z"></path><path class="cls-1" d="M222.63,52a4.83,4.83,0,1,0,4.83-4.83A4.83,4.83,0,0,0,222.63,52m16.16,0c0,5.86-4.86,9.36-11.33,9.36s-11.3-3.53-11.3-9.36,4.85-9.44,11.3-9.44,11.33,3.71,11.33,9.44"></path><path class="cls-1" d="M67.61,74.4a15.55,15.55,0,0,1,3.17,9.85c0,3.16-.76,6.92-2.69,9.49A11.75,11.75,0,0,1,58.62,98c-3.55,0-7-1-9.4-3.79-2.16-2.57-3-6.66-3-10,0-3.14.71-6.8,2.64-9.37a11.93,11.93,0,0,1,9.4-4.19c3.54,0,6.94.91,9.32,3.74m-14.13,9.9c0,3.47.38,8.23,5,8.23s5-4.5,5-8-.33-8.42-5-8.42-5.09,4.61-5.09,8.21"></path><path class="cls-1" d="M80.87,90.34c0,.5-.15,2.64.69,2.64.38,0,.76-.26,1.23-.26,1.24,0,1.67,1,1.67,2.14,0,1.43-.64,2.62-2.24,2.62s-3.14-.38-4.68-.38-2.88.33-4.12.38c-1.43,0-2.07-1.17-2.07-2.62,0-1.14.4-2.14,1.67-2.14.49,0,.88.26,1.23.26.84,0,.69-2.14.69-2.64v-6.9c0-1.33.07-1.48-1.28-1.48s-2.31-.33-2.31-2,.57-2.24,2.12-2.24c1.16,0,1.47.12,1.5-1.24.14-4.12,3.71-5.8,7.44-5.8a9.55,9.55,0,0,1,3.91.78,3.94,3.94,0,0,1,2.26,3.36,2.8,2.8,0,0,1-2.59,3,2.09,2.09,0,0,1-.25,0,2.43,2.43,0,0,1-2.56-2.24,1.81,1.81,0,0,1,.33-1,1.67,1.67,0,0,0-.76-.15c-1.41,0-1.88.84-1.88,2.17s.07,1.21,1.28,1.21c1.6,0,2.69.07,2.69,2,0,1.74-.71,2.19-2.38,2.19s-1.59-.07-1.59,1.47v6.88"></path><path class="cls-1" d="M95.83,90.34c0,.5-.14,2.64.69,2.64.38,0,.76-.26,1.24-.26,1.24,0,1.67,1,1.67,2.14,0,1.43-.65,2.62-2.24,2.62s-3.14-.38-4.69-.38-2.85.33-4.11.38c-1.43,0-2.07-1.17-2.07-2.62,0-1.14.4-2.14,1.66-2.14.5,0,.86.26,1.24.26.83,0,.69-2.14.69-2.64v-6.9c0-1.33.07-1.48-1.29-1.48s-2.3-.33-2.3-2,.57-2.24,2.11-2.24c1.17,0,1.48.12,1.5-1.24.15-4.12,3.71-5.8,7.45-5.8a9.38,9.38,0,0,1,3.88.78,3.94,3.94,0,0,1,2.26,3.36,2.8,2.8,0,0,1-2.59,3h-.24a2.44,2.44,0,0,1-2.57-2.24,1.92,1.92,0,0,1,.33-1,1.67,1.67,0,0,0-.76-.15c-1.4,0-1.9.84-1.9,2.17s.07,1.21,1.28,1.21c1.59,0,2.69.07,2.69,2,0,1.74-.71,2.19-2.38,2.19s-1.59-.07-1.59,1.47v6.88"></path><path class="cls-1" d="M111.11,90.34c0,.5-.19,2.64.64,2.64.38,0,.76-.26,1.24-.26,1.24,0,1.66,1,1.66,2.14,0,1.43-.64,2.62-2.23,2.62s-3.14-.38-4.69-.38-2.88.33-4.23.38c-1.6,0-2.24-1.17-2.24-2.62,0-1.14.4-2.14,1.66-2.14.5,0,.86.26,1.24.26.83,0,.69-2.14.69-2.64V84.89c0-.5.14-2.64-.69-2.64-.38,0-.76.26-1.24.26-1.23,0-1.66-1-1.66-2.16,0-1.43.64-2.62,2.26-2.62,1.07,0,2.07.38,3.09.38s2.24-.38,3.33-.38,1.15,1.07,1.15,1.93V90.34Zm.19-17.66a3.55,3.55,0,1,1-3.59-3.51h0a3.54,3.54,0,0,1,3.55,3.53h0"></path><path class="cls-1" d="M123.79,82.17c-2.81,0-3.78,3-3.78,5.28a7.18,7.18,0,0,0,.95,3.79,4,4,0,0,0,3.14,1.66c1.74,0,2.31-1,2.9-2.38a2.39,2.39,0,0,1,1-1.43,3.05,3.05,0,0,1,1.66-.45,2.75,2.75,0,0,1,2.93,2.57v.22A6,6,0,0,1,130.11,96a10.78,10.78,0,0,1-13.39-.69,11,11,0,0,1-2.88-7.59c0-6.42,3.92-10.49,10.4-10.49,3.52,0,7.9,1.67,7.9,5.85a3.37,3.37,0,0,1-3.39,3.35h-.16c-1.55,0-3-.72-3-2.46a1.76,1.76,0,0,1,.38-1.14,3.41,3.41,0,0,0-2.12-.64"></path><path class="cls-1" d="M140.88,88.63c-.77,0-1.69-.24-1.69.78a3.77,3.77,0,0,0,3.74,3.79h.16c3.21,0,3-3,5.92-3a2.36,2.36,0,0,1,2.59,2.11,2.44,2.44,0,0,1,0,.27,4.8,4.8,0,0,1-2.6,3.85A11.29,11.29,0,0,1,143,98c-6.21,0-10-4.17-10-10.28s3.68-10.5,9.86-10.5a9.33,9.33,0,0,1,6.4,2.07A9,9,0,0,1,152,85.8c0,2.24-.24,2.81-2.5,2.81h-8.61Zm3.53-4.19c.62,0,1.33.19,1.33-.64a2.46,2.46,0,0,0-.79-1.62,3.05,3.05,0,0,0-2-.72,3.19,3.19,0,0,0-2.57,1c-.33.33-.95,1-.95,1.42,0,.72,1.16.53,1.59.53h3.39"></path><path class="cls-1" d="M175.41,74.59c.33-1.41.71-3.43,2.85-3.4,1.93,0,3.83.38,5.74.38,1.35,0,3.26-.38,5.18-.38a2.61,2.61,0,0,1,2.65,2.57,1.51,1.51,0,0,1,0,.3c0,1.15-.69,2.53-1.95,2.53-.57,0-1.09-.27-1.69-.27-1.14,0-1,2.34-1,3.07v9.9c0,.72-.19,3,1,3,.6,0,1.15-.26,1.69-.26,1.29,0,1.95,1.4,1.95,2.52a2.61,2.61,0,0,1-2.32,2.87,1.71,1.71,0,0,1-.32,0c-1.61,0-3.26-.38-4.57-.38-1.66,0-3.28.38-4.92.38-1.43,0-2.07-1.24-2.07-2.88,0-1.14.45-2.52,1.33-2.52.38,0,.76.26,1.17.26.78,0,.69-2.33.69-3v-13l-5.24,17.88a7,7,0,0,1-1,2.16c-.53.76-1.1.76-2,.76h-1.16c-2.31,0-2.4-.69-3-2.9l-5-17.91v13c0,.71-.07,3,.71,3,.41,0,.79-.26,1.17-.26.86,0,1.33,1.4,1.33,2.52,0,1.62-.64,2.88-1.81,2.88-1.61,0-3.23-.38-4.56-.38-1.67,0-3.29.38-4.91.38A2.68,2.68,0,0,1,152.4,95a2.44,2.44,0,0,1,0-.47c0-1.14.69-2.52,2-2.52.57,0,1.09.26,1.69.26,1.14,0,.95-2.33.95-3v-10c0-.71.19-3.07-.95-3.07-.6,0-1.12.26-1.69.26-1.29,0-2-1.4-2-2.52,0-1.62,1-2.88,3.6-2.88,1.92,0,3.8.38,5.73.38,1.36,0,3.24-.38,5.16-.38s1.91,1.43,2.24,2.83L172.21,87l3.2-12.42"></path><path class="cls-1" d="M200.07,82.44c0,1.74-1.66,2.52-3.23,2.52a3.31,3.31,0,0,1-3.43-3.18v0c0-3.91,5.36-4.55,8.24-4.55,1.88,0,4.45.19,6.11,1.14,2.24,1.34,2.43,3.48,2.43,5.81v7.11c0,.5-.12,1.74.64,1.74h.91a1.94,1.94,0,0,1,1.89,2s0,.07,0,.11c0,2.12-2.12,2.91-3.91,2.91s-3.66-.65-4.3-2.43A9.16,9.16,0,0,1,199,98c-3.43,0-6.73-1.81-6.73-5.67,0-8.94,11.7-4.3,11.7-9.3a2.32,2.32,0,0,0-2.48-2.13h-.09c-.64,0-1.24.12-1.24.86v.69Zm3.81,6.38c-1.09,1.16-5.47.59-5.47,2.61,0,1.31,1.07,1.76,2.16,1.76,2.22,0,3.31-1.3,3.31-3.54v-.83"></path><path class="cls-1" d="M218.49,83.87c-.33-.5-1.14-1.62-1.71-1.62a3.44,3.44,0,0,0-1.05.26c-1.09,0-1.47-1-1.47-2.16,0-1.43.57-2.62,2-2.62,1,0,2,.38,3,.38s2.24-.33,3.4-.38a1.91,1.91,0,0,1,2,1.83,1.83,1.83,0,0,1,0,.33c0,1.29-1,1.36-1,2a8.7,8.7,0,0,0,1.09,2.28l.53,1,.57-1a6.51,6.51,0,0,0,1-2c0-.76-1.24-.31-1.24-2.16,0-1.41.64-2.24,1.55-2.24s1.95.38,3,.38,2.21-.33,3.4-.38c1.36,0,1.93,1.16,1.93,2.62,0,1.14-.34,2.16-1.43,2.16a2.63,2.63,0,0,0-1.1-.31c-.57,0-.71.43-1,.91l-2.57,4,2.57,4.31c.31.45.86,1.42,1.4,1.42a9.49,9.49,0,0,1,1-.12c1.09,0,1.42,1,1.42,2.15,0,1.42-.57,2.61-1.92,2.61-1.17,0-2.26-.38-3.41-.38s-2,.34-3,.38a2.22,2.22,0,0,1-2-2.38,1.34,1.34,0,0,1,.57-1.23c.23-.19.69-.53.69-.91a7.74,7.74,0,0,0-1-2.14l-.57-1L224,91.59a4.1,4.1,0,0,0-.76,1.5c0,.9,1.29.4,1.29,2a2.21,2.21,0,0,1-2,2.39h-.09c-1.19,0-2.26-.38-3.4-.38s-2,.33-3,.38c-1.33,0-1.88-1.17-1.88-2.62,0-1.14.34-2.14,1.43-2.14.43,0,.79.14,1.21.14.65,0,1.1-.78,1.43-1.35l.64-1,2-3.26-2.38-3.42"></path><path class="cls-1" d="M237.65,79.73a1.81,1.81,0,1,1,3.61-.27,1.22,1.22,0,0,1,0,.27,1.81,1.81,0,0,1-3.61.27,1.22,1.22,0,0,1,0-.27m-.41,0a2.22,2.22,0,1,0,2.25-2.19h-.08a2.17,2.17,0,0,0-2.21,2.13v.06M238.56,81h.4V79.92h.45L240.1,81h.43l-.74-1.14a.65.65,0,0,0,.69-.69c0-.45-.28-.74-.9-.74h-1Zm.4-2.23h.53c.26,0,.57,0,.57.4s-.34.43-.69.43H239Z"></path><path class="cls-2" d="M367.06,45.81h-49.2a8.27,8.27,0,0,0-8.22,8.32V80.58a.18.18,0,0,0,.18.18h6.36a.18.18,0,0,0,.18-.18V53.88h52.21v26.7a.18.18,0,0,0,.18.18h6.37a.18.18,0,0,0,.18-.18V54.27a8.26,8.26,0,0,0-8.06-8.45h-.18Z"></path><path class="cls-2" d="M469.12,75.85h-1a1.74,1.74,0,0,1-1.93-1.52,1.93,1.93,0,0,1,0-.48V63.47c0-6.45-3.49-9.59-10.72-9.59a27,27,0,0,0-11.56,2.41.17.17,0,0,0-.09.21l1.58,4.87a.18.18,0,0,0,.16.12h.06a26.72,26.72,0,0,1,8.84-2.16c2.49,0,5,.46,5,3.86v1.45l-8.37.67c-8,.65-9.15,6.23-9.15,8.5,0,4.49,3.57,7.64,8.69,7.64a14.58,14.58,0,0,0,9.77-3.54c.6,1.25,2.29,3.34,6.89,3.34h1.89a.17.17,0,0,0,.17-.16V76a.18.18,0,0,0-.17-.17Zm-9.64-2.45c-3,2.09-5.06,3-7.22,3s-3.77-1.16-3.77-2.89c0-.73.09-3,3.28-3.45l7.7-1Z"></path><path class="cls-2" d="M487.11,53.88c6.79,0,12.11,6.06,12.1,13.79,0,8.13-5,13.79-12.11,13.79A12.82,12.82,0,0,1,479,78.39V91.71a.17.17,0,0,1-.17.17h-6.38a.18.18,0,0,1-.17-.17v-37a.17.17,0,0,1,.17-.16h6.39a.17.17,0,0,1,.17.16V57a11.79,11.79,0,0,1,8.07-3.16Zm-81.59,6.29c5.39,1.14,12.68,2.71,12.69,11,0,6.61-5.23,10.39-14.35,10.39a28.64,28.64,0,0,1-14-3.73l-.12-.07a.19.19,0,0,1-.06-.23l2.92-5.19a.18.18,0,0,1,.15-.08h.08l.12.07a21.83,21.83,0,0,0,10.89,3.18c3.36,0,7.3-.76,7.3-4.31,0-3.28-4-4.12-8.08-5-6.51-1.35-12.54-3.59-12.54-10.79,0-6.25,5.38-10.29,13.71-10.29A29.5,29.5,0,0,1,416.76,48l.3.15a.15.15,0,0,1,.09.15v.08l-2.82,5a.16.16,0,0,1-.21.08h0l-.3-.23a22.45,22.45,0,0,0-9.4-2.12c-3.13,0-6.79.73-6.79,4.21,0,3.16,4,4,7.94,4.86Zm18-5.57V48a.19.19,0,0,1,.17-.17h6.39a.17.17,0,0,1,.16.17v6.56H439a.17.17,0,0,1,.17.16v5a.17.17,0,0,1-.17.17h-8.73V72.37c0,2,1.59,3.36,4,3.36a10.7,10.7,0,0,0,4.57-.8l.38-.15h.06a.2.2,0,0,1,.16.12l1.5,4.62a.16.16,0,0,1-.09.21l-.39.17a17.57,17.57,0,0,1-7.52,1.57c-5.89,0-9.41-3.14-9.41-8.41V59.94h-5.22a.18.18,0,0,1-.17-.17V54.72a.17.17,0,0,1,.17-.16h5.21ZM555.75,64.89c5.36.94,10.61,2.38,10.61,8.33,0,5.45-4,8.22-11.79,8.22a26.4,26.4,0,0,1-12.08-3.09l-.15-.08a.18.18,0,0,1-.08-.15V78l2.48-4.38a.19.19,0,0,1,.22-.07l.15.08a21.47,21.47,0,0,0,9.44,2.73c3.8,0,5.58-.9,5.58-2.74,0-2-1.85-2.67-6.44-3.43C548.51,69.35,543,67.93,543,62c0-5.24,4.11-8.12,11.59-8.12a23.35,23.35,0,0,1,10.85,2.52l.21.11a.15.15,0,0,1,.09.15v.08l-2.5,4.34a.16.16,0,0,1-.22.07h0l-.18-.09a17.18,17.18,0,0,0-8.21-2.11c-4.65,0-5.22,1.59-5.22,2.79,0,2,2.12,2.43,6.43,3.18ZM509.41,45.81a.18.18,0,0,1,.17.17V80.62a.17.17,0,0,1-.17.17H503a.18.18,0,0,1-.17-.17V46a.19.19,0,0,1,.17-.17Zm-24,29.93c4.22,0,7.06-3.24,7.06-8.07s-2.77-8.07-7.06-8.07c-2.27,0-4.25,1-6.4,3.34v9.23C481.1,74.63,483.07,75.74,485.41,75.74Z"></path><path class="cls-2" d="M536.83,73.67a.2.2,0,0,0-.23-.07l-.22.12a14.89,14.89,0,0,1-8.26,2.3c-4.47,0-7.5-2.49-8.11-6.65H539a.17.17,0,0,0,.16-.17V67.37c0-8.34-5-13.49-13-13.49-7.68,0-13,5.74-13,14s5.8,13.58,14.43,13.58a22,22,0,0,0,11.63-3.16l.11-.07a.18.18,0,0,0,.06-.23ZM526.19,59.32c3.49,0,5.64,1.82,6.22,5.26H520C520.63,61.18,522.82,59.32,526.19,59.32Z"></path><path class="cls-1" d="M616.88,71.33a.22.22,0,0,0-.25-.25H610.2a.4.4,0,0,1-.42-.42V67.39a.39.39,0,0,1,.42-.42h6.43c.17,0,.25-.09.25-.26V60.24a.4.4,0,0,1,.42-.42h3.4a.39.39,0,0,1,.42.42v6.47a.23.23,0,0,0,.26.26h6.42a.39.39,0,0,1,.42.42v3.27a.39.39,0,0,1-.42.42h-6.42a.23.23,0,0,0-.26.25V77.8a.39.39,0,0,1-.42.42h-3.4a.39.39,0,0,1-.42-.42Z"></path><path class="cls-1" d="M643.59,52.47a.4.4,0,0,1,.42-.42h3.74a.66.66,0,0,1,.71.42l7.86,17.6h.17l7.73-17.6a.66.66,0,0,1,.71-.42h3.7a.4.4,0,0,1,.42.42V80.2a.4.4,0,0,1-.42.42H665a.4.4,0,0,1-.42-.42V62.72h-.16l-6,13.44a.81.81,0,0,1-.8.55H655.1a.81.81,0,0,1-.8-.55l-6-13.44h-.16V80.2a.4.4,0,0,1-.42.42H644a.4.4,0,0,1-.42-.42Z"></path><path class="cls-1" d="M675.26,74.19c-.59-1.76-.76-3.36-.76-7.85s.17-6.1.76-7.86c1.47-4.54,5.17-6.89,10.08-6.89s8.65,2.35,10.13,6.89c.58,1.76.75,3.36.75,7.86s-.17,6.09-.75,7.85c-1.48,4.54-5.17,6.89-10.13,6.89S676.73,78.73,675.26,74.19Zm15.42-1.3c.33-1,.5-2.52.5-6.55s-.17-5.51-.5-6.56a5.65,5.65,0,0,0-10.63,0c-.34,1-.51,2.48-.51,6.56s.17,5.5.51,6.55a5.65,5.65,0,0,0,10.63,0Z"></path><path class="cls-1" d="M717.89,80.62a.61.61,0,0,1-.63-.42L711.8,69.07h-4.91c-.17,0-.26.08-.26.25V80.2a.39.39,0,0,1-.42.42H702.1a.4.4,0,0,1-.42-.42V52.47a.4.4,0,0,1,.42-.42h11c5.26,0,9.12,3.49,9.12,8.53a8.13,8.13,0,0,1-5.42,7.86l6,11.63a.34.34,0,0,1-.29.55Zm-.54-20c0-2.48-1.77-4.07-4.37-4.07h-6.09c-.17,0-.26.08-.26.25v7.6c0,.17.09.25.26.25H713C715.58,64.61,717.35,63,717.35,60.58Z"></path><path class="cls-1" d="M727.67,52.47a.4.4,0,0,1,.42-.42H746a.4.4,0,0,1,.42.42v3.62a.4.4,0,0,1-.42.42H732.88a.22.22,0,0,0-.25.25v7a.22.22,0,0,0,.25.25h11a.4.4,0,0,1,.42.42V68a.4.4,0,0,1-.42.42h-11a.22.22,0,0,0-.25.25v7.22a.22.22,0,0,0,.25.25H746a.4.4,0,0,1,.42.42V80.2a.4.4,0,0,1-.42.42h-17.9a.4.4,0,0,1-.42-.42Z"></path></svg> 