<?xml version="1.0" encoding="UTF-8"?> <svg xmlns="http://www.w3.org/2000/svg" id="Layer_1" data-name="Layer 1" viewBox="0 0 780 135.68"><defs><style>.cls-1{fill:#6f6f6f;}.cls-2{fill:#7c7c7c;}</style></defs><path class="cls-1" d="M187.28,36.76c-3.76,0-6.44,2.94-6.44,7.47v16.6h-5.75V31.61h5.68v3.57a7.73,7.73,0,0,1,6.85-3.78h2.07v5.36Zm-16.16,9.46c0-8.71-6.2-15.23-14.59-15.23a15,15,0,0,0-14.94,15.14v.09a15.09,15.09,0,0,0,15.48,15.29,15.25,15.25,0,0,0,12.61-6.24l-4.18-3.06a10.15,10.15,0,0,1-8.43,4.25,9.78,9.78,0,0,1-9.64-8.36h23.7Zm-23.57-2.68a9.18,9.18,0,0,1,8.91-7.47,9.06,9.06,0,0,1,8.84,7.47ZM123.37,31A14.54,14.54,0,0,0,113,35.31V20.7h-5.75V60.83H113v-3.7a14.77,14.77,0,0,0,10.42,4.38A15.26,15.26,0,0,0,124,31h-.67ZM123,56.37A10.12,10.12,0,1,1,133,46.21v.08a10,10,0,0,1-10,10.06h0ZM86.11,56.1c5.55,0,9.86-4.26,9.86-10.64V20.7h6V60.83H96V57a14.64,14.64,0,0,1-10.62,4.45c-8.56,0-15.15-6.24-15.15-15.7V20.7h6.07V45.5C76.34,51.91,80.47,56.1,86.11,56.1Z"></path><path class="cls-1" d="M72.64,72.19H100.8v6.89H80.25v9.78h20v6.66h-20v9.94H100.8v6.89H72.64Zm105.91,40.89c8.63,0,13.49-4.14,13.49-9.81,0-4-2.88-7.06-8.91-8.37l-6.37-1.3c-3.7-.69-4.86-1.38-4.86-2.76,0-1.78,1.78-2.88,5.07-2.88,3.56,0,6.2,1,6.89,4.25h7.46c-.4-6.2-4.86-10.29-13.9-10.29-7.81,0-13.29,3.22-13.29,9.47,0,4.32,3,7.13,9.53,8.5l7.12,1.65c2.81.55,3.56,1.31,3.56,2.47,0,1.85-2.12,3-5.55,3-4.31,0-6.78-1-7.74-4.25h-7.51C164.64,109,169.23,113.08,178.55,113.08Zm-17.18-.75h-8.08c-5.07,0-7.88-3.16-7.88-7.14V89.41h-5.68V82.69h5.71V74.25H153v8.44h8.42v6.72H153v13.86c0,1.57,1.09,2.33,2.81,2.33h5.61ZM129,82.71v2.67a14.58,14.58,0,0,0-9.46-3.45,15.58,15.58,0,0,0-.66,31.15h.66a14.56,14.56,0,0,0,9.46-3.45v2.68h7.49V82.69Zm-8.84,23.86a9.06,9.06,0,1,1,9-9.16v.11a9,9,0,0,1-8.87,9h-.08Z"></path><path class="cls-2" d="M600,71.67a.23.23,0,0,0-.26-.25h-6.42a.4.4,0,0,1-.42-.42V67.73a.39.39,0,0,1,.42-.42h6.42a.23.23,0,0,0,.26-.26V60.58a.4.4,0,0,1,.42-.42h3.4a.4.4,0,0,1,.42.42v6.47c0,.17.08.26.25.26h6.43a.39.39,0,0,1,.42.42V71a.4.4,0,0,1-.42.42h-6.43a.22.22,0,0,0-.25.25v6.47a.39.39,0,0,1-.42.42h-3.4a.39.39,0,0,1-.42-.42Z"></path><path class="cls-2" d="M626.7,52.81a.4.4,0,0,1,.42-.42h3.74a.68.68,0,0,1,.71.42l7.86,17.6h.16l7.73-17.6a.68.68,0,0,1,.72-.42h3.69a.39.39,0,0,1,.42.42V80.54a.39.39,0,0,1-.42.42h-3.65a.4.4,0,0,1-.42-.42V63.06h-.17l-6,13.45a.81.81,0,0,1-.8.54h-2.43a.81.81,0,0,1-.8-.54l-6-13.45h-.17V80.54a.4.4,0,0,1-.42.42h-3.65a.4.4,0,0,1-.42-.42Z"></path><path class="cls-2" d="M658.37,74.53c-.59-1.76-.76-3.36-.76-7.85s.17-6.1.76-7.86c1.47-4.54,5.16-6.89,10.08-6.89s8.65,2.35,10.12,6.89c.59,1.76.76,3.36.76,7.86s-.17,6.09-.76,7.85c-1.47,4.54-5.17,6.89-10.12,6.89S659.84,79.07,658.37,74.53Zm15.41-1.3c.34-1,.51-2.52.51-6.55s-.17-5.51-.51-6.56a5.65,5.65,0,0,0-10.63,0c-.33,1.05-.5,2.48-.5,6.56s.17,5.5.5,6.55a5.65,5.65,0,0,0,10.63,0Z"></path><path class="cls-2" d="M701,81a.59.59,0,0,1-.63-.42l-5.46-11.13H690a.22.22,0,0,0-.25.25V80.54a.4.4,0,0,1-.42.42H685.2a.4.4,0,0,1-.42-.42V52.81a.4.4,0,0,1,.42-.42h11c5.25,0,9.12,3.49,9.12,8.53A8.14,8.14,0,0,1,700,68.78l6,11.63c.16.3,0,.55-.3.55Zm-.55-20c0-2.48-1.76-4.07-4.37-4.07H690a.22.22,0,0,0-.25.25v7.6A.22.22,0,0,0,690,65h6.09C698.69,65,700.45,63.36,700.45,60.92Z"></path><path class="cls-2" d="M710.78,52.81a.4.4,0,0,1,.42-.42h17.9a.4.4,0,0,1,.42.42v3.62a.4.4,0,0,1-.42.42H716a.22.22,0,0,0-.25.25v7a.22.22,0,0,0,.25.25h11a.4.4,0,0,1,.42.42v3.62a.4.4,0,0,1-.42.42H716a.22.22,0,0,0-.25.25v7.22c0,.17.08.26.25.26H729.1a.39.39,0,0,1,.42.42v3.61a.4.4,0,0,1-.42.42H711.2a.4.4,0,0,1-.42-.42Z"></path><path class="cls-1" d="M436.77,43.68h-8a.73.73,0,0,0-.69.68V61.68h-8V44.36a.72.72,0,0,0-.68-.68h-8a.72.72,0,0,0-.68.68V88.82a.73.73,0,0,0,.68.68h8a.72.72,0,0,0,.68-.68V71h8V88.82a.73.73,0,0,0,.69.68h8a.73.73,0,0,0,.68-.68V44.36a.72.72,0,0,0-.68-.68m-67.09,0h-8a.6.6,0,0,0-.68.68V75.85a5.79,5.79,0,0,1-1.14,3.64,3.06,3.06,0,0,1-2.73,1.14,3.86,3.86,0,0,1-2.73-1.14,5.79,5.79,0,0,1-1.13-3.64V44.36a.72.72,0,0,0-.69-.68h-8a.6.6,0,0,0-.68.68V76.08c0,4.09.91,8,3.41,10.5a13.6,13.6,0,0,0,9.82,3.87A13,13,0,0,0,367,86.58c2.5-2.5,3.41-6.14,3.41-10.5V44.36a.81.81,0,0,0-.76-.68m-78-.69a12.93,12.93,0,0,0-9.82,3.87c-2.5,2.5-3.41,6.14-3.41,10.5v19c0,4.09.91,8,3.41,10.5a13.58,13.58,0,0,0,9.82,3.86c4.09,0,7.54-1.36,9.81-3.86,2.51-2.5,3.42-6.14,3.42-10.5V65.85a1,1,0,0,0-.91-.91H292.36a1,1,0,0,0-.91.91v7.77a1,1,0,0,0,.91.91h3v1.82a6.42,6.42,0,0,1-1.13,3.86,3.06,3.06,0,0,1-2.73,1.14,3.84,3.84,0,0,1-2.73-1.14,6.51,6.51,0,0,1-1.14-3.86V57.62a6.42,6.42,0,0,1,1.14-3.86,3.06,3.06,0,0,1,2.73-1.14,3.8,3.8,0,0,1,2.73,1.14,6.5,6.5,0,0,1,1.13,3.86v1.82a.72.72,0,0,0,.69.68h8a.6.6,0,0,0,.68-.68V57.62c0-4.09-.91-8-3.41-10.5-2-2.76-5.73-4.13-9.59-4.13M394.32,79.26c-.69.91-1.6,1.14-3,1.14h-4.55V70.77h4.55a3.77,3.77,0,0,1,2.73,1.14,5.61,5.61,0,0,1,1.14,3.41C395.26,77.22,395,78.32,394.32,79.26ZM386.77,53h4.1a3.07,3.07,0,0,1,2.73,1.13,4.52,4.52,0,0,1,.91,3.23,5.43,5.43,0,0,1-.91,3.41,3.69,3.69,0,0,1-2.51,1.13H387V53ZM400,66a12.84,12.84,0,0,0,3.87-8.68A13.7,13.7,0,0,0,400.65,48a12.93,12.93,0,0,0-9.82-4.1H378.36a.72.72,0,0,0-.68.68v44.5a.72.72,0,0,0,.68.68h13.23A13.11,13.11,0,0,0,402.09,85a15.14,15.14,0,0,0,3-9.36A12.29,12.29,0,0,0,400,66Zm-72.51-4.36A3.82,3.82,0,0,1,324.27,63h-3.86V53h3.86a3.93,3.93,0,0,1,3.22,1.36A4.7,4.7,0,0,1,328.63,58c0,1.59-.19,2.73-1.14,3.64Zm5.05,8.22a9.62,9.62,0,0,0,2.27-2,14.83,14.83,0,0,0,3.64-10A13.56,13.56,0,0,0,334.81,48c-2.27-2.73-5.69-4.1-9.59-4.32H312a.72.72,0,0,0-.68.68V88.82a.73.73,0,0,0,.68.68h8a.72.72,0,0,0,.68-.68V72.37h2.73l5,16.86c0,.23.46.46.69.46h8.41c.23,0,.46-.23.68-.23s.23-.45.23-.68L332.54,69.9Zm162.37,9.36c-.69.91-1.6,1.14-3,1.14h-4.55V70.77h4.55a3.77,3.77,0,0,1,2.73,1.14,5.61,5.61,0,0,1,1.14,3.41,4.8,4.8,0,0,1-.87,3.94ZM487.59,53h4.09a3.05,3.05,0,0,1,2.73,1.13,4.48,4.48,0,0,1,.91,3.23,5.37,5.37,0,0,1-.91,3.41,3.64,3.64,0,0,1-2.5,1.13h-4.09V53Zm13.23,13a12.88,12.88,0,0,0,3.87-8.68A13.65,13.65,0,0,0,501.46,48a12.89,12.89,0,0,0-9.81-4.1H479.06a.73.73,0,0,0-.68.68v44.5a.72.72,0,0,0,.68.68h13.31A13.11,13.11,0,0,0,502.87,85a15.14,15.14,0,0,0,3-9.36,13.64,13.64,0,0,0-5-9.55ZM470.27,43.68h-8a.6.6,0,0,0-.68.68V75.85a5.79,5.79,0,0,1-1.14,3.64,3.06,3.06,0,0,1-2.73,1.14A3.86,3.86,0,0,1,455,79.49a5.79,5.79,0,0,1-1.13-3.64V44.36a.72.72,0,0,0-.69-.68h-8a.6.6,0,0,0-.68.68V76.08c0,4.09.9,8,3.41,10.5a13.58,13.58,0,0,0,9.81,3.87c4.1,0,7.55-1.37,9.82-3.87,2.5-2.5,3.41-6.14,3.41-10.5V44.36c.23-.23-.23-.68-.72-.68"></path></svg> 