<?xml version="1.0" encoding="UTF-8"?> <svg xmlns="http://www.w3.org/2000/svg" id="Layer_1" data-name="Layer 1" viewBox="0 0 300 300"><defs><style>.cls-1,.cls-13{isolation:isolate;}.cls-2{fill:#edf3f4;}.cls-10,.cls-13,.cls-2,.cls-3,.cls-4,.cls-5,.cls-6,.cls-7,.cls-8{stroke:#000;}.cls-10,.cls-11,.cls-12,.cls-13,.cls-2,.cls-3,.cls-4,.cls-5,.cls-6,.cls-7,.cls-8,.cls-9{stroke-miterlimit:10;}.cls-3{fill:#fff;}.cls-4{fill:#c6d8db;}.cls-13,.cls-5{fill:#ffe922;}.cls-6{fill:#fff085;}.cls-7{fill:#fff083;}.cls-8{fill:#c2ffc9;}.cls-9{fill:#2d2d2d;}.cls-11,.cls-12,.cls-9{stroke:#070707;}.cls-10{fill:#2eef6f;}.cls-11{fill:#ff5050;}.cls-12{fill:#ffc9c5;}.cls-13{opacity:0.5;}</style></defs><g class="cls-1"><path class="cls-2" d="M244.72,236c-53.19,30.92-139.66,30.92-193.2,0-26.93-15.54-40.38-36-40.33-56.34l0,7.9c-.06,20.39,13.4,40.8,40.32,56.35,53.55,30.91,140,30.91,193.21,0,26.42-15.36,39.65-35.45,39.71-55.57l0-7.9c-.06,20.12-13.28,40.21-39.71,55.56Z"></path><path class="cls-3" d="M244.09,124.08c53.54,30.92,53.82,81,.63,111.91s-139.66,30.92-193.2,0-53.82-81-.63-111.91,139.7-30.89,193.2,0Z"></path><path class="cls-2" d="M215.71,140.58c37.75,21.8,37.95,57.12.44,78.92s-98.49,21.8-136.24,0-38-57.12-.45-78.92,98.52-21.78,136.25,0Z"></path><path class="cls-4" d="M79.46,147.52c37.51-21.8,98.52-21.78,136.25,0,17.45,10.08,26.77,23.05,28.16,36.23,1.68-15.49-7.65-31.32-28.16-43.16C178,118.8,117,118.79,79.46,140.58c-20.16,11.72-29.31,27.35-27.7,42.69C53.17,170.25,62.34,157.47,79.46,147.52Z"></path></g><g class="cls-1"><path class="cls-5" d="M232.48,148.6l-.22,25.56c-.11,12.24-8.09,24.37-24.15,33.65-32.12,18.8-84.56,18.8-116.9,0-16.28-9.39-24.48-21.73-24.48-34.08L67,148.16c0,12.35,8.2,24.8,24.48,34.2,32.34,18.68,84.78,18.68,117,0,15.95-9.29,23.93-21.53,24-33.76Z"></path><path class="cls-6" d="M208,115.68c32.37,18.69,32.54,49.06.31,67.79s-84.58,18.68-117,0-32.61-49.09-.45-67.78S175.52,97,208,115.68Z"></path></g><g class="cls-1"><path class="cls-5" d="M169.78,164.07v2.81l-55.85,32.46v-2.81Z"></path><path class="cls-5" d="M113.93,196.53v2.81L57.71,166.88v-2.8Z"></path><path class="cls-7" d="M169.78,164.07l-55.85,32.46L57.72,164.08l55.85-32.46Z"></path></g><g class="cls-1"><path class="cls-5" d="M241.08,160.56v3.17L178,200.38v-3.17Z"></path><path class="cls-5" d="M178,197.21v3.17l-63.48-36.65v-3.17Z"></path><path class="cls-7" d="M242.84,164.47l-65.75,31.58-60.4-41.53,65.75-31.58Z"></path><path class="cls-8" d="M178.68,202.74c2.23,1.61,7.78,7.93,12.1,4.4,3.36-2.75,1.43-11.95,12.29-7.29,2.58,1.11,5.67,2.26,8,.75,3.92-2.49,1.94-8.1,4-11.83,1.79-3.16,5.83-4.13,8.73-6.31a12,12,0,0,0,4.2-12.61c-1-3.51-4.33-6.65-8-6.16a9,9,0,0,0-5.35,3.4c-1.42,1.64-2.56,3.51-4.1,5-2.7,2.67-6.42,4.07-10.15,4.77s-7.54.75-11.32,1.12a68.71,68.71,0,0,0-29.29,9.88c-1.75,1.08-3.66,2.65-3.48,4.7.22,2.41,3.53,3.68,4.77,5.71,7.29,11.87,8.81-1.85,17.5,4.44Z"></path></g><g class="cls-1"><path class="cls-5" d="M206.33,161.44v3.17l-63.06,36.65v-3.17Z"></path><path class="cls-5" d="M143.27,198.09v3.17L79.78,164.61v-3.17Z"></path><path class="cls-7" d="M206.33,161.44l-63.06,36.65L79.79,161.44l63.06-36.65Z"></path></g><path class="cls-9" d="M232.05,130.59c-3.23,8.95-10.78,17.38-22.66,24.27-32.77,19.07-86.15,19.07-119.22,0-12-7-19.73-15.54-23-24.49C61.5,146,69.2,163,90.17,175.1c33.07,19.06,86.45,19.06,119.22,0C230.14,163,237.69,146.21,232.05,130.59Z"></path><path class="cls-9" d="M90.17,154.86c33.07,19.07,86.45,19.07,119.22,0,11.88-6.89,19.43-15.32,22.66-24.27-3.23-9-10.93-17.52-23.1-24.56C176,87,122.58,87,89.8,106c-12,6.89-19.5,15.4-22.66,24.34,3.3,8.95,11,17.52,23,24.49Z"></path><path class="cls-5" d="M213.34,132.61v4.54c0-8.24-17.05-11.84-26.44-6.39-3,1.74-4.48,4-4.48,6.3.46-2.78-1.8-7.17,4.5-10.83,6-3.49,15.79-3.48,21.85,0,3,1.72,4.58,4,4.58,6.36Z"></path><path class="cls-5" d="M216.12,132.63v4.53a6,6,0,0,1-.25,1.72v-4.54A6,6,0,0,0,216.12,132.63Z"></path><path class="cls-5" d="M216.12,132.63v0"></path><path class="cls-5" d="M216.12,132.78v4.54a6,6,0,0,1-.12,1v-4.54a5.91,5.91,0,0,0,.12-1"></path><path class="cls-5" d="M216,133.81v4.54c0,.17-.08.35-.13.53v-4.54a5.11,5.11,0,0,0,.13-.53"></path><path class="cls-5" d="M179.63,137.06l0-4.54c0,2.27,1.23,4.54,3.72,6.43l0,4.53C180.87,141.6,179.63,139.33,179.63,137.06Z"></path><path class="cls-5" d="M183.37,139l0,4.53c-2.48-1.88-3.72-4.15-3.72-6.42l0-4.54C179.64,134.79,180.88,137.06,183.37,139Z"></path><path class="cls-5" d="M234.47,144.83l0,4.53c0-2.31-1.53-4.62-4.57-6.37-4.06-2.37-10-3.23-15.47-2.25l-2.5.44,0-4.53,2.47-.45c5.48-1,11.41-.11,15.47,2.25,3.07,1.76,4.6,4.07,4.6,6.38Z"></path><path class="cls-5" d="M188.69,139.9l0,4.54-2.53.3a20.55,20.55,0,0,0-7.9,2.42c-3,1.73-4.48,4-4.51,6.29l0-4.53C173.75,140.68,188.12,140.16,188.69,139.9Z"></path><path class="cls-10" d="M237.25,144.85l0,4.54c0,2.67-1.75,5.34-5.26,7.37-7,4.07-18.34,4.15-25.49.2v-4.54c7.18,4,18.51,3.87,25.49-.19C235.47,150.2,237.22,147.53,237.25,144.85Z"></path><path class="cls-10" d="M171,153.45v-4.53c0,2.72,1.79,5.45,5.39,7.53,7.14,4.12,18.72,4.12,25.81,0a11.75,11.75,0,0,0,4.32-4V157a11.81,11.81,0,0,1-4.32,4c-7.09,4.13-18.68,4.13-25.82,0-3.59-2.07-5.39-4.8-5.38-7.53Z"></path><path class="cls-8" d="M232,152.24c-7,4.06-18.32,4.12-25.48.19a11.75,11.75,0,0,1-4.32,4c-7.09,4.12-18.67,4.12-25.81,0-9.5-5.49-6-15,7-17.5-5.45-4.13-4.91-10.1,1.56-13.86,12.34-7.17,33.9-.9,30.94,9.25,5.79-.56,11.73.51,16,3,7.14,4.13,7.19,10.83.11,14.94ZM208.1,151.1c6,3.49,15.87,3.5,21.89,0s5.94-9.17-.1-12.66c-4.07-2.35-10-3.21-15.48-2.24l-2.49.44.75-1.45c4.78-9.1-14.81-15.33-25.76-9-6,3.46-6,9.12,0,12.61l1.81,1.07-2.54.29a20.49,20.49,0,0,0-7.91,2.43c-6,3.5-6,9.18.07,12.68s15.87,3.5,21.89,0a8.87,8.87,0,0,0,4.23-4.66l.55-1.76,1.91,1.42a11.14,11.14,0,0,0,1.22.79Z"></path><path class="cls-5" d="M94,133.11v4.53c-8.52-6.23-18.69-5.87-25-2.22-3,1.72-4.48,4-4.48,6.29l0-4.54c0-2.28,1.5-4.56,4.48-6.29,7-4.08,18.5-3,23.07.81Z"></path><path class="cls-5" d="M125.18,137.53c0-10.82-27.15-12.15-30.64-1.67L94,137.64v-4.53c.58-1.12.48-3.87,4.82-6.43,6-3.48,15.83-3.48,21.87,0,6.43,3.71,4.07,8,4.54,10.85Z"></path><path class="cls-5" d="M128,133.07c-.75,1.47,3.67,11.48-12.4,14.5V143c5.59-1.05,12.37-4.43,12.39-10Z"></path><path class="cls-10" d="M61.71,141.69v-4.53c0,2.72,1.79,5.46,5.39,7.53,4.23,2.44,10.17,3.52,16,2.95v4.53c-5.8.58-11.74-.5-16-2.94-3.6-2.08-5.4-4.81-5.39-7.54Z"></path><path class="cls-5" d="M87,145.35l0,4.54-.75,1.44a5.7,5.7,0,0,0-.64,2.56v-4.53a5.45,5.45,0,0,1,.66-2.56Z"></path><path class="cls-5" d="M116.52,149.47V154c0-4.26-5.67-6.91-6.29-7.4l0-4.54c.69.56,6.26,2.74,6.26,7.4Z"></path><path class="cls-5" d="M119.31,149.47c-.49,2.71,2,7.73-5.3,12-7.1,4.12-18.66,4.11-25.79,0-3.51-2-5.41-4.74-5.4-7.52v-4.54c0,2.78,1.89,5.49,5.41,7.52,11.06,6.39,31,2.19,31.07-7.42Z"></path><path class="cls-8" d="M115.59,143c13.51,10.29-11.14,23.22-27.35,13.86-4.25-2.45-6.13-5.89-5.16-9.25-5.8.57-11.74-.51-16-2.95-7.14-4.12-7.2-10.82-.1-14.94s18.31-4.12,25.47-.19a11.72,11.72,0,0,1,4.29-4c7.1-4.12,18.68-4.12,25.82,0,9.74,5.62,5.59,15.12-7,17.49ZM90.2,155.75c14.59,8.43,36.06-4.27,21.89-12.6l-1.84-1.07c1.5-.27,6.18-.23,10.46-2.72,6-3.5,6-9.18-.08-12.68s-15.85-3.49-21.87,0c-4.35,2.53-4.25,5.34-4.8,6.41-8.91-6.5-19.12-5.62-25-2.21s-6,9.17.09,12.66c4.05,2.34,10,3.21,15.46,2.24l2.49-.44-.75,1.45C84.62,150,86.13,153.4,90.2,155.75Z"></path><path class="cls-5" d="M175,144.8l-.42,4.46c.2-2.27-1.13-4.71-4-6.72-8-5.59-23.45-4.68-26.38,2.37l-.74,1.72.42-4.51c.56-.91.66-3.78,5.3-6,6.32-2.95,16.07-2.1,21.82,1.89C173.9,140.06,175.23,142.5,175,144.8Z"></path><path class="cls-5" d="M143.92,142.12l-.42,4.51-1.76-1.57c-6.78-6.74-27.16-6-27.95,3.07.69-2.71-1.16-7.33,5.4-10.4,6.29-2.94,16.08-2.09,21.79,1.92a25.73,25.73,0,0,1,2.94,2.47Z"></path><path class="cls-5" d="M177.8,145l-.42,4.52c-.24,2.68-2.21,5.19-5.91,6.94a22.43,22.43,0,0,1-7.29,1.91l.42-4.52a22.18,22.18,0,0,0,7.26-1.91C175.56,150.23,177.54,147.72,177.8,145Z"></path><path class="cls-5" d="M111,147.87l.41-4.52c-.25,2.72,1.31,5.6,4.71,8,4,2.81,9.84,4.4,15.68,4.33l-.41,4.52c-8.33.09-21.11-4.34-20.39-12.31Z"></path><path class="cls-5" d="M135.93,153.71l-.4,4.52c-.5.91-1.59,1.94-1.76,3.9l.39-4.52a5.64,5.64,0,0,1,.89-2.52Z"></path><path class="cls-5" d="M165,160.37l-.42,4.46c.2-2.24-1.1-4.65-3.86-6.62L158.94,157l.42-4.52,1.71,1.21c2.81,2,4.08,4.41,3.89,6.68Z"></path><path class="cls-11" d="M167.73,160.62l-.4,4.52c-.25,2.68-2.23,5.21-5.91,6.94-7.43,3.49-18.95,2.48-25.71-2.25-3.31-2.32-5-5.18-4.72-7.94l.41-4.52c-.25,2.76,1.41,5.63,4.72,7.94,6.76,4.73,18.28,5.74,25.7,2.25,3.68-1.73,5.67-4.26,5.91-6.94Z"></path><path class="cls-12" d="M164.59,153.89c5,4.59,4,10.48-2.77,13.67-7.42,3.49-18.94,2.48-25.7-2.25-4-2.8-5.59-6.4-4.31-9.65-5.84.07-11.66-1.52-15.68-4.33-16-11.17,10.08-23.9,26.58-12.88,5.19-7.23,21.68-7.46,30.37-1.38,6.76,4.73,6.22,11.42-1.21,14.91a22.89,22.89,0,0,1-7.28,1.91Zm-26.42,10.46c5.73,4,15.51,4.86,21.79,1.9s6.72-8.57,1.11-12.55l-1.71-1.22,2.56-.07a20.63,20.63,0,0,0,8.08-1.74c6.3-3,6.77-8.62,1-12.63-8.1-5.67-23.45-4.6-26.4,2.36l-.72,1.72c-15.93-13.88-39.47-1.37-25.73,8.24,7.38,5.16,17.08,3.33,17.75,3.36-.12.57-5.22,5.41,2.24,10.63Z"></path><path class="cls-5" d="M124,156.3c-.55,2.21,1.6,4.33,3.85,4.74,3,.56,7.13-1.39,9.45-1.09,1.8.23,3.29,1.53,5,2,4.36,1.14,8.36-3,12.85-3.4,2.44-.18,4.79.78,7.16,1.41s5.08.85,7.05-.59c.88-.64,1.52-1.56,2.38-2.22,4.11-3.12,10.88.94,14.92-2.28,1.76-1.4,2.52-3.92,4.55-4.91,2.76-1.35,6.73.74,8.86-1.49.72-.75,1-1.83,1.65-2.64,2.67-3.34,9.17-.12,11.9-3.43,2.09-2.53.11-6.91,2.32-9.34,1.7-1.88,4.73-1.36,7.12-2.2,3.64-1.27,5.26-5.41,6.45-9.08a2,2,0,0,0,.13-1.09c-.23-.91-1.47-1-2.31-1.42-2-1-1.66-3.92-1.16-6.1s.27-5.28-1.94-5.68c-.54-.09-1.11,0-1.66-.07a3.14,3.14,0,0,1-2.34-2.78,9.32,9.32,0,0,1,.55-3.82c3-.26,4.06-4.51,2.47-7s-4.63-3.63-7.46-4.56-5.87-2-7.51-4.5c-1.47-2.22-1.8-5.49-4.25-6.54-3.21-1.37-6.73,2.58-10.09,1.61-1.24-.36-2.19-1.34-3.29-2a7.52,7.52,0,0,0-7.84.1c-1.19.77-2.22,1.92-3.61,2.21-2.19.46-4.11-1.34-6-2.53a12.51,12.51,0,0,0-12.2-.46,18.62,18.62,0,0,1-2.92,1.48c-2.77.87-5.65-.64-8.29-1.84-5.76-2.6-12.5-3.83-18.39-1.54a12.65,12.65,0,0,1-3.84,1.22,14,14,0,0,1-3.71-.62,11.19,11.19,0,0,0-8.47,1.38,8.1,8.1,0,0,0-3.67,7.52c-2.57-3.26-7.77-3.21-11.89-2.8a1.31,1.31,0,0,0-1,.4,1.4,1.4,0,0,0-.07,1.14,9.31,9.31,0,0,1-.59,5.26,20.15,20.15,0,0,1-3,4.61l-5.46,7-2.12,2.72a26,26,0,0,1-2.75,3.16A60.83,60.83,0,0,1,79.83,110a22.79,22.79,0,0,0-4.5,4.49c-1,1.36-1.94,3-1.57,4.69.32,1.42,1.5,2.47,2.48,3.55,4.73,5.23,3.69,9.2,4.82,11.15s3.94,2.17,5.35,3.9c1.25,1.52,1.07,3.73,1.79,5.57,2,5.24,9.44,5.09,12.35,6.36,2.65,1.15,4.54,3.5,6.74,5.37,8.18,7,10.23-1.75,14.62-.89,1.25.24,2.42.92,2.12,2.16Z"></path><path class="cls-5" d="M228.47,121.19s-.06.16-.06.21c-1.3,3.53-2.71,7.11-5.7,8.2a23.89,23.89,0,0,1-2.49.49c-1.79.21-3.8.48-5.21,2.06s-1.52,3.69-1.58,5.59c0,1.52-.05,2.93-.81,3.8-.92,1.14-2.88,1.19-4.89,1.19-2.49.05-5.26.05-7,2.23a8.24,8.24,0,0,0-.86,1.46,4.55,4.55,0,0,1-.71,1.14,3.12,3.12,0,0,1-2.33.65,12.83,12.83,0,0,1-1.36-.05c-.49,0-1-.06-1.52-.06a7.05,7.05,0,0,0-3.26.65,8.28,8.28,0,0,0-3.14,3.1,8.57,8.57,0,0,1-1.69,2,5.72,5.72,0,0,1-3.79,1,23.17,23.17,0,0,1-2.72-.16c-1,0-1.95-.16-2.93-.16a8.62,8.62,0,0,0-5.43,1.57,9.34,9.34,0,0,0-1.3,1.2,5.78,5.78,0,0,1-1.08,1,4.62,4.62,0,0,1-2.88.82,10.24,10.24,0,0,1-3-.44l-1.58-.43a19.16,19.16,0,0,0-5.32-1,4.26,4.26,0,0,0-.76.05,17.81,17.81,0,0,0-6,1.9,12.88,12.88,0,0,1-5.21,1.68,6.14,6.14,0,0,1-3.14-1,8.16,8.16,0,0,0-4.07-1.19,13.38,13.38,0,0,0-3.48.59c-2.26.53-3.36.8-5.1.55-5.07-.84-.18-5.86-6-6.89a3.76,3.76,0,0,0-.81-.11c-5.6,0-6,8.56-14.93-.33-3.33-3.22-5-4.33-9.33-5L95.56,147c-1.46-.33-5-1.47-6.08-4.24-1.2-2.63.28-5.38-5-8-2.22-1.05-2.39-1.42-2.71-3.36a18.74,18.74,0,0,0-4.56-9.61l-.49-.54a5.62,5.62,0,0,1-1.63-2.39c-.22-1,.22-2.11,1.3-3.58A20.73,20.73,0,0,1,80.64,111l1.68-1.2c.05,0,.11,0,.16-.1a21.53,21.53,0,0,0,3.37-2.56,24.65,24.65,0,0,0,2.93-3.31l7.59-9.71a25.19,25.19,0,0,0,3.15-4.94,10.94,10.94,0,0,0,.65-6c.93-.06,2.07-.11,3.21-.11,3.63,0,6,.81,7.32,2.5l2.06,2.6.87,1.09s.06,0,.11.11l-.65-4.84a7,7,0,0,1,3.09-6.24,9.36,9.36,0,0,1,5.1-1.41,11.59,11.59,0,0,1,2.34.22l.87.22a12.57,12.57,0,0,0,2.87.49,11.08,11.08,0,0,0,3.8-1l.82-.33a13.63,13.63,0,0,1,2.06-.6,17.17,17.17,0,0,1,2.22-.38c.65,0,1.3-.11,2-.11A28.08,28.08,0,0,1,149.29,78l.65.32c1.95.87,4.18,1.9,6.46,1.9a7.17,7.17,0,0,0,2.17-.32,15.11,15.11,0,0,0,2.33-1.09l.81-.49a11.18,11.18,0,0,1,5-1.19,10.9,10.9,0,0,1,5.81,1.63c.32.22.7.43,1,.7,1.46,1,3,2.07,5,2.07a5.38,5.38,0,0,0,1-.06,7.55,7.55,0,0,0,3.09-1.73c.33-.22.65-.49,1-.71a6,6,0,0,1,3.26-.92A5.81,5.81,0,0,1,190,79c.38.21.65.43,1,.65a9.88,9.88,0,0,0,2.65,1.52,7.46,7.46,0,0,0,1.52.16,10.65,10.65,0,0,0,4.29-1.14,10.72,10.72,0,0,1,3.2-.87,2.56,2.56,0,0,1,.93.16c1.14.49,1.68,1.79,2.33,3.31a15.83,15.83,0,0,0,1.3,2.72c2,3,5.59,4.18,8.25,5,2.82.93,5.43,1.9,6.73,4a3.86,3.86,0,0,1,.11,3.69,2,2,0,0,1-1.52,1.25l-.92,0-.27.93a10.23,10.23,0,0,0-.6,4.39,4.4,4.4,0,0,0,3.47,3.91,3.64,3.64,0,0,0,.76,0h.87a.85.85,0,0,1,.6.44,5.17,5.17,0,0,1,.27,3.63,9.1,9.1,0,0,0-.06,5.32,3.73,3.73,0,0,0,1.9,2.28,6.59,6.59,0,0,0,1,.38,4.38,4.38,0,0,1,.71.33Z"></path><path class="cls-5" d="M136.26,75.49a16.78,16.78,0,0,1-1.35,2.39,6.37,6.37,0,0,1-1.42,2c-1,.71-2.33.49-3.58.44-1.73-.06-3.85.6-4.23,2.28a3.68,3.68,0,0,1-.38,1.3c-.54.81-1.74.49-2.66.43a4.29,4.29,0,0,0-4.34,2.93c-.6,2-1.19,3.1-3.53,2.55a3.32,3.32,0,0,1-1-.38l-.65-4.83a7,7,0,0,1,3.09-6.24,9.36,9.36,0,0,1,5.1-1.41,11.59,11.59,0,0,1,2.34.22l.87.22a12.57,12.57,0,0,0,2.87.49,11.08,11.08,0,0,0,3.8-1l.82-.33a18.43,18.43,0,0,1,4.28-1Z"></path><path class="cls-5" d="M228.47,121.19c-1.31,3.58-2.72,7.32-5.76,8.41a23.89,23.89,0,0,1-2.49.49c-1.79.21-3.8.48-5.21,2.06s-1.52,3.69-1.58,5.59c0,1.52-.05,2.93-.81,3.8-.92,1.14-2.88,1.19-4.89,1.19-2.49.05-5.26.05-7,2.23a8.24,8.24,0,0,0-.86,1.46,4.55,4.55,0,0,1-.71,1.14,3.12,3.12,0,0,1-2.33.65,12.83,12.83,0,0,1-1.36-.05c-.49,0-1-.06-1.52-.06a7.05,7.05,0,0,0-3.26.65,8.28,8.28,0,0,0-3.14,3.1,8.57,8.57,0,0,1-1.69,2,5.72,5.72,0,0,1-3.79,1,23.17,23.17,0,0,1-2.72-.16c-1,0-1.95-.16-2.93-.16a8.62,8.62,0,0,0-5.43,1.57,9.34,9.34,0,0,0-1.3,1.2,5.78,5.78,0,0,1-1.08,1,4.62,4.62,0,0,1-2.88.82,10.24,10.24,0,0,1-3-.44l-1.58-.43a19.16,19.16,0,0,0-5.32-1,4.26,4.26,0,0,0-.76.05,17.81,17.81,0,0,0-6,1.9,12.88,12.88,0,0,1-5.21,1.68,6.14,6.14,0,0,1-3.14-1,8.16,8.16,0,0,0-4.07-1.19,13.38,13.38,0,0,0-3.48.59c-2.26.53-3.36.8-5.1.55-5.07-.84-.18-5.86-6-6.89a3.76,3.76,0,0,0-.81-.11c-5.6,0-6,8.56-14.93-.33-3.33-3.22-5-4.33-9.33-5L95.56,147c-1.46-.33-5-1.47-6.08-4.24-.63-1.38-.47-4-2-5.91-2.53-3-5-1.43-5.69-5.48a18.74,18.74,0,0,0-4.56-9.61l-.49-.54a5.62,5.62,0,0,1-1.63-2.39c-.22-1,.22-2.11,1.3-3.58A20.73,20.73,0,0,1,80.64,111l1.68-1.2c1.68,4.67,1.57,9.83,1,14.76,2.74,12.07,9.11,9.71,12.31,12.92,1.2,1.19,1.69,3,3,4.07,1.52,1.3,3.85,1.25,5.59,2.23,2,1.08,3.2,3.42,5.43,4.07,3.85,1.14,8.57-3.69,11.56-1,.92.81,1.24,2.12,1.95,3.15s2.33,1.68,3.15.76a7.21,7.21,0,0,0,.59-1.14c1.36-3,5.76-2.33,8.58-.71s6.08,3.8,9,2.45c.11-2.77,2.93-4.84,5.64-5s5.43.81,8,1.84c2.54-12.4,10.1-1.78,14.55-3.09a3.5,3.5,0,0,1,3.85-3.53,12.42,12.42,0,0,0,2.44.49c2.39-.05,3.1-3.31,5.05-4.67,2.55-1.62,6.13.38,8.9-.92,3.09-1.46,3.74-6.51,7.16-6.89,2.23-.27,4.13,1.84,6.35,2,3.91.32,5.59-4.56,7.76-7.76a14,14,0,0,1,10.69-5.65,3.73,3.73,0,0,0,1.9,2.28,6.59,6.59,0,0,0,1,.38,4.38,4.38,0,0,1,.71.33Z"></path><path class="cls-5" d="M228.47,121.19s-.06.16-.06.21a61.16,61.16,0,0,1-6.35-.11c-3.36-.16-7.32-.7-8.79-3.68-1.3-2.66.11-6.14-1.19-8.8-.22-.49-.66-1-1.14-.92a1.43,1.43,0,0,0-1.09.76c-1.3,1.74-2.6,3.47-3.91,5.26-2.55-2.11-1.57-6.18-.21-9.17s2.82-6.67.92-9.33a2.36,2.36,0,0,0-.92-.71,1.91,1.91,0,0,0-1.09.11c-2.11.65-3.42,2.77-4.29,4.83s-1.35,4.34-2.71,6.13-3.91,2.94-5.86,1.85c-1.57-5.81,5-11.72,3-17.42a15.15,15.15,0,0,0-8.25,6c-1.41,2.07-2.28,4.51-4.07,6.24s-5.05,2.45-6.68.49c.76-3.42,1.42-6.89,2-10.36a3,3,0,0,0-.27-2.17c-.71-.93-2.17-.6-3.26-.17a29.6,29.6,0,0,0-10.09,7,12.5,12.5,0,0,1-3.26,2.88,3.34,3.34,0,0,1-4-.49c-1.62-2,.49-4.62,1.14-7.06a6.06,6.06,0,0,0-1.08-5.32c-1.95-2.49-5.48-3-8.68-3s-6.52.32-9.39-1A8.91,8.91,0,0,1,134,75.87a17.17,17.17,0,0,1,2.22-.38c.65,0,1.3-.11,2-.11A28.12,28.12,0,0,1,149.29,78l.65.32c1.95.87,4.18,1.9,6.46,1.9a7.17,7.17,0,0,0,2.17-.32,15.11,15.11,0,0,0,2.33-1.09l.81-.49a11.18,11.18,0,0,1,5-1.19,10.9,10.9,0,0,1,5.81,1.63c.32.22.7.43,1,.7,1.46,1,3,2.07,5,2.07a5.38,5.38,0,0,0,1-.06,7.55,7.55,0,0,0,3.09-1.73c.33-.22.65-.49,1-.71a6,6,0,0,1,3.26-.92A5.84,5.84,0,0,1,190,79c.38.21.65.43,1,.65a9.88,9.88,0,0,0,2.65,1.52,7.46,7.46,0,0,0,1.52.16,10.69,10.69,0,0,0,4.29-1.14,10.72,10.72,0,0,1,3.2-.87,2.56,2.56,0,0,1,.93.16c1.14.49,1.68,1.79,2.33,3.31a15.83,15.83,0,0,0,1.3,2.72c2,3,5.59,4.18,8.25,5,2.82.93,5.43,1.9,6.73,4a3.86,3.86,0,0,1,.11,3.69,2,2,0,0,1-1.52,1.25l-.92,0-.27.93a10.23,10.23,0,0,0-.6,4.39,4.4,4.4,0,0,0,3.47,3.91,3.64,3.64,0,0,0,.76,0h.87a.85.85,0,0,1,.6.44,5.17,5.17,0,0,1,.27,3.63,9.1,9.1,0,0,0-.06,5.32,3.73,3.73,0,0,0,1.9,2.28,6.59,6.59,0,0,0,1,.38,4.38,4.38,0,0,1,.71.33Z"></path><path class="cls-5" d="M222.74,109.73a2.08,2.08,0,0,1,1.12,2.23,6.16,6.16,0,0,1-.76,1.7,6.33,6.33,0,0,0-.86,3.41,3.86,3.86,0,0,0,1.66,3,10.63,10.63,0,0,1,1.22.73,3.06,3.06,0,0,1,.84,2.41,5.92,5.92,0,0,1-1.68,4,5.14,5.14,0,0,1-4,1.49,2.76,2.76,0,0,1-1.63-.64,1.53,1.53,0,0,1-.47-1.61c.38-1,1.7-1.07,2.57-1.65a2.43,2.43,0,0,0,1-1.94c0-1.18-.86-2.16-1.52-3.14a8.5,8.5,0,0,1-1.51-4.56c0-1.66,1.56-6.49,4-5.43Z"></path><path class="cls-5" d="M128.3,152.53c2.14-.14,4.12,1.91,6.17,1.3-.51-.89.74-2.22,2.45-1.05,1.29.88,2.51,3.18,8.22,1.37a2.19,2.19,0,0,1,1.23-.14,1.81,1.81,0,0,1,1,.92,6.84,6.84,0,0,1,.74,1.79,1.05,1.05,0,0,1-.05.82,1.07,1.07,0,0,1-.72.34,13.48,13.48,0,0,1-5.09.26c-5-1-1.94-1-7.12.31-1.82.46-6.77.72-7.48-1.52-.39-1.23.43-3.2.68-4.4Z"></path><path class="cls-5" d="M156.81,151.68a10.21,10.21,0,0,1,.64-1.56,2.06,2.06,0,0,1,1.53-.63c2.17-.08,4.44,1.42,6.4.47.48-.23.89-.6,1.38-.83,2.56-1.24,5.73,1.73,8.29.51a9.51,9.51,0,0,0,2.15-1.87c2.21-2,5.44-2.41,8.43-2.69a6.43,6.43,0,0,0,1.84-.34c2.06-.82,2.68-3.29,3.34-3.38.37-.05.6.37.71.72a10,10,0,0,1,.32,4.25,1.79,1.79,0,0,1-.25.78c-.49.72-1.58.51-2.46.52-2.28,0-4,2-5.59,3.61a3.92,3.92,0,0,1-1.57,1,4.3,4.3,0,0,1-1.34.07l-3.55-.19a5.22,5.22,0,0,0-1.58.08,17.72,17.72,0,0,0-2.61,1.39c-1.38.59-2.95.29-4.45.14a2.75,2.75,0,0,0-1.07.05,3.55,3.55,0,0,0-1.19.86,9.14,9.14,0,0,1-6.46,2c-1.34-.06-8.5-.84-8.61-2.68s4.85-.71,5.7-2.33Z"></path><path class="cls-5" d="M199.28,139.26c6.65,2,4.36-1.9,6.14-3.41.91-.77,2.29-.33,3.47-.52,1.68-.28,2.84-1.85,3.52-3.41s1.12-3.28,2.23-4.58a3.21,3.21,0,0,1,1.9-1.18,1.8,1.8,0,0,1,1.91.94,2.27,2.27,0,0,1-.44,2.13c-2.1,3-7.16,3.49-8.07,7-.21.82-.14,1.69-.32,2.51a2.11,2.11,0,0,1-1.58,1.78c-.69.08-1.39-.37-2-.16-1,.31-1,1.7-1.77,2.41-1,.94-2.57.35-3.89.58-1.84.32-6.16,4.74-6.5.8a13.38,13.38,0,0,1,.53-4.37c.83-1.55,3.45-1,4.92-.54Z"></path><path class="cls-5" d="M86,131.73a14.53,14.53,0,0,1,2.78,1.9c1.57,1.69,1.45,4.4,2.81,6.25,2.34,3.17,7.32,2.19,10.92,3.8,4.33,1.93,3.68,4.8,12.41,5a4.48,4.48,0,0,0,3.32-.82c1.42-1.4,1.83-7.83,1.84-9.84-3.94-1-11.19-4.22-12.93-7.16a17.61,17.61,0,0,1-1.24-4c-1.4-4.65-6.11-7.35-10.42-9.58-3.55-1.83-12-6.48-14.72-1C78.45,121,81.88,129.08,86,131.73Z"></path><path class="cls-13" d="M97.25,97.73a2.14,2.14,0,0,1,.43-1,2.08,2.08,0,0,1,1.38-.54c5-.57,10.68,1.27,14.61-1.84,2-1.58,3.07-4.18,5.29-5.39,2.67-1.45,6.24-.25,8,2.19a10.46,10.46,0,0,1,1.3,8.7,4.34,4.34,0,0,1-1.25,2.37c-1,.83-2.42.77-3.72.74-5.35-.12-11.51,1.5-13.72,6.37-.58,1.27-.84,2.66-1.47,3.9-1.77,3.47-5.91,4.89-9.7,5.79-3.08.73-6.34,1.32-9.37.4-4.48-1.35-8.33-9.15-1.83-9.92,2.45-.29,5.4.64,7.59-1,2.68-2,1.77-7.65,2.42-10.73Z"></path><path class="cls-13" d="M135.92,118.68a16.59,16.59,0,0,1,1.07-2.05,4.16,4.16,0,0,1,3.13-1q5.16-.11,10.32,0a82,82,0,0,0,10.28-.21c3.26-.35,6.46-1.15,9.7-1.72a94.65,94.65,0,0,1,12.8-1.24,9.89,9.89,0,0,1,4.37.51c3,1.34,3.95,5.08,4.44,8.34.32,2.14.55,4.52-.68,6.31-2.24,3.26-6.41,2.59-22,2.52-7.33,0-7.37,1.31-12.81,4.74-14.25,9-36.13-.5-37.37-5.94-2-8.76,13.94-5.93,16.72-10.27Z"></path><g class="cls-1"><path class="cls-5" d="M83.82,146.45a10.19,10.19,0,0,1,4.47.32c8.83,2.4,12.52,6.56,23.95.24,17.15-9.28,23-.94,37.19-3.26,7.85-1.29,11.52-5.39,18.6-6.55,5.27-.87,10,.28,14.53.13a6.94,6.94,0,0,0,3-.68c2.23-1.21,5.3-5.36,10.77-5.43l-.6,1.09c-6.64.15-7.24,5.14-12.24,6a35.27,35.27,0,0,1-7.26-.09c-16-1.14-15.38,4.72-27.23,6.67-4.88.8-9.32.2-14.29-.51-11-1.48-15.9.07-22.35,3.56-12.48,6.92-17.36,1.86-24.87-.05a9.88,9.88,0,0,0-4.17-.3,7.6,7.6,0,0,0-1.08.25c-1.76.58-4,2.2-4.62,3.87l-1.17.23c.81-2.26,3.65-4.37,6-5.12a9.8,9.8,0,0,1,1.38-.33Z"></path><path class="cls-5" d="M196.36,131.24c-4.35-.35-9.32,4.54-10.76,5.4a5.54,5.54,0,0,1-1.73.56,12,12,0,0,1-1.31.11,55.23,55.23,0,0,1-5.68-.21c-16-1.23-15.74,4.59-27.48,6.66-13.52,2.26-20.09-5.34-34.52,1.88-13.71,6.86-11.84,5.51-26.6,1.11a9.43,9.43,0,0,0-4.44-.28,7.67,7.67,0,0,0-1.39.32c-2.35.76-5.19,2.83-6,5.08l-5.86-7.12c.81-2.3,3.65-4.38,6-5.13A7.67,7.67,0,0,1,78,139.3c2.68-.52,5.24.4,8.8,1.74,20.08,7.58,16.88-8.52,42.82-4.92l.46,0c24.75,3.36,20.46-7.82,41-6.24,6.39.5,7.79.48,10.73-2l.82-.72a15.72,15.72,0,0,1,6.67-3.06,4.46,4.46,0,0,1,1.26-.13Z"></path></g><g class="cls-1"><path class="cls-5" d="M89.64,153.6c2.73-.45,5.31.47,8.8,1.77,16.07,6,17.19-3,30.26-5.15,10-1.64,16.87,2.27,26.54.68a27.05,27.05,0,0,0,5.38-1.46c1.4-.52,2.87-1.24,4.28-1.91a57.29,57.29,0,0,1,5.52-2.33,22.38,22.38,0,0,1,3.42-.84,37.74,37.74,0,0,1,8.86-.12,50.17,50.17,0,0,0,5.68.24,10.16,10.16,0,0,0,1.32-.13,5.32,5.32,0,0,0,1.68-.54c2.23-1.21,5.3-5.37,10.78-5.43l-.6,1.09c-5.34.12-7,3.58-10,5.22a7.58,7.58,0,0,1-2.23.74,13.42,13.42,0,0,1-1.5.13,45,45,0,0,1-5.76-.22,35.49,35.49,0,0,0-8.61.09,21.85,21.85,0,0,0-3.22.79,55,55,0,0,0-5.3,2.26c-1.42.71-2.92,1.39-4.41,2a29.27,29.27,0,0,1-5.69,1.55c-9.61,1.58-16.74-2.3-26.55-.68-12.74,2.09-14.24,11.27-30.7,5.11A41.08,41.08,0,0,0,93.31,155a10,10,0,0,0-4.17-.31,7.55,7.55,0,0,0-1.07.26c-1.77.58-4,2.19-4.62,3.86l-1.17.23c.8-2.25,3.64-4.36,6-5.11a8.51,8.51,0,0,1,1.39-.34Z"></path><path class="cls-11" d="M202.17,138.4c-4.35-.36-9.31,4.53-10.76,5.39a5,5,0,0,1-1.73.56,12,12,0,0,1-1.31.11,55.29,55.29,0,0,1-5.68-.2,33.65,33.65,0,0,0-8.83.12,21.57,21.57,0,0,0-3.46.82,55.9,55.9,0,0,0-5.49,2.35,45.61,45.61,0,0,1-4.29,1.89,29.8,29.8,0,0,1-5.41,1.48c-9.41,1.57-16.6-2.31-26.53-.68-12.93,2.23-14.35,11.12-30.23,5.13-1.38-.52-2.83-1-4.36-1.46a9.3,9.3,0,0,0-4.44-.28,6.92,6.92,0,0,0-1.39.32c-2.35.75-5.19,2.83-6,5.08l-5.85-7.12c.8-2.3,3.65-4.38,6-5.13a6.92,6.92,0,0,1,1.39-.32,9.3,9.3,0,0,1,4.44.28c14.74,4.39,12.75,5.82,26.6-1.12,14.43-7.21,21.27.34,34.52-1.88,8.6-1.51,10.8-5.18,18.65-6.53,5.9-1,9.64.33,14.51.08a6.47,6.47,0,0,0,3-.67c1.58-.81,6.06-5.78,10.76-5.39Z"></path></g><g class="cls-1"><path class="cls-5" d="M95.45,160.76a10.19,10.19,0,0,1,4.47.32c1.51.41,3,.94,4.33,1.45,20.24,7.57,16.67-8.61,42.81-4.95l.48.07c4.28.59,8.68,1.2,13.52.41a27.94,27.94,0,0,0,5.38-1.46c1.39-.53,2.86-1.24,4.27-1.91a58.47,58.47,0,0,1,5.52-2.34,22.78,22.78,0,0,1,3.43-.84,37.1,37.1,0,0,1,8.85-.11,52.72,52.72,0,0,0,5.68.24c.43,0,.88-.06,1.32-.13a5,5,0,0,0,1.68-.55,14.47,14.47,0,0,0,2-1.5l.83-.69a15.35,15.35,0,0,1,6.65-3.12,9.55,9.55,0,0,1,1.26-.12l-.6,1.09a7.75,7.75,0,0,0-1.05.1,13.22,13.22,0,0,0-5.77,2.7l-.79.68a18.21,18.21,0,0,1-2.4,1.75,7.45,7.45,0,0,1-2.23.73,11.47,11.47,0,0,1-1.5.14,43.2,43.2,0,0,1-5.76-.23,36,36,0,0,0-8.61.1,22.08,22.08,0,0,0-3.22.78c-1.72.58-3.52,1.46-5.29,2.26-1.43.71-2.93,1.4-4.42,2a28.46,28.46,0,0,1-5.69,1.56c-5,.82-9.43.16-13.81-.44l-.48-.07c-26.22-3.53-22,12.79-43,4.93a40.88,40.88,0,0,0-4.26-1.41,9.74,9.74,0,0,0-4.17-.31,9.27,9.27,0,0,0-1.08.25c-1.77.58-4,2.2-4.62,3.87l-1.17.23c.8-2.26,3.65-4.37,6-5.12a9.8,9.8,0,0,1,1.38-.33Z"></path><path class="cls-12" d="M208,145.55a7.18,7.18,0,0,0-1.24.08,15.83,15.83,0,0,0-6.68,3.11l-.82.72a25,25,0,0,1-2,1.49,5.4,5.4,0,0,1-1.72.56,12.15,12.15,0,0,1-1.32.11,55.45,55.45,0,0,1-5.68-.21,34.54,34.54,0,0,0-8.83.12,23.94,23.94,0,0,0-3.46.82,59.57,59.57,0,0,0-5.49,2.35,45.73,45.73,0,0,1-4.29,1.9,29.53,29.53,0,0,1-5.41,1.47c-4.78.8-9.21.16-13.47-.42l-.47-.05c-25.9-3.58-22.94,12.42-42.82,4.92-1.38-.52-2.83-1-4.36-1.46a9.39,9.39,0,0,0-4.43-.28,6.9,6.9,0,0,0-1.4.33c-2.34.75-5.19,2.82-6,5.07l-5.86-7.12c.81-2.3,3.65-4.38,6-5.13a8,8,0,0,1,1.4-.32c2.67-.52,5.24.4,8.79,1.74,15.91,6,16.91-2.81,30.24-5.13,10-1.64,17.12,2.25,26.53.68a28.92,28.92,0,0,0,5.4-1.48,45.61,45.61,0,0,0,4.29-1.89c1.83-.83,3.68-1.71,5.49-2.35a23,23,0,0,1,3.46-.82,36.52,36.52,0,0,1,8.84-.12,43.85,43.85,0,0,0,5.68.21,12,12,0,0,0,1.31-.11,5.54,5.54,0,0,0,1.73-.56c1.57-.82,6.06-5.78,10.76-5.4Z"></path></g><g class="cls-1"><path class="cls-11" d="M101.26,167.91c2.73-.45,5.32.47,8.81,1.77a41.17,41.17,0,0,0,4.89,1.61,17.4,17.4,0,0,0,6.88.25,17.82,17.82,0,0,0,4.31-1.28,37.71,37.71,0,0,0,3.53-1.78c.88-.48,1.75-.95,2.65-1.39a28.72,28.72,0,0,1,8-2.56,40.71,40.71,0,0,1,12.54.21l.48.07c4.28.58,8.69,1.2,13.52.4a27.24,27.24,0,0,0,5.38-1.46c1.4-.52,2.86-1.24,4.28-1.91a59.75,59.75,0,0,1,5.51-2.33,22.78,22.78,0,0,1,3.43-.84,37.1,37.1,0,0,1,8.85-.11,52.76,52.76,0,0,0,5.68.23,12.16,12.16,0,0,0,1.33-.12,5.7,5.7,0,0,0,1.68-.55,13.78,13.78,0,0,0,2-1.51l.84-.68a15.15,15.15,0,0,1,6.64-3.12,7,7,0,0,1,1.26-.12l-.6,1.09a6.41,6.41,0,0,0-1,.1,13.06,13.06,0,0,0-5.77,2.7l-.8.68a17.18,17.18,0,0,1-2.39,1.74,7.35,7.35,0,0,1-2.24.74,13.05,13.05,0,0,1-1.49.13,45.15,45.15,0,0,1-5.77-.22,35.41,35.41,0,0,0-8.6.09,21.85,21.85,0,0,0-3.22.79,54,54,0,0,0-5.3,2.26c-1.43.71-2.92,1.39-4.41,2a29.17,29.17,0,0,1-5.7,1.55c-5,.82-9.42.16-13.81-.44l-.48-.06a40.51,40.51,0,0,0-12.25-.18,27.16,27.16,0,0,0-7.49,2.36c-.86.43-1.73.9-2.61,1.38-1.22.67-2.44,1.35-3.68,1.88a20.23,20.23,0,0,1-4.67,1.38,18.49,18.49,0,0,1-7.29-.26,45.77,45.77,0,0,1-5-1.63,41.89,41.89,0,0,0-4.27-1.42,10,10,0,0,0-4.17-.31,7.67,7.67,0,0,0-1.08.26c-1.76.58-4,2.2-4.62,3.86l-1.17.23c.81-2.25,3.65-4.36,6-5.11a9.89,9.89,0,0,1,1.38-.34Z"></path><path class="cls-11" d="M213.8,152.71a7.18,7.18,0,0,0-1.24.08,15.92,15.92,0,0,0-6.69,3.11l-.82.72c-.76.56-1.39,1.11-2,1.48a5.06,5.06,0,0,1-1.73.56,12,12,0,0,1-1.31.11,52.6,52.6,0,0,1-5.68-.2,33.72,33.72,0,0,0-8.84.12,21.46,21.46,0,0,0-3.45.82,57.1,57.1,0,0,0-5.5,2.35,45.61,45.61,0,0,1-4.29,1.89,29.71,29.71,0,0,1-5.4,1.48c-4.79.8-9.21.16-13.48-.42l-.46-.06a41.05,41.05,0,0,0-12.59-.2,28.22,28.22,0,0,0-8,2.56c-.9.45-1.74.91-2.64,1.36a34.11,34.11,0,0,1-3.52,1.77,15.45,15.45,0,0,1-4.3,1.28,17.37,17.37,0,0,1-6.88-.23,40.19,40.19,0,0,1-4.9-1.61c-3.48-1.31-6.14-2.26-8.8-1.74a6.92,6.92,0,0,0-1.39.32c-2.35.75-5.19,2.83-6,5.08l-5.86-7.12c.81-2.3,3.65-4.38,6-5.13a6.92,6.92,0,0,1,1.39-.32,9.3,9.3,0,0,1,4.44.28c1.53.45,3,.94,4.36,1.46,20.07,7.57,16.75-8.54,42.82-4.93l.46,0c4.27.59,8.69,1.22,13.48.42a29,29,0,0,0,5.41-1.47,45.73,45.73,0,0,0,4.29-1.9c1.82-.82,3.67-1.7,5.49-2.35a22.35,22.35,0,0,1,3.46-.81,35.94,35.94,0,0,1,8.83-.12,43.89,43.89,0,0,0,5.68.2,12,12,0,0,0,1.31-.11,5.06,5.06,0,0,0,1.73-.56,12,12,0,0,0,2-1.48l.82-.72a15.6,15.6,0,0,1,6.67-3.06,4.46,4.46,0,0,1,1.26-.13Z"></path></g><path class="cls-5" d="M241.85,121.36c0,31.92-41.54,37.76-91.29,37.76s-88.88-5.84-88.88-37.76c0-11.1,4.83-21.43,13.23-30.22.7-.73,1.42-1.43,2.15-2.09,8.4-8,19.8-14.51,33.11-19,.76-.27,1.57-.54,2.37-.81a133,133,0,0,1,39.21-5.73c25.73,0,49,6.93,65.4,18.07,1,.62,1.88,1.28,2.76,1.94,13.65,10.14,21.94,23.37,21.94,37.84Z"></path><path class="cls-5" d="M230.92,134.17a1.25,1.25,0,0,1,1.65-1.88,13.09,13.09,0,0,1,1.4,2.9,12.78,12.78,0,0,1-3.05-1Z"></path><path class="cls-5" d="M223.39,139.62a1.25,1.25,0,1,1-1.52-2,12.73,12.73,0,0,1,3.11-.82A13,13,0,0,1,223.39,139.62Z"></path><path class="cls-5" d="M233.13,125.32a1.24,1.24,0,1,1-2.48-.22,12.77,12.77,0,0,1,1.5-2.84,12.63,12.63,0,0,1,1,3.06Z"></path><path class="cls-5" d="M215.34,123.28a1.25,1.25,0,0,1-1.51-2,12.62,12.62,0,0,1,3.11-.82A12.65,12.65,0,0,1,215.34,123.28Z"></path><path class="cls-5" d="M199,135.13a1.24,1.24,0,0,1-.14-1.76,12.86,12.86,0,0,1,2.88-1.44C201.37,132.5,201.09,137,199,135.13Z"></path><path class="cls-5" d="M209.37,143.08a1.24,1.24,0,1,1-1.52-2,12.73,12.73,0,0,1,3.11-.82A12.29,12.29,0,0,1,209.37,143.08Z"></path><path class="cls-5" d="M215.56,130.39a1.25,1.25,0,0,1-1.79,1.74,12.69,12.69,0,0,1-1.18-3,13,13,0,0,1,3,1.25Z"></path><path class="cls-5" d="M192.49,120.42a1.25,1.25,0,1,1-1.52-2,12.62,12.62,0,0,1,3.11-.82A13,13,0,0,1,192.49,120.42Z"></path><path class="cls-5" d="M181.7,140.8a1.25,1.25,0,0,1-1.51-2,12.62,12.62,0,0,1,3.11-.82,12.65,12.65,0,0,1-1.6,2.8Z"></path><path class="cls-5" d="M154.06,143.85a1.24,1.24,0,0,1-1.75-.23c-1.7-2.21,2.77-2.26,3.34-2.56A12.92,12.92,0,0,1,154.06,143.85Z"></path><path class="cls-5" d="M173.77,131.5a1.25,1.25,0,0,1,.66-1.64c2.58-1.08,1.5,3.32,1.64,3.89A13,13,0,0,1,173.77,131.5Z"></path><path class="cls-5" d="M195.26,144.75a1.24,1.24,0,0,1-1.75-.23c-1.7-2.22,2.77-2.26,3.34-2.56a12.92,12.92,0,0,1-1.59,2.79Z"></path><path class="cls-5" d="M189,131.35a1.25,1.25,0,0,1-1.65-.63,12.66,12.66,0,0,1-.06-3.22C187.67,128.07,191.56,130.22,189,131.35Z"></path><path class="cls-5" d="M201.35,123.59a1.26,1.26,0,0,1,1.13-1.36,12.8,12.8,0,0,1,3.07,1C205,123.35,201.61,126.38,201.35,123.59Z"></path><path class="cls-5" d="M174.86,121a1.25,1.25,0,1,1-2.19,1.19,12.61,12.61,0,0,1-.32-3.2A12.54,12.54,0,0,1,174.86,121Z"></path><path class="cls-5" d="M164.69,107.3a1.25,1.25,0,0,1,.7-2.39,12.65,12.65,0,0,1,2.5,2,12.46,12.46,0,0,1-3.2.36Z"></path><path class="cls-5" d="M162.68,117.65a1.25,1.25,0,0,1-2.46-.45,12.8,12.8,0,0,1,1.77-2.69,12.85,12.85,0,0,1,.69,3.14Z"></path><path class="cls-5" d="M176.73,112a1.25,1.25,0,1,1-1.52-2,12.68,12.68,0,0,1,3.12-.81,12.63,12.63,0,0,1-1.6,2.79Z"></path><path class="cls-5" d="M140.61,133.65a1.25,1.25,0,0,1-1.52-2,13.09,13.09,0,0,1,3.11-.81A12.51,12.51,0,0,1,140.61,133.65Z"></path><path class="cls-5" d="M131.46,118.59a1.25,1.25,0,1,1,.86-2.34,12.61,12.61,0,0,1,2.35,2.2,12.63,12.63,0,0,1-3.21.14Z"></path><path class="cls-5" d="M129.77,128.37a1.24,1.24,0,0,1-2.33.87,12.81,12.81,0,0,1,.12-3.21A12.48,12.48,0,0,1,129.77,128.37Z"></path><path class="cls-5" d="M144.49,122.14a1.25,1.25,0,1,1-2.11,1.33,12.56,12.56,0,0,1-.53-3.17A12.83,12.83,0,0,1,144.49,122.14Z"></path><path class="cls-5" d="M156.64,129.46a1.25,1.25,0,1,1-1.52-2,12.62,12.62,0,0,1,3.11-.81,12.92,12.92,0,0,1-1.59,2.79Z"></path><path class="cls-5" d="M129.06,140.15a1.25,1.25,0,0,1-1.52-2,12.73,12.73,0,0,1,3.11-.82A12.53,12.53,0,0,1,129.06,140.15Z"></path><path class="cls-5" d="M105.72,141.11a1.25,1.25,0,0,1-1.52-2,12.73,12.73,0,0,1,3.11-.82A12.53,12.53,0,0,1,105.72,141.11Z"></path><path class="cls-5" d="M119.76,120.56a1.24,1.24,0,1,1-2.22-1.12,12.92,12.92,0,0,1,2.44-2.09,12.67,12.67,0,0,1-.22,3.21Z"></path><path class="cls-5" d="M97.55,117.06a1.25,1.25,0,1,1-.68,2.4,13,13,0,0,1-2.52-2,12.53,12.53,0,0,1,3.2-.4Z"></path><path class="cls-5" d="M77.46,133.47a1.24,1.24,0,0,1-1.2-1.29,12.49,12.49,0,0,1,1.35-2.92C77.68,129.83,80.26,133.57,77.46,133.47Z"></path><path class="cls-5" d="M65.32,117.36a1.25,1.25,0,1,1,.92-2.32,12.93,12.93,0,0,1,2.3,2.26,13,13,0,0,1-3.22.06Z"></path><path class="cls-5" d="M68.83,128.67a1.26,1.26,0,0,1-1.1,1.38,1.24,1.24,0,0,1-1.38-1.1,12.71,12.71,0,0,1,.9-3.09A12.91,12.91,0,0,1,68.83,128.67Z"></path><path class="cls-5" d="M78.49,117.22a1.25,1.25,0,1,1,2.42.62A12.67,12.67,0,0,1,79,120.41a12.72,12.72,0,0,1-.48-3.19Z"></path><path class="cls-5" d="M93.26,133.65a1.25,1.25,0,0,1-1.52-2,13,13,0,0,1,3.11-.81A12.92,12.92,0,0,1,93.26,133.65Z"></path><path class="cls-5" d="M107.26,110.84a1.25,1.25,0,1,1,2.49-.17,12.49,12.49,0,0,1-1,3A12.7,12.7,0,0,1,107.26,110.84Z"></path><path class="cls-5" d="M83.73,102.82a1.25,1.25,0,1,1-1.68,1.84,12.56,12.56,0,0,1-1.35-2.92A12.92,12.92,0,0,1,83.73,102.82Z"></path><path class="cls-5" d="M95.05,86.19a1.25,1.25,0,1,1-1.51-2,12.62,12.62,0,0,1,3.11-.82A12.65,12.65,0,0,1,95.05,86.19Z"></path><path class="cls-5" d="M77.06,89.25A6.13,6.13,0,0,1,76.83,91a1.22,1.22,0,0,1-1.65.54,1,1,0,0,1-.27-.23C75.61,90.59,76.33,89.9,77.06,89.25Z"></path><path class="cls-5" d="M112.63,96.63a1.25,1.25,0,0,1-1.52-2,12.62,12.62,0,0,1,3.11-.81,12.92,12.92,0,0,1-1.59,2.79Z"></path><path class="cls-5" d="M121.51,107.57a1.25,1.25,0,0,1-1.51-2,12.62,12.62,0,0,1,3.11-.82,12.65,12.65,0,0,1-1.6,2.8Z"></path><path class="cls-5" d="M126.32,84.66a1.25,1.25,0,0,1-1.52-2,12.62,12.62,0,0,1,3.11-.81,12.51,12.51,0,0,1-1.59,2.79Z"></path><path class="cls-5" d="M119.71,74.54a1.25,1.25,0,1,1-1.51-2,12.62,12.62,0,0,1,3.11-.82,12.65,12.65,0,0,1-1.6,2.8Z"></path><path class="cls-5" d="M106.84,85.66a1.25,1.25,0,1,1-1.52-2,12.73,12.73,0,0,1,3.11-.82,13,13,0,0,1-1.59,2.8Z"></path><path class="cls-5" d="M123.31,95.11a1.25,1.25,0,0,1-1.51-2,12.62,12.62,0,0,1,3.11-.82,12.65,12.65,0,0,1-1.6,2.8Z"></path><path class="cls-5" d="M132.11,73a1.25,1.25,0,0,1-1.52-2,12.62,12.62,0,0,1,3.11-.81A12.92,12.92,0,0,1,132.11,73Z"></path><path class="cls-5" d="M112.51,71a1.25,1.25,0,0,1-1.58.76,1.2,1.2,0,0,1-.76-1.38c.76-.27,1.57-.53,2.37-.8A3.38,3.38,0,0,1,112.51,71Z"></path><path class="cls-5" d="M138.9,84a1.25,1.25,0,1,1-1.51-2,13,13,0,0,1,3.11-.81A12.41,12.41,0,0,1,138.9,84Z"></path><path class="cls-5" d="M144.89,67.81a1.25,1.25,0,0,1-1.52-2,12.79,12.79,0,0,1,3.12-.82,12.65,12.65,0,0,1-1.6,2.8Z"></path><path class="cls-5" d="M153.44,90.82a1.25,1.25,0,1,1-1.52-2A12.62,12.62,0,0,1,155,88a12.92,12.92,0,0,1-1.59,2.79Z"></path><path class="cls-5" d="M150.68,72.52a1.25,1.25,0,0,1-1.11,2.24,12.85,12.85,0,0,1-2.11-2.43A13,13,0,0,1,150.68,72.52Z"></path><path class="cls-5" d="M162.93,90a1.25,1.25,0,0,1,.57,1.67,1.24,1.24,0,0,1-1.67.57,12.49,12.49,0,0,1-2.11-2.43A12.88,12.88,0,0,1,162.93,90Z"></path><path class="cls-5" d="M175.31,80.79a1.25,1.25,0,1,1-1.1,2.24,12.79,12.79,0,0,1-2.11-2.43A12.88,12.88,0,0,1,175.31,80.79Z"></path><path class="cls-5" d="M182.51,70.43a1.25,1.25,0,0,1-1.1,2.24,12.79,12.79,0,0,1-2.11-2.43A12.41,12.41,0,0,1,182.51,70.43Z"></path><path class="cls-5" d="M202.75,76.39a1.24,1.24,0,1,1-1.1,2.23,12.49,12.49,0,0,1-2.11-2.43A12.48,12.48,0,0,1,202.75,76.39Z"></path><path class="cls-5" d="M174.37,97.62a1.25,1.25,0,1,1-1.1,2.24,12.79,12.79,0,0,1-2.11-2.43A12.88,12.88,0,0,1,174.37,97.62Z"></path><path class="cls-5" d="M186.5,80.79A1.25,1.25,0,0,1,185.39,83a13.17,13.17,0,0,1-2.11-2.43A13,13,0,0,1,186.5,80.79Z"></path><path class="cls-5" d="M168.31,69.68a1.25,1.25,0,0,1-1.11,2.24,13.17,13.17,0,0,1-2.11-2.43A13,13,0,0,1,168.31,69.68Z"></path><path class="cls-5" d="M206.27,91.29a1.25,1.25,0,1,1-1.1,2.24,12.49,12.49,0,0,1-2.11-2.43A12.88,12.88,0,0,1,206.27,91.29Z"></path><path class="cls-5" d="M193.54,98.91a1.25,1.25,0,0,1-1.1,2.24,12.79,12.79,0,0,1-2.11-2.43A12.88,12.88,0,0,1,193.54,98.91Z"></path><path class="cls-5" d="M183.67,96.05a1.25,1.25,0,0,1-1.11,2.24,12.79,12.79,0,0,1-2.11-2.43A12.48,12.48,0,0,1,183.67,96.05Z"></path><path class="cls-5" d="M197,83.15a1.24,1.24,0,1,1-1.1,2.23A12.49,12.49,0,0,1,193.81,83,12.48,12.48,0,0,1,197,83.15Z"></path><path class="cls-5" d="M197.84,83.15a1.25,1.25,0,1,1-1.11,2.23A12.85,12.85,0,0,1,194.62,83,12.58,12.58,0,0,1,197.84,83.15Z"></path><path class="cls-5" d="M205.41,108.68a1.25,1.25,0,1,1-1.1,2.24,12.79,12.79,0,0,1-2.11-2.43A12.41,12.41,0,0,1,205.41,108.68Z"></path><path class="cls-5" d="M229.17,94.76a1.25,1.25,0,0,1-1.1,2.24A12.79,12.79,0,0,1,226,94.57,12.86,12.86,0,0,1,229.17,94.76Z"></path><path class="cls-5" d="M219.91,83.76a1.33,1.33,0,0,1-1.69.58,13.17,13.17,0,0,1-2.11-2.46s.46,0,1,0C218.11,82.46,219,83.11,219.91,83.76Z"></path><path class="cls-5" d="M225.23,116.55a1.24,1.24,0,1,1-1.1,2.23,12.49,12.49,0,0,1-2.11-2.43A12.5,12.5,0,0,1,225.23,116.55Z"></path><path class="cls-5" d="M225.73,106.36a1.25,1.25,0,0,1-1.11,2.24,13.17,13.17,0,0,1-2.11-2.43A12.48,12.48,0,0,1,225.73,106.36Z"></path><path class="cls-5" d="M217.38,97.34a1.25,1.25,0,1,1-1.1,2.24,12.79,12.79,0,0,1-2.11-2.43A12.41,12.41,0,0,1,217.38,97.34Z"></path><path class="cls-5" d="M97.26,99.68a1.24,1.24,0,1,1-1.52-2,12.73,12.73,0,0,1,3.11-.82A12.29,12.29,0,0,1,97.26,99.68Z"></path><path class="cls-5" d="M72.6,100a1.25,1.25,0,0,1-1.52-2,12.79,12.79,0,0,1,3.12-.82A12.65,12.65,0,0,1,72.6,100Z"></path><path class="cls-5" d="M89.64,110.23a1.25,1.25,0,0,1,1.74-.33,1.24,1.24,0,0,1,.33,1.73A12.58,12.58,0,0,1,89,113.39,12.9,12.9,0,0,1,89.64,110.23Z"></path><path class="cls-5" d="M147.9,109.37a1.25,1.25,0,0,1-2.46.42,12.4,12.4,0,0,1,.74-3.13A12.82,12.82,0,0,1,147.9,109.37Z"></path><path class="cls-5" d="M138.9,95.58a1.25,1.25,0,1,1-1.51-2,12.51,12.51,0,0,1,3.11-.81,12.63,12.63,0,0,1-1.6,2.79Z"></path><path class="cls-5" d="M135,106a1.25,1.25,0,0,1-1.51-2,12.62,12.62,0,0,1,3.11-.82A12.65,12.65,0,0,1,135,106Z"></path><path class="cls-5" d="M149.84,100a1.25,1.25,0,1,1-1.52-2,12.73,12.73,0,0,1,3.11-.82,13,13,0,0,1-1.59,2.8Z"></path><path class="cls-10" d="M162.74,198.61c2.85,4,6.07,1.7,8.54.91,7.77-2.46,10.89,6,16.63,5,4-.68,5-5.91,2.93-6.21-2.83-.4-.77,6.44-12.49-.55-5.36-3.19-6.95-.7-9.93-.15a5.89,5.89,0,0,1-5.8-2.44,4.46,4.46,0,0,0-.76-1c-.31-.27-1-.5-1.17,0s.36,1,.48,1.26a15.48,15.48,0,0,0,1.57,3.22Z"></path></svg> 