<?xml version="1.0" encoding="UTF-8"?> <svg xmlns="http://www.w3.org/2000/svg" width="493" height="98" viewBox="0 0 493 98" fill="none"><path d="M71.1496 93.6381C67.4183 95.4557 59.883 97.6945 48.7071 97.6945C17.7598 97.6945 0 76.4494 0 49.3439C0 17.0755 22.6301 0 50.7626 0C61.6692 0 67.4319 2.08329 71.1436 4.05186L67.7056 23.3495C63.5735 21.5229 59.1872 19.8592 51.6126 19.8592C38.2149 19.8592 24.0034 27.812 24.0034 48.9877C24.0034 67.9306 35.3351 77.95 51.7245 77.95C58.2162 77.95 62.6221 76.6789 67.7071 74.3495L71.1496 93.6381Z" fill="#0056A2"></path><path d="M122.537 23.9307C114.2 23.9307 106.132 27.7033 102.024 33.763H101.772V0.338135L80.801 7.58438V94.7885H101.772V54.054C101.772 48.1724 105.603 41.8456 112.951 41.8456C120.811 41.8456 123.839 48.0215 123.839 57.0053V94.79H144.828V54.1159C144.828 33.3523 135.906 23.9307 122.537 23.9307Z" fill="#0056A2"></path><path d="M176.464 67.2783C177.235 76.1112 184.575 80.8046 195.918 80.9058C202.753 80.9586 210.699 78.9749 215.993 75.8621L219.157 92.1525C211.189 96.147 202.087 97.6944 192.821 97.6944C167.859 97.6944 154.479 82.7098 154.479 59.7527C154.479 37.546 168.866 23.2166 190.426 23.2166C212.644 23.2166 222.604 39.5448 222.604 60.0033C222.604 62.1591 222.338 65.6705 222.099 67.2783H176.464ZM201.659 52.3827C201.659 47.253 199.151 38.2827 189.442 38.2827C180.93 38.2827 176.916 45.5969 176.32 52.3827H201.659Z" fill="#0056A2"></path><path d="M247.255 94.7886L224.083 26.1304H247.22L259.809 74.6969H260.232L272.822 26.1304H295.968L272.798 94.7886H247.255Z" fill="#0056A2"></path><path d="M301.914 48.7098C301.914 38.6089 301.596 32.0193 301.165 26.1287H320.921L321.52 38.8912H322.051C325.509 28.7902 332.144 24.9527 338.969 24.5662C342.213 24.3775 343.969 24.607 345.977 24.995V45.0701C344.055 44.6942 340.241 44.2519 337.559 44.498C329.488 45.2392 324.604 51.0981 323.234 57.8431C322.959 59.241 322.817 60.7929 322.817 62.609V94.7869H301.921V48.7098H301.914Z" fill="#0056A2"></path><path d="M419.676 60.4548C419.676 82.9574 406.092 97.6929 384.08 97.6929C362.064 97.6929 348.471 82.9574 348.471 60.4548C348.471 37.9491 362.064 23.2151 384.08 23.2151C406.092 23.2151 419.676 37.9506 419.676 60.4548ZM397.933 60.4548C397.933 49.282 394.085 39.5569 384.08 39.5569C374.061 39.5569 370.233 49.2805 370.233 60.4548C370.233 71.6382 374.061 81.3481 384.08 81.3481C394.088 81.3481 397.933 71.6382 397.933 60.4548Z" fill="#0056A2"></path><path d="M429.002 48.0199C429.002 39.4512 428.687 32.1355 428.244 26.1302H448L448.452 35.736H448.876C451.612 31.269 458.852 23.9307 470.149 23.9307C483.975 23.9307 493 33.3523 493 53.5633V94.7899H472.047V56.7184C472.047 47.884 469.01 41.844 461.428 41.844C455.614 41.844 452.004 45.9245 450.664 49.836C450.168 51.2686 449.965 53.2146 449.965 55.1801V94.7884H429.002V48.0199Z" fill="#0056A2"></path></svg> 