<?xml version="1.0" encoding="UTF-8"?> <svg xmlns="http://www.w3.org/2000/svg" xmlns:xlink="http://www.w3.org/1999/xlink" viewBox="0 0 213.02 67.61"><defs><style>.cls-1{fill:none;}.cls-2{clip-path:url(#clip-path);}.cls-3{fill:#fff;}.cls-4{clip-path:url(#clip-path-2);}.cls-5{fill:#e93330;}.cls-6{clip-path:url(#clip-path-3);}</style><clipPath id="clip-path" transform="translate(7.55 7.55)"><path class="cls-1" d="M1.39,18.3a26.23,26.23,0,0,0-1.21,8c0,4.9,3.87,17,10.48,21.49A31,31,0,0,0,26,52.51a28.48,28.48,0,0,0,15.49-4.93c3.09-2,10.21-12.66,10.21-21.33C51.73,11.75,38,0,26,0,18.16,0,4.7,7.69,1.39,18.3"></path></clipPath><clipPath id="clip-path-2" transform="translate(7.55 7.55)"><path class="cls-1" d="M17.7,21.39v5h5.11V38.79L10.87,47.88a38.17,38.17,0,0,0,5.5,2.89A20.58,20.58,0,0,0,21,52.11a28,28,0,0,0,4.53.39H26A30.91,30.91,0,0,0,31.41,52a24.26,24.26,0,0,0,5.07-1.52,25.79,25.79,0,0,0,4.65-2.59l.15-.14-12.37-9V26.43H34v-5ZM.39,22a17.65,17.65,0,0,0-.31,2.23C0,24.9,0,25.56,0,26.22v.13A26.8,26.8,0,0,0,1.15,34a27.36,27.36,0,0,0,9,13.38l.21.14,6-17.9L1.21,18.47C.9,19.65.62,20.83.39,22m35.2,7.6,6.18,17.83a36.28,36.28,0,0,0,4.85-5.35,26.42,26.42,0,0,0,4.65-10.58,27.75,27.75,0,0,0,.38-8c-.08-.84-.21-1.68-.37-2.51a21.26,21.26,0,0,0-.63-2.5ZM17.22,1.72A26.86,26.86,0,0,0,10,5.61a24.73,24.73,0,0,0-5.25,5.46A25,25,0,0,0,1.5,17.62L1.36,18H20L25.8,0a30.56,30.56,0,0,0-8.58,1.72M26.29,0,32,18h18.4a35.85,35.85,0,0,0-3.58-6.7,28,28,0,0,0-4.4-5,25.24,25.24,0,0,0-4.86-3.4,24.11,24.11,0,0,0-5.25-2A25.5,25.5,0,0,0,26.72,0Z"></path></clipPath><clipPath id="clip-path-3" transform="translate(7.55 7.55)"><path class="cls-1" d="M63.72,14.43v6.73h6.16V38h7.66V21.16H83.7V14.43Zm22.76,0V38h17.93V31.24H93.58V29h10.83V23.4H93.58V21h10.83V14.43ZM141,23l2.24,6.54h-4.67Zm-3-8.6-8.41,21.11-6.34-9.9,7.28-11.21H122l-3.74,6.17-3.36-6.17h-8.59L114,25.64l-8,12.33h8.59l3.92-6.73L122.54,38h14l1.3-3.55h6.73L146.07,38h7.66l-9.34-23.54Zm25.38-.37h-.07a11.17,11.17,0,0,0-3.33.51,11.62,11.62,0,0,0-3.19,1.59,11.59,11.59,0,0,0-4.26,5.72,10.72,10.72,0,0,0-.54,3.56,16.14,16.14,0,0,0,.59,4.17,13,13,0,0,0,1.71,3.69A11.45,11.45,0,0,0,157,36.06a11.76,11.76,0,0,0,6.94,2.27,11.43,11.43,0,0,0,3.29-.42,9.77,9.77,0,0,0,2.76-1.28,9.34,9.34,0,0,0,2.22-2.08,10.69,10.69,0,0,0,1.56-2.9,13.54,13.54,0,0,0,.72-3.59h-6.91a11.73,11.73,0,0,1-.22,1.43,3.86,3.86,0,0,1-.3.88,3,3,0,0,1-.3.56,2.83,2.83,0,0,1-2.12,1.21A3.49,3.49,0,0,1,162,31.5a4.46,4.46,0,0,1-.91-.88,5.84,5.84,0,0,1-.75-1.25,8.57,8.57,0,0,1-.66-3.31,8.87,8.87,0,0,1,.11-1.54,7.17,7.17,0,0,1,.29-1.28,6.65,6.65,0,0,1,.42-1,5,5,0,0,1,.52-.77,3.06,3.06,0,0,1,1.76-1.14,4.36,4.36,0,0,1,2.47.3A4.21,4.21,0,0,1,166,21a3,3,0,0,1,1.49,2.76h6.91a17.5,17.5,0,0,0-.71-2.67,12.92,12.92,0,0,0-1-2.13,10.75,10.75,0,0,0-1.17-1.6,9.33,9.33,0,0,0-2.74-2.13,10.12,10.12,0,0,0-1.6-.65,12.92,12.92,0,0,0-3.77-.54h0ZM187.33,32a3.45,3.45,0,0,1-.92-.46,3.94,3.94,0,0,1-.86-.82,5.66,5.66,0,0,1-.73-1.2,8.48,8.48,0,0,1-.66-3.32,10.47,10.47,0,0,1,.13-1.68,9.11,9.11,0,0,1,.37-1.43,6.12,6.12,0,0,1,.55-1.12,3.34,3.34,0,0,1,2.87-1.78,3.16,3.16,0,0,1,1,.18,3.79,3.79,0,0,1,1,.53,4.61,4.61,0,0,1,1,.91,5.86,5.86,0,0,1,.78,1.25,7.43,7.43,0,0,1,.49,1.49,8.43,8.43,0,0,1,0,3.32,7.1,7.1,0,0,1-.49,1.52,5.33,5.33,0,0,1-.76,1.23,3.69,3.69,0,0,1-2.85,1.53,3.17,3.17,0,0,1-1-.15m.89-17.95a11.57,11.57,0,0,0-3.46.53,11.43,11.43,0,0,0-3.25,1.64,12,12,0,0,0-2.68,2.68,12.29,12.29,0,0,0-1.74,3.47,11.94,11.94,0,0,0-.21,6.78,12.41,12.41,0,0,0,1.2,2.92,13.14,13.14,0,0,0,2,2.63,12.54,12.54,0,0,0,2.6,2A11.15,11.15,0,0,0,191.26,38,11.32,11.32,0,0,0,194,36.83a12.32,12.32,0,0,0,2.53-1.94,13.42,13.42,0,0,0,2-2.62,12.8,12.8,0,0,0,1.25-3,11.05,11.05,0,0,0,.4-3.18,12.75,12.75,0,0,0-.57-3.58A12.13,12.13,0,0,0,198,19.09a12.4,12.4,0,0,0-2.72-2.74,11.84,11.84,0,0,0-6.95-2.3Z"></path></clipPath></defs><g id="Layer_2" data-name="Layer 2"><g id="Layer_1-2" data-name="Layer 1"><g class="cls-2"><path class="cls-3" d="M-7.38-7.55H59.28V60.06H-7.38Z" transform="translate(7.55 7.55)"></path></g><g class="cls-4"><path class="cls-5" d="M-7.55-7.55H59.34V60.06H-7.55Z" transform="translate(7.55 7.55)"></path></g><g class="cls-6"><path class="cls-5" d="M58.47,8.81h147V43.59h-147Z" transform="translate(7.55 7.55)"></path></g></g></g></svg> 