<?xml version="1.0" encoding="UTF-8"?> <svg xmlns="http://www.w3.org/2000/svg" width="347" height="394" viewBox="0 0 347 394" fill="none"><path d="M169 99C180.598 99 190 89.598 190 78C190 66.402 180.598 57 169 57C157.402 57 148 66.402 148 78C148 89.598 157.402 99 169 99Z" fill="#222222"></path><path d="M164.43 82.73C164.426 82.6735 164.434 82.6168 164.453 82.5635C164.472 82.5101 164.502 82.4613 164.54 82.42L169.8 76.17C170.345 75.6161 170.659 74.8765 170.68 74.1C170.702 73.8768 170.676 73.6516 170.602 73.4397C170.529 73.2277 170.412 73.034 170.257 72.8717C170.102 72.7094 169.914 72.5824 169.706 72.4993C169.498 72.4161 169.274 72.3789 169.05 72.39C168.05 72.39 167.42 73 167.29 74.15C167.29 74.28 167.2 74.35 167.05 74.32L164.63 73.93C164.6 73.9253 164.571 73.9144 164.546 73.898C164.52 73.8816 164.498 73.86 164.481 73.8346C164.464 73.8092 164.452 73.7806 164.447 73.7505C164.442 73.7204 164.443 73.6896 164.45 73.66C164.61 71.6 166.28 69.79 169.16 69.79C172.04 69.79 173.76 71.64 173.76 74.06C173.739 75.4204 173.195 76.7205 172.24 77.69L168.3 82.33H173.54C173.57 82.3285 173.599 82.3333 173.626 82.3438C173.653 82.3544 173.678 82.3705 173.699 82.3912C173.72 82.412 173.736 82.4368 173.746 82.4641C173.757 82.4915 173.762 82.5207 173.76 82.55V84.81C173.762 84.8392 173.757 84.8685 173.746 84.8958C173.736 84.9232 173.72 84.948 173.699 84.9687C173.678 84.9894 173.653 85.0056 173.626 85.0161C173.599 85.0267 173.57 85.0314 173.54 85.03H164.65C164.621 85.0314 164.592 85.0267 164.564 85.0161C164.537 85.0056 164.512 84.9894 164.492 84.9687C164.471 84.948 164.455 84.9232 164.444 84.8958C164.434 84.8685 164.429 84.8392 164.43 84.81V82.73Z" fill="white"></path><path d="M169.93 43.13C169.93 42.9231 169.848 42.7247 169.702 42.5784C169.555 42.4322 169.357 42.35 169.15 42.35C168.943 42.35 168.745 42.4322 168.599 42.5784C168.452 42.7247 168.37 42.9231 168.37 43.13C168.37 43.3368 168.452 43.5352 168.599 43.6815C168.745 43.8278 168.943 43.91 169.15 43.91C169.357 43.91 169.555 43.8278 169.702 43.6815C169.848 43.5352 169.93 43.3368 169.93 43.13V43.13Z" fill="#009688"></path><path d="M169.93 40C169.93 39.7931 169.848 39.5947 169.702 39.4484C169.555 39.3021 169.357 39.22 169.15 39.22C168.943 39.22 168.745 39.3021 168.599 39.4484C168.452 39.5947 168.37 39.7931 168.37 40C168.37 40.2068 168.452 40.4052 168.599 40.5515C168.745 40.6978 168.943 40.78 169.15 40.78C169.357 40.78 169.555 40.6978 169.702 40.5515C169.848 40.4052 169.93 40.2068 169.93 40Z" fill="#009688"></path><path d="M169.93 36.87C169.93 36.6631 169.848 36.4647 169.702 36.3184C169.556 36.1721 169.357 36.09 169.15 36.09C168.993 36.088 168.839 36.1329 168.708 36.2189C168.576 36.305 168.473 36.4282 168.412 36.573C168.351 36.7178 168.335 36.8774 168.365 37.0316C168.395 37.1858 168.471 37.3274 168.582 37.4385C168.693 37.5496 168.834 37.625 168.989 37.6552C169.143 37.6854 169.302 37.6689 169.447 37.6079C169.592 37.5468 169.715 37.444 169.801 37.3126C169.887 37.1812 169.932 37.027 169.93 36.87V36.87Z" fill="#009688"></path><path d="M169.93 33.74C169.932 33.6367 169.912 33.5342 169.874 33.4384C169.835 33.3426 169.778 33.2555 169.705 33.182C169.633 33.1085 169.546 33.0501 169.451 33.0103C169.356 32.9705 169.254 32.95 169.15 32.95C169.04 32.9375 168.928 32.9485 168.822 32.9822C168.716 33.016 168.618 33.0717 168.535 33.1459C168.452 33.22 168.386 33.3107 168.34 33.4123C168.295 33.5138 168.271 33.6238 168.271 33.735C168.271 33.8462 168.295 33.9562 168.34 34.0577C168.386 34.1593 168.452 34.2501 168.535 34.3242C168.618 34.3983 168.716 34.454 168.822 34.4878C168.928 34.5215 169.04 34.5325 169.15 34.52C169.357 34.52 169.555 34.4378 169.702 34.2915C169.848 34.1453 169.93 33.9469 169.93 33.74Z" fill="#009688"></path><path d="M169.93 30.61C169.93 30.4031 169.848 30.2047 169.702 30.0584C169.555 29.9121 169.357 29.83 169.15 29.83C168.943 29.83 168.745 29.9121 168.599 30.0584C168.452 30.2047 168.37 30.4031 168.37 30.61C168.37 30.8168 168.452 31.0152 168.599 31.1615C168.745 31.3078 168.943 31.39 169.15 31.39C169.357 31.39 169.555 31.3078 169.702 31.1615C169.848 31.0152 169.93 30.8168 169.93 30.61Z" fill="#009688"></path><path d="M169.93 27.48C169.93 27.2731 169.848 27.0747 169.702 26.9285C169.555 26.7822 169.357 26.7 169.15 26.7C168.943 26.7 168.745 26.7822 168.599 26.9285C168.452 27.0747 168.37 27.2731 168.37 27.48C168.37 27.6869 168.452 27.8853 168.599 28.0316C168.745 28.1778 168.943 28.26 169.15 28.26C169.357 28.26 169.555 28.1778 169.702 28.0316C169.848 27.8853 169.93 27.6869 169.93 27.48Z" fill="#009688"></path><path d="M169.93 24.36C169.93 24.1531 169.848 23.9547 169.702 23.8084C169.555 23.6621 169.357 23.58 169.15 23.58C168.943 23.58 168.745 23.6621 168.599 23.8084C168.452 23.9547 168.37 24.1531 168.37 24.36C168.37 24.5668 168.452 24.7652 168.599 24.9115C168.745 25.0578 168.943 25.14 169.15 25.14C169.253 25.14 169.354 25.1198 169.449 25.0806C169.543 25.0414 169.629 24.9839 169.702 24.9115C169.774 24.8391 169.832 24.7531 169.871 24.6584C169.91 24.5638 169.93 24.4624 169.93 24.36V24.36V24.36Z" fill="#009688"></path><path d="M173.07 40C173.072 39.8434 173.028 39.6896 172.942 39.5584C172.856 39.4272 172.734 39.3244 172.589 39.2631C172.445 39.2017 172.286 39.1846 172.132 39.214C171.978 39.2433 171.837 39.3178 171.725 39.4278C171.614 39.5379 171.537 39.6787 171.506 39.8322C171.475 39.9857 171.49 40.145 171.549 40.29C171.609 40.4349 171.71 40.5589 171.84 40.6461C171.97 40.7334 172.123 40.78 172.28 40.78C172.383 40.7813 172.486 40.7621 172.582 40.7235C172.678 40.6849 172.765 40.6277 172.838 40.5551C172.912 40.4826 172.97 40.3961 173.01 40.3008C173.05 40.2055 173.07 40.1033 173.07 40V40Z" fill="#009688"></path><path d="M173.07 36.87C173.07 36.7137 173.024 36.561 172.937 36.4311C172.85 36.3011 172.727 36.1999 172.583 36.1401C172.438 36.0803 172.279 36.0647 172.126 36.0951C171.973 36.1256 171.832 36.2009 171.722 36.3113C171.611 36.4218 171.536 36.5626 171.505 36.7158C171.475 36.8691 171.491 37.0279 171.55 37.1723C171.61 37.3166 171.711 37.44 171.841 37.5268C171.971 37.6136 172.124 37.66 172.28 37.66C172.384 37.6613 172.488 37.6418 172.584 37.6026C172.681 37.5633 172.768 37.5052 172.842 37.4316C172.915 37.3579 172.974 37.2703 173.013 37.1739C173.052 37.0774 173.072 36.9741 173.07 36.87V36.87Z" fill="#009688"></path><path d="M173.07 33.74C173.072 33.5833 173.028 33.4296 172.942 33.2984C172.856 33.1672 172.734 33.0644 172.589 33.003C172.445 32.9417 172.286 32.9246 172.132 32.954C171.978 32.9833 171.837 33.0578 171.725 33.1678C171.614 33.2779 171.537 33.4187 171.506 33.5722C171.475 33.7257 171.49 33.885 171.549 34.03C171.609 34.1749 171.71 34.2989 171.84 34.3861C171.97 34.4734 172.123 34.52 172.28 34.52C172.488 34.52 172.687 34.4382 172.835 34.2922C172.983 34.1462 173.068 33.9478 173.07 33.74V33.74Z" fill="#009688"></path><path d="M173.07 30.61C173.072 30.4533 173.028 30.2996 172.942 30.1684C172.856 30.0372 172.734 29.9344 172.589 29.873C172.445 29.8117 172.286 29.7946 172.132 29.824C171.978 29.8533 171.837 29.9278 171.725 30.0378C171.614 30.1479 171.537 30.2886 171.506 30.4422C171.475 30.5957 171.49 30.755 171.549 30.9C171.609 31.0449 171.71 31.1689 171.84 31.2561C171.97 31.3434 172.123 31.39 172.28 31.39C172.383 31.3913 172.486 31.3721 172.582 31.3335C172.678 31.2949 172.765 31.2377 172.838 31.1651C172.912 31.0925 172.97 31.0061 173.01 30.9108C173.05 30.8155 173.07 30.7133 173.07 30.61V30.61Z" fill="#009688"></path><path d="M173.07 27.48C173.072 27.3233 173.028 27.1696 172.942 27.0384C172.856 26.9072 172.734 26.8044 172.589 26.743C172.445 26.6817 172.286 26.6646 172.132 26.694C171.978 26.7233 171.837 26.7978 171.725 26.9078C171.614 27.0179 171.537 27.1586 171.506 27.3122C171.475 27.4657 171.49 27.625 171.549 27.77C171.609 27.9149 171.71 28.0389 171.84 28.1261C171.97 28.2134 172.123 28.26 172.28 28.26C172.383 28.2613 172.486 28.2421 172.582 28.2035C172.678 28.1649 172.765 28.1077 172.838 28.0351C172.912 27.9625 172.97 27.8761 173.01 27.7808C173.05 27.6855 173.07 27.5833 173.07 27.48V27.48Z" fill="#009688"></path><path d="M176.2 36.87C176.198 36.7161 176.151 36.5663 176.064 36.4394C175.977 36.3124 175.854 36.214 175.712 36.1565C175.569 36.099 175.413 36.085 175.262 36.1162C175.111 36.1474 174.973 36.2225 174.865 36.332C174.757 36.4414 174.684 36.5804 174.654 36.7314C174.625 36.8825 174.641 37.0388 174.7 37.1807C174.76 37.3227 174.86 37.4439 174.988 37.5292C175.116 37.6145 175.266 37.66 175.42 37.66C175.523 37.66 175.626 37.6395 175.721 37.5997C175.816 37.5598 175.903 37.5015 175.975 37.428C176.048 37.3545 176.105 37.2673 176.144 37.1715C176.182 37.0758 176.201 36.9732 176.2 36.87V36.87Z" fill="#009688"></path><path d="M176.2 33.74C176.2 33.5857 176.154 33.4349 176.069 33.3066C175.983 33.1783 175.861 33.0784 175.719 33.0193C175.576 32.9603 175.419 32.9449 175.268 32.9749C175.117 33.005 174.978 33.0793 174.869 33.1884C174.76 33.2975 174.685 33.4365 174.655 33.5878C174.625 33.7391 174.64 33.8959 174.7 34.0385C174.759 34.181 174.859 34.3028 174.987 34.3885C175.115 34.4742 175.266 34.52 175.42 34.52C175.627 34.52 175.825 34.4378 175.972 34.2915C176.118 34.1452 176.2 33.9468 176.2 33.74Z" fill="#009688"></path><path d="M176.2 30.61C176.2 30.4557 176.154 30.3049 176.069 30.1766C175.983 30.0483 175.861 29.9484 175.719 29.8893C175.576 29.8303 175.419 29.8148 175.268 29.8449C175.117 29.875 174.978 29.9493 174.869 30.0584C174.76 30.1675 174.685 30.3065 174.655 30.4578C174.625 30.6091 174.64 30.7659 174.7 30.9084C174.759 31.051 174.859 31.1728 174.987 31.2585C175.115 31.3442 175.266 31.39 175.42 31.39C175.627 31.39 175.825 31.3078 175.972 31.1615C176.118 31.0152 176.2 30.8168 176.2 30.61Z" fill="#009688"></path><path d="M176.2 27.48C176.2 27.3257 176.154 27.1749 176.069 27.0466C175.983 26.9183 175.861 26.8184 175.719 26.7593C175.576 26.7003 175.419 26.6848 175.268 26.7149C175.117 26.745 174.978 26.8193 174.869 26.9284C174.76 27.0375 174.685 27.1765 174.655 27.3278C174.625 27.4791 174.64 27.6359 174.7 27.7784C174.759 27.921 174.859 28.0428 174.987 28.1285C175.115 28.2142 175.266 28.26 175.42 28.26C175.627 28.26 175.825 28.1778 175.972 28.0315C176.118 27.8852 176.2 27.6868 176.2 27.48Z" fill="#009688"></path><path d="M179.34 33.74C179.342 33.5829 179.297 33.4288 179.211 33.2974C179.125 33.1659 179.002 33.0631 178.857 33.0021C178.712 32.9411 178.553 32.9246 178.399 32.9548C178.244 32.9849 178.103 33.0604 177.992 33.1714C177.881 33.2825 177.805 33.4242 177.775 33.5784C177.745 33.7325 177.761 33.8922 177.822 34.037C177.883 34.1817 177.986 34.305 178.118 34.391C178.249 34.4771 178.403 34.522 178.56 34.52C178.767 34.52 178.965 34.4378 179.112 34.2915C179.258 34.1453 179.34 33.9469 179.34 33.74V33.74Z" fill="#009688"></path><path d="M179.34 30.61C179.342 30.4529 179.297 30.2988 179.211 30.1674C179.125 30.0359 179.002 29.9331 178.857 29.8721C178.712 29.8111 178.553 29.7946 178.399 29.8248C178.244 29.8549 178.103 29.9304 177.992 30.0414C177.881 30.1525 177.805 30.2942 177.775 30.4484C177.745 30.6025 177.761 30.7622 177.822 30.907C177.883 31.0517 177.986 31.175 178.118 31.261C178.249 31.3471 178.403 31.392 178.56 31.39C178.767 31.39 178.965 31.3078 179.112 31.1615C179.258 31.0153 179.34 30.8169 179.34 30.61V30.61Z" fill="#009688"></path><path d="M179.34 27.48C179.342 27.3229 179.297 27.1688 179.211 27.0374C179.125 26.9059 179.002 26.8031 178.857 26.7421C178.712 26.6811 178.553 26.6646 178.399 26.6948C178.244 26.7249 178.103 26.8004 177.992 26.9114C177.881 27.0225 177.805 27.1642 177.775 27.3184C177.745 27.4725 177.761 27.6322 177.822 27.777C177.883 27.9217 177.986 28.045 178.118 28.131C178.249 28.2171 178.403 28.262 178.56 28.26C178.767 28.26 178.965 28.1778 179.112 28.0315C179.258 27.8853 179.34 27.6869 179.34 27.48V27.48Z" fill="#009688"></path><path d="M182.48 30.61C182.478 30.4022 182.393 30.2038 182.245 30.0578C182.097 29.9118 181.898 29.8299 181.69 29.83C181.483 29.83 181.285 29.9121 181.139 30.0584C180.992 30.2047 180.91 30.4031 180.91 30.61C180.91 30.8168 180.992 31.0152 181.139 31.1615C181.285 31.3078 181.483 31.39 181.69 31.39C181.898 31.39 182.097 31.3081 182.245 31.1621C182.393 31.0161 182.478 30.8177 182.48 30.61V30.61Z" fill="#009688"></path><path d="M182.48 27.48C182.478 27.2722 182.393 27.0738 182.245 26.9279C182.097 26.7819 181.898 26.7 181.69 26.7C181.483 26.7 181.285 26.7822 181.139 26.9285C180.992 27.0747 180.91 27.2731 180.91 27.48C180.91 27.6869 180.992 27.8853 181.139 28.0316C181.285 28.1778 181.483 28.26 181.69 28.26C181.898 28.26 182.097 28.1782 182.245 28.0322C182.393 27.8862 182.478 27.6878 182.48 27.48V27.48Z" fill="#009688"></path><path d="M185.61 27.48C185.612 27.3229 185.567 27.1688 185.481 27.0374C185.395 26.9059 185.272 26.8031 185.127 26.7421C184.982 26.6811 184.823 26.6646 184.669 26.6948C184.514 26.7249 184.373 26.8004 184.262 26.9114C184.151 27.0225 184.075 27.1642 184.045 27.3184C184.015 27.4725 184.031 27.6322 184.092 27.777C184.153 27.9217 184.256 28.045 184.388 28.131C184.519 28.2171 184.673 28.262 184.83 28.26C185.037 28.26 185.235 28.1778 185.382 28.0315C185.528 27.8853 185.61 27.6869 185.61 27.48Z" fill="#009688"></path><path d="M166.8 40C166.802 39.8434 166.757 39.6896 166.672 39.5584C166.586 39.4272 166.464 39.3244 166.319 39.2631C166.175 39.2017 166.016 39.1846 165.862 39.214C165.708 39.2433 165.567 39.3178 165.455 39.4278C165.344 39.5379 165.267 39.6787 165.236 39.8322C165.205 39.9857 165.22 40.145 165.279 40.29C165.339 40.4349 165.44 40.5589 165.57 40.6461C165.7 40.7334 165.853 40.78 166.01 40.78C166.113 40.7813 166.216 40.7621 166.312 40.7235C166.408 40.6849 166.495 40.6277 166.568 40.5551C166.642 40.4826 166.7 40.3961 166.74 40.3008C166.78 40.2055 166.8 40.1033 166.8 40V40Z" fill="#009688"></path><path d="M166.8 36.87C166.8 36.7137 166.754 36.561 166.667 36.4311C166.58 36.3011 166.457 36.1999 166.313 36.1401C166.168 36.0803 166.009 36.0647 165.856 36.0951C165.703 36.1256 165.562 36.2009 165.452 36.3113C165.341 36.4218 165.266 36.5626 165.235 36.7158C165.205 36.8691 165.221 37.0279 165.28 37.1723C165.34 37.3166 165.441 37.44 165.571 37.5268C165.701 37.6136 165.854 37.66 166.01 37.66C166.114 37.6613 166.218 37.6418 166.314 37.6026C166.411 37.5633 166.498 37.5052 166.572 37.4316C166.645 37.3579 166.704 37.2703 166.743 37.1739C166.782 37.0774 166.802 36.9741 166.8 36.87V36.87Z" fill="#009688"></path><path d="M166.8 33.74C166.802 33.5833 166.757 33.4296 166.672 33.2984C166.586 33.1672 166.464 33.0644 166.319 33.003C166.175 32.9417 166.016 32.9246 165.862 32.954C165.708 32.9833 165.567 33.0578 165.455 33.1678C165.344 33.2779 165.267 33.4187 165.236 33.5722C165.205 33.7257 165.22 33.885 165.279 34.03C165.339 34.1749 165.44 34.2989 165.57 34.3861C165.7 34.4734 165.853 34.52 166.01 34.52C166.218 34.52 166.417 34.4382 166.565 34.2922C166.713 34.1462 166.798 33.9478 166.8 33.74V33.74Z" fill="#009688"></path><path d="M166.8 30.61C166.802 30.4533 166.757 30.2996 166.672 30.1684C166.586 30.0372 166.464 29.9344 166.319 29.873C166.175 29.8117 166.016 29.7946 165.862 29.824C165.708 29.8533 165.567 29.9278 165.455 30.0378C165.344 30.1479 165.267 30.2886 165.236 30.4422C165.205 30.5957 165.22 30.755 165.279 30.9C165.339 31.0449 165.44 31.1689 165.57 31.2561C165.7 31.3434 165.853 31.39 166.01 31.39C166.113 31.3913 166.216 31.3721 166.312 31.3335C166.408 31.2949 166.495 31.2377 166.568 31.1651C166.642 31.0925 166.7 31.0061 166.74 30.9108C166.78 30.8155 166.8 30.7133 166.8 30.61V30.61Z" fill="#009688"></path><path d="M166.8 27.48C166.802 27.3233 166.757 27.1696 166.672 27.0384C166.586 26.9072 166.464 26.8044 166.319 26.743C166.175 26.6817 166.016 26.6646 165.862 26.694C165.708 26.7233 165.567 26.7978 165.455 26.9078C165.344 27.0179 165.267 27.1586 165.236 27.3122C165.205 27.4657 165.22 27.625 165.279 27.77C165.339 27.9149 165.44 28.0389 165.57 28.1261C165.7 28.2134 165.853 28.26 166.01 28.26C166.113 28.2613 166.216 28.2421 166.312 28.2035C166.408 28.1649 166.495 28.1077 166.568 28.0351C166.642 27.9625 166.7 27.8761 166.74 27.7808C166.78 27.6855 166.8 27.5833 166.8 27.48V27.48Z" fill="#009688"></path><path d="M163.66 36.87C163.66 36.7133 163.613 36.5602 163.526 36.43C163.439 36.2999 163.315 36.1987 163.17 36.1392C163.025 36.0797 162.866 36.0646 162.712 36.0959C162.559 36.1272 162.418 36.2035 162.308 36.315C162.198 36.4265 162.123 36.5682 162.094 36.7221C162.065 36.8759 162.082 37.0351 162.143 37.1793C162.204 37.3234 162.307 37.4461 162.438 37.5317C162.57 37.6173 162.723 37.6619 162.88 37.66C162.983 37.66 163.086 37.6395 163.181 37.5996C163.276 37.5598 163.363 37.5015 163.435 37.428C163.508 37.3545 163.565 37.2673 163.604 37.1715C163.642 37.0757 163.661 36.9732 163.66 36.87V36.87Z" fill="#009688"></path><path d="M163.66 33.74C163.662 33.5829 163.617 33.4288 163.531 33.2974C163.445 33.1659 163.322 33.0631 163.177 33.0021C163.032 32.9411 162.873 32.9246 162.719 32.9548C162.564 32.9849 162.423 33.0604 162.312 33.1714C162.201 33.2825 162.125 33.4242 162.095 33.5784C162.065 33.7325 162.081 33.8922 162.142 34.037C162.203 34.1817 162.306 34.305 162.438 34.391C162.569 34.4771 162.723 34.522 162.88 34.52C163.087 34.52 163.286 34.4378 163.432 34.2915C163.578 34.1453 163.66 33.9469 163.66 33.74Z" fill="#009688"></path><path d="M163.66 30.61C163.662 30.4529 163.617 30.2988 163.531 30.1674C163.445 30.0359 163.322 29.9331 163.177 29.8721C163.032 29.8111 162.873 29.7946 162.719 29.8248C162.564 29.8549 162.423 29.9304 162.312 30.0414C162.201 30.1525 162.125 30.2942 162.095 30.4484C162.065 30.6025 162.081 30.7622 162.142 30.907C162.203 31.0517 162.306 31.175 162.438 31.261C162.569 31.3471 162.723 31.392 162.88 31.39C163.087 31.39 163.286 31.3078 163.432 31.1615C163.578 31.0153 163.66 30.8169 163.66 30.61Z" fill="#009688"></path><path d="M163.66 27.48C163.662 27.3229 163.617 27.1688 163.531 27.0374C163.445 26.9059 163.322 26.8031 163.177 26.7421C163.032 26.6811 162.873 26.6646 162.719 26.6948C162.564 26.7249 162.423 26.8004 162.312 26.9114C162.201 27.0225 162.125 27.1642 162.095 27.3184C162.065 27.4725 162.081 27.6322 162.142 27.777C162.203 27.9217 162.306 28.045 162.438 28.131C162.569 28.2171 162.723 28.262 162.88 28.26C163.087 28.26 163.286 28.1778 163.432 28.0315C163.578 27.8853 163.66 27.6869 163.66 27.48Z" fill="#009688"></path><path d="M160.52 33.74C160.52 33.5857 160.474 33.4349 160.389 33.3066C160.303 33.1783 160.181 33.0784 160.039 33.0193C159.896 32.9603 159.739 32.9449 159.588 32.9749C159.437 33.005 159.298 33.0793 159.189 33.1884C159.08 33.2975 159.005 33.4365 158.975 33.5878C158.945 33.7391 158.961 33.8959 159.02 34.0385C159.079 34.181 159.179 34.3028 159.307 34.3885C159.435 34.4742 159.586 34.52 159.74 34.52C159.947 34.52 160.145 34.4378 160.292 34.2915C160.438 34.1452 160.52 33.9468 160.52 33.74V33.74Z" fill="#009688"></path><path d="M160.52 30.61C160.52 30.4557 160.474 30.3049 160.389 30.1766C160.303 30.0483 160.181 29.9484 160.039 29.8893C159.896 29.8303 159.739 29.8148 159.588 29.8449C159.437 29.875 159.298 29.9493 159.189 30.0584C159.08 30.1675 159.005 30.3065 158.975 30.4578C158.945 30.6091 158.961 30.7659 159.02 30.9084C159.079 31.051 159.179 31.1728 159.307 31.2585C159.435 31.3442 159.586 31.39 159.74 31.39C159.947 31.39 160.145 31.3078 160.292 31.1615C160.438 31.0152 160.52 30.8168 160.52 30.61V30.61Z" fill="#009688"></path><path d="M160.52 27.48C160.52 27.3257 160.474 27.1749 160.389 27.0466C160.303 26.9183 160.181 26.8184 160.039 26.7593C159.896 26.7003 159.739 26.6848 159.588 26.7149C159.437 26.745 159.298 26.8193 159.189 26.9284C159.08 27.0375 159.005 27.1765 158.975 27.3278C158.945 27.4791 158.961 27.6359 159.02 27.7784C159.079 27.921 159.179 28.0428 159.307 28.1285C159.435 28.2142 159.586 28.26 159.74 28.26C159.947 28.26 160.145 28.1778 160.292 28.0315C160.438 27.8852 160.52 27.6868 160.52 27.48V27.48Z" fill="#009688"></path><path d="M157.39 30.61C157.392 30.4533 157.348 30.2996 157.262 30.1684C157.176 30.0372 157.054 29.9344 156.91 29.873C156.765 29.8117 156.606 29.7946 156.452 29.824C156.298 29.8533 156.157 29.9278 156.045 30.0378C155.934 30.1479 155.858 30.2886 155.826 30.4422C155.795 30.5957 155.81 30.755 155.869 30.9C155.929 31.0449 156.03 31.1689 156.16 31.2561C156.29 31.3434 156.444 31.39 156.6 31.39C156.704 31.3913 156.806 31.3721 156.902 31.3335C156.998 31.2949 157.085 31.2377 157.158 31.1651C157.232 31.0925 157.29 31.0061 157.33 30.9108C157.37 30.8155 157.39 30.7133 157.39 30.61V30.61Z" fill="#009688"></path><path d="M157.39 27.48C157.392 27.3233 157.348 27.1696 157.262 27.0384C157.176 26.9072 157.054 26.8044 156.91 26.743C156.765 26.6817 156.606 26.6646 156.452 26.694C156.298 26.7233 156.157 26.7978 156.045 26.9078C155.934 27.0179 155.858 27.1586 155.826 27.3122C155.795 27.4657 155.81 27.625 155.869 27.77C155.929 27.9149 156.03 28.0389 156.16 28.1261C156.29 28.2134 156.444 28.26 156.6 28.26C156.704 28.2613 156.806 28.2421 156.902 28.2035C156.998 28.1649 157.085 28.1077 157.158 28.0351C157.232 27.9625 157.29 27.8761 157.33 27.7808C157.37 27.6855 157.39 27.5833 157.39 27.48V27.48Z" fill="#009688"></path><path d="M154.25 27.48C154.25 27.2731 154.168 27.0747 154.022 26.9285C153.875 26.7822 153.677 26.7 153.47 26.7C153.263 26.7 153.065 26.7822 152.919 26.9285C152.772 27.0747 152.69 27.2731 152.69 27.48C152.69 27.6869 152.772 27.8853 152.919 28.0316C153.065 28.1778 153.263 28.26 153.47 28.26C153.677 28.26 153.875 28.1778 154.022 28.0316C154.168 27.8853 154.25 27.6869 154.25 27.48V27.48Z" fill="#009688"></path><path d="M169.93 21.23C169.93 21.0231 169.848 20.8247 169.702 20.6785C169.555 20.5322 169.357 20.45 169.15 20.45C169.048 20.45 168.946 20.4702 168.852 20.5094C168.757 20.5486 168.671 20.606 168.599 20.6785C168.526 20.7509 168.469 20.8369 168.429 20.9315C168.39 21.0262 168.37 21.1276 168.37 21.23C168.37 21.3324 168.39 21.4339 168.429 21.5285C168.469 21.6231 168.526 21.7091 168.599 21.7816C168.671 21.854 168.757 21.9114 168.852 21.9506C168.946 21.9898 169.048 22.01 169.15 22.01C169.357 22.01 169.555 21.9278 169.702 21.7816C169.848 21.6353 169.93 21.4369 169.93 21.23V21.23V21.23Z" fill="#009688"></path><path d="M169.93 18.1C169.93 17.8931 169.848 17.6947 169.702 17.5485C169.556 17.4022 169.357 17.32 169.15 17.32C168.993 17.318 168.839 17.3629 168.708 17.449C168.576 17.535 168.473 17.6583 168.412 17.803C168.351 17.9478 168.335 18.1075 168.365 18.2616C168.395 18.4158 168.471 18.5575 168.582 18.6686C168.693 18.7796 168.834 18.8551 168.989 18.8852C169.143 18.9154 169.302 18.8989 169.447 18.8379C169.592 18.7769 169.715 18.6741 169.801 18.5426C169.887 18.4112 169.932 18.2571 169.93 18.1V18.1Z" fill="#009688"></path><path d="M169.93 15C169.932 14.8967 169.912 14.7942 169.874 14.6984C169.835 14.6026 169.778 14.5154 169.705 14.4419C169.633 14.3684 169.546 14.3101 169.451 14.2703C169.356 14.2304 169.254 14.2099 169.15 14.21C169.04 14.1975 168.928 14.2084 168.822 14.2422C168.716 14.2759 168.618 14.3317 168.535 14.4058C168.452 14.4799 168.386 14.5707 168.34 14.6722C168.295 14.7737 168.271 14.8837 168.271 14.995C168.271 15.1062 168.295 15.2162 168.34 15.3177C168.386 15.4192 168.452 15.51 168.535 15.5841C168.618 15.6582 168.716 15.714 168.822 15.7477C168.928 15.7815 169.04 15.7925 169.15 15.78C169.357 15.78 169.555 15.6978 169.702 15.5515C169.848 15.4052 169.93 15.2068 169.93 15V15Z" fill="#009688"></path><path d="M169.93 11.84C169.93 11.6331 169.848 11.4347 169.702 11.2885C169.555 11.1422 169.357 11.06 169.15 11.06C169.048 11.06 168.946 11.0802 168.852 11.1194C168.757 11.1586 168.671 11.216 168.599 11.2885C168.526 11.3609 168.469 11.4469 168.429 11.5415C168.39 11.6361 168.37 11.7376 168.37 11.84C168.37 11.9424 168.39 12.0439 168.429 12.1385C168.469 12.2331 168.526 12.3191 168.599 12.3915C168.671 12.464 168.757 12.5214 168.852 12.5606C168.946 12.5998 169.048 12.62 169.15 12.62C169.357 12.62 169.555 12.5378 169.702 12.3915C169.848 12.2453 169.93 12.0469 169.93 11.84V11.84Z" fill="#009688"></path><path d="M169.93 8.70999C169.93 8.50313 169.848 8.30473 169.702 8.15845C169.556 8.01217 169.357 7.92999 169.15 7.92999C168.993 7.92802 168.839 7.97292 168.708 8.05896C168.576 8.145 168.473 8.26827 168.412 8.41303C168.351 8.55778 168.335 8.71744 168.365 8.87162C168.395 9.02579 168.471 9.16746 168.582 9.27855C168.693 9.38963 168.834 9.46507 168.989 9.49523C169.143 9.5254 169.302 9.50891 169.447 9.44788C169.592 9.38685 169.715 9.28405 169.801 9.15262C169.887 9.02118 169.932 8.86708 169.93 8.70999V8.70999Z" fill="#009688"></path><path d="M166.8 24.36C166.802 24.2033 166.757 24.0496 166.672 23.9184C166.586 23.7872 166.464 23.6844 166.319 23.623C166.175 23.5617 166.016 23.5446 165.862 23.574C165.708 23.6033 165.567 23.6778 165.455 23.7878C165.344 23.8979 165.267 24.0386 165.236 24.1922C165.205 24.3457 165.22 24.505 165.279 24.65C165.339 24.7949 165.44 24.9189 165.57 25.0061C165.7 25.0934 165.853 25.14 166.01 25.14C166.113 25.1413 166.216 25.1221 166.312 25.0835C166.408 25.0449 166.495 24.9877 166.568 24.9151C166.642 24.8425 166.7 24.7561 166.74 24.6608C166.78 24.5655 166.8 24.4633 166.8 24.36V24.36Z" fill="#009688"></path><path d="M166.8 21.23C166.804 21.0734 166.761 20.9191 166.678 20.7868C166.594 20.6546 166.472 20.5502 166.329 20.4871C166.186 20.4239 166.027 20.4048 165.872 20.4322C165.718 20.4596 165.575 20.5322 165.463 20.6409C165.35 20.7495 165.272 20.8892 165.238 21.0423C165.205 21.1954 165.218 21.3549 165.276 21.5006C165.333 21.6463 165.433 21.7716 165.562 21.8605C165.691 21.9494 165.844 21.9979 166 22C166.103 22.0013 166.206 21.9821 166.302 21.9435C166.398 21.9049 166.485 21.8476 166.558 21.7751C166.632 21.7025 166.69 21.6161 166.73 21.5208C166.77 21.4255 166.79 21.3233 166.79 21.22L166.8 21.23Z" fill="#009688"></path><path d="M166.8 18.1C166.8 17.9438 166.754 17.791 166.667 17.6611C166.58 17.5312 166.457 17.4299 166.313 17.3701C166.168 17.3103 166.009 17.2947 165.856 17.3252C165.703 17.3557 165.562 17.4309 165.452 17.5414C165.341 17.6519 165.266 17.7926 165.235 17.9459C165.205 18.0991 165.221 18.258 165.28 18.4023C165.34 18.5467 165.441 18.6701 165.571 18.7569C165.701 18.8437 165.854 18.89 166.01 18.89C166.114 18.8913 166.218 18.8718 166.314 18.8326C166.411 18.7934 166.498 18.7352 166.572 18.6616C166.645 18.588 166.704 18.5004 166.743 18.4039C166.782 18.3074 166.802 18.2041 166.8 18.1Z" fill="#009688"></path><path d="M166.8 15C166.802 14.8434 166.757 14.6896 166.672 14.5584C166.586 14.4272 166.464 14.3244 166.319 14.2631C166.175 14.2017 166.016 14.1846 165.862 14.214C165.708 14.2433 165.567 14.3178 165.455 14.4279C165.344 14.5379 165.267 14.6787 165.236 14.8322C165.205 14.9857 165.22 15.145 165.279 15.29C165.339 15.4349 165.44 15.5589 165.57 15.6461C165.7 15.7334 165.853 15.78 166.01 15.78C166.218 15.78 166.417 15.6982 166.565 15.5522C166.713 15.4062 166.798 15.2078 166.8 15Z" fill="#009688"></path><path d="M166.8 11.84C166.802 11.6833 166.757 11.5296 166.672 11.3984C166.586 11.2672 166.464 11.1644 166.319 11.103C166.175 11.0417 166.016 11.0246 165.862 11.054C165.708 11.0833 165.567 11.1577 165.455 11.2678C165.344 11.3779 165.267 11.5186 165.236 11.6721C165.205 11.8257 165.22 11.985 165.279 12.1299C165.339 12.2749 165.44 12.3989 165.57 12.4861C165.7 12.5734 165.853 12.62 166.01 12.62C166.113 12.6213 166.216 12.6021 166.312 12.5635C166.408 12.5249 166.495 12.4676 166.568 12.3951C166.642 12.3225 166.7 12.2361 166.74 12.1408C166.78 12.0455 166.8 11.9433 166.8 11.84V11.84Z" fill="#009688"></path><path d="M166.8 8.70998C166.8 8.55374 166.754 8.401 166.667 8.27108C166.58 8.14117 166.457 8.03991 166.313 7.98012C166.168 7.92032 166.009 7.90468 165.856 7.93516C165.703 7.96565 165.562 8.04089 165.452 8.15137C165.341 8.26185 165.266 8.40262 165.235 8.55586C165.205 8.70911 165.221 8.86795 165.28 9.0123C165.34 9.15666 165.441 9.28004 165.571 9.36684C165.701 9.45365 165.854 9.49998 166.01 9.49998C166.114 9.50133 166.218 9.48181 166.314 9.44259C166.411 9.40336 166.498 9.34522 166.572 9.27159C166.645 9.19796 166.704 9.11034 166.743 9.01389C166.782 8.91743 166.802 8.8141 166.8 8.70998Z" fill="#009688"></path><path d="M173.07 24.36C173.072 24.2033 173.028 24.0496 172.942 23.9184C172.856 23.7872 172.734 23.6844 172.589 23.623C172.445 23.5617 172.286 23.5446 172.132 23.574C171.978 23.6033 171.837 23.6778 171.725 23.7878C171.614 23.8979 171.537 24.0386 171.506 24.1922C171.475 24.3457 171.49 24.505 171.549 24.65C171.609 24.7949 171.71 24.9189 171.84 25.0061C171.97 25.0934 172.123 25.14 172.28 25.14C172.383 25.1413 172.486 25.1221 172.582 25.0835C172.678 25.0449 172.765 24.9877 172.838 24.9151C172.912 24.8425 172.97 24.7561 173.01 24.6608C173.05 24.5655 173.07 24.4633 173.07 24.36V24.36Z" fill="#009688"></path><path d="M173.07 21.23C173.072 21.0733 173.028 20.9196 172.942 20.7884C172.856 20.6572 172.734 20.5544 172.589 20.493C172.445 20.4317 172.286 20.4146 172.132 20.444C171.978 20.4733 171.837 20.5478 171.725 20.6578C171.614 20.7679 171.537 20.9086 171.506 21.0622C171.475 21.2157 171.49 21.375 171.549 21.52C171.609 21.6649 171.71 21.7889 171.84 21.8761C171.97 21.9634 172.123 22.01 172.28 22.01C172.385 22.0114 172.489 21.9915 172.586 21.9517C172.684 21.9119 172.772 21.8528 172.845 21.7781C172.919 21.7034 172.977 21.6146 173.016 21.517C173.054 21.4194 173.073 21.3149 173.07 21.21V21.23Z" fill="#009688"></path><path d="M173.07 18.1C173.07 17.9438 173.024 17.791 172.937 17.6611C172.85 17.5312 172.727 17.4299 172.583 17.3701C172.438 17.3103 172.279 17.2947 172.126 17.3252C171.973 17.3557 171.832 17.4309 171.722 17.5414C171.611 17.6519 171.536 17.7926 171.505 17.9459C171.475 18.0991 171.491 18.258 171.55 18.4023C171.61 18.5467 171.711 18.6701 171.841 18.7569C171.971 18.8437 172.124 18.89 172.28 18.89C172.386 18.8914 172.491 18.8713 172.589 18.8309C172.687 18.7904 172.775 18.7305 172.849 18.6547C172.923 18.5789 172.981 18.4889 173.019 18.3901C173.057 18.2913 173.074 18.1858 173.07 18.08V18.1Z" fill="#009688"></path><path d="M173.07 15C173.072 14.8434 173.028 14.6896 172.942 14.5584C172.856 14.4272 172.734 14.3244 172.589 14.2631C172.445 14.2017 172.286 14.1846 172.132 14.214C171.978 14.2433 171.837 14.3178 171.725 14.4279C171.614 14.5379 171.537 14.6787 171.506 14.8322C171.475 14.9857 171.49 15.145 171.549 15.29C171.609 15.4349 171.71 15.5589 171.84 15.6461C171.97 15.7334 172.123 15.78 172.28 15.78C172.488 15.78 172.687 15.6982 172.835 15.5522C172.983 15.4062 173.068 15.2078 173.07 15Z" fill="#009688"></path><path d="M173.07 11.84C173.072 11.6833 173.028 11.5296 172.942 11.3984C172.856 11.2672 172.734 11.1644 172.589 11.103C172.445 11.0417 172.286 11.0246 172.132 11.054C171.978 11.0833 171.837 11.1577 171.725 11.2678C171.614 11.3779 171.537 11.5186 171.506 11.6721C171.475 11.8257 171.49 11.985 171.549 12.1299C171.609 12.2749 171.71 12.3989 171.84 12.4861C171.97 12.5734 172.123 12.62 172.28 12.62C172.384 12.6213 172.488 12.6018 172.584 12.5626C172.681 12.5234 172.768 12.4652 172.842 12.3916C172.915 12.318 172.974 12.2303 173.013 12.1339C173.052 12.0374 173.072 11.9341 173.07 11.83V11.84Z" fill="#009688"></path><path d="M173.07 8.70998C173.07 8.55374 173.024 8.401 172.937 8.27108C172.85 8.14117 172.727 8.03991 172.583 7.98012C172.438 7.92032 172.279 7.90468 172.126 7.93516C171.973 7.96565 171.832 8.04089 171.722 8.15137C171.611 8.26185 171.536 8.40262 171.505 8.55586C171.475 8.70911 171.491 8.86795 171.55 9.0123C171.61 9.15666 171.711 9.28004 171.841 9.36684C171.971 9.45365 172.124 9.49998 172.28 9.49998C172.489 9.49739 172.688 9.41333 172.836 9.26573C172.984 9.11814 173.068 8.9187 173.07 8.70998V8.70998Z" fill="#009688"></path><path d="M168.36 43.13C168.36 42.9204 168.443 42.7195 168.591 42.5714C168.74 42.4232 168.941 42.34 169.15 42.34C169.253 42.34 169.356 42.3605 169.451 42.4003C169.546 42.4401 169.633 42.4985 169.705 42.5719C169.778 42.6454 169.835 42.7326 169.874 42.8284C169.912 42.9242 169.931 43.0267 169.93 43.13C169.93 43.3368 169.848 43.5352 169.702 43.6815C169.555 43.8278 169.357 43.91 169.15 43.91C168.942 43.91 168.743 43.8281 168.595 43.6821C168.447 43.5361 168.363 43.3377 168.36 43.13V43.13Z" fill="black"></path><path d="M168.36 40C168.363 39.7922 168.447 39.5938 168.595 39.4478C168.743 39.3018 168.942 39.22 169.15 39.22C169.357 39.22 169.555 39.3021 169.702 39.4484C169.848 39.5947 169.93 39.7931 169.93 40C169.93 40.2068 169.848 40.4052 169.702 40.5515C169.555 40.6978 169.357 40.78 169.15 40.78C168.942 40.78 168.743 40.6981 168.595 40.5521C168.447 40.4061 168.363 40.2078 168.36 40V40Z" fill="black"></path><path d="M168.36 36.87C168.363 36.6622 168.447 36.4638 168.595 36.3178C168.743 36.1718 168.942 36.0899 169.15 36.09C169.357 36.09 169.555 36.1721 169.702 36.3184C169.848 36.4647 169.93 36.6631 169.93 36.87C169.93 37.0768 169.848 37.2752 169.702 37.4215C169.555 37.5678 169.357 37.65 169.15 37.65C168.942 37.65 168.743 37.5681 168.595 37.4221C168.447 37.2761 168.363 37.0777 168.36 36.87V36.87Z" fill="black"></path><path d="M168.36 33.74C168.363 33.5322 168.447 33.3338 168.595 33.1878C168.743 33.0418 168.942 32.9599 169.15 32.96C169.357 32.96 169.555 33.0421 169.702 33.1884C169.848 33.3347 169.93 33.5331 169.93 33.74C169.93 33.9468 169.848 34.1452 169.702 34.2915C169.555 34.4378 169.357 34.52 169.15 34.52C168.942 34.52 168.743 34.4381 168.595 34.2921C168.447 34.1461 168.363 33.9477 168.36 33.74V33.74Z" fill="black"></path><path d="M168.36 30.61C168.363 30.4022 168.447 30.2038 168.595 30.0578C168.743 29.9118 168.942 29.8299 169.15 29.83C169.357 29.83 169.555 29.9121 169.702 30.0584C169.848 30.2047 169.93 30.4031 169.93 30.61C169.93 30.8168 169.848 31.0152 169.702 31.1615C169.555 31.3078 169.357 31.39 169.15 31.39C168.942 31.39 168.743 31.3081 168.595 31.1621C168.447 31.0161 168.363 30.8177 168.36 30.61V30.61Z" fill="black"></path><path d="M168.36 27.48C168.363 27.2722 168.447 27.0738 168.595 26.9279C168.743 26.7819 168.942 26.7 169.15 26.7C169.357 26.7 169.555 26.7822 169.702 26.9285C169.848 27.0747 169.93 27.2731 169.93 27.48C169.931 27.5833 169.912 27.6858 169.874 27.7816C169.835 27.8774 169.778 27.9645 169.705 28.038C169.633 28.1115 169.546 28.1699 169.451 28.2097C169.356 28.2495 169.253 28.27 169.15 28.27C168.941 28.27 168.74 28.1868 168.591 28.0386C168.443 27.8905 168.36 27.6895 168.36 27.48V27.48Z" fill="black"></path><path d="M168.36 24.36C168.36 24.1505 168.443 23.9495 168.591 23.8014C168.74 23.6532 168.941 23.57 169.15 23.57C169.253 23.57 169.356 23.5905 169.451 23.6303C169.546 23.6701 169.633 23.7285 169.705 23.802C169.778 23.8755 169.835 23.9627 169.874 24.0584C169.912 24.1542 169.931 24.2567 169.93 24.36C169.93 24.5669 169.848 24.7653 169.702 24.9116C169.555 25.0578 169.357 25.14 169.15 25.14C168.942 25.14 168.743 25.0582 168.595 24.9122C168.447 24.7662 168.363 24.5678 168.36 24.36V24.36Z" fill="black"></path><path d="M171.5 40C171.522 39.807 171.614 39.6289 171.759 39.4996C171.904 39.3702 172.091 39.2987 172.285 39.2987C172.479 39.2987 172.667 39.3702 172.812 39.4996C172.956 39.6289 173.048 39.807 173.07 40V40C173.048 40.1929 172.956 40.371 172.812 40.5004C172.667 40.6297 172.479 40.7012 172.285 40.7012C172.091 40.7012 171.904 40.6297 171.759 40.5004C171.614 40.371 171.522 40.1929 171.5 40V40Z" fill="black"></path><path d="M171.5 36.87C171.522 36.677 171.614 36.4989 171.759 36.3695C171.904 36.2402 172.091 36.1687 172.285 36.1687C172.479 36.1687 172.667 36.2402 172.812 36.3695C172.956 36.4989 173.048 36.677 173.07 36.87V36.87C173.048 37.0629 172.956 37.241 172.812 37.3704C172.667 37.4997 172.479 37.5712 172.285 37.5712C172.091 37.5712 171.904 37.4997 171.759 37.3704C171.614 37.241 171.522 37.0629 171.5 36.87V36.87Z" fill="black"></path><path d="M171.5 33.74C171.522 33.547 171.614 33.3689 171.759 33.2395C171.904 33.1102 172.091 33.0387 172.285 33.0387C172.479 33.0387 172.667 33.1102 172.812 33.2395C172.956 33.3689 173.048 33.547 173.07 33.74V33.74C173.048 33.9329 172.956 34.111 172.812 34.2404C172.667 34.3697 172.479 34.4412 172.285 34.4412C172.091 34.4412 171.904 34.3697 171.759 34.2404C171.614 34.111 171.522 33.9329 171.5 33.74V33.74Z" fill="black"></path><path d="M171.5 30.61C171.522 30.4171 171.614 30.2389 171.759 30.1096C171.904 29.9803 172.091 29.9088 172.285 29.9088C172.479 29.9088 172.667 29.9803 172.812 30.1096C172.956 30.2389 173.048 30.4171 173.07 30.61V30.61C173.048 30.8029 172.956 30.9811 172.812 31.1104C172.667 31.2398 172.479 31.3113 172.285 31.3113C172.091 31.3113 171.904 31.2398 171.759 31.1104C171.614 30.9811 171.522 30.8029 171.5 30.61V30.61Z" fill="black"></path><path d="M171.5 27.48C171.522 27.2871 171.614 27.1089 171.759 26.9796C171.904 26.8502 172.091 26.7787 172.285 26.7787C172.479 26.7787 172.667 26.8502 172.811 26.9796C172.956 27.1089 173.048 27.2871 173.07 27.48V27.48C173.083 27.5905 173.072 27.7025 173.038 27.8084C173.004 27.9144 172.948 28.0121 172.874 28.0951C172.8 28.178 172.709 28.2444 172.608 28.2898C172.506 28.3353 172.396 28.3587 172.285 28.3587C172.174 28.3587 172.064 28.3353 171.962 28.2898C171.861 28.2444 171.77 28.178 171.696 28.0951C171.622 28.0121 171.566 27.9144 171.532 27.8084C171.499 27.7025 171.488 27.5905 171.5 27.48V27.48Z" fill="black"></path><path d="M174.64 36.87C174.64 36.6631 174.722 36.4647 174.869 36.3184C175.015 36.1721 175.213 36.09 175.42 36.09C175.627 36.09 175.825 36.1721 175.972 36.3184C176.118 36.4647 176.2 36.6631 176.2 36.87C176.2 37.0768 176.118 37.2752 175.972 37.4215C175.825 37.5678 175.627 37.65 175.42 37.65C175.213 37.65 175.015 37.5678 174.869 37.4215C174.722 37.2752 174.64 37.0768 174.64 36.87Z" fill="black"></path><path d="M174.64 33.74C174.64 33.5331 174.722 33.3347 174.869 33.1884C175.015 33.0421 175.213 32.96 175.42 32.96C175.627 32.96 175.825 33.0421 175.972 33.1884C176.118 33.3347 176.2 33.5331 176.2 33.74C176.2 33.9468 176.118 34.1452 175.972 34.2915C175.825 34.4378 175.627 34.52 175.42 34.52C175.213 34.52 175.015 34.4378 174.869 34.2915C174.722 34.1452 174.64 33.9468 174.64 33.74Z" fill="black"></path><path d="M174.64 30.61C174.64 30.4031 174.722 30.2047 174.869 30.0584C175.015 29.9121 175.213 29.83 175.42 29.83C175.627 29.83 175.825 29.9121 175.972 30.0584C176.118 30.2047 176.2 30.4031 176.2 30.61V30.61C176.2 30.8168 176.118 31.0152 175.972 31.1615C175.825 31.3078 175.627 31.39 175.42 31.39C175.213 31.39 175.015 31.3078 174.869 31.1615C174.722 31.0152 174.64 30.8168 174.64 30.61V30.61Z" fill="black"></path><path d="M174.64 27.48C174.64 27.2731 174.722 27.0747 174.869 26.9285C175.015 26.7822 175.213 26.7 175.42 26.7C175.627 26.7 175.825 26.7822 175.972 26.9285C176.118 27.0747 176.2 27.2731 176.2 27.48C176.2 27.6869 176.118 27.8853 175.972 28.0316C175.825 28.1778 175.627 28.26 175.42 28.26C175.213 28.26 175.015 28.1778 174.869 28.0316C174.722 27.8853 174.64 27.6869 174.64 27.48Z" fill="black"></path><path d="M177.77 33.74C177.792 33.547 177.884 33.3689 178.029 33.2395C178.174 33.1102 178.361 33.0387 178.555 33.0387C178.749 33.0387 178.937 33.1102 179.082 33.2395C179.226 33.3689 179.318 33.547 179.34 33.74V33.74C179.318 33.9329 179.226 34.111 179.082 34.2404C178.937 34.3697 178.749 34.4412 178.555 34.4412C178.361 34.4412 178.174 34.3697 178.029 34.2404C177.884 34.111 177.792 33.9329 177.77 33.74V33.74Z" fill="black"></path><path d="M177.77 30.61C177.792 30.4171 177.884 30.2389 178.029 30.1096C178.174 29.9803 178.361 29.9088 178.555 29.9088C178.749 29.9088 178.937 29.9803 179.082 30.1096C179.226 30.2389 179.318 30.4171 179.34 30.61V30.61C179.318 30.8029 179.226 30.9811 179.082 31.1104C178.937 31.2398 178.749 31.3113 178.555 31.3113C178.361 31.3113 178.174 31.2398 178.029 31.1104C177.884 30.9811 177.792 30.8029 177.77 30.61V30.61Z" fill="black"></path><path d="M177.77 27.48C177.792 27.2871 177.884 27.1089 178.029 26.9796C178.174 26.8502 178.361 26.7787 178.555 26.7787C178.749 26.7787 178.937 26.8502 179.081 26.9796C179.226 27.1089 179.318 27.2871 179.34 27.48V27.48C179.353 27.5905 179.342 27.7025 179.308 27.8084C179.274 27.9144 179.218 28.0121 179.144 28.0951C179.07 28.178 178.979 28.2444 178.878 28.2898C178.776 28.3353 178.666 28.3587 178.555 28.3587C178.444 28.3587 178.334 28.3353 178.232 28.2898C178.131 28.2444 178.04 28.178 177.966 28.0951C177.892 28.0121 177.836 27.9144 177.802 27.8084C177.769 27.7025 177.758 27.5905 177.77 27.48V27.48Z" fill="black"></path><path d="M180.91 30.61C180.91 30.4031 180.992 30.2047 181.139 30.0584C181.285 29.9121 181.483 29.83 181.69 29.83C181.898 29.8299 182.097 29.9118 182.245 30.0578C182.393 30.2038 182.478 30.4022 182.48 30.61V30.61C182.478 30.8177 182.393 31.0161 182.245 31.1621C182.097 31.3081 181.898 31.39 181.69 31.39C181.483 31.39 181.285 31.3078 181.139 31.1615C180.992 31.0152 180.91 30.8168 180.91 30.61Z" fill="black"></path><path d="M180.91 27.48C180.91 27.2731 180.992 27.0747 181.139 26.9285C181.285 26.7822 181.483 26.7 181.69 26.7C181.898 26.7 182.097 26.7819 182.245 26.9279C182.393 27.0738 182.478 27.2722 182.48 27.48V27.48C182.48 27.6895 182.397 27.8905 182.249 28.0386C182.101 28.1868 181.9 28.27 181.69 28.27C181.587 28.27 181.485 28.2495 181.389 28.2097C181.294 28.1699 181.208 28.1115 181.135 28.038C181.063 27.9645 181.005 27.8774 180.967 27.7816C180.928 27.6858 180.909 27.5833 180.91 27.48Z" fill="black"></path><path d="M184 27.48C184.022 27.2871 184.114 27.1089 184.259 26.9796C184.404 26.8502 184.591 26.7787 184.785 26.7787C184.979 26.7787 185.167 26.8502 185.311 26.9796C185.456 27.1089 185.548 27.2871 185.57 27.48V27.48C185.583 27.5905 185.572 27.7025 185.538 27.8084C185.504 27.9144 185.448 28.0121 185.374 28.0951C185.3 28.178 185.209 28.2444 185.108 28.2898C185.006 28.3353 184.896 28.3587 184.785 28.3587C184.674 28.3587 184.564 28.3353 184.462 28.2898C184.361 28.2444 184.27 28.178 184.196 28.0951C184.122 28.0121 184.066 27.9144 184.032 27.8084C183.999 27.7025 183.988 27.5905 184 27.48V27.48Z" fill="black"></path><path d="M165.23 40C165.252 39.807 165.344 39.6289 165.489 39.4996C165.634 39.3702 165.821 39.2987 166.015 39.2987C166.209 39.2987 166.397 39.3702 166.542 39.4996C166.686 39.6289 166.778 39.807 166.8 40C166.778 40.1929 166.686 40.371 166.542 40.5004C166.397 40.6297 166.209 40.7012 166.015 40.7012C165.821 40.7012 165.634 40.6297 165.489 40.5004C165.344 40.371 165.252 40.1929 165.23 40V40Z" fill="black"></path><path d="M165.23 36.87C165.252 36.677 165.344 36.4989 165.489 36.3695C165.634 36.2402 165.821 36.1687 166.015 36.1687C166.209 36.1687 166.397 36.2402 166.542 36.3695C166.686 36.4989 166.778 36.677 166.8 36.87C166.778 37.0629 166.686 37.241 166.542 37.3704C166.397 37.4997 166.209 37.5712 166.015 37.5712C165.821 37.5712 165.634 37.4997 165.489 37.3704C165.344 37.241 165.252 37.0629 165.23 36.87Z" fill="black"></path><path d="M165.23 33.74C165.252 33.547 165.344 33.3689 165.489 33.2395C165.634 33.1102 165.821 33.0387 166.015 33.0387C166.209 33.0387 166.397 33.1102 166.542 33.2395C166.686 33.3689 166.778 33.547 166.8 33.74C166.778 33.9329 166.686 34.111 166.542 34.2404C166.397 34.3697 166.209 34.4412 166.015 34.4412C165.821 34.4412 165.634 34.3697 165.489 34.2404C165.344 34.111 165.252 33.9329 165.23 33.74V33.74Z" fill="black"></path><path d="M165.23 30.61C165.252 30.4171 165.344 30.2389 165.489 30.1096C165.634 29.9803 165.821 29.9088 166.015 29.9088C166.209 29.9088 166.397 29.9803 166.542 30.1096C166.686 30.2389 166.778 30.4171 166.8 30.61V30.61C166.778 30.8029 166.686 30.9811 166.542 31.1104C166.397 31.2398 166.209 31.3113 166.015 31.3113C165.821 31.3113 165.634 31.2398 165.489 31.1104C165.344 30.9811 165.252 30.8029 165.23 30.61V30.61Z" fill="black"></path><path d="M165.23 27.48C165.252 27.2871 165.344 27.1089 165.489 26.9796C165.634 26.8502 165.821 26.7787 166.015 26.7787C166.209 26.7787 166.397 26.8502 166.541 26.9796C166.686 27.1089 166.778 27.2871 166.8 27.48V27.48C166.813 27.5905 166.802 27.7025 166.768 27.8084C166.734 27.9144 166.678 28.0121 166.604 28.0951C166.53 28.178 166.439 28.2444 166.338 28.2898C166.236 28.3353 166.126 28.3587 166.015 28.3587C165.904 28.3587 165.794 28.3353 165.692 28.2898C165.591 28.2444 165.5 28.178 165.426 28.0951C165.352 28.0121 165.296 27.9144 165.262 27.8084C165.229 27.7025 165.218 27.5905 165.23 27.48V27.48Z" fill="black"></path><path d="M162.09 36.87C162.112 36.677 162.204 36.4989 162.349 36.3695C162.494 36.2402 162.681 36.1687 162.875 36.1687C163.069 36.1687 163.257 36.2402 163.401 36.3695C163.546 36.4989 163.638 36.677 163.66 36.87C163.638 37.0629 163.546 37.241 163.401 37.3704C163.257 37.4997 163.069 37.5712 162.875 37.5712C162.681 37.5712 162.494 37.4997 162.349 37.3704C162.204 37.241 162.112 37.0629 162.09 36.87Z" fill="black"></path><path d="M162.09 33.74C162.112 33.547 162.204 33.3689 162.349 33.2395C162.494 33.1102 162.681 33.0387 162.875 33.0387C163.069 33.0387 163.257 33.1102 163.401 33.2395C163.546 33.3689 163.638 33.547 163.66 33.74C163.638 33.9329 163.546 34.111 163.401 34.2404C163.257 34.3697 163.069 34.4412 162.875 34.4412C162.681 34.4412 162.494 34.3697 162.349 34.2404C162.204 34.111 162.112 33.9329 162.09 33.74V33.74Z" fill="black"></path><path d="M162.09 30.61C162.112 30.4171 162.204 30.2389 162.349 30.1096C162.494 29.9803 162.681 29.9088 162.875 29.9088C163.069 29.9088 163.257 29.9803 163.401 30.1096C163.546 30.2389 163.638 30.4171 163.66 30.61V30.61C163.638 30.8029 163.546 30.9811 163.401 31.1104C163.257 31.2398 163.069 31.3113 162.875 31.3113C162.681 31.3113 162.494 31.2398 162.349 31.1104C162.204 30.9811 162.112 30.8029 162.09 30.61V30.61Z" fill="black"></path><path d="M162.09 27.48C162.112 27.2871 162.204 27.1089 162.349 26.9796C162.494 26.8502 162.681 26.7787 162.875 26.7787C163.069 26.7787 163.257 26.8502 163.402 26.9796C163.546 27.1089 163.638 27.2871 163.66 27.48V27.48C163.673 27.5905 163.662 27.7025 163.628 27.8084C163.594 27.9144 163.538 28.0121 163.464 28.0951C163.39 28.178 163.299 28.2444 163.198 28.2898C163.096 28.3353 162.986 28.3587 162.875 28.3587C162.764 28.3587 162.654 28.3353 162.552 28.2898C162.451 28.2444 162.36 28.178 162.286 28.0951C162.212 28.0121 162.156 27.9144 162.122 27.8084C162.089 27.7025 162.078 27.5905 162.09 27.48V27.48Z" fill="black"></path><path d="M159 33.74C159 33.5331 159.082 33.3347 159.229 33.1884C159.375 33.0421 159.573 32.96 159.78 32.96C159.987 32.96 160.186 33.0421 160.332 33.1884C160.478 33.3347 160.56 33.5331 160.56 33.74C160.56 33.9468 160.478 34.1452 160.332 34.2915C160.186 34.4378 159.987 34.52 159.78 34.52C159.573 34.52 159.375 34.4378 159.229 34.2915C159.082 34.1452 159 33.9468 159 33.74Z" fill="black"></path><path d="M159 30.61C159 30.4031 159.082 30.2047 159.229 30.0584C159.375 29.9121 159.573 29.83 159.78 29.83C159.987 29.83 160.186 29.9121 160.332 30.0584C160.478 30.2047 160.56 30.4031 160.56 30.61V30.61C160.56 30.8168 160.478 31.0152 160.332 31.1615C160.186 31.3078 159.987 31.39 159.78 31.39C159.573 31.39 159.375 31.3078 159.229 31.1615C159.082 31.0152 159 30.8168 159 30.61V30.61Z" fill="black"></path><path d="M159 27.48C159 27.2731 159.082 27.0747 159.229 26.9285C159.375 26.7822 159.573 26.7 159.78 26.7C159.987 26.7 160.186 26.7822 160.332 26.9285C160.478 27.0747 160.56 27.2731 160.56 27.48C160.56 27.6869 160.478 27.8853 160.332 28.0316C160.186 28.1778 159.987 28.26 159.78 28.26C159.573 28.26 159.375 28.1778 159.229 28.0316C159.082 27.8853 159 27.6869 159 27.48Z" fill="black"></path><path d="M155.82 30.61C155.842 30.4171 155.934 30.2389 156.079 30.1096C156.224 29.9803 156.411 29.9088 156.605 29.9088C156.799 29.9088 156.987 29.9803 157.132 30.1096C157.276 30.2389 157.368 30.4171 157.39 30.61V30.61C157.368 30.8029 157.276 30.9811 157.132 31.1104C156.987 31.2398 156.799 31.3113 156.605 31.3113C156.411 31.3113 156.224 31.2398 156.079 31.1104C155.934 30.9811 155.842 30.8029 155.82 30.61V30.61Z" fill="black"></path><path d="M155.82 27.48C155.842 27.2871 155.934 27.1089 156.079 26.9796C156.224 26.8502 156.411 26.7787 156.605 26.7787C156.799 26.7787 156.987 26.8502 157.131 26.9796C157.276 27.1089 157.368 27.2871 157.39 27.48V27.48C157.403 27.5905 157.392 27.7025 157.358 27.8084C157.324 27.9144 157.268 28.0121 157.194 28.0951C157.12 28.178 157.029 28.2444 156.928 28.2898C156.826 28.3353 156.716 28.3587 156.605 28.3587C156.494 28.3587 156.384 28.3353 156.282 28.2898C156.181 28.2444 156.09 28.178 156.016 28.0951C155.942 28.0121 155.886 27.9144 155.852 27.8084C155.819 27.7025 155.808 27.5905 155.82 27.48V27.48Z" fill="black"></path><path d="M152.68 27.48C152.683 27.2722 152.767 27.0738 152.915 26.9279C153.063 26.7819 153.262 26.7 153.47 26.7C153.677 26.7 153.875 26.7822 154.022 26.9285C154.168 27.0747 154.25 27.2731 154.25 27.48V27.48C154.252 27.5833 154.232 27.6858 154.194 27.7816C154.155 27.8774 154.098 27.9645 154.025 28.038C153.953 28.1115 153.866 28.1699 153.771 28.2097C153.676 28.2495 153.573 28.27 153.47 28.27C153.261 28.27 153.06 28.1868 152.912 28.0386C152.763 27.8905 152.68 27.6895 152.68 27.48V27.48Z" fill="black"></path><path d="M168.36 21.23C168.363 21.0222 168.447 20.8238 168.595 20.6779C168.743 20.5319 168.942 20.45 169.15 20.45C169.357 20.45 169.555 20.5322 169.702 20.6785C169.848 20.8247 169.93 21.0231 169.93 21.23C169.93 21.4369 169.848 21.6353 169.702 21.7816C169.555 21.9278 169.357 22.01 169.15 22.01C168.942 22.01 168.743 21.9282 168.595 21.7822C168.447 21.6362 168.363 21.4378 168.36 21.23V21.23Z" fill="black"></path><path d="M168.36 18.1C168.363 17.8922 168.447 17.6938 168.595 17.5478C168.743 17.4018 168.942 17.32 169.15 17.32C169.357 17.32 169.555 17.4022 169.702 17.5485C169.848 17.6947 169.93 17.8931 169.93 18.1C169.93 18.3069 169.848 18.5053 169.702 18.6516C169.555 18.7978 169.357 18.88 169.15 18.88C168.942 18.88 168.743 18.7982 168.595 18.6522C168.447 18.5062 168.363 18.3078 168.36 18.1V18.1Z" fill="black"></path><path d="M168.36 15C168.363 14.7922 168.447 14.5938 168.595 14.4478C168.743 14.3018 168.942 14.22 169.15 14.22C169.357 14.22 169.555 14.3021 169.702 14.4484C169.848 14.5947 169.93 14.7931 169.93 15V15C169.93 15.2068 169.848 15.4052 169.702 15.5515C169.555 15.6978 169.357 15.78 169.15 15.78C168.942 15.78 168.743 15.6981 168.595 15.5521C168.447 15.4061 168.363 15.2078 168.36 15V15Z" fill="black"></path><path d="M168.36 11.84C168.363 11.6322 168.447 11.4338 168.595 11.2878C168.743 11.1418 168.942 11.06 169.15 11.06C169.357 11.06 169.555 11.1422 169.702 11.2885C169.848 11.4347 169.93 11.6331 169.93 11.84C169.93 12.0478 169.848 12.2472 169.702 12.3951C169.556 12.543 169.358 12.6274 169.15 12.63C168.941 12.6274 168.742 12.5433 168.594 12.3957C168.447 12.2481 168.363 12.0487 168.36 11.84V11.84Z" fill="black"></path><path d="M168.36 8.70999C168.363 8.50221 168.447 8.30383 168.595 8.15783C168.743 8.01183 168.942 7.92998 169.15 7.92999C169.357 7.92999 169.555 8.01217 169.702 8.15845C169.848 8.30473 169.93 8.50312 169.93 8.70999C169.931 8.81326 169.912 8.91577 169.874 9.01156C169.835 9.10735 169.778 9.19452 169.705 9.26801C169.633 9.3415 169.546 9.39985 169.451 9.43968C169.356 9.4795 169.253 9.5 169.15 9.49999C168.941 9.49999 168.74 9.41676 168.591 9.26861C168.443 9.12045 168.36 8.91951 168.36 8.70999Z" fill="black"></path><path d="M165.23 24.36C165.218 24.2495 165.229 24.1376 165.262 24.0316C165.296 23.9256 165.352 23.8279 165.426 23.745C165.5 23.662 165.591 23.5956 165.692 23.5502C165.794 23.5048 165.904 23.4813 166.015 23.4813C166.126 23.4813 166.236 23.5048 166.338 23.5502C166.439 23.5956 166.53 23.662 166.604 23.745C166.678 23.8279 166.734 23.9256 166.768 24.0316C166.802 24.1376 166.813 24.2495 166.8 24.36V24.36C166.778 24.5529 166.686 24.7311 166.541 24.8604C166.397 24.9898 166.209 25.0613 166.015 25.0613C165.821 25.0613 165.634 24.9898 165.489 24.8604C165.344 24.7311 165.252 24.5529 165.23 24.36Z" fill="black"></path><path d="M165.23 21.23C165.252 21.0371 165.344 20.8589 165.489 20.7296C165.634 20.6002 165.821 20.5287 166.015 20.5287C166.209 20.5287 166.397 20.6002 166.542 20.7296C166.686 20.8589 166.778 21.0371 166.8 21.23V21.23C166.778 21.4229 166.686 21.6011 166.542 21.7304C166.397 21.8598 166.209 21.9313 166.015 21.9313C165.821 21.9313 165.634 21.8598 165.489 21.7304C165.344 21.6011 165.252 21.4229 165.23 21.23Z" fill="black"></path><path d="M165.23 18.1C165.252 17.9071 165.344 17.7289 165.489 17.5996C165.634 17.4702 165.821 17.3987 166.015 17.3987C166.209 17.3987 166.397 17.4702 166.542 17.5996C166.686 17.7289 166.778 17.9071 166.8 18.1V18.1C166.778 18.2929 166.686 18.4711 166.542 18.6004C166.397 18.7298 166.209 18.8013 166.015 18.8013C165.821 18.8013 165.634 18.7298 165.489 18.6004C165.344 18.4711 165.252 18.2929 165.23 18.1V18.1Z" fill="black"></path><path d="M165.23 15C165.252 14.807 165.344 14.6289 165.489 14.4996C165.634 14.3702 165.821 14.2987 166.015 14.2987C166.209 14.2987 166.397 14.3702 166.542 14.4996C166.686 14.6289 166.778 14.807 166.8 15V15C166.778 15.1929 166.686 15.371 166.542 15.5004C166.397 15.6297 166.209 15.7012 166.015 15.7012C165.821 15.7012 165.634 15.6297 165.489 15.5004C165.344 15.371 165.252 15.1929 165.23 15V15Z" fill="black"></path><path d="M165.23 11.84C165.252 11.6471 165.344 11.4689 165.489 11.3396C165.634 11.2102 165.821 11.1387 166.015 11.1387C166.209 11.1387 166.397 11.2102 166.541 11.3396C166.686 11.4689 166.778 11.6471 166.8 11.84V11.84C166.813 11.9505 166.802 12.0624 166.768 12.1684C166.734 12.2744 166.678 12.3721 166.604 12.455C166.53 12.538 166.439 12.6044 166.338 12.6498C166.236 12.6952 166.126 12.7187 166.015 12.7187C165.904 12.7187 165.794 12.6952 165.692 12.6498C165.591 12.6044 165.5 12.538 165.426 12.455C165.352 12.3721 165.296 12.2744 165.262 12.1684C165.229 12.0624 165.218 11.9505 165.23 11.84V11.84Z" fill="black"></path><path d="M165.23 8.70999C165.252 8.51706 165.344 8.33892 165.489 8.20957C165.634 8.08023 165.821 8.00873 166.015 8.00873C166.209 8.00873 166.397 8.08023 166.541 8.20957C166.686 8.33892 166.778 8.51706 166.8 8.70999V8.70999C166.813 8.82051 166.802 8.93244 166.768 9.03842C166.734 9.14441 166.678 9.24208 166.604 9.32503C166.53 9.40799 166.439 9.47436 166.338 9.5198C166.236 9.56524 166.126 9.58873 166.015 9.58873C165.904 9.58873 165.794 9.56524 165.692 9.5198C165.591 9.47436 165.5 9.40799 165.426 9.32503C165.352 9.24208 165.296 9.14441 165.262 9.03842C165.229 8.93244 165.218 8.82051 165.23 8.70999V8.70999Z" fill="black"></path><path d="M171.5 24.36C171.488 24.2495 171.499 24.1376 171.532 24.0316C171.566 23.9256 171.622 23.8279 171.696 23.745C171.77 23.662 171.861 23.5956 171.962 23.5502C172.064 23.5048 172.174 23.4813 172.285 23.4813C172.396 23.4813 172.506 23.5048 172.608 23.5502C172.709 23.5956 172.8 23.662 172.874 23.745C172.948 23.8279 173.004 23.9256 173.038 24.0316C173.072 24.1376 173.083 24.2495 173.07 24.36C173.048 24.5529 172.956 24.7311 172.811 24.8604C172.667 24.9898 172.479 25.0613 172.285 25.0613C172.091 25.0613 171.904 24.9898 171.759 24.8604C171.614 24.7311 171.522 24.5529 171.5 24.36V24.36Z" fill="black"></path><path d="M171.5 21.23C171.522 21.0371 171.614 20.8589 171.759 20.7296C171.904 20.6002 172.091 20.5287 172.285 20.5287C172.479 20.5287 172.667 20.6002 172.812 20.7296C172.956 20.8589 173.048 21.0371 173.07 21.23V21.23C173.048 21.4229 172.956 21.6011 172.812 21.7304C172.667 21.8598 172.479 21.9313 172.285 21.9313C172.091 21.9313 171.904 21.8598 171.759 21.7304C171.614 21.6011 171.522 21.4229 171.5 21.23V21.23Z" fill="black"></path><path d="M171.5 18.1C171.522 17.9071 171.614 17.7289 171.759 17.5996C171.904 17.4702 172.091 17.3987 172.285 17.3987C172.479 17.3987 172.667 17.4702 172.812 17.5996C172.956 17.7289 173.048 17.9071 173.07 18.1V18.1C173.048 18.2929 172.956 18.4711 172.812 18.6004C172.667 18.7298 172.479 18.8013 172.285 18.8013C172.091 18.8013 171.904 18.7298 171.759 18.6004C171.614 18.4711 171.522 18.2929 171.5 18.1V18.1Z" fill="black"></path><path d="M171.5 15C171.522 14.807 171.614 14.6289 171.759 14.4996C171.904 14.3702 172.091 14.2987 172.285 14.2987C172.479 14.2987 172.667 14.3702 172.812 14.4996C172.956 14.6289 173.048 14.807 173.07 15V15C173.048 15.1929 172.956 15.371 172.812 15.5004C172.667 15.6297 172.479 15.7012 172.285 15.7012C172.091 15.7012 171.904 15.6297 171.759 15.5004C171.614 15.371 171.522 15.1929 171.5 15V15Z" fill="black"></path><path d="M171.5 11.84C171.522 11.6471 171.614 11.4689 171.759 11.3396C171.904 11.2102 172.091 11.1387 172.285 11.1387C172.479 11.1387 172.667 11.2102 172.811 11.3396C172.956 11.4689 173.048 11.6471 173.07 11.84V11.84C173.083 11.9505 173.072 12.0624 173.038 12.1684C173.004 12.2744 172.948 12.3721 172.874 12.455C172.8 12.538 172.709 12.6044 172.608 12.6498C172.506 12.6952 172.396 12.7187 172.285 12.7187C172.174 12.7187 172.064 12.6952 171.962 12.6498C171.861 12.6044 171.77 12.538 171.696 12.455C171.622 12.3721 171.566 12.2744 171.532 12.1684C171.499 12.0624 171.488 11.9505 171.5 11.84V11.84Z" fill="black"></path><path d="M171.5 8.70999C171.522 8.51706 171.614 8.33892 171.759 8.20957C171.904 8.08023 172.091 8.00873 172.285 8.00873C172.479 8.00873 172.667 8.08023 172.811 8.20957C172.956 8.33892 173.048 8.51706 173.07 8.70999V8.70999C173.083 8.82051 173.072 8.93244 173.038 9.03842C173.004 9.14441 172.948 9.24208 172.874 9.32503C172.8 9.40799 172.709 9.47436 172.608 9.5198C172.506 9.56524 172.396 9.58873 172.285 9.58873C172.174 9.58873 172.064 9.56524 171.962 9.5198C171.861 9.47436 171.77 9.40799 171.696 9.32503C171.622 9.24208 171.566 9.14441 171.532 9.03842C171.499 8.93244 171.488 8.82051 171.5 8.70999V8.70999Z" fill="black"></path><path d="M280.5 133.48H54.44C46.3586 133.499 38.6148 136.723 32.9079 142.444C27.201 148.166 23.9973 155.919 24 164L24.34 372.45L311.34 370.45L311 163.93C310.984 155.85 307.764 148.107 302.046 142.398C296.328 136.69 288.58 133.483 280.5 133.48V133.48Z" stroke="#060606"></path><path d="M278.37 143.21H245.06C242.17 143.21 240.3 145.35 239.62 149.21C237.33 162.92 229.85 163.87 227.62 163.87H107.25C105.04 163.87 97.4799 162.87 95.2499 149.21C94.6499 145.35 92.7799 143.21 89.8099 143.21H56.5199C44.4599 143.21 33.6699 156.07 33.6699 168.32C33.6699 172.073 33.7233 239.96 33.8299 371.98L301.38 370.3C301.267 237.753 301.213 170.42 301.22 168.3C301.31 156.07 290.43 143.21 278.37 143.21Z" fill="#151515" stroke="#0F0F0F"></path><path d="M321.77 247.8H5.68012C3.99013 247.8 2.62012 249.17 2.62012 250.86V305.92C2.62012 307.61 3.99013 308.98 5.68012 308.98H321.77C323.46 308.98 324.83 307.61 324.83 305.92V250.86C324.83 249.17 323.46 247.8 321.77 247.8Z" fill="white" stroke="#0B0B0B"></path><path d="M29.0901 276.93V284.51H26.6401V276.93H22.1201V274.73H33.7301V276.93H29.0901Z" fill="#191919"></path><path d="M40.0001 274.53C43.8501 274.53 46.5801 276.27 46.5801 279.53C46.5801 282.79 43.6501 284.67 39.9801 284.67C36.3101 284.67 33.3701 282.94 33.3701 279.54C33.4101 276.38 36.1001 274.53 40.0001 274.53ZM40.0001 282.65C42.4101 282.65 44.1001 281.65 44.1001 279.52C44.1001 277.52 42.4101 276.59 40.0101 276.59C37.6101 276.59 35.9301 277.59 35.9301 279.59C35.9301 281.59 37.6101 282.65 40.0001 282.65Z" fill="#191919"></path><path d="M53.26 276.93V284.51H50.82V276.93H46.29V274.73H57.91V276.93H53.26Z" fill="#191919"></path><path d="M65.4101 282.53H59.3101L58.4001 284.53H55.8L60.5801 274.75H64.32L69 284.51H66.3301L65.4101 282.53ZM60.23 280.53H64.5101L62.76 276.71H62L60.23 280.53Z" fill="#191919"></path><path d="M69.6902 274.73H72.1302V282.19H79.7002V284.51H69.7002L69.6902 274.73Z" fill="#191919"></path><path d="M80.5601 277.34H83.1201V279.78H80.5601V277.34ZM80.5601 282.08H83.1201V284.51H80.5601V282.08Z" fill="#191919"></path><path d="M90.4502 284.69C89.4756 284.678 88.5133 284.47 87.6202 284.08L87.7202 281.85C88.5748 282.268 89.5014 282.519 90.4502 282.59V280.59C89.0302 280.19 87.4502 279.59 87.4502 277.67C87.4495 276.862 87.7614 276.085 88.3205 275.501C88.8797 274.918 89.6428 274.574 90.4502 274.54V273.54H92.0002V274.54C92.9292 274.612 93.8374 274.852 94.6802 275.25L94.2102 277.33C93.5194 276.973 92.7715 276.739 92.0002 276.64V278.64C93.4102 279.03 95.0002 279.57 95.0002 281.38C94.9834 282.19 94.6677 282.964 94.1138 283.555C93.5599 284.146 92.8071 284.511 92.0002 284.58V285.69H90.4502V284.69ZM90.4502 278.18V276.72C90.0702 276.86 89.8502 277.09 89.8502 277.43C89.8502 277.77 90.0802 278 90.4502 278.18ZM92.0402 281.18V282.51C92.1928 282.469 92.3279 282.379 92.4252 282.255C92.5226 282.131 92.577 281.978 92.5802 281.82C92.5802 281.49 92.3702 281.29 92.0002 281.14L92.0402 281.18Z" fill="#191919"></path><path d="M96.0001 284.51V282.37C98.0001 280.85 100.16 279.03 100.16 277.71C100.16 277.05 99.5801 276.6 98.6001 276.6C97.7177 276.63 96.8504 276.837 96.0501 277.21L95.6301 275.38C96.6003 274.821 97.7006 274.528 98.8201 274.53C101.04 274.53 102.66 275.36 102.66 277.24C102.66 279.12 100.66 280.89 98.7401 282.33H102.88V284.47L96.0001 284.51Z" fill="#191919"></path><path d="M107.73 274.53C110.55 274.53 111.73 276.67 111.73 279.62C111.73 282.57 110.52 284.71 107.73 284.71C104.94 284.71 103.73 282.57 103.73 279.62C103.73 276.67 104.9 274.53 107.73 274.53ZM107.73 282.58C109.01 282.58 109.3 281.06 109.3 279.52C109.3 278.3 109.13 276.66 107.75 276.66C106.37 276.66 106.13 278.18 106.13 279.61C106.13 281.04 106.43 282.58 107.74 282.58H107.73Z" fill="#191919"></path><path d="M112.8 282.08H115.36V284.51H112.8V282.08Z" fill="#191919"></path><path d="M116.61 284.51V282.37C118.61 280.85 120.77 279.03 120.77 277.71C120.77 277.05 120.19 276.6 119.21 276.6C118.328 276.631 117.461 276.838 116.66 277.21L116.24 275.38C117.21 274.821 118.311 274.528 119.43 274.53C121.65 274.53 123.28 275.36 123.28 277.24C123.28 279.12 121.28 280.89 119.35 282.33H123.5V284.47L116.61 284.51Z" fill="#191919"></path><path d="M124.53 280.33L125 274.73H131.08L130.9 276.87H127.06L126.89 278.52C129.45 278.64 131.28 279.4 131.28 281.44C131.28 283.21 129.87 284.69 127.16 284.69C126.161 284.696 125.173 284.478 124.27 284.05L124.39 282.05C125.223 282.477 126.144 282.703 127.08 282.71C128.43 282.71 128.81 282.23 128.81 281.71C128.81 280.81 127.29 280.49 124.53 280.33Z" fill="#191919"></path><path d="M313.61 254.94H210.63C208.94 254.94 207.57 256.31 207.57 258V298.78C207.57 300.47 208.94 301.84 210.63 301.84H313.61C315.3 301.84 316.67 300.47 316.67 298.78V258C316.67 256.31 315.3 254.94 313.61 254.94Z" fill="#3DE892" stroke="#0B0B0B"></path><path d="M240.31 280.86C240.41 281.094 240.461 281.346 240.46 281.6C240.364 282.244 240.137 282.86 239.793 283.413C239.449 283.965 238.995 284.44 238.46 284.81C237.612 285.41 236.599 285.732 235.56 285.73C234.864 285.75 234.174 285.588 233.56 285.26C232.926 284.851 232.409 284.286 232.059 283.618C231.708 282.951 231.536 282.204 231.56 281.45C231.47 276.91 235.48 272.85 238.02 271.71C238.582 271.477 239.182 271.348 239.79 271.33C240.317 271.31 240.834 271.476 241.25 271.8C241.628 272.09 241.943 272.455 242.175 272.871C242.407 273.287 242.552 273.746 242.6 274.22C242.599 274.673 242.489 275.118 242.28 275.52C241.954 276.168 241.67 276.836 241.43 277.52C241.417 277.615 241.378 277.705 241.318 277.781C241.258 277.856 241.18 277.914 241.09 277.949C241 277.983 240.903 277.993 240.808 277.978C240.713 277.962 240.624 277.921 240.55 277.86C240.312 277.703 240.118 277.489 239.985 277.238C239.852 276.986 239.785 276.705 239.79 276.42C239.794 276.138 239.841 275.858 239.93 275.59C240.037 275.25 240.164 274.916 240.31 274.59C240.62 273.81 240.89 273.09 240.62 272.8C240.08 272.21 236.9 274.17 235.04 277.17C234.15 278.609 233.66 280.259 233.62 281.95C233.62 283.88 234.47 284.73 235.28 284.73C236.52 284.73 238.11 283.3 239.41 280.81C239.449 280.72 239.515 280.644 239.598 280.592C239.682 280.54 239.779 280.515 239.877 280.521C239.976 280.526 240.07 280.562 240.147 280.622C240.224 280.683 240.281 280.766 240.31 280.86V280.86Z" fill="#191919"></path><path d="M251.05 272.11C251.711 272.439 252.257 272.962 252.614 273.608C252.971 274.255 253.123 274.995 253.05 275.73C252.986 277.539 252.496 279.307 251.62 280.89C250.09 283.67 247.83 285.98 245.25 285.98C244.734 285.981 244.223 285.89 243.74 285.71C242.893 285.386 242.174 284.795 241.693 284.026C241.211 283.258 240.993 282.354 241.07 281.45C241.07 276.71 245.29 272.56 247.85 271.66C248.284 271.512 248.741 271.437 249.2 271.44C249.538 271.418 249.876 271.467 250.195 271.582C250.513 271.697 250.804 271.877 251.05 272.11V272.11ZM249.62 280.11C250.536 278.506 251.057 276.706 251.14 274.86C251.14 273.79 250.92 273.07 250.45 272.86C249.45 272.5 246.81 273.98 244.77 277.1C243.759 278.636 243.192 280.422 243.13 282.26C243.13 283.83 243.69 284.7 244.55 284.7C245.94 284.74 248 283 249.62 280.12V280.11Z" fill="#191919"></path><path d="M256.17 282.05C256.17 280.75 256.26 278.89 256.46 276.98C254.823 279.717 253.428 282.591 252.29 285.57C252.13 286.02 251.79 286.05 251.48 285.71C251.202 285.349 251.05 284.906 251.05 284.45C251.074 283.991 251.172 283.538 251.34 283.11C252.998 279.261 254.909 275.526 257.06 271.93C257.36 271.44 257.62 271.44 257.96 271.71C258.269 271.889 258.526 272.147 258.701 272.458C258.877 272.77 258.967 273.123 258.96 273.48C258.949 273.842 258.912 274.203 258.85 274.56C258.505 276.79 258.278 279.036 258.17 281.29C259.729 278.049 261.462 274.895 263.36 271.84C263.69 271.37 263.96 271.48 264.21 271.91C264.343 272.184 264.411 272.485 264.41 272.79C264.375 273.666 264.086 274.514 263.58 275.23C262.32 277.3 259.58 282.57 258.2 285.6C258.17 285.671 258.124 285.734 258.066 285.785C258.008 285.835 257.939 285.871 257.864 285.891C257.79 285.91 257.712 285.912 257.636 285.896C257.561 285.88 257.49 285.848 257.43 285.8C257.05 285.599 256.736 285.294 256.525 284.92C256.314 284.546 256.215 284.119 256.24 283.69C256.19 283 256.17 282.59 256.17 282.05Z" fill="#191919"></path><path d="M260.67 283.17C262.039 279.928 263.678 276.807 265.57 273.84C265.354 273.723 265.165 273.56 265.016 273.363C264.868 273.167 264.764 272.941 264.71 272.7C264.65 272.4 264.78 272.27 265.21 272.27C266.331 272.266 267.448 272.163 268.55 271.96C269.229 271.828 269.918 271.751 270.61 271.73C271.028 271.696 271.446 271.795 271.805 272.012C272.164 272.23 272.446 272.554 272.61 272.94C272.72 273.19 272.61 273.44 272.14 273.44C270.658 273.502 269.185 273.703 267.74 274.04C267 275.28 266.13 276.82 265.07 278.75C265.5 278.69 265.81 278.66 266.15 278.64C267.43 278.55 268.04 279.02 268.24 279.74C268.33 280.06 268.24 280.26 267.79 280.3C266.49 280.406 265.2 280.61 263.93 280.91C263.1 282.52 262.45 283.91 261.66 285.6C261.53 285.89 261.22 285.96 260.9 285.75C260.725 285.603 260.588 285.417 260.499 285.207C260.411 284.996 260.373 284.768 260.39 284.54C260.422 284.073 260.516 283.612 260.67 283.17V283.17Z" fill="#191919"></path><path d="M274.22 271.75C274.58 271.24 274.92 271.31 275.17 271.75C275.303 272.028 275.371 272.332 275.37 272.64C275.292 273.564 275.001 274.457 274.52 275.25C273.15 277.67 270.66 282.04 269.11 285.5C268.93 285.93 268.71 285.99 268.35 285.59C268.207 285.428 268.097 285.24 268.026 285.036C267.956 284.832 267.927 284.616 267.94 284.4C267.964 283.926 268.055 283.458 268.21 283.01C269.871 279.084 271.883 275.315 274.22 271.75Z" fill="#191919"></path><path d="M278.35 285.75C276.96 283.91 275.88 282.48 274.99 281.47C274.43 282.57 273.84 283.85 273.17 285.47C273.01 285.89 272.77 285.94 272.43 285.6C272.283 285.44 272.169 285.252 272.096 285.048C272.022 284.844 271.989 284.627 272 284.41C272.006 284.031 272.06 283.655 272.16 283.29C273.308 280.09 274.821 277.033 276.67 274.18C276.39 274.152 276.121 274.053 275.89 273.892C275.659 273.731 275.473 273.513 275.35 273.26C275.17 272.95 275.28 272.77 275.75 272.7C276.621 272.56 277.478 272.343 278.31 272.05C279.105 271.769 279.931 271.587 280.77 271.51C281.385 271.457 281.999 271.611 282.516 271.948C283.032 272.286 283.421 272.786 283.62 273.37C283.874 274.026 283.944 274.738 283.822 275.431C283.701 276.124 283.392 276.77 282.93 277.3C281.389 279.079 279.323 280.322 277.03 280.85C277.793 281.736 278.463 282.698 279.03 283.72C279.223 284.077 279.329 284.474 279.34 284.88C279.334 285.153 279.255 285.419 279.11 285.65C278.87 286.07 278.62 286.11 278.35 285.75ZM278.55 274.09C278.452 274.966 278.161 275.809 277.7 276.56C277.1 277.68 276.53 278.62 276.13 279.32C280.62 278.17 282.82 275.21 282.23 273.73C282.185 273.581 282.089 273.453 281.959 273.368C281.83 273.282 281.675 273.244 281.52 273.26C280.802 273.345 280.099 273.527 279.43 273.8L278.55 274.09Z" fill="#191919"></path><path d="M284.52 283C284.937 280.974 285.461 278.971 286.09 277C284.208 279.774 282.536 282.686 281.09 285.71C280.96 286.02 280.62 286.09 280.33 285.8C280.192 285.649 280.086 285.472 280.017 285.28C279.949 285.088 279.919 284.884 279.93 284.68C279.944 284.191 280.049 283.71 280.24 283.26C282.175 279.31 284.45 275.536 287.04 271.98C287.088 271.889 287.157 271.81 287.241 271.75C287.325 271.69 287.422 271.651 287.525 271.635C287.627 271.619 287.731 271.628 287.829 271.66C287.927 271.692 288.017 271.747 288.09 271.82C288.373 272.032 288.603 272.307 288.763 272.622C288.922 272.938 289.007 273.286 289.01 273.64C288.982 274.188 288.877 274.73 288.7 275.25C288 277.25 287.55 278.64 286.75 281.65C289.1 278.08 291.5 275.88 293.99 271.93C294.28 271.46 294.58 271.44 294.99 271.84C295.4 272.252 295.634 272.808 295.64 273.39C295.601 274.035 295.42 274.663 295.11 275.23C293.257 278.612 291.631 282.113 290.24 285.71C290.08 286.16 289.88 286.16 289.52 285.84C289.343 285.679 289.205 285.481 289.115 285.259C289.025 285.038 288.985 284.799 289 284.56C289.005 284.131 289.066 283.704 289.18 283.29C289.866 281.35 290.692 279.461 291.65 277.64C289.637 280.172 287.809 282.845 286.18 285.64C285.93 286.09 285.73 286.09 285.39 285.84C285.073 285.613 284.817 285.312 284.643 284.964C284.469 284.615 284.382 284.229 284.39 283.84C284.413 283.557 284.456 283.276 284.52 283V283Z" fill="#191919"></path><path d="M328.48 247.36L344.17 238.61" stroke="black" stroke-linecap="square"></path><path d="M323.33 243.34L327.83 234.98" stroke="black" stroke-linecap="square"></path><path d="M328.44 256.48L338.52 254.73" stroke="black" stroke-linecap="square"></path></svg> 