<?xml version="1.0" encoding="UTF-8"?> <svg xmlns="http://www.w3.org/2000/svg" width="347" height="394" viewBox="0 0 347 394" fill="none"><path d="M170.79 44.74C170.788 44.5322 170.703 44.3338 170.555 44.1878C170.407 44.0418 170.208 43.9599 170 43.96C169.793 43.96 169.595 44.0421 169.449 44.1884C169.302 44.3347 169.22 44.5331 169.22 44.74C169.22 44.9468 169.302 45.1452 169.449 45.2915C169.595 45.4378 169.793 45.52 170 45.52C170.208 45.52 170.407 45.4381 170.555 45.2921C170.703 45.1461 170.788 44.9477 170.79 44.74Z" fill="#009688"></path><path d="M170.79 41.61C170.787 41.4022 170.703 41.2038 170.555 41.0578C170.407 40.9118 170.208 40.8299 170 40.83C169.807 40.8518 169.629 40.9439 169.5 41.0886C169.37 41.2334 169.299 41.4208 169.299 41.615C169.299 41.8091 169.37 41.9965 169.5 42.1413C169.629 42.2861 169.807 42.3781 170 42.4C170.21 42.4 170.411 42.3167 170.559 42.1686C170.707 42.0204 170.79 41.8195 170.79 41.61V41.61Z" fill="#009688"></path><path d="M170.79 38.4799C170.79 38.2704 170.707 38.0695 170.559 37.9213C170.41 37.7732 170.209 37.6899 170 37.6899C169.844 37.6899 169.691 37.7363 169.561 37.8231C169.431 37.9099 169.33 38.0333 169.27 38.1776C169.21 38.322 169.195 38.4808 169.225 38.6341C169.256 38.7873 169.331 38.9281 169.441 39.0386C169.552 39.149 169.693 39.2243 169.846 39.2548C169.999 39.2852 170.158 39.2696 170.302 39.2098C170.447 39.15 170.57 39.0488 170.657 38.9188C170.744 38.7889 170.79 38.6362 170.79 38.4799V38.4799Z" fill="#009688"></path><path d="M170.79 35.3499C170.788 35.1422 170.703 34.9438 170.555 34.7978C170.407 34.6518 170.208 34.5699 170 34.5699C169.793 34.5699 169.595 34.6521 169.449 34.7984C169.302 34.9447 169.22 35.1431 169.22 35.3499C169.22 35.5568 169.302 35.7552 169.449 35.9015C169.595 36.0478 169.793 36.1299 170 36.1299C170.208 36.13 170.407 36.0481 170.555 35.9021C170.703 35.7561 170.788 35.5577 170.79 35.3499Z" fill="#009688"></path><path d="M170.79 32.2199C170.788 32.0122 170.703 31.8138 170.555 31.6678C170.407 31.5218 170.208 31.4399 170 31.4399C169.793 31.4399 169.595 31.5221 169.449 31.6684C169.302 31.8147 169.22 32.0131 169.22 32.2199C169.22 32.4268 169.302 32.6252 169.449 32.7715C169.595 32.9178 169.793 32.9999 170 32.9999C170.208 33 170.407 32.9181 170.555 32.7721C170.703 32.6261 170.788 32.4277 170.79 32.2199Z" fill="#009688"></path><path d="M170.79 29.0999C170.788 28.8922 170.703 28.6938 170.555 28.5478C170.407 28.4018 170.208 28.3199 170 28.3199C169.793 28.3199 169.595 28.4021 169.449 28.5484C169.302 28.6947 169.22 28.8931 169.22 29.0999C169.22 29.3068 169.302 29.5052 169.449 29.6515C169.595 29.7978 169.793 29.8799 170 29.8799C170.208 29.88 170.407 29.7981 170.555 29.6521C170.703 29.5061 170.788 29.3077 170.79 29.0999V29.0999Z" fill="#009688"></path><path d="M170.79 26C170.788 25.7922 170.703 25.5938 170.555 25.4478C170.407 25.3018 170.208 25.22 170 25.22C169.793 25.22 169.595 25.3021 169.449 25.4484C169.302 25.5947 169.22 25.7931 169.22 26C169.22 26.2068 169.302 26.4052 169.449 26.5515C169.595 26.6978 169.793 26.78 170 26.78C170.208 26.78 170.407 26.6981 170.555 26.5521C170.703 26.4061 170.788 26.2078 170.79 26V26V26Z" fill="#009688"></path><path d="M173.92 41.6099C173.92 41.4533 173.874 41.3001 173.786 41.17C173.699 41.0399 173.575 40.9387 173.43 40.8792C173.285 40.8197 173.126 40.8046 172.973 40.8359C172.819 40.8672 172.678 40.9435 172.568 41.055C172.458 41.1665 172.384 41.3081 172.354 41.462C172.325 41.6159 172.342 41.7751 172.403 41.9193C172.465 42.0634 172.568 42.1861 172.699 42.2717C172.83 42.3573 172.984 42.4019 173.14 42.3999C173.244 42.4 173.346 42.3795 173.441 42.3396C173.536 42.2998 173.623 42.2415 173.695 42.168C173.768 42.0945 173.825 42.0073 173.864 41.9115C173.902 41.8157 173.922 41.7132 173.92 41.6099V41.6099Z" fill="#009688"></path><path d="M173.92 38.48C173.922 38.3229 173.877 38.1688 173.791 38.0374C173.705 37.9059 173.582 37.8031 173.437 37.7421C173.292 37.6811 173.133 37.6646 172.979 37.6948C172.824 37.7249 172.683 37.8004 172.572 37.9114C172.461 38.0225 172.385 38.1642 172.355 38.3184C172.325 38.4725 172.341 38.6322 172.402 38.777C172.463 38.9217 172.566 39.045 172.698 39.131C172.829 39.2171 172.983 39.262 173.14 39.26C173.243 39.26 173.344 39.2398 173.439 39.2006C173.533 39.1614 173.619 39.104 173.692 39.0315C173.764 38.9591 173.822 38.8731 173.861 38.7785C173.9 38.6839 173.92 38.5824 173.92 38.48Z" fill="#009688"></path><path d="M173.92 35.35C173.922 35.1929 173.877 35.0388 173.791 34.9074C173.705 34.7759 173.582 34.6731 173.437 34.6121C173.292 34.5511 173.133 34.5346 172.979 34.5647C172.824 34.5949 172.683 34.6704 172.572 34.7814C172.461 34.8925 172.385 35.0342 172.355 35.1884C172.325 35.3425 172.341 35.5022 172.402 35.647C172.463 35.7917 172.566 35.915 172.698 36.001C172.829 36.0871 172.983 36.132 173.14 36.13C173.347 36.13 173.546 36.0478 173.692 35.9015C173.838 35.7553 173.92 35.5569 173.92 35.35V35.35Z" fill="#009688"></path><path d="M173.92 32.22C173.922 32.0629 173.877 31.9088 173.791 31.7774C173.705 31.6459 173.582 31.5431 173.437 31.4821C173.292 31.4211 173.133 31.4046 172.979 31.4347C172.824 31.4649 172.683 31.5403 172.572 31.6514C172.461 31.7625 172.385 31.9042 172.355 32.0584C172.325 32.2125 172.341 32.3722 172.402 32.517C172.463 32.6617 172.566 32.785 172.698 32.871C172.829 32.9571 172.983 33.002 173.14 33C173.243 33 173.344 32.9798 173.439 32.9406C173.533 32.9014 173.619 32.844 173.692 32.7715C173.764 32.6991 173.822 32.6131 173.861 32.5185C173.9 32.4238 173.92 32.3224 173.92 32.22Z" fill="#009688"></path><path d="M173.92 29.1C173.922 28.9429 173.877 28.7888 173.791 28.6574C173.705 28.5259 173.582 28.4231 173.437 28.3621C173.292 28.3011 173.133 28.2846 172.979 28.3147C172.824 28.3449 172.683 28.4204 172.572 28.5314C172.461 28.6425 172.385 28.7842 172.355 28.9384C172.325 29.0925 172.341 29.2522 172.402 29.397C172.463 29.5417 172.566 29.665 172.698 29.751C172.829 29.8371 172.983 29.882 173.14 29.88C173.347 29.88 173.546 29.7978 173.692 29.6515C173.838 29.5053 173.92 29.3069 173.92 29.1V29.1Z" fill="#009688"></path><path d="M177.06 38.48C177.062 38.3233 177.018 38.1696 176.932 38.0384C176.847 37.9072 176.724 37.8044 176.58 37.743C176.436 37.6817 176.276 37.6646 176.123 37.694C175.969 37.7233 175.827 37.7978 175.715 37.9078C175.604 38.0179 175.528 38.1586 175.496 38.3122C175.465 38.4657 175.48 38.625 175.54 38.77C175.599 38.9149 175.7 39.0389 175.83 39.1261C175.961 39.2134 176.114 39.26 176.27 39.26C176.478 39.26 176.678 39.1782 176.826 39.0322C176.973 38.8862 177.058 38.6878 177.06 38.48V38.48Z" fill="#009688"></path><path d="M177.06 35.35C177.062 35.1933 177.018 35.0396 176.932 34.9084C176.847 34.7772 176.724 34.6744 176.58 34.613C176.436 34.5517 176.276 34.5346 176.123 34.564C175.969 34.5933 175.827 34.6678 175.715 34.7778C175.604 34.8879 175.528 35.0286 175.496 35.1822C175.465 35.3357 175.48 35.495 175.54 35.64C175.599 35.7849 175.7 35.9089 175.83 35.9961C175.961 36.0834 176.114 36.13 176.27 36.13C176.374 36.1313 176.476 36.1121 176.572 36.0735C176.668 36.0349 176.755 35.9777 176.828 35.9051C176.902 35.8325 176.96 35.7461 177 35.6508C177.04 35.5555 177.06 35.4533 177.06 35.35V35.35Z" fill="#009688"></path><path d="M177.06 32.22C177.062 32.0633 177.018 31.9096 176.932 31.7784C176.847 31.6472 176.724 31.5444 176.58 31.483C176.436 31.4217 176.276 31.4046 176.123 31.434C175.969 31.4633 175.827 31.5377 175.715 31.6478C175.604 31.7579 175.528 31.8986 175.496 32.0521C175.465 32.2057 175.48 32.365 175.54 32.5099C175.599 32.6549 175.7 32.7789 175.83 32.8661C175.961 32.9534 176.114 33 176.27 33C176.374 33.0013 176.476 32.9821 176.572 32.9435C176.668 32.9049 176.755 32.8477 176.828 32.7751C176.902 32.7025 176.96 32.6161 177 32.5208C177.04 32.4255 177.06 32.3233 177.06 32.22V32.22Z" fill="#009688"></path><path d="M177.06 29.1C177.062 28.9433 177.018 28.7896 176.932 28.6584C176.847 28.5272 176.724 28.4244 176.58 28.363C176.436 28.3017 176.276 28.2846 176.123 28.314C175.969 28.3433 175.827 28.4178 175.715 28.5278C175.604 28.6379 175.528 28.7786 175.496 28.9322C175.465 29.0857 175.48 29.245 175.54 29.39C175.599 29.5349 175.7 29.6589 175.83 29.7461C175.961 29.8334 176.114 29.88 176.27 29.88C176.374 29.8813 176.476 29.8621 176.572 29.8235C176.668 29.7849 176.755 29.7277 176.828 29.6551C176.902 29.5825 176.96 29.4961 177 29.4008C177.04 29.3055 177.06 29.2033 177.06 29.1V29.1Z" fill="#009688"></path><path d="M180.19 35.3499C180.19 35.1957 180.145 35.0449 180.059 34.9166C179.973 34.7883 179.851 34.6884 179.709 34.6293C179.566 34.5703 179.41 34.5548 179.258 34.5849C179.107 34.615 178.968 34.6893 178.859 34.7984C178.75 34.9075 178.675 35.0465 178.645 35.1978C178.615 35.3491 178.631 35.5059 178.69 35.6484C178.749 35.791 178.849 35.9128 178.977 35.9985C179.105 36.0842 179.256 36.1299 179.41 36.1299C179.617 36.1299 179.816 36.0478 179.962 35.9015C180.108 35.7552 180.19 35.5568 180.19 35.3499V35.3499Z" fill="#009688"></path><path d="M180.19 32.2199C180.19 32.0657 180.145 31.9149 180.059 31.7866C179.973 31.6583 179.851 31.5584 179.709 31.4993C179.566 31.4403 179.41 31.4248 179.258 31.4549C179.107 31.485 178.968 31.5593 178.859 31.6684C178.75 31.7775 178.675 31.9165 178.645 32.0678C178.615 32.2191 178.631 32.3759 178.69 32.5184C178.749 32.661 178.849 32.7828 178.977 32.8685C179.105 32.9542 179.256 32.9999 179.41 32.9999C179.513 32.9999 179.614 32.9798 179.709 32.9406C179.803 32.9014 179.889 32.8439 179.962 32.7715C180.034 32.6991 180.092 32.6131 180.131 32.5184C180.17 32.4238 180.19 32.3224 180.19 32.2199Z" fill="#009688"></path><path d="M180.19 29.0999C180.19 28.9457 180.145 28.7949 180.059 28.6666C179.973 28.5383 179.851 28.4384 179.709 28.3793C179.566 28.3203 179.41 28.3048 179.258 28.3349C179.107 28.365 178.968 28.4393 178.859 28.5484C178.75 28.6575 178.675 28.7965 178.645 28.9478C178.615 29.0991 178.631 29.2559 178.69 29.3984C178.749 29.541 178.849 29.6628 178.977 29.7485C179.105 29.8342 179.256 29.8799 179.41 29.8799C179.617 29.8799 179.816 29.7978 179.962 29.6515C180.108 29.5052 180.19 29.3068 180.19 29.0999V29.0999Z" fill="#009688"></path><path d="M183.33 32.22C183.332 32.0633 183.288 31.9096 183.202 31.7784C183.117 31.6472 182.994 31.5444 182.85 31.483C182.706 31.4217 182.546 31.4046 182.393 31.434C182.239 31.4633 182.097 31.5377 181.985 31.6478C181.874 31.7579 181.798 31.8986 181.766 32.0521C181.735 32.2057 181.75 32.365 181.81 32.5099C181.869 32.6549 181.97 32.7789 182.101 32.8661C182.231 32.9534 182.384 33 182.54 33C182.644 33.0013 182.746 32.9821 182.842 32.9435C182.938 32.9049 183.025 32.8477 183.098 32.7751C183.172 32.7025 183.23 32.6161 183.27 32.5208C183.31 32.4255 183.33 32.3233 183.33 32.22V32.22Z" fill="#009688"></path><path d="M183.33 29.1C183.332 28.9433 183.288 28.7896 183.202 28.6584C183.117 28.5272 182.994 28.4244 182.85 28.363C182.706 28.3017 182.546 28.2846 182.393 28.314C182.239 28.3433 182.097 28.4178 181.985 28.5278C181.874 28.6379 181.798 28.7786 181.766 28.9322C181.735 29.0857 181.75 29.245 181.81 29.39C181.869 29.5349 181.97 29.6589 182.101 29.7461C182.231 29.8334 182.384 29.88 182.54 29.88C182.644 29.8813 182.746 29.8621 182.842 29.8235C182.938 29.7849 183.025 29.7277 183.098 29.6551C183.172 29.5825 183.23 29.4961 183.27 29.4008C183.31 29.3055 183.33 29.2033 183.33 29.1V29.1Z" fill="#009688"></path><path d="M186.46 29.0999C186.46 28.9457 186.415 28.7949 186.329 28.6666C186.243 28.5383 186.121 28.4384 185.979 28.3793C185.836 28.3203 185.68 28.3048 185.528 28.3349C185.377 28.365 185.238 28.4393 185.129 28.5484C185.02 28.6575 184.945 28.7965 184.915 28.9478C184.885 29.0991 184.901 29.2559 184.96 29.3984C185.019 29.541 185.119 29.6628 185.247 29.7485C185.375 29.8342 185.526 29.8799 185.68 29.8799C185.887 29.8799 186.086 29.7978 186.232 29.6515C186.378 29.5052 186.46 29.3068 186.46 29.0999V29.0999Z" fill="#009688"></path><path d="M167.65 41.6099C167.65 41.4533 167.604 41.3001 167.516 41.17C167.429 41.0399 167.305 40.9387 167.16 40.8792C167.015 40.8197 166.856 40.8046 166.702 40.8359C166.549 40.8672 166.408 40.9435 166.298 41.055C166.188 41.1665 166.114 41.3081 166.084 41.462C166.055 41.6159 166.072 41.7751 166.133 41.9193C166.195 42.0634 166.297 42.1861 166.429 42.2717C166.56 42.3573 166.714 42.4019 166.87 42.3999C166.974 42.4 167.076 42.3795 167.171 42.3396C167.266 42.2998 167.353 42.2415 167.425 42.168C167.498 42.0945 167.555 42.0073 167.594 41.9115C167.632 41.8157 167.652 41.7132 167.65 41.6099V41.6099Z" fill="#009688"></path><path d="M167.65 38.48C167.652 38.3229 167.607 38.1688 167.521 38.0374C167.435 37.9059 167.312 37.8031 167.167 37.7421C167.022 37.6811 166.863 37.6646 166.709 37.6948C166.554 37.7249 166.413 37.8004 166.302 37.9114C166.191 38.0225 166.115 38.1642 166.085 38.3184C166.055 38.4725 166.071 38.6322 166.132 38.777C166.193 38.9217 166.296 39.045 166.428 39.131C166.559 39.2171 166.713 39.262 166.87 39.26C166.973 39.26 167.074 39.2398 167.169 39.2006C167.263 39.1614 167.349 39.104 167.422 39.0315C167.494 38.9591 167.552 38.8731 167.591 38.7785C167.63 38.6839 167.65 38.5824 167.65 38.48Z" fill="#009688"></path><path d="M167.65 35.35C167.652 35.1929 167.607 35.0388 167.521 34.9074C167.435 34.7759 167.312 34.6731 167.167 34.6121C167.022 34.5511 166.863 34.5346 166.709 34.5647C166.554 34.5949 166.413 34.6704 166.302 34.7814C166.191 34.8925 166.115 35.0342 166.085 35.1884C166.055 35.3425 166.071 35.5022 166.132 35.647C166.193 35.7917 166.296 35.915 166.428 36.001C166.559 36.0871 166.713 36.132 166.87 36.13C167.077 36.13 167.276 36.0478 167.422 35.9015C167.568 35.7553 167.65 35.5569 167.65 35.35V35.35Z" fill="#009688"></path><path d="M167.65 32.22C167.652 32.0629 167.607 31.9088 167.521 31.7774C167.435 31.6459 167.312 31.5431 167.167 31.4821C167.022 31.4211 166.863 31.4046 166.709 31.4347C166.554 31.4649 166.413 31.5403 166.302 31.6514C166.191 31.7625 166.115 31.9042 166.085 32.0584C166.055 32.2125 166.071 32.3722 166.132 32.517C166.193 32.6617 166.296 32.785 166.428 32.871C166.559 32.9571 166.713 33.002 166.87 33C166.973 33 167.074 32.9798 167.169 32.9406C167.263 32.9014 167.349 32.844 167.422 32.7715C167.494 32.6991 167.552 32.6131 167.591 32.5185C167.63 32.4238 167.65 32.3224 167.65 32.22Z" fill="#009688"></path><path d="M167.65 29.1C167.652 28.9429 167.607 28.7888 167.521 28.6574C167.435 28.5259 167.312 28.4231 167.167 28.3621C167.022 28.3011 166.863 28.2846 166.709 28.3147C166.554 28.3449 166.413 28.4204 166.302 28.5314C166.191 28.6425 166.115 28.7842 166.085 28.9384C166.055 29.0925 166.071 29.2522 166.132 29.397C166.193 29.5417 166.296 29.665 166.428 29.751C166.559 29.8371 166.713 29.882 166.87 29.88C167.077 29.88 167.276 29.7978 167.422 29.6515C167.568 29.5053 167.65 29.3069 167.65 29.1V29.1Z" fill="#009688"></path><path d="M164.51 38.48C164.51 38.3257 164.464 38.1749 164.379 38.0466C164.293 37.9183 164.171 37.8184 164.029 37.7593C163.886 37.7003 163.729 37.6848 163.578 37.7149C163.427 37.745 163.288 37.8193 163.179 37.9284C163.07 38.0375 162.995 38.1765 162.965 38.3278C162.935 38.4791 162.951 38.6359 163.01 38.7784C163.069 38.921 163.169 39.0428 163.297 39.1285C163.425 39.2142 163.576 39.2599 163.73 39.2599C163.833 39.2599 163.934 39.2398 164.029 39.2006C164.123 39.1614 164.209 39.1039 164.282 39.0315C164.354 38.9591 164.412 38.8731 164.451 38.7784C164.49 38.6838 164.51 38.5824 164.51 38.48Z" fill="#009688"></path><path d="M164.51 35.3499C164.51 35.1957 164.464 35.0449 164.379 34.9166C164.293 34.7883 164.171 34.6884 164.029 34.6293C163.886 34.5703 163.729 34.5548 163.578 34.5849C163.427 34.615 163.288 34.6893 163.179 34.7984C163.07 34.9075 162.995 35.0465 162.965 35.1978C162.935 35.3491 162.951 35.5059 163.01 35.6484C163.069 35.791 163.169 35.9128 163.297 35.9985C163.425 36.0842 163.576 36.1299 163.73 36.1299C163.937 36.1299 164.135 36.0478 164.282 35.9015C164.428 35.7552 164.51 35.5568 164.51 35.3499V35.3499Z" fill="#009688"></path><path d="M164.51 32.2199C164.51 32.0657 164.464 31.9149 164.379 31.7866C164.293 31.6583 164.171 31.5584 164.029 31.4993C163.886 31.4403 163.729 31.4248 163.578 31.4549C163.427 31.485 163.288 31.5593 163.179 31.6684C163.07 31.7775 162.995 31.9165 162.965 32.0678C162.935 32.2191 162.951 32.3759 163.01 32.5184C163.069 32.661 163.169 32.7828 163.297 32.8685C163.425 32.9542 163.576 32.9999 163.73 32.9999C163.833 32.9999 163.934 32.9798 164.029 32.9406C164.123 32.9014 164.209 32.8439 164.282 32.7715C164.354 32.6991 164.412 32.6131 164.451 32.5184C164.49 32.4238 164.51 32.3224 164.51 32.2199Z" fill="#009688"></path><path d="M164.51 29.0999C164.51 28.9457 164.464 28.7949 164.379 28.6666C164.293 28.5383 164.171 28.4384 164.029 28.3793C163.886 28.3203 163.729 28.3048 163.578 28.3349C163.427 28.365 163.288 28.4393 163.179 28.5484C163.07 28.6575 162.995 28.7965 162.965 28.9478C162.935 29.0991 162.951 29.2559 163.01 29.3984C163.069 29.541 163.169 29.6628 163.297 29.7485C163.425 29.8342 163.576 29.8799 163.73 29.8799C163.937 29.8799 164.135 29.7978 164.282 29.6515C164.428 29.5052 164.51 29.3068 164.51 29.0999V29.0999Z" fill="#009688"></path><path d="M161.38 35.35C161.382 35.1933 161.338 35.0396 161.252 34.9084C161.166 34.7772 161.044 34.6744 160.9 34.613C160.755 34.5517 160.596 34.5346 160.442 34.564C160.288 34.5933 160.147 34.6678 160.035 34.7778C159.924 34.8879 159.848 35.0286 159.816 35.1822C159.785 35.3357 159.8 35.495 159.859 35.64C159.919 35.7849 160.02 35.9089 160.15 35.9961C160.28 36.0834 160.434 36.13 160.59 36.13C160.693 36.1313 160.796 36.1121 160.892 36.0735C160.988 36.0349 161.075 35.9777 161.148 35.9051C161.222 35.8325 161.28 35.7461 161.32 35.6508C161.36 35.5555 161.38 35.4533 161.38 35.35V35.35Z" fill="#009688"></path><path d="M161.38 32.22C161.382 32.0633 161.338 31.9096 161.252 31.7784C161.166 31.6472 161.044 31.5444 160.9 31.483C160.755 31.4217 160.596 31.4046 160.442 31.434C160.288 31.4633 160.147 31.5377 160.035 31.6478C159.924 31.7579 159.848 31.8986 159.816 32.0521C159.785 32.2057 159.8 32.365 159.859 32.5099C159.919 32.6549 160.02 32.7789 160.15 32.8661C160.28 32.9534 160.434 33 160.59 33C160.693 33.0013 160.796 32.9821 160.892 32.9435C160.988 32.9049 161.075 32.8477 161.148 32.7751C161.222 32.7025 161.28 32.6161 161.32 32.5208C161.36 32.4255 161.38 32.3233 161.38 32.22V32.22Z" fill="#009688"></path><path d="M161.38 29.1C161.382 28.9433 161.338 28.7896 161.252 28.6584C161.166 28.5272 161.044 28.4244 160.9 28.363C160.755 28.3017 160.596 28.2846 160.442 28.314C160.288 28.3433 160.147 28.4178 160.035 28.5278C159.924 28.6379 159.848 28.7786 159.816 28.9322C159.785 29.0857 159.8 29.245 159.859 29.39C159.919 29.5349 160.02 29.6589 160.15 29.7461C160.28 29.8334 160.434 29.88 160.59 29.88C160.693 29.8813 160.796 29.8621 160.892 29.8235C160.988 29.7849 161.075 29.7277 161.148 29.6551C161.222 29.5825 161.28 29.4961 161.32 29.4008C161.36 29.3055 161.38 29.2033 161.38 29.1V29.1Z" fill="#009688"></path><path d="M158.24 32.2199C158.24 32.0131 158.158 31.8147 158.012 31.6684C157.865 31.5221 157.667 31.4399 157.46 31.4399C157.253 31.4399 157.055 31.5221 156.909 31.6684C156.762 31.8147 156.68 32.0131 156.68 32.2199C156.68 32.4268 156.762 32.6252 156.909 32.7715C157.055 32.9178 157.253 32.9999 157.46 32.9999C157.563 32.9999 157.664 32.9798 157.759 32.9406C157.853 32.9014 157.939 32.8439 158.012 32.7715C158.084 32.6991 158.142 32.6131 158.181 32.5184C158.22 32.4238 158.24 32.3224 158.24 32.2199V32.2199Z" fill="#009688"></path><path d="M158.24 29.0999C158.24 28.8931 158.158 28.6947 158.012 28.5484C157.865 28.4021 157.667 28.3199 157.46 28.3199C157.358 28.3199 157.256 28.3401 157.162 28.3793C157.067 28.4185 156.981 28.476 156.909 28.5484C156.836 28.6208 156.779 28.7068 156.74 28.8015C156.7 28.8961 156.68 28.9975 156.68 29.0999C156.68 29.2024 156.7 29.3038 156.74 29.3984C156.779 29.4931 156.836 29.5791 156.909 29.6515C156.981 29.7239 157.067 29.7814 157.162 29.8206C157.256 29.8598 157.358 29.8799 157.46 29.8799C157.667 29.8799 157.865 29.7978 158.012 29.6515C158.158 29.5052 158.24 29.3068 158.24 29.0999V29.0999Z" fill="#009688"></path><path d="M155.11 29.1C155.112 28.9433 155.068 28.7896 154.982 28.6584C154.896 28.5272 154.774 28.4244 154.63 28.363C154.485 28.3017 154.326 28.2846 154.172 28.314C154.018 28.3433 153.877 28.4178 153.765 28.5278C153.654 28.6379 153.578 28.7786 153.546 28.9322C153.515 29.0857 153.53 29.245 153.589 29.39C153.649 29.5349 153.75 29.6589 153.88 29.7461C154.01 29.8334 154.164 29.88 154.32 29.88C154.423 29.8813 154.526 29.8621 154.622 29.8235C154.718 29.7849 154.805 29.7277 154.878 29.6551C154.952 29.5825 155.01 29.4961 155.05 29.4008C155.09 29.3055 155.11 29.2033 155.11 29.1V29.1Z" fill="#009688"></path><path d="M170.79 22.8399C170.797 22.7321 170.782 22.6239 170.745 22.5222C170.708 22.4206 170.651 22.3275 170.577 22.2487C170.503 22.17 170.414 22.1073 170.314 22.0645C170.215 22.0217 170.108 21.9997 170 21.9999C169.807 22.0218 169.629 22.1138 169.5 22.2586C169.37 22.4034 169.299 22.5908 169.299 22.7849C169.299 22.9791 169.37 23.1665 169.5 23.3112C169.629 23.456 169.807 23.5481 170 23.5699C170.21 23.5699 170.411 23.4867 170.559 23.3386C170.707 23.1904 170.79 22.9895 170.79 22.7799V22.7799V22.8399Z" fill="#009688"></path><path d="M170.79 19.71C170.79 19.5005 170.707 19.2995 170.559 19.1514C170.41 19.0032 170.209 18.92 170 18.92C169.844 18.92 169.691 18.9663 169.561 19.0531C169.431 19.1399 169.33 19.2633 169.27 19.4077C169.21 19.552 169.195 19.7109 169.225 19.8641C169.256 20.0173 169.331 20.1581 169.441 20.2686C169.552 20.3791 169.693 20.4543 169.846 20.4848C169.999 20.5153 170.158 20.4996 170.302 20.4398C170.447 20.3801 170.57 20.2788 170.657 20.1489C170.744 20.019 170.79 19.8662 170.79 19.71V19.71Z" fill="#009688"></path><path d="M170.79 16.58C170.788 16.3722 170.703 16.1738 170.555 16.0278C170.407 15.8818 170.208 15.8 170 15.8C169.793 15.8 169.595 15.8822 169.449 16.0284C169.302 16.1747 169.22 16.3731 169.22 16.58C169.22 16.7869 169.302 16.9853 169.449 17.1315C169.595 17.2778 169.793 17.36 170 17.36C170.208 17.36 170.407 17.2781 170.555 17.1321C170.703 16.9861 170.788 16.7878 170.79 16.58V16.58Z" fill="#009688"></path><path d="M170.79 13.45C170.788 13.2422 170.703 13.0438 170.555 12.8978C170.407 12.7518 170.208 12.67 170 12.67C169.793 12.67 169.595 12.7522 169.449 12.8984C169.302 13.0447 169.22 13.2431 169.22 13.45C169.22 13.6569 169.302 13.8552 169.449 14.0015C169.595 14.1478 169.793 14.23 170 14.23C170.208 14.23 170.407 14.1481 170.555 14.0021C170.703 13.8561 170.788 13.6578 170.79 13.45V13.45Z" fill="#009688"></path><path d="M170.79 10.33C170.79 10.2262 170.77 10.1235 170.73 10.0277C170.69 9.93181 170.632 9.84472 170.559 9.77136C170.485 9.698 170.398 9.63981 170.302 9.60011C170.206 9.56041 170.104 9.53998 170 9.53998C169.844 9.53998 169.691 9.58631 169.561 9.67312C169.431 9.75992 169.33 9.8833 169.27 10.0277C169.21 10.172 169.195 10.3309 169.225 10.4841C169.256 10.6373 169.331 10.7781 169.441 10.8886C169.552 10.9991 169.693 11.0743 169.846 11.1048C169.999 11.1353 170.158 11.1196 170.302 11.0598C170.447 11 170.57 10.8988 170.657 10.7689C170.744 10.639 170.79 10.4862 170.79 10.33V10.33Z" fill="#009688"></path><path d="M167.65 25.9999C167.652 25.8429 167.607 25.6888 167.521 25.5573C167.435 25.4259 167.312 25.3231 167.167 25.2621C167.022 25.201 166.863 25.1845 166.709 25.2147C166.554 25.2449 166.413 25.3203 166.302 25.4314C166.191 25.5425 166.115 25.6842 166.085 25.8383C166.055 25.9925 166.071 26.1522 166.132 26.2969C166.193 26.4417 166.296 26.5649 166.428 26.651C166.559 26.737 166.713 26.7819 166.87 26.78C167.077 26.78 167.276 26.6978 167.422 26.5515C167.568 26.4052 167.65 26.2068 167.65 25.9999V25.9999Z" fill="#009688"></path><path d="M167.65 22.84C167.65 22.6833 167.604 22.5302 167.516 22.4001C167.429 22.2699 167.305 22.1687 167.16 22.1092C167.015 22.0497 166.856 22.0347 166.702 22.066C166.549 22.0973 166.408 22.1735 166.298 22.285C166.188 22.3965 166.114 22.5382 166.084 22.6921C166.055 22.846 166.072 23.0051 166.133 23.1493C166.195 23.2935 166.297 23.4161 166.429 23.5017C166.56 23.5873 166.714 23.632 166.87 23.63C166.974 23.63 167.076 23.6095 167.171 23.5697C167.266 23.5298 167.353 23.4715 167.425 23.398C167.498 23.3245 167.555 23.2373 167.594 23.1416C167.632 23.0458 167.652 22.9433 167.65 22.84V22.84Z" fill="#009688"></path><path d="M167.65 19.71C167.652 19.5529 167.607 19.3988 167.521 19.2674C167.435 19.1359 167.312 19.0331 167.167 18.9721C167.022 18.9111 166.863 18.8946 166.709 18.9247C166.554 18.9549 166.413 19.0303 166.302 19.1414C166.191 19.2525 166.115 19.3942 166.085 19.5484C166.055 19.7025 166.071 19.8622 166.132 20.0069C166.193 20.1517 166.296 20.275 166.428 20.361C166.559 20.447 166.713 20.4919 166.87 20.49C167.077 20.49 167.276 20.4078 167.422 20.2615C167.568 20.1152 167.65 19.9168 167.65 19.71V19.71Z" fill="#009688"></path><path d="M167.65 16.58C167.652 16.4229 167.607 16.2688 167.521 16.1373C167.435 16.0059 167.312 15.9031 167.167 15.8421C167.022 15.7811 166.863 15.7646 166.709 15.7947C166.554 15.8249 166.413 15.9003 166.302 16.0114C166.191 16.1225 166.115 16.2642 166.085 16.4183C166.055 16.5725 166.071 16.7322 166.132 16.8769C166.193 17.0217 166.296 17.145 166.428 17.231C166.559 17.317 166.713 17.3619 166.87 17.36C167.077 17.36 167.276 17.2778 167.422 17.1315C167.568 16.9852 167.65 16.7868 167.65 16.58V16.58Z" fill="#009688"></path><path d="M167.65 13.45C167.652 13.2929 167.607 13.1388 167.521 13.0073C167.435 12.8759 167.312 12.7731 167.167 12.7121C167.022 12.651 166.863 12.6346 166.709 12.6647C166.554 12.6949 166.413 12.7703 166.302 12.8814C166.191 12.9925 166.115 13.1342 166.085 13.2883C166.055 13.4425 166.071 13.6022 166.132 13.7469C166.193 13.8917 166.296 14.015 166.428 14.101C166.559 14.187 166.713 14.2319 166.87 14.23C167.077 14.23 167.276 14.1478 167.422 14.0015C167.568 13.8552 167.65 13.6568 167.65 13.45V13.45Z" fill="#009688"></path><path d="M167.65 10.33C167.652 10.1729 167.607 10.0188 167.521 9.88735C167.435 9.75591 167.312 9.65311 167.167 9.59208C167.022 9.53105 166.863 9.51457 166.709 9.54473C166.554 9.57489 166.413 9.65033 166.302 9.76141C166.191 9.8725 166.115 10.0142 166.085 10.1683C166.055 10.3225 166.071 10.4822 166.132 10.6269C166.193 10.7717 166.296 10.895 166.428 10.981C166.559 11.067 166.713 11.1119 166.87 11.11C167.077 11.11 167.276 11.0278 167.422 10.8815C167.568 10.7352 167.65 10.5368 167.65 10.33V10.33Z" fill="#009688"></path><path d="M173.92 25.9999C173.922 25.8429 173.877 25.6888 173.791 25.5573C173.705 25.4259 173.582 25.3231 173.437 25.2621C173.292 25.201 173.133 25.1845 172.979 25.2147C172.824 25.2449 172.683 25.3203 172.572 25.4314C172.461 25.5425 172.385 25.6842 172.355 25.8383C172.325 25.9925 172.341 26.1522 172.402 26.2969C172.463 26.4417 172.566 26.5649 172.698 26.651C172.829 26.737 172.983 26.7819 173.14 26.78C173.347 26.78 173.546 26.6978 173.692 26.5515C173.838 26.4052 173.92 26.2068 173.92 25.9999V25.9999Z" fill="#009688"></path><path d="M173.92 22.84C173.92 22.6833 173.874 22.5302 173.786 22.4001C173.699 22.2699 173.575 22.1687 173.43 22.1092C173.285 22.0497 173.126 22.0347 172.973 22.066C172.819 22.0973 172.678 22.1735 172.568 22.285C172.458 22.3965 172.384 22.5382 172.354 22.6921C172.325 22.846 172.342 23.0051 172.403 23.1493C172.465 23.2935 172.568 23.4161 172.699 23.5017C172.83 23.5873 172.984 23.632 173.14 23.63C173.245 23.6301 173.349 23.6089 173.446 23.5679C173.543 23.5268 173.63 23.4667 173.703 23.391C173.776 23.3154 173.832 23.2258 173.87 23.1277C173.907 23.0296 173.924 22.9249 173.92 22.82V22.84Z" fill="#009688"></path><path d="M173.92 19.71C173.922 19.5529 173.877 19.3988 173.791 19.2674C173.705 19.1359 173.582 19.0331 173.437 18.9721C173.292 18.9111 173.133 18.8946 172.979 18.9247C172.824 18.9549 172.683 19.0303 172.572 19.1414C172.461 19.2525 172.385 19.3942 172.355 19.5484C172.325 19.7025 172.341 19.8622 172.402 20.0069C172.463 20.1517 172.566 20.275 172.698 20.361C172.829 20.447 172.983 20.4919 173.14 20.49C173.244 20.49 173.346 20.4695 173.441 20.4297C173.536 20.3898 173.623 20.3315 173.695 20.258C173.768 20.1845 173.825 20.0973 173.864 20.0015C173.902 19.9057 173.922 19.8032 173.92 19.7V19.71Z" fill="#009688"></path><path d="M173.92 16.58C173.922 16.4229 173.877 16.2688 173.791 16.1373C173.705 16.0059 173.582 15.9031 173.437 15.8421C173.292 15.7811 173.133 15.7646 172.979 15.7947C172.824 15.8249 172.683 15.9003 172.572 16.0114C172.461 16.1225 172.385 16.2642 172.355 16.4183C172.325 16.5725 172.341 16.7322 172.402 16.8769C172.463 17.0217 172.566 17.145 172.698 17.231C172.829 17.317 172.983 17.3619 173.14 17.36C173.244 17.36 173.346 17.3395 173.441 17.2997C173.536 17.2598 173.623 17.2015 173.695 17.128C173.768 17.0545 173.825 16.9673 173.864 16.8715C173.902 16.7757 173.922 16.6732 173.92 16.57V16.58Z" fill="#009688"></path><path d="M173.92 13.45C173.922 13.2929 173.877 13.1388 173.791 13.0073C173.705 12.8759 173.582 12.7731 173.437 12.7121C173.292 12.651 173.133 12.6346 172.979 12.6647C172.824 12.6949 172.683 12.7703 172.572 12.8814C172.461 12.9925 172.385 13.1342 172.355 13.2883C172.325 13.4425 172.341 13.6022 172.402 13.7469C172.463 13.8917 172.566 14.015 172.698 14.101C172.829 14.187 172.983 14.2319 173.14 14.23C173.244 14.23 173.346 14.2095 173.441 14.1696C173.536 14.1298 173.623 14.0715 173.695 13.998C173.768 13.9245 173.825 13.8373 173.864 13.7415C173.902 13.6457 173.922 13.5432 173.92 13.44V13.45Z" fill="#009688"></path><path d="M173.92 10.33C173.922 10.1729 173.877 10.0188 173.791 9.88735C173.705 9.75591 173.582 9.65311 173.437 9.59208C173.292 9.53105 173.133 9.51457 172.979 9.54473C172.824 9.57489 172.683 9.65033 172.572 9.76141C172.461 9.8725 172.385 10.0142 172.355 10.1683C172.325 10.3225 172.341 10.4822 172.402 10.6269C172.463 10.7717 172.566 10.895 172.698 10.981C172.829 11.067 172.983 11.1119 173.14 11.11C173.244 11.11 173.346 11.0895 173.441 11.0497C173.536 11.0098 173.623 10.9515 173.695 10.878C173.768 10.8045 173.825 10.7173 173.864 10.6215C173.902 10.5257 173.922 10.4232 173.92 10.32V10.33Z" fill="#009688"></path><path d="M169.22 44.74C169.231 44.5401 169.317 44.3519 169.462 44.2141C169.608 44.0764 169.8 43.9997 170 44C170.208 44 170.408 44.0818 170.555 44.2278C170.703 44.3738 170.788 44.5722 170.79 44.78V44.78C170.788 44.9878 170.703 45.1862 170.555 45.3322C170.408 45.4782 170.208 45.56 170 45.56C169.894 45.5601 169.79 45.5387 169.692 45.497C169.595 45.4554 169.507 45.3943 169.434 45.3176C169.361 45.2409 169.305 45.1501 169.268 45.0508C169.231 44.9515 169.215 44.8457 169.22 44.74V44.74Z" fill="black"></path><path d="M169.22 41.61C169.22 41.4031 169.302 41.2047 169.449 41.0584C169.595 40.9121 169.793 40.83 170 40.83C170.208 40.8299 170.407 40.9118 170.555 41.0578C170.703 41.2038 170.788 41.4022 170.79 41.61C170.788 41.8177 170.703 42.0161 170.555 42.1621C170.407 42.3081 170.208 42.39 170 42.39C169.793 42.39 169.595 42.3078 169.449 42.1615C169.302 42.0152 169.22 41.8168 169.22 41.61Z" fill="black"></path><path d="M169.22 38.4799C169.22 38.2731 169.302 38.0747 169.449 37.9284C169.595 37.7821 169.793 37.7 170 37.7C170.208 37.6999 170.407 37.7818 170.555 37.9278C170.703 38.0738 170.788 38.2722 170.79 38.4799C170.788 38.6877 170.703 38.8861 170.555 39.0321C170.407 39.1781 170.208 39.26 170 39.2599C169.898 39.2599 169.796 39.2398 169.702 39.2006C169.607 39.1614 169.521 39.1039 169.449 39.0315C169.376 38.9591 169.319 38.8731 169.28 38.7784C169.24 38.6838 169.22 38.5824 169.22 38.4799V38.4799Z" fill="black"></path><path d="M169.22 35.3499C169.22 35.1431 169.302 34.9447 169.449 34.7984C169.595 34.6521 169.793 34.5699 170 34.5699C170.208 34.5699 170.407 34.6518 170.555 34.7978C170.703 34.9438 170.788 35.1422 170.79 35.3499C170.788 35.5577 170.703 35.7561 170.555 35.9021C170.407 36.0481 170.208 36.13 170 36.1299C169.793 36.1299 169.595 36.0478 169.449 35.9015C169.302 35.7552 169.22 35.5568 169.22 35.3499Z" fill="black"></path><path d="M169.22 32.22C169.22 32.0131 169.302 31.8147 169.449 31.6685C169.595 31.5222 169.793 31.44 170 31.44C170.208 31.44 170.407 31.5218 170.555 31.6678C170.703 31.8138 170.788 32.0122 170.79 32.22C170.788 32.4278 170.703 32.6262 170.555 32.7722C170.407 32.9182 170.208 33 170 33C169.898 33 169.796 32.9798 169.702 32.9406C169.607 32.9014 169.521 32.844 169.449 32.7715C169.376 32.6991 169.319 32.6131 169.28 32.5185C169.24 32.4239 169.22 32.3224 169.22 32.22V32.22Z" fill="black"></path><path d="M169.22 29.1C169.219 28.9967 169.238 28.8942 169.277 28.7984C169.315 28.7026 169.373 28.6155 169.445 28.542C169.518 28.4685 169.604 28.4101 169.699 28.3703C169.795 28.3305 169.897 28.31 170 28.31C170.21 28.31 170.411 28.3932 170.559 28.5414C170.707 28.6895 170.79 28.8905 170.79 29.1V29.1C170.788 29.3078 170.703 29.5062 170.555 29.6522C170.408 29.7982 170.208 29.88 170 29.88C169.793 29.88 169.595 29.7978 169.449 29.6515C169.302 29.5053 169.22 29.3069 169.22 29.1V29.1Z" fill="black"></path><path d="M169.22 26C169.22 25.7931 169.302 25.5947 169.449 25.4484C169.595 25.3021 169.793 25.22 170 25.22C170.208 25.22 170.407 25.3018 170.555 25.4478C170.703 25.5938 170.788 25.7922 170.79 26V26C170.788 26.2078 170.703 26.4061 170.555 26.5521C170.407 26.6981 170.208 26.78 170 26.78C169.793 26.78 169.595 26.6978 169.449 26.5515C169.302 26.4052 169.22 26.2068 169.22 26Z" fill="black"></path><path d="M172.35 41.61C172.372 41.417 172.464 41.2389 172.609 41.1095C172.754 40.9802 172.941 40.9087 173.135 40.9087C173.329 40.9087 173.517 40.9802 173.661 41.1095C173.806 41.2389 173.898 41.417 173.92 41.61V41.61C173.898 41.8029 173.806 41.981 173.661 42.1104C173.517 42.2397 173.329 42.3112 173.135 42.3112C172.941 42.3112 172.754 42.2397 172.609 42.1104C172.464 41.981 172.372 41.8029 172.35 41.61V41.61Z" fill="black"></path><path d="M172.35 38.4799C172.372 38.287 172.464 38.1089 172.609 37.9795C172.754 37.8502 172.941 37.7787 173.135 37.7787C173.329 37.7787 173.517 37.8502 173.661 37.9795C173.806 38.1089 173.898 38.287 173.92 38.4799V38.4799C173.898 38.6729 173.806 38.851 173.661 38.9804C173.517 39.1097 173.329 39.1812 173.135 39.1812C172.941 39.1812 172.754 39.1097 172.609 38.9804C172.464 38.851 172.372 38.6729 172.35 38.4799V38.4799Z" fill="black"></path><path d="M172.35 35.35C172.372 35.1571 172.464 34.9789 172.609 34.8496C172.754 34.7202 172.941 34.6487 173.135 34.6487C173.329 34.6487 173.517 34.7202 173.661 34.8496C173.806 34.9789 173.898 35.1571 173.92 35.35V35.35C173.898 35.5429 173.806 35.7211 173.661 35.8504C173.517 35.9798 173.329 36.0513 173.135 36.0513C172.941 36.0513 172.754 35.9798 172.609 35.8504C172.464 35.7211 172.372 35.5429 172.35 35.35V35.35Z" fill="black"></path><path d="M172.35 32.22C172.372 32.0271 172.464 31.8489 172.609 31.7196C172.754 31.5902 172.941 31.5187 173.135 31.5187C173.329 31.5187 173.517 31.5902 173.662 31.7196C173.806 31.8489 173.898 32.0271 173.92 32.22V32.22C173.933 32.3305 173.922 32.4424 173.888 32.5484C173.854 32.6544 173.798 32.7521 173.724 32.835C173.65 32.918 173.559 32.9844 173.458 33.0298C173.356 33.0752 173.246 33.0987 173.135 33.0987C173.024 33.0987 172.914 33.0752 172.812 33.0298C172.711 32.9844 172.62 32.918 172.546 32.835C172.472 32.7521 172.416 32.6544 172.382 32.5484C172.349 32.4424 172.338 32.3305 172.35 32.22V32.22Z" fill="black"></path><path d="M172.35 29.1C172.338 28.9895 172.349 28.8775 172.382 28.7716C172.416 28.6656 172.472 28.5679 172.546 28.4849C172.62 28.402 172.711 28.3356 172.812 28.2902C172.914 28.2447 173.024 28.2213 173.135 28.2213C173.246 28.2213 173.356 28.2447 173.458 28.2902C173.559 28.3356 173.65 28.402 173.724 28.4849C173.798 28.5679 173.854 28.6656 173.888 28.7716C173.922 28.8775 173.933 28.9895 173.92 29.1C173.898 29.2929 173.806 29.4711 173.662 29.6004C173.517 29.7298 173.329 29.8013 173.135 29.8013C172.941 29.8013 172.754 29.7298 172.609 29.6004C172.464 29.4711 172.372 29.2929 172.35 29.1V29.1Z" fill="black"></path><path d="M175.49 38.4799C175.512 38.287 175.604 38.1089 175.749 37.9795C175.894 37.8502 176.081 37.7787 176.275 37.7787C176.469 37.7787 176.657 37.8502 176.802 37.9795C176.946 38.1089 177.038 38.287 177.06 38.4799C177.038 38.6729 176.946 38.851 176.802 38.9804C176.657 39.1097 176.469 39.1812 176.275 39.1812C176.081 39.1812 175.894 39.1097 175.749 38.9804C175.604 38.851 175.512 38.6729 175.49 38.4799V38.4799Z" fill="black"></path><path d="M175.49 35.35C175.512 35.1571 175.604 34.9789 175.749 34.8496C175.894 34.7202 176.081 34.6487 176.275 34.6487C176.469 34.6487 176.657 34.7202 176.802 34.8496C176.946 34.9789 177.038 35.1571 177.06 35.35C177.038 35.5429 176.946 35.7211 176.802 35.8504C176.657 35.9798 176.469 36.0513 176.275 36.0513C176.081 36.0513 175.894 35.9798 175.749 35.8504C175.604 35.7211 175.512 35.5429 175.49 35.35Z" fill="black"></path><path d="M175.49 32.22C175.512 32.0271 175.604 31.8489 175.749 31.7196C175.894 31.5902 176.081 31.5187 176.275 31.5187C176.469 31.5187 176.657 31.5902 176.802 31.7196C176.946 31.8489 177.039 32.0271 177.06 32.22C177.073 32.3305 177.062 32.4424 177.028 32.5484C176.994 32.6544 176.939 32.7521 176.864 32.835C176.79 32.918 176.7 32.9844 176.598 33.0298C176.497 33.0752 176.387 33.0987 176.275 33.0987C176.164 33.0987 176.054 33.0752 175.953 33.0298C175.851 32.9844 175.76 32.918 175.686 32.835C175.612 32.7521 175.556 32.6544 175.523 32.5484C175.489 32.4424 175.478 32.3305 175.49 32.22V32.22Z" fill="black"></path><path d="M175.49 29.1C175.478 28.9895 175.489 28.8775 175.523 28.7716C175.556 28.6656 175.612 28.5679 175.686 28.4849C175.76 28.402 175.851 28.3356 175.953 28.2902C176.054 28.2447 176.164 28.2213 176.275 28.2213C176.387 28.2213 176.497 28.2447 176.598 28.2902C176.7 28.3356 176.79 28.402 176.864 28.4849C176.939 28.5679 176.994 28.6656 177.028 28.7716C177.062 28.8775 177.073 28.9895 177.06 29.1V29.1C177.039 29.2929 176.946 29.4711 176.802 29.6004C176.657 29.7298 176.469 29.8013 176.275 29.8013C176.081 29.8013 175.894 29.7298 175.749 29.6004C175.604 29.4711 175.512 29.2929 175.49 29.1Z" fill="black"></path><path d="M178.63 35.3499C178.63 35.1431 178.713 34.9447 178.859 34.7984C179.005 34.6521 179.204 34.5699 179.41 34.5699C179.617 34.5699 179.816 34.6521 179.962 34.7984C180.108 34.9447 180.19 35.1431 180.19 35.3499C180.19 35.5568 180.108 35.7552 179.962 35.9015C179.816 36.0478 179.617 36.1299 179.41 36.1299C179.204 36.1299 179.005 36.0478 178.859 35.9015C178.713 35.7552 178.63 35.5568 178.63 35.3499Z" fill="black"></path><path d="M178.63 32.22C178.63 32.0131 178.713 31.8147 178.859 31.6685C179.005 31.5222 179.204 31.44 179.41 31.44C179.617 31.44 179.816 31.5222 179.962 31.6685C180.108 31.8147 180.19 32.0131 180.19 32.22C180.19 32.4269 180.108 32.6253 179.962 32.7715C179.816 32.9178 179.617 33 179.41 33C179.204 33 179.005 32.9178 178.859 32.7715C178.713 32.6253 178.63 32.4269 178.63 32.22Z" fill="black"></path><path d="M178.63 29.0999C178.63 28.8931 178.713 28.6947 178.859 28.5484C179.005 28.4021 179.204 28.3199 179.41 28.3199C179.617 28.3199 179.816 28.4021 179.962 28.5484C180.108 28.6947 180.19 28.8931 180.19 29.0999V29.0999C180.19 29.3068 180.108 29.5052 179.962 29.6515C179.816 29.7978 179.617 29.8799 179.41 29.8799C179.204 29.8799 179.005 29.7978 178.859 29.6515C178.713 29.5052 178.63 29.3068 178.63 29.0999V29.0999Z" fill="black"></path><path d="M181.76 32.22C181.782 32.0271 181.874 31.8489 182.019 31.7196C182.164 31.5902 182.351 31.5187 182.545 31.5187C182.74 31.5187 182.927 31.5902 183.072 31.7196C183.216 31.8489 183.309 32.0271 183.33 32.22V32.22C183.343 32.3305 183.332 32.4424 183.298 32.5484C183.264 32.6544 183.209 32.7521 183.135 32.835C183.06 32.918 182.97 32.9844 182.868 33.0298C182.767 33.0752 182.657 33.0987 182.545 33.0987C182.434 33.0987 182.324 33.0752 182.223 33.0298C182.121 32.9844 182.03 32.918 181.956 32.835C181.882 32.7521 181.826 32.6544 181.793 32.5484C181.759 32.4424 181.748 32.3305 181.76 32.22Z" fill="black"></path><path d="M181.76 29.1C181.748 28.9895 181.759 28.8775 181.793 28.7716C181.826 28.6656 181.882 28.5679 181.956 28.4849C182.03 28.402 182.121 28.3356 182.223 28.2902C182.324 28.2447 182.434 28.2213 182.545 28.2213C182.657 28.2213 182.767 28.2447 182.868 28.2902C182.97 28.3356 183.06 28.402 183.135 28.4849C183.209 28.5679 183.264 28.6656 183.298 28.7716C183.332 28.8775 183.343 28.9895 183.33 29.1V29.1C183.309 29.2929 183.216 29.4711 183.072 29.6004C182.927 29.7298 182.74 29.8013 182.545 29.8013C182.351 29.8013 182.164 29.7298 182.019 29.6004C181.874 29.4711 181.782 29.2929 181.76 29.1V29.1Z" fill="black"></path><path d="M184.9 29.0999C184.9 28.8931 184.983 28.6947 185.129 28.5484C185.275 28.4021 185.474 28.3199 185.68 28.3199C185.887 28.3199 186.086 28.4021 186.232 28.5484C186.378 28.6947 186.46 28.8931 186.46 29.0999V29.0999C186.46 29.3068 186.378 29.5052 186.232 29.6515C186.086 29.7978 185.887 29.8799 185.68 29.8799C185.474 29.8799 185.275 29.7978 185.129 29.6515C184.983 29.5052 184.9 29.3068 184.9 29.0999V29.0999Z" fill="black"></path><path d="M166.08 41.61C166.102 41.417 166.194 41.2389 166.339 41.1095C166.484 40.9802 166.671 40.9087 166.865 40.9087C167.059 40.9087 167.247 40.9802 167.391 41.1095C167.536 41.2389 167.628 41.417 167.65 41.61C167.628 41.8029 167.536 41.981 167.391 42.1104C167.247 42.2397 167.059 42.3112 166.865 42.3112C166.671 42.3112 166.484 42.2397 166.339 42.1104C166.194 41.981 166.102 41.8029 166.08 41.61Z" fill="black"></path><path d="M166.08 38.4799C166.102 38.287 166.194 38.1089 166.339 37.9795C166.484 37.8502 166.671 37.7787 166.865 37.7787C167.059 37.7787 167.247 37.8502 167.391 37.9795C167.536 38.1089 167.628 38.287 167.65 38.4799C167.628 38.6729 167.536 38.851 167.391 38.9804C167.247 39.1097 167.059 39.1812 166.865 39.1812C166.671 39.1812 166.484 39.1097 166.339 38.9804C166.194 38.851 166.102 38.6729 166.08 38.4799V38.4799Z" fill="black"></path><path d="M166.08 35.35C166.102 35.1571 166.194 34.9789 166.339 34.8496C166.484 34.7202 166.671 34.6487 166.865 34.6487C167.059 34.6487 167.247 34.7202 167.391 34.8496C167.536 34.9789 167.628 35.1571 167.65 35.35C167.628 35.5429 167.536 35.7211 167.391 35.8504C167.247 35.9798 167.059 36.0513 166.865 36.0513C166.671 36.0513 166.484 35.9798 166.339 35.8504C166.194 35.7211 166.102 35.5429 166.08 35.35Z" fill="black"></path><path d="M166.08 32.22C166.102 32.0271 166.194 31.8489 166.339 31.7196C166.484 31.5902 166.671 31.5187 166.865 31.5187C167.059 31.5187 167.247 31.5902 167.392 31.7196C167.536 31.8489 167.628 32.0271 167.65 32.22C167.663 32.3305 167.652 32.4424 167.618 32.5484C167.584 32.6544 167.528 32.7521 167.454 32.835C167.38 32.918 167.289 32.9844 167.188 33.0298C167.086 33.0752 166.976 33.0987 166.865 33.0987C166.754 33.0987 166.644 33.0752 166.542 33.0298C166.441 32.9844 166.35 32.918 166.276 32.835C166.202 32.7521 166.146 32.6544 166.112 32.5484C166.079 32.4424 166.068 32.3305 166.08 32.22V32.22Z" fill="black"></path><path d="M166.08 29.1C166.068 28.9895 166.079 28.8775 166.112 28.7716C166.146 28.6656 166.202 28.5679 166.276 28.4849C166.35 28.402 166.441 28.3356 166.542 28.2902C166.644 28.2447 166.754 28.2213 166.865 28.2213C166.976 28.2213 167.086 28.2447 167.188 28.2902C167.289 28.3356 167.38 28.402 167.454 28.4849C167.528 28.5679 167.584 28.6656 167.618 28.7716C167.652 28.8775 167.663 28.9895 167.65 29.1V29.1C167.628 29.2929 167.536 29.4711 167.392 29.6004C167.247 29.7298 167.059 29.8013 166.865 29.8013C166.671 29.8013 166.484 29.7298 166.339 29.6004C166.194 29.4711 166.102 29.2929 166.08 29.1Z" fill="black"></path><path d="M163 38.4799C163 38.2731 163.082 38.0747 163.228 37.9284C163.375 37.7821 163.573 37.7 163.78 37.7C163.987 37.7 164.185 37.7821 164.332 37.9284C164.478 38.0747 164.56 38.2731 164.56 38.4799C164.56 38.6868 164.478 38.8852 164.332 39.0315C164.185 39.1778 163.987 39.2599 163.78 39.2599C163.573 39.2599 163.375 39.1778 163.228 39.0315C163.082 38.8852 163 38.6868 163 38.4799Z" fill="black"></path><path d="M163 35.3499C163 35.1431 163.082 34.9447 163.228 34.7984C163.375 34.6521 163.573 34.5699 163.78 34.5699C163.987 34.5699 164.185 34.6521 164.332 34.7984C164.478 34.9447 164.56 35.1431 164.56 35.3499C164.56 35.5568 164.478 35.7552 164.332 35.9015C164.185 36.0478 163.987 36.1299 163.78 36.1299C163.573 36.1299 163.375 36.0478 163.228 35.9015C163.082 35.7552 163 35.5568 163 35.3499Z" fill="black"></path><path d="M163 32.22C163 32.0131 163.082 31.8147 163.228 31.6685C163.375 31.5222 163.573 31.44 163.78 31.44C163.987 31.44 164.185 31.5222 164.332 31.6685C164.478 31.8147 164.56 32.0131 164.56 32.22C164.56 32.4269 164.478 32.6253 164.332 32.7715C164.185 32.9178 163.987 33 163.78 33C163.573 33 163.375 32.9178 163.228 32.7715C163.082 32.6253 163 32.4269 163 32.22Z" fill="black"></path><path d="M163 29.0999C163 28.8931 163.082 28.6947 163.228 28.5484C163.375 28.4021 163.573 28.3199 163.78 28.3199C163.987 28.3199 164.185 28.4021 164.332 28.5484C164.478 28.6947 164.56 28.8931 164.56 29.0999V29.0999C164.56 29.3068 164.478 29.5052 164.332 29.6515C164.185 29.7978 163.987 29.8799 163.78 29.8799C163.573 29.8799 163.375 29.7978 163.228 29.6515C163.082 29.5052 163 29.3068 163 29.0999V29.0999Z" fill="black"></path><path d="M159.81 35.35C159.832 35.1571 159.924 34.9789 160.069 34.8496C160.214 34.7202 160.401 34.6487 160.595 34.6487C160.789 34.6487 160.977 34.7202 161.121 34.8496C161.266 34.9789 161.358 35.1571 161.38 35.35C161.358 35.5429 161.266 35.7211 161.121 35.8504C160.977 35.9798 160.789 36.0513 160.595 36.0513C160.401 36.0513 160.214 35.9798 160.069 35.8504C159.924 35.7211 159.832 35.5429 159.81 35.35Z" fill="black"></path><path d="M159.81 32.22C159.832 32.0271 159.924 31.8489 160.069 31.7196C160.214 31.5902 160.401 31.5187 160.595 31.5187C160.789 31.5187 160.977 31.5902 161.121 31.7196C161.266 31.8489 161.358 32.0271 161.38 32.22C161.393 32.3305 161.382 32.4424 161.348 32.5484C161.314 32.6544 161.258 32.7521 161.184 32.835C161.11 32.918 161.019 32.9844 160.918 33.0298C160.816 33.0752 160.706 33.0987 160.595 33.0987C160.484 33.0987 160.374 33.0752 160.272 33.0298C160.171 32.9844 160.08 32.918 160.006 32.835C159.932 32.7521 159.876 32.6544 159.842 32.5484C159.809 32.4424 159.798 32.3305 159.81 32.22V32.22Z" fill="black"></path><path d="M159.81 29.1C159.798 28.9895 159.809 28.8775 159.842 28.7716C159.876 28.6656 159.932 28.5679 160.006 28.4849C160.08 28.402 160.171 28.3356 160.272 28.2902C160.374 28.2447 160.484 28.2213 160.595 28.2213C160.706 28.2213 160.816 28.2447 160.918 28.2902C161.019 28.3356 161.11 28.402 161.184 28.4849C161.258 28.5679 161.314 28.6656 161.348 28.7716C161.382 28.8775 161.393 28.9895 161.38 29.1V29.1C161.358 29.2929 161.266 29.4711 161.121 29.6004C160.977 29.7298 160.789 29.8013 160.595 29.8013C160.401 29.8013 160.214 29.7298 160.069 29.6004C159.924 29.4711 159.832 29.2929 159.81 29.1Z" fill="black"></path><path d="M156.67 32.22C156.673 32.0122 156.757 31.8138 156.905 31.6678C157.053 31.5218 157.253 31.44 157.46 31.44C157.667 31.44 157.866 31.5222 158.012 31.6685C158.158 31.8147 158.24 32.0131 158.24 32.22V32.22C158.242 32.3233 158.223 32.4258 158.184 32.5216C158.145 32.6174 158.088 32.7045 158.016 32.778C157.943 32.8515 157.857 32.9099 157.761 32.9497C157.666 32.9895 157.564 33.01 157.46 33.01C157.251 33.01 157.05 32.9268 156.902 32.7786C156.754 32.6305 156.67 32.4295 156.67 32.22Z" fill="black"></path><path d="M156.67 29.1C156.67 28.8905 156.754 28.6895 156.902 28.5414C157.05 28.3932 157.251 28.31 157.46 28.31C157.564 28.31 157.666 28.3305 157.761 28.3703C157.857 28.4101 157.943 28.4685 158.016 28.542C158.088 28.6155 158.145 28.7026 158.184 28.7984C158.223 28.8942 158.242 28.9967 158.24 29.1V29.1C158.24 29.3069 158.158 29.5053 158.012 29.6515C157.866 29.7978 157.667 29.88 157.46 29.88C157.253 29.88 157.053 29.7982 156.905 29.6522C156.757 29.5062 156.673 29.3078 156.67 29.1Z" fill="black"></path><path d="M153.54 29.1C153.528 28.9895 153.539 28.8775 153.572 28.7716C153.606 28.6656 153.662 28.5679 153.736 28.4849C153.81 28.402 153.901 28.3356 154.002 28.2902C154.104 28.2447 154.214 28.2213 154.325 28.2213C154.436 28.2213 154.546 28.2447 154.648 28.2902C154.749 28.3356 154.84 28.402 154.914 28.4849C154.988 28.5679 155.044 28.6656 155.078 28.7716C155.112 28.8775 155.123 28.9895 155.11 29.1V29.1C155.088 29.2929 154.996 29.4711 154.851 29.6004C154.707 29.7298 154.519 29.8013 154.325 29.8013C154.131 29.8013 153.944 29.7298 153.799 29.6004C153.654 29.4711 153.562 29.2929 153.54 29.1V29.1Z" fill="black"></path><path d="M169.22 22.84C169.22 22.6331 169.302 22.4347 169.449 22.2885C169.595 22.1422 169.793 22.06 170 22.06C170.208 22.06 170.407 22.1418 170.555 22.2878C170.703 22.4338 170.788 22.6322 170.79 22.84C170.788 23.0478 170.703 23.2462 170.555 23.3922C170.407 23.5382 170.208 23.62 170 23.62C169.793 23.62 169.595 23.5378 169.449 23.3915C169.302 23.2453 169.22 23.0469 169.22 22.84Z" fill="black"></path><path d="M169.22 19.71C169.22 19.5031 169.302 19.3047 169.449 19.1584C169.595 19.0122 169.793 18.93 170 18.93C170.208 18.93 170.407 19.0118 170.555 19.1578C170.703 19.3038 170.788 19.5022 170.79 19.71C170.788 19.9178 170.703 20.1162 170.555 20.2622C170.407 20.4082 170.208 20.49 170 20.49C169.793 20.49 169.595 20.4078 169.449 20.2615C169.302 20.1153 169.22 19.9169 169.22 19.71Z" fill="black"></path><path d="M169.22 16.58C169.22 16.3731 169.302 16.1747 169.449 16.0284C169.595 15.8822 169.793 15.8 170 15.8C170.208 15.8 170.407 15.8818 170.555 16.0278C170.703 16.1738 170.788 16.3722 170.79 16.58C170.788 16.7887 170.704 16.9881 170.556 17.1357C170.408 17.2833 170.209 17.3674 170 17.37C169.792 17.3674 169.594 17.283 169.448 17.1351C169.302 16.9872 169.22 16.7878 169.22 16.58V16.58Z" fill="black"></path><path d="M169.22 13.45C169.22 13.2431 169.302 13.0447 169.449 12.8984C169.595 12.7522 169.793 12.67 170 12.67C170.208 12.67 170.408 12.7518 170.555 12.8978C170.703 13.0438 170.788 13.2422 170.79 13.45V13.45C170.79 13.6595 170.707 13.8604 170.559 14.0086C170.411 14.1568 170.21 14.24 170 14.24C169.897 14.24 169.795 14.2195 169.699 14.1797C169.604 14.1398 169.518 14.0815 169.445 14.008C169.373 13.9345 169.315 13.8473 169.277 13.7515C169.238 13.6558 169.219 13.5533 169.22 13.45V13.45Z" fill="black"></path><path d="M169.22 10.33C169.219 10.2267 169.238 10.1242 169.277 10.0284C169.315 9.93262 169.373 9.84545 169.445 9.77196C169.518 9.69847 169.604 9.64012 169.699 9.60029C169.795 9.56047 169.897 9.53997 170 9.53998C170.21 9.53998 170.411 9.62321 170.559 9.77136C170.707 9.91952 170.79 10.1205 170.79 10.33V10.33C170.788 10.5378 170.703 10.7361 170.555 10.8821C170.408 11.0281 170.208 11.11 170 11.11C169.793 11.11 169.595 11.0278 169.449 10.8815C169.302 10.7352 169.22 10.5368 169.22 10.33V10.33Z" fill="black"></path><path d="M166.08 26C166.102 25.807 166.194 25.6289 166.339 25.4996C166.484 25.3702 166.671 25.2987 166.865 25.2987C167.059 25.2987 167.247 25.3702 167.391 25.4996C167.536 25.6289 167.628 25.807 167.65 26V26C167.628 26.1929 167.536 26.371 167.391 26.5004C167.247 26.6297 167.059 26.7012 166.865 26.7012C166.671 26.7012 166.484 26.6297 166.339 26.5004C166.194 26.371 166.102 26.1929 166.08 26Z" fill="black"></path><path d="M166.08 22.84C166.102 22.6471 166.194 22.4689 166.339 22.3396C166.484 22.2102 166.671 22.1387 166.865 22.1387C167.059 22.1387 167.247 22.2102 167.391 22.3396C167.536 22.4689 167.628 22.6471 167.65 22.84V22.84C167.628 23.0329 167.536 23.2111 167.391 23.3404C167.247 23.4698 167.059 23.5413 166.865 23.5413C166.671 23.5413 166.484 23.4698 166.339 23.3404C166.194 23.2111 166.102 23.0329 166.08 22.84Z" fill="black"></path><path d="M166.08 19.71C166.102 19.5171 166.194 19.3389 166.339 19.2096C166.484 19.0802 166.671 19.0087 166.865 19.0087C167.059 19.0087 167.247 19.0802 167.391 19.2096C167.536 19.3389 167.628 19.5171 167.65 19.71V19.71C167.628 19.9029 167.536 20.0811 167.391 20.2104C167.247 20.3397 167.059 20.4112 166.865 20.4112C166.671 20.4112 166.484 20.3397 166.339 20.2104C166.194 20.0811 166.102 19.9029 166.08 19.71Z" fill="black"></path><path d="M166.08 16.58C166.102 16.3871 166.194 16.2089 166.339 16.0796C166.484 15.9502 166.671 15.8787 166.865 15.8787C167.059 15.8787 167.247 15.9502 167.392 16.0796C167.536 16.2089 167.628 16.3871 167.65 16.58V16.58C167.663 16.6905 167.652 16.8024 167.618 16.9084C167.584 17.0144 167.528 17.1121 167.454 17.195C167.38 17.278 167.289 17.3444 167.188 17.3898C167.086 17.4352 166.976 17.4587 166.865 17.4587C166.754 17.4587 166.644 17.4352 166.542 17.3898C166.441 17.3444 166.35 17.278 166.276 17.195C166.202 17.1121 166.146 17.0144 166.112 16.9084C166.079 16.8024 166.068 16.6905 166.08 16.58V16.58Z" fill="black"></path><path d="M166.08 13.45C166.102 13.2571 166.194 13.0789 166.339 12.9496C166.484 12.8202 166.671 12.7487 166.865 12.7487C167.059 12.7487 167.247 12.8202 167.392 12.9496C167.536 13.0789 167.628 13.2571 167.65 13.45V13.45C167.663 13.5605 167.652 13.6724 167.618 13.7784C167.584 13.8844 167.528 13.9821 167.454 14.065C167.38 14.148 167.289 14.2143 167.188 14.2598C167.086 14.3052 166.976 14.3287 166.865 14.3287C166.754 14.3287 166.644 14.3052 166.542 14.2598C166.441 14.2143 166.35 14.148 166.276 14.065C166.202 13.9821 166.146 13.8844 166.112 13.7784C166.079 13.6724 166.068 13.5605 166.08 13.45V13.45Z" fill="black"></path><path d="M166.08 10.33C166.068 10.2194 166.079 10.1075 166.112 10.0015C166.146 9.89555 166.202 9.79788 166.276 9.71493C166.35 9.63197 166.441 9.56561 166.542 9.52016C166.644 9.47472 166.754 9.45123 166.865 9.45123C166.976 9.45123 167.086 9.47472 167.188 9.52016C167.289 9.56561 167.38 9.63197 167.454 9.71493C167.528 9.79788 167.584 9.89555 167.618 10.0015C167.652 10.1075 167.663 10.2194 167.65 10.33V10.33C167.628 10.5229 167.536 10.701 167.392 10.8304C167.247 10.9597 167.059 11.0312 166.865 11.0312C166.671 11.0312 166.484 10.9597 166.339 10.8304C166.194 10.701 166.102 10.5229 166.08 10.33V10.33Z" fill="black"></path><path d="M172.35 26C172.372 25.807 172.464 25.6289 172.609 25.4996C172.754 25.3702 172.941 25.2987 173.135 25.2987C173.329 25.2987 173.517 25.3702 173.661 25.4996C173.806 25.6289 173.898 25.807 173.92 26V26C173.898 26.1929 173.806 26.371 173.661 26.5004C173.517 26.6297 173.329 26.7012 173.135 26.7012C172.941 26.7012 172.754 26.6297 172.609 26.5004C172.464 26.371 172.372 26.1929 172.35 26V26Z" fill="black"></path><path d="M172.35 22.84C172.372 22.6471 172.464 22.4689 172.609 22.3396C172.754 22.2102 172.941 22.1387 173.135 22.1387C173.329 22.1387 173.517 22.2102 173.661 22.3396C173.806 22.4689 173.898 22.6471 173.92 22.84V22.84C173.898 23.0329 173.806 23.2111 173.661 23.3404C173.517 23.4698 173.329 23.5413 173.135 23.5413C172.941 23.5413 172.754 23.4698 172.609 23.3404C172.464 23.2111 172.372 23.0329 172.35 22.84V22.84Z" fill="black"></path><path d="M172.35 19.71C172.372 19.5171 172.464 19.3389 172.609 19.2096C172.754 19.0802 172.941 19.0087 173.135 19.0087C173.329 19.0087 173.517 19.0802 173.661 19.2096C173.806 19.3389 173.898 19.5171 173.92 19.71V19.71C173.898 19.9029 173.806 20.0811 173.661 20.2104C173.517 20.3397 173.329 20.4112 173.135 20.4112C172.941 20.4112 172.754 20.3397 172.609 20.2104C172.464 20.0811 172.372 19.9029 172.35 19.71V19.71Z" fill="black"></path><path d="M172.35 16.58C172.372 16.3871 172.464 16.2089 172.609 16.0796C172.754 15.9502 172.941 15.8787 173.135 15.8787C173.329 15.8787 173.517 15.9502 173.662 16.0796C173.806 16.2089 173.898 16.3871 173.92 16.58V16.58C173.933 16.6905 173.922 16.8024 173.888 16.9084C173.854 17.0144 173.798 17.1121 173.724 17.195C173.65 17.278 173.559 17.3444 173.458 17.3898C173.356 17.4352 173.246 17.4587 173.135 17.4587C173.024 17.4587 172.914 17.4352 172.812 17.3898C172.711 17.3444 172.62 17.278 172.546 17.195C172.472 17.1121 172.416 17.0144 172.382 16.9084C172.349 16.8024 172.338 16.6905 172.35 16.58V16.58Z" fill="black"></path><path d="M172.35 13.45C172.372 13.2571 172.464 13.0789 172.609 12.9496C172.754 12.8202 172.941 12.7487 173.135 12.7487C173.329 12.7487 173.517 12.8202 173.662 12.9496C173.806 13.0789 173.898 13.2571 173.92 13.45V13.45C173.933 13.5605 173.922 13.6724 173.888 13.7784C173.854 13.8844 173.798 13.9821 173.724 14.065C173.65 14.148 173.559 14.2143 173.458 14.2598C173.356 14.3052 173.246 14.3287 173.135 14.3287C173.024 14.3287 172.914 14.3052 172.812 14.2598C172.711 14.2143 172.62 14.148 172.546 14.065C172.472 13.9821 172.416 13.8844 172.382 13.7784C172.349 13.6724 172.338 13.5605 172.35 13.45V13.45Z" fill="black"></path><path d="M172.35 10.33C172.338 10.2194 172.349 10.1075 172.382 10.0015C172.416 9.89555 172.472 9.79788 172.546 9.71493C172.62 9.63197 172.711 9.56561 172.812 9.52016C172.914 9.47472 173.024 9.45123 173.135 9.45123C173.246 9.45123 173.356 9.47472 173.458 9.52016C173.559 9.56561 173.65 9.63197 173.724 9.71493C173.798 9.79788 173.854 9.89555 173.888 10.0015C173.922 10.1075 173.933 10.2194 173.92 10.33V10.33C173.898 10.5229 173.806 10.701 173.662 10.8304C173.517 10.9597 173.329 11.0312 173.135 11.0312C172.941 11.0312 172.754 10.9597 172.609 10.8304C172.464 10.701 172.372 10.5229 172.35 10.33V10.33Z" fill="black"></path><path d="M277 131.79H50.9403C46.9354 131.795 42.9708 132.589 39.273 134.127C35.5751 135.665 32.2164 137.916 29.3888 140.752C26.5611 143.588 24.3198 146.953 22.793 150.656C21.2662 154.358 20.4837 158.325 20.4903 162.33L20.8303 370.78L307.83 368.78L307.5 162.23C307.487 154.15 304.267 146.407 298.549 140.699C292.83 134.992 285.08 131.787 277 131.79V131.79Z" stroke="#060606"></path><path d="M274.87 141.52H241.56C238.67 141.52 236.8 143.66 236.12 147.52C233.83 161.23 226.35 162.17 224.12 162.17H103.75C101.54 162.17 93.9804 161.17 91.7504 147.52C91.1504 143.66 89.2804 141.52 86.3104 141.52H53.0004C40.9404 141.52 30.1504 154.37 30.1504 166.63C30.1504 170.383 30.2037 238.27 30.3104 370.29L297.86 368.61C297.747 236.063 297.694 168.73 297.7 166.61C297.81 154.37 286.93 141.52 274.87 141.52Z" fill="#151515" stroke="#0F0F0F"></path><path d="M132.21 187.89L129.47 183.08H131.47L133.08 186.24H133.15L135.01 183.08H136.88L133.97 187.88V190.29H132.17L132.21 187.89Z" fill="white"></path><path d="M140.2 182.94C140.695 182.903 141.192 182.975 141.656 183.149C142.121 183.323 142.542 183.596 142.891 183.948C143.24 184.301 143.508 184.725 143.677 185.192C143.846 185.658 143.912 186.156 143.87 186.65C143.87 187.629 143.482 188.567 142.79 189.259C142.098 189.951 141.159 190.34 140.18 190.34C139.202 190.34 138.263 189.951 137.571 189.259C136.879 188.567 136.49 187.629 136.49 186.65C136.455 186.154 136.526 185.655 136.7 185.189C136.874 184.723 137.146 184.299 137.498 183.947C137.85 183.595 138.273 183.323 138.739 183.15C139.206 182.976 139.704 182.904 140.2 182.94V182.94ZM140.2 188.94C141.26 188.94 142.05 188.22 142.05 186.63C142.05 185.04 141.26 184.47 140.21 184.47C139.16 184.47 138.37 185.17 138.37 186.69C138.37 188.21 139.14 188.92 140.17 188.92L140.2 188.94Z" fill="white"></path><path d="M151.47 183.08V186.83C151.491 187.293 151.417 187.755 151.255 188.189C151.092 188.623 150.844 189.02 150.525 189.356C150.206 189.692 149.822 189.96 149.397 190.145C148.972 190.329 148.514 190.426 148.05 190.43C146.05 190.43 144.63 189.25 144.63 186.83V183.08H146.43V186.83C146.43 188.12 147 188.74 148.05 188.74C148.286 188.731 148.516 188.673 148.728 188.57C148.94 188.466 149.128 188.32 149.28 188.141C149.432 187.961 149.546 187.752 149.613 187.526C149.68 187.301 149.7 187.064 149.67 186.83V183.08H151.47Z" fill="white"></path><path d="M154.94 190.29V183.08H160.06V184.7H156.74V185.92H159.43V187.45H156.74V188.67H160.06V190.29H154.94Z" fill="white"></path><path d="M165.22 188.91H162.58L162.09 190.29H160.17L163.06 183.08H164.91L167.62 190.29H165.62L165.22 188.91ZM163.1 187.44H164.75L164 185L163.1 187.44Z" fill="white"></path><path d="M168.16 183.08H171.57C171.896 183.062 172.222 183.114 172.526 183.232C172.831 183.35 173.107 183.531 173.336 183.764C173.564 183.996 173.741 184.275 173.854 184.581C173.967 184.888 174.013 185.214 173.99 185.54C174.004 185.993 173.894 186.44 173.671 186.835C173.449 187.23 173.124 187.556 172.73 187.78L173.99 190.29H171.99L170.99 188.08H169.99V190.29H168.19L168.16 183.08ZM169.96 184.7V186.55H171.13C171.26 186.563 171.391 186.55 171.514 186.509C171.638 186.469 171.752 186.403 171.849 186.316C171.946 186.229 172.023 186.122 172.076 186.003C172.129 185.884 172.156 185.755 172.156 185.625C172.156 185.495 172.129 185.366 172.076 185.247C172.023 185.128 171.946 185.021 171.849 184.934C171.752 184.847 171.638 184.781 171.514 184.741C171.391 184.7 171.26 184.686 171.13 184.7H169.96Z" fill="white"></path><path d="M176.94 186.12H176.85V190.29H175.05V183.08H176.72L180.36 187.54H180.45V183.08H182.25V190.29H180.36L176.94 186.12Z" fill="white"></path><path d="M183.52 190.29V183.08H188.64V184.7H185.31V185.92H188V187.45H185.3V188.67H188.63V190.29H183.52Z" fill="white"></path><path d="M189.54 183.08H192.26C192.74 183.068 193.217 183.152 193.664 183.328C194.111 183.504 194.517 183.767 194.861 184.103C195.204 184.438 195.476 184.839 195.661 185.282C195.847 185.725 195.942 186.2 195.94 186.68C195.922 187.644 195.526 188.562 194.838 189.237C194.15 189.912 193.224 190.29 192.26 190.29H189.54V183.08ZM191.34 184.7V188.7H192.26C192.79 188.7 193.299 188.489 193.674 188.114C194.049 187.739 194.26 187.23 194.26 186.7C194.26 186.17 194.049 185.661 193.674 185.286C193.299 184.911 192.79 184.7 192.26 184.7H191.34Z" fill="white"></path><path d="M322.93 243.64L328.33 235.29" stroke="black" stroke-linecap="square"></path><path d="M319.33 250.29H5.33008C3.67322 250.29 2.33008 251.633 2.33008 253.29V307.29C2.33008 308.947 3.67322 310.29 5.33008 310.29H319.33C320.987 310.29 322.33 308.947 322.33 307.29V253.29C322.33 251.633 320.987 250.29 319.33 250.29Z" fill="white" stroke="#0B0B0B"></path><path d="M312.33 256.29H231.33C229.673 256.29 228.33 257.633 228.33 259.29V300.29C228.33 301.947 229.673 303.29 231.33 303.29H312.33C313.987 303.29 315.33 301.947 315.33 300.29V259.29C315.33 257.633 313.987 256.29 312.33 256.29Z" fill="#3DE892" stroke="#0B0B0B"></path><path d="M262.44 281.71C262.54 281.94 262.592 282.189 262.59 282.44C262.492 283.073 262.263 283.679 261.919 284.219C261.575 284.76 261.122 285.223 260.59 285.58C259.762 286.171 258.768 286.486 257.75 286.48C257.078 286.495 256.413 286.337 255.82 286.02C255.193 285.622 254.679 285.068 254.328 284.413C253.978 283.758 253.803 283.023 253.82 282.28C253.74 277.84 257.68 273.85 260.16 272.73C260.713 272.504 261.303 272.378 261.9 272.36C262.416 272.342 262.922 272.504 263.33 272.82C263.702 273.105 264.011 273.463 264.238 273.873C264.465 274.282 264.605 274.734 264.65 275.2C264.646 275.642 264.54 276.076 264.34 276.47C264.017 277.116 263.739 277.785 263.51 278.47C263.496 278.562 263.458 278.65 263.399 278.722C263.34 278.795 263.263 278.851 263.176 278.885C263.089 278.918 262.994 278.928 262.902 278.913C262.809 278.898 262.722 278.859 262.65 278.8C262.415 278.651 262.223 278.443 262.092 278.198C261.96 277.953 261.894 277.678 261.9 277.4C261.901 277.122 261.945 276.845 262.03 276.58C262.135 276.239 262.262 275.905 262.41 275.58C262.71 274.81 262.98 274.1 262.71 273.82C262.19 273.25 259.06 275.16 257.24 278.11C256.369 279.522 255.889 281.141 255.85 282.8C255.85 284.69 256.69 285.52 257.48 285.52C258.69 285.52 260.25 284.12 261.53 281.67C261.56 281.57 261.623 281.483 261.708 281.422C261.793 281.362 261.896 281.332 262.001 281.336C262.105 281.341 262.205 281.38 262.284 281.448C262.364 281.515 262.419 281.608 262.44 281.71V281.71Z" fill="#191919"></path><path d="M273 273.13C273.653 273.448 274.194 273.956 274.551 274.588C274.909 275.221 275.065 275.947 275 276.67C274.933 278.444 274.45 280.177 273.59 281.73C272.09 284.46 269.87 286.73 267.34 286.73C266.838 286.733 266.339 286.641 265.87 286.46C265.037 286.145 264.33 285.566 263.857 284.811C263.384 284.056 263.171 283.167 263.25 282.28C263.25 277.64 267.38 273.57 269.89 272.69C270.313 272.538 270.761 272.463 271.21 272.47C271.538 272.453 271.865 272.503 272.173 272.616C272.481 272.73 272.762 272.904 273 273.13ZM271.57 281C272.469 279.43 272.98 277.667 273.06 275.86C273.06 274.8 272.84 274.09 272.38 273.92C271.38 273.57 268.82 275.02 266.81 278.08C265.819 279.586 265.265 281.338 265.21 283.14C265.21 284.68 265.76 285.54 266.59 285.54C268 285.52 270 283.84 271.57 281Z" fill="#191919"></path><path d="M273.19 284.11C274.34 281.007 275.825 278.04 277.62 275.26C277.339 275.215 277.075 275.1 276.851 274.925C276.627 274.75 276.451 274.521 276.34 274.26C276.19 273.93 276.27 273.74 276.76 273.69C277.611 273.588 278.445 273.373 279.24 273.05C280.01 272.76 280.819 272.585 281.64 272.53C282.259 272.429 282.893 272.566 283.416 272.912C283.939 273.259 284.312 273.79 284.46 274.4C284.676 275.039 284.727 275.723 284.609 276.387C284.49 277.052 284.205 277.675 283.78 278.2C283.07 279.239 282.154 280.121 281.089 280.792C280.024 281.463 278.833 281.908 277.59 282.1C277.1 282.193 276.595 282.162 276.12 282.01C275.52 283.15 274.82 284.56 274.12 286.26C273.94 286.65 273.77 286.65 273.46 286.34C273.315 286.185 273.203 286.003 273.13 285.803C273.058 285.604 273.027 285.392 273.04 285.18C273.043 284.818 273.094 284.459 273.19 284.11V284.11ZM276.98 280.39C281.36 279.39 283.49 276.19 283.09 274.71C283.032 274.574 282.935 274.458 282.809 274.379C282.684 274.301 282.538 274.262 282.39 274.27C281.678 274.36 280.982 274.545 280.32 274.82C279.97 274.95 279.79 275.02 279.49 275.11C279.37 275.942 279.085 276.741 278.65 277.46C278.45 277.79 278.23 278.19 277 280.39H276.98Z" fill="#191919"></path><path d="M284.24 286.42C284.08 286.84 283.86 286.95 283.53 286.66C283.184 286.3 282.994 285.819 283 285.32C283.002 284.954 283.056 284.591 283.16 284.24C283.543 283.174 283.991 282.132 284.5 281.12C284.495 278.441 284.703 275.766 285.12 273.12C285.23 272.59 285.45 272.54 285.8 272.74C286.174 273.066 286.461 273.48 286.635 273.944C286.81 274.408 286.866 274.908 286.8 275.4C286.8 276.61 286.58 277.52 286.49 279.1C288.49 276.97 291.16 274.37 292.85 272.83C293.25 272.46 293.56 272.52 293.64 272.83C293.8 273.49 293.64 274.62 292.32 275.91C289.79 278.31 288.21 279.81 286.23 281.91C285.476 283.372 284.812 284.878 284.24 286.42V286.42Z" fill="#191919"></path><path d="M138.51 208.92C139.043 208.695 139.625 208.609 140.2 208.67C140.92 207.41 141.64 206.3 142.28 205.22C142.78 204.39 143.22 204.35 143.65 205.15C143.9 205.58 143.97 206.95 142.5 209.75C142.92 210.164 143.259 210.652 143.5 211.19C143.96 212.42 143.32 213.71 141.95 216.56C141.62 217.28 141.27 217.24 140.62 216.84C140.303 216.676 140.035 216.43 139.846 216.127C139.656 215.825 139.55 215.477 139.54 215.12C139.626 214.251 139.91 213.412 140.37 212.67C140.73 211.88 141.16 211.01 140.91 210.83C140.29 210.36 136.37 212.74 136.37 215.33C136.37 216.27 137.52 217.02 138.67 217.64C139.82 218.26 140.83 219.11 140.83 219.83C140.761 220.642 140.372 221.394 139.75 221.92C139.34 222.314 138.855 222.622 138.325 222.826C137.794 223.03 137.228 223.127 136.66 223.11C136.261 223.11 135.863 223.073 135.47 223C135.15 223.65 134.89 224.22 134.57 224.87C133.57 226.87 133.24 226.87 132.73 226.24C132.22 225.61 132.23 225.01 132.84 223.47L133.38 222.13C132.45 221.496 131.635 220.708 130.97 219.8C130.72 219.47 130.83 219.04 131.44 218.93C131.887 218.788 132.363 218.77 132.819 218.877C133.276 218.984 133.694 219.214 134.03 219.54C135.51 220.77 135.83 221.24 137.03 221.34C137.225 221.359 137.422 221.337 137.608 221.275C137.794 221.213 137.965 221.112 138.11 220.98C138.4 220.7 138.26 220.41 138.01 220.19C137.614 219.851 137.177 219.562 136.71 219.33C135.09 218.43 133.11 217.28 133.11 215.51C133.07 212.42 136.06 209.93 138.51 208.92Z" fill="#FF883E"></path><path d="M153.59 215.4C154.296 215.573 154.918 215.99 155.347 216.577C155.775 217.165 155.981 217.885 155.93 218.61C155.93 220.12 155.1 222.03 153.44 224.08C152.668 225.077 151.682 225.888 150.556 226.454C149.429 227.019 148.19 227.326 146.93 227.35C145.696 227.349 144.487 227.003 143.44 226.35C142.744 225.938 142.165 225.353 141.761 224.653C141.356 223.952 141.139 223.159 141.13 222.35C141.144 221.756 141.266 221.17 141.49 220.62C141.743 219.947 142.182 219.359 142.755 218.926C143.329 218.492 144.013 218.23 144.73 218.17C145.35 218.17 145.56 218.6 145.35 219C144.6 220.212 144.141 221.581 144.01 223C143.982 223.272 144.011 223.546 144.093 223.806C144.176 224.066 144.311 224.307 144.489 224.513C144.668 224.719 144.888 224.886 145.134 225.004C145.38 225.123 145.647 225.189 145.92 225.2C147.4 225.2 149.38 223.94 150.82 222.14C151.883 220.962 152.578 219.498 152.82 217.93C152.838 217.782 152.823 217.632 152.776 217.49C152.729 217.349 152.651 217.219 152.547 217.112C152.444 217.005 152.318 216.922 152.178 216.87C152.038 216.817 151.888 216.797 151.74 216.81C151.403 216.83 151.069 216.876 150.74 216.95C150.303 217.043 149.857 217.094 149.41 217.1C148.939 217.083 148.477 216.973 148.049 216.775C147.622 216.578 147.238 216.297 146.92 215.95C146.71 215.55 146.74 215.15 147.43 214.95C153.58 213.11 156.82 209.48 156.82 207.43C156.839 207.283 156.829 207.133 156.788 206.99C156.748 206.848 156.679 206.715 156.585 206.599C156.491 206.484 156.375 206.389 156.244 206.321C156.112 206.252 155.968 206.211 155.82 206.2C154.82 206.2 153.27 207.71 152.05 209.3C150.83 210.89 149.45 211.67 147.83 211.3C147.19 211.19 146.93 210.83 147.19 210.36C148.442 208.062 150.295 206.147 152.55 204.82C153.317 204.465 154.155 204.29 155 204.31C155.584 204.281 156.167 204.368 156.717 204.567C157.266 204.766 157.771 205.073 158.2 205.47C158.597 205.84 158.917 206.285 159.14 206.779C159.363 207.274 159.486 207.808 159.5 208.35C159.46 210.33 157.94 213.32 153.59 215.4Z" fill="#FF883E"></path><path d="M154.78 225C154.958 224.502 155.314 224.088 155.779 223.836C156.244 223.585 156.786 223.515 157.3 223.64C158.16 223.92 158.45 224.97 158.02 226.01C157.848 226.508 157.501 226.927 157.042 227.186C156.583 227.446 156.046 227.529 155.53 227.42C155.321 227.312 155.135 227.163 154.984 226.982C154.833 226.801 154.719 226.592 154.649 226.367C154.579 226.142 154.555 225.905 154.577 225.67C154.6 225.436 154.669 225.208 154.78 225Z" fill="#FF883E"></path><path d="M172 221.45C171.988 222.297 171.8 223.132 171.447 223.901C171.094 224.671 170.584 225.359 169.95 225.92C168.475 227.257 166.54 227.974 164.55 227.92C163.647 227.954 162.748 227.783 161.92 227.42C161.149 227.101 160.488 226.562 160.021 225.87C159.553 225.178 159.299 224.365 159.29 223.53C159.355 222.35 159.697 221.202 160.29 220.18C161.718 217.935 163.533 215.961 165.65 214.35C165.094 213.248 164.823 212.024 164.86 210.79C165.172 209.615 165.746 208.526 166.537 207.603C167.328 206.681 168.317 205.948 169.43 205.46C170.286 205.106 171.203 204.922 172.13 204.92C174.4 204.92 176.13 206.14 176.13 208.55C176.368 208.512 176.609 208.488 176.85 208.48C177.309 208.427 177.772 208.545 178.15 208.81C178.234 208.867 178.301 208.945 178.346 209.036C178.39 209.128 178.41 209.229 178.402 209.33C178.395 209.431 178.362 209.529 178.305 209.613C178.249 209.697 178.171 209.765 178.08 209.81C175.202 211.402 172.423 213.169 169.76 215.1C171.7 218.93 172 220.19 172 221.45ZM167 217.31C165.263 218.686 163.841 220.418 162.83 222.39C162.534 222.997 162.361 223.656 162.32 224.33C162.302 224.562 162.334 224.795 162.415 225.013C162.496 225.231 162.622 225.429 162.787 225.593C162.951 225.758 163.149 225.885 163.367 225.965C163.585 226.046 163.818 226.078 164.05 226.06C164.597 226.033 165.133 225.899 165.627 225.663C166.122 225.428 166.564 225.097 166.93 224.69C167.377 224.282 167.738 223.789 167.993 223.239C168.247 222.69 168.389 222.095 168.41 221.49C168.21 220.02 167.731 218.601 167 217.31V217.31ZM168.58 212.31C170.035 211.297 171.577 210.416 173.19 209.68C173.3 208.1 172.72 206.59 171.54 206.77C169.95 207.02 168.37 209.07 168.37 210.87C168.371 211.343 168.435 211.814 168.56 212.27L168.58 212.31Z" fill="#FF883E"></path><path d="M185.3 215.4C186.006 215.573 186.628 215.99 187.057 216.577C187.485 217.165 187.692 217.885 187.64 218.61C187.64 220.12 186.82 222.03 185.16 224.08C184.385 225.076 183.398 225.886 182.27 226.452C181.142 227.018 179.902 227.324 178.64 227.35C177.406 227.349 176.197 227.003 175.15 226.35C174.456 225.936 173.881 225.351 173.478 224.65C173.075 223.95 172.859 223.158 172.85 222.35C172.864 221.756 172.986 221.17 173.21 220.62C173.462 219.946 173.9 219.358 174.474 218.924C175.048 218.49 175.733 218.229 176.45 218.17C177.06 218.17 177.28 218.6 177.06 219C176.317 220.214 175.862 221.583 175.73 223C175.703 223.272 175.731 223.546 175.813 223.806C175.896 224.066 176.031 224.307 176.21 224.513C176.389 224.719 176.608 224.886 176.854 225.004C177.1 225.123 177.367 225.189 177.64 225.2C179.11 225.2 181.09 223.94 182.53 222.14C183.591 220.961 184.286 219.498 184.53 217.93C184.549 217.782 184.534 217.632 184.487 217.49C184.439 217.349 184.361 217.219 184.258 217.112C184.154 217.005 184.028 216.922 183.888 216.87C183.748 216.817 183.599 216.797 183.45 216.81C183.097 216.827 182.745 216.874 182.4 216.95C181.963 217.044 181.517 217.094 181.07 217.1C180.601 217.084 180.14 216.974 179.714 216.776C179.288 216.579 178.906 216.298 178.59 215.95C178.37 215.55 178.41 215.15 179.09 214.95C185.25 213.11 188.49 209.48 188.49 207.43C188.508 207.283 188.496 207.134 188.455 206.992C188.414 206.85 188.345 206.717 188.252 206.602C188.158 206.487 188.043 206.393 187.912 206.323C187.781 206.254 187.638 206.212 187.49 206.2C186.49 206.2 184.93 207.71 183.71 209.3C182.49 210.89 181.12 211.67 179.5 211.3C178.85 211.19 178.6 210.83 178.85 210.36C180.105 208.064 181.957 206.15 184.21 204.82C184.977 204.466 185.815 204.291 186.66 204.31C187.245 204.281 187.83 204.369 188.382 204.568C188.933 204.767 189.439 205.074 189.87 205.47C190.264 205.841 190.581 206.287 190.803 206.781C191.024 207.276 191.145 207.809 191.16 208.35C191.17 210.33 189.66 213.32 185.3 215.4Z" fill="#FF883E"></path><path d="M26.0001 279.36C26.4607 279.482 26.8677 279.753 27.1573 280.131C27.4469 280.51 27.6027 280.974 27.6001 281.45C27.6001 283.39 25.6001 284.45 23.4401 284.45C22.5425 284.469 21.6537 284.27 20.8501 283.87L21.0601 281.87C21.8579 282.24 22.7214 282.447 23.6001 282.48C24.4601 282.48 25.0801 282.11 25.0801 281.48C25.0801 280.85 24.2001 280.3 22.7301 280.38L22.4501 278.87C24.1101 278.55 24.9801 278.19 24.9801 277.5C24.9801 276.81 24.4001 276.58 23.6301 276.57C22.8061 276.591 21.9982 276.804 21.2701 277.19L21.0001 275.35C21.8979 274.785 22.9393 274.49 24.0001 274.5C25.8401 274.5 27.5601 275.38 27.5601 277.07C27.5562 277.563 27.4058 278.044 27.1281 278.452C26.8503 278.86 26.4577 279.176 26.0001 279.36V279.36Z" fill="#191919"></path><path d="M28.8799 274.69H31.2799V282H38.6999V284.28H28.8799V274.69Z" fill="#191919"></path><path d="M44.3601 279.33L51.0501 284.33H47.4101L42.4801 280.67H42.0001V284.33H39.6001V274.73H42.0001V278.39H42.4301L47.5601 274.73H51.0301L44.3601 279.33Z" fill="#191919"></path><path d="M58.4203 276.8H57.5303C55.4603 276.8 54.4403 277.66 54.0103 278.72C54.6429 278.377 55.3505 278.195 56.0703 278.19C56.4614 278.165 56.8535 278.221 57.2215 278.356C57.5896 278.491 57.9254 278.701 58.2077 278.973C58.49 279.245 58.7125 279.573 58.861 279.936C59.0095 280.298 59.0808 280.688 59.0703 281.08C59.0703 283.14 57.3603 284.51 55.0703 284.51C52.6303 284.51 51.1903 282.92 51.1903 280.41C51.1822 279.635 51.3291 278.866 51.6224 278.148C51.9157 277.43 52.3494 276.778 52.8981 276.231C53.4468 275.683 54.0994 275.25 54.8175 274.958C55.5357 274.666 56.305 274.521 57.0803 274.53H57.6303L58.4203 276.8ZM53.7203 280.28C53.7203 281.6 54.2403 282.56 55.2603 282.56C55.4383 282.563 55.615 282.529 55.7796 282.462C55.9442 282.394 56.0933 282.293 56.2178 282.166C56.3423 282.039 56.4395 281.887 56.5035 281.721C56.5676 281.555 56.5971 281.378 56.5903 281.2C56.5903 280.4 55.9203 280.02 55.0903 280.02C54.6221 280.028 54.1587 280.116 53.7203 280.28V280.28Z" fill="#191919"></path><path d="M63 280.39V278.59H67.62V280.39H63Z" fill="#191919"></path><path d="M71.9302 280.18L72.3902 274.69H78.3902L78.2102 276.79H74.4102L74.2402 278.41C76.7602 278.53 78.5502 279.27 78.5502 281.28C78.5502 283.01 77.1702 284.47 74.5502 284.47C73.5705 284.475 72.6026 284.256 71.7202 283.83L71.8402 281.83C72.657 282.251 73.5614 282.474 74.4802 282.48C75.8002 282.48 76.1702 282.01 76.1702 281.54C76.1202 280.65 74.6402 280.34 71.9302 280.18Z" fill="#191919"></path><path d="M86.3902 276.8H85.5102C83.4302 276.8 82.4102 277.66 81.9802 278.72C82.6129 278.377 83.3204 278.195 84.0402 278.19C84.4314 278.165 84.8235 278.221 85.1915 278.356C85.5595 278.491 85.8954 278.701 86.1777 278.973C86.46 279.245 86.6825 279.573 86.831 279.936C86.9795 280.298 87.0508 280.688 87.0402 281.08C87.0402 283.14 85.3302 284.51 83.0402 284.51C80.5902 284.51 79.1502 282.92 79.1502 280.41C79.1422 279.635 79.2891 278.866 79.5824 278.148C79.8756 277.43 80.3094 276.778 80.858 276.231C81.4067 275.683 82.0593 275.25 82.7775 274.958C83.4957 274.666 84.265 274.521 85.0402 274.53H85.5902L86.3902 276.8ZM81.6902 280.28C81.6902 281.6 82.2102 282.56 83.2302 282.56C83.4082 282.563 83.5849 282.529 83.7496 282.462C83.9142 282.394 84.0633 282.293 84.1878 282.166C84.3122 282.039 84.4094 281.887 84.4735 281.721C84.5375 281.555 84.567 281.378 84.5602 281.2C84.5602 280.4 83.8902 280.02 83.0602 280.02C82.592 280.028 82.1287 280.116 81.6902 280.28V280.28Z" fill="#191919"></path><path d="M88.1299 274.69H95.5399C96.2996 274.624 97.0589 274.822 97.6886 275.252C98.3183 275.683 98.7796 276.317 98.9941 277.049C99.2086 277.781 99.163 278.565 98.8651 279.267C98.5671 279.969 98.0353 280.546 97.3599 280.9L99.0799 284.29H96.3799L95.0499 281.35H90.5199V284.29H88.1299V274.69ZM90.5199 276.85V279.31H95.1899C96.3599 279.31 96.6299 278.64 96.6299 278.03C96.6299 277.42 96.3599 276.85 95.1899 276.85H90.5199Z" fill="#191919"></path><path d="M103.59 274.5C106.36 274.5 107.59 276.6 107.59 279.5C107.59 282.4 106.4 284.5 103.59 284.5C100.78 284.5 99.5903 282.4 99.5903 279.5C99.5903 276.6 100.82 274.5 103.59 274.5ZM103.59 282.39C104.85 282.39 105.14 280.9 105.14 279.39C105.14 278.19 104.97 276.59 103.62 276.59C102.27 276.59 102.02 278.07 102.02 279.48C102.02 280.89 102.32 282.39 103.6 282.39H103.59Z" fill="#191919"></path><path d="M111.66 280.39V278.59H116.27V280.39H111.66Z" fill="#191919"></path><path d="M126.94 282.69V284.29H124.57V282.69H120.18V280.59L122.7 274.69H125.32L122.7 280.59H124.57V278.59H126.94V280.59H127.77V282.69H126.94Z" fill="#191919"></path><path d="M128.78 274.69H131.18V282H138.6V284.28H128.78V274.69Z" fill="#191919"></path><path d="M144.26 279.33L150.95 284.33H147.3L142.38 280.67H141.93V284.33H139.53V274.73H141.93V278.39H142.36L147.48 274.73H151L144.26 279.33Z" fill="#191919"></path><path d="M151.35 284.29V282.19H153.48V277.19L151.35 277.49V275.33L155.48 274.54H155.87V282.23H157.87V284.33L151.35 284.29Z" fill="#191919"></path><path d="M161.64 280.39V278.59H166.25V280.39H161.64Z" fill="#191919"></path><path d="M171.2 284.29L174.1 276.95H170L170.28 274.7H176.84L176.96 275.27L173.66 284.27L171.2 284.29Z" fill="#191919"></path><path d="M182.39 279.33L189.09 284.33H185.44L180.51 280.67H180.07V284.33H177.67V274.73H180.07V278.39H180.5L185.62 274.73H189.1L182.39 279.33Z" fill="#191919"></path><path d="M189.79 274.69H192.19V282H199.61V284.28H189.79V274.69Z" fill="#191919"></path><path d="M201.68 279.73C201.259 279.561 200.898 279.27 200.645 278.894C200.392 278.517 200.258 278.074 200.26 277.62C200.26 275.62 201.97 274.5 204.02 274.5C206.07 274.5 207.48 275.58 207.48 277.04C207.462 277.482 207.312 277.908 207.051 278.265C206.789 278.621 206.426 278.891 206.01 279.04C206.468 279.206 206.862 279.511 207.136 279.913C207.411 280.315 207.552 280.793 207.54 281.28C207.54 283.48 205.42 284.47 203.59 284.47C201.92 284.47 200.17 283.66 200.17 281.83C200.168 281.365 200.312 280.912 200.584 280.535C200.855 280.157 201.239 279.876 201.68 279.73V279.73ZM203 280.23C202.8 280.361 202.632 280.535 202.508 280.739C202.383 280.943 202.305 281.172 202.28 281.41C202.28 282.15 202.85 282.64 203.92 282.64C204.99 282.64 205.21 282.13 205.21 281.58C205.21 280.83 204.14 280.59 203 280.23ZM204.55 278.55C204.75 278.429 204.915 278.256 205.027 278.051C205.14 277.846 205.196 277.614 205.19 277.38C205.19 276.81 204.73 276.3 203.8 276.3C202.87 276.3 202.5 276.73 202.5 277.3C202.5 278 203.45 278.25 204.55 278.55Z" fill="#191919"></path><path d="M328.98 247.66L344.67 238.91" stroke="black" stroke-linecap="square"></path><path d="M328.94 256.79L339.02 255.04" stroke="black" stroke-linecap="square"></path><path d="M265.83 211.29C265.6 211.296 265.375 211.223 265.193 211.083C265.011 210.942 264.883 210.744 264.83 210.52C264.04 206.99 263.59 206.52 260.07 205.75C259.858 205.692 259.671 205.567 259.538 205.392C259.404 205.218 259.332 205.005 259.332 204.785C259.332 204.565 259.404 204.352 259.538 204.178C259.671 204.003 259.858 203.878 260.07 203.82C263.59 203.03 264.07 202.58 264.83 199.06C264.883 198.836 265.011 198.638 265.193 198.497C265.375 198.357 265.6 198.284 265.83 198.29C266.06 198.284 266.284 198.357 266.467 198.497C266.649 198.638 266.777 198.836 266.83 199.06C267.63 202.58 268.07 203.06 271.6 203.82C271.812 203.878 271.999 204.003 272.132 204.178C272.265 204.352 272.338 204.565 272.338 204.785C272.338 205.005 272.265 205.218 272.132 205.392C271.999 205.567 271.812 205.692 271.6 205.75C268.07 206.55 267.6 206.99 266.83 210.52C266.777 210.744 266.649 210.942 266.467 211.083C266.284 211.223 266.06 211.296 265.83 211.29Z" fill="#FF883E"></path><path d="M66.2099 122.22C66.0068 122.22 65.8098 122.151 65.6515 122.023C65.4932 121.896 65.3833 121.718 65.3399 121.52C64.6199 118.28 64.2099 117.87 61.0199 117.14C60.821 117.092 60.644 116.979 60.5173 116.819C60.3907 116.658 60.3218 116.459 60.3218 116.255C60.3218 116.05 60.3907 115.852 60.5173 115.691C60.644 115.531 60.821 115.418 61.0199 115.37C64.2099 114.64 64.6199 114.23 65.3399 110.99C65.3828 110.791 65.4926 110.613 65.6509 110.485C65.8092 110.357 66.0065 110.288 66.2099 110.288C66.4134 110.288 66.6107 110.357 66.769 110.485C66.9273 110.613 67.0371 110.791 67.0799 110.99C67.7999 114.23 68.2099 114.64 71.3999 115.37C71.5988 115.418 71.7759 115.531 71.9025 115.691C72.0292 115.852 72.0981 116.05 72.0981 116.255C72.0981 116.459 72.0292 116.658 71.9025 116.819C71.7759 116.979 71.5988 117.092 71.3999 117.14C68.2099 117.87 67.7999 118.28 67.0799 121.52C67.0366 121.718 66.9266 121.896 66.7684 122.023C66.6101 122.151 66.4131 122.22 66.2099 122.22V122.22Z" fill="white" stroke="#262626"></path><path d="M275.37 184.55C275.162 184.55 274.959 184.479 274.797 184.347C274.635 184.216 274.523 184.034 274.48 183.83C273.73 180.5 273.32 180.08 270.04 179.33C269.838 179.278 269.66 179.16 269.532 178.995C269.405 178.831 269.335 178.628 269.335 178.42C269.335 178.212 269.405 178.009 269.532 177.845C269.66 177.68 269.838 177.562 270.04 177.51C273.32 176.76 273.73 176.34 274.48 173.01C274.523 172.806 274.635 172.624 274.797 172.493C274.959 172.361 275.162 172.29 275.37 172.29C275.579 172.291 275.782 172.363 275.945 172.494C276.108 172.624 276.223 172.806 276.27 173.01C277.01 176.34 277.42 176.76 280.7 177.51C280.902 177.562 281.08 177.68 281.208 177.845C281.335 178.009 281.404 178.212 281.404 178.42C281.404 178.628 281.335 178.831 281.208 178.995C281.08 179.16 280.902 179.278 280.7 179.33C277.42 180.08 277.01 180.5 276.27 183.83C276.223 184.034 276.108 184.216 275.945 184.346C275.782 184.477 275.579 184.549 275.37 184.55Z" fill="white" stroke="#262626"></path><path d="M250.24 184.35C250.88 184.98 250.69 185.69 249.81 185.93L241.81 188.06C240.93 188.29 240.41 187.77 240.64 186.9L242.79 178.9C242.801 178.719 242.87 178.546 242.985 178.405C243.099 178.264 243.256 178.163 243.431 178.116C243.606 178.068 243.792 178.077 243.962 178.141C244.132 178.204 244.278 178.319 244.38 178.47L250.24 184.35Z" fill="#F24976" stroke="#101010"></path><path d="M310 124.49C310.64 125.13 310.45 125.84 309.57 126.08L301.57 128.21C300.69 128.44 300.17 127.92 300.4 127.05L302.55 119.05C302.562 118.869 302.63 118.696 302.745 118.555C302.86 118.414 303.016 118.313 303.191 118.266C303.367 118.218 303.552 118.227 303.722 118.291C303.893 118.354 304.039 118.469 304.14 118.62L310 124.49Z" fill="#F24976" stroke="#101010"></path><path d="M244 135.55C244.15 135.651 244.265 135.796 244.329 135.965C244.393 136.135 244.402 136.32 244.356 136.495C244.31 136.67 244.21 136.826 244.071 136.941C243.932 137.057 243.76 137.127 243.58 137.14L235.58 139.29C234.7 139.53 234.18 139 234.41 138.13L236.56 130.13C236.576 129.95 236.648 129.78 236.765 129.642C236.882 129.504 237.038 129.405 237.213 129.359C237.387 129.314 237.572 129.323 237.742 129.385C237.911 129.448 238.057 129.561 238.16 129.71L244 135.55Z" fill="#F24976" stroke="#242424"></path><path d="M78.9999 179.55C79.1501 179.651 79.2652 179.796 79.3291 179.965C79.393 180.135 79.4024 180.32 79.3562 180.495C79.31 180.67 79.2104 180.826 79.0712 180.941C78.9321 181.057 78.7603 181.127 78.5799 181.14L70.5799 183.29C69.6999 183.53 69.1799 183 69.4099 182.13L71.5599 174.13C71.5764 173.95 71.648 173.78 71.7648 173.642C71.8816 173.504 72.038 173.405 72.2127 173.359C72.3875 173.314 72.5721 173.323 72.7416 173.385C72.911 173.448 73.0571 173.561 73.1599 173.71L78.9999 179.55Z" fill="#FE3745" stroke="#242424"></path><path d="M104 159.51C104.152 159.609 104.269 159.753 104.334 159.922C104.4 160.092 104.41 160.277 104.363 160.452C104.316 160.628 104.216 160.784 104.075 160.898C103.934 161.013 103.761 161.08 103.58 161.09L95.5802 163.23C94.7102 163.46 94.1902 162.94 94.4202 162.07L96.5602 154.07C96.5718 153.889 96.6399 153.716 96.7548 153.575C96.8698 153.434 97.0259 153.333 97.2013 153.286C97.3766 153.238 97.5624 153.247 97.7325 153.311C97.9027 153.374 98.0488 153.489 98.1502 153.64L104 159.51Z" fill="#3DE892" stroke="#090909"></path><path d="M50.1101 201.91C50.0087 202.061 49.8627 202.176 49.6925 202.239C49.5223 202.303 49.3366 202.312 49.1612 202.264C48.9859 202.217 48.8298 202.116 48.7148 201.975C48.5998 201.834 48.5318 201.661 48.5201 201.48L46.3801 193.48C46.1501 192.61 46.6701 192.09 47.5401 192.32L55.5401 194.46C55.7206 194.473 55.8923 194.543 56.0315 194.659C56.1707 194.774 56.2703 194.93 56.3165 195.105C56.3627 195.28 56.3532 195.465 56.2893 195.635C56.2255 195.804 56.1104 195.949 55.9601 196.05L50.1101 201.91Z" fill="white" stroke="#090909"></path><path d="M257.33 167.3C257.33 168.18 256.7 168.54 255.93 168.1L248.93 164.1C248.764 164.043 248.62 163.936 248.518 163.794C248.416 163.651 248.361 163.48 248.361 163.305C248.361 163.13 248.416 162.959 248.518 162.816C248.62 162.674 248.764 162.567 248.93 162.51L255.93 158.51C256.7 158.07 257.33 158.43 257.33 159.31V167.3Z" fill="#3DE892" stroke="#090909"></path><path d="M28.8698 124.11C28.8111 124.205 28.7728 124.31 28.7573 124.42C28.7418 124.531 28.7495 124.643 28.7798 124.75L31.7798 135.75C31.9627 136.378 32.3075 136.947 32.7798 137.4C33.2292 137.876 33.7995 138.222 34.4298 138.4L43.3698 140.84L45.8098 149.78C45.9811 150.404 46.3117 150.973 46.7693 151.43C47.2269 151.888 47.7957 152.219 48.4198 152.39L57.3598 154.83L59.7998 163.77C59.8386 163.914 59.9145 164.045 60.0198 164.15C60.1256 164.258 60.2585 164.335 60.4046 164.374C60.5507 164.413 60.7045 164.411 60.8498 164.37L66.3098 162.91C66.5212 162.856 66.7027 162.72 66.815 162.533C66.9273 162.346 66.9614 162.122 66.9098 161.91L63.9098 150.91C63.7443 150.286 63.4167 149.716 62.96 149.26C62.5034 148.803 61.934 148.475 61.3098 148.31L52.3098 145.87L49.8698 136.92C49.7043 136.296 49.3767 135.726 48.92 135.27C48.4634 134.813 47.894 134.485 47.2698 134.32L38.2698 131.88L35.8298 122.88C35.7711 122.671 35.6348 122.493 35.4489 122.381C35.263 122.27 35.0416 122.234 34.8298 122.28L29.3598 123.74C29.1547 123.795 28.9791 123.928 28.8698 124.11V124.11Z" fill="#FF883E" stroke="#090909"></path><path d="M323.46 147.29H313.77C313.005 147.29 312.26 147.531 311.64 147.98C311.021 148.431 310.556 149.064 310.31 149.79L308 156.58H300.93C300.165 156.578 299.419 156.82 298.8 157.27C298.178 157.723 297.713 158.359 297.47 159.09L295.2 165.84H288.13C287.954 165.841 287.783 165.897 287.64 166C287.53 166.077 287.44 166.181 287.379 166.301C287.318 166.421 287.287 166.555 287.29 166.69V172.38C287.29 172.492 287.312 172.602 287.355 172.705C287.398 172.808 287.46 172.902 287.539 172.981C287.618 173.06 287.712 173.123 287.815 173.165C287.918 173.208 288.029 173.23 288.14 173.23H297.83C298.596 173.224 299.342 172.979 299.962 172.529C300.582 172.079 301.047 171.447 301.29 170.72L303.56 163.96H310.63C311.396 163.958 312.142 163.713 312.76 163.26C313.38 162.809 313.845 162.176 314.09 161.45L316.36 154.69H323.43C323.609 154.688 323.783 154.632 323.93 154.53L324.03 154.44C324.189 154.277 324.279 154.058 324.28 153.83V148.15C324.283 148.04 324.264 147.93 324.224 147.827C324.184 147.724 324.125 147.63 324.048 147.55C323.972 147.47 323.881 147.406 323.78 147.362C323.679 147.317 323.571 147.293 323.46 147.29Z" fill="#E05FFF" stroke="#090909"></path><path d="M35.32 179.64C35.2812 179.441 35.1709 179.263 35.01 179.14L27.84 173.92C27.2777 173.511 26.6003 173.291 25.905 173.291C25.2097 173.291 24.5323 173.511 23.97 173.92L18.75 177.73L13.52 173.92C13.4388 173.859 13.346 173.816 13.2475 173.792C13.1489 173.768 13.0465 173.764 12.9465 173.781C12.8465 173.798 12.7509 173.835 12.6655 173.89C12.5802 173.944 12.5069 174.016 12.45 174.1L9.44998 178.34C9.33348 178.512 9.28721 178.721 9.32069 178.926C9.35418 179.131 9.46488 179.315 9.62998 179.44L16.79 184.65C17.3498 185.065 18.0282 185.289 18.725 185.289C19.4218 185.289 20.1001 185.065 20.66 184.65L25.89 180.85L31.12 184.65C31.2464 184.747 31.4009 184.799 31.56 184.8C31.6839 184.801 31.8062 184.771 31.916 184.713C32.0258 184.656 32.1198 184.572 32.19 184.47L35.19 180.23C35.3068 180.057 35.3533 179.846 35.32 179.64V179.64Z" fill="#3DE892" stroke="#090909"></path><path d="M24.3301 213.59C24.3275 213.775 24.2529 213.951 24.1222 214.082C23.9915 214.213 23.8149 214.287 23.6301 214.29H18.0001C17.8161 214.287 17.6407 214.212 17.5115 214.081C17.3824 213.95 17.31 213.774 17.3101 213.59V208C17.3101 207.817 17.3828 207.642 17.5122 207.512C17.6416 207.383 17.8171 207.31 18.0001 207.31H23.6101C23.794 207.31 23.9705 207.382 24.1015 207.511C24.2325 207.641 24.3074 207.816 24.3101 208L24.3301 213.59Z" fill="#3EB7FF" stroke="#090909"></path><path d="M83.3301 144.59C83.3275 144.775 83.2529 144.951 83.1222 145.082C82.9915 145.213 82.8149 145.287 82.6301 145.29H77.0001C76.8161 145.287 76.6407 145.212 76.5115 145.081C76.3824 144.95 76.31 144.774 76.3101 144.59V139C76.3101 138.817 76.3828 138.642 76.5122 138.512C76.6416 138.383 76.8171 138.31 77.0001 138.31H82.6101C82.794 138.31 82.9705 138.382 83.1015 138.511C83.2325 138.641 83.3074 138.816 83.3101 139L83.3301 144.59Z" fill="#3DE892" stroke="#090909"></path><path d="M271.33 137.59C271.327 137.775 271.253 137.951 271.122 138.082C270.991 138.213 270.815 138.287 270.63 138.29H265C264.816 138.287 264.641 138.212 264.512 138.081C264.382 137.95 264.31 137.774 264.31 137.59V132C264.31 131.817 264.383 131.642 264.512 131.512C264.642 131.383 264.817 131.31 265 131.31H270.61C270.794 131.31 270.971 131.382 271.102 131.511C271.233 131.641 271.307 131.816 271.31 132L271.33 137.59Z" fill="#3EB7FF" stroke="#090909"></path><path d="M27.3301 153.59C27.3275 153.775 27.2529 153.951 27.1222 154.082C26.9915 154.213 26.8149 154.287 26.6301 154.29H21.0001C20.8161 154.287 20.6407 154.212 20.5115 154.081C20.3824 153.95 20.31 153.774 20.3101 153.59V148C20.3101 147.817 20.3828 147.642 20.5122 147.512C20.6416 147.383 20.8171 147.31 21.0001 147.31H26.6101C26.794 147.31 26.9705 147.382 27.1015 147.511C27.2325 147.641 27.3074 147.816 27.3101 148L27.3301 153.59Z" fill="#FFAF10" stroke="#090909"></path><path d="M219.13 159.31C219.254 159.437 219.323 159.607 219.323 159.785C219.323 159.963 219.254 160.133 219.13 160.26L215.3 164.09C215.236 164.159 215.159 164.214 215.073 164.252C214.987 164.29 214.894 164.309 214.8 164.309C214.706 164.309 214.613 164.29 214.527 164.252C214.441 164.214 214.363 164.159 214.3 164.09L210.47 160.26C210.346 160.133 210.276 159.963 210.276 159.785C210.276 159.607 210.346 159.437 210.47 159.31L214.3 155.48C214.363 155.411 214.441 155.356 214.527 155.318C214.613 155.28 214.706 155.261 214.8 155.261C214.894 155.261 214.987 155.28 215.073 155.318C215.159 155.356 215.236 155.411 215.3 155.48L219.13 159.31Z" fill="#6A96E5" stroke="#090909"></path><path d="M168 100C179.598 100 189 90.598 189 79C189 67.402 179.598 58 168 58C156.402 58 147 67.402 147 79C147 90.598 156.402 100 168 100Z" fill="#222222"></path><path d="M163.44 82.53L165.86 82.06C165.889 82.0542 165.919 82.0544 165.948 82.0603C165.977 82.0663 166.004 82.0781 166.028 82.0949C166.053 82.1117 166.073 82.1332 166.089 82.1581C166.105 82.183 166.115 82.2109 166.12 82.24C166.25 82.6633 166.517 83.0314 166.879 83.2866C167.241 83.5417 167.678 83.6696 168.12 83.65C168.373 83.6594 168.626 83.6149 168.861 83.5195C169.095 83.4241 169.307 83.2799 169.482 83.0965C169.657 82.9131 169.791 82.6947 169.875 82.4557C169.959 82.2167 169.992 81.9625 169.97 81.71C169.998 81.4278 169.963 81.143 169.868 80.8759C169.773 80.6087 169.62 80.3658 169.421 80.1644C169.221 79.9629 168.98 79.8079 168.713 79.7104C168.447 79.6128 168.163 79.5751 167.88 79.6H167.24C167.211 79.6014 167.182 79.5967 167.154 79.5862C167.127 79.5756 167.102 79.5595 167.081 79.5387C167.061 79.518 167.045 79.4932 167.034 79.4658C167.024 79.4385 167.019 79.4093 167.02 79.38V77.25C167.017 77.2199 167.021 77.1896 167.031 77.161C167.041 77.1325 167.057 77.1064 167.078 77.0845C167.098 77.0627 167.124 77.0456 167.152 77.0345C167.18 77.0234 167.21 77.0184 167.24 77.02H167.84C168.089 77.0367 168.338 76.9995 168.571 76.911C168.804 76.8225 169.015 76.6848 169.189 76.5072C169.364 76.3297 169.498 76.1165 169.583 75.8822C169.668 75.648 169.701 75.3982 169.68 75.15C169.702 74.9194 169.674 74.6868 169.598 74.4681C169.522 74.2493 169.399 74.0496 169.239 73.8825C169.078 73.7154 168.884 73.5849 168.668 73.4999C168.453 73.4149 168.222 73.3774 167.99 73.39C167.587 73.373 167.191 73.5054 166.88 73.7619C166.568 74.0184 166.361 74.3809 166.3 74.78C166.293 74.8082 166.281 74.8347 166.263 74.8578C166.246 74.8809 166.223 74.9001 166.198 74.9142C166.173 74.9283 166.145 74.9369 166.116 74.9397C166.087 74.9424 166.058 74.9391 166.03 74.93L163.63 74.47C163.602 74.468 163.575 74.4599 163.55 74.4461C163.526 74.4323 163.505 74.4132 163.488 74.3903C163.472 74.3673 163.461 74.341 163.456 74.3133C163.451 74.2856 163.453 74.2571 163.46 74.23C163.81 72.23 165.46 70.8 168.14 70.8C171.07 70.8 172.76 72.54 172.76 74.93C172.765 75.552 172.606 76.1643 172.301 76.7063C171.996 77.2483 171.554 77.7012 171.02 78.02C171.661 78.3759 172.189 78.9053 172.542 79.5473C172.896 80.1894 173.062 80.9181 173.02 81.65C173.02 84.38 170.95 86.2 168.14 86.2C165.58 86.2 163.69 84.93 163.27 82.77C163.268 82.7168 163.283 82.6643 163.314 82.6209C163.345 82.5774 163.389 82.5455 163.44 82.53V82.53Z" fill="white"></path></svg> 