<?xml version="1.0" encoding="UTF-8"?> <svg xmlns="http://www.w3.org/2000/svg" width="347" height="341" viewBox="0 0 347 341" fill="none"><path d="M273.67 73.5H47.67C43.6643 73.5052 39.6989 74.2998 36.0004 75.8381C32.3019 77.3765 28.9428 79.6286 26.115 82.4657C23.2872 85.3028 21.0461 88.6693 19.5199 92.3728C17.9936 96.0763 17.2121 100.044 17.22 104.05L17.5 312.5L304.5 310.5L304.17 104C304.154 95.9204 300.934 88.177 295.216 82.4685C289.498 76.76 281.75 73.5526 273.67 73.55V73.5Z" stroke="#060606"></path><path d="M271.54 83.23H238.23C235.34 83.23 233.48 85.37 232.8 89.23C230.5 102.94 223.02 103.88 220.8 103.88H100.42C98.2101 103.88 90.6501 102.88 88.4201 89.23C87.8301 85.37 85.9601 83.23 82.9801 83.23H49.7001C37.6301 83.23 26.8401 96.09 26.8401 108.34C26.8401 112.113 26.8934 180 27.0001 312L294.55 310.32C294.45 177.773 294.397 110.44 294.39 108.32C294.48 96.09 283.6 83.23 271.54 83.23Z" fill="#151515" stroke="#0F0F0F"></path><path d="M161.57 43C173.168 43 182.57 33.598 182.57 22C182.57 10.402 173.168 1 161.57 1C149.972 1 140.57 10.402 140.57 22C140.57 33.598 149.972 43 161.57 43Z" fill="#222222"></path><path d="M160.9 17.51H160.85L158.47 19.14C158.34 19.23 158.23 19.19 158.23 19.01V16.28C158.229 16.2192 158.243 16.1591 158.271 16.105C158.299 16.0509 158.34 16.0046 158.39 15.97L160.9 14.17C161.01 14.0805 161.149 14.0343 161.29 14.04H163.76C163.789 14.0386 163.819 14.0433 163.846 14.0539C163.873 14.0644 163.898 14.0806 163.919 14.1013C163.939 14.122 163.956 14.1468 163.966 14.1742C163.977 14.2015 163.981 14.2308 163.98 14.26V28.78C163.981 28.8093 163.977 28.8385 163.966 28.8659C163.956 28.8932 163.939 28.918 163.919 28.9388C163.898 28.9595 163.873 28.9756 163.846 28.9862C163.819 28.9967 163.789 29.0015 163.76 29H161.12C161.09 29.0032 161.06 28.9997 161.032 28.9897C161.004 28.9798 160.979 28.9637 160.957 28.9426C160.936 28.9215 160.92 28.8959 160.91 28.8678C160.9 28.8397 160.897 28.8097 160.9 28.78V17.51Z" fill="white"></path><path d="M329.62 192.37L344.39 183.62" stroke="black" stroke-linecap="square"></path><path d="M323.6 186.42L329 179" stroke="black" stroke-linecap="square"></path><path d="M328.67 200.33L339.67 198" stroke="black" stroke-linecap="square"></path><path d="M321 195H4C2.34315 195 1 196.343 1 198V253C1 254.657 2.34315 256 4 256H321C322.657 256 324 254.657 324 253V198C324 196.343 322.657 195 321 195Z" fill="white" stroke="#0B0B0B"></path><path fill-rule="evenodd" clip-rule="evenodd" d="M251.5 201H293.5C296.718 200.999 299.904 201.632 302.877 202.862C305.85 204.093 308.552 205.898 310.827 208.173C313.102 210.448 314.907 213.15 316.138 216.123C317.369 219.096 318.001 222.282 318 225.5V225.5C318 231.998 315.419 238.229 310.824 242.824C306.229 247.419 299.998 250 293.5 250H251.5C245.002 250 238.771 247.419 234.176 242.824C229.581 238.229 227 231.998 227 225.5C226.999 222.282 227.632 219.096 228.862 216.123C230.093 213.15 231.898 210.448 234.173 208.173C236.448 205.898 239.15 204.093 242.123 202.862C245.096 201.632 248.282 200.999 251.5 201V201Z" fill="#3DE892" stroke="#0B0B0B"></path><path d="M292.5 244C302.717 244 311 235.717 311 225.5C311 215.283 302.717 207 292.5 207C282.283 207 274 215.283 274 225.5C274 235.717 282.283 244 292.5 244Z" fill="white" stroke="#0D0D0D"></path><path d="M25.44 228.03H19.44L18.56 229.98H16L20.69 220.38H24.36L28.93 229.98H26.33L25.44 228.03ZM20.35 226.03H24.55L22.84 222.29H22.08L20.35 226.03Z" fill="#191919"></path><path d="M29.6201 220.38H37.0401C37.4967 220.332 37.9583 220.381 38.3943 220.525C38.8303 220.668 39.2309 220.903 39.5694 221.213C39.9079 221.523 40.1766 221.902 40.3577 222.324C40.5389 222.745 40.6283 223.201 40.6201 223.66C40.6166 224.12 40.5202 224.574 40.3365 224.996C40.1528 225.418 39.8856 225.798 39.5512 226.114C39.2167 226.43 38.8219 226.674 38.3903 226.834C37.9588 226.993 37.4995 227.063 37.0401 227.04H32.0401V229.98H29.6401L29.6201 220.38ZM32.0201 222.54V225H36.7001C37.8701 225 38.1401 224.33 38.1401 223.72C38.1401 223.11 37.8701 222.56 36.7001 222.56L32.0201 222.54Z" fill="#191919"></path><path d="M41.55 220.38H48.97C49.4266 220.332 49.8882 220.381 50.3242 220.525C50.7603 220.668 51.1608 220.903 51.4993 221.213C51.8378 221.523 52.1065 221.902 52.2877 222.324C52.4688 222.745 52.5583 223.201 52.55 223.66C52.5466 224.12 52.4501 224.574 52.2664 224.996C52.0827 225.418 51.8156 225.798 51.4811 226.114C51.1467 226.43 50.7518 226.674 50.3203 226.834C49.8887 226.993 49.4294 227.063 48.97 227.04H43.97V229.98H41.57L41.55 220.38ZM43.95 222.54V225H48.63C49.8 225 50.06 224.33 50.06 223.72C50.06 223.11 49.8 222.56 48.63 222.56L43.95 222.54Z" fill="#191919"></path><path d="M53.4399 220.38H55.8399V227.7H63.2599V229.98H53.4399V220.38Z" fill="#191919"></path><path d="M65.76 226.93L60.76 220.38H63.55L66.69 224.58H67.17L70.17 220.38H73.02L68.17 226.82V229.98H65.77L65.76 226.93Z" fill="#191919"></path><path d="M82.1801 222.56V230H79.7801V222.56H75.3401V220.4H86.7301V222.56H82.1801Z" fill="#191919"></path><path d="M92.9199 220.19C96.6999 220.19 99.3699 221.89 99.3699 225.13C99.3699 228.37 96.4999 230.13 92.9099 230.13C89.3199 230.13 86.4199 228.44 86.4199 225.13C86.4399 222 89.0599 220.19 92.9199 220.19ZM92.9199 228.19C95.2799 228.19 96.9199 227.19 96.9199 225.12C96.9199 223.2 95.2599 222.24 92.9199 222.24C90.5799 222.24 88.9199 223.18 88.9199 225.24C88.9199 227.3 90.5399 228.15 92.8799 228.15L92.9199 228.19Z" fill="#191919"></path><path d="M103.56 220.38H110.99C111.446 220.332 111.907 220.381 112.343 220.525C112.778 220.668 113.178 220.903 113.516 221.213C113.854 221.524 114.122 221.902 114.302 222.324C114.482 222.746 114.57 223.201 114.56 223.66C114.558 224.119 114.463 224.574 114.28 224.995C114.097 225.417 113.831 225.797 113.498 226.113C113.164 226.429 112.77 226.674 112.339 226.833C111.908 226.993 111.449 227.063 110.99 227.04H105.99V229.98H103.59L103.56 220.38ZM105.96 222.54V225H110.64C111.82 225 112.08 224.33 112.08 223.72C112.08 223.11 111.82 222.54 110.64 222.54H105.96Z" fill="#191919"></path><path d="M127.75 220.38V225.38C127.75 228.03 125.24 230.18 121.63 230.18C118.02 230.18 115.44 228.56 115.44 225.37V220.37H117.84V225.37C117.84 227.09 119.32 228.03 121.67 228.03C124.02 228.03 125.39 226.76 125.39 225.37V220.37L127.75 220.38Z" fill="#191919"></path><path d="M129.32 220.38H136.73C137.49 220.314 138.249 220.512 138.879 220.942C139.508 221.373 139.97 222.007 140.184 222.739C140.399 223.471 140.353 224.255 140.055 224.957C139.757 225.659 139.225 226.236 138.55 226.59L140.27 229.98H137.57L136.24 227.04H131.72V229.98H129.32V220.38ZM131.72 222.54V225H136.38C137.56 225 137.82 224.33 137.82 223.72C137.82 223.11 137.56 222.54 136.38 222.54H131.72Z" fill="#191919"></path><path d="M151.57 229.66C150.295 230.021 148.975 230.193 147.65 230.17C143.07 230.17 140.84 228.11 140.84 225.17C140.84 222.23 143.18 220.17 147.84 220.17C149.138 220.163 150.433 220.277 151.71 220.51L151.48 222.62C150.247 222.386 148.995 222.262 147.74 222.25C144.54 222.25 143.29 223.36 143.29 225.09C143.29 226.82 144.65 228.04 147.59 228.04C148.937 228.04 150.28 227.882 151.59 227.57L151.57 229.66Z" fill="#191919"></path><path d="M162.9 226.32H155.1V229.98H152.7V220.38H155.1V224.04H162.9V220.38H165.3V229.98H162.9V226.32Z" fill="#191919"></path><path d="M175.44 228.03H169.44L168.55 229.98H166.04L170.73 220.38H174.44L179.01 229.98H176.4L175.44 228.03ZM170.36 226.03H174.56L172.84 222.29H172.09L170.36 226.03Z" fill="#191919"></path><path d="M179.16 223.31C179.16 221.31 181.38 220.19 184.43 220.19C186.083 220.118 187.734 220.369 189.29 220.93L188.83 222.93C187.402 222.384 185.877 222.136 184.35 222.2C182.35 222.2 181.54 222.49 181.54 222.99C181.54 224.75 189.54 223.06 189.54 226.9C189.54 228.62 187.84 230.13 184.21 230.13C182.561 230.2 180.911 229.994 179.33 229.52L179.42 227.32C180.974 227.892 182.626 228.151 184.28 228.08C186.37 228.08 187.16 227.71 187.16 227.26C187.19 225.66 179.16 227.28 179.16 223.31Z" fill="#191919"></path><path d="M190.73 229.98V220.38H200.67V222.56H193.13V224.18H199.84V226.18H193.13V227.8H200.67V229.96L190.73 229.98Z" fill="#191919"></path></svg> 