<?xml version="1.0" encoding="UTF-8"?> <svg xmlns="http://www.w3.org/2000/svg" width="347" height="341" viewBox="0 0 347 341" fill="none"><path d="M273.67 73.5H47.67C43.6643 73.5052 39.6989 74.2998 36.0004 75.8381C32.3019 77.3765 28.9428 79.6286 26.115 82.4657C23.2872 85.3028 21.0461 88.6693 19.5199 92.3728C17.9936 96.0763 17.2121 100.044 17.22 104.05L17.5 312.5L304.5 310.5L304.17 104C304.154 95.9204 300.934 88.177 295.216 82.4685C289.498 76.76 281.75 73.5526 273.67 73.55V73.5Z" stroke="#060606"></path><path d="M271.54 83.23H238.23C235.34 83.23 233.48 85.37 232.8 89.23C230.5 102.94 223.02 103.88 220.8 103.88H100.42C98.2101 103.88 90.6501 102.88 88.4201 89.23C87.8301 85.37 85.9601 83.23 82.9801 83.23H49.7001C37.6301 83.23 26.8401 96.09 26.8401 108.34C26.8401 112.113 26.8934 180 27.0001 312L294.55 310.32C294.45 177.773 294.397 110.44 294.39 108.32C294.48 96.09 283.6 83.23 271.54 83.23Z" fill="#151515" stroke="#0F0F0F"></path><path d="M329.62 192.37L344.39 183.62" stroke="black" stroke-linecap="square"></path><path d="M323.6 186.42L329 179" stroke="black" stroke-linecap="square"></path><path d="M328.67 200.33L339.67 198" stroke="black" stroke-linecap="square"></path><path d="M321 195H4C2.34315 195 1 196.343 1 198V253C1 254.657 2.34315 256 4 256H321C322.657 256 324 254.657 324 253V198C324 196.343 322.657 195 321 195Z" fill="white" stroke="#0B0B0B"></path><path fill-rule="evenodd" clip-rule="evenodd" d="M251.5 201H293.5C296.718 200.999 299.904 201.632 302.877 202.862C305.85 204.093 308.552 205.898 310.827 208.173C313.102 210.448 314.907 213.15 316.138 216.123C317.369 219.096 318.001 222.282 318 225.5V225.5C318 231.998 315.419 238.229 310.824 242.824C306.229 247.419 299.998 250 293.5 250H251.5C245.002 250 238.771 247.419 234.176 242.824C229.581 238.229 227 231.998 227 225.5C226.999 222.282 227.632 219.096 228.862 216.123C230.093 213.15 231.898 210.448 234.173 208.173C236.448 205.898 239.15 204.093 242.123 202.862C245.096 201.632 248.282 200.999 251.5 201V201Z" fill="#3DE892" stroke="#0B0B0B"></path><path d="M292.5 244C302.717 244 311 235.717 311 225.5C311 215.283 302.717 207 292.5 207C282.283 207 274 215.283 274 225.5C274 235.717 282.283 244 292.5 244Z" fill="white" stroke="#0D0D0D"></path><path d="M25.44 228.03H19.44L18.56 229.98H16L20.69 220.38H24.36L28.93 229.98H26.33L25.44 228.03ZM20.35 226.03H24.55L22.84 222.29H22.08L20.35 226.03Z" fill="#191919"></path><path d="M29.6201 220.38H37.0401C37.4967 220.332 37.9583 220.381 38.3943 220.525C38.8303 220.668 39.2309 220.903 39.5694 221.213C39.9079 221.523 40.1766 221.902 40.3577 222.324C40.5389 222.745 40.6283 223.201 40.6201 223.66C40.6166 224.12 40.5202 224.574 40.3365 224.996C40.1528 225.418 39.8856 225.798 39.5512 226.114C39.2167 226.43 38.8219 226.674 38.3903 226.834C37.9588 226.993 37.4995 227.063 37.0401 227.04H32.0401V229.98H29.6401L29.6201 220.38ZM32.0201 222.54V225H36.7001C37.8701 225 38.1401 224.33 38.1401 223.72C38.1401 223.11 37.8701 222.56 36.7001 222.56L32.0201 222.54Z" fill="#191919"></path><path d="M41.55 220.38H48.97C49.4266 220.332 49.8882 220.381 50.3242 220.525C50.7603 220.668 51.1608 220.903 51.4993 221.213C51.8378 221.523 52.1065 221.902 52.2877 222.324C52.4688 222.745 52.5583 223.201 52.55 223.66C52.5466 224.12 52.4501 224.574 52.2664 224.996C52.0827 225.418 51.8156 225.798 51.4811 226.114C51.1467 226.43 50.7518 226.674 50.3203 226.834C49.8887 226.993 49.4294 227.063 48.97 227.04H43.97V229.98H41.57L41.55 220.38ZM43.95 222.54V225H48.63C49.8 225 50.06 224.33 50.06 223.72C50.06 223.11 49.8 222.56 48.63 222.56L43.95 222.54Z" fill="#191919"></path><path d="M53.4399 220.38H55.8399V227.7H63.2599V229.98H53.4399V220.38Z" fill="#191919"></path><path d="M65.76 226.93L60.76 220.38H63.55L66.69 224.58H67.17L70.17 220.38H73.02L68.17 226.82V229.98H65.77L65.76 226.93Z" fill="#191919"></path><path d="M82.1801 222.56V230H79.7801V222.56H75.3401V220.4H86.7301V222.56H82.1801Z" fill="#191919"></path><path d="M92.9199 220.19C96.6999 220.19 99.3699 221.89 99.3699 225.13C99.3699 228.37 96.4999 230.13 92.9099 230.13C89.3199 230.13 86.4199 228.44 86.4199 225.13C86.4399 222 89.0599 220.19 92.9199 220.19ZM92.9199 228.19C95.2799 228.19 96.9199 227.19 96.9199 225.12C96.9199 223.2 95.2599 222.24 92.9199 222.24C90.5799 222.24 88.9199 223.18 88.9199 225.24C88.9199 227.3 90.5399 228.15 92.8799 228.15L92.9199 228.19Z" fill="#191919"></path><path d="M103.56 220.38H110.99C111.446 220.332 111.907 220.381 112.343 220.525C112.778 220.668 113.178 220.903 113.516 221.213C113.854 221.524 114.122 221.902 114.302 222.324C114.482 222.746 114.57 223.201 114.56 223.66C114.558 224.119 114.463 224.574 114.28 224.995C114.097 225.417 113.831 225.797 113.498 226.113C113.164 226.429 112.77 226.674 112.339 226.833C111.908 226.993 111.449 227.063 110.99 227.04H105.99V229.98H103.59L103.56 220.38ZM105.96 222.54V225H110.64C111.82 225 112.08 224.33 112.08 223.72C112.08 223.11 111.82 222.54 110.64 222.54H105.96Z" fill="#191919"></path><path d="M127.75 220.38V225.38C127.75 228.03 125.24 230.18 121.63 230.18C118.02 230.18 115.44 228.56 115.44 225.37V220.37H117.84V225.37C117.84 227.09 119.32 228.03 121.67 228.03C124.02 228.03 125.39 226.76 125.39 225.37V220.37L127.75 220.38Z" fill="#191919"></path><path d="M129.32 220.38H136.73C137.49 220.314 138.249 220.512 138.879 220.942C139.508 221.373 139.97 222.008 140.184 222.739C140.399 223.471 140.353 224.255 140.055 224.957C139.757 225.659 139.225 226.236 138.55 226.59L140.27 229.98H137.57L136.24 227.04H131.72V229.98H129.32V220.38ZM131.72 222.54V225H136.38C137.56 225 137.82 224.33 137.82 223.72C137.82 223.11 137.56 222.54 136.38 222.54H131.72Z" fill="#191919"></path><path d="M151.57 229.66C150.295 230.021 148.975 230.193 147.65 230.17C143.07 230.17 140.84 228.11 140.84 225.17C140.84 222.23 143.18 220.17 147.84 220.17C149.138 220.163 150.433 220.277 151.71 220.51L151.48 222.62C150.247 222.386 148.995 222.262 147.74 222.25C144.54 222.25 143.29 223.36 143.29 225.09C143.29 226.82 144.65 228.04 147.59 228.04C148.937 228.04 150.28 227.882 151.59 227.57L151.57 229.66Z" fill="#191919"></path><path d="M162.9 226.32H155.1V229.98H152.7V220.38H155.1V224.04H162.9V220.38H165.3V229.98H162.9V226.32Z" fill="#191919"></path><path d="M175.44 228.03H169.44L168.55 229.98H166.04L170.73 220.38H174.44L179.01 229.98H176.4L175.44 228.03ZM170.36 226.03H174.56L172.84 222.29H172.09L170.36 226.03Z" fill="#191919"></path><path d="M179.16 223.31C179.16 221.31 181.38 220.19 184.43 220.19C186.083 220.118 187.734 220.369 189.29 220.93L188.83 222.93C187.402 222.384 185.877 222.136 184.35 222.2C182.35 222.2 181.54 222.49 181.54 222.99C181.54 224.75 189.54 223.06 189.54 226.9C189.54 228.62 187.84 230.13 184.21 230.13C182.561 230.2 180.911 229.994 179.33 229.52L179.42 227.32C180.974 227.892 182.626 228.151 184.28 228.08C186.37 228.08 187.16 227.71 187.16 227.26C187.19 225.66 179.16 227.28 179.16 223.31Z" fill="#191919"></path><path d="M190.73 229.98V220.38H200.67V222.56H193.13V224.18H199.84V226.18H193.13V227.8H200.67V229.96L190.73 229.98Z" fill="#191919"></path><path d="M134 43C145.598 43 155 33.598 155 22C155 10.402 145.598 1 134 1C122.402 1 113 10.402 113 22C113 33.598 122.402 43 134 43Z" fill="#222222"></path><path d="M133.32 17.51L130.94 19.14C130.81 19.23 130.7 19.19 130.7 19.01V16.28C130.699 16.2191 130.713 16.159 130.741 16.1049C130.769 16.0509 130.81 16.0045 130.86 15.97L133.36 14.17C133.474 14.0814 133.616 14.0354 133.76 14.04H136.23C136.259 14.0386 136.289 14.0433 136.316 14.0538C136.343 14.0644 136.368 14.0805 136.389 14.1012C136.409 14.122 136.426 14.1468 136.436 14.1741C136.447 14.2015 136.451 14.2307 136.45 14.26V28.78C136.451 28.8093 136.447 28.8385 136.436 28.8658C136.426 28.8932 136.409 28.918 136.389 28.9387C136.368 28.9595 136.343 28.9756 136.316 28.9862C136.289 28.9967 136.259 29.0014 136.23 29H133.58C133.551 29.0014 133.521 28.9967 133.494 28.9862C133.467 28.9756 133.442 28.9595 133.421 28.9387C133.401 28.918 133.384 28.8932 133.374 28.8658C133.363 28.8385 133.359 28.8093 133.36 28.78L133.32 17.51Z" fill="white"></path><path d="M204.2 21.71C204.043 21.708 203.889 21.7529 203.757 21.839C203.626 21.925 203.523 22.0483 203.462 22.193C203.401 22.3378 203.385 22.4974 203.415 22.6516C203.445 22.8058 203.52 22.9475 203.632 23.0585C203.743 23.1696 203.884 23.2451 204.038 23.2752C204.193 23.3054 204.352 23.2889 204.497 23.2279C204.642 23.1669 204.765 23.0641 204.851 22.9326C204.937 22.8012 204.982 22.6471 204.98 22.49C204.98 22.2831 204.898 22.0847 204.752 21.9385C204.605 21.7922 204.407 21.71 204.2 21.71V21.71Z" fill="#009688"></path><path d="M201.08 21.71C200.923 21.708 200.769 21.7529 200.637 21.839C200.506 21.925 200.403 22.0483 200.342 22.193C200.281 22.3378 200.265 22.4974 200.295 22.6516C200.325 22.8058 200.4 22.9475 200.511 23.0585C200.622 23.1696 200.764 23.2451 200.918 23.2752C201.073 23.3054 201.232 23.2889 201.377 23.2279C201.522 23.1669 201.645 23.0641 201.731 22.9326C201.817 22.8012 201.862 22.6471 201.86 22.49C201.86 22.2831 201.778 22.0847 201.632 21.9385C201.485 21.7922 201.287 21.71 201.08 21.71Z" fill="#009688"></path><path d="M198 21.71C197.843 21.708 197.689 21.7529 197.557 21.839C197.426 21.925 197.323 22.0483 197.262 22.193C197.201 22.3378 197.184 22.4974 197.215 22.6516C197.245 22.8058 197.32 22.9475 197.431 23.0585C197.542 23.1696 197.684 23.2451 197.838 23.2752C197.992 23.3054 198.152 23.2889 198.297 23.2279C198.442 23.1669 198.565 23.0641 198.651 22.9326C198.737 22.8012 198.782 22.6471 198.78 22.49C198.78 22.2831 198.698 22.0847 198.551 21.9385C198.405 21.7922 198.207 21.71 198 21.71Z" fill="#009688"></path><path d="M194.82 21.71C194.663 21.71 194.51 21.7566 194.38 21.8439C194.25 21.9311 194.149 22.0551 194.089 22.2C194.03 22.345 194.015 22.5043 194.046 22.6578C194.077 22.8113 194.153 22.9521 194.265 23.0622C194.376 23.1722 194.518 23.2467 194.672 23.276C194.826 23.3054 194.985 23.2883 195.129 23.227C195.273 23.1656 195.396 23.0628 195.482 22.9316C195.567 22.8004 195.612 22.6467 195.61 22.49C195.61 22.3867 195.589 22.2845 195.55 22.1892C195.51 22.0939 195.451 22.0074 195.378 21.9349C195.304 21.8623 195.217 21.8051 195.122 21.7665C195.026 21.7279 194.923 21.7087 194.82 21.71V21.71Z" fill="#009688"></path><path d="M191.69 21.71C191.533 21.708 191.379 21.7529 191.247 21.839C191.116 21.925 191.013 22.0483 190.952 22.193C190.891 22.3378 190.875 22.4974 190.905 22.6516C190.935 22.8058 191.01 22.9475 191.122 23.0585C191.233 23.1696 191.374 23.2451 191.528 23.2752C191.683 23.3054 191.842 23.2889 191.987 23.2279C192.132 23.1669 192.255 23.0641 192.341 22.9326C192.427 22.8012 192.472 22.6471 192.47 22.49C192.47 22.2831 192.388 22.0847 192.242 21.9385C192.095 21.7922 191.897 21.71 191.69 21.71Z" fill="#009688"></path><path d="M188.56 21.71C188.403 21.708 188.249 21.7529 188.117 21.839C187.986 21.925 187.883 22.0483 187.822 22.193C187.761 22.3378 187.745 22.4974 187.775 22.6516C187.805 22.8058 187.88 22.9475 187.991 23.0585C188.102 23.1696 188.244 23.2451 188.398 23.2752C188.552 23.3054 188.712 23.2889 188.857 23.2279C189.002 23.1669 189.125 23.0641 189.211 22.9326C189.297 22.8012 189.342 22.6471 189.34 22.49C189.34 22.2831 189.258 22.0847 189.111 21.9385C188.965 21.7922 188.767 21.71 188.56 21.71V21.71Z" fill="#009688"></path><path d="M185.43 21.71C185.273 21.708 185.119 21.7529 184.987 21.839C184.856 21.925 184.753 22.0483 184.692 22.193C184.631 22.3378 184.615 22.4974 184.645 22.6516C184.675 22.8058 184.75 22.9475 184.862 23.0585C184.973 23.1696 185.114 23.2451 185.268 23.2752C185.423 23.3054 185.582 23.2889 185.727 23.2279C185.872 23.1669 185.995 23.0641 186.081 22.9326C186.167 22.8012 186.212 22.6471 186.21 22.49C186.21 22.2831 186.128 22.0847 185.982 21.9385C185.835 21.7922 185.637 21.71 185.43 21.71V21.71Z" fill="#009688"></path><path d="M201.08 18.57C200.923 18.568 200.77 18.6127 200.638 18.6983C200.507 18.7839 200.404 18.9065 200.343 19.0507C200.282 19.1949 200.265 19.354 200.294 19.5079C200.323 19.6618 200.398 19.8035 200.508 19.915C200.618 20.0265 200.759 20.1027 200.912 20.134C201.066 20.1653 201.225 20.1503 201.37 20.0908C201.515 20.0313 201.639 19.9301 201.726 19.7999C201.813 19.6698 201.86 19.5167 201.86 19.36C201.861 19.2567 201.842 19.1542 201.804 19.0584C201.765 18.9627 201.708 18.8755 201.635 18.802C201.563 18.7285 201.476 18.6701 201.381 18.6303C201.286 18.5905 201.183 18.57 201.08 18.57V18.57Z" fill="#009688"></path><path d="M198 18.57C197.843 18.568 197.69 18.6127 197.558 18.6983C197.427 18.7839 197.324 18.9065 197.263 19.0507C197.202 19.1949 197.185 19.354 197.214 19.5079C197.243 19.6618 197.318 19.8035 197.428 19.915C197.538 20.0265 197.679 20.1027 197.832 20.134C197.986 20.1653 198.145 20.1503 198.29 20.0908C198.435 20.0313 198.559 19.9301 198.646 19.7999C198.733 19.6698 198.78 19.5167 198.78 19.36C198.781 19.2567 198.762 19.1542 198.723 19.0584C198.685 18.9627 198.628 18.8755 198.555 18.802C198.483 18.7285 198.396 18.6701 198.301 18.6303C198.205 18.5905 198.103 18.57 198 18.57V18.57Z" fill="#009688"></path><path d="M194.82 18.57C194.664 18.57 194.511 18.6163 194.381 18.7031C194.251 18.79 194.15 18.9133 194.09 19.0577C194.03 19.202 194.015 19.3609 194.045 19.5141C194.076 19.6674 194.151 19.8081 194.261 19.9186C194.372 20.0291 194.513 20.1044 194.666 20.1348C194.819 20.1653 194.978 20.1497 195.122 20.0899C195.267 20.0301 195.39 19.9288 195.477 19.7989C195.564 19.669 195.61 19.5163 195.61 19.36C195.611 19.2559 195.592 19.1526 195.553 19.0561C195.513 18.9597 195.455 18.872 195.382 18.7984C195.308 18.7248 195.22 18.6666 195.124 18.6274C195.027 18.5882 194.924 18.5687 194.82 18.57Z" fill="#009688"></path><path d="M191.69 18.57C191.533 18.568 191.38 18.6127 191.248 18.6983C191.117 18.7839 191.014 18.9065 190.953 19.0507C190.892 19.1949 190.875 19.354 190.904 19.5079C190.933 19.6618 191.008 19.8035 191.118 19.915C191.228 20.0265 191.369 20.1027 191.522 20.134C191.676 20.1653 191.835 20.1503 191.98 20.0908C192.125 20.0313 192.249 19.9301 192.336 19.7999C192.423 19.6698 192.47 19.5167 192.47 19.36C192.47 19.1522 192.388 18.9528 192.242 18.8049C192.096 18.657 191.898 18.5726 191.69 18.57V18.57Z" fill="#009688"></path><path d="M188.56 18.57C188.403 18.568 188.25 18.6127 188.118 18.6983C187.987 18.7839 187.884 18.9065 187.823 19.0507C187.762 19.1949 187.745 19.354 187.774 19.5079C187.803 19.6618 187.878 19.8035 187.988 19.915C188.098 20.0265 188.239 20.1027 188.392 20.134C188.546 20.1653 188.705 20.1503 188.85 20.0908C188.995 20.0313 189.119 19.9301 189.206 19.7999C189.293 19.6698 189.34 19.5167 189.34 19.36C189.341 19.2567 189.322 19.1542 189.284 19.0584C189.245 18.9627 189.188 18.8755 189.115 18.802C189.043 18.7285 188.956 18.6701 188.861 18.6303C188.766 18.5905 188.663 18.57 188.56 18.57V18.57Z" fill="#009688"></path><path d="M198 15.44C197.793 15.44 197.595 15.5222 197.448 15.6685C197.302 15.8147 197.22 16.0131 197.22 16.22C197.22 16.4269 197.302 16.6253 197.448 16.7715C197.595 16.9178 197.793 17 198 17C198.207 17 198.405 16.9178 198.552 16.7715C198.698 16.6253 198.78 16.4269 198.78 16.22C198.78 16.0131 198.698 15.8147 198.552 15.6685C198.405 15.5222 198.207 15.44 198 15.44V15.44Z" fill="#009688"></path><path d="M194.82 15.44C194.613 15.44 194.415 15.5222 194.269 15.6685C194.122 15.8147 194.04 16.0131 194.04 16.22C194.038 16.3771 194.083 16.5312 194.169 16.6626C194.255 16.7941 194.378 16.8969 194.523 16.9579C194.668 17.0189 194.828 17.0354 194.982 17.0052C195.136 16.9751 195.278 16.8996 195.389 16.7886C195.5 16.6775 195.575 16.5358 195.605 16.3816C195.636 16.2275 195.619 16.0678 195.558 15.923C195.497 15.7783 195.394 15.655 195.263 15.569C195.131 15.4829 194.977 15.438 194.82 15.44V15.44Z" fill="#009688"></path><path d="M191.69 15.44C191.587 15.4387 191.484 15.4579 191.388 15.4965C191.293 15.5351 191.205 15.5923 191.132 15.6649C191.059 15.7375 191 15.8239 190.96 15.9192C190.921 16.0145 190.9 16.1167 190.9 16.22C190.888 16.3305 190.899 16.4425 190.932 16.5484C190.966 16.6544 191.022 16.7521 191.096 16.8351C191.17 16.918 191.261 16.9844 191.362 17.0298C191.464 17.0753 191.574 17.0987 191.685 17.0987C191.796 17.0987 191.906 17.0753 192.008 17.0298C192.109 16.9844 192.2 16.918 192.274 16.8351C192.348 16.7521 192.404 16.6544 192.438 16.5484C192.472 16.4425 192.483 16.3305 192.47 16.22C192.47 16.0131 192.388 15.8147 192.242 15.6685C192.095 15.5222 191.897 15.44 191.69 15.44V15.44Z" fill="#009688"></path><path d="M188.56 15.44C188.353 15.44 188.155 15.5222 188.008 15.6685C187.862 15.8147 187.78 16.0131 187.78 16.22C187.78 16.4269 187.862 16.6253 188.008 16.7715C188.155 16.9178 188.353 17 188.56 17C188.767 17 188.965 16.9178 189.112 16.7715C189.258 16.6253 189.34 16.4269 189.34 16.22C189.34 16.0131 189.258 15.8147 189.112 15.6685C188.965 15.5222 188.767 15.44 188.56 15.44V15.44Z" fill="#009688"></path><path d="M194.82 12.3C194.664 12.3 194.511 12.3463 194.381 12.4331C194.251 12.5199 194.15 12.6433 194.09 12.7877C194.03 12.932 194.015 13.0909 194.045 13.2441C194.076 13.3974 194.151 13.5381 194.261 13.6486C194.372 13.7591 194.513 13.8343 194.666 13.8648C194.819 13.8953 194.978 13.8796 195.122 13.8199C195.267 13.7601 195.39 13.6588 195.477 13.5289C195.564 13.399 195.61 13.2462 195.61 13.09C195.611 12.9859 195.592 12.8825 195.553 12.7861C195.513 12.6896 195.455 12.602 195.382 12.5284C195.308 12.4548 195.22 12.3966 195.124 12.3574C195.027 12.3182 194.924 12.2986 194.82 12.3V12.3Z" fill="#009688"></path><path d="M191.69 12.3C191.533 12.298 191.38 12.3426 191.248 12.4282C191.117 12.5138 191.014 12.6365 190.953 12.7807C190.892 12.9248 190.875 13.084 190.904 13.2379C190.933 13.3918 191.008 13.5335 191.118 13.645C191.228 13.7565 191.369 13.8327 191.522 13.864C191.676 13.8953 191.835 13.8803 191.98 13.8208C192.125 13.7613 192.249 13.66 192.336 13.5299C192.423 13.3998 192.47 13.2467 192.47 13.09C192.47 12.8822 192.388 12.6828 192.242 12.5349C192.096 12.387 191.898 12.3026 191.69 12.3Z" fill="#009688"></path><path d="M188.56 12.3C188.403 12.298 188.25 12.3426 188.118 12.4282C187.987 12.5138 187.884 12.6365 187.823 12.7807C187.762 12.9248 187.745 13.084 187.774 13.2379C187.803 13.3918 187.878 13.5335 187.988 13.645C188.098 13.7565 188.239 13.8327 188.392 13.864C188.546 13.8953 188.705 13.8803 188.85 13.8208C188.995 13.7613 189.119 13.66 189.206 13.5299C189.293 13.3998 189.34 13.2467 189.34 13.09C189.341 12.9867 189.322 12.8842 189.284 12.7884C189.245 12.6926 189.188 12.6055 189.115 12.532C189.043 12.4585 188.956 12.4001 188.861 12.3603C188.766 12.3205 188.663 12.3 188.56 12.3V12.3Z" fill="#009688"></path><path d="M191.69 9.17001C191.536 9.17001 191.385 9.21576 191.257 9.30147C191.128 9.38717 191.028 9.50899 190.969 9.65152C190.91 9.79405 190.895 9.95088 190.925 10.1022C190.955 10.2535 191.029 10.3925 191.138 10.5016C191.247 10.6106 191.386 10.6849 191.538 10.715C191.689 10.7451 191.846 10.7297 191.988 10.6706C192.131 10.6116 192.253 10.5116 192.338 10.3834C192.424 10.2551 192.47 10.1043 192.47 9.95001C192.47 9.74314 192.388 9.54475 192.241 9.39847C192.095 9.25219 191.897 9.17001 191.69 9.17001Z" fill="#009688"></path><path d="M188.56 9.17001C188.406 9.17001 188.255 9.21576 188.127 9.30147C187.998 9.38717 187.898 9.50899 187.839 9.65152C187.78 9.79405 187.765 9.95088 187.795 10.1022C187.825 10.2535 187.899 10.3925 188.008 10.5016C188.118 10.6106 188.257 10.6849 188.408 10.715C188.559 10.7451 188.716 10.7297 188.859 10.6706C189.001 10.6116 189.123 10.5116 189.209 10.3834C189.294 10.2551 189.34 10.1043 189.34 9.95001C189.34 9.74314 189.258 9.54475 189.112 9.39847C188.965 9.25219 188.767 9.17001 188.56 9.17001V9.17001Z" fill="#009688"></path><path d="M188.56 6C188.403 5.99803 188.249 6.04293 188.117 6.12897C187.986 6.21501 187.883 6.33828 187.822 6.48303C187.761 6.62779 187.745 6.78745 187.775 6.94162C187.805 7.09579 187.88 7.23747 187.991 7.34855C188.102 7.45964 188.244 7.53508 188.398 7.56524C188.552 7.5954 188.712 7.57892 188.857 7.51789C189.002 7.45686 189.125 7.35406 189.211 7.22262C189.297 7.09119 189.342 6.93708 189.34 6.78C189.34 6.57313 189.258 6.37474 189.111 6.22846C188.965 6.08218 188.767 6 188.56 6V6Z" fill="#009688"></path><path d="M201.08 24.85C200.926 24.85 200.775 24.8958 200.647 24.9815C200.518 25.0672 200.418 25.189 200.359 25.3315C200.3 25.474 200.285 25.6309 200.315 25.7822C200.345 25.9335 200.419 26.0725 200.529 26.1815C200.638 26.2906 200.777 26.3649 200.928 26.395C201.079 26.4251 201.236 26.4097 201.379 26.3506C201.521 26.2916 201.643 26.1916 201.729 26.0634C201.814 25.9351 201.86 25.7843 201.86 25.63C201.86 25.4231 201.778 25.2247 201.632 25.0785C201.485 24.9322 201.287 24.85 201.08 24.85Z" fill="#009688"></path><path d="M198 24.85C197.846 24.85 197.695 24.8958 197.567 24.9815C197.438 25.0672 197.338 25.189 197.279 25.3315C197.22 25.474 197.205 25.6309 197.235 25.7822C197.265 25.9335 197.339 26.0725 197.448 26.1815C197.558 26.2906 197.696 26.3649 197.848 26.395C197.999 26.4251 198.156 26.4097 198.298 26.3506C198.441 26.2916 198.563 26.1916 198.649 26.0634C198.734 25.9351 198.78 25.7843 198.78 25.63C198.78 25.4231 198.698 25.2247 198.552 25.0785C198.405 24.9322 198.207 24.85 198 24.85Z" fill="#009688"></path><path d="M194.82 24.85C194.666 24.852 194.516 24.8994 194.389 24.9863C194.263 25.0732 194.164 25.1957 194.107 25.3384C194.049 25.4811 194.035 25.6376 194.066 25.7882C194.097 25.9389 194.173 26.0769 194.282 26.185C194.392 26.2931 194.531 26.3664 194.682 26.3957C194.833 26.425 194.989 26.4089 195.131 26.3496C195.273 26.2903 195.394 26.1903 195.479 26.0623C195.565 25.9343 195.61 25.7838 195.61 25.63C195.61 25.5267 195.59 25.4245 195.55 25.3292C195.51 25.2339 195.452 25.1475 195.378 25.0749C195.305 25.0023 195.217 24.9451 195.122 24.9065C195.026 24.8679 194.923 24.8487 194.82 24.85V24.85Z" fill="#009688"></path><path d="M191.69 24.85C191.536 24.85 191.385 24.8958 191.257 24.9815C191.128 25.0672 191.028 25.189 190.969 25.3315C190.91 25.474 190.895 25.6309 190.925 25.7822C190.955 25.9335 191.029 26.0725 191.138 26.1815C191.247 26.2906 191.386 26.3649 191.538 26.395C191.689 26.4251 191.846 26.4097 191.988 26.3506C192.131 26.2916 192.253 26.1916 192.338 26.0634C192.424 25.9351 192.47 25.7843 192.47 25.63C192.47 25.4231 192.388 25.2247 192.241 25.0785C192.095 24.9322 191.897 24.85 191.69 24.85Z" fill="#009688"></path><path d="M188.56 24.85C188.406 24.85 188.255 24.8958 188.127 24.9815C187.998 25.0672 187.898 25.189 187.839 25.3315C187.78 25.474 187.765 25.6309 187.795 25.7822C187.825 25.9335 187.899 26.0725 188.008 26.1815C188.118 26.2906 188.257 26.3649 188.408 26.395C188.559 26.4251 188.716 26.4097 188.859 26.3506C189.001 26.2916 189.123 26.1916 189.209 26.0634C189.294 25.9351 189.34 25.7843 189.34 25.63C189.34 25.4231 189.258 25.2247 189.112 25.0785C188.965 24.9322 188.767 24.85 188.56 24.85V24.85Z" fill="#009688"></path><path d="M198 28C197.843 27.998 197.69 28.0427 197.558 28.1283C197.427 28.2138 197.324 28.3365 197.263 28.4807C197.202 28.6249 197.185 28.784 197.214 28.9379C197.243 29.0918 197.318 29.2335 197.428 29.345C197.538 29.4565 197.679 29.5327 197.832 29.564C197.986 29.5953 198.145 29.5803 198.29 29.5208C198.435 29.4613 198.559 29.36 198.646 29.2299C198.733 29.0998 198.78 28.9467 198.78 28.79C198.781 28.6867 198.762 28.5842 198.723 28.4884C198.685 28.3926 198.628 28.3055 198.555 28.232C198.483 28.1585 198.396 28.1001 198.301 28.0603C198.205 28.0205 198.103 28 198 28Z" fill="#009688"></path><path d="M194.82 28C194.664 28 194.511 28.0463 194.381 28.1331C194.251 28.2199 194.15 28.3433 194.09 28.4877C194.03 28.632 194.015 28.7909 194.045 28.9441C194.076 29.0974 194.151 29.2381 194.261 29.3486C194.372 29.4591 194.513 29.5343 194.666 29.5648C194.819 29.5953 194.978 29.5797 195.122 29.5199C195.267 29.4601 195.39 29.3588 195.477 29.2289C195.564 29.099 195.61 28.9463 195.61 28.79C195.611 28.6859 195.592 28.5826 195.553 28.4861C195.513 28.3896 195.455 28.302 195.382 28.2284C195.308 28.1548 195.22 28.0966 195.124 28.0574C195.027 28.0182 194.924 27.9987 194.82 28V28Z" fill="#009688"></path><path d="M191.69 28C191.533 27.998 191.38 28.0427 191.248 28.1283C191.117 28.2138 191.014 28.3365 190.953 28.4807C190.892 28.6249 190.875 28.784 190.904 28.9379C190.933 29.0918 191.008 29.2335 191.118 29.345C191.228 29.4565 191.369 29.5327 191.522 29.564C191.676 29.5953 191.835 29.5803 191.98 29.5208C192.125 29.4613 192.249 29.36 192.336 29.2299C192.423 29.0998 192.47 28.9467 192.47 28.79C192.47 28.5822 192.388 28.3828 192.242 28.2349C192.096 28.087 191.898 28.0026 191.69 28Z" fill="#009688"></path><path d="M188.56 28C188.403 27.998 188.25 28.0427 188.118 28.1283C187.987 28.2138 187.884 28.3365 187.823 28.4807C187.762 28.6249 187.745 28.784 187.774 28.9379C187.803 29.0918 187.878 29.2335 187.988 29.345C188.098 29.4565 188.239 29.5327 188.392 29.564C188.546 29.5953 188.705 29.5803 188.85 29.5208C188.995 29.4613 189.119 29.36 189.206 29.2299C189.293 29.0998 189.34 28.9467 189.34 28.79C189.341 28.6867 189.322 28.5842 189.284 28.4884C189.245 28.3926 189.188 28.3055 189.115 28.232C189.043 28.1585 188.956 28.1001 188.861 28.0603C188.766 28.0205 188.663 28 188.56 28V28Z" fill="#009688"></path><path d="M194.82 31.12C194.666 31.122 194.516 31.1694 194.389 31.2563C194.263 31.3432 194.164 31.4657 194.107 31.6084C194.049 31.7511 194.035 31.9076 194.066 32.0582C194.097 32.2088 194.173 32.3469 194.282 32.455C194.392 32.5631 194.531 32.6364 194.682 32.6657C194.833 32.695 194.989 32.6789 195.131 32.6196C195.273 32.5603 195.394 32.4603 195.479 32.3323C195.565 32.2042 195.61 32.0538 195.61 31.9C195.61 31.7967 195.59 31.6945 195.55 31.5992C195.51 31.5039 195.452 31.4174 195.378 31.3449C195.305 31.2723 195.217 31.2151 195.122 31.1765C195.026 31.1379 194.923 31.1187 194.82 31.12V31.12Z" fill="#009688"></path><path d="M191.69 31.12C191.536 31.12 191.385 31.1657 191.257 31.2514C191.128 31.3372 191.028 31.459 190.969 31.6015C190.91 31.744 190.895 31.9009 190.925 32.0522C190.955 32.2035 191.029 32.3425 191.138 32.4515C191.247 32.5606 191.386 32.6349 191.538 32.665C191.689 32.6951 191.846 32.6797 191.988 32.6206C192.131 32.5616 192.253 32.4616 192.338 32.3333C192.424 32.2051 192.47 32.0543 192.47 31.9C192.47 31.6931 192.388 31.4947 192.241 31.3485C192.095 31.2022 191.897 31.12 191.69 31.12V31.12Z" fill="#009688"></path><path d="M188.56 31.12C188.406 31.12 188.255 31.1657 188.127 31.2514C187.998 31.3372 187.898 31.459 187.839 31.6015C187.78 31.744 187.765 31.9009 187.795 32.0522C187.825 32.2035 187.899 32.3425 188.008 32.4515C188.118 32.5606 188.257 32.6349 188.408 32.665C188.559 32.6951 188.716 32.6797 188.859 32.6206C189.001 32.5616 189.123 32.4616 189.209 32.3333C189.294 32.2051 189.34 32.0543 189.34 31.9C189.34 31.6931 189.258 31.4947 189.112 31.3485C188.965 31.2022 188.767 31.12 188.56 31.12V31.12Z" fill="#009688"></path><path d="M191.69 34.25C191.533 34.248 191.38 34.2927 191.248 34.3783C191.117 34.4638 191.014 34.5865 190.953 34.7307C190.892 34.8749 190.875 35.034 190.904 35.1879C190.933 35.3418 191.008 35.4835 191.118 35.595C191.228 35.7065 191.369 35.7827 191.522 35.814C191.676 35.8453 191.835 35.8303 191.98 35.7708C192.125 35.7113 192.249 35.61 192.336 35.4799C192.423 35.3498 192.47 35.1967 192.47 35.04C192.47 34.8322 192.388 34.6328 192.242 34.4849C192.096 34.337 191.898 34.2526 191.69 34.25Z" fill="#009688"></path><path d="M188.56 34.25C188.403 34.248 188.25 34.2927 188.118 34.3783C187.987 34.4638 187.884 34.5865 187.823 34.7307C187.762 34.8749 187.745 35.034 187.774 35.1879C187.803 35.3418 187.878 35.4835 187.988 35.595C188.098 35.7065 188.239 35.7827 188.392 35.814C188.546 35.8453 188.705 35.8303 188.85 35.7708C188.995 35.7113 189.119 35.61 189.206 35.4799C189.293 35.3498 189.34 35.1967 189.34 35.04C189.341 34.9367 189.322 34.8342 189.284 34.7384C189.245 34.6426 189.188 34.5555 189.115 34.482C189.043 34.4085 188.956 34.3501 188.861 34.3103C188.766 34.2705 188.663 34.25 188.56 34.25V34.25Z" fill="#009688"></path><path d="M188.56 37.39C188.403 37.388 188.249 37.4329 188.117 37.519C187.986 37.605 187.883 37.7283 187.822 37.873C187.761 38.0178 187.745 38.1775 187.775 38.3316C187.805 38.4858 187.88 38.6275 187.991 38.7386C188.102 38.8497 188.244 38.9251 188.398 38.9553C188.552 38.9854 188.712 38.9689 188.857 38.9079C189.002 38.8469 189.125 38.7441 189.211 38.6126C189.297 38.4812 189.342 38.3271 189.34 38.17C189.34 37.9631 189.258 37.7648 189.111 37.6185C188.965 37.4722 188.767 37.39 188.56 37.39V37.39Z" fill="#009688"></path><path d="M182.31 21.71C182.153 21.708 181.999 21.7529 181.867 21.839C181.736 21.925 181.633 22.0483 181.572 22.193C181.511 22.3378 181.495 22.4974 181.525 22.6516C181.555 22.8058 181.63 22.9475 181.741 23.0585C181.852 23.1696 181.994 23.2451 182.148 23.2752C182.302 23.3054 182.462 23.2889 182.607 23.2279C182.752 23.1669 182.875 23.0641 182.961 22.9326C183.047 22.8012 183.092 22.6471 183.09 22.49C183.09 22.2831 183.008 22.0847 182.861 21.9385C182.715 21.7922 182.517 21.71 182.31 21.71V21.71Z" fill="#009688"></path><path d="M179.18 21.71C179.023 21.708 178.869 21.7529 178.737 21.839C178.606 21.925 178.503 22.0483 178.442 22.193C178.381 22.3378 178.365 22.4974 178.395 22.6516C178.425 22.8058 178.5 22.9475 178.612 23.0585C178.723 23.1696 178.864 23.2451 179.018 23.2752C179.173 23.3054 179.332 23.2889 179.477 23.2279C179.622 23.1669 179.745 23.0641 179.831 22.9326C179.917 22.8012 179.962 22.6471 179.96 22.49C179.96 22.2831 179.878 22.0847 179.732 21.9385C179.585 21.7922 179.387 21.71 179.18 21.71Z" fill="#009688"></path><path d="M176.05 21.71C175.893 21.71 175.74 21.7566 175.61 21.8439C175.48 21.9311 175.379 22.0551 175.319 22.2C175.26 22.345 175.245 22.5043 175.276 22.6578C175.307 22.8113 175.383 22.9521 175.495 23.0622C175.606 23.1722 175.748 23.2467 175.902 23.276C176.056 23.3054 176.215 23.2883 176.359 23.227C176.503 23.1656 176.626 23.0628 176.712 22.9316C176.797 22.8004 176.842 22.6467 176.84 22.49C176.84 22.3867 176.819 22.2845 176.78 22.1892C176.74 22.0939 176.681 22.0074 176.608 21.9349C176.534 21.8623 176.447 21.8051 176.352 21.7665C176.256 21.7279 176.153 21.7087 176.05 21.71V21.71Z" fill="#009688"></path><path d="M172.92 21.71C172.763 21.708 172.609 21.7529 172.477 21.839C172.346 21.925 172.243 22.0483 172.182 22.193C172.121 22.3378 172.105 22.4974 172.135 22.6516C172.165 22.8058 172.24 22.9475 172.352 23.0585C172.463 23.1696 172.604 23.2451 172.758 23.2752C172.913 23.3054 173.072 23.2889 173.217 23.2279C173.362 23.1669 173.485 23.0641 173.571 22.9326C173.657 22.8012 173.702 22.6471 173.7 22.49C173.7 22.2831 173.618 22.0847 173.472 21.9385C173.325 21.7922 173.127 21.71 172.92 21.71Z" fill="#009688"></path><path d="M169.79 21.71C169.633 21.708 169.479 21.7529 169.347 21.839C169.216 21.925 169.113 22.0483 169.052 22.193C168.991 22.3378 168.975 22.4974 169.005 22.6516C169.035 22.8058 169.11 22.9475 169.221 23.0585C169.332 23.1696 169.474 23.2451 169.628 23.2752C169.782 23.3054 169.942 23.2889 170.087 23.2279C170.232 23.1669 170.355 23.0641 170.441 22.9326C170.527 22.8012 170.572 22.6471 170.57 22.49C170.57 22.2831 170.488 22.0847 170.341 21.9385C170.195 21.7922 169.997 21.71 169.79 21.71V21.71Z" fill="#009688"></path><path d="M185.43 24.85C185.276 24.85 185.125 24.8958 184.997 24.9815C184.868 25.0672 184.768 25.189 184.709 25.3315C184.65 25.474 184.635 25.6309 184.665 25.7822C184.695 25.9335 184.769 26.0725 184.878 26.1815C184.987 26.2906 185.126 26.3649 185.278 26.395C185.429 26.4251 185.586 26.4097 185.728 26.3506C185.871 26.2916 185.993 26.1916 186.078 26.0634C186.164 25.9351 186.21 25.7843 186.21 25.63C186.21 25.4231 186.128 25.2247 185.981 25.0785C185.835 24.9322 185.637 24.85 185.43 24.85V24.85Z" fill="#009688"></path><path d="M182.31 24.85C182.156 24.85 182.005 24.8958 181.877 24.9815C181.748 25.0672 181.648 25.189 181.589 25.3315C181.53 25.474 181.515 25.6309 181.545 25.7822C181.575 25.9335 181.649 26.0725 181.758 26.1815C181.868 26.2906 182.007 26.3649 182.158 26.395C182.309 26.4251 182.466 26.4097 182.609 26.3506C182.751 26.2916 182.873 26.1916 182.959 26.0634C183.044 25.9351 183.09 25.7843 183.09 25.63C183.09 25.4231 183.008 25.2247 182.862 25.0785C182.715 24.9322 182.517 24.85 182.31 24.85V24.85Z" fill="#009688"></path><path d="M179.18 24.85C179.026 24.85 178.875 24.8958 178.747 24.9815C178.618 25.0672 178.518 25.189 178.459 25.3315C178.4 25.474 178.385 25.6309 178.415 25.7822C178.445 25.9335 178.519 26.0725 178.628 26.1815C178.737 26.2906 178.876 26.3649 179.028 26.395C179.179 26.4251 179.336 26.4097 179.478 26.3506C179.621 26.2916 179.743 26.1916 179.828 26.0634C179.914 25.9351 179.96 25.7843 179.96 25.63C179.96 25.4231 179.878 25.2247 179.731 25.0785C179.585 24.9322 179.387 24.85 179.18 24.85Z" fill="#009688"></path><path d="M176.05 24.85C175.896 24.852 175.746 24.8994 175.619 24.9863C175.493 25.0732 175.394 25.1957 175.337 25.3384C175.279 25.4811 175.265 25.6376 175.296 25.7882C175.327 25.9389 175.403 26.0769 175.512 26.185C175.621 26.2931 175.76 26.3664 175.912 26.3957C176.063 26.425 176.219 26.4089 176.361 26.3496C176.503 26.2903 176.624 26.1903 176.709 26.0623C176.795 25.9343 176.84 25.7838 176.84 25.63C176.84 25.5267 176.82 25.4245 176.78 25.3292C176.74 25.2339 176.682 25.1475 176.608 25.0749C176.535 25.0023 176.447 24.9451 176.352 24.9065C176.256 24.8679 176.153 24.8487 176.05 24.85V24.85Z" fill="#009688"></path><path d="M172.92 24.85C172.766 24.85 172.615 24.8958 172.487 24.9815C172.358 25.0672 172.258 25.189 172.199 25.3315C172.14 25.474 172.125 25.6309 172.155 25.7822C172.185 25.9335 172.259 26.0725 172.368 26.1815C172.477 26.2906 172.616 26.3649 172.768 26.395C172.919 26.4251 173.076 26.4097 173.218 26.3506C173.361 26.2916 173.483 26.1916 173.568 26.0634C173.654 25.9351 173.7 25.7843 173.7 25.63C173.7 25.4231 173.618 25.2247 173.471 25.0785C173.325 24.9322 173.127 24.85 172.92 24.85Z" fill="#009688"></path><path d="M169.79 24.85C169.636 24.85 169.485 24.8958 169.357 24.9815C169.228 25.0672 169.128 25.189 169.069 25.3315C169.01 25.474 168.995 25.6309 169.025 25.7822C169.055 25.9335 169.129 26.0725 169.238 26.1815C169.348 26.2906 169.487 26.3649 169.638 26.395C169.789 26.4251 169.946 26.4097 170.088 26.3506C170.231 26.2916 170.353 26.1916 170.439 26.0634C170.524 25.9351 170.57 25.7843 170.57 25.63C170.57 25.4231 170.488 25.2247 170.342 25.0785C170.195 24.9322 169.997 24.85 169.79 24.85V24.85Z" fill="#009688"></path><path d="M185.43 18.57C185.273 18.568 185.12 18.6127 184.988 18.6983C184.857 18.7839 184.754 18.9065 184.693 19.0507C184.632 19.1949 184.615 19.354 184.644 19.5079C184.673 19.6618 184.748 19.8035 184.858 19.915C184.968 20.0265 185.109 20.1027 185.262 20.134C185.416 20.1653 185.575 20.1503 185.72 20.0908C185.865 20.0313 185.989 19.9301 186.076 19.7999C186.163 19.6698 186.21 19.5167 186.21 19.36C186.211 19.2567 186.192 19.1542 186.153 19.0584C186.115 18.9627 186.058 18.8755 185.985 18.802C185.912 18.7285 185.826 18.6701 185.731 18.6303C185.635 18.5905 185.533 18.57 185.43 18.57V18.57Z" fill="#009688"></path><path d="M182.31 18.57C182.153 18.568 182 18.6126 181.868 18.6982C181.737 18.7838 181.634 18.9065 181.573 19.0507C181.512 19.1948 181.495 19.354 181.524 19.5079C181.553 19.6618 181.628 19.8035 181.738 19.915C181.848 20.0265 181.989 20.1027 182.142 20.134C182.296 20.1653 182.455 20.1503 182.6 20.0908C182.745 20.0313 182.869 19.93 182.956 19.7999C183.043 19.6698 183.09 19.5167 183.09 19.36C183.091 19.255 183.072 19.1508 183.032 19.0537C182.992 18.9566 182.933 18.8685 182.858 18.7947C182.783 18.721 182.695 18.663 182.597 18.6244C182.499 18.5858 182.395 18.5673 182.29 18.57H182.31Z" fill="#009688"></path><path d="M179.18 18.57C179.023 18.568 178.87 18.6126 178.738 18.6982C178.607 18.7838 178.504 18.9065 178.443 19.0507C178.382 19.1948 178.365 19.354 178.394 19.5079C178.423 19.6618 178.498 19.8035 178.608 19.915C178.718 20.0265 178.859 20.1027 179.012 20.134C179.166 20.1653 179.325 20.1503 179.47 20.0908C179.615 20.0313 179.739 19.93 179.826 19.7999C179.913 19.6698 179.96 19.5167 179.96 19.36C179.961 19.255 179.941 19.1508 179.902 19.0537C179.862 18.9566 179.803 18.8685 179.728 18.7947C179.653 18.721 179.564 18.663 179.467 18.6244C179.369 18.5858 179.265 18.5673 179.16 18.57H179.18Z" fill="#009688"></path><path d="M176.05 18.57C175.894 18.57 175.741 18.6163 175.611 18.7031C175.481 18.79 175.38 18.9133 175.32 19.0577C175.26 19.202 175.245 19.3609 175.275 19.5141C175.306 19.6674 175.381 19.8081 175.491 19.9186C175.602 20.0291 175.743 20.1043 175.896 20.1348C176.049 20.1653 176.208 20.1497 176.352 20.0899C176.497 20.0301 176.62 19.9288 176.707 19.7989C176.794 19.669 176.84 19.5163 176.84 19.36C176.842 19.2515 176.821 19.1438 176.779 19.0438C176.736 18.9439 176.674 18.8538 176.594 18.7795C176.515 18.7051 176.422 18.6481 176.319 18.612C176.217 18.576 176.108 18.5616 176 18.57H176.05Z" fill="#009688"></path><path d="M172.92 18.57C172.763 18.568 172.61 18.6127 172.479 18.6983C172.347 18.7839 172.244 18.9065 172.183 19.0507C172.122 19.1949 172.105 19.354 172.134 19.5079C172.163 19.6618 172.238 19.8035 172.348 19.915C172.458 20.0265 172.599 20.1027 172.752 20.134C172.906 20.1653 173.065 20.1503 173.21 20.0908C173.355 20.0313 173.479 19.9301 173.566 19.7999C173.654 19.6698 173.7 19.5167 173.7 19.36C173.7 19.1505 173.617 18.9495 173.469 18.8014C173.321 18.6532 173.12 18.57 172.91 18.57H172.92Z" fill="#009688"></path><path d="M169.79 18.57C169.633 18.568 169.48 18.6127 169.348 18.6983C169.217 18.7839 169.114 18.9065 169.053 19.0507C168.992 19.1949 168.975 19.354 169.004 19.5079C169.033 19.6618 169.108 19.8035 169.218 19.915C169.328 20.0265 169.469 20.1027 169.622 20.134C169.776 20.1653 169.935 20.1503 170.08 20.0908C170.225 20.0313 170.349 19.9301 170.436 19.7999C170.523 19.6698 170.57 19.5167 170.57 19.36C170.571 19.2559 170.552 19.1526 170.513 19.0561C170.473 18.9597 170.415 18.872 170.342 18.7984C170.268 18.7248 170.18 18.6666 170.084 18.6274C169.987 18.5882 169.884 18.5687 169.78 18.57H169.79Z" fill="#009688"></path><path d="M204.2 23.28C204.007 23.2582 203.829 23.1661 203.7 23.0213C203.57 22.8765 203.499 22.6892 203.499 22.495C203.499 22.3009 203.57 22.1135 203.7 21.9687C203.829 21.8239 204.007 21.7318 204.2 21.71V21.71C204.311 21.6975 204.422 21.7085 204.528 21.7423C204.634 21.776 204.732 21.8318 204.815 21.9059C204.898 21.98 204.964 22.0708 205.01 22.1723C205.055 22.2738 205.079 22.3838 205.079 22.495C205.079 22.6063 205.055 22.7162 205.01 22.8178C204.964 22.9193 204.898 23.0101 204.815 23.0842C204.732 23.1583 204.634 23.214 204.528 23.2478C204.422 23.2815 204.311 23.2925 204.2 23.28V23.28Z" fill="black"></path><path d="M201.08 23.28C200.969 23.2925 200.857 23.2815 200.751 23.2478C200.645 23.214 200.548 23.1583 200.465 23.0842C200.382 23.0101 200.316 22.9193 200.27 22.8178C200.225 22.7162 200.201 22.6063 200.201 22.495C200.201 22.3838 200.225 22.2738 200.27 22.1723C200.316 22.0708 200.382 21.98 200.465 21.9059C200.548 21.8318 200.645 21.776 200.751 21.7423C200.857 21.7085 200.969 21.6975 201.08 21.71C201.273 21.7318 201.451 21.8239 201.58 21.9687C201.71 22.1135 201.781 22.3009 201.781 22.495C201.781 22.6892 201.71 22.8765 201.58 23.0213C201.451 23.1661 201.273 23.2582 201.08 23.28V23.28Z" fill="black"></path><path d="M198 23.28C197.807 23.2582 197.629 23.1661 197.5 23.0213C197.37 22.8765 197.299 22.6891 197.299 22.495C197.299 22.3008 197.37 22.1135 197.5 21.9687C197.629 21.8239 197.807 21.7318 198 21.71V21.71C198.193 21.7318 198.371 21.8239 198.501 21.9687C198.63 22.1135 198.701 22.3008 198.701 22.495C198.701 22.6891 198.63 22.8765 198.501 23.0213C198.371 23.1661 198.193 23.2582 198 23.28V23.28Z" fill="black"></path><path d="M194.82 23.28C194.627 23.2582 194.449 23.1661 194.319 23.0213C194.19 22.8765 194.119 22.6891 194.119 22.495C194.119 22.3008 194.19 22.1135 194.319 21.9687C194.449 21.8239 194.627 21.7318 194.82 21.71V21.71C195.013 21.7318 195.191 21.8239 195.32 21.9687C195.45 22.1135 195.521 22.3008 195.521 22.495C195.521 22.6891 195.45 22.8765 195.32 23.0213C195.191 23.1661 195.013 23.2582 194.82 23.28V23.28Z" fill="black"></path><path d="M191.69 23.28C191.497 23.2582 191.319 23.1661 191.19 23.0213C191.06 22.8765 190.989 22.6891 190.989 22.495C190.989 22.3008 191.06 22.1135 191.19 21.9687C191.319 21.8239 191.497 21.7318 191.69 21.71V21.71C191.883 21.7318 192.061 21.8239 192.19 21.9687C192.32 22.1135 192.391 22.3008 192.391 22.495C192.391 22.6891 192.32 22.8765 192.19 23.0213C192.061 23.1661 191.883 23.2582 191.69 23.28V23.28Z" fill="black"></path><path d="M188.56 23.28C188.367 23.2582 188.189 23.1661 188.059 23.0213C187.93 22.8765 187.859 22.6891 187.859 22.495C187.859 22.3008 187.93 22.1135 188.059 21.9687C188.189 21.8239 188.367 21.7318 188.56 21.71V21.71C188.753 21.7318 188.931 21.8239 189.06 21.9687C189.19 22.1135 189.261 22.3008 189.261 22.495C189.261 22.6891 189.19 22.8765 189.06 23.0213C188.931 23.1661 188.753 23.2582 188.56 23.28V23.28Z" fill="black"></path><path d="M185.43 23.28C185.237 23.2582 185.059 23.1661 184.93 23.0213C184.8 22.8765 184.729 22.6892 184.729 22.495C184.729 22.3009 184.8 22.1135 184.93 21.9687C185.059 21.8239 185.237 21.7318 185.43 21.71V21.71C185.541 21.6975 185.652 21.7085 185.758 21.7423C185.864 21.776 185.962 21.8318 186.045 21.9059C186.128 21.98 186.194 22.0708 186.24 22.1723C186.285 22.2738 186.309 22.3838 186.309 22.495C186.309 22.6063 186.285 22.7162 186.24 22.8178C186.194 22.9193 186.128 23.0101 186.045 23.0842C185.962 23.1583 185.864 23.214 185.758 23.2478C185.652 23.2815 185.541 23.2925 185.43 23.28V23.28Z" fill="black"></path><path d="M201.08 20.14C200.969 20.1525 200.857 20.1415 200.751 20.1078C200.645 20.074 200.548 20.0183 200.465 19.9442C200.382 19.8701 200.316 19.7793 200.27 19.6777C200.225 19.5762 200.201 19.4662 200.201 19.355C200.201 19.2438 200.225 19.1338 200.27 19.0323C200.316 18.9307 200.382 18.84 200.465 18.7658C200.548 18.6917 200.645 18.636 200.751 18.6022C200.857 18.5685 200.969 18.5575 201.08 18.57V18.57C201.273 18.5918 201.451 18.6839 201.58 18.8287C201.71 18.9735 201.781 19.1608 201.781 19.355C201.781 19.5492 201.71 19.7365 201.58 19.8813C201.451 20.0261 201.273 20.1182 201.08 20.14Z" fill="black"></path><path d="M198 20.14C197.807 20.1182 197.629 20.0261 197.5 19.8813C197.37 19.7365 197.299 19.5492 197.299 19.355C197.299 19.1609 197.37 18.9735 197.5 18.8287C197.629 18.6839 197.807 18.5918 198 18.57C198.193 18.5918 198.371 18.6839 198.501 18.8287C198.63 18.9735 198.701 19.1609 198.701 19.355C198.701 19.5492 198.63 19.7365 198.501 19.8813C198.371 20.0261 198.193 20.1182 198 20.14Z" fill="black"></path><path d="M194.82 20.14C194.627 20.1182 194.449 20.0261 194.319 19.8813C194.19 19.7365 194.119 19.5492 194.119 19.355C194.119 19.1609 194.19 18.9735 194.319 18.8287C194.449 18.6839 194.627 18.5918 194.82 18.57C195.013 18.5918 195.191 18.6839 195.32 18.8287C195.45 18.9735 195.521 19.1609 195.521 19.355C195.521 19.5492 195.45 19.7365 195.32 19.8813C195.191 20.0261 195.013 20.1182 194.82 20.14Z" fill="black"></path><path d="M191.69 20.14C191.497 20.1182 191.319 20.0261 191.19 19.8813C191.06 19.7365 190.989 19.5492 190.989 19.355C190.989 19.1609 191.06 18.9735 191.19 18.8287C191.319 18.6839 191.497 18.5918 191.69 18.57C191.883 18.5918 192.061 18.6839 192.19 18.8287C192.32 18.9735 192.391 19.1609 192.391 19.355C192.391 19.5492 192.32 19.7365 192.19 19.8813C192.061 20.0261 191.883 20.1182 191.69 20.14V20.14Z" fill="black"></path><path d="M188.56 20.14C188.367 20.1182 188.189 20.0261 188.059 19.8813C187.93 19.7365 187.859 19.5492 187.859 19.355C187.859 19.1609 187.93 18.9735 188.059 18.8287C188.189 18.6839 188.367 18.5918 188.56 18.57C188.753 18.5918 188.931 18.6839 189.06 18.8287C189.19 18.9735 189.261 19.1609 189.261 19.355C189.261 19.5492 189.19 19.7365 189.06 19.8813C188.931 20.0261 188.753 20.1182 188.56 20.14V20.14Z" fill="black"></path><path d="M198 17C197.792 16.9974 197.594 16.913 197.448 16.7651C197.302 16.6172 197.22 16.4178 197.22 16.21C197.22 16.0031 197.302 15.8047 197.448 15.6584C197.595 15.5122 197.793 15.43 198 15.43C198.207 15.43 198.405 15.5122 198.552 15.6584C198.698 15.8047 198.78 16.0031 198.78 16.21C198.78 16.4178 198.698 16.6172 198.552 16.7651C198.406 16.913 198.208 16.9974 198 17V17Z" fill="black"></path><path d="M194.82 17C194.612 16.9974 194.414 16.913 194.268 16.7651C194.122 16.6172 194.04 16.4178 194.04 16.21C194.04 16.0031 194.122 15.8047 194.269 15.6584C194.415 15.5122 194.613 15.43 194.82 15.43V15.43C195.027 15.43 195.225 15.5122 195.372 15.6584C195.518 15.8047 195.6 16.0031 195.6 16.21C195.6 16.4178 195.518 16.6172 195.372 16.7651C195.226 16.913 195.028 16.9974 194.82 17V17Z" fill="black"></path><path d="M191.69 17C191.482 16.9974 191.284 16.913 191.138 16.7651C190.992 16.6172 190.91 16.4178 190.91 16.21C190.91 16.0031 190.992 15.8047 191.138 15.6584C191.285 15.5122 191.483 15.43 191.69 15.43C191.897 15.43 192.095 15.5122 192.241 15.6584C192.388 15.8047 192.47 16.0031 192.47 16.21C192.47 16.4178 192.388 16.6172 192.242 16.7651C192.096 16.913 191.898 16.9974 191.69 17Z" fill="black"></path><path d="M188.56 17C188.352 16.9974 188.154 16.913 188.008 16.7651C187.862 16.6172 187.78 16.4178 187.78 16.21C187.78 16.0031 187.862 15.8047 188.008 15.6584C188.155 15.5122 188.353 15.43 188.56 15.43V15.43C188.767 15.43 188.965 15.5122 189.112 15.6584C189.258 15.8047 189.34 16.0031 189.34 16.21C189.34 16.4178 189.258 16.6172 189.112 16.7651C188.966 16.913 188.768 16.9974 188.56 17V17Z" fill="black"></path><path d="M194.82 13.87C194.627 13.8482 194.449 13.7561 194.319 13.6113C194.19 13.4665 194.119 13.2791 194.119 13.085C194.119 12.8908 194.19 12.7035 194.319 12.5587C194.449 12.4139 194.627 12.3218 194.82 12.3V12.3C195.013 12.3218 195.191 12.4139 195.32 12.5587C195.45 12.7035 195.521 12.8908 195.521 13.085C195.521 13.2791 195.45 13.4665 195.32 13.6113C195.191 13.7561 195.013 13.8482 194.82 13.87V13.87Z" fill="black"></path><path d="M191.69 13.87C191.497 13.8482 191.319 13.7561 191.19 13.6113C191.06 13.4665 190.989 13.2791 190.989 13.085C190.989 12.8908 191.06 12.7035 191.19 12.5587C191.319 12.4139 191.497 12.3218 191.69 12.3V12.3C191.883 12.3218 192.061 12.4139 192.19 12.5587C192.32 12.7035 192.391 12.8908 192.391 13.085C192.391 13.2791 192.32 13.4665 192.19 13.6113C192.061 13.7561 191.883 13.8482 191.69 13.87V13.87Z" fill="black"></path><path d="M188.56 13.87C188.367 13.8482 188.189 13.7561 188.059 13.6113C187.93 13.4665 187.859 13.2791 187.859 13.085C187.859 12.8908 187.93 12.7035 188.059 12.5587C188.189 12.4139 188.367 12.3218 188.56 12.3V12.3C188.753 12.3218 188.931 12.4139 189.06 12.5587C189.19 12.7035 189.261 12.8908 189.261 13.085C189.261 13.2791 189.19 13.4665 189.06 13.6113C188.931 13.7561 188.753 13.8482 188.56 13.87V13.87Z" fill="black"></path><path d="M191.69 10.73C191.483 10.73 191.285 10.6478 191.138 10.5016C190.992 10.3553 190.91 10.1569 190.91 9.95001C190.91 9.74314 190.992 9.54475 191.138 9.39847C191.285 9.25219 191.483 9.17001 191.69 9.17001V9.17001C191.897 9.17001 192.095 9.25219 192.241 9.39847C192.388 9.54475 192.47 9.74314 192.47 9.95001C192.47 10.1569 192.388 10.3553 192.241 10.5016C192.095 10.6478 191.897 10.73 191.69 10.73V10.73Z" fill="black"></path><path d="M188.56 10.73C188.353 10.73 188.155 10.6478 188.008 10.5016C187.862 10.3553 187.78 10.1569 187.78 9.95001C187.78 9.74314 187.862 9.54475 188.008 9.39847C188.155 9.25219 188.353 9.17001 188.56 9.17001C188.767 9.17001 188.965 9.25219 189.112 9.39847C189.258 9.54475 189.34 9.74314 189.34 9.95001C189.34 10.1569 189.258 10.3553 189.112 10.5016C188.965 10.6478 188.767 10.73 188.56 10.73V10.73Z" fill="black"></path><path d="M188.56 7.6C188.367 7.57819 188.189 7.4861 188.059 7.3413C187.93 7.19651 187.859 7.00915 187.859 6.815C187.859 6.62084 187.93 6.43349 188.059 6.28869C188.189 6.1439 188.367 6.05181 188.56 6.03V6.03C188.753 6.05181 188.931 6.1439 189.06 6.28869C189.19 6.43349 189.261 6.62084 189.261 6.815C189.261 7.00915 189.19 7.19651 189.06 7.3413C188.931 7.4861 188.753 7.57819 188.56 7.6Z" fill="black"></path><path d="M201.08 26.41C200.873 26.41 200.675 26.3278 200.529 26.1815C200.382 26.0353 200.3 25.8369 200.3 25.63C200.3 25.4231 200.382 25.2247 200.529 25.0785C200.675 24.9322 200.873 24.85 201.08 24.85C201.287 24.85 201.485 24.9322 201.632 25.0785C201.778 25.2247 201.86 25.4231 201.86 25.63C201.86 25.8369 201.778 26.0353 201.632 26.1815C201.485 26.3278 201.287 26.41 201.08 26.41V26.41Z" fill="black"></path><path d="M198 26.41C197.793 26.41 197.595 26.3278 197.448 26.1815C197.302 26.0353 197.22 25.8369 197.22 25.63C197.22 25.4231 197.302 25.2247 197.448 25.0785C197.595 24.9322 197.793 24.85 198 24.85C198.207 24.85 198.405 24.9322 198.552 25.0785C198.698 25.2247 198.78 25.4231 198.78 25.63C198.78 25.8369 198.698 26.0353 198.552 26.1815C198.405 26.3278 198.207 26.41 198 26.41V26.41Z" fill="black"></path><path d="M194.82 26.41C194.613 26.41 194.415 26.3278 194.269 26.1815C194.122 26.0353 194.04 25.8369 194.04 25.63C194.04 25.4231 194.122 25.2247 194.269 25.0785C194.415 24.9322 194.613 24.85 194.82 24.85V24.85C195.027 24.85 195.225 24.9322 195.372 25.0785C195.518 25.2247 195.6 25.4231 195.6 25.63C195.6 25.8369 195.518 26.0353 195.372 26.1815C195.225 26.3278 195.027 26.41 194.82 26.41V26.41Z" fill="black"></path><path d="M191.69 26.41C191.483 26.41 191.285 26.3278 191.138 26.1815C190.992 26.0353 190.91 25.8369 190.91 25.63C190.91 25.4231 190.992 25.2247 191.138 25.0785C191.285 24.9322 191.483 24.85 191.69 24.85C191.897 24.85 192.095 24.9322 192.241 25.0785C192.388 25.2247 192.47 25.4231 192.47 25.63C192.47 25.8369 192.388 26.0353 192.241 26.1815C192.095 26.3278 191.897 26.41 191.69 26.41V26.41Z" fill="black"></path><path d="M188.56 26.41C188.353 26.41 188.155 26.3278 188.008 26.1815C187.862 26.0353 187.78 25.8369 187.78 25.63C187.78 25.4231 187.862 25.2247 188.008 25.0785C188.155 24.9322 188.353 24.85 188.56 24.85V24.85C188.767 24.85 188.965 24.9322 189.112 25.0785C189.258 25.2247 189.34 25.4231 189.34 25.63C189.34 25.8369 189.258 26.0353 189.112 26.1815C188.965 26.3278 188.767 26.41 188.56 26.41V26.41Z" fill="black"></path><path d="M198 29.55C197.821 29.5145 197.659 29.4179 197.543 29.2765C197.427 29.1352 197.363 28.9579 197.363 28.775C197.363 28.5921 197.427 28.4148 197.543 28.2735C197.659 28.1321 197.821 28.0355 198 28C198.193 28.0218 198.371 28.1139 198.5 28.2587C198.63 28.4035 198.701 28.5908 198.701 28.785C198.701 28.9792 198.63 29.1665 198.5 29.3113C198.371 29.4561 198.193 29.5482 198 29.57V29.55Z" fill="black"></path><path d="M194.82 29.55C194.627 29.5282 194.449 29.4361 194.319 29.2913C194.19 29.1465 194.119 28.9592 194.119 28.765C194.119 28.5709 194.19 28.3835 194.319 28.2387C194.449 28.0939 194.627 28.0018 194.82 27.98V27.98C195.013 28.0018 195.191 28.0939 195.32 28.2387C195.45 28.3835 195.521 28.5709 195.521 28.765C195.521 28.9592 195.45 29.1465 195.32 29.2913C195.191 29.4361 195.013 29.5282 194.82 29.55V29.55Z" fill="black"></path><path d="M191.69 29.55C191.497 29.5282 191.319 29.4361 191.19 29.2913C191.06 29.1465 190.989 28.9592 190.989 28.765C190.989 28.5709 191.06 28.3835 191.19 28.2387C191.319 28.0939 191.497 28.0018 191.69 27.98V27.98C191.883 28.0018 192.061 28.0939 192.19 28.2387C192.32 28.3835 192.391 28.5709 192.391 28.765C192.391 28.9592 192.32 29.1465 192.19 29.2913C192.061 29.4361 191.883 29.5282 191.69 29.55V29.55Z" fill="black"></path><path d="M188.56 29.55C188.367 29.5282 188.189 29.4361 188.059 29.2913C187.93 29.1465 187.859 28.9592 187.859 28.765C187.859 28.5709 187.93 28.3835 188.059 28.2387C188.189 28.0939 188.367 28.0018 188.56 27.98V27.98C188.753 28.0018 188.931 28.0939 189.06 28.2387C189.19 28.3835 189.261 28.5709 189.261 28.765C189.261 28.9592 189.19 29.1465 189.06 29.2913C188.931 29.4361 188.753 29.5282 188.56 29.55V29.55Z" fill="black"></path><path d="M194.82 32.68C194.613 32.68 194.415 32.5978 194.269 32.4515C194.122 32.3053 194.04 32.1069 194.04 31.9C194.04 31.6931 194.122 31.4947 194.269 31.3485C194.415 31.2022 194.613 31.12 194.82 31.12V31.12C194.922 31.12 195.024 31.1402 195.119 31.1794C195.213 31.2186 195.299 31.276 195.372 31.3485C195.444 31.4209 195.501 31.5069 195.541 31.6015C195.58 31.6961 195.6 31.7976 195.6 31.9C195.6 32.0024 195.58 32.1039 195.541 32.1985C195.501 32.2931 195.444 32.3791 195.372 32.4515C195.299 32.524 195.213 32.5814 195.119 32.6206C195.024 32.6598 194.922 32.68 194.82 32.68V32.68Z" fill="black"></path><path d="M191.69 32.68C191.483 32.68 191.285 32.5978 191.138 32.4515C190.992 32.3053 190.91 32.1069 190.91 31.9C190.91 31.6931 190.992 31.4947 191.138 31.3485C191.285 31.2022 191.483 31.12 191.69 31.12V31.12C191.792 31.12 191.894 31.1402 191.988 31.1794C192.083 31.2186 192.169 31.276 192.241 31.3485C192.314 31.4209 192.371 31.5069 192.411 31.6015C192.45 31.6961 192.47 31.7976 192.47 31.9C192.47 32.0024 192.45 32.1039 192.411 32.1985C192.371 32.2931 192.314 32.3791 192.241 32.4515C192.169 32.524 192.083 32.5814 191.988 32.6206C191.894 32.6598 191.792 32.68 191.69 32.68V32.68Z" fill="black"></path><path d="M188.56 32.68C188.353 32.68 188.155 32.5978 188.008 32.4515C187.862 32.3053 187.78 32.1069 187.78 31.9C187.78 31.6931 187.862 31.4947 188.008 31.3485C188.155 31.2022 188.353 31.12 188.56 31.12V31.12C188.662 31.12 188.764 31.1402 188.859 31.1794C188.953 31.2186 189.039 31.276 189.112 31.3485C189.184 31.4209 189.241 31.5069 189.281 31.6015C189.32 31.6961 189.34 31.7976 189.34 31.9C189.34 32.0024 189.32 32.1039 189.281 32.1985C189.241 32.2931 189.184 32.3791 189.112 32.4515C189.039 32.524 188.953 32.5814 188.859 32.6206C188.764 32.6598 188.662 32.68 188.56 32.68V32.68Z" fill="black"></path><path d="M191.69 35.82C191.497 35.7982 191.319 35.7061 191.19 35.5613C191.06 35.4165 190.989 35.2292 190.989 35.035C190.989 34.8408 191.06 34.6535 191.19 34.5087C191.319 34.3639 191.497 34.2718 191.69 34.25V34.25C191.883 34.2718 192.061 34.3639 192.19 34.5087C192.32 34.6535 192.391 34.8408 192.391 35.035C192.391 35.2292 192.32 35.4165 192.19 35.5613C192.061 35.7061 191.883 35.7982 191.69 35.82Z" fill="black"></path><path d="M188.56 35.82C188.367 35.7982 188.189 35.7061 188.059 35.5613C187.93 35.4165 187.859 35.2292 187.859 35.035C187.859 34.8408 187.93 34.6535 188.059 34.5087C188.189 34.3639 188.367 34.2718 188.56 34.25V34.25C188.753 34.2718 188.931 34.3639 189.06 34.5087C189.19 34.6535 189.261 34.8408 189.261 35.035C189.261 35.2292 189.19 35.4165 189.06 35.5613C188.931 35.7061 188.753 35.7982 188.56 35.82Z" fill="black"></path><path d="M188.56 39C188.367 38.9782 188.189 38.8861 188.059 38.7413C187.93 38.5965 187.859 38.4091 187.859 38.215C187.859 38.0208 187.93 37.8335 188.059 37.6887C188.189 37.5439 188.367 37.4518 188.56 37.43V37.43C188.753 37.4518 188.931 37.5439 189.06 37.6887C189.19 37.8335 189.261 38.0208 189.261 38.215C189.261 38.4091 189.19 38.5965 189.06 38.7413C188.931 38.8861 188.753 38.9782 188.56 39Z" fill="black"></path><path d="M182.31 23.28C182.199 23.2925 182.087 23.2815 181.981 23.2478C181.875 23.214 181.778 23.1583 181.695 23.0842C181.612 23.0101 181.546 22.9193 181.5 22.8178C181.455 22.7162 181.431 22.6063 181.431 22.495C181.431 22.3838 181.455 22.2738 181.5 22.1723C181.546 22.0708 181.612 21.98 181.695 21.9059C181.778 21.8318 181.875 21.776 181.981 21.7423C182.087 21.7085 182.199 21.6975 182.31 21.71C182.503 21.7318 182.681 21.8239 182.81 21.9687C182.94 22.1135 183.011 22.3009 183.011 22.495C183.011 22.6892 182.94 22.8765 182.81 23.0213C182.681 23.1661 182.503 23.2582 182.31 23.28V23.28Z" fill="black"></path><path d="M179.18 23.28C178.987 23.2582 178.809 23.1661 178.68 23.0213C178.55 22.8765 178.479 22.6891 178.479 22.495C178.479 22.3008 178.55 22.1135 178.68 21.9687C178.809 21.8239 178.987 21.7318 179.18 21.71V21.71C179.373 21.7318 179.551 21.8239 179.68 21.9687C179.81 22.1135 179.881 22.3008 179.881 22.495C179.881 22.6891 179.81 22.8765 179.68 23.0213C179.551 23.1661 179.373 23.2582 179.18 23.28V23.28Z" fill="black"></path><path d="M176.05 23.28C175.857 23.2582 175.679 23.1661 175.549 23.0213C175.42 22.8765 175.349 22.6891 175.349 22.495C175.349 22.3008 175.42 22.1135 175.549 21.9687C175.679 21.8239 175.857 21.7318 176.05 21.71V21.71C176.243 21.7318 176.421 21.8239 176.55 21.9687C176.68 22.1135 176.751 22.3008 176.751 22.495C176.751 22.6891 176.68 22.8765 176.55 23.0213C176.421 23.1661 176.243 23.2582 176.05 23.28V23.28Z" fill="black"></path><path d="M172.92 23.28C172.727 23.2582 172.549 23.1661 172.42 23.0213C172.29 22.8765 172.219 22.6891 172.219 22.495C172.219 22.3008 172.29 22.1135 172.42 21.9687C172.549 21.8239 172.727 21.7318 172.92 21.71V21.71C173.113 21.7318 173.291 21.8239 173.42 21.9687C173.55 22.1135 173.621 22.3008 173.621 22.495C173.621 22.6891 173.55 22.8765 173.42 23.0213C173.291 23.1661 173.113 23.2582 172.92 23.28V23.28Z" fill="black"></path><path d="M169.79 23.28C169.597 23.2582 169.419 23.1661 169.289 23.0213C169.16 22.8765 169.089 22.6892 169.089 22.495C169.089 22.3009 169.16 22.1135 169.289 21.9687C169.419 21.8239 169.597 21.7318 169.79 21.71V21.71C169.9 21.6975 170.012 21.7085 170.118 21.7423C170.224 21.776 170.322 21.8318 170.405 21.9059C170.488 21.98 170.554 22.0708 170.6 22.1723C170.645 22.2738 170.669 22.3838 170.669 22.495C170.669 22.6063 170.645 22.7162 170.6 22.8178C170.554 22.9193 170.488 23.0101 170.405 23.0842C170.322 23.1583 170.224 23.214 170.118 23.2478C170.012 23.2815 169.9 23.2925 169.79 23.28V23.28Z" fill="black"></path><path d="M185.43 26.41C185.223 26.41 185.025 26.3278 184.878 26.1815C184.732 26.0353 184.65 25.8369 184.65 25.63C184.65 25.4231 184.732 25.2247 184.878 25.0785C185.025 24.9322 185.223 24.85 185.43 24.85V24.85C185.637 24.85 185.835 24.9322 185.981 25.0785C186.128 25.2247 186.21 25.4231 186.21 25.63C186.21 25.8369 186.128 26.0353 185.981 26.1815C185.835 26.3278 185.637 26.41 185.43 26.41V26.41Z" fill="black"></path><path d="M182.31 26.41C182.103 26.41 181.905 26.3278 181.758 26.1815C181.612 26.0353 181.53 25.8369 181.53 25.63C181.53 25.4231 181.612 25.2247 181.758 25.0785C181.905 24.9322 182.103 24.85 182.31 24.85V24.85C182.517 24.85 182.715 24.9322 182.862 25.0785C183.008 25.2247 183.09 25.4231 183.09 25.63C183.09 25.8369 183.008 26.0353 182.862 26.1815C182.715 26.3278 182.517 26.41 182.31 26.41V26.41Z" fill="black"></path><path d="M179.18 26.41C178.973 26.41 178.775 26.3278 178.628 26.1815C178.482 26.0353 178.4 25.8369 178.4 25.63C178.4 25.4231 178.482 25.2247 178.628 25.0785C178.775 24.9322 178.973 24.85 179.18 24.85C179.387 24.85 179.585 24.9322 179.731 25.0785C179.878 25.2247 179.96 25.4231 179.96 25.63C179.96 25.8369 179.878 26.0353 179.731 26.1815C179.585 26.3278 179.387 26.41 179.18 26.41V26.41Z" fill="black"></path><path d="M176.05 26.41C175.843 26.41 175.645 26.3278 175.498 26.1815C175.352 26.0353 175.27 25.8369 175.27 25.63C175.27 25.4231 175.352 25.2247 175.498 25.0785C175.645 24.9322 175.843 24.85 176.05 24.85V24.85C176.257 24.85 176.455 24.9322 176.602 25.0785C176.748 25.2247 176.83 25.4231 176.83 25.63C176.83 25.8369 176.748 26.0353 176.602 26.1815C176.455 26.3278 176.257 26.41 176.05 26.41V26.41Z" fill="black"></path><path d="M172.92 26.41C172.713 26.41 172.515 26.3278 172.368 26.1815C172.222 26.0353 172.14 25.8369 172.14 25.63C172.14 25.4231 172.222 25.2247 172.368 25.0785C172.515 24.9322 172.713 24.85 172.92 24.85C173.127 24.85 173.325 24.9322 173.471 25.0785C173.618 25.2247 173.7 25.4231 173.7 25.63C173.7 25.8369 173.618 26.0353 173.471 26.1815C173.325 26.3278 173.127 26.41 172.92 26.41V26.41Z" fill="black"></path><path d="M169.79 26.41C169.583 26.41 169.385 26.3278 169.238 26.1815C169.092 26.0353 169.01 25.8369 169.01 25.63C169.01 25.4231 169.092 25.2247 169.238 25.0785C169.385 24.9322 169.583 24.85 169.79 24.85V24.85C169.997 24.85 170.195 24.9322 170.342 25.0785C170.488 25.2247 170.57 25.4231 170.57 25.63C170.57 25.8369 170.488 26.0353 170.342 26.1815C170.195 26.3278 169.997 26.41 169.79 26.41V26.41Z" fill="black"></path><path d="M185.43 20.14C185.237 20.1182 185.059 20.0261 184.93 19.8813C184.8 19.7365 184.729 19.5492 184.729 19.355C184.729 19.1608 184.8 18.9735 184.93 18.8287C185.059 18.6839 185.237 18.5918 185.43 18.57C185.541 18.5575 185.652 18.5685 185.758 18.6022C185.864 18.636 185.962 18.6917 186.045 18.7658C186.128 18.84 186.194 18.9307 186.24 19.0323C186.285 19.1338 186.309 19.2438 186.309 19.355C186.309 19.4662 186.285 19.5762 186.24 19.6777C186.194 19.7793 186.128 19.8701 186.045 19.9442C185.962 20.0183 185.864 20.074 185.758 20.1078C185.652 20.1415 185.541 20.1525 185.43 20.14V20.14Z" fill="black"></path><path d="M182.31 20.14C182.199 20.1525 182.087 20.1415 181.981 20.1078C181.875 20.074 181.778 20.0183 181.695 19.9442C181.612 19.8701 181.546 19.7793 181.5 19.6777C181.455 19.5762 181.431 19.4662 181.431 19.355C181.431 19.2438 181.455 19.1338 181.5 19.0323C181.546 18.9307 181.612 18.84 181.695 18.7658C181.778 18.6917 181.875 18.636 181.981 18.6022C182.087 18.5685 182.199 18.5575 182.31 18.57V18.57C182.503 18.5918 182.681 18.6839 182.81 18.8287C182.94 18.9735 183.011 19.1608 183.011 19.355C183.011 19.5492 182.94 19.7365 182.81 19.8813C182.681 20.0261 182.503 20.1182 182.31 20.14Z" fill="black"></path><path d="M179.18 20.14C178.987 20.1182 178.809 20.0261 178.68 19.8813C178.55 19.7365 178.479 19.5492 178.479 19.355C178.479 19.1609 178.55 18.9735 178.68 18.8287C178.809 18.6839 178.987 18.5918 179.18 18.57C179.373 18.5918 179.551 18.6839 179.68 18.8287C179.81 18.9735 179.881 19.1609 179.881 19.355C179.881 19.5492 179.81 19.7365 179.68 19.8813C179.551 20.0261 179.373 20.1182 179.18 20.14V20.14Z" fill="black"></path><path d="M176.05 20.14C175.857 20.1182 175.679 20.0261 175.549 19.8813C175.42 19.7365 175.349 19.5492 175.349 19.355C175.349 19.1609 175.42 18.9735 175.549 18.8287C175.679 18.6839 175.857 18.5918 176.05 18.57C176.243 18.5918 176.421 18.6839 176.55 18.8287C176.68 18.9735 176.751 19.1609 176.751 19.355C176.751 19.5492 176.68 19.7365 176.55 19.8813C176.421 20.0261 176.243 20.1182 176.05 20.14V20.14Z" fill="black"></path><path d="M172.92 20.14C172.727 20.1182 172.549 20.0261 172.42 19.8813C172.29 19.7365 172.219 19.5492 172.219 19.355C172.219 19.1609 172.29 18.9735 172.42 18.8287C172.549 18.6839 172.727 18.5918 172.92 18.57C173.113 18.5918 173.291 18.6839 173.42 18.8287C173.55 18.9735 173.621 19.1609 173.621 19.355C173.621 19.5492 173.55 19.7365 173.42 19.8813C173.291 20.0261 173.113 20.1182 172.92 20.14V20.14Z" fill="black"></path><path d="M169.79 20.14C169.597 20.1182 169.419 20.0261 169.289 19.8813C169.16 19.7365 169.089 19.5492 169.089 19.355C169.089 19.1608 169.16 18.9735 169.289 18.8287C169.419 18.6839 169.597 18.5918 169.79 18.57C169.9 18.5575 170.012 18.5685 170.118 18.6022C170.224 18.636 170.322 18.6917 170.405 18.7658C170.488 18.84 170.554 18.9307 170.6 19.0323C170.645 19.1338 170.669 19.2438 170.669 19.355C170.669 19.4662 170.645 19.5762 170.6 19.6777C170.554 19.7793 170.488 19.8701 170.405 19.9442C170.322 20.0183 170.224 20.074 170.118 20.1078C170.012 20.1415 169.9 20.1525 169.79 20.14V20.14Z" fill="black"></path></svg> 