<?xml version="1.0" encoding="UTF-8"?> <svg xmlns="http://www.w3.org/2000/svg" width="347" height="341" viewBox="0 0 347 341" fill="none"><g clip-path="url(#clip0_26_1235)"><path d="M157.97 43C169.568 43 178.97 33.598 178.97 22C178.97 10.402 169.568 1 157.97 1C146.372 1 136.97 10.402 136.97 22C136.97 33.598 146.372 43 157.97 43Z" fill="#222222"></path><path d="M153.4 26.73C153.397 26.6196 153.436 26.5121 153.51 26.43L158.77 20.18C159.315 19.6262 159.629 18.8865 159.65 18.11C159.672 17.8847 159.645 17.6572 159.571 17.4433C159.497 17.2294 159.377 17.0341 159.22 16.8707C159.064 16.7073 158.873 16.5798 158.663 16.4968C158.452 16.4138 158.226 16.3774 158 16.39C157 16.39 156.38 17.01 156.24 18.15C156.24 18.28 156.16 18.35 156 18.33L153.58 17.93C153.55 17.9269 153.522 17.9173 153.496 17.9018C153.471 17.8864 153.449 17.8654 153.433 17.8405C153.417 17.8156 153.406 17.7873 153.402 17.7578C153.398 17.7283 153.401 17.6983 153.41 17.67C153.56 15.6 155.23 13.8 158.11 13.8C160.99 13.8 162.71 15.64 162.71 18.06C162.688 19.4233 162.144 20.7263 161.19 21.7L157.26 26.34H162.49C162.519 26.3386 162.548 26.3433 162.576 26.3538C162.603 26.3644 162.628 26.3805 162.649 26.4012C162.669 26.422 162.686 26.4468 162.696 26.4741C162.707 26.5015 162.711 26.5307 162.71 26.56V28.74C162.711 28.7693 162.707 28.7985 162.696 28.8258C162.686 28.8532 162.669 28.878 162.649 28.8987C162.628 28.9195 162.603 28.9356 162.576 28.9462C162.548 28.9567 162.519 28.9614 162.49 28.96H153.6C153.571 28.9614 153.541 28.9567 153.514 28.9462C153.487 28.9356 153.462 28.9195 153.441 28.8987C153.42 28.878 153.404 28.8532 153.394 28.8258C153.383 28.7985 153.378 28.7693 153.38 28.74L153.4 26.73Z" fill="white"></path><path d="M229.18 21.71C229.023 21.708 228.869 21.7529 228.737 21.839C228.606 21.925 228.503 22.0483 228.442 22.193C228.381 22.3378 228.364 22.4974 228.395 22.6516C228.425 22.8058 228.5 22.9475 228.611 23.0585C228.722 23.1696 228.864 23.2451 229.018 23.2752C229.172 23.3054 229.332 23.2889 229.477 23.2279C229.622 23.1669 229.745 23.0641 229.831 22.9326C229.917 22.8012 229.962 22.6471 229.96 22.49C229.96 22.2831 229.878 22.0847 229.731 21.9385C229.585 21.7922 229.387 21.71 229.18 21.71V21.71Z" fill="#009688"></path><path d="M226.05 21.71C225.893 21.71 225.74 21.7566 225.61 21.8439C225.48 21.9311 225.378 22.0551 225.319 22.2C225.259 22.345 225.244 22.5043 225.276 22.6578C225.307 22.8113 225.383 22.9521 225.495 23.0622C225.606 23.1722 225.748 23.2467 225.902 23.276C226.056 23.3054 226.215 23.2883 226.359 23.227C226.503 23.1656 226.626 23.0628 226.711 22.9316C226.797 22.8004 226.842 22.6467 226.84 22.49C226.84 22.3867 226.819 22.2845 226.779 22.1892C226.74 22.0939 226.681 22.0074 226.608 21.9349C226.534 21.8623 226.447 21.8051 226.351 21.7665C226.255 21.7279 226.153 21.7087 226.05 21.71V21.71Z" fill="#009688"></path><path d="M222.92 21.71C222.763 21.708 222.609 21.7529 222.477 21.839C222.346 21.925 222.243 22.0483 222.182 22.193C222.121 22.3378 222.104 22.4974 222.135 22.6516C222.165 22.8058 222.24 22.9475 222.351 23.0585C222.462 23.1696 222.604 23.2451 222.758 23.2752C222.912 23.3054 223.072 23.2889 223.217 23.2279C223.362 23.1669 223.485 23.0641 223.571 22.9326C223.657 22.8012 223.702 22.6471 223.7 22.49C223.7 22.2831 223.618 22.0847 223.471 21.9385C223.325 21.7922 223.127 21.71 222.92 21.71V21.71Z" fill="#009688"></path><path d="M219.79 21.71C219.633 21.708 219.479 21.7529 219.347 21.839C219.216 21.925 219.113 22.0483 219.052 22.193C218.991 22.3378 218.974 22.4974 219.004 22.6516C219.035 22.8058 219.11 22.9475 219.221 23.0585C219.332 23.1696 219.474 23.2451 219.628 23.2752C219.782 23.3054 219.942 23.2889 220.087 23.2279C220.231 23.1669 220.355 23.0641 220.441 22.9326C220.527 22.8012 220.572 22.6471 220.57 22.49C220.57 22.2831 220.488 22.0847 220.341 21.9385C220.195 21.7922 219.997 21.71 219.79 21.71V21.71Z" fill="#009688"></path><path d="M216.66 21.71C216.503 21.708 216.349 21.7529 216.217 21.839C216.086 21.925 215.983 22.0483 215.922 22.193C215.861 22.3378 215.844 22.4974 215.875 22.6516C215.905 22.8058 215.98 22.9475 216.091 23.0585C216.202 23.1696 216.344 23.2451 216.498 23.2752C216.652 23.3054 216.812 23.2889 216.957 23.2279C217.102 23.1669 217.225 23.0641 217.311 22.9326C217.397 22.8012 217.442 22.6471 217.44 22.49C217.44 22.2831 217.358 22.0847 217.211 21.9385C217.065 21.7922 216.867 21.71 216.66 21.71Z" fill="#009688"></path><path d="M213.54 21.71C213.383 21.708 213.229 21.7529 213.097 21.839C212.966 21.925 212.863 22.0483 212.802 22.193C212.741 22.3378 212.724 22.4974 212.754 22.6516C212.785 22.8058 212.86 22.9475 212.971 23.0585C213.082 23.1696 213.224 23.2451 213.378 23.2752C213.532 23.3054 213.692 23.2889 213.837 23.2279C213.981 23.1669 214.105 23.0641 214.191 22.9326C214.277 22.8012 214.322 22.6471 214.32 22.49C214.32 22.2831 214.238 22.0847 214.091 21.9385C213.945 21.7922 213.747 21.71 213.54 21.71Z" fill="#009688"></path><path d="M210.41 21.71C210.253 21.708 210.099 21.7529 209.967 21.839C209.836 21.925 209.733 22.0483 209.672 22.193C209.611 22.3378 209.594 22.4974 209.625 22.6516C209.655 22.8058 209.73 22.9475 209.841 23.0585C209.952 23.1696 210.094 23.2451 210.248 23.2752C210.402 23.3054 210.562 23.2889 210.707 23.2279C210.852 23.1669 210.975 23.0641 211.061 22.9326C211.147 22.8012 211.192 22.6471 211.19 22.49C211.19 22.2831 211.108 22.0847 210.961 21.9385C210.815 21.7922 210.617 21.71 210.41 21.71Z" fill="#009688"></path><path d="M226.05 18.57C225.894 18.57 225.741 18.6163 225.611 18.7031C225.481 18.79 225.38 18.9133 225.32 19.0577C225.26 19.202 225.244 19.3609 225.275 19.5141C225.305 19.6674 225.381 19.8081 225.491 19.9186C225.602 20.0291 225.742 20.1044 225.896 20.1348C226.049 20.1653 226.208 20.1497 226.352 20.0899C226.496 20.0301 226.62 19.9288 226.707 19.7989C226.793 19.669 226.84 19.5163 226.84 19.36C226.841 19.2559 226.822 19.1526 226.782 19.0561C226.743 18.9597 226.685 18.872 226.611 18.7984C226.538 18.7248 226.45 18.6666 226.354 18.6274C226.257 18.5882 226.154 18.5687 226.05 18.57V18.57Z" fill="#009688"></path><path d="M222.92 18.57C222.763 18.568 222.609 18.6127 222.478 18.6983C222.347 18.7839 222.244 18.9065 222.183 19.0507C222.121 19.1949 222.104 19.354 222.134 19.5079C222.163 19.6618 222.237 19.8035 222.347 19.915C222.458 20.0265 222.598 20.1027 222.752 20.134C222.905 20.1653 223.065 20.1503 223.21 20.0908C223.355 20.0313 223.478 19.9301 223.566 19.7999C223.653 19.6698 223.7 19.5167 223.7 19.36C223.7 19.1522 223.618 18.9528 223.472 18.8049C223.326 18.657 223.127 18.5726 222.92 18.57Z" fill="#009688"></path><path d="M219.79 18.57C219.679 18.5575 219.567 18.5685 219.461 18.6022C219.355 18.636 219.258 18.6917 219.175 18.7658C219.092 18.84 219.025 18.9307 218.98 19.0323C218.934 19.1338 218.911 19.2438 218.911 19.355C218.911 19.4662 218.934 19.5762 218.98 19.6777C219.025 19.7793 219.092 19.8701 219.175 19.9442C219.258 20.0183 219.355 20.074 219.461 20.1078C219.567 20.1415 219.679 20.1525 219.79 20.14C219.983 20.1182 220.161 20.0261 220.29 19.8813C220.419 19.7365 220.491 19.5492 220.491 19.355C220.491 19.1608 220.419 18.9735 220.29 18.8287C220.161 18.6839 219.983 18.5918 219.79 18.57Z" fill="#009688"></path><path d="M216.66 18.57C216.503 18.568 216.349 18.6127 216.218 18.6983C216.087 18.7839 215.984 18.9065 215.923 19.0507C215.861 19.1949 215.844 19.354 215.874 19.5079C215.903 19.6618 215.977 19.8035 216.087 19.915C216.198 20.0265 216.338 20.1027 216.492 20.134C216.645 20.1653 216.805 20.1503 216.95 20.0908C217.095 20.0313 217.219 19.9301 217.306 19.7999C217.393 19.6698 217.44 19.5167 217.44 19.36C217.441 19.2567 217.422 19.1542 217.383 19.0584C217.345 18.9627 217.287 18.8755 217.215 18.802C217.142 18.7285 217.056 18.6701 216.96 18.6303C216.865 18.5905 216.763 18.57 216.66 18.57V18.57Z" fill="#009688"></path><path d="M213.54 18.57C213.383 18.568 213.229 18.6127 213.098 18.6983C212.967 18.7839 212.864 18.9065 212.803 19.0507C212.741 19.1949 212.724 19.354 212.754 19.5079C212.783 19.6618 212.858 19.8035 212.968 19.915C213.078 20.0265 213.218 20.1027 213.372 20.134C213.525 20.1653 213.685 20.1503 213.83 20.0908C213.975 20.0313 214.099 19.9301 214.186 19.7999C214.273 19.6698 214.32 19.5167 214.32 19.36C214.321 19.2567 214.302 19.1542 214.263 19.0584C214.225 18.9627 214.167 18.8755 214.095 18.802C214.022 18.7285 213.936 18.6701 213.841 18.6303C213.745 18.5905 213.643 18.57 213.54 18.57V18.57Z" fill="#009688"></path><path d="M222.92 15.44C222.816 15.4387 222.714 15.4579 222.618 15.4965C222.522 15.5351 222.435 15.5923 222.362 15.6649C222.288 15.7375 222.23 15.8239 222.19 15.9192C222.15 16.0145 222.13 16.1167 222.13 16.22C222.117 16.3305 222.128 16.4425 222.162 16.5484C222.196 16.6544 222.251 16.7521 222.326 16.8351C222.4 16.918 222.49 16.9844 222.592 17.0298C222.694 17.0753 222.804 17.0987 222.915 17.0987C223.026 17.0987 223.136 17.0753 223.237 17.0298C223.339 16.9844 223.43 16.918 223.504 16.8351C223.578 16.7521 223.634 16.6544 223.668 16.5484C223.701 16.4425 223.712 16.3305 223.7 16.22C223.7 16.0131 223.618 15.8147 223.471 15.6685C223.325 15.5222 223.127 15.44 222.92 15.44V15.44Z" fill="#009688"></path><path d="M219.79 15.44C219.582 15.44 219.383 15.5218 219.235 15.6678C219.087 15.8138 219.002 16.0122 219 16.22C219.002 16.4287 219.086 16.6282 219.234 16.7758C219.382 16.9233 219.581 17.0074 219.79 17.01C219.998 17.0074 220.196 16.923 220.342 16.7751C220.488 16.6272 220.57 16.4278 220.57 16.22C220.57 16.0131 220.488 15.8147 220.341 15.6685C220.195 15.5222 219.997 15.44 219.79 15.44V15.44Z" fill="#009688"></path><path d="M216.66 15.44C216.453 15.44 216.254 15.5222 216.108 15.6685C215.962 15.8147 215.88 16.0131 215.88 16.22C215.88 16.4269 215.962 16.6253 216.108 16.7715C216.254 16.9178 216.453 17 216.66 17C216.867 17 217.065 16.9178 217.211 16.7715C217.357 16.6253 217.44 16.4269 217.44 16.22C217.44 16.0131 217.357 15.8147 217.211 15.6685C217.065 15.5222 216.867 15.44 216.66 15.44V15.44Z" fill="#009688"></path><path d="M213.54 15.44C213.333 15.44 213.134 15.5222 212.988 15.6685C212.842 15.8147 212.76 16.0131 212.76 16.22C212.76 16.4269 212.842 16.6253 212.988 16.7715C213.134 16.9178 213.333 17 213.54 17C213.747 17 213.945 16.9178 214.091 16.7715C214.238 16.6253 214.32 16.4269 214.32 16.22C214.32 16.0131 214.238 15.8147 214.091 15.6685C213.945 15.5222 213.747 15.44 213.54 15.44V15.44Z" fill="#009688"></path><path d="M219.79 12.3C219.679 12.2875 219.567 12.2985 219.461 12.3323C219.355 12.366 219.258 12.4218 219.175 12.4959C219.092 12.57 219.025 12.6607 218.98 12.7623C218.934 12.8638 218.911 12.9738 218.911 13.085C218.911 13.1962 218.934 13.3062 218.98 13.4078C219.025 13.5093 219.092 13.6001 219.175 13.6742C219.258 13.7483 219.355 13.804 219.461 13.8378C219.567 13.8715 219.679 13.8825 219.79 13.87C219.983 13.8482 220.161 13.7561 220.29 13.6113C220.419 13.4665 220.491 13.2792 220.491 13.085C220.491 12.8909 220.419 12.7035 220.29 12.5587C220.161 12.4139 219.983 12.3218 219.79 12.3V12.3Z" fill="#009688"></path><path d="M216.66 12.3C216.503 12.298 216.349 12.3426 216.218 12.4282C216.087 12.5138 215.984 12.6365 215.923 12.7807C215.861 12.9248 215.844 13.084 215.874 13.2379C215.903 13.3918 215.977 13.5335 216.087 13.645C216.198 13.7565 216.338 13.8327 216.492 13.864C216.645 13.8953 216.805 13.8803 216.95 13.8208C217.095 13.7613 217.219 13.66 217.306 13.5299C217.393 13.3998 217.44 13.2467 217.44 13.09C217.441 12.9867 217.422 12.8842 217.383 12.7884C217.345 12.6926 217.287 12.6055 217.215 12.532C217.142 12.4585 217.056 12.4001 216.96 12.3603C216.865 12.3205 216.763 12.3 216.66 12.3Z" fill="#009688"></path><path d="M213.54 12.3C213.383 12.298 213.229 12.3426 213.098 12.4282C212.967 12.5138 212.864 12.6365 212.803 12.7807C212.741 12.9248 212.724 13.084 212.754 13.2379C212.783 13.3918 212.858 13.5335 212.968 13.645C213.078 13.7565 213.218 13.8327 213.372 13.864C213.525 13.8953 213.685 13.8803 213.83 13.8208C213.975 13.7613 214.099 13.66 214.186 13.5299C214.273 13.3998 214.32 13.2467 214.32 13.09C214.321 12.9867 214.302 12.8842 214.263 12.7884C214.225 12.6926 214.167 12.6055 214.095 12.532C214.022 12.4585 213.936 12.4001 213.841 12.3603C213.745 12.3205 213.643 12.3 213.54 12.3Z" fill="#009688"></path><path d="M216.66 9.17001C216.505 9.17001 216.355 9.21576 216.226 9.30147C216.098 9.38717 215.998 9.50899 215.939 9.65152C215.88 9.79405 215.865 9.95088 215.895 10.1022C215.925 10.2535 215.999 10.3925 216.108 10.5016C216.217 10.6106 216.356 10.6849 216.507 10.715C216.659 10.7451 216.816 10.7297 216.958 10.6706C217.101 10.6116 217.222 10.5116 217.308 10.3834C217.394 10.2551 217.44 10.1043 217.44 9.95001C217.44 9.74314 217.357 9.54475 217.211 9.39847C217.065 9.25219 216.867 9.17001 216.66 9.17001Z" fill="#009688"></path><path d="M213.54 9.17001C213.385 9.17001 213.235 9.21576 213.106 9.30147C212.978 9.38717 212.878 9.50899 212.819 9.65152C212.76 9.79405 212.745 9.95088 212.775 10.1022C212.805 10.2535 212.879 10.3925 212.988 10.5016C213.097 10.6106 213.236 10.6849 213.388 10.715C213.539 10.7451 213.696 10.7297 213.838 10.6706C213.981 10.6116 214.103 10.5116 214.188 10.3834C214.274 10.2551 214.32 10.1043 214.32 9.95001C214.32 9.74314 214.238 9.54475 214.091 9.39847C213.945 9.25219 213.747 9.17001 213.54 9.17001Z" fill="#009688"></path><path d="M213.54 6C213.383 5.99803 213.229 6.04293 213.097 6.12897C212.966 6.21501 212.863 6.33828 212.802 6.48303C212.741 6.62779 212.724 6.78745 212.754 6.94162C212.785 7.09579 212.86 7.23747 212.971 7.34855C213.082 7.45964 213.224 7.53508 213.378 7.56524C213.532 7.5954 213.692 7.57892 213.837 7.51789C213.981 7.45686 214.105 7.35406 214.191 7.22262C214.277 7.09119 214.322 6.93708 214.32 6.78C214.32 6.57313 214.238 6.37474 214.091 6.22846C213.945 6.08218 213.747 6 213.54 6Z" fill="#009688"></path><path d="M226.05 24.85C225.896 24.852 225.746 24.8994 225.619 24.9863C225.492 25.0732 225.394 25.1957 225.336 25.3384C225.279 25.4811 225.265 25.6376 225.296 25.7882C225.327 25.9389 225.402 26.0769 225.512 26.185C225.621 26.2931 225.76 26.3664 225.911 26.3957C226.062 26.425 226.219 26.4089 226.361 26.3496C226.502 26.2903 226.624 26.1903 226.709 26.0623C226.794 25.9343 226.84 25.7838 226.84 25.63C226.84 25.5267 226.819 25.4245 226.779 25.3292C226.74 25.2339 226.681 25.1475 226.608 25.0749C226.534 25.0023 226.447 24.9451 226.351 24.9065C226.256 24.8679 226.153 24.8487 226.05 24.85V24.85Z" fill="#009688"></path><path d="M222.92 24.85C222.765 24.85 222.615 24.8958 222.486 24.9815C222.358 25.0672 222.258 25.189 222.199 25.3315C222.14 25.474 222.125 25.6309 222.155 25.7822C222.185 25.9335 222.259 26.0725 222.368 26.1815C222.477 26.2906 222.616 26.3649 222.767 26.395C222.919 26.4251 223.076 26.4097 223.218 26.3506C223.361 26.2916 223.482 26.1916 223.568 26.0634C223.654 25.9351 223.7 25.7843 223.7 25.63C223.7 25.4231 223.617 25.2247 223.471 25.0785C223.325 24.9322 223.127 24.85 222.92 24.85V24.85Z" fill="#009688"></path><path d="M219.79 24.85C219.583 24.85 219.384 24.9322 219.238 25.0785C219.092 25.2247 219.01 25.4231 219.01 25.63C219.01 25.8369 219.092 26.0353 219.238 26.1815C219.384 26.3278 219.583 26.41 219.79 26.41C219.997 26.41 220.195 26.3278 220.341 26.1815C220.488 26.0353 220.57 25.8369 220.57 25.63C220.57 25.4231 220.488 25.2247 220.341 25.0785C220.195 24.9322 219.997 24.85 219.79 24.85V24.85Z" fill="#009688"></path><path d="M216.66 24.85C216.505 24.85 216.355 24.8958 216.226 24.9815C216.098 25.0672 215.998 25.189 215.939 25.3315C215.88 25.474 215.865 25.6309 215.895 25.7822C215.925 25.9335 215.999 26.0725 216.108 26.1815C216.217 26.2906 216.356 26.3649 216.507 26.395C216.659 26.4251 216.816 26.4097 216.958 26.3506C217.101 26.2916 217.222 26.1916 217.308 26.0634C217.394 25.9351 217.44 25.7843 217.44 25.63C217.44 25.4231 217.357 25.2247 217.211 25.0785C217.065 24.9322 216.867 24.85 216.66 24.85Z" fill="#009688"></path><path d="M213.54 24.85C213.385 24.85 213.235 24.8958 213.106 24.9815C212.978 25.0672 212.878 25.189 212.819 25.3315C212.76 25.474 212.745 25.6309 212.775 25.7822C212.805 25.9335 212.879 26.0725 212.988 26.1815C213.097 26.2906 213.236 26.3649 213.388 26.395C213.539 26.4251 213.696 26.4097 213.838 26.3506C213.981 26.2916 214.103 26.1916 214.188 26.0634C214.274 25.9351 214.32 25.7843 214.32 25.63C214.32 25.4231 214.238 25.2247 214.091 25.0785C213.945 24.9322 213.747 24.85 213.54 24.85Z" fill="#009688"></path><path d="M222.92 28C222.763 27.998 222.609 28.0427 222.478 28.1283C222.347 28.2138 222.244 28.3365 222.183 28.4807C222.121 28.6249 222.104 28.784 222.134 28.9379C222.163 29.0918 222.237 29.2335 222.347 29.345C222.458 29.4565 222.598 29.5327 222.752 29.564C222.905 29.5953 223.065 29.5803 223.21 29.5208C223.355 29.4613 223.478 29.36 223.566 29.2299C223.653 29.0998 223.7 28.9467 223.7 28.79C223.7 28.5822 223.618 28.3828 223.472 28.2349C223.326 28.087 223.127 28.0026 222.92 28V28Z" fill="#009688"></path><path d="M219.79 28C219.679 27.9875 219.567 27.9985 219.461 28.0322C219.355 28.066 219.258 28.1217 219.175 28.1958C219.092 28.2699 219.025 28.3607 218.98 28.4623C218.934 28.5638 218.911 28.6738 218.911 28.785C218.911 28.8962 218.934 29.0062 218.98 29.1077C219.025 29.2093 219.092 29.3 219.175 29.3742C219.258 29.4483 219.355 29.504 219.461 29.5378C219.567 29.5715 219.679 29.5825 219.79 29.57C219.983 29.5482 220.161 29.4561 220.29 29.3113C220.419 29.1665 220.491 28.9792 220.491 28.785C220.491 28.5908 220.419 28.4035 220.29 28.2587C220.161 28.1139 219.983 28.0218 219.79 28V28Z" fill="#009688"></path><path d="M216.66 28C216.503 27.998 216.349 28.0427 216.218 28.1283C216.087 28.2138 215.984 28.3365 215.923 28.4807C215.861 28.6249 215.844 28.784 215.874 28.9379C215.903 29.0918 215.977 29.2335 216.087 29.345C216.198 29.4565 216.338 29.5327 216.492 29.564C216.645 29.5953 216.805 29.5803 216.95 29.5208C217.095 29.4613 217.219 29.36 217.306 29.2299C217.393 29.0998 217.44 28.9467 217.44 28.79C217.441 28.6867 217.422 28.5842 217.383 28.4884C217.345 28.3926 217.287 28.3055 217.215 28.232C217.142 28.1585 217.056 28.1001 216.96 28.0603C216.865 28.0205 216.763 28 216.66 28Z" fill="#009688"></path><path d="M213.54 28C213.383 27.998 213.229 28.0427 213.098 28.1283C212.967 28.2138 212.864 28.3365 212.803 28.4807C212.741 28.6249 212.724 28.784 212.754 28.9379C212.783 29.0918 212.858 29.2335 212.968 29.345C213.078 29.4565 213.218 29.5327 213.372 29.564C213.525 29.5953 213.685 29.5803 213.83 29.5208C213.975 29.4613 214.099 29.36 214.186 29.2299C214.273 29.0998 214.32 28.9467 214.32 28.79C214.321 28.6867 214.302 28.5842 214.263 28.4884C214.225 28.3926 214.167 28.3055 214.095 28.232C214.022 28.1585 213.936 28.1001 213.841 28.0603C213.745 28.0205 213.643 28 213.54 28Z" fill="#009688"></path><path d="M219.79 31.12C219.687 31.12 219.586 31.1402 219.491 31.1794C219.397 31.2186 219.311 31.276 219.238 31.3485C219.166 31.4209 219.108 31.5069 219.069 31.6015C219.03 31.6961 219.01 31.7976 219.01 31.9C219.01 32.0024 219.03 32.1039 219.069 32.1985C219.108 32.2931 219.166 32.3791 219.238 32.4515C219.311 32.524 219.397 32.5814 219.491 32.6206C219.586 32.6598 219.687 32.68 219.79 32.68C219.892 32.68 219.994 32.6598 220.088 32.6206C220.183 32.5814 220.269 32.524 220.341 32.4515C220.414 32.3791 220.471 32.2931 220.51 32.1985C220.55 32.1039 220.57 32.0024 220.57 31.9C220.57 31.7976 220.55 31.6961 220.51 31.6015C220.471 31.5069 220.414 31.4209 220.341 31.3485C220.269 31.276 220.183 31.2186 220.088 31.1794C219.994 31.1402 219.892 31.12 219.79 31.12V31.12Z" fill="#009688"></path><path d="M216.66 31.12C216.505 31.12 216.355 31.1657 216.226 31.2514C216.098 31.3372 215.998 31.459 215.939 31.6015C215.88 31.744 215.865 31.9009 215.895 32.0522C215.925 32.2035 215.999 32.3425 216.108 32.4515C216.217 32.5606 216.356 32.6349 216.507 32.665C216.659 32.6951 216.816 32.6797 216.958 32.6206C217.101 32.5616 217.222 32.4616 217.308 32.3333C217.394 32.2051 217.44 32.0543 217.44 31.9C217.44 31.6931 217.357 31.4947 217.211 31.3485C217.065 31.2022 216.867 31.12 216.66 31.12V31.12Z" fill="#009688"></path><path d="M213.54 31.12C213.385 31.12 213.235 31.1657 213.106 31.2514C212.978 31.3372 212.878 31.459 212.819 31.6015C212.76 31.744 212.745 31.9009 212.775 32.0522C212.805 32.2035 212.879 32.3425 212.988 32.4515C213.097 32.5606 213.236 32.6349 213.388 32.665C213.539 32.6951 213.696 32.6797 213.838 32.6206C213.981 32.5616 214.103 32.4616 214.188 32.3333C214.274 32.2051 214.32 32.0543 214.32 31.9C214.32 31.6931 214.238 31.4947 214.091 31.3485C213.945 31.2022 213.747 31.12 213.54 31.12V31.12Z" fill="#009688"></path><path d="M216.66 34.25C216.503 34.248 216.349 34.2927 216.218 34.3783C216.087 34.4638 215.984 34.5865 215.923 34.7307C215.861 34.8749 215.844 35.034 215.874 35.1879C215.903 35.3418 215.977 35.4835 216.087 35.595C216.198 35.7065 216.338 35.7827 216.492 35.814C216.645 35.8453 216.805 35.8303 216.95 35.7708C217.095 35.7113 217.219 35.61 217.306 35.4799C217.393 35.3498 217.44 35.1967 217.44 35.04C217.441 34.9367 217.422 34.8342 217.383 34.7384C217.345 34.6426 217.287 34.5555 217.215 34.482C217.142 34.4085 217.056 34.3501 216.96 34.3103C216.865 34.2705 216.763 34.25 216.66 34.25V34.25Z" fill="#009688"></path><path d="M213.54 34.25C213.383 34.248 213.229 34.2927 213.098 34.3783C212.967 34.4638 212.864 34.5865 212.803 34.7307C212.741 34.8749 212.724 35.034 212.754 35.1879C212.783 35.3418 212.858 35.4835 212.968 35.595C213.078 35.7065 213.218 35.7827 213.372 35.814C213.525 35.8453 213.685 35.8303 213.83 35.7708C213.975 35.7113 214.099 35.61 214.186 35.4799C214.273 35.3498 214.32 35.1967 214.32 35.04C214.321 34.9367 214.302 34.8342 214.263 34.7384C214.225 34.6426 214.167 34.5555 214.095 34.482C214.022 34.4085 213.936 34.3501 213.841 34.3103C213.745 34.2705 213.643 34.25 213.54 34.25V34.25Z" fill="#009688"></path><path d="M213.54 37.39C213.383 37.388 213.229 37.4329 213.097 37.519C212.966 37.605 212.863 37.7283 212.802 37.873C212.741 38.0178 212.724 38.1775 212.754 38.3316C212.785 38.4858 212.86 38.6275 212.971 38.7386C213.082 38.8497 213.224 38.9251 213.378 38.9553C213.532 38.9854 213.692 38.9689 213.837 38.9079C213.981 38.8469 214.105 38.7441 214.191 38.6126C214.277 38.4812 214.322 38.3271 214.32 38.17C214.32 37.9631 214.238 37.7648 214.091 37.6185C213.945 37.4722 213.747 37.39 213.54 37.39Z" fill="#009688"></path><path d="M207.28 21.71C207.123 21.71 206.97 21.7566 206.84 21.8439C206.71 21.9311 206.608 22.0551 206.549 22.2C206.489 22.345 206.474 22.5043 206.506 22.6578C206.537 22.8113 206.613 22.9521 206.725 23.0622C206.836 23.1722 206.978 23.2467 207.132 23.276C207.286 23.3054 207.445 23.2883 207.589 23.227C207.733 23.1656 207.856 23.0628 207.941 22.9316C208.027 22.8004 208.072 22.6467 208.07 22.49C208.07 22.3867 208.049 22.2845 208.009 22.1892C207.97 22.0939 207.911 22.0074 207.838 21.9349C207.764 21.8623 207.677 21.8051 207.581 21.7665C207.485 21.7279 207.383 21.7087 207.28 21.71V21.71Z" fill="#009688"></path><path d="M204.15 21.71C203.993 21.708 203.839 21.7529 203.707 21.839C203.576 21.925 203.473 22.0483 203.412 22.193C203.351 22.3378 203.334 22.4974 203.365 22.6516C203.395 22.8058 203.47 22.9475 203.581 23.0585C203.692 23.1696 203.834 23.2451 203.988 23.2752C204.142 23.3054 204.302 23.2889 204.447 23.2279C204.592 23.1669 204.715 23.0641 204.801 22.9326C204.887 22.8012 204.932 22.6471 204.93 22.49C204.93 22.2831 204.848 22.0847 204.701 21.9385C204.555 21.7922 204.357 21.71 204.15 21.71V21.71Z" fill="#009688"></path><path d="M201 21.71C200.843 21.708 200.688 21.7529 200.557 21.839C200.426 21.925 200.323 22.0483 200.262 22.193C200.201 22.3378 200.184 22.4974 200.214 22.6516C200.245 22.8058 200.32 22.9475 200.431 23.0585C200.542 23.1696 200.684 23.2451 200.838 23.2752C200.992 23.3054 201.152 23.2889 201.297 23.2279C201.441 23.1669 201.565 23.0641 201.651 22.9326C201.737 22.8012 201.782 22.6471 201.78 22.49C201.78 22.2831 201.697 22.0847 201.551 21.9385C201.405 21.7922 201.207 21.71 201 21.71V21.71Z" fill="#009688"></path><path d="M197.89 21.71C197.733 21.708 197.579 21.7529 197.447 21.839C197.316 21.925 197.213 22.0483 197.152 22.193C197.091 22.3378 197.074 22.4974 197.105 22.6516C197.135 22.8058 197.21 22.9475 197.321 23.0585C197.432 23.1696 197.574 23.2451 197.728 23.2752C197.882 23.3054 198.042 23.2889 198.187 23.2279C198.331 23.1669 198.455 23.0641 198.541 22.9326C198.627 22.8012 198.672 22.6471 198.67 22.49C198.67 22.2831 198.588 22.0847 198.441 21.9385C198.295 21.7922 198.097 21.71 197.89 21.71V21.71Z" fill="#009688"></path><path d="M194.77 21.71C194.613 21.708 194.458 21.7529 194.327 21.839C194.196 21.925 194.093 22.0483 194.032 22.193C193.971 22.3378 193.954 22.4974 193.984 22.6516C194.015 22.8058 194.09 22.9475 194.201 23.0585C194.312 23.1696 194.454 23.2451 194.608 23.2752C194.762 23.3054 194.922 23.2889 195.067 23.2279C195.211 23.1669 195.335 23.0641 195.421 22.9326C195.507 22.8012 195.552 22.6471 195.55 22.49C195.55 22.2831 195.467 22.0847 195.321 21.9385C195.175 21.7922 194.977 21.71 194.77 21.71V21.71Z" fill="#009688"></path><path d="M210.41 24.85C210.255 24.85 210.105 24.8958 209.976 24.9815C209.848 25.0672 209.748 25.189 209.689 25.3315C209.63 25.474 209.615 25.6309 209.645 25.7822C209.675 25.9335 209.749 26.0725 209.858 26.1815C209.967 26.2906 210.106 26.3649 210.257 26.395C210.409 26.4251 210.566 26.4097 210.708 26.3506C210.851 26.2916 210.972 26.1916 211.058 26.0634C211.144 25.9351 211.19 25.7843 211.19 25.63C211.19 25.4231 211.107 25.2247 210.961 25.0785C210.815 24.9322 210.617 24.85 210.41 24.85Z" fill="#009688"></path><path d="M207.28 24.85C207.126 24.852 206.976 24.8994 206.849 24.9863C206.722 25.0732 206.624 25.1957 206.566 25.3384C206.509 25.4811 206.495 25.6376 206.526 25.7882C206.557 25.9389 206.632 26.0769 206.742 26.185C206.851 26.2931 206.99 26.3664 207.141 26.3957C207.292 26.425 207.449 26.4089 207.591 26.3496C207.732 26.2903 207.854 26.1903 207.939 26.0623C208.024 25.9343 208.07 25.7838 208.07 25.63C208.07 25.5267 208.049 25.4245 208.009 25.3292C207.97 25.2339 207.911 25.1475 207.838 25.0749C207.764 25.0023 207.677 24.9451 207.581 24.9065C207.486 24.8679 207.383 24.8487 207.28 24.85V24.85Z" fill="#009688"></path><path d="M204.15 24.85C203.995 24.85 203.845 24.8958 203.716 24.9815C203.588 25.0672 203.488 25.189 203.429 25.3315C203.37 25.474 203.355 25.6309 203.385 25.7822C203.415 25.9335 203.489 26.0725 203.598 26.1815C203.707 26.2906 203.846 26.3649 203.997 26.395C204.149 26.4251 204.306 26.4097 204.448 26.3506C204.591 26.2916 204.712 26.1916 204.798 26.0634C204.884 25.9351 204.93 25.7843 204.93 25.63C204.93 25.4231 204.847 25.2247 204.701 25.0785C204.555 24.9322 204.356 24.85 204.15 24.85V24.85Z" fill="#009688"></path><path d="M201 24.85C200.845 24.85 200.695 24.8958 200.566 24.9815C200.438 25.0672 200.338 25.189 200.279 25.3315C200.22 25.474 200.205 25.6309 200.235 25.7822C200.265 25.9335 200.339 26.0725 200.448 26.1815C200.557 26.2906 200.696 26.3649 200.848 26.395C200.999 26.4251 201.156 26.4097 201.298 26.3506C201.441 26.2916 201.563 26.1916 201.648 26.0634C201.734 25.9351 201.78 25.7843 201.78 25.63C201.78 25.4231 201.698 25.2247 201.551 25.0785C201.405 24.9322 201.207 24.85 201 24.85V24.85Z" fill="#009688"></path><path d="M197.89 24.85C197.735 24.85 197.585 24.8958 197.456 24.9815C197.328 25.0672 197.228 25.189 197.169 25.3315C197.11 25.474 197.095 25.6309 197.125 25.7822C197.155 25.9335 197.229 26.0725 197.338 26.1815C197.447 26.2906 197.586 26.3649 197.737 26.395C197.889 26.4251 198.046 26.4097 198.188 26.3506C198.331 26.2916 198.452 26.1916 198.538 26.0634C198.624 25.9351 198.67 25.7843 198.67 25.63C198.67 25.4231 198.587 25.2247 198.441 25.0785C198.295 24.9322 198.096 24.85 197.89 24.85V24.85Z" fill="#009688"></path><path d="M194.77 24.85C194.615 24.85 194.465 24.8958 194.336 24.9815C194.208 25.0672 194.108 25.189 194.049 25.3315C193.99 25.474 193.975 25.6309 194.005 25.7822C194.035 25.9335 194.109 26.0725 194.218 26.1815C194.327 26.2906 194.466 26.3649 194.618 26.395C194.769 26.4251 194.926 26.4097 195.068 26.3506C195.211 26.2916 195.333 26.1916 195.418 26.0634C195.504 25.9351 195.55 25.7843 195.55 25.63C195.55 25.4231 195.468 25.2247 195.321 25.0785C195.175 24.9322 194.977 24.85 194.77 24.85V24.85Z" fill="#009688"></path><path d="M210.41 18.57C210.253 18.568 210.099 18.6127 209.968 18.6983C209.837 18.7839 209.734 18.9065 209.673 19.0507C209.611 19.1949 209.594 19.354 209.624 19.5079C209.653 19.6618 209.727 19.8035 209.837 19.915C209.948 20.0265 210.088 20.1027 210.242 20.134C210.395 20.1653 210.555 20.1503 210.7 20.0908C210.845 20.0313 210.969 19.9301 211.056 19.7999C211.143 19.6698 211.19 19.5167 211.19 19.36C211.191 19.2567 211.172 19.1542 211.133 19.0584C211.095 18.9627 211.037 18.8755 210.965 18.802C210.892 18.7285 210.806 18.6701 210.71 18.6303C210.615 18.5905 210.513 18.57 210.41 18.57V18.57Z" fill="#009688"></path><path d="M207.28 18.57C207.124 18.57 206.971 18.6163 206.841 18.7031C206.711 18.79 206.61 18.9133 206.55 19.0577C206.49 19.202 206.474 19.3609 206.505 19.5141C206.535 19.6674 206.611 19.8081 206.721 19.9186C206.832 20.0291 206.972 20.1043 207.126 20.1348C207.279 20.1653 207.438 20.1497 207.582 20.0899C207.726 20.0301 207.85 19.9288 207.937 19.7989C208.023 19.669 208.07 19.5163 208.07 19.36C208.071 19.2542 208.051 19.1491 208.011 19.0513C207.97 18.9535 207.91 18.8649 207.834 18.791C207.759 18.7171 207.669 18.6594 207.57 18.6214C207.471 18.5834 207.366 18.5659 207.26 18.57H207.28Z" fill="#009688"></path><path d="M204.15 18.57C203.993 18.568 203.839 18.6127 203.708 18.6983C203.577 18.7839 203.474 18.9065 203.413 19.0507C203.351 19.1949 203.334 19.354 203.364 19.5079C203.393 19.6618 203.467 19.8035 203.577 19.915C203.688 20.0265 203.828 20.1027 203.982 20.134C204.135 20.1653 204.295 20.1503 204.44 20.0908C204.585 20.0313 204.708 19.9301 204.796 19.7999C204.883 19.6698 204.93 19.5167 204.93 19.36C204.93 19.1505 204.846 18.9495 204.698 18.8014C204.55 18.6532 204.349 18.57 204.14 18.57H204.15Z" fill="#009688"></path><path d="M201 18.57C200.843 18.568 200.689 18.6127 200.558 18.6983C200.427 18.7839 200.324 18.9065 200.263 19.0507C200.201 19.1949 200.184 19.354 200.214 19.5079C200.243 19.6618 200.317 19.8035 200.428 19.915C200.538 20.0265 200.678 20.1027 200.832 20.134C200.985 20.1653 201.145 20.1503 201.29 20.0908C201.435 20.0313 201.559 19.9301 201.646 19.7999C201.733 19.6698 201.78 19.5167 201.78 19.36C201.781 19.2567 201.762 19.1542 201.723 19.0584C201.685 18.9627 201.627 18.8755 201.555 18.802C201.482 18.7285 201.396 18.6701 201.301 18.6303C201.205 18.5905 201.103 18.57 201 18.57V18.57Z" fill="#009688"></path><path d="M197.89 18.57C197.733 18.568 197.579 18.6127 197.448 18.6983C197.317 18.7839 197.214 18.9065 197.153 19.0507C197.092 19.1949 197.074 19.354 197.104 19.5079C197.133 19.6618 197.208 19.8035 197.318 19.915C197.428 20.0265 197.569 20.1027 197.722 20.134C197.876 20.1653 198.035 20.1503 198.18 20.0908C198.325 20.0313 198.449 19.9301 198.536 19.7999C198.623 19.6698 198.67 19.5167 198.67 19.36C198.671 19.2559 198.652 19.1526 198.612 19.0561C198.573 18.9597 198.515 18.872 198.441 18.7984C198.368 18.7248 198.28 18.6666 198.184 18.6274C198.087 18.5882 197.984 18.5687 197.88 18.57H197.89Z" fill="#009688"></path><path d="M194.77 18.57C194.613 18.568 194.459 18.6127 194.328 18.6983C194.197 18.7839 194.094 18.9065 194.033 19.0507C193.971 19.1949 193.954 19.354 193.984 19.5079C194.013 19.6618 194.087 19.8035 194.198 19.915C194.308 20.0265 194.448 20.1027 194.602 20.134C194.755 20.1653 194.915 20.1503 195.06 20.0908C195.205 20.0313 195.329 19.9301 195.416 19.7999C195.503 19.6698 195.55 19.5167 195.55 19.36C195.55 19.1522 195.468 18.9528 195.322 18.8049C195.176 18.657 194.978 18.5726 194.77 18.57V18.57Z" fill="#009688"></path><path d="M229.18 23.28C228.987 23.2582 228.809 23.1661 228.679 23.0213C228.55 22.8765 228.479 22.6891 228.479 22.495C228.479 22.3008 228.55 22.1135 228.679 21.9687C228.809 21.8239 228.987 21.7318 229.18 21.71V21.71C229.373 21.7318 229.551 21.8239 229.68 21.9687C229.81 22.1135 229.881 22.3008 229.881 22.495C229.881 22.6891 229.81 22.8765 229.68 23.0213C229.551 23.1661 229.373 23.2582 229.18 23.28V23.28Z" fill="black"></path><path d="M226.05 23.28C225.857 23.2582 225.679 23.1661 225.549 23.0213C225.42 22.8765 225.349 22.6891 225.349 22.495C225.349 22.3008 225.42 22.1135 225.549 21.9687C225.679 21.8239 225.857 21.7318 226.05 21.71V21.71C226.243 21.7318 226.421 21.8239 226.55 21.9687C226.68 22.1135 226.751 22.3008 226.751 22.495C226.751 22.6891 226.68 22.8765 226.55 23.0213C226.421 23.1661 226.243 23.2582 226.05 23.28V23.28Z" fill="black"></path><path d="M222.92 23.28C222.727 23.2582 222.549 23.1661 222.419 23.0213C222.29 22.8765 222.219 22.6891 222.219 22.495C222.219 22.3008 222.29 22.1135 222.419 21.9687C222.549 21.8239 222.727 21.7318 222.92 21.71V21.71C223.113 21.7318 223.291 21.8239 223.42 21.9687C223.55 22.1135 223.621 22.3008 223.621 22.495C223.621 22.6891 223.55 22.8765 223.42 23.0213C223.291 23.1661 223.113 23.2582 222.92 23.28V23.28Z" fill="black"></path><path d="M219.79 23.28C219.597 23.2582 219.419 23.1661 219.289 23.0213C219.16 22.8765 219.089 22.6891 219.089 22.495C219.089 22.3008 219.16 22.1135 219.289 21.9687C219.419 21.8239 219.597 21.7318 219.79 21.71V21.71C219.983 21.7318 220.161 21.8239 220.29 21.9687C220.42 22.1135 220.491 22.3008 220.491 22.495C220.491 22.6891 220.42 22.8765 220.29 23.0213C220.161 23.1661 219.983 23.2582 219.79 23.28V23.28Z" fill="black"></path><path d="M216.66 23.28C216.467 23.2582 216.289 23.1661 216.159 23.0213C216.03 22.8765 215.958 22.6892 215.958 22.495C215.958 22.3009 216.03 22.1135 216.159 21.9687C216.289 21.8239 216.467 21.7318 216.66 21.71V21.71C216.77 21.6975 216.882 21.7085 216.988 21.7423C217.094 21.776 217.192 21.8318 217.275 21.9059C217.358 21.98 217.424 22.0708 217.47 22.1723C217.515 22.2738 217.538 22.3838 217.538 22.495C217.538 22.6063 217.515 22.7162 217.47 22.8178C217.424 22.9193 217.358 23.0101 217.275 23.0842C217.192 23.1583 217.094 23.214 216.988 23.2478C216.882 23.2815 216.77 23.2925 216.66 23.28V23.28Z" fill="black"></path><path d="M213.54 23.28C213.429 23.2925 213.317 23.2815 213.211 23.2478C213.105 23.214 213.008 23.1583 212.925 23.0842C212.842 23.0101 212.776 22.9193 212.73 22.8178C212.685 22.7162 212.661 22.6063 212.661 22.495C212.661 22.3838 212.685 22.2738 212.73 22.1723C212.776 22.0708 212.842 21.98 212.925 21.9059C213.008 21.8318 213.105 21.776 213.211 21.7423C213.317 21.7085 213.429 21.6975 213.54 21.71V21.71C213.733 21.7318 213.911 21.8239 214.04 21.9687C214.17 22.1135 214.241 22.3009 214.241 22.495C214.241 22.6892 214.17 22.8765 214.04 23.0213C213.911 23.1661 213.733 23.2582 213.54 23.28V23.28Z" fill="black"></path><path d="M210.41 23.28C210.217 23.2582 210.039 23.1661 209.909 23.0213C209.78 22.8765 209.708 22.6891 209.708 22.495C209.708 22.3008 209.78 22.1135 209.909 21.9687C210.039 21.8239 210.217 21.7318 210.41 21.71V21.71C210.603 21.7318 210.781 21.8239 210.91 21.9687C211.04 22.1135 211.111 22.3008 211.111 22.495C211.111 22.6891 211.04 22.8765 210.91 23.0213C210.781 23.1661 210.603 23.2582 210.41 23.28V23.28Z" fill="black"></path><path d="M226.05 20.14C225.857 20.1182 225.679 20.0261 225.549 19.8813C225.42 19.7365 225.349 19.5492 225.349 19.355C225.349 19.1609 225.42 18.9735 225.549 18.8287C225.679 18.6839 225.857 18.5918 226.05 18.57V18.57C226.243 18.5918 226.421 18.6839 226.55 18.8287C226.68 18.9735 226.751 19.1609 226.751 19.355C226.751 19.5492 226.68 19.7365 226.55 19.8813C226.421 20.0261 226.243 20.1182 226.05 20.14Z" fill="black"></path><path d="M222.92 20.14C222.727 20.1182 222.549 20.0261 222.419 19.8813C222.29 19.7365 222.219 19.5492 222.219 19.355C222.219 19.1609 222.29 18.9735 222.419 18.8287C222.549 18.6839 222.727 18.5918 222.92 18.57V18.57C223.113 18.5918 223.291 18.6839 223.42 18.8287C223.55 18.9735 223.621 19.1609 223.621 19.355C223.621 19.5492 223.55 19.7365 223.42 19.8813C223.291 20.0261 223.113 20.1182 222.92 20.14Z" fill="black"></path><path d="M219.79 20.14C219.597 20.1182 219.419 20.0261 219.289 19.8813C219.16 19.7365 219.089 19.5492 219.089 19.355C219.089 19.1609 219.16 18.9735 219.289 18.8287C219.419 18.6839 219.597 18.5918 219.79 18.57V18.57C219.983 18.5918 220.161 18.6839 220.29 18.8287C220.42 18.9735 220.491 19.1609 220.491 19.355C220.491 19.5492 220.42 19.7365 220.29 19.8813C220.161 20.0261 219.983 20.1182 219.79 20.14Z" fill="black"></path><path d="M216.66 20.14C216.467 20.1182 216.289 20.0261 216.159 19.8813C216.03 19.7365 215.958 19.5492 215.958 19.355C215.958 19.1608 216.03 18.9735 216.159 18.8287C216.289 18.6839 216.467 18.5918 216.66 18.57C216.77 18.5575 216.882 18.5685 216.988 18.6022C217.094 18.636 217.192 18.6917 217.275 18.7658C217.358 18.84 217.424 18.9307 217.47 19.0323C217.515 19.1338 217.538 19.2438 217.538 19.355C217.538 19.4662 217.515 19.5762 217.47 19.6777C217.424 19.7793 217.358 19.8701 217.275 19.9442C217.192 20.0183 217.094 20.074 216.988 20.1078C216.882 20.1415 216.77 20.1525 216.66 20.14V20.14Z" fill="black"></path><path d="M213.54 20.14C213.429 20.1525 213.317 20.1415 213.211 20.1078C213.105 20.074 213.008 20.0183 212.925 19.9442C212.842 19.8701 212.776 19.7793 212.73 19.6777C212.685 19.5762 212.661 19.4662 212.661 19.355C212.661 19.2438 212.685 19.1338 212.73 19.0323C212.776 18.9307 212.842 18.84 212.925 18.7658C213.008 18.6917 213.105 18.636 213.211 18.6022C213.317 18.5685 213.429 18.5575 213.54 18.57V18.57C213.733 18.5918 213.911 18.6839 214.04 18.8287C214.17 18.9735 214.241 19.1608 214.241 19.355C214.241 19.5492 214.17 19.7365 214.04 19.8813C213.911 20.0261 213.733 20.1182 213.54 20.14Z" fill="black"></path><path d="M222.92 17C222.712 16.9974 222.514 16.913 222.368 16.7651C222.222 16.6172 222.14 16.4178 222.14 16.21C222.14 16.0031 222.222 15.8047 222.368 15.6584C222.515 15.5122 222.713 15.43 222.92 15.43V15.43C223.127 15.43 223.325 15.5122 223.471 15.6584C223.618 15.8047 223.7 16.0031 223.7 16.21C223.7 16.4178 223.618 16.6172 223.472 16.7651C223.326 16.913 223.128 16.9974 222.92 17V17Z" fill="black"></path><path d="M219.79 17C219.582 16.9974 219.384 16.913 219.238 16.7651C219.092 16.6172 219.01 16.4178 219.01 16.21C219.01 16.0031 219.092 15.8047 219.238 15.6584C219.384 15.5122 219.583 15.43 219.79 15.43V15.43C219.997 15.43 220.195 15.5122 220.341 15.6584C220.488 15.8047 220.57 16.0031 220.57 16.21C220.57 16.4178 220.488 16.6172 220.342 16.7651C220.196 16.913 219.998 16.9974 219.79 17Z" fill="black"></path><path d="M216.66 17C216.452 16.9974 216.254 16.913 216.108 16.7651C215.962 16.6172 215.88 16.4178 215.88 16.21C215.88 16.0031 215.962 15.8047 216.108 15.6585C216.255 15.5122 216.453 15.43 216.66 15.43C216.763 15.4287 216.866 15.4479 216.961 15.4865C217.057 15.5251 217.144 15.5823 217.218 15.6549C217.291 15.7274 217.35 15.8139 217.39 15.9092C217.429 16.0045 217.45 16.1067 217.45 16.21C217.45 16.4195 217.367 16.6205 217.218 16.7686C217.07 16.9168 216.869 17 216.66 17V17Z" fill="black"></path><path d="M213.54 17C213.33 17 213.129 16.9168 212.981 16.7686C212.833 16.6205 212.75 16.4195 212.75 16.21C212.75 16.1067 212.77 16.0045 212.81 15.9092C212.85 15.8139 212.908 15.7274 212.982 15.6549C213.055 15.5823 213.142 15.5251 213.238 15.4865C213.334 15.4479 213.436 15.4287 213.54 15.43V15.43C213.747 15.43 213.945 15.5122 214.091 15.6585C214.238 15.8047 214.32 16.0031 214.32 16.21C214.32 16.4178 214.238 16.6172 214.092 16.7651C213.946 16.913 213.748 16.9974 213.54 17Z" fill="black"></path><path d="M219.79 13.87C219.597 13.8482 219.419 13.7561 219.289 13.6113C219.16 13.4665 219.089 13.2791 219.089 13.085C219.089 12.8908 219.16 12.7035 219.289 12.5587C219.419 12.4139 219.597 12.3218 219.79 12.3V12.3C219.983 12.3218 220.161 12.4139 220.29 12.5587C220.42 12.7035 220.491 12.8908 220.491 13.085C220.491 13.2791 220.42 13.4665 220.29 13.6113C220.161 13.7561 219.983 13.8482 219.79 13.87Z" fill="black"></path><path d="M216.66 13.87C216.467 13.8482 216.289 13.7561 216.159 13.6113C216.03 13.4665 215.958 13.2792 215.958 13.085C215.958 12.8909 216.03 12.7035 216.159 12.5587C216.289 12.4139 216.467 12.3218 216.66 12.3C216.77 12.2875 216.882 12.2985 216.988 12.3323C217.094 12.366 217.192 12.4218 217.275 12.4959C217.358 12.57 217.424 12.6607 217.47 12.7623C217.515 12.8638 217.538 12.9738 217.538 13.085C217.538 13.1962 217.515 13.3062 217.47 13.4078C217.424 13.5093 217.358 13.6001 217.275 13.6742C217.192 13.7483 217.094 13.804 216.988 13.8378C216.882 13.8715 216.77 13.8825 216.66 13.87V13.87Z" fill="black"></path><path d="M213.54 13.87C213.429 13.8825 213.317 13.8715 213.211 13.8378C213.105 13.804 213.008 13.7483 212.925 13.6742C212.842 13.6001 212.776 13.5093 212.73 13.4078C212.685 13.3062 212.661 13.1962 212.661 13.085C212.661 12.9738 212.685 12.8638 212.73 12.7623C212.776 12.6607 212.842 12.57 212.925 12.4959C213.008 12.4218 213.105 12.366 213.211 12.3323C213.317 12.2985 213.429 12.2875 213.54 12.3V12.3C213.733 12.3218 213.911 12.4139 214.04 12.5587C214.17 12.7035 214.241 12.8909 214.241 13.085C214.241 13.2792 214.17 13.4665 214.04 13.6113C213.911 13.7561 213.733 13.8482 213.54 13.87Z" fill="black"></path><path d="M216.66 10.73C216.453 10.73 216.255 10.6478 216.108 10.5016C215.962 10.3553 215.88 10.1569 215.88 9.95001C215.88 9.74314 215.962 9.54475 216.108 9.39847C216.255 9.25219 216.453 9.17001 216.66 9.17001C216.867 9.17001 217.065 9.25219 217.211 9.39847C217.358 9.54475 217.44 9.74314 217.44 9.95001C217.44 10.1569 217.358 10.3553 217.211 10.5016C217.065 10.6478 216.867 10.73 216.66 10.73V10.73Z" fill="black"></path><path d="M213.54 10.73C213.333 10.73 213.134 10.6478 212.988 10.5016C212.842 10.3553 212.76 10.1569 212.76 9.95001C212.76 9.74314 212.842 9.54475 212.988 9.39847C213.134 9.25219 213.333 9.17001 213.54 9.17001V9.17001C213.747 9.17001 213.945 9.25219 214.091 9.39847C214.238 9.54475 214.32 9.74314 214.32 9.95001C214.32 10.1569 214.238 10.3553 214.091 10.5016C213.945 10.6478 213.747 10.73 213.54 10.73V10.73Z" fill="black"></path><path d="M213.54 7.59999C213.429 7.61249 213.317 7.6015 213.211 7.56775C213.105 7.534 213.008 7.47825 212.925 7.40415C212.842 7.33004 212.776 7.23926 212.73 7.13773C212.685 7.0362 212.661 6.92623 212.661 6.81499C212.661 6.70376 212.685 6.59378 212.73 6.49226C212.776 6.39073 212.842 6.29994 212.925 6.22584C213.008 6.15174 213.105 6.09598 213.211 6.06224C213.317 6.02849 213.429 6.0175 213.54 6.02999V6.02999C213.733 6.0518 213.911 6.14389 214.04 6.28869C214.17 6.43348 214.241 6.62084 214.241 6.81499C214.241 7.00915 214.17 7.1965 214.04 7.3413C213.911 7.48609 213.733 7.57818 213.54 7.59999Z" fill="black"></path><path d="M226.05 26.41C225.843 26.41 225.645 26.3278 225.498 26.1815C225.352 26.0353 225.27 25.8369 225.27 25.63C225.27 25.4231 225.352 25.2247 225.498 25.0785C225.645 24.9322 225.843 24.85 226.05 24.85V24.85C226.257 24.85 226.455 24.9322 226.601 25.0785C226.748 25.2247 226.83 25.4231 226.83 25.63C226.83 25.8369 226.748 26.0353 226.601 26.1815C226.455 26.3278 226.257 26.41 226.05 26.41V26.41Z" fill="black"></path><path d="M222.92 26.41C222.713 26.41 222.515 26.3278 222.368 26.1815C222.222 26.0353 222.14 25.8369 222.14 25.63C222.14 25.4231 222.222 25.2247 222.368 25.0785C222.515 24.9322 222.713 24.85 222.92 24.85V24.85C223.127 24.85 223.325 24.9322 223.471 25.0785C223.618 25.2247 223.7 25.4231 223.7 25.63C223.7 25.8369 223.618 26.0353 223.471 26.1815C223.325 26.3278 223.127 26.41 222.92 26.41V26.41Z" fill="black"></path><path d="M219.79 26.41C219.583 26.41 219.384 26.3278 219.238 26.1815C219.092 26.0353 219.01 25.8369 219.01 25.63C219.01 25.4231 219.092 25.2247 219.238 25.0785C219.384 24.9322 219.583 24.85 219.79 24.85V24.85C219.997 24.85 220.195 24.9322 220.341 25.0785C220.488 25.2247 220.57 25.4231 220.57 25.63C220.57 25.8369 220.488 26.0353 220.341 26.1815C220.195 26.3278 219.997 26.41 219.79 26.41V26.41Z" fill="black"></path><path d="M216.66 26.41C216.453 26.41 216.255 26.3278 216.108 26.1815C215.962 26.0353 215.88 25.8369 215.88 25.63C215.88 25.4231 215.962 25.2247 216.108 25.0785C216.255 24.9322 216.453 24.85 216.66 24.85C216.867 24.85 217.065 24.9322 217.211 25.0785C217.358 25.2247 217.44 25.4231 217.44 25.63C217.44 25.8369 217.358 26.0353 217.211 26.1815C217.065 26.3278 216.867 26.41 216.66 26.41V26.41Z" fill="black"></path><path d="M213.54 26.41C213.333 26.41 213.134 26.3278 212.988 26.1815C212.842 26.0353 212.76 25.8369 212.76 25.63C212.76 25.4231 212.842 25.2247 212.988 25.0785C213.134 24.9322 213.333 24.85 213.54 24.85C213.747 24.85 213.945 24.9322 214.091 25.0785C214.238 25.2247 214.32 25.4231 214.32 25.63C214.32 25.8369 214.238 26.0353 214.091 26.1815C213.945 26.3278 213.747 26.41 213.54 26.41V26.41Z" fill="black"></path><path d="M222.92 29.55C222.727 29.5282 222.549 29.4361 222.419 29.2913C222.29 29.1465 222.219 28.9592 222.219 28.765C222.219 28.5709 222.29 28.3835 222.419 28.2387C222.549 28.0939 222.727 28.0018 222.92 27.98V27.98C223.113 28.0018 223.291 28.0939 223.42 28.2387C223.55 28.3835 223.621 28.5709 223.621 28.765C223.621 28.9592 223.55 29.1465 223.42 29.2913C223.291 29.4361 223.113 29.5282 222.92 29.55V29.55Z" fill="black"></path><path d="M219.79 29.55C219.597 29.5282 219.419 29.4361 219.289 29.2913C219.16 29.1465 219.089 28.9592 219.089 28.765C219.089 28.5709 219.16 28.3835 219.289 28.2387C219.419 28.0939 219.597 28.0018 219.79 27.98V27.98C219.983 28.0018 220.161 28.0939 220.29 28.2387C220.42 28.3835 220.491 28.5709 220.491 28.765C220.491 28.9592 220.42 29.1465 220.29 29.2913C220.161 29.4361 219.983 29.5282 219.79 29.55V29.55Z" fill="black"></path><path d="M216.66 29.55C216.467 29.5282 216.289 29.4361 216.159 29.2913C216.03 29.1465 215.958 28.9592 215.958 28.765C215.958 28.5709 216.03 28.3835 216.159 28.2387C216.289 28.0939 216.467 28.0018 216.66 27.98V27.98C216.77 27.9675 216.882 27.9785 216.988 28.0122C217.094 28.046 217.192 28.1017 217.275 28.1759C217.358 28.25 217.424 28.3407 217.47 28.4423C217.515 28.5438 217.538 28.6538 217.538 28.765C217.538 28.8762 217.515 28.9862 217.47 29.0877C217.424 29.1893 217.358 29.2801 217.275 29.3542C217.192 29.4283 217.094 29.484 216.988 29.5178C216.882 29.5515 216.77 29.5625 216.66 29.55V29.55Z" fill="black"></path><path d="M213.54 29.55C213.429 29.5625 213.317 29.5515 213.211 29.5178C213.105 29.484 213.008 29.4283 212.925 29.3542C212.842 29.2801 212.776 29.1893 212.73 29.0877C212.685 28.9862 212.661 28.8762 212.661 28.765C212.661 28.6538 212.685 28.5438 212.73 28.4423C212.776 28.3407 212.842 28.25 212.925 28.1759C213.008 28.1017 213.105 28.046 213.211 28.0122C213.317 27.9785 213.429 27.9675 213.54 27.98V27.98C213.733 28.0018 213.911 28.0939 214.04 28.2387C214.17 28.3835 214.241 28.5709 214.241 28.765C214.241 28.9592 214.17 29.1465 214.04 29.2913C213.911 29.4361 213.733 29.5282 213.54 29.55V29.55Z" fill="black"></path><path d="M219.79 32.68C219.583 32.68 219.385 32.5978 219.238 32.4515C219.092 32.3053 219.01 32.1069 219.01 31.9C219.01 31.6931 219.092 31.4947 219.238 31.3485C219.385 31.2022 219.583 31.12 219.79 31.12V31.12C219.892 31.12 219.994 31.1402 220.088 31.1794C220.183 31.2186 220.269 31.276 220.341 31.3485C220.414 31.4209 220.471 31.5069 220.51 31.6015C220.55 31.6961 220.57 31.7976 220.57 31.9C220.57 32.0024 220.55 32.1039 220.51 32.1985C220.471 32.2931 220.414 32.3791 220.341 32.4515C220.269 32.524 220.183 32.5814 220.088 32.6206C219.994 32.6598 219.892 32.68 219.79 32.68V32.68Z" fill="black"></path><path d="M216.66 32.68C216.453 32.68 216.255 32.5978 216.108 32.4515C215.962 32.3053 215.88 32.1069 215.88 31.9C215.88 31.6931 215.962 31.4947 216.108 31.3485C216.255 31.2022 216.453 31.12 216.66 31.12V31.12C216.762 31.12 216.864 31.1402 216.958 31.1794C217.053 31.2186 217.139 31.276 217.211 31.3485C217.284 31.4209 217.341 31.5069 217.381 31.6015C217.42 31.6961 217.44 31.7976 217.44 31.9C217.44 32.0024 217.42 32.1039 217.381 32.1985C217.341 32.2931 217.284 32.3791 217.211 32.4515C217.139 32.524 217.053 32.5814 216.958 32.6206C216.864 32.6598 216.762 32.68 216.66 32.68V32.68Z" fill="black"></path><path d="M213.54 32.68C213.437 32.68 213.336 32.6598 213.241 32.6206C213.147 32.5814 213.061 32.524 212.988 32.4515C212.916 32.3791 212.858 32.2931 212.819 32.1985C212.78 32.1039 212.76 32.0024 212.76 31.9C212.76 31.7976 212.78 31.6961 212.819 31.6015C212.858 31.5069 212.916 31.4209 212.988 31.3485C213.061 31.276 213.147 31.2186 213.241 31.1794C213.336 31.1402 213.437 31.12 213.54 31.12V31.12C213.642 31.12 213.744 31.1402 213.838 31.1794C213.933 31.2186 214.019 31.276 214.091 31.3485C214.164 31.4209 214.221 31.5069 214.26 31.6015C214.3 31.6961 214.32 31.7976 214.32 31.9C214.32 32.0024 214.3 32.1039 214.26 32.1985C214.221 32.2931 214.164 32.3791 214.091 32.4515C214.019 32.524 213.933 32.5814 213.838 32.6206C213.744 32.6598 213.642 32.68 213.54 32.68V32.68Z" fill="black"></path><path d="M216.66 35.82C216.467 35.7982 216.289 35.7061 216.159 35.5613C216.03 35.4165 215.958 35.2292 215.958 35.035C215.958 34.8408 216.03 34.6535 216.159 34.5087C216.289 34.3639 216.467 34.2718 216.66 34.25V34.25C216.77 34.2375 216.882 34.2485 216.988 34.2822C217.094 34.316 217.192 34.3717 217.275 34.4458C217.358 34.5199 217.424 34.6107 217.47 34.7123C217.515 34.8138 217.538 34.9238 217.538 35.035C217.538 35.1462 217.515 35.2562 217.47 35.3577C217.424 35.4593 217.358 35.55 217.275 35.6241C217.192 35.6983 217.094 35.754 216.988 35.7878C216.882 35.8215 216.77 35.8325 216.66 35.82V35.82Z" fill="black"></path><path d="M213.54 35.82C213.429 35.8325 213.317 35.8215 213.211 35.7878C213.105 35.754 213.008 35.6983 212.925 35.6241C212.842 35.55 212.776 35.4593 212.73 35.3577C212.685 35.2562 212.661 35.1462 212.661 35.035C212.661 34.9238 212.685 34.8138 212.73 34.7123C212.776 34.6107 212.842 34.5199 212.925 34.4458C213.008 34.3717 213.105 34.316 213.211 34.2822C213.317 34.2485 213.429 34.2375 213.54 34.25V34.25C213.733 34.2718 213.911 34.3639 214.04 34.5087C214.17 34.6535 214.241 34.8408 214.241 35.035C214.241 35.2292 214.17 35.4165 214.04 35.5613C213.911 35.7061 213.733 35.7982 213.54 35.82Z" fill="black"></path><path d="M213.54 39C213.429 39.0125 213.317 39.0015 213.211 38.9677C213.105 38.934 213.008 38.8782 212.925 38.8041C212.842 38.73 212.776 38.6393 212.73 38.5377C212.685 38.4362 212.661 38.3262 212.661 38.215C212.661 38.1038 212.685 37.9938 212.73 37.8922C212.776 37.7907 212.842 37.6999 212.925 37.6258C213.008 37.5517 213.105 37.496 213.211 37.4622C213.317 37.4285 213.429 37.4175 213.54 37.43V37.43C213.733 37.4518 213.911 37.5439 214.04 37.6887C214.17 37.8335 214.241 38.0208 214.241 38.215C214.241 38.4091 214.17 38.5965 214.04 38.7413C213.911 38.8861 213.733 38.9782 213.54 39Z" fill="black"></path><path d="M207.28 23.28C207.087 23.2582 206.909 23.1661 206.779 23.0213C206.65 22.8765 206.579 22.6891 206.579 22.495C206.579 22.3008 206.65 22.1135 206.779 21.9687C206.909 21.8239 207.087 21.7318 207.28 21.71V21.71C207.473 21.7318 207.651 21.8239 207.78 21.9687C207.91 22.1135 207.981 22.3008 207.981 22.495C207.981 22.6891 207.91 22.8765 207.78 23.0213C207.651 23.1661 207.473 23.2582 207.28 23.28V23.28Z" fill="black"></path><path d="M204.15 23.28C203.957 23.2582 203.779 23.1661 203.649 23.0213C203.52 22.8765 203.448 22.6891 203.448 22.495C203.448 22.3008 203.52 22.1135 203.649 21.9687C203.779 21.8239 203.957 21.7318 204.15 21.71V21.71C204.343 21.7318 204.521 21.8239 204.65 21.9687C204.779 22.1135 204.851 22.3008 204.851 22.495C204.851 22.6891 204.779 22.8765 204.65 23.0213C204.521 23.1661 204.343 23.2582 204.15 23.28V23.28Z" fill="black"></path><path d="M201 23.28C200.807 23.2582 200.629 23.1661 200.499 23.0213C200.37 22.8765 200.299 22.6891 200.299 22.495C200.299 22.3008 200.37 22.1135 200.499 21.9687C200.629 21.8239 200.807 21.7318 201 21.71V21.71C201.193 21.7318 201.371 21.8239 201.5 21.9687C201.63 22.1135 201.701 22.3008 201.701 22.495C201.701 22.6891 201.63 22.8765 201.5 23.0213C201.371 23.1661 201.193 23.2582 201 23.28V23.28Z" fill="black"></path><path d="M197.89 23.28C197.697 23.2582 197.519 23.1661 197.389 23.0213C197.26 22.8765 197.188 22.6892 197.188 22.495C197.188 22.3009 197.26 22.1135 197.389 21.9687C197.519 21.8239 197.697 21.7318 197.89 21.71V21.71C198 21.6975 198.112 21.7085 198.218 21.7423C198.324 21.776 198.422 21.8318 198.505 21.9059C198.588 21.98 198.654 22.0708 198.7 22.1723C198.745 22.2738 198.768 22.3838 198.768 22.495C198.768 22.6063 198.745 22.7162 198.7 22.8178C198.654 22.9193 198.588 23.0101 198.505 23.0842C198.422 23.1583 198.324 23.214 198.218 23.2478C198.112 23.2815 198 23.2925 197.89 23.28V23.28Z" fill="black"></path><path d="M194.77 23.28C194.659 23.2925 194.547 23.2815 194.441 23.2478C194.335 23.214 194.238 23.1583 194.155 23.0842C194.072 23.0101 194.005 22.9193 193.96 22.8178C193.915 22.7162 193.891 22.6063 193.891 22.495C193.891 22.3838 193.915 22.2738 193.96 22.1723C194.005 22.0708 194.072 21.98 194.155 21.9059C194.238 21.8318 194.335 21.776 194.441 21.7423C194.547 21.7085 194.659 21.6975 194.77 21.71V21.71C194.963 21.7318 195.141 21.8239 195.27 21.9687C195.4 22.1135 195.471 22.3009 195.471 22.495C195.471 22.6892 195.4 22.8765 195.27 23.0213C195.141 23.1661 194.963 23.2582 194.77 23.28V23.28Z" fill="black"></path><path d="M210.41 26.41C210.203 26.41 210.005 26.3278 209.858 26.1815C209.712 26.0353 209.63 25.8369 209.63 25.63C209.63 25.4231 209.712 25.2247 209.858 25.0785C210.005 24.9322 210.203 24.85 210.41 24.85C210.617 24.85 210.815 24.9322 210.961 25.0785C211.108 25.2247 211.19 25.4231 211.19 25.63C211.19 25.8369 211.108 26.0353 210.961 26.1815C210.815 26.3278 210.617 26.41 210.41 26.41V26.41Z" fill="black"></path><path d="M207.28 26.41C207.073 26.41 206.874 26.3278 206.728 26.1815C206.582 26.0353 206.5 25.8369 206.5 25.63C206.5 25.4231 206.582 25.2247 206.728 25.0785C206.874 24.9322 207.073 24.85 207.28 24.85V24.85C207.487 24.85 207.685 24.9322 207.831 25.0785C207.978 25.2247 208.06 25.4231 208.06 25.63C208.06 25.8369 207.978 26.0353 207.831 26.1815C207.685 26.3278 207.487 26.41 207.28 26.41V26.41Z" fill="black"></path><path d="M204.15 26.41C203.943 26.41 203.745 26.3278 203.598 26.1815C203.452 26.0353 203.37 25.8369 203.37 25.63C203.37 25.4231 203.452 25.2247 203.598 25.0785C203.745 24.9322 203.943 24.85 204.15 24.85V24.85C204.357 24.85 204.555 24.9322 204.701 25.0785C204.848 25.2247 204.93 25.4231 204.93 25.63C204.93 25.8369 204.848 26.0353 204.701 26.1815C204.555 26.3278 204.357 26.41 204.15 26.41V26.41Z" fill="black"></path><path d="M201 26.41C200.793 26.41 200.594 26.3278 200.448 26.1815C200.302 26.0353 200.22 25.8369 200.22 25.63C200.22 25.4231 200.302 25.2247 200.448 25.0785C200.594 24.9322 200.793 24.85 201 24.85V24.85C201.207 24.85 201.405 24.9322 201.551 25.0785C201.698 25.2247 201.78 25.4231 201.78 25.63C201.78 25.8369 201.698 26.0353 201.551 26.1815C201.405 26.3278 201.207 26.41 201 26.41V26.41Z" fill="black"></path><path d="M197.89 26.41C197.683 26.41 197.485 26.3278 197.338 26.1815C197.192 26.0353 197.11 25.8369 197.11 25.63C197.11 25.4231 197.192 25.2247 197.338 25.0785C197.485 24.9322 197.683 24.85 197.89 24.85V24.85C198.097 24.85 198.295 24.9322 198.441 25.0785C198.588 25.2247 198.67 25.4231 198.67 25.63C198.67 25.8369 198.588 26.0353 198.441 26.1815C198.295 26.3278 198.097 26.41 197.89 26.41V26.41Z" fill="black"></path><path d="M194.77 26.41C194.563 26.41 194.364 26.3278 194.218 26.1815C194.072 26.0353 193.99 25.8369 193.99 25.63C193.99 25.4231 194.072 25.2247 194.218 25.0785C194.364 24.9322 194.563 24.85 194.77 24.85V24.85C194.977 24.85 195.175 24.9322 195.321 25.0785C195.468 25.2247 195.55 25.4231 195.55 25.63C195.55 25.8369 195.468 26.0353 195.321 26.1815C195.175 26.3278 194.977 26.41 194.77 26.41V26.41Z" fill="black"></path><path d="M210.41 20.14C210.217 20.1182 210.039 20.0261 209.909 19.8813C209.78 19.7365 209.708 19.5492 209.708 19.355C209.708 19.1609 209.78 18.9735 209.909 18.8287C210.039 18.6839 210.217 18.5918 210.41 18.57V18.57C210.603 18.5918 210.781 18.6839 210.91 18.8287C211.04 18.9735 211.111 19.1609 211.111 19.355C211.111 19.5492 211.04 19.7365 210.91 19.8813C210.781 20.0261 210.603 20.1182 210.41 20.14V20.14Z" fill="black"></path><path d="M207.28 20.14C207.087 20.1182 206.909 20.0261 206.779 19.8813C206.65 19.7365 206.579 19.5492 206.579 19.355C206.579 19.1609 206.65 18.9735 206.779 18.8287C206.909 18.6839 207.087 18.5918 207.28 18.57C207.473 18.5918 207.651 18.6839 207.78 18.8287C207.91 18.9735 207.981 19.1609 207.981 19.355C207.981 19.5492 207.91 19.7365 207.78 19.8813C207.651 20.0261 207.473 20.1182 207.28 20.14V20.14Z" fill="black"></path><path d="M204.15 20.14C203.957 20.1182 203.779 20.0261 203.649 19.8813C203.52 19.7365 203.448 19.5492 203.448 19.355C203.448 19.1609 203.52 18.9735 203.649 18.8287C203.779 18.6839 203.957 18.5918 204.15 18.57V18.57C204.343 18.5918 204.521 18.6839 204.65 18.8287C204.779 18.9735 204.851 19.1609 204.851 19.355C204.851 19.5492 204.779 19.7365 204.65 19.8813C204.521 20.0261 204.343 20.1182 204.15 20.14Z" fill="black"></path><path d="M201 20.14C200.807 20.1182 200.629 20.0261 200.499 19.8813C200.37 19.7365 200.299 19.5492 200.299 19.355C200.299 19.1609 200.37 18.9735 200.499 18.8287C200.629 18.6839 200.807 18.5918 201 18.57C201.193 18.5918 201.371 18.6839 201.5 18.8287C201.63 18.9735 201.701 19.1609 201.701 19.355C201.701 19.5492 201.63 19.7365 201.5 19.8813C201.371 20.0261 201.193 20.1182 201 20.14Z" fill="black"></path><path d="M197.89 20.14C197.697 20.1182 197.519 20.0261 197.389 19.8813C197.26 19.7365 197.188 19.5492 197.188 19.355C197.188 19.1608 197.26 18.9735 197.389 18.8287C197.519 18.6839 197.697 18.5918 197.89 18.57C198 18.5575 198.112 18.5685 198.218 18.6022C198.324 18.636 198.422 18.6917 198.505 18.7658C198.588 18.84 198.654 18.9307 198.7 19.0323C198.745 19.1338 198.768 19.2438 198.768 19.355C198.768 19.4662 198.745 19.5762 198.7 19.6777C198.654 19.7793 198.588 19.8701 198.505 19.9442C198.422 20.0183 198.324 20.074 198.218 20.1078C198.112 20.1415 198 20.1525 197.89 20.14V20.14Z" fill="black"></path><path d="M194.77 20.14C194.659 20.1525 194.547 20.1415 194.441 20.1078C194.335 20.074 194.238 20.0183 194.155 19.9442C194.072 19.8701 194.005 19.7793 193.96 19.6777C193.915 19.5762 193.891 19.4662 193.891 19.355C193.891 19.2438 193.915 19.1338 193.96 19.0323C194.005 18.9307 194.072 18.84 194.155 18.7658C194.238 18.6917 194.335 18.636 194.441 18.6022C194.547 18.5685 194.659 18.5575 194.77 18.57V18.57C194.963 18.5918 195.141 18.6839 195.27 18.8287C195.4 18.9735 195.471 19.1608 195.471 19.355C195.471 19.5492 195.4 19.7365 195.27 19.8813C195.141 20.0261 194.963 20.1182 194.77 20.14V20.14Z" fill="black"></path><path d="M287.88 76H61.8199C53.7385 76.0185 45.9946 79.2425 40.2878 84.9644C34.5809 90.6863 31.3772 98.4386 31.3799 106.52L31.7199 314.97L318.72 312.97L318.38 106.45C318.364 98.3704 315.144 90.627 309.426 84.9185C303.708 79.21 295.96 76.0026 287.88 76V76Z" stroke="#060606"></path><path d="M285.75 85.73H252.44C249.55 85.73 247.68 87.87 247 91.73C244.71 105.44 237.23 106.39 235 106.39H114.63C112.42 106.39 104.86 105.39 102.63 91.73C102.03 87.87 100.16 85.73 97.1898 85.73H63.8998C51.8398 85.73 41.0498 98.59 41.0498 110.84C41.0498 114.593 41.1031 182.48 41.2098 314.5L308.76 312.82C308.646 180.273 308.593 112.94 308.6 110.82C308.69 98.59 297.81 85.73 285.75 85.73Z" fill="#151515" stroke="#0F0F0F"></path><path d="M329.15 190.32H13.06C11.37 190.32 10 191.69 10 193.38V248.44C10 250.13 11.37 251.5 13.06 251.5H329.15C330.84 251.5 332.21 250.13 332.21 248.44V193.38C332.21 191.69 330.84 190.32 329.15 190.32Z" fill="white" stroke="#0B0B0B"></path><path d="M36.47 219.45V227.03H34.02V219.45H29.5V217.25H41.11V219.45H36.47Z" fill="#191919"></path><path d="M47.38 217.05C51.23 217.05 53.96 218.79 53.96 222.05C53.96 225.31 51.03 227.19 47.36 227.19C43.69 227.19 40.75 225.46 40.75 222.06C40.79 218.9 43.48 217.05 47.38 217.05ZM47.38 225.17C49.79 225.17 51.48 224.17 51.48 222.04C51.48 220.04 49.79 219.11 47.39 219.11C44.99 219.11 43.31 220.11 43.31 222.11C43.31 224.11 44.99 225.17 47.38 225.17Z" fill="#191919"></path><path d="M60.6399 219.45V227.03H58.1999V219.45H53.6699V217.25H65.2899V219.45H60.6399Z" fill="#191919"></path><path d="M72.7899 225.05H66.6899L65.7799 227.05H63.1799L67.9599 217.27H71.6999L76.3799 227.03H73.7099L72.7899 225.05ZM67.6099 223.05H71.8899L70.1399 219.23H69.3799L67.6099 223.05Z" fill="#191919"></path><path d="M77.0701 217.25H79.5101V224.71H87.0801V227.03H77.0801L77.0701 217.25Z" fill="#191919"></path><path d="M87.9399 219.86H90.4999V222.3H87.9399V219.86ZM87.9399 224.6H90.4999V227.03H87.9399V224.6Z" fill="#191919"></path><path d="M97.8301 227.21C96.8555 227.198 95.8932 226.99 95.0001 226.6L95.1001 224.37C95.9547 224.788 96.8813 225.039 97.8301 225.11V223.11C96.4101 222.71 94.8301 222.11 94.8301 220.19C94.8294 219.382 95.1412 218.605 95.7004 218.021C96.2596 217.438 97.0227 217.094 97.8301 217.06V216.06H99.3801V217.06C100.309 217.132 101.217 217.372 102.06 217.77L101.59 219.85C100.899 219.493 100.151 219.259 99.3801 219.16V221.16C100.79 221.55 102.38 222.09 102.38 223.9C102.363 224.71 102.048 225.484 101.494 226.075C100.94 226.666 100.187 227.031 99.3801 227.1V228.21H97.8301V227.21ZM97.8301 220.7V219.24C97.4501 219.38 97.2301 219.61 97.2301 219.95C97.2301 220.29 97.4601 220.52 97.8301 220.7ZM99.4201 223.7V225.03C99.5726 224.989 99.7077 224.899 99.8051 224.775C99.9025 224.651 99.9569 224.498 99.9601 224.34C99.9601 224.01 99.7501 223.81 99.3801 223.66L99.4201 223.7Z" fill="#191919"></path><path d="M103.38 227.03V224.89C105.38 223.37 107.54 221.55 107.54 220.23C107.54 219.57 106.96 219.12 105.98 219.12C105.098 219.15 104.23 219.357 103.43 219.73L103.01 217.9C103.98 217.341 105.08 217.048 106.2 217.05C108.42 217.05 110.04 217.88 110.04 219.76C110.04 221.64 108.04 223.41 106.12 224.85H110.26V226.99L103.38 227.03Z" fill="#191919"></path><path d="M115.11 217.05C117.93 217.05 119.11 219.19 119.11 222.14C119.11 225.09 117.9 227.23 115.11 227.23C112.32 227.23 111.11 225.09 111.11 222.14C111.11 219.19 112.28 217.05 115.11 217.05ZM115.11 225.1C116.39 225.1 116.68 223.58 116.68 222.04C116.68 220.82 116.51 219.18 115.13 219.18C113.75 219.18 113.51 220.7 113.51 222.13C113.51 223.56 113.81 225.1 115.12 225.1H115.11Z" fill="#191919"></path><path d="M120.18 224.6H122.74V227.03H120.18V224.6Z" fill="#191919"></path><path d="M123.99 227.03V224.89C125.99 223.37 128.15 221.55 128.15 220.23C128.15 219.57 127.57 219.12 126.59 219.12C125.708 219.151 124.841 219.358 124.04 219.73L123.62 217.9C124.59 217.341 125.691 217.048 126.81 217.05C129.03 217.05 130.66 217.88 130.66 219.76C130.66 221.64 128.66 223.41 126.73 224.85H130.88V226.99L123.99 227.03Z" fill="#191919"></path><path d="M131.91 222.85L132.38 217.25H138.46L138.28 219.39H134.44L134.27 221.04C136.83 221.16 138.66 221.92 138.66 223.96C138.66 225.73 137.25 227.21 134.54 227.21C133.541 227.216 132.553 226.998 131.65 226.57L131.77 224.57C132.603 224.997 133.524 225.223 134.46 225.23C135.81 225.23 136.19 224.75 136.19 224.23C136.19 223.33 134.67 223.01 131.91 222.85Z" fill="#191919"></path><path d="M320.99 197.46H218.01C216.32 197.46 214.95 198.83 214.95 200.52V241.3C214.95 242.99 216.32 244.36 218.01 244.36H320.99C322.68 244.36 324.05 242.99 324.05 241.3V200.52C324.05 198.83 322.68 197.46 320.99 197.46Z" fill="#3DE892" stroke="#0B0B0B"></path><path d="M247.69 223.38C247.789 223.614 247.84 223.866 247.84 224.12C247.744 224.763 247.517 225.38 247.173 225.933C246.829 226.485 246.375 226.96 245.84 227.33C244.992 227.93 243.979 228.252 242.94 228.25C242.244 228.27 241.554 228.108 240.94 227.78C240.306 227.371 239.789 226.806 239.438 226.138C239.088 225.471 238.916 224.724 238.94 223.97C238.85 219.43 242.86 215.37 245.4 214.23C245.962 213.997 246.562 213.868 247.17 213.85C247.697 213.83 248.214 213.996 248.63 214.32C249.008 214.61 249.322 214.975 249.555 215.391C249.787 215.807 249.931 216.266 249.98 216.74C249.979 217.193 249.869 217.638 249.66 218.04C249.334 218.688 249.05 219.356 248.81 220.04C248.796 220.135 248.758 220.225 248.698 220.301C248.638 220.376 248.559 220.434 248.47 220.469C248.38 220.503 248.283 220.513 248.188 220.498C248.093 220.482 248.004 220.441 247.93 220.38C247.692 220.223 247.498 220.009 247.365 219.758C247.232 219.506 247.165 219.225 247.17 218.94C247.174 218.658 247.221 218.378 247.31 218.11C247.417 217.77 247.544 217.436 247.69 217.11C248 216.33 248.27 215.61 248 215.32C247.46 214.73 244.28 216.69 242.42 219.69C241.53 221.129 241.04 222.779 241 224.47C241 226.4 241.85 227.25 242.66 227.25C243.9 227.25 245.49 225.82 246.79 223.33C246.829 223.24 246.894 223.164 246.978 223.112C247.062 223.06 247.159 223.035 247.257 223.041C247.356 223.046 247.45 223.082 247.527 223.142C247.604 223.203 247.661 223.286 247.69 223.38V223.38Z" fill="#191919"></path><path d="M258.43 214.63C259.091 214.959 259.637 215.482 259.994 216.128C260.351 216.775 260.503 217.515 260.43 218.25C260.366 220.059 259.876 221.827 259 223.41C257.47 226.19 255.21 228.5 252.63 228.5C252.114 228.501 251.603 228.41 251.12 228.23C250.273 227.906 249.554 227.315 249.073 226.546C248.591 225.778 248.372 224.874 248.45 223.97C248.45 219.23 252.67 215.08 255.23 214.18C255.664 214.032 256.121 213.957 256.58 213.96C256.918 213.938 257.256 213.987 257.575 214.102C257.893 214.217 258.184 214.397 258.43 214.63V214.63ZM257 222.63C257.916 221.026 258.437 219.226 258.52 217.38C258.52 216.31 258.3 215.59 257.83 215.38C256.83 215.02 254.19 216.5 252.15 219.62C251.139 221.156 250.572 222.942 250.51 224.78C250.51 226.35 251.07 227.22 251.93 227.22C253.32 227.26 255.38 225.52 257 222.64V222.63Z" fill="#191919"></path><path d="M263.55 224.57C263.55 223.27 263.64 221.41 263.84 219.5C262.204 222.237 260.808 225.111 259.67 228.09C259.51 228.54 259.17 228.57 258.86 228.23C258.582 227.869 258.431 227.426 258.43 226.97C258.454 226.511 258.552 226.058 258.72 225.63C260.378 221.781 262.289 218.046 264.44 214.45C264.74 213.96 265 213.96 265.34 214.23C265.65 214.409 265.906 214.667 266.082 214.978C266.257 215.29 266.347 215.643 266.34 216C266.329 216.362 266.292 216.723 266.23 217.08C265.885 219.31 265.658 221.556 265.55 223.81C267.11 220.569 268.842 217.415 270.74 214.36C271.07 213.89 271.34 214 271.59 214.43C271.723 214.704 271.791 215.005 271.79 215.31C271.755 216.186 271.466 217.034 270.96 217.75C269.7 219.82 266.96 225.09 265.58 228.12C265.55 228.191 265.504 228.254 265.446 228.305C265.388 228.355 265.319 228.391 265.244 228.411C265.17 228.43 265.092 228.432 265.017 228.416C264.941 228.4 264.87 228.368 264.81 228.32C264.43 228.119 264.116 227.814 263.905 227.44C263.694 227.066 263.595 226.639 263.62 226.21C263.57 225.52 263.55 225.11 263.55 224.57Z" fill="#191919"></path><path d="M268.05 225.69C269.419 222.448 271.058 219.327 272.95 216.36C272.733 216.243 272.545 216.08 272.396 215.883C272.248 215.687 272.143 215.461 272.09 215.22C272.03 214.92 272.16 214.79 272.59 214.79C273.71 214.786 274.828 214.683 275.93 214.48C276.609 214.348 277.298 214.271 277.99 214.25C278.408 214.216 278.826 214.315 279.185 214.532C279.544 214.75 279.826 215.074 279.99 215.46C280.1 215.71 279.99 215.96 279.52 215.96C278.038 216.022 276.565 216.223 275.12 216.56C274.38 217.8 273.51 219.34 272.45 221.27C272.88 221.21 273.19 221.18 273.53 221.16C274.81 221.07 275.42 221.54 275.62 222.26C275.71 222.58 275.62 222.78 275.17 222.82C273.87 222.926 272.58 223.13 271.31 223.43C270.48 225.04 269.83 226.43 269.04 228.12C268.91 228.41 268.6 228.48 268.28 228.27C268.105 228.123 267.968 227.937 267.879 227.726C267.79 227.516 267.753 227.288 267.77 227.06C267.802 226.593 267.896 226.132 268.05 225.69V225.69Z" fill="#191919"></path><path d="M281.6 214.27C281.96 213.76 282.3 213.83 282.55 214.27C282.683 214.548 282.751 214.852 282.75 215.16C282.672 216.084 282.381 216.977 281.9 217.77C280.53 220.19 278.04 224.56 276.49 228.02C276.31 228.45 276.09 228.51 275.73 228.11C275.587 227.948 275.477 227.76 275.406 227.556C275.336 227.352 275.307 227.136 275.32 226.92C275.344 226.446 275.435 225.978 275.59 225.53C277.251 221.604 279.263 217.835 281.6 214.27Z" fill="#191919"></path><path d="M285.73 228.27C284.34 226.43 283.26 225 282.37 223.99C281.81 225.09 281.22 226.37 280.55 227.99C280.39 228.41 280.15 228.46 279.81 228.12C279.663 227.96 279.549 227.772 279.476 227.568C279.402 227.364 279.369 227.147 279.38 226.93C279.386 226.551 279.44 226.175 279.54 225.81C280.687 222.61 282.201 219.553 284.05 216.7C283.77 216.672 283.501 216.573 283.27 216.412C283.039 216.251 282.853 216.033 282.73 215.78C282.55 215.47 282.66 215.29 283.13 215.22C284.001 215.08 284.858 214.863 285.69 214.57C286.484 214.289 287.311 214.107 288.15 214.03C288.764 213.977 289.379 214.131 289.896 214.468C290.412 214.806 290.801 215.306 291 215.89C291.254 216.546 291.324 217.258 291.202 217.951C291.08 218.644 290.772 219.29 290.31 219.82C288.769 221.599 286.703 222.842 284.41 223.37C285.173 224.256 285.843 225.218 286.41 226.24C286.603 226.597 286.709 226.994 286.72 227.4C286.714 227.673 286.635 227.939 286.49 228.17C286.25 228.59 286 228.63 285.73 228.27ZM285.93 216.61C285.831 217.486 285.541 218.329 285.08 219.08C284.48 220.2 283.91 221.14 283.51 221.84C288 220.69 290.2 217.73 289.61 216.25C289.564 216.102 289.469 215.973 289.339 215.888C289.21 215.802 289.054 215.764 288.9 215.78C288.182 215.865 287.479 216.047 286.81 216.32L285.93 216.61Z" fill="#191919"></path><path d="M291.9 225.52C292.317 223.494 292.841 221.491 293.47 219.52C291.588 222.294 289.916 225.206 288.47 228.23C288.34 228.54 288 228.61 287.71 228.32C287.572 228.169 287.466 227.992 287.397 227.8C287.329 227.608 287.299 227.404 287.31 227.2C287.324 226.711 287.429 226.23 287.62 225.78C289.555 221.83 291.83 218.056 294.42 214.5C294.468 214.409 294.537 214.33 294.621 214.27C294.705 214.21 294.802 214.17 294.904 214.155C295.007 214.139 295.111 214.148 295.209 214.18C295.307 214.212 295.397 214.267 295.47 214.34C295.753 214.552 295.983 214.827 296.143 215.142C296.302 215.458 296.387 215.806 296.39 216.16C296.361 216.708 296.257 217.25 296.08 217.77C295.38 219.77 294.93 221.16 294.13 224.17C296.48 220.6 298.88 218.4 301.37 214.45C301.66 213.98 301.96 213.96 302.37 214.36C302.78 214.772 303.014 215.328 303.02 215.91C302.981 216.555 302.8 217.183 302.49 217.75C300.637 221.132 299.01 224.633 297.62 228.23C297.46 228.68 297.26 228.68 296.9 228.36C296.723 228.199 296.585 228.001 296.495 227.779C296.405 227.558 296.365 227.319 296.38 227.08C296.385 226.651 296.446 226.224 296.56 225.81C297.246 223.87 298.072 221.981 299.03 220.16C297.017 222.692 295.188 225.365 293.56 228.16C293.31 228.61 293.11 228.61 292.77 228.36C292.453 228.133 292.197 227.832 292.023 227.484C291.848 227.135 291.762 226.749 291.77 226.36C291.792 226.077 291.836 225.796 291.9 225.52V225.52Z" fill="#191919"></path><path d="M335.86 189.88L351.55 181.13" stroke="black" stroke-linecap="square"></path><path d="M330.71 185.86L335.21 177.5" stroke="black" stroke-linecap="square"></path><path d="M335.82 199L345.9 197.25" stroke="black" stroke-linecap="square"></path></g><defs><clipPath id="clip0_26_1235"><rect width="347" height="341" fill="white"></rect></clipPath></defs></svg> 