<?xml version="1.0" encoding="UTF-8"?> <svg xmlns="http://www.w3.org/2000/svg" width="347" height="341" viewBox="0 0 347 341" fill="none"><path d="M142.56 43.45C154.158 43.45 163.56 34.048 163.56 22.45C163.56 10.852 154.158 1.45001 142.56 1.45001C130.962 1.45001 121.56 10.852 121.56 22.45C121.56 34.048 130.962 43.45 142.56 43.45Z" fill="#222222"></path><path d="M138 26L140.42 25.54C140.448 25.5327 140.478 25.5313 140.507 25.5361C140.536 25.5408 140.563 25.5515 140.588 25.5675C140.612 25.5835 140.633 25.6045 140.649 25.629C140.665 25.6535 140.676 25.6811 140.68 25.71C140.81 26.1333 141.077 26.5014 141.439 26.7566C141.801 27.0117 142.238 27.1396 142.68 27.12C142.933 27.1294 143.186 27.0849 143.42 26.9895C143.655 26.8941 143.867 26.7499 144.042 26.5665C144.217 26.3832 144.351 26.1647 144.435 25.9257C144.519 25.6867 144.552 25.4325 144.53 25.18C144.558 24.8978 144.523 24.613 144.428 24.3459C144.333 24.0787 144.18 23.8358 143.98 23.6344C143.781 23.4329 143.539 23.2779 143.273 23.1804C143.007 23.0828 142.723 23.0452 142.44 23.07H141.8C141.771 23.0714 141.742 23.0667 141.714 23.0562C141.687 23.0456 141.662 23.0295 141.641 23.0087C141.621 22.988 141.605 22.9632 141.594 22.9359C141.583 22.9085 141.579 22.8793 141.58 22.85V20.7C141.577 20.6703 141.581 20.6403 141.59 20.6122C141.6 20.5841 141.617 20.5586 141.638 20.5375C141.659 20.5164 141.684 20.5003 141.712 20.4903C141.74 20.4804 141.77 20.4768 141.8 20.48H142.4C142.648 20.495 142.897 20.4567 143.129 20.3676C143.361 20.2785 143.571 20.1407 143.746 19.9636C143.92 19.7864 144.054 19.5739 144.14 19.3404C144.225 19.1069 144.259 18.8579 144.24 18.61C144.262 18.3794 144.234 18.1468 144.158 17.9281C144.082 17.7093 143.959 17.5096 143.799 17.3425C143.638 17.1754 143.444 17.045 143.228 16.96C143.013 16.875 142.781 16.8375 142.55 16.85C142.148 16.8327 141.754 16.9637 141.442 17.2182C141.131 17.4726 140.924 17.8327 140.86 18.23C140.844 18.2859 140.807 18.3335 140.757 18.3632C140.707 18.3929 140.647 18.4025 140.59 18.39L138.19 17.92C138.162 17.918 138.135 17.9099 138.11 17.8961C138.086 17.8823 138.065 17.8632 138.048 17.8403C138.032 17.8173 138.021 17.791 138.016 17.7633C138.011 17.7356 138.013 17.7071 138.02 17.68C138.37 15.68 140.02 14.25 142.7 14.25C145.63 14.25 147.32 15.99 147.32 18.39C147.328 19.0033 147.179 19.6084 146.886 20.1476C146.594 20.6867 146.168 21.142 145.65 21.47V21.47C146.291 21.8259 146.819 22.3553 147.172 22.9973C147.526 23.6394 147.692 24.3681 147.65 25.1C147.65 27.83 145.58 29.66 142.77 29.66C140.21 29.66 138.32 28.38 137.9 26.22C137.896 26.1778 137.903 26.1351 137.92 26.0965C137.938 26.0578 137.966 26.0245 138 26V26Z" fill="white"></path><path d="M213.77 22.16C213.614 22.158 213.46 22.2027 213.329 22.2883C213.197 22.3738 213.095 22.4965 213.033 22.6407C212.972 22.7849 212.955 22.944 212.984 23.0979C213.014 23.2518 213.088 23.3935 213.198 23.505C213.308 23.6165 213.449 23.6927 213.602 23.724C213.756 23.7553 213.915 23.7403 214.06 23.6808C214.205 23.6213 214.329 23.52 214.416 23.3899C214.504 23.2598 214.55 23.1067 214.55 22.95C214.552 22.8467 214.532 22.7442 214.494 22.6484C214.455 22.5527 214.398 22.4655 214.325 22.392C214.253 22.3185 214.166 22.2601 214.071 22.2203C213.976 22.1805 213.873 22.16 213.77 22.16V22.16Z" fill="#009688"></path><path d="M210.64 22.16C210.483 22.158 210.329 22.2027 210.198 22.2883C210.067 22.3738 209.964 22.4965 209.903 22.6407C209.842 22.7849 209.824 22.944 209.854 23.0979C209.883 23.2518 209.958 23.3935 210.068 23.505C210.178 23.6165 210.319 23.6927 210.472 23.724C210.626 23.7553 210.785 23.7403 210.93 23.6808C211.075 23.6213 211.199 23.52 211.286 23.3899C211.373 23.2598 211.42 23.1067 211.42 22.95C211.421 22.8467 211.402 22.7442 211.363 22.6484C211.325 22.5527 211.268 22.4655 211.195 22.392C211.122 22.3185 211.036 22.2601 210.941 22.2203C210.845 22.1805 210.743 22.16 210.64 22.16V22.16Z" fill="#009688"></path><path d="M207.51 22.16C207.354 22.16 207.201 22.2063 207.071 22.2931C206.941 22.38 206.84 22.5033 206.78 22.6477C206.721 22.792 206.705 22.9509 206.735 23.1041C206.766 23.2574 206.841 23.3981 206.952 23.5086C207.062 23.6191 207.203 23.6943 207.356 23.7248C207.509 23.7553 207.668 23.7397 207.813 23.6799C207.957 23.6201 208.08 23.5188 208.167 23.3889C208.254 23.259 208.3 23.1063 208.3 22.95C208.302 22.8459 208.282 22.7426 208.243 22.6461C208.204 22.5497 208.145 22.462 208.072 22.3884C207.998 22.3148 207.911 22.2566 207.814 22.2174C207.718 22.1782 207.614 22.1587 207.51 22.16V22.16Z" fill="#009688"></path><path d="M204.38 22.16C204.223 22.158 204.07 22.2027 203.938 22.2883C203.807 22.3738 203.704 22.4965 203.643 22.6407C203.582 22.7849 203.565 22.944 203.594 23.0979C203.623 23.2518 203.698 23.3935 203.808 23.505C203.918 23.6165 204.059 23.6927 204.212 23.724C204.366 23.7553 204.525 23.7403 204.67 23.6808C204.815 23.6213 204.939 23.52 205.026 23.3899C205.113 23.2598 205.16 23.1067 205.16 22.95C205.16 22.7422 205.078 22.5428 204.932 22.3949C204.786 22.247 204.588 22.1626 204.38 22.16V22.16Z" fill="#009688"></path><path d="M201.25 22.16C201.095 22.1525 200.94 22.191 200.807 22.2709C200.673 22.3507 200.566 22.4683 200.499 22.6088C200.432 22.7494 200.408 22.9066 200.43 23.0607C200.452 23.2149 200.519 23.3591 200.623 23.4752C200.726 23.5914 200.862 23.6743 201.013 23.7136C201.163 23.7528 201.322 23.7467 201.469 23.6959C201.617 23.6451 201.746 23.552 201.84 23.4282C201.934 23.3044 201.99 23.1554 202 23C202.002 22.8968 201.982 22.7942 201.944 22.6985C201.905 22.6027 201.848 22.5155 201.775 22.442C201.703 22.3685 201.616 22.3102 201.521 22.2703C201.426 22.2305 201.324 22.21 201.22 22.21L201.25 22.16Z" fill="#009688"></path><path d="M198.12 22.16C197.964 22.158 197.81 22.2027 197.679 22.2883C197.547 22.3738 197.445 22.4965 197.383 22.6407C197.322 22.7849 197.305 22.944 197.334 23.0979C197.364 23.2518 197.438 23.3935 197.548 23.505C197.658 23.6165 197.799 23.6927 197.952 23.724C198.106 23.7553 198.265 23.7403 198.41 23.6808C198.555 23.6213 198.679 23.52 198.766 23.3899C198.854 23.2598 198.9 23.1067 198.9 22.95C198.902 22.8467 198.882 22.7442 198.844 22.6484C198.805 22.5527 198.748 22.4655 198.675 22.392C198.603 22.3185 198.516 22.2601 198.421 22.2203C198.326 22.1805 198.224 22.16 198.12 22.16V22.16Z" fill="#009688"></path><path d="M195 22.16C194.844 22.158 194.69 22.2027 194.559 22.2883C194.427 22.3738 194.325 22.4965 194.263 22.6407C194.202 22.7849 194.185 22.944 194.214 23.0979C194.244 23.2518 194.318 23.3935 194.428 23.505C194.538 23.6165 194.679 23.6927 194.832 23.724C194.986 23.7553 195.145 23.7403 195.29 23.6808C195.435 23.6213 195.559 23.52 195.646 23.3899C195.734 23.2598 195.78 23.1067 195.78 22.95C195.782 22.8467 195.762 22.7442 195.724 22.6484C195.685 22.5527 195.628 22.4655 195.555 22.392C195.483 22.3185 195.396 22.2601 195.301 22.2203C195.206 22.1805 195.103 22.16 195 22.16V22.16Z" fill="#009688"></path><path d="M210.64 19C210.433 19 210.235 19.0822 210.088 19.2285C209.942 19.3747 209.86 19.5731 209.86 19.78C209.86 19.9869 209.942 20.1853 210.088 20.3315C210.235 20.4778 210.433 20.56 210.64 20.56C210.847 20.56 211.045 20.4778 211.191 20.3315C211.338 20.1853 211.42 19.9869 211.42 19.78C211.42 19.5731 211.338 19.3747 211.191 19.2285C211.045 19.0822 210.847 19 210.64 19Z" fill="#009688"></path><path d="M207.51 19C207.303 19 207.105 19.0822 206.958 19.2285C206.812 19.3747 206.73 19.5731 206.73 19.78C206.728 19.9371 206.773 20.0912 206.859 20.2226C206.945 20.3541 207.068 20.4569 207.213 20.5179C207.358 20.5789 207.517 20.5954 207.672 20.5652C207.826 20.5351 207.968 20.4596 208.079 20.3486C208.19 20.2375 208.265 20.0958 208.295 19.9416C208.325 19.7875 208.309 19.6278 208.248 19.483C208.187 19.3383 208.084 19.215 207.953 19.129C207.821 19.0429 207.667 18.998 207.51 19V19Z" fill="#009688"></path><path d="M204.38 19C204.277 18.9987 204.174 19.0179 204.078 19.0565C203.983 19.0951 203.895 19.1523 203.822 19.2249C203.748 19.2975 203.69 19.3839 203.65 19.4792C203.61 19.5745 203.59 19.6767 203.59 19.78C203.577 19.8905 203.588 20.0025 203.622 20.1084C203.656 20.2144 203.712 20.3121 203.786 20.395C203.86 20.478 203.951 20.5444 204.052 20.5898C204.154 20.6353 204.264 20.6587 204.375 20.6587C204.486 20.6587 204.596 20.6353 204.698 20.5898C204.799 20.5444 204.89 20.478 204.964 20.395C205.038 20.3121 205.094 20.2144 205.128 20.1084C205.161 20.0025 205.172 19.8905 205.16 19.78C205.16 19.5731 205.078 19.3747 204.932 19.2285C204.785 19.0822 204.587 19 204.38 19V19Z" fill="#009688"></path><path d="M201.25 19C201.043 19 200.845 19.0822 200.699 19.2285C200.552 19.3747 200.47 19.5731 200.47 19.78C200.47 19.9869 200.552 20.1853 200.699 20.3315C200.845 20.4778 201.043 20.56 201.25 20.56C201.457 20.56 201.655 20.4778 201.802 20.3315C201.948 20.1853 202.03 19.9869 202.03 19.78C202.03 19.5731 201.948 19.3747 201.802 19.2285C201.655 19.0822 201.457 19 201.25 19V19Z" fill="#009688"></path><path d="M198.12 19C197.913 19 197.715 19.0822 197.568 19.2285C197.422 19.3747 197.34 19.5731 197.34 19.78C197.34 19.9869 197.422 20.1853 197.568 20.3315C197.715 20.4778 197.913 20.56 198.12 20.56C198.327 20.56 198.525 20.4778 198.671 20.3315C198.818 20.1853 198.9 19.9869 198.9 19.78C198.9 19.5731 198.818 19.3747 198.671 19.2285C198.525 19.0822 198.327 19 198.12 19Z" fill="#009688"></path><path d="M207.51 15.89C207.354 15.89 207.201 15.9364 207.071 16.0232C206.941 16.11 206.84 16.2333 206.78 16.3777C206.721 16.5221 206.705 16.6809 206.735 16.8341C206.766 16.9874 206.841 17.1281 206.952 17.2386C207.062 17.3491 207.203 17.4244 207.356 17.4548C207.509 17.4853 207.668 17.4697 207.813 17.4099C207.957 17.3501 208.08 17.2488 208.167 17.1189C208.254 16.989 208.3 16.8363 208.3 16.68C208.302 16.5759 208.282 16.4726 208.243 16.3761C208.204 16.2797 208.145 16.192 208.072 16.1184C207.998 16.0448 207.911 15.9866 207.814 15.9474C207.718 15.9082 207.614 15.8887 207.51 15.89V15.89Z" fill="#009688"></path><path d="M204.38 15.89C204.223 15.888 204.07 15.9327 203.938 16.0183C203.807 16.1039 203.704 16.2265 203.643 16.3707C203.582 16.5149 203.565 16.674 203.594 16.8279C203.623 16.9818 203.698 17.1235 203.808 17.235C203.918 17.3465 204.059 17.4227 204.212 17.454C204.366 17.4853 204.525 17.4703 204.67 17.4108C204.815 17.3513 204.939 17.2501 205.026 17.1199C205.113 16.9898 205.16 16.8367 205.16 16.68C205.16 16.4722 205.078 16.2728 204.932 16.1249C204.786 15.977 204.588 15.8926 204.38 15.89V15.89Z" fill="#009688"></path><path d="M201.25 15.89C201.094 15.888 200.94 15.9327 200.809 16.0183C200.677 16.1039 200.575 16.2265 200.513 16.3707C200.452 16.5149 200.435 16.674 200.464 16.8279C200.494 16.9818 200.568 17.1235 200.678 17.235C200.788 17.3465 200.929 17.4227 201.082 17.454C201.236 17.4853 201.395 17.4703 201.54 17.4108C201.685 17.3513 201.809 17.2501 201.896 17.1199C201.984 16.9898 202.03 16.8367 202.03 16.68C202.032 16.5767 202.012 16.4742 201.974 16.3785C201.935 16.2827 201.878 16.1955 201.805 16.122C201.733 16.0485 201.646 15.9902 201.551 15.9503C201.456 15.9105 201.353 15.89 201.25 15.89V15.89Z" fill="#009688"></path><path d="M198.12 15.89C197.964 15.888 197.81 15.9327 197.679 16.0183C197.547 16.1039 197.445 16.2265 197.383 16.3707C197.322 16.5149 197.305 16.674 197.334 16.8279C197.364 16.9818 197.438 17.1235 197.548 17.235C197.658 17.3465 197.799 17.4227 197.952 17.454C198.106 17.4853 198.265 17.4703 198.41 17.4108C198.555 17.3513 198.679 17.2501 198.766 17.1199C198.854 16.9898 198.9 16.8367 198.9 16.68C198.902 16.5767 198.882 16.4742 198.844 16.3785C198.805 16.2827 198.748 16.1955 198.675 16.122C198.603 16.0485 198.516 15.9902 198.421 15.9503C198.326 15.9105 198.224 15.89 198.12 15.89V15.89Z" fill="#009688"></path><path d="M204.38 12.76C204.226 12.76 204.075 12.8058 203.947 12.8915C203.818 12.9772 203.719 13.099 203.659 13.2415C203.6 13.384 203.585 13.5409 203.615 13.6922C203.645 13.8435 203.719 13.9825 203.829 14.0916C203.938 14.2006 204.077 14.2749 204.228 14.305C204.379 14.3351 204.536 14.3197 204.679 14.2606C204.821 14.2016 204.943 14.1016 205.029 13.9734C205.114 13.8451 205.16 13.6943 205.16 13.54C205.16 13.3331 205.078 13.1347 204.932 12.9885C204.785 12.8422 204.587 12.76 204.38 12.76V12.76Z" fill="#009688"></path><path d="M201.25 12.76C201.096 12.76 200.945 12.8058 200.817 12.8915C200.689 12.9772 200.589 13.099 200.53 13.2415C200.471 13.384 200.455 13.5409 200.485 13.6922C200.515 13.8435 200.59 13.9825 200.699 14.0916C200.808 14.2006 200.947 14.2749 201.098 14.305C201.249 14.3351 201.406 14.3197 201.549 14.2606C201.691 14.2016 201.813 14.1016 201.899 13.9734C201.984 13.8451 202.03 13.6943 202.03 13.54C202.03 13.3331 201.948 13.1347 201.802 12.9885C201.655 12.8422 201.457 12.76 201.25 12.76V12.76Z" fill="#009688"></path><path d="M198.12 12.76C197.966 12.76 197.815 12.8058 197.687 12.8915C197.558 12.9772 197.458 13.099 197.399 13.2415C197.34 13.384 197.325 13.5409 197.355 13.6922C197.385 13.8435 197.459 13.9825 197.568 14.0916C197.677 14.2006 197.816 14.2749 197.968 14.305C198.119 14.3351 198.276 14.3197 198.418 14.2606C198.561 14.2016 198.683 14.1016 198.768 13.9734C198.854 13.8451 198.9 13.6943 198.9 13.54C198.9 13.3331 198.818 13.1347 198.671 12.9885C198.525 12.8422 198.327 12.76 198.12 12.76V12.76Z" fill="#009688"></path><path d="M201.25 9.62C201.093 9.61802 200.939 9.66292 200.808 9.74896C200.676 9.835 200.573 9.95828 200.512 10.103C200.451 10.2478 200.435 10.4074 200.465 10.5616C200.495 10.7158 200.57 10.8575 200.682 10.9685C200.793 11.0796 200.934 11.1551 201.089 11.1852C201.243 11.2154 201.402 11.1989 201.547 11.1379C201.692 11.0769 201.815 10.9741 201.901 10.8426C201.987 10.7112 202.032 10.5571 202.03 10.4C202.03 10.1931 201.948 9.99473 201.802 9.84845C201.655 9.70217 201.457 9.62 201.25 9.62V9.62Z" fill="#009688"></path><path d="M198.12 9.62C197.963 9.61802 197.809 9.66292 197.678 9.74896C197.546 9.835 197.443 9.95828 197.382 10.103C197.321 10.2478 197.305 10.4074 197.335 10.5616C197.365 10.7158 197.441 10.8575 197.552 10.9685C197.663 11.0796 197.804 11.1551 197.959 11.1852C198.113 11.2154 198.272 11.1989 198.417 11.1379C198.562 11.0769 198.685 10.9741 198.771 10.8426C198.857 10.7112 198.902 10.5571 198.9 10.4C198.9 10.1931 198.818 9.99473 198.672 9.84845C198.526 9.70217 198.327 9.62 198.12 9.62V9.62Z" fill="#009688"></path><path d="M198.12 6.48001C197.912 6.48264 197.714 6.56703 197.568 6.7149C197.422 6.86277 197.34 7.06221 197.34 7.27001C197.34 7.47688 197.422 7.67528 197.568 7.82155C197.715 7.96783 197.913 8.05001 198.12 8.05001C198.327 8.05001 198.525 7.96783 198.671 7.82155C198.818 7.67528 198.9 7.47688 198.9 7.27001C198.9 7.06221 198.818 6.86277 198.672 6.7149C198.526 6.56703 198.328 6.48264 198.12 6.48001V6.48001Z" fill="#009688"></path><path d="M210.64 25.3C210.483 25.298 210.329 25.3429 210.198 25.429C210.066 25.515 209.963 25.6383 209.902 25.7831C209.841 25.9278 209.825 26.0875 209.855 26.2416C209.885 26.3958 209.961 26.5375 210.072 26.6486C210.183 26.7597 210.324 26.8351 210.479 26.8653C210.633 26.8954 210.792 26.8789 210.937 26.8179C211.082 26.7569 211.205 26.6541 211.291 26.5226C211.377 26.3912 211.422 26.2371 211.42 26.08C211.42 25.9776 211.4 25.8762 211.361 25.7815C211.322 25.6869 211.264 25.6009 211.192 25.5285C211.119 25.456 211.033 25.3986 210.939 25.3594C210.844 25.3202 210.743 25.3 210.64 25.3Z" fill="#009688"></path><path d="M207.51 25.3C207.353 25.3 207.2 25.3466 207.07 25.4339C206.94 25.5211 206.839 25.6451 206.779 25.7901C206.72 25.935 206.705 26.0943 206.736 26.2479C206.767 26.4014 206.844 26.5421 206.955 26.6522C207.067 26.7623 207.208 26.8367 207.362 26.866C207.516 26.8954 207.675 26.8783 207.819 26.817C207.964 26.7556 208.086 26.6528 208.172 26.5216C208.257 26.3904 208.302 26.2367 208.3 26.08C208.3 25.9767 208.28 25.8745 208.24 25.7792C208.2 25.6839 208.142 25.5975 208.068 25.5249C207.995 25.4524 207.908 25.3951 207.812 25.3565C207.716 25.3179 207.613 25.2987 207.51 25.3V25.3Z" fill="#009688"></path><path d="M204.38 25.3C204.223 25.298 204.069 25.3429 203.937 25.429C203.806 25.515 203.703 25.6383 203.642 25.7831C203.581 25.9278 203.565 26.0875 203.595 26.2416C203.625 26.3958 203.7 26.5375 203.811 26.6486C203.923 26.7597 204.064 26.8351 204.218 26.8653C204.373 26.8954 204.532 26.8789 204.677 26.8179C204.822 26.7569 204.945 26.6541 205.031 26.5226C205.117 26.3912 205.162 26.2371 205.16 26.08C205.16 25.9776 205.14 25.8762 205.101 25.7815C205.061 25.6869 205.004 25.6009 204.932 25.5285C204.859 25.456 204.773 25.3986 204.679 25.3594C204.584 25.3202 204.482 25.3 204.38 25.3V25.3Z" fill="#009688"></path><path d="M201.25 25.3C201.093 25.298 200.939 25.3429 200.808 25.429C200.676 25.515 200.573 25.6383 200.512 25.7831C200.451 25.9278 200.435 26.0875 200.465 26.2416C200.495 26.3958 200.57 26.5375 200.682 26.6486C200.793 26.7597 200.934 26.8351 201.089 26.8653C201.243 26.8954 201.402 26.8789 201.547 26.8179C201.692 26.7569 201.815 26.6541 201.901 26.5226C201.987 26.3912 202.032 26.2371 202.03 26.08C202.03 25.9776 202.01 25.8762 201.971 25.7815C201.932 25.6869 201.874 25.6009 201.802 25.5285C201.729 25.456 201.643 25.3986 201.549 25.3594C201.454 25.3202 201.353 25.3 201.25 25.3V25.3Z" fill="#009688"></path><path d="M198.12 25.3C197.963 25.298 197.809 25.3429 197.678 25.429C197.546 25.515 197.443 25.6383 197.382 25.7831C197.321 25.9278 197.305 26.0875 197.335 26.2416C197.365 26.3958 197.441 26.5375 197.552 26.6486C197.663 26.7597 197.804 26.8351 197.959 26.8653C198.113 26.8954 198.272 26.8789 198.417 26.8179C198.562 26.7569 198.685 26.6541 198.771 26.5226C198.857 26.3912 198.902 26.2371 198.9 26.08C198.9 25.9776 198.88 25.8762 198.841 25.7815C198.802 25.6869 198.744 25.6009 198.672 25.5285C198.599 25.456 198.513 25.3986 198.419 25.3594C198.324 25.3202 198.223 25.3 198.12 25.3Z" fill="#009688"></path><path d="M207.51 28.44C207.356 28.442 207.207 28.4894 207.08 28.5763C206.953 28.6632 206.854 28.7857 206.797 28.9284C206.739 29.0711 206.725 29.2276 206.756 29.3782C206.788 29.5289 206.863 29.6669 206.972 29.775C207.082 29.8831 207.221 29.9564 207.372 29.9857C207.523 30.015 207.679 29.9989 207.821 29.9396C207.963 29.8803 208.084 29.7803 208.169 29.6523C208.255 29.5242 208.3 29.3738 208.3 29.22C208.3 29.1167 208.28 29.0145 208.24 28.9192C208.2 28.8239 208.142 28.7375 208.068 28.6649C207.995 28.5923 207.908 28.5351 207.812 28.4965C207.716 28.4579 207.614 28.4387 207.51 28.44Z" fill="#009688"></path><path d="M204.38 28.44C204.226 28.44 204.075 28.4857 203.947 28.5715C203.818 28.6572 203.719 28.779 203.659 28.9215C203.6 29.064 203.585 29.2209 203.615 29.3722C203.645 29.5235 203.719 29.6625 203.829 29.7715C203.938 29.8806 204.077 29.9549 204.228 29.985C204.379 30.0151 204.536 29.9997 204.679 29.9406C204.821 29.8816 204.943 29.7816 205.029 29.6533C205.114 29.5251 205.16 29.3743 205.16 29.22C205.16 29.0131 205.078 28.8147 204.932 28.6685C204.785 28.5222 204.587 28.44 204.38 28.44V28.44Z" fill="#009688"></path><path d="M201.25 28.44C201.096 28.44 200.945 28.4857 200.817 28.5715C200.689 28.6572 200.589 28.779 200.53 28.9215C200.471 29.064 200.455 29.2209 200.485 29.3722C200.515 29.5235 200.59 29.6625 200.699 29.7715C200.808 29.8806 200.947 29.9549 201.098 29.985C201.249 30.0151 201.406 29.9997 201.549 29.9406C201.691 29.8816 201.813 29.7816 201.899 29.6533C201.984 29.5251 202.03 29.3743 202.03 29.22C202.03 29.0131 201.948 28.8147 201.802 28.6685C201.655 28.5222 201.457 28.44 201.25 28.44V28.44Z" fill="#009688"></path><path d="M198.12 28.44C197.966 28.44 197.815 28.4857 197.687 28.5715C197.558 28.6572 197.458 28.779 197.399 28.9215C197.34 29.064 197.325 29.2209 197.355 29.3722C197.385 29.5235 197.459 29.6625 197.568 29.7715C197.677 29.8806 197.816 29.9549 197.968 29.985C198.119 30.0151 198.276 29.9997 198.418 29.9406C198.561 29.8816 198.683 29.7816 198.768 29.6533C198.854 29.5251 198.9 29.3743 198.9 29.22C198.9 29.0131 198.818 28.8147 198.671 28.6685C198.525 28.5222 198.327 28.44 198.12 28.44Z" fill="#009688"></path><path d="M204.38 31.57C204.223 31.568 204.069 31.6129 203.937 31.699C203.806 31.785 203.703 31.9083 203.642 32.053C203.581 32.1978 203.565 32.3575 203.595 32.5116C203.625 32.6658 203.7 32.8075 203.811 32.9186C203.923 33.0296 204.064 33.1051 204.218 33.1352C204.373 33.1654 204.532 33.1489 204.677 33.0879C204.822 33.0269 204.945 32.9241 205.031 32.7926C205.117 32.6612 205.162 32.5071 205.16 32.35C205.16 32.1431 205.078 31.9447 204.932 31.7985C204.785 31.6522 204.587 31.57 204.38 31.57V31.57Z" fill="#009688"></path><path d="M201.25 31.57C201.093 31.568 200.939 31.6129 200.808 31.699C200.676 31.785 200.573 31.9083 200.512 32.053C200.451 32.1978 200.435 32.3575 200.465 32.5116C200.495 32.6658 200.57 32.8075 200.682 32.9186C200.793 33.0296 200.934 33.1051 201.089 33.1352C201.243 33.1654 201.402 33.1489 201.547 33.0879C201.692 33.0269 201.815 32.9241 201.901 32.7926C201.987 32.6612 202.032 32.5071 202.03 32.35C202.03 32.1431 201.948 31.9447 201.802 31.7985C201.655 31.6522 201.457 31.57 201.25 31.57V31.57Z" fill="#009688"></path><path d="M198.12 31.57C197.963 31.568 197.809 31.6129 197.678 31.699C197.546 31.785 197.443 31.9083 197.382 32.053C197.321 32.1978 197.305 32.3575 197.335 32.5116C197.365 32.6658 197.441 32.8075 197.552 32.9186C197.663 33.0296 197.804 33.1051 197.959 33.1352C198.113 33.1654 198.272 33.1489 198.417 33.0879C198.562 33.0269 198.685 32.9241 198.771 32.7926C198.857 32.6612 198.902 32.5071 198.9 32.35C198.9 32.1431 198.818 31.9447 198.672 31.7985C198.526 31.6522 198.327 31.57 198.12 31.57Z" fill="#009688"></path><path d="M201.25 34.71C201.096 34.71 200.945 34.7558 200.817 34.8415C200.689 34.9272 200.589 35.049 200.53 35.1915C200.471 35.3341 200.455 35.4909 200.485 35.6422C200.515 35.7935 200.59 35.9325 200.699 36.0416C200.808 36.1506 200.947 36.2249 201.098 36.255C201.249 36.2851 201.406 36.2697 201.549 36.2106C201.691 36.1516 201.813 36.0516 201.899 35.9234C201.984 35.7951 202.03 35.6443 202.03 35.49C202.03 35.2832 201.948 35.0848 201.802 34.9385C201.655 34.7922 201.457 34.71 201.25 34.71V34.71Z" fill="#009688"></path><path d="M198.12 34.71C197.966 34.71 197.815 34.7558 197.687 34.8415C197.558 34.9272 197.458 35.049 197.399 35.1915C197.34 35.3341 197.325 35.4909 197.355 35.6422C197.385 35.7935 197.459 35.9325 197.568 36.0416C197.677 36.1506 197.816 36.2249 197.968 36.255C198.119 36.2851 198.276 36.2697 198.418 36.2106C198.561 36.1516 198.683 36.0516 198.768 35.9234C198.854 35.7951 198.9 35.6443 198.9 35.49C198.9 35.2832 198.818 35.0848 198.671 34.9385C198.525 34.7922 198.327 34.71 198.12 34.71V34.71Z" fill="#009688"></path><path d="M198.12 37.84C197.964 37.838 197.81 37.8827 197.679 37.9682C197.547 38.0538 197.445 38.1765 197.383 38.3207C197.322 38.4649 197.305 38.624 197.334 38.7779C197.364 38.9318 197.438 39.0735 197.548 39.185C197.658 39.2965 197.799 39.3727 197.952 39.404C198.106 39.4353 198.265 39.4203 198.41 39.3608C198.555 39.3013 198.679 39.2 198.766 39.0699C198.854 38.9398 198.9 38.7867 198.9 38.63C198.902 38.5267 198.882 38.4242 198.844 38.3284C198.805 38.2326 198.748 38.1455 198.675 38.072C198.603 37.9985 198.516 37.9401 198.421 37.9003C198.326 37.8605 198.224 37.84 198.12 37.84V37.84Z" fill="#009688"></path><path d="M191.87 22.16C191.714 22.158 191.56 22.2027 191.429 22.2883C191.297 22.3738 191.195 22.4965 191.133 22.6407C191.072 22.7849 191.055 22.944 191.084 23.0979C191.114 23.2518 191.188 23.3935 191.298 23.505C191.408 23.6165 191.549 23.6927 191.702 23.724C191.856 23.7553 192.015 23.7403 192.16 23.6808C192.305 23.6213 192.429 23.52 192.516 23.3899C192.604 23.2598 192.65 23.1067 192.65 22.95C192.652 22.8467 192.632 22.7442 192.594 22.6484C192.555 22.5527 192.498 22.4655 192.425 22.392C192.353 22.3185 192.266 22.2601 192.171 22.2203C192.076 22.1805 191.974 22.16 191.87 22.16V22.16Z" fill="#009688"></path><path d="M188.74 22.16C188.584 22.16 188.431 22.2063 188.301 22.2931C188.171 22.38 188.07 22.5033 188.01 22.6477C187.951 22.792 187.935 22.9509 187.965 23.1041C187.996 23.2574 188.071 23.3981 188.182 23.5086C188.292 23.6191 188.433 23.6943 188.586 23.7248C188.739 23.7553 188.898 23.7397 189.043 23.6799C189.187 23.6201 189.31 23.5188 189.397 23.3889C189.484 23.259 189.53 23.1063 189.53 22.95C189.532 22.8459 189.512 22.7426 189.473 22.6461C189.434 22.5497 189.375 22.462 189.302 22.3884C189.228 22.3148 189.141 22.2566 189.044 22.2174C188.948 22.1782 188.844 22.1587 188.74 22.16V22.16Z" fill="#009688"></path><path d="M185.61 22.16C185.453 22.158 185.3 22.2027 185.168 22.2883C185.037 22.3738 184.934 22.4965 184.873 22.6407C184.812 22.7849 184.795 22.944 184.824 23.0979C184.853 23.2518 184.928 23.3935 185.038 23.505C185.148 23.6165 185.289 23.6927 185.442 23.724C185.596 23.7553 185.755 23.7403 185.9 23.6808C186.045 23.6213 186.169 23.52 186.256 23.3899C186.343 23.2598 186.39 23.1067 186.39 22.95C186.39 22.7422 186.308 22.5428 186.162 22.3949C186.016 22.247 185.818 22.1626 185.61 22.16V22.16Z" fill="#009688"></path><path d="M182.48 22.16C182.324 22.158 182.17 22.2027 182.039 22.2883C181.907 22.3738 181.805 22.4965 181.743 22.6407C181.682 22.7849 181.665 22.944 181.694 23.0979C181.724 23.2518 181.798 23.3935 181.908 23.505C182.018 23.6165 182.159 23.6927 182.312 23.724C182.466 23.7553 182.625 23.7403 182.77 23.6808C182.915 23.6213 183.039 23.52 183.126 23.3899C183.214 23.2598 183.26 23.1067 183.26 22.95C183.261 22.8467 183.242 22.7442 183.204 22.6484C183.165 22.5527 183.108 22.4655 183.035 22.392C182.963 22.3185 182.876 22.2601 182.781 22.2203C182.686 22.1805 182.583 22.16 182.48 22.16V22.16Z" fill="#009688"></path><path d="M179.35 22.16C179.194 22.16 179.041 22.2063 178.911 22.2931C178.781 22.38 178.68 22.5033 178.62 22.6477C178.56 22.792 178.545 22.9509 178.575 23.1041C178.606 23.2574 178.681 23.3981 178.791 23.5086C178.902 23.6191 179.043 23.6943 179.196 23.7248C179.349 23.7553 179.508 23.7397 179.652 23.6799C179.797 23.6201 179.92 23.5188 180.007 23.3889C180.094 23.259 180.14 23.1063 180.14 22.95C180.141 22.8459 180.122 22.7426 180.083 22.6461C180.043 22.5497 179.985 22.462 179.912 22.3884C179.838 22.3148 179.75 22.2566 179.654 22.2174C179.558 22.1782 179.454 22.1587 179.35 22.16V22.16Z" fill="#009688"></path><path d="M195 25.3C194.843 25.298 194.689 25.3429 194.558 25.429C194.426 25.515 194.323 25.6383 194.262 25.7831C194.201 25.9278 194.185 26.0875 194.215 26.2416C194.245 26.3958 194.32 26.5375 194.432 26.6486C194.543 26.7597 194.684 26.8351 194.839 26.8653C194.993 26.8954 195.152 26.8789 195.297 26.8179C195.442 26.7569 195.565 26.6541 195.651 26.5226C195.737 26.3912 195.782 26.2371 195.78 26.08C195.78 25.9776 195.76 25.8762 195.721 25.7815C195.682 25.6869 195.624 25.6009 195.552 25.5285C195.479 25.456 195.393 25.3986 195.299 25.3594C195.204 25.3202 195.103 25.3 195 25.3Z" fill="#009688"></path><path d="M191.87 25.3C191.713 25.298 191.559 25.3429 191.428 25.429C191.296 25.515 191.193 25.6383 191.132 25.7831C191.071 25.9278 191.055 26.0875 191.085 26.2416C191.115 26.3958 191.191 26.5375 191.302 26.6486C191.413 26.7597 191.554 26.8351 191.709 26.8653C191.863 26.8954 192.022 26.8789 192.167 26.8179C192.312 26.7569 192.435 26.6541 192.521 26.5226C192.607 26.3912 192.652 26.2371 192.65 26.08C192.65 25.9776 192.63 25.8762 192.591 25.7815C192.552 25.6869 192.494 25.6009 192.422 25.5285C192.349 25.456 192.263 25.3986 192.169 25.3594C192.074 25.3202 191.973 25.3 191.87 25.3V25.3Z" fill="#009688"></path><path d="M188.74 25.3C188.583 25.3 188.43 25.3466 188.3 25.4339C188.17 25.5211 188.069 25.6451 188.009 25.7901C187.95 25.935 187.935 26.0943 187.966 26.2479C187.997 26.4014 188.074 26.5421 188.185 26.6522C188.297 26.7623 188.438 26.8367 188.592 26.866C188.746 26.8954 188.905 26.8783 189.049 26.817C189.194 26.7556 189.316 26.6528 189.402 26.5216C189.487 26.3904 189.532 26.2367 189.53 26.08C189.53 25.9767 189.51 25.8745 189.47 25.7792C189.43 25.6839 189.372 25.5975 189.298 25.5249C189.225 25.4524 189.137 25.3951 189.042 25.3565C188.946 25.3179 188.843 25.2987 188.74 25.3V25.3Z" fill="#009688"></path><path d="M185.61 25.3C185.453 25.298 185.299 25.3429 185.167 25.429C185.036 25.515 184.933 25.6383 184.872 25.7831C184.811 25.9278 184.795 26.0875 184.825 26.2416C184.855 26.3958 184.93 26.5375 185.041 26.6486C185.153 26.7597 185.294 26.8351 185.448 26.8653C185.603 26.8954 185.762 26.8789 185.907 26.8179C186.052 26.7569 186.175 26.6541 186.261 26.5226C186.347 26.3912 186.392 26.2371 186.39 26.08C186.39 25.9776 186.37 25.8762 186.331 25.7815C186.291 25.6869 186.234 25.6009 186.162 25.5285C186.089 25.456 186.003 25.3986 185.908 25.3594C185.814 25.3202 185.712 25.3 185.61 25.3Z" fill="#009688"></path><path d="M182.48 25.3C182.323 25.298 182.169 25.3429 182.037 25.429C181.906 25.515 181.803 25.6383 181.742 25.7831C181.681 25.9278 181.665 26.0875 181.695 26.2416C181.725 26.3958 181.8 26.5375 181.912 26.6486C182.023 26.7597 182.164 26.8351 182.318 26.8653C182.473 26.8954 182.632 26.8789 182.777 26.8179C182.922 26.7569 183.045 26.6541 183.131 26.5226C183.217 26.3912 183.262 26.2371 183.26 26.08C183.26 25.9776 183.24 25.8762 183.201 25.7815C183.162 25.6869 183.104 25.6009 183.032 25.5285C182.959 25.456 182.873 25.3986 182.779 25.3594C182.684 25.3202 182.583 25.3 182.48 25.3V25.3Z" fill="#009688"></path><path d="M179.35 25.3C179.193 25.3 179.04 25.3466 178.91 25.4339C178.78 25.5211 178.679 25.6451 178.619 25.7901C178.56 25.935 178.545 26.0943 178.576 26.2479C178.607 26.4014 178.684 26.5421 178.795 26.6522C178.906 26.7623 179.048 26.8367 179.202 26.866C179.356 26.8954 179.515 26.8783 179.659 26.817C179.803 26.7556 179.926 26.6528 180.012 26.5216C180.097 26.3904 180.142 26.2367 180.14 26.08C180.14 25.9767 180.119 25.8745 180.08 25.7792C180.04 25.6839 179.982 25.5975 179.908 25.5249C179.835 25.4524 179.747 25.3951 179.652 25.3565C179.556 25.3179 179.453 25.2987 179.35 25.3V25.3Z" fill="#009688"></path><path d="M195 19C194.793 19 194.595 19.0822 194.449 19.2285C194.302 19.3747 194.22 19.5731 194.22 19.78C194.22 19.9869 194.302 20.1853 194.449 20.3315C194.595 20.4778 194.793 20.56 195 20.56C195.207 20.56 195.405 20.4778 195.552 20.3315C195.698 20.1853 195.78 19.9869 195.78 19.78C195.78 19.5731 195.698 19.3747 195.552 19.2285C195.405 19.0822 195.207 19 195 19Z" fill="#009688"></path><path d="M191.87 19C191.663 19 191.465 19.0822 191.318 19.2285C191.172 19.3747 191.09 19.5731 191.09 19.78C191.09 19.9869 191.172 20.1853 191.318 20.3315C191.465 20.4778 191.663 20.56 191.87 20.56C192.077 20.56 192.275 20.4778 192.421 20.3315C192.568 20.1853 192.65 19.9869 192.65 19.78C192.65 19.5731 192.568 19.3747 192.421 19.2285C192.275 19.0822 192.077 19 191.87 19V19Z" fill="#009688"></path><path d="M188.74 19C188.638 19 188.536 19.0202 188.442 19.0594C188.347 19.0986 188.261 19.156 188.189 19.2285C188.116 19.3009 188.059 19.3869 188.019 19.4815C187.98 19.5761 187.96 19.6776 187.96 19.78C187.948 19.8905 187.959 20.0025 187.992 20.1084C188.026 20.2144 188.082 20.3121 188.156 20.395C188.23 20.478 188.321 20.5444 188.422 20.5898C188.524 20.6353 188.634 20.6587 188.745 20.6587C188.856 20.6587 188.966 20.6353 189.068 20.5898C189.169 20.5444 189.26 20.478 189.334 20.395C189.408 20.3121 189.464 20.2144 189.498 20.1084C189.532 20.0025 189.543 19.8905 189.53 19.78C189.53 19.6767 189.51 19.5745 189.47 19.4792C189.43 19.3839 189.372 19.2975 189.298 19.2249C189.225 19.1523 189.137 19.0951 189.042 19.0565C188.946 19.0179 188.843 18.9987 188.74 19V19Z" fill="#009688"></path><path d="M185.61 19C185.507 18.9987 185.404 19.0179 185.308 19.0565C185.213 19.0951 185.125 19.1523 185.052 19.2249C184.978 19.2975 184.92 19.3839 184.88 19.4792C184.84 19.5745 184.82 19.6767 184.82 19.78C184.807 19.8905 184.818 20.0025 184.852 20.1084C184.886 20.2144 184.942 20.3121 185.016 20.395C185.09 20.478 185.181 20.5444 185.282 20.5898C185.384 20.6353 185.494 20.6587 185.605 20.6587C185.716 20.6587 185.826 20.6353 185.928 20.5898C186.029 20.5444 186.12 20.478 186.194 20.395C186.268 20.3121 186.324 20.2144 186.358 20.1084C186.391 20.0025 186.402 19.8905 186.39 19.78C186.39 19.5731 186.308 19.3747 186.161 19.2285C186.015 19.0822 185.817 19 185.61 19Z" fill="#009688"></path><path d="M182.48 19C182.273 19 182.075 19.0822 181.929 19.2285C181.782 19.3747 181.7 19.5731 181.7 19.78C181.7 19.9869 181.782 20.1853 181.929 20.3315C182.075 20.4778 182.273 20.56 182.48 20.56C182.687 20.56 182.885 20.4778 183.032 20.3315C183.178 20.1853 183.26 19.9869 183.26 19.78C183.26 19.5731 183.178 19.3747 183.032 19.2285C182.885 19.0822 182.687 19 182.48 19V19Z" fill="#009688"></path><path d="M179.35 19C179.143 19 178.945 19.0822 178.798 19.2285C178.652 19.3747 178.57 19.5731 178.57 19.78C178.557 19.8905 178.568 20.0025 178.602 20.1084C178.636 20.2144 178.692 20.3121 178.766 20.395C178.84 20.478 178.931 20.5444 179.032 20.5898C179.134 20.6353 179.244 20.6587 179.355 20.6587C179.466 20.6587 179.576 20.6353 179.678 20.5898C179.779 20.5444 179.87 20.478 179.944 20.395C180.018 20.3121 180.074 20.2144 180.108 20.1084C180.141 20.0025 180.152 19.8905 180.14 19.78C180.14 19.6767 180.119 19.5745 180.08 19.4792C180.04 19.3839 179.981 19.2975 179.908 19.2249C179.834 19.1523 179.747 19.0951 179.652 19.0565C179.556 19.0179 179.453 18.9987 179.35 19V19Z" fill="#009688"></path><path d="M213.77 23.73C213.659 23.7425 213.547 23.7315 213.441 23.6978C213.335 23.664 213.238 23.6083 213.155 23.5342C213.072 23.46 213.005 23.3693 212.96 23.2677C212.915 23.1662 212.891 23.0562 212.891 22.945C212.891 22.8338 212.915 22.7238 212.96 22.6223C213.005 22.5207 213.072 22.4299 213.155 22.3558C213.238 22.2817 213.335 22.226 213.441 22.1922C213.547 22.1585 213.659 22.1475 213.77 22.16V22.16C213.963 22.1818 214.141 22.2739 214.27 22.4187C214.4 22.5635 214.471 22.7508 214.471 22.945C214.471 23.1392 214.4 23.3265 214.27 23.4713C214.141 23.6161 213.963 23.7082 213.77 23.73Z" fill="black"></path><path d="M210.64 23.73C210.447 23.7082 210.269 23.6161 210.14 23.4713C210.01 23.3265 209.939 23.1392 209.939 22.945C209.939 22.7508 210.01 22.5635 210.14 22.4187C210.269 22.2739 210.447 22.1818 210.64 22.16V22.16C210.833 22.1818 211.011 22.2739 211.141 22.4187C211.27 22.5635 211.341 22.7508 211.341 22.945C211.341 23.1392 211.27 23.3265 211.141 23.4713C211.011 23.6161 210.833 23.7082 210.64 23.73V23.73Z" fill="black"></path><path d="M207.51 23.73C207.317 23.7082 207.139 23.6161 207.009 23.4713C206.88 23.3265 206.809 23.1392 206.809 22.945C206.809 22.7508 206.88 22.5635 207.009 22.4187C207.139 22.2739 207.317 22.1818 207.51 22.16V22.16C207.703 22.1818 207.881 22.2739 208.01 22.4187C208.14 22.5635 208.211 22.7508 208.211 22.945C208.211 23.1392 208.14 23.3265 208.01 23.4713C207.881 23.6161 207.703 23.7082 207.51 23.73Z" fill="black"></path><path d="M204.38 23.73C204.187 23.7082 204.009 23.6161 203.88 23.4713C203.75 23.3265 203.679 23.1392 203.679 22.945C203.679 22.7508 203.75 22.5635 203.88 22.4187C204.009 22.2739 204.187 22.1818 204.38 22.16V22.16C204.573 22.1818 204.751 22.2739 204.88 22.4187C205.01 22.5635 205.081 22.7508 205.081 22.945C205.081 23.1392 205.01 23.3265 204.88 23.4713C204.751 23.6161 204.573 23.7082 204.38 23.73Z" fill="black"></path><path d="M201.25 23.73C201.057 23.7082 200.879 23.6161 200.75 23.4713C200.62 23.3265 200.549 23.1392 200.549 22.945C200.549 22.7508 200.62 22.5635 200.75 22.4187C200.879 22.2739 201.057 22.1818 201.25 22.16V22.16C201.361 22.1475 201.473 22.1585 201.579 22.1922C201.685 22.226 201.782 22.2817 201.865 22.3558C201.948 22.4299 202.014 22.5207 202.06 22.6223C202.105 22.7238 202.129 22.8338 202.129 22.945C202.129 23.0562 202.105 23.1662 202.06 23.2677C202.014 23.3693 201.948 23.46 201.865 23.5342C201.782 23.6083 201.685 23.664 201.579 23.6978C201.473 23.7315 201.361 23.7425 201.25 23.73V23.73Z" fill="black"></path><path d="M198.12 23.73C197.927 23.7082 197.749 23.6161 197.62 23.4713C197.49 23.3265 197.419 23.1392 197.419 22.945C197.419 22.7508 197.49 22.5635 197.62 22.4187C197.749 22.2739 197.927 22.1818 198.12 22.16V22.16C198.231 22.1475 198.343 22.1585 198.449 22.1922C198.555 22.226 198.652 22.2817 198.735 22.3558C198.818 22.4299 198.885 22.5207 198.93 22.6223C198.975 22.7238 198.999 22.8338 198.999 22.945C198.999 23.0562 198.975 23.1662 198.93 23.2677C198.885 23.3693 198.818 23.46 198.735 23.5342C198.652 23.6083 198.555 23.664 198.449 23.6978C198.343 23.7315 198.231 23.7425 198.12 23.73V23.73Z" fill="black"></path><path d="M195 23.73C194.889 23.7425 194.777 23.7315 194.671 23.6978C194.565 23.664 194.468 23.6083 194.385 23.5342C194.302 23.46 194.235 23.3693 194.19 23.2677C194.145 23.1662 194.121 23.0562 194.121 22.945C194.121 22.8338 194.145 22.7238 194.19 22.6223C194.235 22.5207 194.302 22.4299 194.385 22.3558C194.468 22.2817 194.565 22.226 194.671 22.1922C194.777 22.1585 194.889 22.1475 195 22.16V22.16C195.193 22.1818 195.371 22.2739 195.5 22.4187C195.63 22.5635 195.701 22.7508 195.701 22.945C195.701 23.1392 195.63 23.3265 195.5 23.4713C195.371 23.6161 195.193 23.7082 195 23.73Z" fill="black"></path><path d="M210.64 20.6C210.432 20.5974 210.234 20.513 210.088 20.3651C209.942 20.2172 209.86 20.0178 209.86 19.81C209.86 19.6031 209.942 19.4047 210.088 19.2585C210.235 19.1122 210.433 19.03 210.64 19.03C210.847 19.03 211.045 19.1122 211.191 19.2585C211.338 19.4047 211.42 19.6031 211.42 19.81C211.42 20.0178 211.338 20.2172 211.192 20.3651C211.046 20.513 210.848 20.5974 210.64 20.6V20.6Z" fill="black"></path><path d="M207.51 20.6C207.302 20.5974 207.104 20.513 206.958 20.3651C206.812 20.2172 206.73 20.0178 206.73 19.81C206.73 19.6031 206.812 19.4047 206.958 19.2585C207.105 19.1122 207.303 19.03 207.51 19.03C207.717 19.03 207.915 19.1122 208.062 19.2585C208.208 19.4047 208.29 19.6031 208.29 19.81C208.29 20.0178 208.208 20.2172 208.062 20.3651C207.916 20.513 207.718 20.5974 207.51 20.6Z" fill="black"></path><path d="M204.38 20.6C204.172 20.5974 203.974 20.513 203.828 20.3651C203.682 20.2172 203.6 20.0178 203.6 19.81C203.6 19.6031 203.682 19.4047 203.829 19.2585C203.975 19.1122 204.173 19.03 204.38 19.03V19.03C204.587 19.03 204.785 19.1122 204.932 19.2585C205.078 19.4047 205.16 19.6031 205.16 19.81C205.16 20.0178 205.078 20.2172 204.932 20.3651C204.786 20.513 204.588 20.5974 204.38 20.6Z" fill="black"></path><path d="M201.25 20.6C201.042 20.5974 200.844 20.513 200.698 20.3651C200.552 20.2172 200.47 20.0178 200.47 19.81C200.47 19.6031 200.552 19.4047 200.699 19.2585C200.845 19.1122 201.043 19.03 201.25 19.03V19.03C201.458 19.03 201.657 19.1118 201.805 19.2578C201.953 19.4038 202.038 19.6022 202.04 19.81C202.038 20.0187 201.954 20.2182 201.806 20.3657C201.658 20.5133 201.459 20.5974 201.25 20.6V20.6Z" fill="black"></path><path d="M198.12 20.6C197.912 20.5974 197.714 20.513 197.568 20.3651C197.422 20.2172 197.34 20.0178 197.34 19.81C197.34 19.6031 197.422 19.4047 197.568 19.2585C197.715 19.1122 197.913 19.03 198.12 19.03C198.223 19.0287 198.326 19.0479 198.421 19.0865C198.517 19.1251 198.604 19.1823 198.678 19.2549C198.751 19.3275 198.81 19.4139 198.85 19.5092C198.889 19.6045 198.91 19.7067 198.91 19.81C198.91 20.0195 198.827 20.2205 198.678 20.3686C198.53 20.5168 198.329 20.6 198.12 20.6V20.6Z" fill="black"></path><path d="M207.51 17.46C207.317 17.4382 207.139 17.3461 207.009 17.2013C206.88 17.0565 206.809 16.8692 206.809 16.675C206.809 16.4809 206.88 16.2935 207.009 16.1487C207.139 16.0039 207.317 15.9118 207.51 15.89V15.89C207.703 15.9118 207.881 16.0039 208.01 16.1487C208.14 16.2935 208.211 16.4809 208.211 16.675C208.211 16.8692 208.14 17.0565 208.01 17.2013C207.881 17.3461 207.703 17.4382 207.51 17.46V17.46Z" fill="black"></path><path d="M204.38 17.46C204.187 17.4382 204.009 17.3461 203.88 17.2013C203.75 17.0565 203.679 16.8692 203.679 16.675C203.679 16.4809 203.75 16.2935 203.88 16.1487C204.009 16.0039 204.187 15.9118 204.38 15.89V15.89C204.573 15.9118 204.751 16.0039 204.88 16.1487C205.01 16.2935 205.081 16.4809 205.081 16.675C205.081 16.8692 205.01 17.0565 204.88 17.2013C204.751 17.3461 204.573 17.4382 204.38 17.46V17.46Z" fill="black"></path><path d="M201.25 17.46C201.057 17.4382 200.879 17.3461 200.75 17.2013C200.62 17.0565 200.549 16.8692 200.549 16.675C200.549 16.4809 200.62 16.2935 200.75 16.1487C200.879 16.0039 201.057 15.9118 201.25 15.89V15.89C201.361 15.8775 201.473 15.8885 201.579 15.9223C201.685 15.956 201.782 16.0118 201.865 16.0859C201.948 16.16 202.014 16.2507 202.06 16.3523C202.105 16.4538 202.129 16.5638 202.129 16.675C202.129 16.7862 202.105 16.8962 202.06 16.9977C202.014 17.0993 201.948 17.1901 201.865 17.2642C201.782 17.3383 201.685 17.394 201.579 17.4278C201.473 17.4615 201.361 17.4725 201.25 17.46V17.46Z" fill="black"></path><path d="M198.12 17.46C197.927 17.4382 197.749 17.3461 197.62 17.2013C197.49 17.0565 197.419 16.8692 197.419 16.675C197.419 16.4809 197.49 16.2935 197.62 16.1487C197.749 16.0039 197.927 15.9118 198.12 15.89V15.89C198.231 15.8775 198.343 15.8885 198.449 15.9223C198.555 15.956 198.652 16.0118 198.735 16.0859C198.818 16.16 198.885 16.2507 198.93 16.3523C198.975 16.4538 198.999 16.5638 198.999 16.675C198.999 16.7862 198.975 16.8962 198.93 16.9977C198.885 17.0993 198.818 17.1901 198.735 17.2642C198.652 17.3383 198.555 17.394 198.449 17.4278C198.343 17.4615 198.231 17.4725 198.12 17.46V17.46Z" fill="black"></path><path d="M204.38 14.32C204.173 14.32 203.975 14.2378 203.829 14.0916C203.682 13.9453 203.6 13.7469 203.6 13.54C203.6 13.3331 203.682 13.1347 203.829 12.9885C203.975 12.8422 204.173 12.76 204.38 12.76V12.76C204.587 12.76 204.785 12.8422 204.932 12.9885C205.078 13.1347 205.16 13.3331 205.16 13.54C205.16 13.7469 205.078 13.9453 204.932 14.0916C204.785 14.2378 204.587 14.32 204.38 14.32V14.32Z" fill="black"></path><path d="M201.25 14.32C201.043 14.32 200.845 14.2378 200.699 14.0916C200.552 13.9453 200.47 13.7469 200.47 13.54C200.47 13.3331 200.552 13.1347 200.699 12.9885C200.845 12.8422 201.043 12.76 201.25 12.76V12.76C201.457 12.76 201.655 12.8422 201.802 12.9885C201.948 13.1347 202.03 13.3331 202.03 13.54C202.03 13.7469 201.948 13.9453 201.802 14.0916C201.655 14.2378 201.457 14.32 201.25 14.32V14.32Z" fill="black"></path><path d="M198.12 14.32C197.913 14.32 197.715 14.2378 197.568 14.0916C197.422 13.9453 197.34 13.7469 197.34 13.54C197.34 13.3331 197.422 13.1347 197.568 12.9885C197.715 12.8422 197.913 12.76 198.12 12.76C198.327 12.76 198.525 12.8422 198.671 12.9885C198.818 13.1347 198.9 13.3331 198.9 13.54C198.9 13.7469 198.818 13.9453 198.671 14.0916C198.525 14.2378 198.327 14.32 198.12 14.32V14.32Z" fill="black"></path><path d="M201.25 11.19C201.057 11.1682 200.879 11.0761 200.75 10.9313C200.62 10.7865 200.549 10.5992 200.549 10.405C200.549 10.2108 200.62 10.0235 200.75 9.87869C200.879 9.7339 201.057 9.6418 201.25 9.62V9.62C201.458 9.61998 201.657 9.70184 201.805 9.84783C201.953 9.99383 202.037 10.1922 202.04 10.4C202.037 10.6087 201.953 10.8081 201.806 10.9557C201.658 11.1033 201.459 11.1874 201.25 11.19Z" fill="black"></path><path d="M198.12 11.19C197.927 11.1682 197.749 11.0761 197.62 10.9313C197.49 10.7865 197.419 10.5992 197.419 10.405C197.419 10.2109 197.49 10.0235 197.62 9.87872C197.749 9.73392 197.927 9.64183 198.12 9.62002V9.62002C198.231 9.60753 198.343 9.61851 198.449 9.65226C198.555 9.68601 198.652 9.74176 198.735 9.81587C198.818 9.88997 198.885 9.98076 198.93 10.0823C198.975 10.1838 198.999 10.2938 198.999 10.405C198.999 10.5163 198.975 10.6262 198.93 10.7278C198.885 10.8293 198.818 10.9201 198.735 10.9942C198.652 11.0683 198.555 11.124 198.449 11.1578C198.343 11.1915 198.231 11.2025 198.12 11.19Z" fill="black"></path><path d="M198.12 8.05001C197.927 8.0282 197.749 7.93611 197.62 7.79131C197.49 7.64652 197.419 7.45916 197.419 7.26501C197.419 7.07085 197.49 6.88349 197.62 6.7387C197.749 6.59391 197.927 6.50182 198.12 6.48001V6.48001C198.231 6.46751 198.343 6.4785 198.449 6.51225C198.555 6.546 198.652 6.60175 198.735 6.67585C198.818 6.74996 198.885 6.84074 198.93 6.94227C198.975 7.0438 198.999 7.15377 198.999 7.26501C198.999 7.37624 198.975 7.48622 198.93 7.58774C198.885 7.68927 198.818 7.78006 198.735 7.85416C198.652 7.92826 198.555 7.98402 198.449 8.01776C198.343 8.05151 198.231 8.0625 198.12 8.05001V8.05001Z" fill="black"></path><path d="M210.64 26.87C210.447 26.8482 210.269 26.7561 210.14 26.6113C210.01 26.4665 209.939 26.2792 209.939 26.085C209.939 25.8909 210.01 25.7035 210.14 25.5587C210.269 25.4139 210.447 25.3218 210.64 25.3V25.3C210.833 25.3218 211.011 25.4139 211.141 25.5587C211.27 25.7035 211.341 25.8909 211.341 26.085C211.341 26.2792 211.27 26.4665 211.141 26.6113C211.011 26.7561 210.833 26.8482 210.64 26.87V26.87Z" fill="black"></path><path d="M207.51 26.87C207.317 26.8482 207.139 26.7561 207.009 26.6113C206.88 26.4665 206.809 26.2792 206.809 26.085C206.809 25.8909 206.88 25.7035 207.009 25.5587C207.139 25.4139 207.317 25.3218 207.51 25.3V25.3C207.703 25.3218 207.881 25.4139 208.01 25.5587C208.14 25.7035 208.211 25.8909 208.211 26.085C208.211 26.2792 208.14 26.4665 208.01 26.6113C207.881 26.7561 207.703 26.8482 207.51 26.87V26.87Z" fill="black"></path><path d="M204.38 26.87C204.187 26.8482 204.009 26.7561 203.88 26.6113C203.75 26.4665 203.679 26.2792 203.679 26.085C203.679 25.8909 203.75 25.7035 203.88 25.5587C204.009 25.4139 204.187 25.3218 204.38 25.3V25.3C204.573 25.3218 204.751 25.4139 204.88 25.5587C205.01 25.7035 205.081 25.8909 205.081 26.085C205.081 26.2792 205.01 26.4665 204.88 26.6113C204.751 26.7561 204.573 26.8482 204.38 26.87V26.87Z" fill="black"></path><path d="M201.25 26.87C201.057 26.8482 200.879 26.7561 200.75 26.6113C200.62 26.4665 200.549 26.2792 200.549 26.085C200.549 25.8909 200.62 25.7035 200.75 25.5587C200.879 25.4139 201.057 25.3218 201.25 25.3V25.3C201.361 25.2875 201.473 25.2985 201.579 25.3323C201.685 25.366 201.782 25.4218 201.865 25.4959C201.948 25.57 202.014 25.6607 202.06 25.7623C202.105 25.8638 202.129 25.9738 202.129 26.085C202.129 26.1962 202.105 26.3062 202.06 26.4078C202.014 26.5093 201.948 26.6001 201.865 26.6742C201.782 26.7483 201.685 26.804 201.579 26.8378C201.473 26.8715 201.361 26.8825 201.25 26.87Z" fill="black"></path><path d="M198.12 26.87C197.927 26.8482 197.749 26.7561 197.62 26.6113C197.49 26.4665 197.419 26.2792 197.419 26.085C197.419 25.8909 197.49 25.7035 197.62 25.5587C197.749 25.4139 197.927 25.3218 198.12 25.3V25.3C198.231 25.2875 198.343 25.2985 198.449 25.3323C198.555 25.366 198.652 25.4218 198.735 25.4959C198.818 25.57 198.885 25.6607 198.93 25.7623C198.975 25.8638 198.999 25.9738 198.999 26.085C198.999 26.1962 198.975 26.3062 198.93 26.4078C198.885 26.5093 198.818 26.6001 198.735 26.6742C198.652 26.7483 198.555 26.804 198.449 26.8378C198.343 26.8715 198.231 26.8825 198.12 26.87Z" fill="black"></path><path d="M207.51 30C207.303 30 207.105 29.9178 206.958 29.7715C206.812 29.6253 206.73 29.4269 206.73 29.22C206.73 29.0122 206.812 28.8128 206.958 28.6649C207.104 28.517 207.302 28.4326 207.51 28.43V28.43C207.718 28.4326 207.916 28.517 208.062 28.6649C208.208 28.8128 208.29 29.0122 208.29 29.22C208.29 29.4269 208.208 29.6253 208.062 29.7715C207.915 29.9178 207.717 30 207.51 30V30Z" fill="black"></path><path d="M204.38 30C204.173 30 203.975 29.9178 203.829 29.7715C203.682 29.6253 203.6 29.4269 203.6 29.22C203.6 29.0122 203.682 28.8128 203.828 28.6649C203.974 28.517 204.172 28.4326 204.38 28.43V28.43C204.588 28.4326 204.786 28.517 204.932 28.6649C205.078 28.8128 205.16 29.0122 205.16 29.22C205.16 29.4269 205.078 29.6253 204.932 29.7715C204.785 29.9178 204.587 30 204.38 30V30Z" fill="black"></path><path d="M201.25 30C201.043 30 200.845 29.9178 200.699 29.7716C200.552 29.6253 200.47 29.4269 200.47 29.22C200.47 29.0122 200.552 28.8128 200.698 28.6649C200.844 28.517 201.042 28.4326 201.25 28.43V28.43C201.361 28.4175 201.473 28.4285 201.579 28.4623C201.685 28.496 201.782 28.5518 201.865 28.6259C201.948 28.7 202.015 28.7908 202.06 28.8923C202.105 28.9938 202.129 29.1038 202.129 29.215C202.129 29.3263 202.105 29.4362 202.06 29.5378C202.015 29.6393 201.948 29.7301 201.865 29.8042C201.782 29.8783 201.685 29.934 201.579 29.9678C201.473 30.0015 201.361 30.0125 201.25 30Z" fill="black"></path><path d="M198.12 30C197.913 30 197.715 29.9178 197.568 29.7715C197.422 29.6253 197.34 29.4269 197.34 29.22C197.34 29.0122 197.422 28.8128 197.568 28.6649C197.714 28.517 197.912 28.4326 198.12 28.43V28.43C198.329 28.43 198.53 28.5132 198.678 28.6614C198.827 28.8095 198.91 29.0105 198.91 29.22C198.91 29.3233 198.889 29.4255 198.85 29.5208C198.81 29.6161 198.751 29.7025 198.678 29.7751C198.604 29.8477 198.517 29.9049 198.421 29.9435C198.326 29.9821 198.223 30.0013 198.12 30V30Z" fill="black"></path><path d="M204.38 33.14C204.187 33.1182 204.009 33.0261 203.88 32.8813C203.75 32.7365 203.679 32.5492 203.679 32.355C203.679 32.1609 203.75 31.9735 203.88 31.8287C204.009 31.6839 204.187 31.5918 204.38 31.57V31.57C204.573 31.5918 204.751 31.6839 204.88 31.8287C205.01 31.9735 205.081 32.1609 205.081 32.355C205.081 32.5492 205.01 32.7365 204.88 32.8813C204.751 33.0261 204.573 33.1182 204.38 33.14V33.14Z" fill="black"></path><path d="M201.25 33.14C201.057 33.1182 200.879 33.0261 200.75 32.8813C200.62 32.7365 200.549 32.5492 200.549 32.355C200.549 32.1609 200.62 31.9735 200.75 31.8287C200.879 31.6839 201.057 31.5918 201.25 31.57V31.57C201.458 31.57 201.657 31.6518 201.805 31.7978C201.953 31.9438 202.037 32.1422 202.04 32.35C202.037 32.5587 201.953 32.7582 201.806 32.9058C201.658 33.0533 201.459 33.1374 201.25 33.14V33.14Z" fill="black"></path><path d="M198.12 33.14C197.927 33.1182 197.749 33.0261 197.62 32.8813C197.49 32.7365 197.419 32.5492 197.419 32.355C197.419 32.1608 197.49 31.9735 197.62 31.8287C197.749 31.6839 197.927 31.5918 198.12 31.57V31.57C198.231 31.5575 198.343 31.5685 198.449 31.6022C198.555 31.636 198.652 31.6917 198.735 31.7658C198.818 31.84 198.885 31.9307 198.93 32.0323C198.975 32.1338 198.999 32.2438 198.999 32.355C198.999 32.4662 198.975 32.5762 198.93 32.6777C198.885 32.7793 198.818 32.8701 198.735 32.9442C198.652 33.0183 198.555 33.074 198.449 33.1078C198.343 33.1415 198.231 33.1525 198.12 33.14V33.14Z" fill="black"></path><path d="M201.25 36.27C201.043 36.27 200.845 36.1878 200.699 36.0415C200.552 35.8953 200.47 35.6969 200.47 35.49C200.47 35.2831 200.552 35.0847 200.699 34.9384C200.845 34.7922 201.043 34.71 201.25 34.71V34.71C201.457 34.71 201.655 34.7922 201.802 34.9384C201.948 35.0847 202.03 35.2831 202.03 35.49C202.03 35.6969 201.948 35.8953 201.802 36.0415C201.655 36.1878 201.457 36.27 201.25 36.27Z" fill="black"></path><path d="M198.12 36.27C197.913 36.27 197.715 36.1878 197.568 36.0415C197.422 35.8953 197.34 35.6969 197.34 35.49C197.34 35.2831 197.422 35.0847 197.568 34.9384C197.715 34.7922 197.913 34.71 198.12 34.71V34.71C198.327 34.71 198.525 34.7922 198.671 34.9384C198.818 35.0847 198.9 35.2831 198.9 35.49C198.9 35.6969 198.818 35.8953 198.671 36.0415C198.525 36.1878 198.327 36.27 198.12 36.27Z" fill="black"></path><path d="M198.12 39.41C197.927 39.3882 197.749 39.2961 197.62 39.1513C197.49 39.0065 197.419 38.8191 197.419 38.625C197.419 38.4308 197.49 38.2435 197.62 38.0987C197.749 37.9539 197.927 37.8618 198.12 37.84C198.231 37.8275 198.343 37.8385 198.449 37.8722C198.555 37.906 198.652 37.9617 198.735 38.0358C198.818 38.1099 198.885 38.2007 198.93 38.3023C198.975 38.4038 198.999 38.5138 198.999 38.625C198.999 38.7362 198.975 38.8462 198.93 38.9477C198.885 39.0493 198.818 39.14 198.735 39.2141C198.652 39.2882 198.555 39.344 198.449 39.3777C198.343 39.4115 198.231 39.4225 198.12 39.41V39.41Z" fill="black"></path><path d="M191.87 23.73C191.677 23.7082 191.499 23.6161 191.37 23.4713C191.24 23.3265 191.169 23.1392 191.169 22.945C191.169 22.7508 191.24 22.5635 191.37 22.4187C191.499 22.2739 191.677 22.1818 191.87 22.16V22.16C192.063 22.1818 192.241 22.2739 192.371 22.4187C192.5 22.5635 192.571 22.7508 192.571 22.945C192.571 23.1392 192.5 23.3265 192.371 23.4713C192.241 23.6161 192.063 23.7082 191.87 23.73Z" fill="black"></path><path d="M188.74 23.73C188.547 23.7082 188.369 23.6161 188.239 23.4713C188.11 23.3265 188.039 23.1392 188.039 22.945C188.039 22.7508 188.11 22.5635 188.239 22.4187C188.369 22.2739 188.547 22.1818 188.74 22.16V22.16C188.933 22.1818 189.111 22.2739 189.24 22.4187C189.37 22.5635 189.441 22.7508 189.441 22.945C189.441 23.1392 189.37 23.3265 189.24 23.4713C189.111 23.6161 188.933 23.7082 188.74 23.73Z" fill="black"></path><path d="M185.61 23.73C185.417 23.7082 185.239 23.6161 185.11 23.4713C184.98 23.3265 184.909 23.1392 184.909 22.945C184.909 22.7508 184.98 22.5635 185.11 22.4187C185.239 22.2739 185.417 22.1818 185.61 22.16V22.16C185.803 22.1818 185.981 22.2739 186.11 22.4187C186.24 22.5635 186.311 22.7508 186.311 22.945C186.311 23.1392 186.24 23.3265 186.11 23.4713C185.981 23.6161 185.803 23.7082 185.61 23.73Z" fill="black"></path><path d="M182.48 23.73C182.287 23.7082 182.109 23.6161 181.98 23.4713C181.85 23.3265 181.779 23.1392 181.779 22.945C181.779 22.7508 181.85 22.5635 181.98 22.4187C182.109 22.2739 182.287 22.1818 182.48 22.16V22.16C182.591 22.1475 182.703 22.1585 182.809 22.1922C182.914 22.226 183.012 22.2817 183.095 22.3558C183.178 22.4299 183.244 22.5207 183.29 22.6223C183.335 22.7238 183.359 22.8338 183.359 22.945C183.359 23.0562 183.335 23.1662 183.29 23.2677C183.244 23.3693 183.178 23.46 183.095 23.5342C183.012 23.6083 182.914 23.664 182.809 23.6978C182.703 23.7315 182.591 23.7425 182.48 23.73V23.73Z" fill="black"></path><path d="M179.35 23.73C179.157 23.7082 178.979 23.6161 178.85 23.4713C178.72 23.3265 178.649 23.1392 178.649 22.945C178.649 22.7508 178.72 22.5635 178.85 22.4187C178.979 22.2739 179.157 22.1818 179.35 22.16V22.16C179.461 22.1475 179.573 22.1585 179.679 22.1922C179.785 22.226 179.882 22.2817 179.965 22.3558C180.048 22.4299 180.115 22.5207 180.16 22.6223C180.205 22.7238 180.229 22.8338 180.229 22.945C180.229 23.0562 180.205 23.1662 180.16 23.2677C180.115 23.3693 180.048 23.46 179.965 23.5342C179.882 23.6083 179.785 23.664 179.679 23.6978C179.573 23.7315 179.461 23.7425 179.35 23.73V23.73Z" fill="black"></path><path d="M195 26.87C194.889 26.8825 194.777 26.8715 194.671 26.8378C194.565 26.804 194.468 26.7483 194.385 26.6742C194.302 26.6001 194.235 26.5093 194.19 26.4078C194.145 26.3062 194.121 26.1962 194.121 26.085C194.121 25.9738 194.145 25.8638 194.19 25.7623C194.235 25.6607 194.302 25.57 194.385 25.4959C194.468 25.4218 194.565 25.366 194.671 25.3323C194.777 25.2985 194.889 25.2875 195 25.3V25.3C195.193 25.3218 195.371 25.4139 195.5 25.5587C195.63 25.7035 195.701 25.8909 195.701 26.085C195.701 26.2792 195.63 26.4665 195.5 26.6113C195.371 26.7561 195.193 26.8482 195 26.87V26.87Z" fill="black"></path><path d="M191.87 26.87C191.677 26.8482 191.499 26.7561 191.37 26.6113C191.24 26.4665 191.169 26.2792 191.169 26.085C191.169 25.8909 191.24 25.7035 191.37 25.5587C191.499 25.4139 191.677 25.3218 191.87 25.3V25.3C192.063 25.3218 192.241 25.4139 192.371 25.5587C192.5 25.7035 192.571 25.8909 192.571 26.085C192.571 26.2792 192.5 26.4665 192.371 26.6113C192.241 26.7561 192.063 26.8482 191.87 26.87V26.87Z" fill="black"></path><path d="M188.74 26.87C188.547 26.8482 188.369 26.7561 188.239 26.6113C188.11 26.4665 188.039 26.2792 188.039 26.085C188.039 25.8909 188.11 25.7035 188.239 25.5587C188.369 25.4139 188.547 25.3218 188.74 25.3V25.3C188.933 25.3218 189.111 25.4139 189.24 25.5587C189.37 25.7035 189.441 25.8909 189.441 26.085C189.441 26.2792 189.37 26.4665 189.24 26.6113C189.111 26.7561 188.933 26.8482 188.74 26.87V26.87Z" fill="black"></path><path d="M185.61 26.87C185.417 26.8482 185.239 26.7561 185.11 26.6113C184.98 26.4665 184.909 26.2792 184.909 26.085C184.909 25.8909 184.98 25.7035 185.11 25.5587C185.239 25.4139 185.417 25.3218 185.61 25.3V25.3C185.803 25.3218 185.981 25.4139 186.11 25.5587C186.24 25.7035 186.311 25.8909 186.311 26.085C186.311 26.2792 186.24 26.4665 186.11 26.6113C185.981 26.7561 185.803 26.8482 185.61 26.87V26.87Z" fill="black"></path><path d="M182.48 26.87C182.287 26.8482 182.109 26.7561 181.98 26.6113C181.85 26.4665 181.779 26.2792 181.779 26.085C181.779 25.8909 181.85 25.7035 181.98 25.5587C182.109 25.4139 182.287 25.3218 182.48 25.3V25.3C182.591 25.2875 182.703 25.2985 182.809 25.3323C182.914 25.366 183.012 25.4218 183.095 25.4959C183.178 25.57 183.244 25.6607 183.29 25.7623C183.335 25.8638 183.359 25.9738 183.359 26.085C183.359 26.1962 183.335 26.3062 183.29 26.4078C183.244 26.5093 183.178 26.6001 183.095 26.6742C183.012 26.7483 182.914 26.804 182.809 26.8378C182.703 26.8715 182.591 26.8825 182.48 26.87Z" fill="black"></path><path d="M179.35 26.87C179.157 26.8482 178.979 26.7561 178.85 26.6113C178.72 26.4665 178.649 26.2792 178.649 26.085C178.649 25.8909 178.72 25.7035 178.85 25.5587C178.979 25.4139 179.157 25.3218 179.35 25.3V25.3C179.461 25.2875 179.573 25.2985 179.679 25.3323C179.785 25.366 179.882 25.4218 179.965 25.4959C180.048 25.57 180.115 25.6607 180.16 25.7623C180.205 25.8638 180.229 25.9738 180.229 26.085C180.229 26.1962 180.205 26.3062 180.16 26.4078C180.115 26.5093 180.048 26.6001 179.965 26.6742C179.882 26.7483 179.785 26.804 179.679 26.8378C179.573 26.8715 179.461 26.8825 179.35 26.87Z" fill="black"></path><path d="M195 20.6C194.791 20.6 194.59 20.5168 194.441 20.3686C194.293 20.2205 194.21 20.0195 194.21 19.81C194.206 19.7042 194.223 19.5987 194.261 19.4999C194.299 19.4011 194.357 19.3111 194.431 19.2353C194.505 19.1596 194.594 19.0996 194.691 19.0592C194.789 19.0187 194.894 18.9986 195 19V19C195.207 19 195.405 19.0822 195.552 19.2285C195.698 19.3747 195.78 19.5731 195.78 19.78C195.784 19.8854 195.767 19.9906 195.73 20.0892C195.692 20.1879 195.636 20.2781 195.563 20.3545C195.49 20.431 195.403 20.4921 195.306 20.5342C195.21 20.5764 195.106 20.5988 195 20.6V20.6Z" fill="black"></path><path d="M191.87 20.6C191.662 20.5974 191.464 20.513 191.318 20.3651C191.172 20.2172 191.09 20.0178 191.09 19.81C191.09 19.6031 191.172 19.4047 191.318 19.2585C191.465 19.1122 191.663 19.03 191.87 19.03V19.03C192.077 19.03 192.275 19.1122 192.421 19.2585C192.568 19.4047 192.65 19.6031 192.65 19.81C192.65 20.0178 192.568 20.2172 192.422 20.3651C192.276 20.513 192.078 20.5974 191.87 20.6V20.6Z" fill="black"></path><path d="M188.74 20.6C188.532 20.5974 188.334 20.513 188.188 20.3651C188.042 20.2172 187.96 20.0178 187.96 19.81C187.96 19.7076 187.98 19.6061 188.019 19.5115C188.059 19.4169 188.116 19.3309 188.188 19.2585C188.261 19.186 188.347 19.1286 188.441 19.0894C188.536 19.0502 188.638 19.03 188.74 19.03C188.947 19.03 189.145 19.1122 189.292 19.2585C189.438 19.4047 189.52 19.6031 189.52 19.81C189.52 20.0178 189.438 20.2172 189.292 20.3651C189.146 20.513 188.948 20.5974 188.74 20.6V20.6Z" fill="black"></path><path d="M185.61 20.6C185.402 20.5974 185.204 20.513 185.058 20.3651C184.912 20.2172 184.83 20.0178 184.83 19.81C184.83 19.6031 184.912 19.4047 185.059 19.2585C185.205 19.1122 185.403 19.03 185.61 19.03C185.817 19.03 186.015 19.1122 186.162 19.2585C186.308 19.4047 186.39 19.6031 186.39 19.81C186.39 20.0178 186.308 20.2172 186.162 20.3651C186.016 20.513 185.818 20.5974 185.61 20.6V20.6Z" fill="black"></path><path d="M182.48 20.6C182.272 20.5974 182.074 20.513 181.928 20.3651C181.782 20.2172 181.7 20.0178 181.7 19.81C181.7 19.6031 181.782 19.4047 181.929 19.2585C182.075 19.1122 182.273 19.03 182.48 19.03V19.03C182.583 19.0287 182.686 19.0479 182.782 19.0865C182.878 19.1251 182.965 19.1823 183.038 19.2549C183.112 19.3275 183.17 19.4139 183.21 19.5092C183.25 19.6045 183.27 19.7067 183.27 19.81C183.27 20.0195 183.187 20.2205 183.039 20.3686C182.891 20.5168 182.69 20.6 182.48 20.6Z" fill="black"></path><path d="M179.35 20.6C179.143 20.5974 178.944 20.513 178.798 20.3651C178.652 20.2172 178.57 20.0178 178.57 19.81C178.57 19.6031 178.652 19.4047 178.799 19.2585C178.945 19.1122 179.143 19.03 179.35 19.03C179.454 19.0287 179.556 19.0479 179.652 19.0865C179.748 19.1251 179.835 19.1823 179.908 19.2549C179.982 19.3275 180.04 19.4139 180.08 19.5092C180.12 19.6045 180.14 19.7067 180.14 19.81C180.14 20.0195 180.057 20.2205 179.909 20.3686C179.761 20.5168 179.56 20.6 179.35 20.6V20.6Z" fill="black"></path><path d="M276.67 75.5024H50.6102C46.6053 75.5076 42.6408 76.3018 38.9429 77.8396C35.245 79.3773 31.8864 81.6285 29.0587 84.4645C26.231 87.3005 23.9897 90.6659 22.4629 94.3683C20.9361 98.0706 20.1536 102.038 20.1602 106.042L20.5002 314.492L307.5 312.492L307.17 105.942C307.157 97.8629 303.937 90.1189 298.219 84.4115C292.5 78.704 284.75 75.4997 276.67 75.5024V75.5024Z" stroke="#060606"></path><path d="M274.54 85.2324H241.23C238.34 85.2324 236.47 87.3724 235.79 91.2324C233.5 104.942 226.02 105.882 223.79 105.882H103.42C101.21 105.882 93.6503 104.882 91.4203 91.2324C90.8203 87.3724 88.9503 85.2324 85.9803 85.2324H52.6703C40.6103 85.2324 29.8203 98.0824 29.8203 110.342C29.8203 114.096 29.8736 181.982 29.9803 314.002L297.53 312.322C297.417 179.776 297.364 112.442 297.37 110.322C297.48 98.0824 286.6 85.2324 274.54 85.2324Z" fill="#151515" stroke="#0F0F0F"></path><path d="M131.88 131.602L129.14 126.792H131.14L132.75 129.952H132.82L134.68 126.792H136.55L133.64 131.592V134.002H131.84L131.88 131.602Z" fill="white"></path><path d="M139.87 126.652C140.365 126.616 140.862 126.687 141.326 126.861C141.791 127.035 142.212 127.308 142.561 127.661C142.91 128.014 143.178 128.438 143.347 128.904C143.516 129.371 143.582 129.868 143.54 130.362C143.54 131.341 143.152 132.28 142.46 132.972C141.768 133.664 140.829 134.052 139.85 134.052C138.872 134.052 137.933 133.664 137.241 132.972C136.549 132.28 136.16 131.341 136.16 130.362C136.125 129.866 136.196 129.368 136.37 128.901C136.544 128.435 136.816 128.012 137.168 127.66C137.52 127.308 137.943 127.036 138.409 126.862C138.876 126.688 139.374 126.617 139.87 126.652V126.652ZM139.87 132.652C140.93 132.652 141.72 131.932 141.72 130.342C141.72 128.752 140.93 128.182 139.88 128.182C138.83 128.182 138.04 128.882 138.04 130.402C138.04 131.922 138.81 132.632 139.84 132.632L139.87 132.652Z" fill="white"></path><path d="M151.14 126.792V130.542C151.16 131.005 151.087 131.468 150.925 131.902C150.762 132.336 150.514 132.733 150.195 133.069C149.876 133.405 149.492 133.673 149.067 133.857C148.642 134.042 148.184 134.139 147.72 134.142C145.72 134.142 144.3 132.962 144.3 130.542V126.792H146.1V130.542C146.1 131.832 146.67 132.452 147.72 132.452C147.956 132.443 148.186 132.385 148.398 132.282C148.61 132.179 148.798 132.033 148.95 131.853C149.102 131.674 149.216 131.465 149.283 131.239C149.35 131.013 149.37 130.776 149.34 130.542V126.792H151.14Z" fill="white"></path><path d="M154.61 134.002V126.792H159.73V128.412H156.41V129.632H159.1V131.162H156.41V132.382H159.73V134.002H154.61Z" fill="white"></path><path d="M164.89 132.622H162.25L161.76 134.002H159.84L162.73 126.792H164.58L167.29 134.002H165.29L164.89 132.622ZM162.77 131.152H164.42L163.67 128.712L162.77 131.152Z" fill="white"></path><path d="M167.83 126.792H171.24C171.566 126.775 171.892 126.826 172.196 126.944C172.501 127.062 172.777 127.243 173.006 127.476C173.234 127.709 173.411 127.987 173.524 128.294C173.637 128.6 173.683 128.927 173.66 129.252C173.674 129.705 173.563 130.153 173.341 130.548C173.119 130.942 172.794 131.269 172.4 131.492L173.66 134.002H171.66L170.66 131.792H169.66V134.002H167.86L167.83 126.792ZM169.63 128.412V130.262H170.8C170.93 130.276 171.061 130.262 171.184 130.222C171.308 130.181 171.422 130.115 171.519 130.028C171.616 129.941 171.693 129.834 171.746 129.715C171.799 129.596 171.826 129.468 171.826 129.337C171.826 129.207 171.799 129.078 171.746 128.959C171.693 128.84 171.616 128.734 171.519 128.647C171.422 128.559 171.308 128.493 171.184 128.453C171.061 128.413 170.93 128.399 170.8 128.412H169.63Z" fill="white"></path><path d="M176.61 129.832H176.52V134.002H174.72V126.792H176.39L180.03 131.252H180.12V126.792H181.92V134.002H180.03L176.61 129.832Z" fill="white"></path><path d="M183.19 134.002V126.792H188.31V128.412H184.98V129.632H187.67V131.162H184.97V132.382H188.3V134.002H183.19Z" fill="white"></path><path d="M189.21 126.792H191.93C192.41 126.78 192.887 126.865 193.334 127.04C193.78 127.216 194.187 127.479 194.53 127.815C194.874 128.151 195.146 128.552 195.331 128.994C195.517 129.437 195.611 129.912 195.61 130.392C195.592 131.356 195.196 132.274 194.508 132.949C193.82 133.624 192.894 134.003 191.93 134.002H189.21V126.792ZM191.01 128.412V132.412H191.93C192.46 132.412 192.969 132.202 193.344 131.827C193.719 131.452 193.93 130.943 193.93 130.412C193.93 129.882 193.719 129.373 193.344 128.998C192.969 128.623 192.46 128.412 191.93 128.412H191.01Z" fill="white"></path><path d="M322.6 187.352L328 179.002" stroke="black" stroke-linecap="square"></path><path d="M319 194.002H5C3.34315 194.002 2 195.346 2 197.002V251.002C2 252.659 3.34315 254.002 5 254.002H319C320.657 254.002 322 252.659 322 251.002V197.002C322 195.346 320.657 194.002 319 194.002Z" fill="white" stroke="#0B0B0B"></path><path d="M312 200.002H231C229.343 200.002 228 201.346 228 203.002V244.002C228 245.659 229.343 247.002 231 247.002H312C313.657 247.002 315 245.659 315 244.002V203.002C315 201.346 313.657 200.002 312 200.002Z" fill="#3DE892" stroke="#0B0B0B"></path><path d="M262.11 225.422C262.21 225.653 262.261 225.901 262.26 226.152C262.161 226.785 261.933 227.391 261.589 227.932C261.244 228.472 260.792 228.935 260.26 229.292C259.431 229.883 258.438 230.198 257.42 230.192C256.748 230.208 256.083 230.049 255.49 229.732C254.862 229.334 254.349 228.781 253.998 228.125C253.648 227.47 253.473 226.735 253.49 225.992C253.41 221.552 257.35 217.562 259.83 216.442C260.383 216.216 260.973 216.091 261.57 216.072C262.086 216.054 262.592 216.217 263 216.532C263.372 216.817 263.681 217.176 263.908 217.585C264.135 217.994 264.275 218.446 264.32 218.912C264.316 219.354 264.21 219.789 264.01 220.182C263.687 220.829 263.409 221.497 263.18 222.182C263.166 222.275 263.128 222.362 263.069 222.435C263.01 222.508 262.933 222.564 262.846 222.597C262.759 222.631 262.664 222.641 262.571 222.626C262.479 222.611 262.392 222.572 262.32 222.512C262.085 222.363 261.893 222.156 261.762 221.911C261.63 221.665 261.564 221.39 261.57 221.112C261.571 220.834 261.614 220.557 261.7 220.292C261.805 219.951 261.932 219.617 262.08 219.292C262.38 218.522 262.65 217.812 262.38 217.532C261.86 216.962 258.73 218.872 256.91 221.822C256.039 223.235 255.559 224.853 255.52 226.512C255.52 228.402 256.36 229.232 257.15 229.232C258.36 229.232 259.92 227.832 261.2 225.382C261.23 225.282 261.293 225.195 261.378 225.135C261.463 225.075 261.566 225.044 261.671 225.049C261.775 225.053 261.875 225.093 261.954 225.16C262.034 225.228 262.089 225.32 262.11 225.422V225.422Z" fill="#191919"></path><path d="M272.67 216.842C273.323 217.16 273.864 217.669 274.221 218.301C274.579 218.933 274.735 219.659 274.67 220.382C274.603 222.156 274.12 223.89 273.26 225.442C271.76 228.172 269.54 230.442 267.01 230.442C266.507 230.446 266.009 230.354 265.54 230.172C264.707 229.857 264 229.278 263.527 228.523C263.054 227.768 262.841 226.88 262.92 225.992C262.92 221.352 267.05 217.282 269.56 216.402C269.983 216.25 270.43 216.176 270.88 216.182C271.208 216.165 271.535 216.215 271.843 216.329C272.151 216.442 272.432 216.617 272.67 216.842ZM271.24 224.712C272.139 223.142 272.649 221.38 272.73 219.572C272.73 218.512 272.51 217.802 272.05 217.632C271.05 217.282 268.49 218.732 266.48 221.792C265.489 223.298 264.935 225.05 264.88 226.852C264.88 228.392 265.43 229.252 266.26 229.252C267.67 229.232 269.67 227.552 271.24 224.712Z" fill="#191919"></path><path d="M272.86 227.822C274.01 224.72 275.495 221.752 277.29 218.972C277.009 218.927 276.745 218.812 276.521 218.637C276.297 218.462 276.121 218.234 276.01 217.972C275.86 217.642 275.94 217.452 276.43 217.402C277.281 217.3 278.115 217.085 278.91 216.762C279.68 216.472 280.489 216.297 281.31 216.242C281.929 216.142 282.563 216.278 283.086 216.625C283.609 216.971 283.982 217.503 284.13 218.112C284.346 218.752 284.397 219.435 284.279 220.1C284.16 220.764 283.875 221.388 283.45 221.912C282.74 222.951 281.824 223.833 280.759 224.504C279.694 225.175 278.503 225.62 277.26 225.812C276.77 225.905 276.265 225.874 275.79 225.722C275.19 226.862 274.49 228.272 273.79 229.972C273.61 230.362 273.44 230.362 273.13 230.052C272.985 229.898 272.872 229.715 272.8 229.516C272.728 229.316 272.697 229.104 272.71 228.892C272.713 228.531 272.764 228.171 272.86 227.822V227.822ZM276.65 224.102C281.03 223.102 283.16 219.902 282.76 218.422C282.702 218.286 282.604 218.171 282.479 218.092C282.354 218.013 282.208 217.975 282.06 217.982C281.348 218.072 280.652 218.257 279.99 218.532C279.64 218.662 279.46 218.732 279.16 218.822C279.04 219.654 278.755 220.453 278.32 221.172C278.12 221.502 277.9 221.902 276.67 224.102H276.65Z" fill="#191919"></path><path d="M283.91 230.132C283.75 230.552 283.53 230.662 283.2 230.372C282.854 230.013 282.664 229.531 282.67 229.032C282.672 228.667 282.726 228.303 282.83 227.952C283.213 226.886 283.661 225.844 284.17 224.832C284.165 222.154 284.372 219.478 284.79 216.832C284.9 216.302 285.12 216.252 285.47 216.452C285.844 216.779 286.131 217.192 286.305 217.656C286.48 218.121 286.536 218.621 286.47 219.112C286.47 220.322 286.25 221.232 286.16 222.812C288.16 220.682 290.83 218.082 292.52 216.542C292.92 216.172 293.23 216.232 293.31 216.542C293.47 217.202 293.31 218.332 291.99 219.622C289.46 222.022 287.88 223.522 285.9 225.622C285.146 227.084 284.482 228.59 283.91 230.132V230.132Z" fill="#191919"></path><path d="M138.18 152.632C138.713 152.407 139.295 152.321 139.87 152.382C140.59 151.122 141.31 150.012 141.95 148.932C142.45 148.102 142.89 148.062 143.32 148.862C143.57 149.292 143.64 150.662 142.17 153.462C142.59 153.876 142.929 154.364 143.17 154.902C143.63 156.132 142.99 157.422 141.62 160.272C141.29 160.992 140.94 160.952 140.29 160.552C139.973 160.388 139.705 160.142 139.515 159.84C139.326 159.537 139.22 159.189 139.21 158.832C139.296 157.963 139.58 157.125 140.04 156.382C140.4 155.592 140.83 154.722 140.58 154.542C139.96 154.072 136.04 156.452 136.04 159.042C136.04 159.982 137.19 160.732 138.34 161.352C139.49 161.972 140.5 162.822 140.5 163.542C140.431 164.355 140.042 165.106 139.42 165.632C139.01 166.026 138.525 166.334 137.995 166.538C137.464 166.743 136.898 166.839 136.33 166.822C135.931 166.822 135.533 166.785 135.14 166.712C134.82 167.362 134.56 167.932 134.24 168.582C133.24 170.582 132.91 170.582 132.4 169.952C131.89 169.322 131.9 168.722 132.51 167.182L133.05 165.842C132.12 165.208 131.305 164.42 130.64 163.512C130.39 163.182 130.5 162.752 131.11 162.642C131.557 162.5 132.033 162.482 132.489 162.589C132.945 162.697 133.364 162.926 133.7 163.252C135.18 164.482 135.5 164.952 136.7 165.052C136.895 165.071 137.092 165.049 137.278 164.987C137.464 164.925 137.635 164.825 137.78 164.692C138.07 164.412 137.93 164.122 137.68 163.902C137.284 163.563 136.847 163.274 136.38 163.042C134.76 162.142 132.78 160.992 132.78 159.222C132.74 156.132 135.73 153.642 138.18 152.632Z" fill="#FF883E"></path><path d="M153.26 159.112C153.966 159.285 154.588 159.702 155.016 160.29C155.445 160.877 155.651 161.597 155.6 162.322C155.6 163.832 154.77 165.742 153.11 167.792C152.338 168.789 151.352 169.6 150.226 170.166C149.099 170.732 147.86 171.038 146.6 171.062C145.366 171.062 144.157 170.715 143.11 170.062C142.414 169.65 141.835 169.066 141.431 168.365C141.026 167.664 140.809 166.871 140.8 166.062C140.814 165.469 140.936 164.883 141.16 164.332C141.413 163.659 141.851 163.072 142.425 162.638C142.998 162.204 143.683 161.942 144.4 161.882C145.02 161.882 145.23 162.312 145.02 162.712C144.27 163.924 143.811 165.293 143.68 166.712C143.652 166.984 143.681 167.258 143.763 167.518C143.846 167.779 143.98 168.019 144.159 168.225C144.338 168.431 144.557 168.599 144.803 168.717C145.049 168.835 145.317 168.901 145.59 168.912C147.07 168.912 149.05 167.652 150.49 165.852C151.553 164.674 152.248 163.211 152.49 161.642C152.508 161.494 152.493 161.344 152.446 161.203C152.399 161.061 152.321 160.932 152.217 160.824C152.114 160.717 151.988 160.634 151.848 160.582C151.708 160.53 151.558 160.509 151.41 160.522C151.073 160.542 150.739 160.589 150.41 160.662C149.972 160.756 149.527 160.806 149.08 160.812C148.609 160.795 148.147 160.685 147.719 160.488C147.292 160.29 146.908 160.01 146.59 159.662C146.38 159.262 146.41 158.862 147.1 158.662C153.25 156.822 156.49 153.192 156.49 151.142C156.509 150.995 156.498 150.846 156.458 150.703C156.418 150.56 156.349 150.427 156.255 150.312C156.161 150.197 156.045 150.102 155.914 150.033C155.782 149.964 155.638 149.923 155.49 149.912C154.49 149.912 152.94 151.422 151.72 153.012C150.5 154.602 149.12 155.382 147.5 155.012C146.86 154.902 146.6 154.542 146.86 154.072C148.112 151.774 149.964 149.86 152.22 148.532C152.987 148.177 153.825 148.003 154.67 148.022C155.254 147.993 155.837 148.08 156.387 148.28C156.936 148.479 157.44 148.786 157.87 149.182C158.267 149.552 158.587 149.997 158.81 150.491C159.033 150.986 159.155 151.52 159.17 152.062C159.13 154.042 157.61 157.032 153.26 159.112Z" fill="#FF883E"></path><path d="M154.45 168.712C154.628 168.214 154.984 167.8 155.449 167.549C155.914 167.298 156.456 167.228 156.97 167.352C157.83 167.632 158.12 168.682 157.69 169.722C157.518 170.221 157.17 170.639 156.712 170.899C156.253 171.159 155.715 171.242 155.2 171.132C154.991 171.024 154.805 170.875 154.654 170.694C154.503 170.513 154.389 170.304 154.319 170.079C154.249 169.854 154.225 169.617 154.247 169.383C154.27 169.148 154.339 168.92 154.45 168.712Z" fill="#FF883E"></path><path d="M171.67 165.162C171.658 166.009 171.47 166.844 171.117 167.614C170.764 168.384 170.254 169.071 169.62 169.632C168.145 170.97 166.21 171.686 164.22 171.632C163.317 171.666 162.418 171.495 161.59 171.132C160.819 170.813 160.158 170.274 159.691 169.582C159.223 168.891 158.969 168.077 158.96 167.242C159.025 166.063 159.367 164.915 159.96 163.892C161.388 161.647 163.203 159.673 165.32 158.062C164.764 156.96 164.493 155.736 164.53 154.502C164.842 153.328 165.415 152.239 166.207 151.316C166.998 150.393 167.987 149.66 169.1 149.172C169.956 148.818 170.873 148.635 171.8 148.632C174.07 148.632 175.8 149.852 175.8 152.262C176.038 152.224 176.279 152.201 176.52 152.192C176.979 152.14 177.442 152.257 177.82 152.522C177.904 152.579 177.971 152.657 178.016 152.749C178.06 152.84 178.08 152.941 178.072 153.042C178.065 153.144 178.032 153.241 177.975 153.325C177.919 153.41 177.841 153.478 177.75 153.522C174.872 155.115 172.093 156.881 169.43 158.812C171.37 162.642 171.67 163.902 171.67 165.162ZM166.67 161.022C164.933 162.398 163.511 164.13 162.5 166.102C162.204 166.709 162.031 167.368 161.99 168.042C161.972 168.274 162.004 168.507 162.085 168.725C162.165 168.943 162.292 169.141 162.457 169.306C162.621 169.47 162.819 169.597 163.037 169.677C163.255 169.758 163.488 169.79 163.72 169.772C164.267 169.746 164.803 169.611 165.297 169.376C165.792 169.141 166.234 168.81 166.6 168.402C167.047 167.994 167.408 167.501 167.663 166.952C167.917 166.402 168.059 165.807 168.08 165.202C167.88 163.732 167.401 162.313 166.67 161.022V161.022ZM168.25 156.022C169.704 155.009 171.247 154.129 172.86 153.392C172.97 151.812 172.39 150.302 171.21 150.482C169.62 150.732 168.04 152.782 168.04 154.582C168.041 155.055 168.105 155.526 168.23 155.982L168.25 156.022Z" fill="#FF883E"></path><path d="M184.97 159.112C185.676 159.285 186.298 159.702 186.727 160.29C187.155 160.877 187.362 161.597 187.31 162.322C187.31 163.832 186.49 165.742 184.83 167.792C184.055 168.788 183.068 169.598 181.94 170.164C180.812 170.73 179.572 171.037 178.31 171.062C177.076 171.062 175.867 170.715 174.82 170.062C174.126 169.648 173.551 169.063 173.148 168.363C172.745 167.662 172.529 166.87 172.52 166.062C172.534 165.469 172.656 164.883 172.88 164.332C173.132 163.659 173.57 163.07 174.144 162.637C174.718 162.203 175.403 161.941 176.12 161.882C176.73 161.882 176.95 162.312 176.73 162.712C175.987 163.926 175.532 165.295 175.4 166.712C175.372 166.984 175.401 167.258 175.483 167.518C175.566 167.779 175.701 168.019 175.88 168.225C176.059 168.431 176.278 168.599 176.524 168.717C176.77 168.835 177.037 168.901 177.31 168.912C178.78 168.912 180.76 167.652 182.2 165.852C183.261 164.673 183.956 163.21 184.2 161.642C184.218 161.494 184.204 161.344 184.156 161.202C184.109 161.061 184.031 160.932 183.928 160.824C183.824 160.717 183.698 160.634 183.558 160.582C183.418 160.53 183.269 160.509 183.12 160.522C182.767 160.539 182.415 160.586 182.07 160.662C181.633 160.756 181.187 160.806 180.74 160.812C180.271 160.796 179.809 160.686 179.383 160.489C178.957 160.291 178.575 160.01 178.26 159.662C178.04 159.262 178.08 158.862 178.76 158.662C184.92 156.822 188.16 153.192 188.16 151.142C188.178 150.995 188.166 150.846 188.125 150.704C188.084 150.562 188.015 150.429 187.922 150.315C187.828 150.2 187.713 150.105 187.582 150.036C187.451 149.967 187.308 149.925 187.16 149.912C186.16 149.912 184.6 151.422 183.38 153.012C182.16 154.602 180.79 155.382 179.17 155.012C178.52 154.902 178.27 154.542 178.52 154.072C179.775 151.777 181.627 149.862 183.88 148.532C184.647 148.178 185.485 148.004 186.33 148.022C186.915 147.993 187.5 148.081 188.051 148.28C188.603 148.479 189.109 148.786 189.54 149.182C189.934 149.554 190.251 149.999 190.472 150.494C190.694 150.988 190.815 151.521 190.83 152.062C190.84 154.042 189.33 157.032 184.97 159.112Z" fill="#FF883E"></path><path d="M25.67 223.072C26.1306 223.194 26.5376 223.466 26.8272 223.844C27.1168 224.222 27.2726 224.686 27.27 225.162C27.27 227.102 25.27 228.162 23.11 228.162C22.2124 228.182 21.3236 227.983 20.52 227.582L20.73 225.582C21.5279 225.952 22.3913 226.159 23.27 226.192C24.13 226.192 24.75 225.822 24.75 225.192C24.75 224.562 23.87 224.012 22.4 224.092L22.12 222.582C23.78 222.262 24.65 221.902 24.65 221.212C24.65 220.522 24.07 220.292 23.3 220.282C22.476 220.304 21.6682 220.516 20.94 220.902L20.67 219.062C21.5678 218.497 22.6092 218.202 23.67 218.212C25.51 218.212 27.23 219.092 27.23 220.782C27.2261 221.276 27.0757 221.757 26.798 222.164C26.5202 222.572 26.1276 222.888 25.67 223.072V223.072Z" fill="#191919"></path><path d="M28.5498 218.402H30.9498V225.712H38.3698V227.992H28.5498V218.402Z" fill="#191919"></path><path d="M44.03 223.042L50.72 228.042H47.08L42.15 224.382H41.67V228.042H39.27V218.442H41.67V222.102H42.1L47.23 218.442H50.7L44.03 223.042Z" fill="#191919"></path><path d="M58.0902 220.512H57.2002C55.1302 220.512 54.1102 221.372 53.6802 222.432C54.3129 222.089 55.0204 221.907 55.7402 221.902C56.1313 221.877 56.5234 221.934 56.8915 222.069C57.2595 222.204 57.5954 222.414 57.8777 222.686C58.1599 222.958 58.3824 223.285 58.5309 223.648C58.6795 224.011 58.7507 224.401 58.7402 224.792C58.7402 226.852 57.0302 228.222 54.7402 228.222C52.3002 228.222 50.8602 226.632 50.8602 224.122C50.8521 223.347 50.9991 222.578 51.2923 221.86C51.5856 221.143 52.0193 220.491 52.568 219.943C53.1167 219.395 53.7693 218.963 54.4875 218.671C55.2056 218.379 55.9749 218.233 56.7502 218.242H57.3002L58.0902 220.512ZM53.3902 223.992C53.3902 225.312 53.9102 226.272 54.9302 226.272C55.1082 226.275 55.2849 226.242 55.4495 226.174C55.6142 226.106 55.7633 226.006 55.8877 225.878C56.0122 225.751 56.1094 225.6 56.1734 225.434C56.2375 225.268 56.267 225.09 56.2602 224.912C56.2602 224.112 55.5902 223.732 54.7602 223.732C54.292 223.74 53.8286 223.828 53.3902 223.992V223.992Z" fill="#191919"></path><path d="M62.6699 224.102V222.302H67.2899V224.102H62.6699Z" fill="#191919"></path><path d="M71.6001 223.892L72.0601 218.402H78.0601L77.8801 220.502H74.0801L73.9101 222.122C76.4301 222.242 78.2201 222.982 78.2201 224.992C78.2201 226.722 76.8401 228.182 74.2201 228.182C73.2404 228.187 72.2725 227.968 71.3901 227.542L71.5101 225.542C72.3269 225.963 73.2313 226.186 74.1501 226.192C75.4701 226.192 75.8401 225.722 75.8401 225.252C75.7901 224.362 74.3101 224.052 71.6001 223.892Z" fill="#191919"></path><path d="M86.0601 220.512H85.1801C83.1001 220.512 82.0801 221.372 81.6501 222.432C82.2828 222.089 82.9904 221.907 83.7101 221.902C84.1013 221.877 84.4934 221.934 84.8614 222.069C85.2295 222.204 85.5653 222.414 85.8476 222.686C86.1299 222.958 86.3524 223.285 86.5009 223.648C86.6494 224.011 86.7207 224.401 86.7101 224.792C86.7101 226.852 85.0001 228.222 82.7101 228.222C80.2601 228.222 78.8201 226.632 78.8201 224.122C78.8121 223.347 78.959 222.578 79.2523 221.86C79.5456 221.143 79.9793 220.491 80.528 219.943C81.0766 219.395 81.7292 218.963 82.4474 218.671C83.1656 218.379 83.9349 218.233 84.7101 218.242H85.2601L86.0601 220.512ZM81.3601 223.992C81.3601 225.312 81.8801 226.272 82.9001 226.272C83.0781 226.275 83.2548 226.242 83.4195 226.174C83.5841 226.106 83.7332 226.006 83.8577 225.878C83.9821 225.751 84.0794 225.6 84.1434 225.434C84.2074 225.268 84.237 225.09 84.2301 224.912C84.2301 224.112 83.5601 223.732 82.7301 223.732C82.262 223.74 81.7986 223.828 81.3601 223.992V223.992Z" fill="#191919"></path><path d="M87.7998 218.402H95.2098C95.9695 218.336 96.7288 218.535 97.3585 218.965C97.9882 219.395 98.4496 220.03 98.664 220.762C98.8785 221.494 98.8329 222.277 98.535 222.979C98.2371 223.681 97.7052 224.258 97.0298 224.612L98.7498 228.002H96.0498L94.7198 225.062H90.1898V228.002H87.7998V218.402ZM90.1898 220.562V223.022H94.8598C96.0298 223.022 96.2998 222.352 96.2998 221.742C96.2998 221.132 96.0298 220.562 94.8598 220.562H90.1898Z" fill="#191919"></path><path d="M103.26 218.212C106.03 218.212 107.26 220.312 107.26 223.212C107.26 226.112 106.07 228.212 103.26 228.212C100.45 228.212 99.2603 226.112 99.2603 223.212C99.2603 220.312 100.49 218.212 103.26 218.212ZM103.26 226.102C104.52 226.102 104.81 224.612 104.81 223.102C104.81 221.902 104.64 220.302 103.29 220.302C101.94 220.302 101.69 221.782 101.69 223.192C101.69 224.602 101.99 226.102 103.27 226.102H103.26Z" fill="#191919"></path><path d="M111.33 224.102V222.302H115.94V224.102H111.33Z" fill="#191919"></path><path d="M126.61 226.402V228.002H124.24V226.402H119.85V224.302L122.37 218.402H124.99L122.37 224.302H124.24V222.302H126.61V224.302H127.44V226.402H126.61Z" fill="#191919"></path><path d="M128.45 218.402H130.85V225.712H138.27V227.992H128.45V218.402Z" fill="#191919"></path><path d="M143.93 223.042L150.62 228.042H146.97L142.05 224.382H141.6V228.042H139.2V218.442H141.6V222.102H142.03L147.15 218.442H150.67L143.93 223.042Z" fill="#191919"></path><path d="M151.02 228.002V225.902H153.15V220.902L151.02 221.202V219.042L155.15 218.252H155.54V225.942H157.54V228.042L151.02 228.002Z" fill="#191919"></path><path d="M161.31 224.102V222.302H165.92V224.102H161.31Z" fill="#191919"></path><path d="M170.87 228.002L173.77 220.662H169.67L169.95 218.412H176.51L176.63 218.982L173.33 227.982L170.87 228.002Z" fill="#191919"></path><path d="M182.06 223.042L188.76 228.042H185.11L180.18 224.382H179.74V228.042H177.34V218.442H179.74V222.102H180.17L185.29 218.442H188.77L182.06 223.042Z" fill="#191919"></path><path d="M189.46 218.402H191.86V225.712H199.28V227.992H189.46V218.402Z" fill="#191919"></path><path d="M201.35 223.442C200.929 223.274 200.568 222.982 200.315 222.606C200.062 222.23 199.927 221.786 199.93 221.332C199.93 219.332 201.64 218.212 203.69 218.212C205.74 218.212 207.15 219.292 207.15 220.752C207.132 221.194 206.982 221.621 206.721 221.977C206.459 222.333 206.096 222.603 205.68 222.752C206.138 222.918 206.532 223.223 206.806 223.625C207.081 224.027 207.222 224.506 207.21 224.992C207.21 227.192 205.09 228.182 203.26 228.182C201.59 228.182 199.84 227.372 199.84 225.542C199.838 225.078 199.982 224.624 200.254 224.247C200.525 223.87 200.909 223.588 201.35 223.442V223.442ZM202.67 223.942C202.47 224.074 202.302 224.248 202.178 224.452C202.053 224.656 201.975 224.885 201.95 225.122C201.95 225.862 202.52 226.352 203.59 226.352C204.66 226.352 204.88 225.842 204.88 225.292C204.88 224.542 203.81 224.302 202.67 223.942ZM204.22 222.262C204.42 222.141 204.585 221.969 204.697 221.763C204.809 221.558 204.866 221.326 204.86 221.092C204.86 220.522 204.4 220.012 203.47 220.012C202.54 220.012 202.17 220.442 202.17 221.012C202.17 221.712 203.12 221.962 204.22 222.262Z" fill="#191919"></path><path d="M328.65 191.372L344.34 182.622" stroke="black" stroke-linecap="square"></path><path d="M328.61 200.502L338.69 198.752" stroke="black" stroke-linecap="square"></path><path d="M265.5 155.002C265.27 155.009 265.045 154.935 264.863 154.795C264.681 154.655 264.552 154.456 264.5 154.232C263.71 150.702 263.26 150.232 259.74 149.462C259.528 149.405 259.341 149.279 259.208 149.105C259.074 148.93 259.002 148.717 259.002 148.497C259.002 148.278 259.074 148.064 259.208 147.89C259.341 147.716 259.528 147.59 259.74 147.532C263.26 146.742 263.74 146.292 264.5 142.772C264.552 142.549 264.681 142.35 264.863 142.21C265.045 142.069 265.27 141.996 265.5 142.002C265.729 141.996 265.954 142.069 266.137 142.21C266.319 142.35 266.447 142.549 266.5 142.772C267.3 146.292 267.74 146.772 271.27 147.532C271.482 147.59 271.669 147.716 271.802 147.89C271.935 148.064 272.007 148.278 272.007 148.497C272.007 148.717 271.935 148.93 271.802 149.105C271.669 149.279 271.482 149.405 271.27 149.462C267.74 150.262 267.27 150.702 266.5 154.232C266.447 154.456 266.319 154.655 266.137 154.795C265.954 154.935 265.729 155.009 265.5 155.002Z" fill="#FF883E"></path><path d="M65.8799 65.9324C65.6767 65.9325 65.4797 65.8631 65.3214 65.7358C65.1632 65.6085 65.0532 65.4308 65.0099 65.2324C64.2899 61.9924 63.8799 61.5824 60.6899 60.8524C60.491 60.8048 60.3139 60.6916 60.1872 60.531C60.0606 60.3704 59.9917 60.1719 59.9917 59.9674C59.9917 59.7629 60.0606 59.5643 60.1872 59.4038C60.3139 59.2432 60.491 59.13 60.6899 59.0824C63.8799 58.3524 64.2899 57.9424 65.0099 54.7024C65.0527 54.5035 65.1625 54.3253 65.3208 54.1975C65.4791 54.0697 65.6764 54 65.8799 54C66.0833 54 66.2806 54.0697 66.4389 54.1975C66.5972 54.3253 66.707 54.5035 66.7499 54.7024C67.4699 57.9424 67.8799 58.3524 71.0699 59.0824C71.2688 59.13 71.4458 59.2432 71.5725 59.4038C71.6991 59.5643 71.768 59.7629 71.768 59.9674C71.768 60.1719 71.6991 60.3704 71.5725 60.531C71.4458 60.6916 71.2688 60.8048 71.0699 60.8524C67.8799 61.5824 67.4699 61.9924 66.7499 65.2324C66.7065 65.4308 66.5966 65.6085 66.4383 65.7358C66.28 65.8631 66.083 65.9325 65.8799 65.9324V65.9324Z" fill="white" stroke="#262626"></path><path d="M275.04 128.262C274.831 128.262 274.629 128.191 274.467 128.06C274.305 127.929 274.193 127.746 274.15 127.542C273.4 124.212 272.99 123.792 269.71 123.042C269.508 122.99 269.33 122.872 269.202 122.708C269.075 122.543 269.005 122.341 269.005 122.132C269.005 121.924 269.075 121.722 269.202 121.557C269.33 121.392 269.508 121.275 269.71 121.222C272.99 120.472 273.4 120.052 274.15 116.722C274.193 116.519 274.305 116.336 274.467 116.205C274.629 116.074 274.831 116.002 275.04 116.002C275.249 116.004 275.451 116.076 275.615 116.206C275.778 116.337 275.893 116.519 275.94 116.722C276.68 120.052 277.09 120.472 280.37 121.222C280.571 121.275 280.75 121.392 280.878 121.557C281.005 121.722 281.074 121.924 281.074 122.132C281.074 122.341 281.005 122.543 280.878 122.708C280.75 122.872 280.571 122.99 280.37 123.042C277.09 123.792 276.68 124.212 275.94 127.542C275.893 127.746 275.778 127.928 275.615 128.059C275.451 128.189 275.249 128.261 275.04 128.262Z" fill="white" stroke="#262626"></path><path d="M249.91 128.062C250.55 128.692 250.36 129.402 249.48 129.642L241.48 131.772C240.6 132.002 240.08 131.482 240.31 130.612L242.46 122.612C242.471 122.431 242.539 122.258 242.654 122.117C242.769 121.977 242.926 121.876 243.101 121.828C243.276 121.781 243.462 121.79 243.632 121.853C243.802 121.917 243.948 122.032 244.05 122.182L249.91 128.062Z" fill="#F24976" stroke="#101010"></path><path d="M309.67 68.2024C310.31 68.8424 310.12 69.5524 309.24 69.7924L301.24 71.9224C300.36 72.1524 299.84 71.6324 300.07 70.7624L302.22 62.7624C302.232 62.5811 302.3 62.4081 302.415 62.2674C302.53 62.1268 302.686 62.0257 302.861 61.9783C303.036 61.9309 303.222 61.9395 303.392 62.003C303.563 62.0665 303.709 62.1817 303.81 62.3324L309.67 68.2024Z" fill="#F24976" stroke="#101010"></path><path d="M243.67 79.2624C243.82 79.3632 243.935 79.5084 243.999 79.6777C244.063 79.847 244.072 80.032 244.026 80.207C243.98 80.3819 243.88 80.5381 243.741 80.6538C243.602 80.7695 243.43 80.8389 243.25 80.8524L235.25 83.0024C234.37 83.2424 233.85 82.7124 234.08 81.8424L236.23 73.8424C236.246 73.6625 236.318 73.492 236.435 73.3541C236.551 73.2163 236.708 73.1177 236.883 73.0719C237.057 73.026 237.242 73.035 237.411 73.0977C237.581 73.1604 237.727 73.2738 237.83 73.4224L243.67 79.2624Z" fill="#F24976" stroke="#242424"></path><path d="M78.6698 123.262C78.82 123.363 78.9351 123.508 78.999 123.678C79.0629 123.847 79.0724 124.032 79.0261 124.207C78.9799 124.382 78.8803 124.538 78.7412 124.654C78.602 124.769 78.4302 124.839 78.2498 124.852L70.2498 127.002C69.3698 127.242 68.8498 126.712 69.0798 125.842L71.2298 117.842C71.2463 117.662 71.3179 117.492 71.4347 117.354C71.5515 117.216 71.7079 117.118 71.8827 117.072C72.0574 117.026 72.2421 117.035 72.4115 117.098C72.581 117.16 72.727 117.274 72.8298 117.422L78.6698 123.262Z" fill="#FE3745" stroke="#242424"></path><path d="M103.67 103.222C103.822 103.321 103.939 103.465 104.004 103.635C104.07 103.804 104.08 103.989 104.033 104.165C103.986 104.34 103.886 104.496 103.745 104.611C103.604 104.725 103.431 104.792 103.25 104.802L95.2501 106.942C94.3801 107.172 93.8601 106.652 94.0901 105.782L96.2301 97.7824C96.2417 97.6011 96.3098 97.4281 96.4248 97.2874C96.5397 97.1468 96.6958 97.0457 96.8712 96.9983C97.0465 96.9509 97.2323 96.9595 97.4025 97.023C97.5726 97.0865 97.7187 97.2017 97.8201 97.3524L103.67 103.222Z" fill="#3DE892" stroke="#090909"></path><path d="M49.78 145.622C49.6786 145.773 49.5326 145.888 49.3624 145.952C49.1923 146.015 49.0065 146.024 48.8311 145.976C48.6558 145.929 48.4997 145.828 48.3847 145.687C48.2698 145.547 48.2017 145.374 48.19 145.192L46.05 137.192C45.82 136.322 46.34 135.802 47.21 136.032L55.21 138.172C55.3905 138.186 55.5623 138.255 55.7014 138.371C55.8406 138.487 55.9402 138.643 55.9864 138.818C56.0326 138.993 56.0231 139.178 55.9593 139.347C55.8954 139.516 55.7803 139.662 55.63 139.762L49.78 145.622Z" fill="white" stroke="#090909"></path><path d="M257 111.012C257 111.892 256.37 112.252 255.6 111.812L248.6 107.812C248.434 107.756 248.29 107.649 248.188 107.506C248.086 107.364 248.031 107.193 248.031 107.017C248.031 106.842 248.086 106.671 248.188 106.529C248.29 106.386 248.434 106.279 248.6 106.222L255.6 102.222C256.37 101.782 257 102.142 257 103.022V111.012Z" fill="#3DE892" stroke="#090909"></path><path d="M28.5397 67.8224C28.481 67.9169 28.4427 68.0227 28.4272 68.1329C28.4117 68.2431 28.4194 68.3553 28.4497 68.4624L31.4497 79.4624C31.6326 80.0906 31.9775 80.6596 32.4497 81.1124C32.8991 81.5888 33.4694 81.9345 34.0997 82.1124L43.0397 84.5524L45.4797 93.4924C45.651 94.1165 45.9817 94.6853 46.4393 95.1429C46.8969 95.6005 47.4657 95.9311 48.0897 96.1024L57.0297 98.5424L59.4697 107.482C59.5085 107.626 59.5844 107.757 59.6897 107.862C59.7955 107.97 59.9284 108.048 60.0745 108.086C60.2206 108.125 60.3744 108.124 60.5197 108.082L65.9797 106.622C66.1911 106.568 66.3727 106.433 66.485 106.246C66.5973 106.058 66.6313 105.834 66.5797 105.622L63.5797 94.6224C63.4143 93.9982 63.0866 93.4288 62.6299 92.9722C62.1733 92.5155 61.604 92.1879 60.9797 92.0224L51.9797 89.5824L49.5397 80.6324C49.3743 80.0082 49.0466 79.4388 48.5899 78.9822C48.1333 78.5256 47.564 78.1979 46.9397 78.0324L37.9397 75.5924L35.4997 66.5924C35.441 66.3837 35.3047 66.2054 35.1189 66.0939C34.933 65.9823 34.7115 65.946 34.4997 65.9924L29.0297 67.4524C28.8246 67.5076 28.649 67.6403 28.5397 67.8224V67.8224Z" fill="#FF883E" stroke="#090909"></path><path d="M323.13 91.0024H313.44C312.675 91.0022 311.93 91.2437 311.31 91.6924C310.69 92.1438 310.226 92.7761 309.98 93.5024L307.67 100.292H300.6C299.835 100.291 299.089 100.532 298.47 100.982C297.848 101.435 297.383 102.072 297.14 102.802L294.87 109.552H287.8C287.624 109.553 287.453 109.609 287.31 109.712C287.2 109.79 287.11 109.893 287.049 110.014C286.988 110.134 286.957 110.267 286.96 110.402V116.092C286.96 116.204 286.982 116.315 287.025 116.418C287.068 116.521 287.13 116.614 287.209 116.693C287.288 116.772 287.382 116.835 287.485 116.878C287.588 116.92 287.699 116.942 287.81 116.942H297.5C298.266 116.936 299.012 116.691 299.632 116.241C300.252 115.791 300.717 115.159 300.96 114.432L303.23 107.672H310.3C311.066 107.67 311.812 107.425 312.43 106.972C313.05 106.521 313.514 105.889 313.76 105.162L316.03 98.4024H323.1C323.279 98.3999 323.453 98.3442 323.6 98.2424L323.7 98.1524C323.859 97.9891 323.949 97.7704 323.95 97.5424V91.8624C323.953 91.7521 323.934 91.6423 323.894 91.5394C323.854 91.4364 323.794 91.3424 323.718 91.2625C323.642 91.1826 323.551 91.1185 323.45 91.0739C323.349 91.0293 323.24 91.005 323.13 91.0024Z" fill="#E05FFF" stroke="#090909"></path><path d="M34.9899 123.352C34.9511 123.153 34.8408 122.976 34.6799 122.852L27.5099 117.632C26.9476 117.223 26.2702 117.003 25.5749 117.003C24.8796 117.003 24.2022 117.223 23.6399 117.632L18.4199 121.442L13.1899 117.632C13.1087 117.572 13.016 117.528 12.9174 117.504C12.8188 117.48 12.7164 117.477 12.6164 117.493C12.5164 117.51 12.4208 117.547 12.3355 117.602C12.2501 117.657 12.1768 117.728 12.1199 117.812L9.11991 122.052C9.0034 122.224 8.95713 122.434 8.99061 122.638C9.0241 122.843 9.1348 123.027 9.29991 123.152L16.4599 128.362C17.0197 128.777 17.6981 129.001 18.3949 129.001C19.0917 129.001 19.7701 128.777 20.3299 128.362L25.5599 124.562L30.7899 128.362C30.9163 128.459 31.0708 128.512 31.2299 128.512C31.3539 128.513 31.4761 128.483 31.5859 128.426C31.6957 128.368 31.7898 128.285 31.8599 128.182L34.8599 123.942C34.9767 123.769 35.0232 123.558 34.9899 123.352V123.352Z" fill="#3DE892" stroke="#090909"></path><path d="M24 157.302C23.9974 157.487 23.9228 157.664 23.7921 157.795C23.6614 157.925 23.4848 158 23.3 158.002H17.67C17.4861 158 17.3106 157.925 17.1815 157.794C17.0523 157.663 16.98 157.486 16.98 157.302V151.712C16.98 151.529 17.0527 151.354 17.1821 151.224C17.3115 151.095 17.487 151.022 17.67 151.022H23.28C23.4639 151.022 23.6405 151.095 23.7715 151.224C23.9024 151.353 23.9774 151.528 23.98 151.712L24 157.302Z" fill="#3EB7FF" stroke="#090909"></path><path d="M83 88.3024C82.9974 88.4872 82.9228 88.6638 82.7921 88.7945C82.6614 88.9252 82.4848 88.9998 82.3 89.0024H76.67C76.4861 88.9998 76.3106 88.9249 76.1815 88.7939C76.0523 88.6629 75.98 88.4863 75.98 88.3024V82.7124C75.98 82.5294 76.0527 82.3539 76.1821 82.2245C76.3115 82.0951 76.487 82.0224 76.67 82.0224H82.28C82.4639 82.0224 82.6405 82.0948 82.7715 82.2239C82.9024 82.353 82.9774 82.5285 82.98 82.7124L83 88.3024Z" fill="#3DE892" stroke="#090909"></path><path d="M271 81.3024C270.997 81.4872 270.923 81.6638 270.792 81.7945C270.661 81.9252 270.485 81.9998 270.3 82.0024H264.67C264.486 81.9998 264.311 81.9249 264.181 81.7939C264.052 81.6629 263.98 81.4863 263.98 81.3024V75.7124C263.98 75.5294 264.053 75.3539 264.182 75.2245C264.311 75.0951 264.487 75.0224 264.67 75.0224H270.28C270.464 75.0224 270.64 75.0948 270.771 75.2239C270.902 75.353 270.977 75.5285 270.98 75.7124L271 81.3024Z" fill="#3EB7FF" stroke="#090909"></path><path d="M27 97.3024C26.9974 97.4872 26.9228 97.6638 26.7921 97.7945C26.6614 97.9252 26.4848 97.9998 26.3 98.0024H20.67C20.4861 97.9998 20.3106 97.9249 20.1815 97.7939C20.0523 97.6629 19.98 97.4863 19.98 97.3024V91.7124C19.98 91.5294 20.0527 91.3539 20.1821 91.2245C20.3115 91.0951 20.487 91.0224 20.67 91.0224H26.28C26.4639 91.0224 26.6405 91.0948 26.7715 91.2239C26.9024 91.353 26.9774 91.5285 26.98 91.7124L27 97.3024Z" fill="#FFAF10" stroke="#090909"></path><path d="M218.8 103.022C218.924 103.149 218.993 103.32 218.993 103.497C218.993 103.675 218.924 103.845 218.8 103.972L214.97 107.802C214.906 107.871 214.829 107.927 214.743 107.964C214.657 108.002 214.564 108.022 214.47 108.022C214.376 108.022 214.283 108.002 214.197 107.964C214.111 107.927 214.033 107.871 213.97 107.802L210.14 103.972C210.016 103.845 209.946 103.675 209.946 103.497C209.946 103.32 210.016 103.149 210.14 103.022L213.97 99.1924C214.033 99.1233 214.111 99.0682 214.197 99.0305C214.283 98.9927 214.376 98.9733 214.47 98.9733C214.564 98.9733 214.657 98.9927 214.743 99.0305C214.829 99.0682 214.906 99.1233 214.97 99.1924L218.8 103.022Z" fill="#6A96E5" stroke="#090909"></path></svg> 