<?xml version="1.0" encoding="UTF-8"?> <svg xmlns="http://www.w3.org/2000/svg" id="Layer_1" data-name="Layer 1" viewBox="0 0 616 550"><defs><style>.cls-1{fill:#211e15;}.cls-10,.cls-2{fill:#ff9c8f;}.cls-3,.cls-9{fill:#ffc4b0;}.cls-4{fill:#1c1c1c;}.cls-5{fill:#ff5050;}.cls-10,.cls-5,.cls-6,.cls-7,.cls-9{stroke:#211e15;}.cls-10,.cls-5,.cls-6,.cls-7,.cls-8,.cls-9{stroke-miterlimit:10;stroke-width:1.5px;}.cls-6{fill:#ff8d98;}.cls-12,.cls-7,.cls-8{fill:#fff;}.cls-8{stroke:#000;}.cls-11{isolation:isolate;}</style></defs><path class="cls-1" d="M518.93,407.12c19.37,11.19,19.46,29.39.22,40.57s-50.66,11.18-70,0-19.47-29.38-.23-40.56S499.55,395.94,518.93,407.12Zm-68.75,39.95c18.78,10.85,49.25,10.85,67.91,0s18.56-28.5-.22-39.34-49.26-10.85-67.92,0-18.55,28.49.23,39.33"></path><path class="cls-2" d="M517.87,407.74c18.78,10.84,18.88,28.49.22,39.34s-49.13,10.84-67.91,0-18.89-28.49-.23-39.33S499.08,396.89,517.87,407.74Z"></path><path class="cls-1" d="M518,402.27c19.37,11.18,19.47,29.38.23,40.56s-50.67,11.19-70,0-19.46-29.39-.22-40.57S498.65,391.08,518,402.27Zm-68.75,40c18.79,10.84,49.26,10.84,67.92,0s18.55-28.49-.23-39.34-49.25-10.84-67.91,0-18.56,28.49.22,39.34"></path><path class="cls-3" d="M517,402.88c18.78,10.85,18.89,28.49.23,39.34s-49.13,10.84-67.92,0-18.88-28.49-.22-39.34S498.18,392,517,402.88Z"></path><path class="cls-4" d="M503.46,408.55c6.6,3.82,6.7,10,.25,13.85l-2.41,4.22a2.5,2.5,0,0,1-2.52.73l-2.76-.59-5.45,1.91a4.76,4.76,0,0,1-3.68-.25l-3.15-1.82a1.53,1.53,0,0,0-1.41,0l-1,.58a8.83,8.83,0,0,1-.76,8.36l-.16.26c-.08.11-.12.18-.17.26s-.14.19-.19.26l-.39.5a42.27,42.27,0,0,1-15-4.89c-4.18-2.42-7.22-5.49-8.62-8.95a40.21,40.21,0,0,1,15.39-1.56l.61-.36,1.37-.79c-.11-.27-.2-.54-.28-.81-.28-.13-.56-.26-.82-.41-3.43-2-3.44-5.2,0-7.18a9.25,9.25,0,0,1,1.78-.79c-.34-1.22.3-2.51,1.91-3.44a10.5,10.5,0,0,1,6.41-1.07c6.58-2.09,15-1.51,20.63,1.72Z"></path><path class="cls-5" d="M348.54,182.47l-77.83-57.53a94.33,94.33,0,0,1-41-3.54l-203,99.41a20.27,20.27,0,0,1-2,23.84l82,57.41a95.66,95.66,0,0,1,40.93,3.66l203-99c-4.33-7.38-7.55-16.69-2.05-23.26"></path><path class="cls-6" d="M352.31,177.06l-81.82-57.53A94.32,94.32,0,0,1,229.44,116l-203,99.41a20.27,20.27,0,0,1-2,23.84l82,57.42a95.67,95.67,0,0,1,40.93,3.65l203-98.94a20.26,20.26,0,0,1,2-23.26"></path><path class="cls-6" d="M337.69,178.19,264.6,127.33c-12.61,1.69-22.1.25-34.24-3.56L39.66,216.38c4.21,6.85,3.32,14-2,20L112.56,287A88.06,88.06,0,0,1,150,290.31l185.85-90a18.35,18.35,0,0,1,1.78-21.17"></path><path class="cls-7" d="M101.2,213.13a31.72,31.72,0,0,0-8,5.22,12.94,12.94,0,0,0-3.73,5.59,8.42,8.42,0,0,0,.23,5.6,12.85,12.85,0,0,0,4,5.21l13.22-6.4a5.56,5.56,0,0,1-2.12-4.28c0-1.57,1.45-3,4.33-4.44a13.87,13.87,0,0,1,7.76-1.54,11.21,11.21,0,0,1,5.69,2c2,1.56,2.7,3.22,2.2,5s-2.29,3.35-5.28,4.8L115.1,232l7.78,6.13,4-1.94a24.55,24.55,0,0,1,11.25-2.84,13.9,13.9,0,0,1,8.42,2.77c2.35,1.85,3.35,3.79,3,5.79s-2.08,3.75-5.14,5.23a18.92,18.92,0,0,1-9.29,2,16.42,16.42,0,0,1-8.16-2.57L113.76,253A31.68,31.68,0,0,0,131,258.6a41.33,41.33,0,0,0,10.31-1,51.87,51.87,0,0,0,11.13-4,34.47,34.47,0,0,0,9.16-6.05,14.71,14.71,0,0,0,4-6.28,8.93,8.93,0,0,0-.41-6.05,14.11,14.11,0,0,0-4.32-5.33,23.15,23.15,0,0,0-11.71-4.68,34.15,34.15,0,0,0-13.87,1.22l-.21-.17a12,12,0,0,0,2.67-3,8.17,8.17,0,0,0,1.21-3.46,7.34,7.34,0,0,0-.63-3.61,9.3,9.3,0,0,0-2.85-3.43,19.88,19.88,0,0,0-6.52-3.33,28.3,28.3,0,0,0-8.24-1.14,41.38,41.38,0,0,0-9.46,1.21,49.36,49.36,0,0,0-10.06,3.65"></path><path class="cls-7" d="M171.29,181.19l-34.56,16.73,23.32,22.72c2.23-1.56,4.48-3,6.77-4.45a75.86,75.86,0,0,1,6.94-3.8,27.1,27.1,0,0,1,12.14-3.14,15,15,0,0,1,9.31,3.1c2.31,1.82,3.22,3.68,2.76,5.59s-2,3.47-4.43,4.67a16.1,16.1,0,0,1-8.18,1.84,15.59,15.59,0,0,1-6.59-1.89l-14.1,6.82a28.45,28.45,0,0,0,7.3,3.44,33.41,33.41,0,0,0,9,1.49,42.37,42.37,0,0,0,10.23-.9,46.74,46.74,0,0,0,10.91-3.8,28.28,28.28,0,0,0,8.53-5.92,14.37,14.37,0,0,0,3.64-6.53,10.34,10.34,0,0,0-.73-6.49,15.47,15.47,0,0,0-4.68-5.74,26.6,26.6,0,0,0-8.37-4.41,34.76,34.76,0,0,0-9.82-1.63A43.72,43.72,0,0,0,180.06,200a49.52,49.52,0,0,0-10.88,3.82c-.78.38-1.58.81-2.39,1.3s-1.46.9-1.95,1.26l-7.43-7.47L179.93,188l-8.64-6.8"></path><path class="cls-7" d="M279.23,184.65a10.65,10.65,0,0,1-6.54.82,17.08,17.08,0,0,1-7.64-3.77c-2.64-2.08-3.91-3.88-3.79-5.41a4.24,4.24,0,0,1,2.73-3.52,10.43,10.43,0,0,1,6.7-.81,17.34,17.34,0,0,1,7.26,3.59q4,3.18,3.93,5.52a4.1,4.1,0,0,1-2.65,3.58m-20.87-16.8a19.9,19.9,0,0,0-5,3.41,10,10,0,0,0-2.88,4.45,7.66,7.66,0,0,0,.36,5.13,14,14,0,0,0,4.62,5.51,26.12,26.12,0,0,0,7.9,4.36,28.28,28.28,0,0,0,8,1.46,29.07,29.07,0,0,0,7.49-.7,29.54,29.54,0,0,0,6.29-2.14,20.47,20.47,0,0,0,4.5-3,10.37,10.37,0,0,0,3.05-4.26,7.6,7.6,0,0,0-.15-5.28c-.69-1.92-2.41-4-5.14-6.11a24.33,24.33,0,0,0-7.66-4.16,29.48,29.48,0,0,0-7.87-1.41,28.75,28.75,0,0,0-7.4.65,28.3,28.3,0,0,0-6.14,2.08m-15.59-21.24-9.5,4.59,2.44,60.18,9.5-4.6-2.44-60.17m-28.31,38.7a10.79,10.79,0,0,1-6.63.87,17.19,17.19,0,0,1-7.64-3.77c-2.64-2.08-3.92-3.89-3.82-5.43a4.25,4.25,0,0,1,2.78-3.6,10.19,10.19,0,0,1,6.65-.74,17.59,17.59,0,0,1,7.29,3.62c2.69,2.12,4,4,4,5.5a4,4,0,0,1-2.61,3.55m-21-16.75a18.91,18.91,0,0,0-4.95,3.38,10,10,0,0,0-2.83,4.43,7.79,7.79,0,0,0,.31,5.16,13.44,13.44,0,0,0,4.57,5.53,25.48,25.48,0,0,0,8,4.33,29.94,29.94,0,0,0,8.12,1.47,29.27,29.27,0,0,0,7.52-.67,28.93,28.93,0,0,0,6.19-2.1,20.42,20.42,0,0,0,4.5-3,10,10,0,0,0,3-4.29,7.73,7.73,0,0,0-.21-5.34c-.72-1.94-2.42-4-5.11-6.08a24.69,24.69,0,0,0-7.7-4.19A28.6,28.6,0,0,0,207,165.8a29.41,29.41,0,0,0-7.36.68,28.3,28.3,0,0,0-6.14,2.08"></path><polygon class="cls-8" points="541.57 281.68 541.56 281.67 541.57 281.68 541.57 281.68"></polygon><path class="cls-8" d="M545.56,242.25a50,50,0,0,0,4.71,2.41l.11,30.07-8.59,6.77L541.68,240Z"></path><path class="cls-8" d="M545.83,147c22.78,13.16,41.36,45.34,41.29,71.52,0,14.24-5.59,23.89-14.31,27.61-6.19,2.65-14,2.3-22.54-1.51a50,50,0,0,1-4.71-2.41L541.68,240l.11,41.49L499.4,215.6,349.35,129C326.56,115.81,308,83.62,308.06,57.44c0-13.62,5.12-23,13.2-27.09,7.44-3.73,17.43-2.9,28.36,3.41Z"></path><path class="cls-8" d="M554.4,145.32c22.79,13.16,41.37,45.34,41.29,71.53-.05,18.48-9.38,29.23-22.88,29.32,8.72-3.72,14.27-13.37,14.31-27.61.07-26.18-18.51-58.36-41.29-71.52L349.62,33.76c-10.93-6.31-20.92-7.14-28.36-3.41,6.38-7,17.39-9,29.9-1.75Z"></path><path class="cls-5" d="M527.46,340.14,257.05,474.69a29.19,29.19,0,0,1-29.69-2.06L105.5,388.56a11.9,11.9,0,0,1,1.39-20.42l278-139.5a11.9,11.9,0,0,1,12.43,1l131.82,90.23A11.91,11.91,0,0,1,527.46,340.14Z"></path><path class="cls-5" d="M527.27,334.92,256.87,469.47a29.25,29.25,0,0,1-29.7-2.06L105.31,383.34a11.9,11.9,0,0,1,1.39-20.42l278-139.5a11.88,11.88,0,0,1,12.43,1L529,314.69A11.9,11.9,0,0,1,527.27,334.92Z"></path><path class="cls-5" d="M527.49,329.63,257.09,464.18a29.2,29.2,0,0,1-29.7-2.06L105.53,378.05a11.91,11.91,0,0,1,1.39-20.42l278-139.5a11.92,11.92,0,0,1,12.44,1L529.21,309.4A11.91,11.91,0,0,1,527.49,329.63Z"></path><path class="cls-5" d="M527.27,323.94,256.86,458.5a29.23,29.23,0,0,1-29.69-2.06L105.31,372.37A11.9,11.9,0,0,1,106.7,352l278-139.5a11.9,11.9,0,0,1,12.43,1L529,303.72A11.9,11.9,0,0,1,527.27,323.94Z"></path><path class="cls-6" d="M527.27,317.94,256.86,452.5a29.23,29.23,0,0,1-29.69-2.06L105.31,366.37A11.9,11.9,0,0,1,106.7,346l278-139.5a11.9,11.9,0,0,1,12.43,1L529,297.72A11.9,11.9,0,0,1,527.27,317.94Z"></path><polygon class="cls-9" points="270.88 444.89 118.71 339.92 180.6 308.87 338.76 411.78 270.88 444.89"></polygon><polygon class="cls-10" points="338.76 434.03 339 412 270 445 270.26 467.29 338.76 434.03"></polygon><g class="cls-11"><path d="M197,353l.57.3-.63.37-.52-.3-.5.32a29.68,29.68,0,0,0-20.61-2.85,34.15,34.15,0,0,0-9.42,3.35l-1.1-.59A16.78,16.78,0,0,0,170,348c2-4.23.17-8-5.56-11.35l-.67-.37-.56-.31,1.14-.66.53.28a29.58,29.58,0,0,0,20.64,2.83,34.06,34.06,0,0,0,9.37-3.34l1.09.59a16.75,16.75,0,0,0-5.18,5.67c-2,4.22-.16,8,5.59,11.36Zm-28.3-1.18c4.86-1.85,13.72-4.09,23.2-.95-6-5.28-2.74-10.54.14-13.47-4.87,1.85-13.72,4.09-23.19.95,6,5.27,2.73,10.54-.15,13.47"></path><path class="cls-12" d="M202.67,331.67c12.38,7.14,12.44,18.77.15,25.91s-32.36,7.14-44.73,0-12.44-18.77-.15-25.91S190.3,324.52,202.67,331.67Zm-6.26,21.72.52.3.63-.37L197,353l-.64-.36c-5.75-3.32-7.64-7.14-5.59-11.36a16.75,16.75,0,0,1,5.18-5.67l-1.09-.59a34.06,34.06,0,0,1-9.37,3.34,29.58,29.58,0,0,1-20.64-2.83l-.53-.28-1.14.66.56.31.67.37c5.73,3.31,7.61,7.12,5.56,11.35a16.78,16.78,0,0,1-5.18,5.66l1.1.59a34.15,34.15,0,0,1,9.42-3.35,29.68,29.68,0,0,1,20.61,2.85l.5-.32"></path></g><path d="M203.73,331.06c13,7.48,13,19.65.15,27.13s-33.89,7.49-46.85,0-13-19.65-.16-27.13S190.77,323.57,203.73,331.06Zm-45.64,26.52c12.37,7.14,32.44,7.14,44.73,0s12.23-18.77-.15-25.91-32.44-7.14-44.73,0-12.23,18.76.15,25.91"></path><polygon class="cls-12" points="388.37 222.4 448.93 263.63 377.96 298.58 317.39 257.35 388.37 222.4"></polygon><path d="M388.54,221.18l62.51,42.55L377.79,299.8l-62.52-42.55ZM378,298.58l71-34.95L388.37,222.4l-71,35L378,298.58"></path><path class="cls-4" d="M382.21,267.44l4.37-2.15,7.33,5-4.37,2.15,3.61,2.46-12.82,6.31-10.93-7.45,8.59-4.23L374.26,267l4.22-2.07Zm-.62,4.54-4.36,2.15,3.72,2.53,4.37-2.15L381.59,272"></path><polygon class="cls-4" points="382.85 262.75 387.08 260.67 390.81 263.21 386.58 265.29 382.85 262.75"></polygon><polygon class="cls-4" points="387.84 256.07 391.45 258.52 387.08 260.67 383.47 258.22 387.84 256.07"></polygon><polygon class="cls-4" points="368.81 248.24 372.42 250.69 368.19 252.78 364.59 250.32 368.81 248.24"></polygon><polygon class="cls-4" points="362.06 268.76 370.65 264.53 374.26 266.99 365.66 271.22 362.06 268.76"></polygon><polygon class="cls-4" points="397.52 272.74 393.92 270.28 398.14 268.2 401.75 270.66 397.52 272.74"></polygon><path class="cls-4" d="M371.16,259.91l3.72,2.54-4.23,2.08L366.93,262l-8.59,4.22-10.95-7.44,12.82-6.31,3.61,2.45,4.37-2.15,3.72,2.54,8.6-4.23-7.33-5L386,239.78l10.94,7.44-8.6,4.23,3.73,2.54-4.23,2.08-3.72-2.54-4.38,2.15,3.73,2.54-4.22,2.08-3.73-2.53ZM359,261.69l4.37-2.15L359.6,257l-4.37,2.14,3.72,2.54M384.73,249l4.37-2.15-3.73-2.54L381,246.46l3.72,2.54"></path><path class="cls-4" d="M406.11,268.5l-3.61-2.45-4.36,2.15-7.33-5L399.4,259l-7.33-5,8.58-4.23,3.61,2.45-4.36,2.15,3.73,2.54,4.36-2.15,10.94,7.44ZM403,261.43l3.73,2.54,4.36-2.15-3.72-2.54L403,261.43"></path><path class="cls-2" d="M449.55,436.72c18.79,10.85,18.88,28.49.22,39.34s-49.12,10.85-67.91,0-18.89-28.49-.22-39.34S430.76,425.88,449.55,436.72Z"></path><path class="cls-1" d="M450.6,436.11c19.38,11.18,19.48,29.38.23,40.57s-50.65,11.18-70,0-19.48-29.38-.23-40.56S431.23,424.92,450.6,436.11Zm-68.74,39.95c18.79,10.85,49.24,10.84,67.91,0s18.57-28.49-.22-39.34-49.25-10.84-67.91,0-18.57,28.49.22,39.34"></path><g class="cls-11"><path class="cls-3" d="M448.64,431.86c18.79,10.85,18.88,28.49.22,39.34s-49.13,10.85-67.91,0-18.88-28.49-.22-39.34S429.86,421,448.64,431.86Z"></path><path class="cls-1" d="M449.7,431.25c19.37,11.18,19.47,29.38.22,40.56s-50.65,11.19-70,0-19.48-29.38-.24-40.56S430.33,420.06,449.7,431.25ZM381,471.2c18.78,10.85,49.25,10.84,67.91,0s18.57-28.49-.22-39.34-49.25-10.84-67.91,0-18.57,28.5.22,39.34"></path></g><path class="cls-4" d="M434.15,439.53c6.6,3.81,6.69,10,.24,13.85L432,457.6a2.53,2.53,0,0,1-2.53.74l-2.76-.6-5.44,1.91a4.74,4.74,0,0,1-3.69-.26l-3.15-1.81a1.53,1.53,0,0,0-1.41,0l-1,.58a8.86,8.86,0,0,1-.77,8.36,2.94,2.94,0,0,1-.17.26l-.17.26c-.07.11-.14.18-.19.26a5.25,5.25,0,0,1-.39.51,42.09,42.09,0,0,1-15-4.9c-4.18-2.41-7.22-5.49-8.63-9a40.28,40.28,0,0,1,15.4-1.56l.61-.36,1.36-.79c-.11-.27-.19-.54-.27-.81A6.21,6.21,0,0,1,403,450c-3.43-2-3.46-5.19,0-7.17a9.83,9.83,0,0,1,1.77-.8c-.33-1.21.3-2.5,1.91-3.43a10.56,10.56,0,0,1,6.41-1.07c6.58-2.08,15-1.51,20.63,1.71Z"></path><path class="cls-2" d="M546.89,475.44c18.78,10.84,18.88,28.49.21,39.34s-49.12,10.84-67.9,0-18.89-28.49-.23-39.34S528.11,464.6,546.89,475.44Z"></path><path class="cls-1" d="M547.94,474.83c19.37,11.18,19.48,29.38.23,40.56s-50.66,11.19-70,0-19.48-29.38-.23-40.57S528.57,463.64,547.94,474.83ZM479.2,514.78c18.78,10.84,49.24,10.84,67.9,0s18.57-28.5-.21-39.34-49.25-10.84-67.92,0-18.56,28.49.23,39.34"></path><path class="cls-1" d="M547,470c19.38,11.18,19.48,29.38.23,40.56s-50.65,11.18-70,0S457.76,481.15,477,470,527.66,458.78,547,470Zm-68.74,39.95c18.78,10.84,49.25,10.84,67.91,0s18.57-28.5-.22-39.34-49.25-10.85-67.91,0-18.57,28.49.22,39.34"></path><ellipse class="cls-3" cx="512.13" cy="490.25" rx="27.82" ry="48.02" transform="translate(20.44 1000.99) rotate(-89.84)"></ellipse><path class="cls-4" d="M531.49,478.26c6.59,3.8,6.68,10,.24,13.84l-2.41,4.22a2.49,2.49,0,0,1-2.53.73l-2.75-.6-5.45,1.92a4.71,4.71,0,0,1-3.68-.26l-3.15-1.81a1.53,1.53,0,0,0-1.41,0l-1,.58a8.89,8.89,0,0,1-.77,8.36,2.94,2.94,0,0,1-.17.26,2,2,0,0,1-.17.26c-.08.11-.13.19-.19.26s-.26.35-.39.5a42.29,42.29,0,0,1-15-4.89c-4.19-2.42-7.23-5.5-8.63-8.95a40.23,40.23,0,0,1,15.39-1.56l.62-.36,1.36-.79c-.11-.27-.19-.54-.28-.81q-.42-.2-.81-.42c-3.43-2-3.45-5.19,0-7.17a9.93,9.93,0,0,1,1.78-.8c-.34-1.21.3-2.5,1.91-3.44a10.48,10.48,0,0,1,6.41-1.06c6.58-2.08,15-1.52,20.62,1.71Z"></path></svg> 