<?xml version="1.0" encoding="UTF-8"?> <svg xmlns="http://www.w3.org/2000/svg" xmlns:xlink="http://www.w3.org/1999/xlink" id="Layer_1" data-name="Layer 1" viewBox="0 0 649.12 199.79"><defs><style>.cls-1,.cls-2,.cls-3,.cls-4,.cls-5,.cls-6,.cls-7{stroke-miterlimit:10;}.cls-1{fill:url(#linear-gradient);stroke:url(#linear-gradient-2);}.cls-2{fill:url(#linear-gradient-3);stroke:url(#linear-gradient-4);}.cls-3{fill:url(#linear-gradient-5);stroke:url(#linear-gradient-6);}.cls-4{fill:url(#linear-gradient-7);stroke:url(#linear-gradient-8);}.cls-5{fill:url(#linear-gradient-9);stroke:url(#linear-gradient-10);}.cls-6{fill:url(#linear-gradient-11);stroke:url(#linear-gradient-12);}.cls-7{fill:url(#linear-gradient-13);stroke:url(#linear-gradient-14);}.cls-8{fill:#191919;}</style><linearGradient id="linear-gradient" x1="111.3" y1="119.87" x2="127.39" y2="119.87" gradientUnits="userSpaceOnUse"><stop offset="0"></stop><stop offset="1" stop-color="#191919"></stop></linearGradient><linearGradient id="linear-gradient-2" x1="110.8" y1="119.87" x2="127.89" y2="119.87" xlink:href="#linear-gradient"></linearGradient><linearGradient id="linear-gradient-3" x1="80.82" y1="119.87" x2="96.92" y2="119.87" xlink:href="#linear-gradient"></linearGradient><linearGradient id="linear-gradient-4" x1="80.32" y1="119.87" x2="97.42" y2="119.87" xlink:href="#linear-gradient"></linearGradient><linearGradient id="linear-gradient-5" x1="50.35" y1="119.87" x2="66.44" y2="119.87" xlink:href="#linear-gradient"></linearGradient><linearGradient id="linear-gradient-6" x1="49.85" y1="119.87" x2="66.94" y2="119.87" xlink:href="#linear-gradient"></linearGradient><linearGradient id="linear-gradient-7" x1="19.88" y1="119.87" x2="35.97" y2="119.87" xlink:href="#linear-gradient"></linearGradient><linearGradient id="linear-gradient-8" x1="19.38" y1="119.87" x2="36.47" y2="119.87" xlink:href="#linear-gradient"></linearGradient><linearGradient id="linear-gradient-9" x1="14.51" y1="88.54" x2="132.75" y2="88.54" xlink:href="#linear-gradient"></linearGradient><linearGradient id="linear-gradient-10" x1="14.01" y1="88.54" x2="133.25" y2="88.54" xlink:href="#linear-gradient"></linearGradient><linearGradient id="linear-gradient-11" x1="4.98" y1="156.57" x2="142.29" y2="156.57" xlink:href="#linear-gradient"></linearGradient><linearGradient id="linear-gradient-12" x1="4.48" y1="156.57" x2="142.79" y2="156.57" xlink:href="#linear-gradient"></linearGradient><linearGradient id="linear-gradient-13" x1="4.97" y1="52.55" x2="142.3" y2="52.55" xlink:href="#linear-gradient"></linearGradient><linearGradient id="linear-gradient-14" x1="4.47" y1="52.55" x2="142.8" y2="52.55" xlink:href="#linear-gradient"></linearGradient></defs><path class="cls-1" d="M111.3,100.61h16.09v38.53H111.3Z"></path><path class="cls-2" d="M80.82,100.61h16.1v38.53H80.82Z"></path><path class="cls-3" d="M50.35,100.61H66.44v38.53H50.35Z"></path><path class="cls-4" d="M19.88,100.61H36v38.53H19.88Z"></path><path class="cls-5" d="M132.75,88.54v-4H14.51v4a4,4,0,0,0,4,4H128.73A4,4,0,0,0,132.75,88.54Z"></path><path class="cls-6" d="M138.27,147.18H9a4,4,0,0,0-4,4v10.72a4,4,0,0,0,4,4H138.27a4,4,0,0,0,4-4V151.21A4,4,0,0,0,138.27,147.18Z"></path><path class="cls-7" d="M9,76.47H138.27A4,4,0,0,0,140.38,69L75.74,29.23a4,4,0,0,0-4.22,0L6.89,69A4,4,0,0,0,9,76.47Z"></path><path class="cls-8" d="M167.66,79.15H182a31.38,31.38,0,0,1,7.33.79A16.81,16.81,0,0,1,195,82.38a11.3,11.3,0,0,1,3.65,4.1A12.24,12.24,0,0,1,200,92.22a10.58,10.58,0,0,1-.72,4,10.42,10.42,0,0,1-2,3.15,11.75,11.75,0,0,1-3,2.32,14.56,14.56,0,0,1-3.61,1.41v.15a14.74,14.74,0,0,1,5.21,1.59,13.93,13.93,0,0,1,3.76,2.93,11.59,11.59,0,0,1,2.28,3.88,13.2,13.2,0,0,1,.76,4.44,14.22,14.22,0,0,1-1.37,6.35,13.26,13.26,0,0,1-3.8,4.67,17.13,17.13,0,0,1-5.74,2.89,24.87,24.87,0,0,1-7.18,1h-17Zm21.59,14.13a5.27,5.27,0,0,0-2.05-4.44,9.24,9.24,0,0,0-5.7-1.56h-3.58V99.82h4q3.87,0,5.62-1.75A6.48,6.48,0,0,0,189.25,93.28Zm2.51,21.89a6.87,6.87,0,0,0-2.25-5.32q-2.23-2.05-6.42-2h-5.17v15h5.63q4,0,6.12-2A7.36,7.36,0,0,0,191.76,115.17Z"></path><path class="cls-8" d="M244.35,131h-9.88v-4.56h-.31a15.67,15.67,0,0,1-4.56,4.06,13.85,13.85,0,0,1-7.29,1.71,15.71,15.71,0,0,1-5.59-1.1,15.35,15.35,0,0,1-5.36-3.46,18.61,18.61,0,0,1-4-6,22.26,22.26,0,0,1-1.59-8.85,21.44,21.44,0,0,1,1.4-7.94,18.81,18.81,0,0,1,3.8-6,16.57,16.57,0,0,1,12.13-5.16,13.79,13.79,0,0,1,3.83.49A13.64,13.64,0,0,1,230,95.37a11.69,11.69,0,0,1,2.4,1.83,16.07,16.07,0,0,1,1.78,2.09h.31V94.57h9.88Zm-28.2-18.17a13.45,13.45,0,0,0,.57,3.88,10.36,10.36,0,0,0,1.71,3.38,8.15,8.15,0,0,0,2.89,2.36,9.28,9.28,0,0,0,4.18.87,8.08,8.08,0,0,0,3.46-.76,8.78,8.78,0,0,0,2.88-2.13,10.48,10.48,0,0,0,2-3.3,11.6,11.6,0,0,0,.76-4.22,13.06,13.06,0,0,0-.69-4.33,9.77,9.77,0,0,0-1.9-3.35,8.57,8.57,0,0,0-6.46-2.88,8.62,8.62,0,0,0-7.1,3.3,10,10,0,0,0-1.75,3.35A13,13,0,0,0,216.15,112.81Z"></path><path class="cls-8" d="M252,94.57h10.11v4.56h.3a11.26,11.26,0,0,1,4.75-4.37,14.24,14.24,0,0,1,6.05-1.33,13.14,13.14,0,0,1,10,4.15q3.87,4.14,3.87,12.5V131H276.87V110.76c0-2.73-.6-4.8-1.82-6.19a6.33,6.33,0,0,0-5-2.09,7.22,7.22,0,0,0-5.58,2.35c-1.45,1.58-2.17,3.88-2.17,6.92V131H252Z"></path><path class="cls-8" d="M306.89,116l-2.35,2.28V131H294.28V76.26h10.26v30.63l11.55-12.32h12.46l-14.59,15L330.76,131H318.37Z"></path><path class="cls-8" d="M350.67,79.15h16.57a29.37,29.37,0,0,1,7.75,1,17.65,17.65,0,0,1,6.19,3,14.47,14.47,0,0,1,4.14,5.21,16.79,16.79,0,0,1,1.52,7.41q0,7.83-4.9,12.35t-15.08,4.52h-5.32V131H350.67ZM375.9,95.94a9.69,9.69,0,0,0-.49-3.08,6.83,6.83,0,0,0-1.56-2.58,7.52,7.52,0,0,0-2.78-1.75,11.5,11.5,0,0,0-4.06-.64h-5.47v16h5.24a12.57,12.57,0,0,0,4.48-.68,7.43,7.43,0,0,0,2.78-1.79,6.25,6.25,0,0,0,1.44-2.54A10.6,10.6,0,0,0,375.9,95.94Z"></path><path class="cls-8" d="M427.35,131h-9.88v-4.56h-.3a15.93,15.93,0,0,1-4.56,4.06,13.91,13.91,0,0,1-7.3,1.71,15.7,15.7,0,0,1-5.58-1.1,15.26,15.26,0,0,1-5.36-3.46,18.45,18.45,0,0,1-4-6,22.25,22.25,0,0,1-1.6-8.85,21.23,21.23,0,0,1,1.41-7.94,18.64,18.64,0,0,1,3.8-6,16.44,16.44,0,0,1,5.51-3.83,16.61,16.61,0,0,1,6.61-1.33,13.81,13.81,0,0,1,3.84.49A13.64,13.64,0,0,1,413,95.37a11.36,11.36,0,0,1,2.39,1.83,16.18,16.18,0,0,1,1.79,2.09h.3V94.57h9.88Zm-28.19-18.17a13.45,13.45,0,0,0,.57,3.88,10.36,10.36,0,0,0,1.71,3.38,8.2,8.2,0,0,0,2.88,2.36,9.31,9.31,0,0,0,4.18.87,8.05,8.05,0,0,0,3.46-.76,8.92,8.92,0,0,0,2.89-2.13,10.28,10.28,0,0,0,2-3.3,11.39,11.39,0,0,0,.76-4.22,13.06,13.06,0,0,0-.68-4.33,9.94,9.94,0,0,0-1.9-3.35,8.61,8.61,0,0,0-6.46-2.88,8.89,8.89,0,0,0-4.18.91,9,9,0,0,0-2.93,2.39,10.19,10.19,0,0,0-1.74,3.35A13,13,0,0,0,399.16,112.81Z"></path><path class="cls-8" d="M446.43,148.84H436.7l6.69-18.17-13.23-36.1H440.8l5.25,15.81c.4,1.32.85,2.78,1.33,4.37a38.55,38.55,0,0,1,1.1,4.6h.3c.36-1.77.71-3.31,1.07-4.6s.78-2.75,1.29-4.37l5.09-15.81h10.11Z"></path><path class="cls-8" d="M468.62,94.57h10.11v4.56h.15a14.94,14.94,0,0,1,4.41-4.06,12.55,12.55,0,0,1,13,.38,11,11,0,0,1,3.84,4.52A11.39,11.39,0,0,1,502,97.58a12.14,12.14,0,0,1,2.7-2.09A16.35,16.35,0,0,1,508.06,94a13,13,0,0,1,3.88-.57,12.72,12.72,0,0,1,10,4.22q3.72,4.21,3.72,12.43V131H515.43v-20.6a12.59,12.59,0,0,0-.34-3,7.49,7.49,0,0,0-1.1-2.51,5.44,5.44,0,0,0-4.71-2.39,6.7,6.7,0,0,0-2.62.53,6,6,0,0,0-2.21,1.63,9,9,0,0,0-1.56,2.78,12,12,0,0,0-.6,4V131H492v-20.6a9.37,9.37,0,0,0-1.64-5.66,5.3,5.3,0,0,0-4.52-2.24,6.22,6.22,0,0,0-5.09,2.32q-1.9,2.31-1.9,6.65V131H468.62Z"></path><path class="cls-8" d="M549.1,93.36A19.1,19.1,0,0,1,557,94.92a17.16,17.16,0,0,1,5.82,4.18,17.68,17.68,0,0,1,3.57,6.11,22.15,22.15,0,0,1,1.22,7.3v1.29a7.56,7.56,0,0,1-.16,1.45h-27a8.51,8.51,0,0,0,.76,3.57,10.4,10.4,0,0,0,2,3,9.39,9.39,0,0,0,3,2,8.88,8.88,0,0,0,3.68.76,8.58,8.58,0,0,0,4.3-1,9.25,9.25,0,0,0,3-2.78h10a21.74,21.74,0,0,1-2.35,4.37,16,16,0,0,1-3.57,3.69,16.88,16.88,0,0,1-5,2.51,21,21,0,0,1-6.42.91,20.4,20.4,0,0,1-7.64-1.41,18,18,0,0,1-6.16-4,18.81,18.81,0,0,1-4.1-6.24,21.05,21.05,0,0,1-1.48-8.09,21.57,21.57,0,0,1,1.25-7.37A18,18,0,0,1,535.31,99a17,17,0,0,1,5.85-4.14A19.59,19.59,0,0,1,549.1,93.36ZM549,100.5a8.65,8.65,0,0,0-3.42.65,8,8,0,0,0-2.59,1.71,8.4,8.4,0,0,0-1.71,2.47,9.14,9.14,0,0,0-.8,2.92h17a9.22,9.22,0,0,0-2.62-5.47A7.9,7.9,0,0,0,549,100.5Z"></path><path class="cls-8" d="M573,94.57h10.11v4.56h.31a11.2,11.2,0,0,1,4.75-4.37,14.2,14.2,0,0,1,6-1.33,13.12,13.12,0,0,1,10,4.15q3.87,4.14,3.88,12.5V131H597.82V110.76c0-2.73-.61-4.8-1.83-6.19a6.31,6.31,0,0,0-5-2.09,7.24,7.24,0,0,0-5.59,2.35c-1.44,1.58-2.17,3.88-2.17,6.92V131H573Z"></path><path class="cls-8" d="M611.34,94.57h4.41V83h10.34V94.57h8.59v8.67h-8.59v14.13c0,2.13.35,3.56,1.06,4.3a4.74,4.74,0,0,0,3.5,1.1,17.79,17.79,0,0,0,2.24-.15,12.39,12.39,0,0,0,2.17-.46v8.36a23.82,23.82,0,0,1-3.58.72,26.43,26.43,0,0,1-3.57.27,15.74,15.74,0,0,1-5.74-.91,9.27,9.27,0,0,1-3.76-2.62,10.06,10.06,0,0,1-2-4.15,22,22,0,0,1-.61-5.39v-15.2h-4.41Z"></path></svg> 