<?xml version="1.0" encoding="UTF-8"?> <svg xmlns="http://www.w3.org/2000/svg" id="Layer_1" data-name="Layer 1" viewBox="0 0 649.12 199.79"><defs><style>.cls-1,.cls-2{fill-rule:evenodd;}.cls-2{fill:#ff5f00;}</style></defs><path class="cls-1" d="M85.48,59.28H107.4a82.11,82.11,0,0,1,11.89.93c19.32,2.79,34.55,13,34.55,40.13,0,26.94-15.23,37.33-34.55,39.94a82.69,82.69,0,0,1-11.89.74H85.48ZM530.94,94c6.13-.74,11.14-3.34,11.14-11.15,0-7.43-5-9.47-11.14-10.4H519.79V94.39H525A58.82,58.82,0,0,0,530.94,94Zm0-34.55C545.43,60,558.8,63,558.8,81.58c0,9.66-6.13,17.64-16.34,18.94,4.27.56,6.87,4.83,8.36,8.55l12.82,32H545.8l-9.66-25.64c-1.48-3.71-2.78-5.94-5.2-7.24a12.54,12.54,0,0,0-6-1.12h-5.2v34h-16V59.28h17.27c3.16,0,6.69,0,9.85.19ZM382.14,83.8a45,45,0,0,1,2.79,16.35,47.19,47.19,0,0,1-2.79,16.35c-5.76,15.78-19.69,26-38.82,26-25.63,0-42-17.46-42-42.35,0-25.08,16.72-42.17,42-42.17C362.45,58,376.38,68,382.14,83.8Zm0-17.27L410.38,141h5.94l31.4-81.74H431l-16.72,43.1-17.83-43.1H379.36Zm69.66-7.25h47.56V72.47H468V92.53h28.61v12.63H468v23h31.58V141H451.81V59.28ZM119.29,73.77a27.57,27.57,0,0,0-8.73-1.3h-9.1V128.2h9.1a28,28,0,0,0,8.73-1.48c9.85-3.54,17.84-12.64,17.84-26.38s-8-23.22-17.84-26.57Zm40.87-14.49h16.16V141H160.16V59.28Zm68,21.74c-5.57-3.53-11.52-7.06-17.83-7.8-5.76-.75-11.89.92-11.89,9.1,0,14.11,35.29,8.17,35.29,35.48,0,17.83-14.11,26.56-30.27,24.7-8.74-.93-13.75-3.53-20.62-8.17V117.61c5.39,3,13.37,8.73,19.69,9.85,6.87,1.11,14.3-.94,14.3-8.36,0-15.79-35.11-9.29-35.11-36.23,0-18.2,13.75-24.89,27.87-24.89a27.08,27.08,0,0,1,18.57,7.43V81Zm69.1,51.82c-4.09,5.21-13.75,8.18-20.25,8.73-25.08,1.68-41.79-12.25-41.79-39.93,0-27.87,14.67-44.21,41.79-42.72,5.39.18,14.12,2,19.88,6.87v15.6C290,77.12,283,74.15,277,74c-16.53-.56-25.08,9.85-25.08,26.56s8,26,25.08,25.27c6.69-.19,16.72-5.57,20.25-8.54Z"></path><path class="cls-2" d="M382.14,83.9a45,45,0,0,1,2.79,16.35,47.13,47.13,0,0,1-2.79,16.34c-5.76,15.79-19.69,26-38.82,26-25.63,0-42-17.47-42-42.36,0-25.08,16.72-42.16,42-42.16C362.45,58.08,376.38,68.11,382.14,83.9Z"></path></svg> 