<?xml version="1.0" encoding="UTF-8"?> <svg xmlns="http://www.w3.org/2000/svg" id="Layer_1" data-name="Layer 1" viewBox="0 0 649.12 199.79"><defs><style>.cls-1{fill:#253b80;}.cls-2{fill:#179bd7;}.cls-3{fill:#222d65;}</style></defs><path class="cls-1" d="M230,53.78H193.67a5,5,0,0,0-5,4.26L174,151.22a3,3,0,0,0,2.53,3.46,2.42,2.42,0,0,0,.47,0h17.35a5.06,5.06,0,0,0,5-4.27l4-25.13a5,5,0,0,1,5-4.27h11.51c23.94,0,37.75-11.58,41.36-34.54,1.63-10,.07-17.93-4.63-23.45C251.33,57,242.17,53.78,230,53.78Zm4.19,34c-2,13-11.95,13-21.58,13h-5.49L211,76.5a3,3,0,0,1,3-2.56h2.51c6.57,0,12.76,0,16,3.74C234.34,79.92,234.93,83.23,234.2,87.81Zm104.43-.42h-17.4a3,3,0,0,0-3,2.56l-.77,4.86-1.22-1.76c-3.76-5.47-12.17-7.3-20.55-7.3-19.23,0-35.65,14.57-38.85,35-1.67,10.19.7,19.94,6.48,26.73,5.3,6.25,12.89,8.86,21.92,8.86a33.28,33.28,0,0,0,24.08-10l-.77,4.84a3,3,0,0,0,2.51,3.47l.47,0h15.68a5,5,0,0,0,5-4.26l9.4-59.56a3,3,0,0,0-2.5-3.46A2.59,2.59,0,0,0,338.63,87.39Zm-24.25,33.87a19.4,19.4,0,0,1-19.64,16.62c-5.05,0-9.09-1.62-11.68-4.7s-3.55-7.39-2.73-12.22a19.47,19.47,0,0,1,19.5-16.75c4.94,0,9,1.64,11.6,4.74S315.14,116.45,314.38,121.26ZM431.31,87.39H413.83a5.07,5.07,0,0,0-4.19,2.22l-24.11,35.52L375.3,91a5.06,5.06,0,0,0-4.84-3.6H353.27a3,3,0,0,0-3,3,2.78,2.78,0,0,0,.16,1l19.26,56.52-18.11,25.57a3,3,0,0,0,.72,4.22,3,3,0,0,0,1.75.56h17.47a5.07,5.07,0,0,0,4.15-2.17L433.8,92.15a3,3,0,0,0-2.49-4.76Z"></path><path class="cls-2" d="M489.21,53.78H452.87a5.05,5.05,0,0,0-5,4.26l-14.7,93.18a3,3,0,0,0,2.52,3.46,2.42,2.42,0,0,0,.47,0h18.65a3.54,3.54,0,0,0,3.49-3l4.17-26.41a5,5,0,0,1,5-4.27H479c23.94,0,37.75-11.58,41.37-34.54,1.63-10,.06-17.93-4.64-23.45C510.53,57,501.37,53.78,489.21,53.78Zm4.19,34c-2,13-11.94,13-21.58,13h-5.48l3.85-24.35a3,3,0,0,1,3-2.56h2.51c6.56,0,12.76,0,15.95,3.74C493.55,79.92,494.13,83.23,493.4,87.81Zm104.43-.42H580.44a3,3,0,0,0-3,2.56l-.77,4.86-1.22-1.76c-3.77-5.47-12.16-7.3-20.55-7.3-19.23,0-35.65,14.57-38.84,35-1.66,10.19.69,19.94,6.47,26.73,5.32,6.25,12.89,8.86,21.92,8.86a33.28,33.28,0,0,0,24.09-10l-.78,4.84a3,3,0,0,0,2.52,3.47,2.58,2.58,0,0,0,.48,0h15.67a5,5,0,0,0,5-4.26l9.41-59.56a3,3,0,0,0-2.53-3.46A2.49,2.49,0,0,0,597.83,87.39Zm-24.26,33.87a19.38,19.38,0,0,1-19.63,16.62c-5,0-9.09-1.62-11.68-4.7s-3.54-7.39-2.73-12.22A19.48,19.48,0,0,1,559,104.21c4.94,0,9,1.64,11.6,4.74S574.35,116.45,573.57,121.26Zm44.78-64.93-14.92,94.89a3,3,0,0,0,2.52,3.46,2.42,2.42,0,0,0,.47,0h15a5,5,0,0,0,5-4.27l14.71-93.18a3,3,0,0,0-2.52-3.46,2.42,2.42,0,0,0-.47,0H621.33A3,3,0,0,0,618.35,56.33Z"></path><path class="cls-1" d="M42.61,176.83l2.78-17.65L39.2,159H9.64L30.18,28.78a1.68,1.68,0,0,1,1.67-1.42H81.69c16.55,0,28,3.44,33.93,10.24a23.34,23.34,0,0,1,5.43,10.18c.91,3.85.92,8.45,0,14l-.06.41v3.59l2.79,1.59a19.55,19.55,0,0,1,5.66,4.31A20.08,20.08,0,0,1,134.07,82,43.54,43.54,0,0,1,133.42,97a52.73,52.73,0,0,1-6.12,16.91,34.83,34.83,0,0,1-9.7,10.63,39.13,39.13,0,0,1-13.06,5.89,64.86,64.86,0,0,1-16.32,1.89H84.34a11.66,11.66,0,0,0-11.54,9.85l-.29,1.59L67.6,174.84,67.38,176a1,1,0,0,1-.31.66.83.83,0,0,1-.51.19Z"></path><path class="cls-2" d="M126.47,62.66c-.15,1-.32,1.92-.51,2.92C119.39,99.32,96.9,111,68.18,111H53.55a7.09,7.09,0,0,0-7,6l-7.49,47.48-2.12,13.46a3.71,3.71,0,0,0,3.69,4.32H66.56A6.23,6.23,0,0,0,72.72,177l.26-1.31,4.88-31,.31-1.7a6.24,6.24,0,0,1,6.17-5.27h3.88c25.12,0,44.79-10.21,50.54-39.73,2.41-12.33,1.16-22.63-5.19-29.87A24.73,24.73,0,0,0,126.47,62.66Z"></path><path class="cls-3" d="M119.59,59.91a53.58,53.58,0,0,0-6.39-1.42,81.79,81.79,0,0,0-12.89-.94H61.24a6.22,6.22,0,0,0-6.15,5.28l-8.32,52.63L46.54,117a7.1,7.1,0,0,1,7-6H68.18c28.72,0,51.21-11.66,57.78-45.4.19-1,.36-2,.51-2.92a34.24,34.24,0,0,0-5.41-2.28C120.58,60.21,120.09,60.06,119.59,59.91Z"></path><path class="cls-1" d="M55.09,62.83a6.2,6.2,0,0,1,6.15-5.27h39.07a80.89,80.89,0,0,1,12.89.94,51.79,51.79,0,0,1,7.87,1.88,34.75,34.75,0,0,1,5.4,2.28c2-12.48,0-21-6.76-28.66-7.43-8.46-20.85-12.08-38-12.08H31.85a7.13,7.13,0,0,0-7,6L4.05,159.53a4.29,4.29,0,0,0,3.56,4.9,5,5,0,0,0,.67,0H39.05l7.72-49Z"></path></svg> 