<?xml version="1.0" encoding="UTF-8"?> <svg xmlns="http://www.w3.org/2000/svg" id="Layer_1" data-name="Layer 1" viewBox="0 0 649.12 199.79"><defs><style>.cls-1{fill:#179bd7;}.cls-2{fill:#ccffde;stroke:#a3e2c6;stroke-miterlimit:10;stroke-width:1.5px;}.cls-3{fill:#232323;}</style></defs><path class="cls-1" d="M154.48,56.9c3.43,5.72,4.66,11.45,4.66,18.32,0,22.91-19.47,53.91-35.5,74.53H86.91L72,61.56l33.21-2.29,8,63.07c6.87-11.45,16.11-31,16.11-43.52,0-6.87-1.14-11.45-3.43-16.11Zm42.37,39c5.73,0,20.62-2.29,20.62-11.45,0-4.67-2.29-5.73-5.73-5.73C205,78.74,196.85,85.61,196.85,95.92Zm-1.06,17.18c0,10.39,5.73,14.89,13.74,14.89s16.12-2.29,26.34-6.87l-4.66,25.19c-6.87,3.44-18.32,5.73-29.78,5.73-27.4,0-37.79-17.18-37.79-37.8,0-27.4,16.12-56.11,49.25-56.11,18.32,0,28.63,10.38,28.63,25.19,1.31,21.76-28.63,29.78-45.73,29.78ZM335.51,77.51c0,3.44,0,8-1.14,11.46l-9.16,60.69H294.28l9.25-56.11c0-1.15,1.14-4.67,1.14-5.73,0-4.66-2.29-4.66-5.72-4.66-4.67,0-8,2.29-10.39,3.43L277.1,149.66h-31L259.84,58h27.33v6.87c6.87-4.66,14.88-9.16,26.34-9.16C329.79,58.13,335.51,66.06,335.51,77.51Zm92.77-10.22c9.16-6.87,17.18-10.39,28.63-10.39,16.12,0,21.84,8,21.84,20.61,0,3.44,0,8-1.14,11.46l-9.08,60.78h-31l9.17-57.27V87.82c0-4.66-2.29-5.73-5.73-5.73s-8,1.15-10.39,3.44l-10.23,64.13h-31L398.5,92.4V87.74c0-4.66-2.29-5.73-5.72-5.73-4.67,0-8,2.29-10.39,3.44L372.08,149.5h-31L354.9,57.88h26.34l1.15,8a42,42,0,0,1,26.34-9.17c9.32,1.4,16.11,4.83,19.55,10.56ZM540.6,94.77c0-8-2.29-12.59-8-12.59-12.6,0-14.89,21.84-14.89,33.21,0,8,2.29,13.74,8,13.74,12.6-1.14,14.89-24,14.89-34.36ZM486.77,113.1c0-28.63,14.89-56.12,50.39-56.12,26.34,0,35.51,16.12,35.51,36.73,0,28.63-14.89,57.26-50.4,57.26-26.34,1.07-35.5-16.11-35.5-37.87Z"></path><rect class="cls-2" x="411.66" y="26.96" width="201.46" height="56.58" rx="12"></rect><path class="cls-3" d="M429.76,55.28c0-2.94.11-3.92.53-5.15,1-3.11,3.44-4.68,6.78-4.68a6.7,6.7,0,0,1,6.63,4.23.22.22,0,0,1-.14.34l-3.05,1.37a.27.27,0,0,1-.39-.14,3.16,3.16,0,0,0-3-2.16,2.8,2.8,0,0,0-2.85,2.1c-.23.7-.31,1.37-.31,4.09s.08,3.39.31,4.09a2.8,2.8,0,0,0,2.85,2.1,3.16,3.16,0,0,0,3-2.16.27.27,0,0,1,.39-.14l3.05,1.37a.22.22,0,0,1,.14.34,6.7,6.7,0,0,1-6.63,4.23c-3.34,0-5.77-1.57-6.78-4.68C429.87,59.2,429.76,58.22,429.76,55.28Z"></path><path class="cls-3" d="M445.69,60.49a15.44,15.44,0,0,1-.53-5.21,15.44,15.44,0,0,1,.53-5.21c1-3.08,3.61-4.62,6.94-4.62s6,1.54,6.95,4.62a15.44,15.44,0,0,1,.53,5.21,15.44,15.44,0,0,1-.53,5.21c-1,3.08-3.62,4.62-6.95,4.62S446.67,63.57,445.69,60.49Zm9.94-1.12a14.1,14.1,0,0,0,.31-4.09,14.1,14.1,0,0,0-.31-4.09,3.19,3.19,0,0,0-6,0,13.72,13.72,0,0,0-.31,4.09,13.72,13.72,0,0,0,.31,4.09,3.19,3.19,0,0,0,6,0Z"></path><path class="cls-3" d="M462.54,46a.27.27,0,0,1,.28-.28h3.34a.42.42,0,0,1,.44.28l4.82,10.86h.11L476.26,46a.44.44,0,0,1,.45-.28H480a.26.26,0,0,1,.28.28V64.52a.26.26,0,0,1-.28.28h-3.17a.27.27,0,0,1-.28-.28V53.8h-.11l-3.53,8a.54.54,0,0,1-.53.37h-1.93a.54.54,0,0,1-.53-.37l-3.53-8h-.11V64.52a.26.26,0,0,1-.28.28h-3.17a.27.27,0,0,1-.28-.28Z"></path><path class="cls-3" d="M483.21,46a.26.26,0,0,1,.28-.28H487a.26.26,0,0,1,.28.28V64.52a.26.26,0,0,1-.28.28h-3.55a.26.26,0,0,1-.28-.28Z"></path><path class="cls-3" d="M490.26,46a.27.27,0,0,1,.28-.28h3.36a.51.51,0,0,1,.48.28l6.72,12h.14V46a.26.26,0,0,1,.28-.28h3.16A.26.26,0,0,1,505,46V64.52a.26.26,0,0,1-.28.28h-3.33a.48.48,0,0,1-.47-.28l-6.75-12H494v12a.26.26,0,0,1-.28.28h-3.17a.27.27,0,0,1-.28-.28Z"></path><path class="cls-3" d="M507.4,55.28a15.44,15.44,0,0,1,.53-5.21c1-3.08,3.61-4.62,7-4.62,3.56,0,5.88,1.77,6.78,4.06a.29.29,0,0,1-.11.42l-3,1.26c-.2.06-.34,0-.39-.14a3.48,3.48,0,0,0-3.28-2,2.93,2.93,0,0,0-3,2.13,13.83,13.83,0,0,0-.31,4.06,14.1,14.1,0,0,0,.31,4.09,3.35,3.35,0,0,0,6.16.14,6.66,6.66,0,0,0,.22-1.88c0-.11,0-.17-.16-.17h-2.58a.26.26,0,0,1-.28-.28V54.5a.26.26,0,0,1,.28-.28h6.55a.26.26,0,0,1,.28.28v1.56a15.52,15.52,0,0,1-.47,4.29c-1,3-3.59,4.76-7,4.76s-6-1.54-7-4.62A15.44,15.44,0,0,1,507.4,55.28Z"></path><path class="cls-3" d="M529.77,62.5a.34.34,0,0,1,0-.47l2.13-2.44a.28.28,0,0,1,.42,0,8.07,8.07,0,0,0,5,2c2,0,3.11-.92,3.11-2.26,0-1.12-.67-1.82-2.94-2.13l-1-.14c-3.86-.53-6-2.35-6-5.71s2.64-5.83,6.75-5.83a10.8,10.8,0,0,1,6.47,2c.17.11.2.22.06.42L542,50.41a.27.27,0,0,1-.39.08A7.9,7.9,0,0,0,537.16,49c-1.68,0-2.55.86-2.55,2.07s.79,1.79,3,2.1l1,.14c3.92.53,6,2.32,6,5.77s-2.55,6-7.47,6A11.22,11.22,0,0,1,529.77,62.5Z"></path><path class="cls-3" d="M546.68,60.49a15.44,15.44,0,0,1-.53-5.21,15.44,15.44,0,0,1,.53-5.21c1-3.08,3.61-4.62,7-4.62s6,1.54,6.94,4.62a15.44,15.44,0,0,1,.53,5.21,15.44,15.44,0,0,1-.53,5.21c-1,3.08-3.61,4.62-6.94,4.62S547.66,63.57,546.68,60.49Zm9.94-1.12a13.72,13.72,0,0,0,.31-4.09,13.72,13.72,0,0,0-.31-4.09,3.19,3.19,0,0,0-6,0,14.1,14.1,0,0,0-.31,4.09,14.1,14.1,0,0,0,.31,4.09,3.19,3.19,0,0,0,6,0Z"></path><path class="cls-3" d="M563.57,60.49a15.37,15.37,0,0,1-.54-5.21,15.37,15.37,0,0,1,.54-5.21c1-3.08,3.61-4.62,6.94-4.62s6,1.54,6.94,4.62a15.37,15.37,0,0,1,.54,5.21,15.37,15.37,0,0,1-.54,5.21c-1,3.08-3.61,4.62-6.94,4.62S564.55,63.57,563.57,60.49Zm9.94-1.12a14.26,14.26,0,0,0,.3-4.09,14.26,14.26,0,0,0-.3-4.09,3.19,3.19,0,0,0-6,0,14.26,14.26,0,0,0-.3,4.09,14.26,14.26,0,0,0,.3,4.09,3.19,3.19,0,0,0,6,0Z"></path><path class="cls-3" d="M580.42,46a.26.26,0,0,1,.28-.28h3.36a.51.51,0,0,1,.48.28l6.72,12h.14V46a.26.26,0,0,1,.28-.28h3.16a.26.26,0,0,1,.28.28V64.52a.26.26,0,0,1-.28.28h-3.33a.5.5,0,0,1-.48-.28l-6.74-12h-.14v12a.27.27,0,0,1-.28.28H580.7a.26.26,0,0,1-.28-.28Z"></path></svg> 