<?xml version="1.0" encoding="UTF-8"?> <svg xmlns="http://www.w3.org/2000/svg" id="Layer_1" data-name="Layer 1" viewBox="0 0 612.25 738.91"><defs><style>.cls-1,.cls-23,.cls-26{fill:#fff;}.cls-2{fill:#d4e5d7;}.cls-20,.cls-3{fill:none;}.cls-18,.cls-20,.cls-26,.cls-3{stroke:#221e14;}.cls-17,.cls-18,.cls-20,.cls-23,.cls-25,.cls-26,.cls-3{stroke-miterlimit:10;}.cls-18,.cls-26,.cls-3{stroke-width:1.25px;}.cls-4{fill:#ffc0ab;}.cls-5{fill:#2b2b2b;}.cls-6{fill:#e1ffeb;}.cls-7{fill:#1e1e1e;}.cls-8{fill:#0dff9c;}.cls-9{fill:#2d2d2d;}.cls-10{isolation:isolate;}.cls-11{fill:#221e14;}.cls-12{fill:#faeeee;}.cls-13{fill:#ccffde;}.cls-14{fill:#ff9589;}.cls-15{fill:#ff3a47;}.cls-16{fill:#ff8495;}.cls-17{fill:#53b382;}.cls-17,.cls-23,.cls-25{stroke:#1e1e1e;stroke-width:1.5px;}.cls-18{fill:#ffe9e3;}.cls-19{fill:#eac7be;}.cls-21{opacity:0.25;}.cls-22{fill:#81ffb9;}.cls-24{fill:#51e08b;}.cls-25{fill:#dfe9da;}</style></defs><path class="cls-1" d="M380.52,281.44l2.85,302A29.22,29.22,0,0,0,398.69,609l130.22,70.43a11.91,11.91,0,0,0,17.57-10.51l-1.91-311.06A11.91,11.91,0,0,0,538,347.23l-140.24-76.5A11.91,11.91,0,0,0,380.52,281.44Z"></path><path class="cls-1" d="M381.39,281.67l2.85,302a29.19,29.19,0,0,0,15.31,25.52l130.22,70.42a11.9,11.9,0,0,0,17.57-10.5l-1.9-311.06a11.93,11.93,0,0,0-6.57-10.61L398.63,271A11.9,11.9,0,0,0,381.39,281.67Z"></path><path class="cls-2" d="M539.51,680.65c-.34.05,7.59-4.48,7.57-13.51l-1.91-311.06a16.89,16.89,0,0,0-.16-2.49s-1.23-2.38-2-1.75l-5.43,4Z"></path><path class="cls-3" d="M381.33,281.66l2.85,302a29.2,29.2,0,0,0,15.31,25.52l130.23,70.42a11.9,11.9,0,0,0,17.56-10.51l-1.9-311.06a11.88,11.88,0,0,0-6.57-10.6L398.57,271A11.9,11.9,0,0,0,381.33,281.66Z"></path><path class="cls-1" d="M374.43,284.63l2.85,302a29.21,29.21,0,0,0,15.31,25.52l130.22,70.42a11.9,11.9,0,0,0,17.57-10.51L538.48,361a11.92,11.92,0,0,0-6.57-10.6l-140.24-76.5A11.9,11.9,0,0,0,374.43,284.63Z"></path><path class="cls-4" d="M476.79,611.65l-1.94-52.73a5,5,0,0,1,7.41-4.53l23.17,13a17.68,17.68,0,0,1,9.05,15.06l1.1,51.94a4.17,4.17,0,0,1-6.17,3.74l-24.59-13.45A15.48,15.48,0,0,1,476.79,611.65Z"></path><path class="cls-5" d="M481.48,554.37l12.83,7.22.51,21.47-6.42-3.6-6.74-15.16a.76.76,0,0,0-.27-.33l-5.81-3.28c0-5.19,2.42-7.81,5.88-6.38m13.48,7.54L507.75,569c3.18,1.81,5.91,7.58,6.38,13.28L508.32,579a.22.22,0,0,0-.24.09l-6.15,7.9-6.42-3.59L495,562m-19.46,0,5.7,3.21,6.66,15,.28,11.44-12.05-6.76-.57-22.92m32.95,18.59,5.72,3.21.59,22.84-12.07-6.79-.29-11.47,6.05-7.79m-19.8.38,12.89,7.23.06.16h0l.58,23-.08,0h0L489.28,604h0l-.06-.16-.56-23,.07,0h0M476.2,586l12.06,6.76.29,11.48L482.5,612l-5.72-3.21-.66-22.89M502.83,601l12.07,6.79.57,22.81-5.71-3.22-6.64-14.91L502.83,601m-25.91,9.23,5.81,3.28a.19.19,0,0,0,.24-.09l6.15-7.9,6.43,3.63.52,21.46-12.81-7.19c-3.17-1.78-5.9-7.58-6.38-13.29m19.25-.85,6.43,3.62,6.74,15.17a.72.72,0,0,0,.26.3l5.82,3.27c0,5.26-2.34,8-5.8,6.57L496.77,631l-.51-21.46m13.27,29.72c3.65,2.06,6.49-1.38,6.55-7.65l0-.19h0c0-.16,0-.32,0-.47l-1.2-47,0-.46h0l-.07-.19c-.29-6.5-3.43-13.12-7.13-15.3l-26.36-14.78c-3.64-2-6.5,1.38-6.55,7.68v.19h0v.43l1.2,47,0,.46h0l.08.19c.28,6.49,3.42,13.12,7.12,15.3l26.37,14.78"></path><path class="cls-3" d="M374,284.67l2.85,302a29.2,29.2,0,0,0,15.32,25.52l130.22,70.42a11.91,11.91,0,0,0,17.57-10.5L538,361.07a11.89,11.89,0,0,0-6.57-10.61L391.23,274A11.91,11.91,0,0,0,374,284.67Z"></path><path class="cls-6" d="M327.75,9.53c3.55-2.06,8.71-2.43,13.14-.95,4.69,1.57,7.5,4.8,7.51,8.64l-5.46,578.4c0,8.56-6,19-13.47,23.33L154.77,722.26c-7.25,4.19-18.52-6.69-18.55-15.46l-1.61-570.22c0-8.56,6-19,13.46-23.32Z"></path><path class="cls-7" d="M327.74,8.51c8-4.61,21.53-.7,21.55,8.2l-5.46,578.4c0,9.12-6.41,20.28-14.36,24.86L154.78,723.28c-7.79,4.5-19.42-6.62-19.44-16L133.72,137.1c0-9.13,6.41-20.28,14.35-24.86Zm15.2,587.11,5.46-578.4c0-3.84-2.82-7.07-7.51-8.64a16.78,16.78,0,0,0-13.15.95L148.07,113.26c-7.45,4.3-13.49,14.76-13.46,23.32l1.61,570.22c0,8.77,11.3,19.65,18.55,15.46L329.47,619c7.45-4.3,13.49-14.77,13.47-23.33"></path><path class="cls-8" d="M136,546.61,149.49,552l200.28-114.7-6.63,160.51c0,8.56-6,19-13.47,23.33L156.39,722.78c-3.91,2.25-9.45,1.87-13.77-1a13.92,13.92,0,0,1-6.2-12.84Z"></path><path class="cls-9" d="M149.81,550.76l200.89-115L344,597.29c0,9.1-6.42,20.25-14.35,24.83L156.39,723.8c-4.14,2.39-9.93,2-14.42-.93a14.55,14.55,0,0,1-6.43-13.43l-.48-164.52Zm193.33,47,6.63-160.51L149.49,552,136,546.61,136.42,709a13.92,13.92,0,0,0,6.2,12.84c4.32,2.85,9.86,3.23,13.77,1L329.67,621.11c7.45-4.31,13.49-14.77,13.47-23.33"></path><path class="cls-1" d="M339.32,16.48c7.4-4.28,13.44-.83,13.46,7.67l1.61,565.33c0,8.5-6,18.9-13.38,23.17L161.33,716.39c-7.4,4.27-13.44.83-13.46-7.68l-1.61-565.33c0-8.5,6-18.9,13.38-23.17Z"></path><path d="M339.31,15.25c8-4.61,14.51-.9,14.54,8.28l1.6,565.34c0,9.17-6.45,20.39-14.44,25L161.33,717.61c-8,4.61-14.5.9-14.53-8.28L145.2,144c0-9.18,6.45-20.4,14.44-25Zm15.08,574.23L352.78,24.15c0-8.5-6.06-11.95-13.46-7.67L159.64,120.21c-7.4,4.27-13.4,14.67-13.38,23.17l1.61,565.33c0,8.51,6.06,11.95,13.46,7.68L341,612.65c7.4-4.27,13.4-14.67,13.38-23.17"></path><g class="cls-10"><path class="cls-11" d="M257.08,153c8-4.61,14.51-.89,14.53,8.29l1.05,369.19c0,9.18-6.45,20.39-14.44,25L146.53,620l-1.14-402.49ZM271.6,531.13l-1.05-369.19c0-8.5-6.06-11.95-13.47-7.68L146.45,218.14l1.13,400.05,110.64-63.88c7.4-4.27,13.4-14.67,13.38-23.18"></path><path class="cls-12" d="M257.08,154.26c7.41-4.27,13.45-.82,13.47,7.68l1.05,369.19c0,8.51-6,18.91-13.38,23.18L147.58,618.19l-1.13-400.05Z"></path></g><path class="cls-13" d="M354.17,432.54,354.63,594c0,8.51-6,18.91-13.39,23.18L161.57,720.91c-7.4,4.27-13.44.83-13.46-7.67l-.46-161.47Z"></path><path class="cls-7" d="M146.58,551.16,355.22,430.7l.47,162.69c0,9.18-6.46,20.4-14.44,25L161.58,722.14c-8,4.61-14.51.89-14.54-8.29ZM354.63,594l-.46-161.46L147.65,551.77l.46,161.47c0,8.5,6.06,11.94,13.46,7.67L341.24,617.18c7.4-4.27,13.41-14.67,13.39-23.18"></path><path d="M335.35,28.35c5.57-3.22,10.12-.63,10.14,5.78l1.57,555.18c0,7.72-5.42,17.16-12.15,21L169,706.14c-6.72,3.89-12.21.76-12.23-7L155.19,144c0-6.41,4.51-14.24,10.08-17.46ZM346,589.92,344.43,34.75c0-5.74-4.09-8.06-9.08-5.18l-170.07,98.2c-5,2.87-9,9.88-9,15.61l1.57,555.18c0,7.05,5,9.9,11.17,6.36l165.91-95.79C341.05,605.59,346,597,346,589.92"></path><path class="cls-11" d="M201.93,132c4.24-2.44,7.7-.47,7.72,4.4s-3.43,10.81-7.67,13.26-7.69.48-7.71-4.39A16.92,16.92,0,0,1,201.93,132Zm0,16.44a14.55,14.55,0,0,0,6.6-11.43c0-4.19-3-5.9-6.64-3.79a14.59,14.59,0,0,0-6.6,11.44c0,4.2,3,5.89,6.64,3.78"></path><path class="cls-14" d="M201.94,133.22c3.65-2.11,6.63-.4,6.64,3.79a14.55,14.55,0,0,1-6.6,11.43c-3.65,2.11-6.63.42-6.64-3.78A14.56,14.56,0,0,1,201.94,133.22Z"></path><ellipse class="cls-15" cx="179.41" cy="150.32" rx="9.33" ry="5.41" transform="translate(-40.7 229.91) rotate(-59.84)"></ellipse><path class="cls-11" d="M179.39,141.49c4.24-2.45,7.7-.48,7.71,4.39a16.92,16.92,0,0,1-7.66,13.28c-4.24,2.44-7.7.47-7.71-4.4S175.15,143.94,179.39,141.49Zm.05,16.44A14.53,14.53,0,0,0,186,146.5c0-4.2-3-5.89-6.64-3.78a14.55,14.55,0,0,0-6.6,11.43c0,4.19,3,5.89,6.65,3.78"></path><path class="cls-11" d="M204.93,133.44c4.24-2.44,7.7-.47,7.71,4.4s-3.42,10.82-7.66,13.27-7.7.47-7.71-4.4S200.69,135.89,204.93,133.44Zm0,16.44a14.55,14.55,0,0,0,6.6-11.43c0-4.19-3-5.9-6.65-3.79a14.59,14.59,0,0,0-6.6,11.44c0,4.2,3,5.89,6.65,3.78"></path><path class="cls-4" d="M204.93,134.66c3.66-2.11,6.63-.4,6.65,3.79a14.59,14.59,0,0,1-6.6,11.44c-3.66,2.1-6.63.41-6.65-3.79A14.59,14.59,0,0,1,204.93,134.66Z"></path><path class="cls-16" d="M182.39,144.16c3.65-2.11,6.64-.42,6.65,3.78a14.61,14.61,0,0,1-6.61,11.44c-3.65,2.11-6.63.4-6.64-3.79A14.55,14.55,0,0,1,182.39,144.16Z"></path><path class="cls-11" d="M182.39,142.93c4.23-2.45,7.69-.48,7.71,4.39a16.92,16.92,0,0,1-7.66,13.28c-4.24,2.44-7.7.47-7.72-4.4A16.91,16.91,0,0,1,182.39,142.93Zm0,16.45A14.61,14.61,0,0,0,189,147.94c0-4.2-3-5.89-6.65-3.78a14.55,14.55,0,0,0-6.6,11.43c0,4.19,3,5.9,6.64,3.79"></path><ellipse class="cls-17" cx="259.09" cy="566.92" rx="26.67" ry="19.4" transform="translate(-359.68 642.04) rotate(-72.36)"></ellipse><path class="cls-18" d="M256,544.66c11.77.75,17.45,15.59,13.88,26.83A21.37,21.37,0,0,1,243,585.37s-6.83-5.91-2.57-23.23C240.43,562.14,246.18,544.05,256,544.66Z"></path><path class="cls-19" d="M244.19,585.94s-6.84-5.91-2.58-23.23c0,0,4.21-17.53,15.52-17.48l4.42,1.4s-14.69,6.92-16.23,24a34.86,34.86,0,0,0,.23,8,45.82,45.82,0,0,0,1.8,7.68Z"></path><path class="cls-20" d="M256.49,544.62c11.77.74,17.45,15.58,13.88,26.82a21.37,21.37,0,0,1-26.83,13.88s-6.83-5.91-2.57-23.23C241,562.09,246.72,544,256.49,544.62Z"></path><g class="cls-21"><path class="cls-22" d="M384.48,105.24c11.79-6.8,21.38-1.35,21.41,12.2l.5,175.13c0,13.54-9.49,30-21.27,36.84l-285.86,165c-11.79,6.8-21.38,1.35-21.42-12.2l-.49-175.13c0-13.54,9.48-30,21.27-36.84Z"></path></g><path class="cls-7" d="M384.48,104.63c12.06-7,21.91-1.36,21.95,12.5l.49,175.13c0,13.86-9.74,30.8-21.8,37.76l-285.86,165c-12.06,7-21.91,1.36-22-12.5l-.49-175.13c0-13.86,9.74-30.79,21.8-37.76Zm21.38,188.25-.5-175.13c0-13.19-9.4-18.52-20.88-11.9l-285.86,165c-11.47,6.63-20.77,22.74-20.74,35.92l.5,175.13c0,13.19,9.4,18.52,20.88,11.9l285.86-165c11.47-6.63,20.77-22.74,20.74-35.92"></path><path class="cls-23" d="M283.78,404h0c0,.77-.84,1.57-2.44,2.2a19.79,19.79,0,0,1-12,0c-1.64-.61-2.48-1.45-2.49-2.25h0l-.36-101.62,16.91-.06Z"></path><path class="cls-23" d="M366.94,276.73h0L293.5,304.29l-.07-19.8,66.91-25.13h0a4.63,4.63,0,0,1,3.3,0,12.08,12.08,0,0,1,6.64,11A6.14,6.14,0,0,1,366.94,276.73Z"></path><path class="cls-9" d="M315.73,215c9.86,10.9,14.78,27.26,11.69,38.92C315,301,298.06,353.44,254.89,378.69a47.13,47.13,0,0,1-43,1.94c-15.51-7.21-25.4-22.17-27.83-42.12-2.67-21.83,4.13-51.07,17.74-76.3,8.41-15.59,23.25-36.76,46.56-50.21.7-.41,1.41-.81,2.12-1.2C286.27,191.27,306.72,205.05,315.73,215Zm10.86,39c2.57-9.71-.59-25.89-11.6-38-8.91-9.84-29.14-23.47-64.53-4.15-.69.38-1.38.76-2.06,1.15-23,13.29-37.65,34.15-45.94,49.53-13.45,24.92-20.16,53.79-17.52,75.35,2.41,19.73,12.19,34.53,27.54,41.67a46.4,46.4,0,0,0,42.19-1.74c18.89-11.05,33.86-27.67,46-50.95,11.95-22.91,19.81-49.66,25.93-72.81"></path><path class="cls-8" d="M248.4,213c.68-.39,1.37-.77,2.06-1.15,35.39-19.32,55.62-5.69,64.53,4.15,11,12.16,14.17,28.34,11.6,38-6.12,23.15-14,49.9-25.93,72.81-12.13,23.28-27.1,39.9-45.78,50.83a46.51,46.51,0,0,1-42.4,1.86c-15.35-7.14-25.13-21.94-27.54-41.67-2.64-21.56,4.07-50.43,17.52-75.35C210.75,247.14,225.38,226.28,248.4,213Z"></path><path class="cls-24" d="M266.19,220.87c37.71-21.78,68.23-4.53,68.49,38.46s-30,95.74-67.56,117.58-68.23,4.53-68.49-38.47S228.62,242.71,266.19,220.87Z"></path><path class="cls-7" d="M267.39,220.33a85.66,85.66,0,0,1,11.14-5.44,54.5,54.5,0,0,1,20.24-4.1,37.84,37.84,0,0,1,10.32,1.48c17.22,5.06,27.18,22.13,27.32,46.84.13,21-6.88,44.89-19.74,67.27s-30,40.57-48.34,51.23c-37.94,21.9-68.76,4.48-69-38.77-.07-12.36,2.29-25.6,7-39.36h1c-4.65,13.55-7,26.58-6.9,38.75.26,42.59,30.61,59.72,67.71,38.31C286.35,365.9,303.25,348,315.91,326s19.57-45.55,19.44-66.24c-.14-24.32-10-41.12-26.9-46.1a37.12,37.12,0,0,0-10.16-1.46,53.13,53.13,0,0,0-19.92,4,83.75,83.75,0,0,0-11,5.36,102.47,102.47,0,0,0-10,6.69,131.6,131.6,0,0,0-21.45,20.62l-.5-.79a132.81,132.81,0,0,1,21.79-20.94A102.82,102.82,0,0,1,267.39,220.33Z"></path><g class="cls-10"><path class="cls-7" d="M300.66,237.19l19.74,11.47c8.35,4.85,13.54,15.17,13.58,29.81.08,29.48-20.71,65.51-46.37,80.32l-19.73-11.47c25.65-14.81,46.45-50.84,46.37-80.32C314.2,252.36,309,242,300.66,237.19Z"></path><path class="cls-7" d="M254.52,362l-19.73-11.47c8.46,4.92,20.18,4.24,33.09-3.21l19.73,11.47C274.7,366.24,263,366.92,254.52,362Z"></path><path class="cls-13" d="M300.49,237.09l.17.1,19.73,11.46-.16-.09Z"></path><path class="cls-13" d="M225.5,340.55c4.85,2.83,17.94,10.43,19.73,11.46a24.31,24.31,0,0,0,9.3,10l-19.74-11.46A24.47,24.47,0,0,1,225.5,340.55Z"></path><path class="cls-13" d="M267.58,240.41c12.82-7.41,24.46-8.13,32.91-3.32l19.74,11.47c-8.45-4.81-20.1-4.09-32.92,3.31Z"></path><path class="cls-7" d="M301.42,235.89l19.73,11.47c-8.66-5-20.64-4.34-33.84,3.29l-19.74-11.47C280.78,231.56,292.76,230.86,301.42,235.89Z"></path><path class="cls-13" d="M221.2,320.72c-.08-29.48,20.72-65.5,46.38-80.31l19.73,11.46c-25.65,14.81-46.46,50.84-46.37,80.32,0,7.94,1.56,14.61,4.29,19.82-4.34-2.51-8-4.65-19.73-11.46C222.76,335.33,221.23,328.66,221.2,320.72Z"></path><path class="cls-13" d="M287.31,251.87C313,237.06,333.9,249,334,278.47S313.27,344,287.61,358.79s-46.59,2.88-46.67-26.6S261.66,266.68,287.31,251.87Z"></path><path class="cls-7" d="M253.77,363.3,234,351.83c-8.55-5-13.85-15.52-13.9-30.5-.08-30.14,21.19-67,47.43-82.15l19.74,11.47c-26.24,15.15-47.52,52-47.43,82.15C239.92,347.78,245.23,358.33,253.77,363.3Z"></path><path class="cls-7" d="M287.31,250.65c26.24-15.15,47.65-2.94,47.74,27.2s-21.19,67-47.43,82.16S240,363,239.88,332.8,261.07,265.8,287.31,250.65Zm.3,108.14C313.27,344,334.06,308,334,278.47s-21-41.41-46.67-26.6-46.46,50.84-46.37,80.32,21,41.41,46.67,26.6"></path></g><path class="cls-23" d="M283.91,247.92h0c0,1-.83,1.93-2.52,2.66a18.24,18.24,0,0,1-12.43,0c-1.7-.72-2.57-1.7-2.57-2.64h0l-.19-51.31,17.52-.07Z"></path><path class="cls-25" d="M281.53,194.71c3.4,1.28,3.4,3.35,0,4.64a20.5,20.5,0,0,1-12.4,0c-3.4-1.29-3.4-3.36,0-4.61a20.81,20.81,0,0,1,12.4,0"></path><path class="cls-23" d="M232,325.14h0l-49.69,19.45-7.57-17.49,50.67-19.33h0a4.69,4.69,0,0,1,3.3,0,12.14,12.14,0,0,1,6.64,11A6.12,6.12,0,0,1,232,325.14Z"></path><path class="cls-25" d="M178.48,326.89a12.73,12.73,0,0,1,6.91,11.62c0,5-3.07,7.86-6.95,6.4a12.76,12.76,0,0,1-6.9-11.62c0-5,3.06-7.86,6.94-6.4"></path><path class="cls-1" d="M293.39,272.2C311.75,261.6,326.67,270,326.8,291c.06,10.17-3.34,21.73-9.56,32.56s-14.53,19.64-23.39,24.79-17.23,6-23.53,2.5-9.82-11.09-9.88-21.26C260.31,308.57,275.1,282.84,293.39,272.2Z"></path><path class="cls-7" d="M293.38,270.77c19.05-11,34.53-2.25,34.66,19.47.06,10.54-3.46,22.54-9.92,33.78s-15.07,20.37-24.26,25.72S276,356,269.45,352.33s-10.19-11.51-10.25-22.06,3.46-22.54,9.91-33.78S284.19,276.12,293.38,270.77Zm23.86,52.75c6.22-10.83,9.62-22.39,9.56-32.56-.13-20.94-15.05-29.36-33.29-18.83-18.42,10.71-33.2,36.44-33.07,57.42.06,10.17,3.57,17.72,9.88,21.26s14.63,2.63,23.48-2.47,17.22-14,23.44-24.82"></path><path class="cls-7" d="M318,286.74c4.53,2.54,7.05,7.95,7.09,15.24s-2.39,15.59-6.86,23.36-10.42,14.08-16.77,17.78-12.37,4.32-16.88,1.79-7-8-7.08-15.25,2.39-15.58,6.85-23.36,10.42-14.07,16.78-17.77S313.49,284.2,318,286.74Zm-.64,38.1c4.22-7.36,6.53-15.23,6.49-22.13s-2.43-12-6.71-14.46-9.92-1.81-15.92,1.65-11.76,9.54-16,16.9-6.53,15.23-6.5,22.14,2.44,12,6.72,14.46,9.83,1.85,15.78-1.58l.22-.13c6-3.5,11.67-9.49,15.91-16.85"></path><path class="cls-12" d="M301.15,290c6.08-3.51,11.72-4.09,16-1.7s6.67,7.54,6.71,14.46-2.27,14.77-6.49,22.13-9.89,13.35-15.91,16.85l-.22.13c-5.95,3.43-11.54,3.95-15.78,1.58s-6.67-7.55-6.72-14.46,2.27-14.77,6.5-22.14S295.12,293.45,301.15,290Z"></path><path class="cls-13" d="M408.32,328.55v4l8.18,4.72v-3.2l1.43.83a17,17,0,0,0,1,4.48v1.92l-10.65-6.14v3.49l-1.85-1.06,0-10.11Z"></path><path class="cls-13" d="M415.83,346.66a7.69,7.69,0,0,1,3.32,6.59c0,2.83-1.39,3.78-3.39,2.63a8.14,8.14,0,0,1-2.84-3.77l-.08,0c-.68,1.15-1.54,1.86-3.28.86-1.91-1.1-3.38-3.86-3.37-7.26s1.44-4.5,3.43-3.35c1.63.94,2.57,2.86,3.19,4.73l.08.05A2.1,2.1,0,0,1,415.83,346.66Zm-6.18,3.87c1.43.82,1.85-.64,2.54-2.51a6.28,6.28,0,0,0-2.33-3.26c-1.23-.71-2.05.07-2.06,1.91a4.32,4.32,0,0,0,1.85,3.86m6,3.08c1.09.63,1.9.22,1.91-1.36a3.77,3.77,0,0,0-1.71-3.27c-1.24-.72-1.81.36-2.36,2a6.22,6.22,0,0,0,2.16,2.67"></path><path class="cls-13" d="M407.89,368.08l1.44,2.08a3.47,3.47,0,0,0-1.37,3,4.79,4.79,0,0,0,1.87,4.13c1.29.75,2.13,0,2.14-3.53l1.64,1c0,3.09.84,4.76,2,5.42s1.66-.05,1.67-1.56a8.92,8.92,0,0,0-1.17-4l1.4-.53a12.64,12.64,0,0,1,1.57,5.64c0,2.92-1.21,4.35-3.31,3.13a7.12,7.12,0,0,1-2.87-4.57l-.08,0c-.39,1.64-1.45,2.55-3.11,1.59-2.28-1.31-3.6-4.58-3.59-7.53C406.12,369.87,406.9,368.6,407.89,368.08Z"></path><path class="cls-13" d="M407.89,354.57l1.46,2.05a3.31,3.31,0,0,0-1.35,2.94,5.31,5.31,0,0,0,2.38,4.57c1.48.86,2.32.09,2.33-1.71a7.71,7.71,0,0,0-.68-3.06l.7-.85,6.16,4,0,8.47-1.93-1.11,0-6.2-3-2a8.62,8.62,0,0,1,.39,2.49c0,2.69-1.23,4.23-3.91,2.68a9.55,9.55,0,0,1-4.28-8C406.16,356.31,407,355.18,407.89,354.57Z"></path><path class="cls-13" d="M407.77,395.15l1.46,2.06a3.29,3.29,0,0,0-1.34,2.94,5.3,5.3,0,0,0,2.38,4.58c1.48.85,2.32.08,2.32-1.73a7.57,7.57,0,0,0-.68-3.06l.7-.84,6.16,4,0,8.46-1.93-1.11,0-6.2-3-2a8.34,8.34,0,0,1,.38,2.5c0,2.69-1.23,4.22-3.9,2.68a9.59,9.59,0,0,1-4.29-8C406,396.89,406.85,395.77,407.77,395.15Z"></path><path class="cls-13" d="M414.83,426.53a9,9,0,0,1,4.09,7.34c0,3-1.92,4.56-6.12,2.14C408,433.21,406,429.09,406,426c0-1.9.64-3,1.42-3.49l1.37,2.2a2.56,2.56,0,0,0-.94,2.16c0,2,1.17,4.45,4.63,6.57a10.34,10.34,0,0,1-1.48-4.64C411,426.18,412.22,425,414.83,426.53Zm-.78,7.7c2.19.95,3.12.26,3.13-1.32a4.74,4.74,0,0,0-2.36-4c-1.48-.86-2.22-.32-2.23,1.3a7.83,7.83,0,0,0,1.46,4"></path><path class="cls-13" d="M407.77,408.67l1.45,2.08a3.39,3.39,0,0,0-1.37,3,4.78,4.78,0,0,0,1.86,4.14c1.29.74,2.13,0,2.14-3.53l1.65.95c0,3.1.83,4.76,2,5.42s1.67,0,1.67-1.55a9.1,9.1,0,0,0-1.16-4l1.4-.53a12.78,12.78,0,0,1,1.57,5.65c0,2.92-1.21,4.34-3.32,3.13-1.4-.81-2.33-2.5-2.87-4.57l-.08,0c-.38,1.64-1.44,2.55-3.11,1.59-2.27-1.32-3.59-4.58-3.58-7.53C406,410.45,406.79,409.18,407.77,408.67Z"></path><path class="cls-13" d="M417,441.29a11.61,11.61,0,0,1,1.93,6.06c0,2.95-1.53,4-3.84,2.67s-4.51-5.2-7.09-10c.07.91.12,1.91.12,2.71v4.05l-1.93-1.11,0-10.45,1.32.76c3.36,6.43,5.5,10.38,7.44,11.5,1.32.76,2.15.32,2.16-1.5a8.8,8.8,0,0,0-1.37-3.95Z"></path><path class="cls-13" d="M407.51,489.85l1.45,2.06a3.31,3.31,0,0,0-1.34,2.94,5.29,5.29,0,0,0,2.38,4.57c1.48.86,2.32.09,2.32-1.72a7.57,7.57,0,0,0-.68-3.06l.7-.84,6.16,4,0,8.46-1.93-1.11,0-6.2-3-2a8.68,8.68,0,0,1,.39,2.5c0,2.69-1.24,4.22-3.91,2.68a9.56,9.56,0,0,1-4.28-8C405.77,491.59,406.58,490.46,407.51,489.85Z"></path><path class="cls-13" d="M410.81,477.89l7.72,11v3L411,487.61v2l-1.77-1v-2L406,484.73V482.3l3.21,1.85,0-7.15Zm5.64,10.54v-.1c-.66-.85-1.32-1.79-2-2.66l-3.45-5v4.49l3,1.71c.74.44,1.73,1.08,2.48,1.55"></path><path class="cls-13" d="M407.62,462.78l1.45,2.08a3.41,3.41,0,0,0-1.37,3,4.75,4.75,0,0,0,1.86,4.13c1.29.75,2.13,0,2.14-3.53l1.64,1c0,3.09.84,4.76,2,5.42s1.66-.05,1.67-1.56a8.92,8.92,0,0,0-1.17-4l1.4-.53a12.48,12.48,0,0,1,1.57,5.64c0,2.92-1.2,4.35-3.31,3.13-1.4-.81-2.33-2.5-2.87-4.57l-.08,0c-.39,1.64-1.44,2.55-3.11,1.59-2.27-1.31-3.6-4.58-3.59-7.53C405.85,464.57,406.63,463.3,407.62,462.78Z"></path><path class="cls-13" d="M416.76,508.94a11.65,11.65,0,0,1,1.93,6.06c0,3-1.53,4-3.85,2.66s-4.5-5.19-7.08-10c.07.91.12,1.92.12,2.71l0,4-1.92-1.11,0-10.45,1.32.76c3.36,6.43,5.5,10.38,7.44,11.51,1.32.75,2.15.31,2.15-1.5a8.52,8.52,0,0,0-1.37-3.95Z"></path><path class="cls-13" d="M411.77,533.36c4.83,2.79,6.85,6.91,6.84,10.06,0,1.9-.64,3-1.44,3.47l-1.37-2.19a2.56,2.56,0,0,0,1-2.15c0-2-1.18-4.46-4.64-6.57a10.3,10.3,0,0,1,1.49,4.62c0,2.58-1.27,3.74-3.88,2.23a9,9,0,0,1-4.08-7.34C405.66,532.46,407.56,530.93,411.77,533.36Zm-2,7c1.49.86,2.23.34,2.24-1.28a7.83,7.83,0,0,0-1.45-4c-2.21-1-3.15-.29-3.16,1.31a4.76,4.76,0,0,0,2.37,4"></path><path class="cls-13" d="M418.35,550.65l0,10.6-1.4-.81a29.45,29.45,0,0,0-11.08-11.12v-2.66a32.3,32.3,0,0,1,10.55,10.61l0-7.73Z"></path><path class="cls-13" d="M414.41,575.34a9,9,0,0,1,4.09,7.34c0,3-1.92,4.57-6.12,2.14-4.84-2.79-6.85-6.91-6.84-10.05,0-1.9.64-3,1.41-3.49l1.38,2.2a2.53,2.53,0,0,0-.94,2.15c0,2,1.17,4.46,4.63,6.57a10.15,10.15,0,0,1-1.48-4.63C410.54,575,411.8,573.84,414.41,575.34Zm-.78,7.71c2.19.94,3.12.25,3.12-1.33a4.72,4.72,0,0,0-2.35-4c-1.48-.85-2.23-.31-2.23,1.31a7.86,7.86,0,0,0,1.46,4"></path><path class="cls-13" d="M407.31,557.49l1.46,2.07a3.26,3.26,0,0,0-1.34,2.93,5.3,5.3,0,0,0,2.38,4.58c1.48.85,2.32.08,2.32-1.72a7.58,7.58,0,0,0-.68-3.07l.7-.83,6.16,4,0,8.46-1.93-1.12,0-6.19-3-2.05a8.34,8.34,0,0,1,.38,2.5c0,2.69-1.23,4.22-3.9,2.68a9.59,9.59,0,0,1-4.29-8C405.58,559.24,406.39,558.11,407.31,557.49Z"></path><path d="M412.23,344.35c2,1.16,3.33,3.88,3.32,6.59s-1.39,3.79-3.39,2.63a8.16,8.16,0,0,1-2.84-3.76l-.08-.05c-.68,1.15-1.54,1.87-3.28.87-1.91-1.11-3.38-3.88-3.37-7.26S404,338.86,406,340c1.63.94,2.57,2.86,3.19,4.74l.08.05A2.09,2.09,0,0,1,412.23,344.35Zm-6.18,3.87c1.43.83,1.85-.64,2.54-2.51a6.32,6.32,0,0,0-2.32-3.26c-1.24-.71-2.06.08-2.07,1.91a4.31,4.31,0,0,0,1.85,3.86m6,3.08c1.09.63,1.9.22,1.91-1.36a3.78,3.78,0,0,0-1.71-3.27c-1.24-.72-1.8.36-2.36,1.95A6.13,6.13,0,0,0,412,351.3"></path><path d="M404.72,326.24v4l8.18,4.72v-3.2l1.43.83a17.08,17.08,0,0,0,1,4.48V339l-10.65-6.15v3.49l-1.84-1.06,0-10.11Z"></path><path d="M404.29,365.77l1.44,2.08a3.44,3.44,0,0,0-1.37,3,4.79,4.79,0,0,0,1.87,4.13c1.29.74,2.13,0,2.14-3.53l1.64.95c0,3.1.84,4.77,2,5.43s1.66,0,1.67-1.56a9,9,0,0,0-1.17-4l1.4-.53a12.61,12.61,0,0,1,1.57,5.64c0,2.92-1.21,4.35-3.31,3.13a7.12,7.12,0,0,1-2.87-4.56l-.08,0c-.38,1.63-1.45,2.54-3.11,1.58-2.28-1.31-3.6-4.58-3.59-7.52C402.52,367.56,403.3,366.29,404.29,365.77Z"></path><path d="M404.29,352.25l1.46,2.07a3.31,3.31,0,0,0-1.35,2.94,5.32,5.32,0,0,0,2.38,4.57c1.48.85,2.32.08,2.33-1.72a7.74,7.74,0,0,0-.68-3.06l.7-.84,6.16,4,0,8.46-1.93-1.12,0-6.19-3-2a8.62,8.62,0,0,1,.39,2.49c0,2.69-1.23,4.22-3.91,2.68a9.55,9.55,0,0,1-4.28-8C402.56,354,403.37,352.87,404.29,352.25Z"></path><path d="M413.35,439a11.58,11.58,0,0,1,1.93,6.06c0,3-1.53,4-3.84,2.68s-4.51-5.2-7.09-10c.07.89.12,1.91.12,2.71v4l-1.92-1.11,0-10.44,1.31.75c3.36,6.43,5.5,10.38,7.44,11.5,1.32.76,2.15.31,2.16-1.49a8.79,8.79,0,0,0-1.37-4Z"></path><path d="M411.23,424.22a9,9,0,0,1,4.09,7.34c0,3-1.92,4.56-6.12,2.14-4.84-2.8-6.85-6.92-6.84-10.06,0-1.9.64-3,1.42-3.48l1.38,2.2a2.48,2.48,0,0,0-1,2.14c0,2,1.17,4.46,4.64,6.58a10.21,10.21,0,0,1-1.49-4.63C407.37,423.86,408.62,422.72,411.23,424.22Zm-.78,7.7c2.19.94,3.12.26,3.13-1.33a4.75,4.75,0,0,0-2.35-4c-1.49-.86-2.23-.32-2.24,1.3a7.8,7.8,0,0,0,1.46,4"></path><path d="M404.17,406.35l1.45,2.09a3.39,3.39,0,0,0-1.37,3,4.74,4.74,0,0,0,1.86,4.12c1.29.75,2.13,0,2.14-3.52l1.65.95c0,3.1.83,4.77,2,5.43s1.67-.05,1.67-1.57a9,9,0,0,0-1.16-3.95l1.4-.54a12.81,12.81,0,0,1,1.57,5.65c0,2.93-1.21,4.34-3.32,3.13a7.14,7.14,0,0,1-2.86-4.56l-.09-.05c-.38,1.64-1.44,2.55-3.11,1.58-2.27-1.31-3.59-4.58-3.58-7.52C402.4,408.15,403.19,406.87,404.17,406.35Z"></path><path d="M404.17,392.84l1.46,2.06a3.28,3.28,0,0,0-1.34,2.94,5.29,5.29,0,0,0,2.38,4.57c1.48.86,2.32.09,2.32-1.72a7.57,7.57,0,0,0-.68-3.06l.7-.84,6.16,4,0,8.46-1.93-1.11,0-6.19-3-2a8.21,8.21,0,0,1,.38,2.48c0,2.7-1.23,4.23-3.9,2.69a9.6,9.6,0,0,1-4.29-8C402.44,394.59,403.25,393.45,404.17,392.84Z"></path><path d="M413.16,506.62a11.7,11.7,0,0,1,1.93,6.06c0,3-1.53,4-3.85,2.68s-4.5-5.2-7.08-10c.07.9.12,1.91.12,2.71l0,4-1.91-1.1,0-10.45,1.31.75c3.36,6.43,5.5,10.38,7.44,11.5,1.32.76,2.15.32,2.15-1.49a8.6,8.6,0,0,0-1.37-4Z"></path><path d="M403.91,487.54l1.45,2.06a3.3,3.3,0,0,0-1.34,2.94,5.3,5.3,0,0,0,2.38,4.57c1.48.86,2.32.09,2.32-1.72a7.57,7.57,0,0,0-.68-3.06l.7-.84,6.16,4,0,8.46L413,502.83l0-6.19-3-2a8.55,8.55,0,0,1,.39,2.48c0,2.7-1.24,4.23-3.91,2.68a9.55,9.55,0,0,1-4.28-7.95C402.17,489.29,403,488.16,403.91,487.54Z"></path><path d="M407.21,475.58l7.72,11v3l-7.52-4.34v2l-1.77-1v-2l-3.2-1.85V480l3.2,1.85,0-7.15Zm5.64,10.55V486c-.66-.85-1.31-1.78-2-2.66l-3.45-5v4.5l3,1.71c.74.44,1.73,1.08,2.48,1.56"></path><path d="M404,460.47l1.45,2.08a3.39,3.39,0,0,0-1.37,3A4.76,4.76,0,0,0,406,469.7c1.29.74,2.13,0,2.14-3.53l1.64.95c0,3.1.84,4.77,2,5.43s1.66,0,1.67-1.56a9,9,0,0,0-1.17-4l1.4-.53a12.48,12.48,0,0,1,1.57,5.64c0,2.93-1.2,4.35-3.31,3.13a7.16,7.16,0,0,1-2.87-4.56l-.08,0c-.38,1.64-1.44,2.55-3.11,1.59-2.27-1.31-3.6-4.58-3.59-7.53C402.25,462.26,403,461,404,460.47Z"></path><path d="M408.17,531.06C413,533.85,415,538,415,541.11c0,1.9-.64,3-1.43,3.48l-1.38-2.21a2.53,2.53,0,0,0,1-2.14c0-2-1.17-4.45-4.63-6.56a10.37,10.37,0,0,1,1.48,4.61c0,2.58-1.26,3.75-3.88,2.24a9,9,0,0,1-4.08-7.35C402.06,530.14,404,528.63,408.17,531.06Zm-2,7.05c1.49.86,2.23.33,2.24-1.29a7.78,7.78,0,0,0-1.45-4c-2.2-1-3.15-.29-3.15,1.31a4.75,4.75,0,0,0,2.36,4"></path><path d="M410.81,573a9,9,0,0,1,4.09,7.33c0,3-1.92,4.56-6.12,2.14-4.84-2.8-6.85-6.92-6.84-10.06,0-1.89.64-3,1.41-3.48l1.39,2.2a2.5,2.5,0,0,0-.95,2.15c0,2,1.17,4.47,4.64,6.58a10.09,10.09,0,0,1-1.49-4.64C406.94,572.68,408.2,571.54,410.81,573Zm-.78,7.7c2.19.94,3.12.25,3.12-1.33a4.72,4.72,0,0,0-2.34-4c-1.49-.86-2.24-.32-2.24,1.31a7.8,7.8,0,0,0,1.46,4"></path><g class="cls-10"><path d="M403.71,555.18l1.46,2.06a3.29,3.29,0,0,0-1.34,2.94,5.29,5.29,0,0,0,2.38,4.57c1.48.86,2.32.1,2.32-1.71a7.58,7.58,0,0,0-.68-3.07l.7-.84,6.16,4,0,8.47-1.93-1.11,0-6.2-3-2a8.28,8.28,0,0,1,.38,2.49c0,2.69-1.23,4.22-3.9,2.68a9.59,9.59,0,0,1-4.29-7.95C402,556.93,402.79,555.8,403.71,555.18Z"></path><path d="M414.75,548.35l0,10.59-1.4-.8A29.39,29.39,0,0,0,402.25,547v-2.66A32.26,32.26,0,0,1,412.8,555l0-7.71Z"></path></g><line class="cls-26" x1="537.63" y1="355.88" x2="543.06" y2="351.84"></line></svg> 