<?xml version="1.0" encoding="UTF-8"?> <svg xmlns="http://www.w3.org/2000/svg" id="Layer_1" data-name="Layer 1" viewBox="0 0 649.12 199.79"><defs><style>.cls-1{fill:#231f20;}.cls-2{fill:#ff5f00;}.cls-3{fill:#eb001b;}.cls-4{fill:#f79e1b;}</style></defs><path class="cls-1" d="M300.69,106.8c0-6.8,4.46-12.39,11.74-12.39,7,0,11.66,5.35,11.66,12.39s-4.7,12.39-11.66,12.39c-7.28,0-11.74-5.59-11.74-12.39m31.33,0V87.44h-8.41v4.72c-2.67-3.49-6.72-5.67-12.22-5.67C300.54,86.49,292,95,292,106.81s8.51,20.32,19.36,20.32c5.5,0,9.55-2.19,12.22-5.67v4.69H332V106.8Zm284.28,0c0-6.8,4.46-12.39,11.74-12.39,7,0,11.66,5.35,11.66,12.39S635,119.19,628,119.19c-7.28,0-11.74-5.59-11.74-12.39m31.34,0V71.91h-8.42V92.16c-2.67-3.49-6.72-5.67-12.22-5.67-10.85,0-19.36,8.5-19.36,20.32s8.51,20.32,19.36,20.32c5.5,0,9.55-2.19,12.22-5.67v4.69h8.42ZM436.44,94c5.43,0,8.91,3.4,9.8,9.39H426.16c.9-5.59,4.29-9.39,10.29-9.39m.16-7.54c-11.34,0-19.27,8.25-19.27,20.32,0,12.3,8.25,20.31,19.84,20.31,5.82,0,11.16-1.45,15.86-5.42l-4.13-6.23a18.44,18.44,0,0,1-11.25,4c-5.42,0-10.36-2.51-11.58-9.47h28.73c.09-1,.17-2.11.17-3.24-.08-12.06-7.54-20.32-18.37-20.32m101.58,20.32c0-6.8,4.45-12.39,11.74-12.39,7,0,11.65,5.35,11.65,12.39s-4.69,12.39-11.65,12.39c-7.29,0-11.74-5.59-11.74-12.39m31.32,0V87.44H561.1v4.72c-2.67-3.49-6.71-5.67-12.22-5.67-10.84,0-19.35,8.5-19.35,20.32s8.5,20.32,19.35,20.32c5.51,0,9.55-2.19,12.22-5.67v4.69h8.41V106.78Zm-78.83,0c0,11.74,8.17,20.32,20.64,20.32,5.82,0,9.71-1.3,13.91-4.61l-4-6.8a17,17,0,0,1-10.14,3.48c-6.72-.08-11.66-4.94-11.66-12.39s4.94-12.3,11.66-12.39a17.07,17.07,0,0,1,10.14,3.49l4-6.8c-4.21-3.32-8.09-4.62-13.91-4.62-12.47,0-20.64,8.58-20.64,20.32M599.14,86.46a11.42,11.42,0,0,0-10.2,5.67V87.44H580.6v38.69H589V104.44c0-6.4,2.76-10,8.26-10a13.76,13.76,0,0,1,5.26,1l2.59-7.93a17.71,17.71,0,0,0-6-1.06m-225.52,4c-4.05-2.67-9.63-4-15.78-4-9.8,0-16.12,4.7-16.12,12.39,0,6.31,4.7,10.2,13.35,11.41l4,.57c4.61.65,6.79,1.86,6.79,4,0,3-3.06,4.69-8.82,4.69a20.65,20.65,0,0,1-12.87-4l-3.95,6.56a27.9,27.9,0,0,0,16.75,5c11.18,0,17.65-5.26,17.65-12.63,0-6.8-5.1-10.36-13.52-11.57l-4-.58c-3.64-.47-6.56-1.2-6.56-3.8,0-2.83,2.75-4.53,7.37-4.53A25,25,0,0,1,370,97.33l3.64-6.8Zm108.56-4A11.38,11.38,0,0,0,472,92.15V87.44h-8.34v38.69h8.41V104.44c0-6.4,2.75-10,8.25-10a13.72,13.72,0,0,1,5.26,1l2.6-7.93a17.77,17.77,0,0,0-6-1.06m-71.79,1H396.62V75.71h-8.5V87.44h-7.85v7.69h7.85v17.65c0,9,3.48,14.33,13.43,14.33a19.77,19.77,0,0,0,10.53-3l-2.43-7.2a15.62,15.62,0,0,1-7.45,2.19c-4.21,0-5.58-2.6-5.58-6.48V95.14h13.76Zm-125.79,38.7V101.86c0-9.14-5.83-15.3-15.22-15.38-4.94-.08-10,1.46-13.6,6.88-2.67-4.29-6.88-6.88-12.79-6.88a12.8,12.8,0,0,0-11.33,5.75V87.44h-8.42v38.69h8.49V104.68c0-6.72,3.72-10.29,9.47-10.29,5.59,0,8.42,3.65,8.42,10.21v21.53h8.5V104.68c0-6.72,3.89-10.29,9.47-10.29,5.74,0,8.49,3.64,8.49,10.2v21.53Z"></path><path class="cls-2" d="M124.39,146.26H71.81V51.78h52.58Z"></path><path class="cls-3" d="M75.15,99A60,60,0,0,1,98.09,51.79a60.08,60.08,0,1,0,0,94.48A60,60,0,0,1,75.15,99"></path><path class="cls-4" d="M195.31,99A60.09,60.09,0,0,1,98.1,146.27a60.09,60.09,0,0,0,0-94.48A60.08,60.08,0,0,1,195.31,99"></path></svg> 