<?xml version="1.0" encoding="UTF-8"?> <svg xmlns="http://www.w3.org/2000/svg" id="Layer_1" data-name="Layer 1" viewBox="0 0 649.12 199.79"><defs><style>.cls-1{fill:#ccffde;stroke:#a3e2c6;stroke-miterlimit:10;stroke-width:1.5px;}.cls-2{fill:#232323;}</style></defs><path d="M144.47,44.3c4.45-5.72,7.63-13.34,6.67-21-6.67.32-14.61,4.45-19.37,9.85-4.13,4.76-8,12.71-7,20,7.62,1,14.93-3.17,19.69-8.89m6.67,10.8c-10.8-.64-20,6-25.09,6s-13-5.71-21.6-5.71a31.87,31.87,0,0,0-27,16.51C66,92,74.27,121.49,85.7,137.69c5.4,7.94,12.08,16.84,20.65,16.52,8.26-.32,11.44-5.4,21.29-5.4s12.7,5.4,21.6,5.08,14.61-7.94,20-16.2a64.07,64.07,0,0,0,8.89-18.42c-.31-.32-17.47-6.67-17.47-26.37-.31-16.52,13.34-24.46,14-24.78-7.31-11.43-19.38-12.7-23.51-13"></path><path d="M244.54,32.54c23.5,0,39.7,16.2,39.7,39.39,0,23.51-16.51,39.71-40.34,39.71H218.17v41H199.43V32.54ZM218.17,96.08h21.28c16.2,0,25.42-8.9,25.42-23.83,0-15.25-9.22-23.82-25.42-23.82h-21.6V96.08ZM289,128.16c0-15.25,11.75-24.78,32.72-26l24.14-1.27V94.17c0-9.85-6.67-15.56-17.47-15.56-10.48,0-16.84,5.08-18.42,12.7H292.82c.95-15.88,14.61-27.63,36.22-27.63,21.28,0,34.94,11.11,34.94,28.9v60.36H346.82v-14.3h-.31c-5.09,9.85-16.2,15.89-27.64,15.89C301.08,154.53,289,143.73,289,128.16Zm56.86-7.94v-7l-21.6,1.27c-10.8.64-16.84,5.4-16.84,13s6.36,12.7,15.89,12.7c12.7,0,22.55-8.57,22.55-20Zm34,65.12V170.73a34.3,34.3,0,0,0,5.72.32c8.26,0,12.71-3.5,15.56-12.39,0-.32,1.59-5.4,1.59-5.4L371,65.58h19.37l22.24,71.48h.32l22.24-71.48h19.05L421.48,158c-7.63,21.29-16.21,28-34.31,28-1.27-.32-5.72-.32-7.31-.64Z"></path><rect class="cls-1" x="414.19" y="26.37" width="201.46" height="56.58" rx="12"></rect><path class="cls-2" d="M432.29,54.69c0-2.94.11-3.92.53-5.16,1-3.1,3.45-4.67,6.78-4.67a6.72,6.72,0,0,1,6.64,4.22.22.22,0,0,1-.14.34L443,50.79a.26.26,0,0,1-.39-.14,3.13,3.13,0,0,0-3-2.15,2.79,2.79,0,0,0-2.86,2.1,13.15,13.15,0,0,0-.31,4.09,13.11,13.11,0,0,0,.31,4.08,2.79,2.79,0,0,0,2.86,2.1,3.13,3.13,0,0,0,3-2.15.26.26,0,0,1,.39-.14L446.1,60a.22.22,0,0,1,.14.34,6.7,6.7,0,0,1-6.64,4.22c-3.33,0-5.77-1.56-6.78-4.67C432.4,58.6,432.29,57.62,432.29,54.69Z"></path><path class="cls-2" d="M448.22,59.89a15.37,15.37,0,0,1-.53-5.2,15.4,15.4,0,0,1,.53-5.21c1-3.08,3.62-4.62,6.95-4.62s6,1.54,6.94,4.62a15.4,15.4,0,0,1,.53,5.21,15.37,15.37,0,0,1-.53,5.2c-1,3.08-3.61,4.62-6.94,4.62S449.2,63,448.22,59.89Zm9.94-1.12a13.63,13.63,0,0,0,.31-4.08,13.67,13.67,0,0,0-.31-4.09,3.19,3.19,0,0,0-6,0,14,14,0,0,0-.31,4.09,14,14,0,0,0,.31,4.08,3.19,3.19,0,0,0,6,0Z"></path><path class="cls-2" d="M465.08,45.45a.26.26,0,0,1,.28-.28h3.33a.42.42,0,0,1,.45.28L474,56.31h.11l4.73-10.86a.42.42,0,0,1,.45-.28h3.27a.26.26,0,0,1,.28.28V63.93a.27.27,0,0,1-.28.28h-3.16a.27.27,0,0,1-.28-.28V53.2H479l-3.53,8a.53.53,0,0,1-.53.36H473a.54.54,0,0,1-.54-.36l-3.52-8h-.12V63.93a.27.27,0,0,1-.28.28h-3.16a.27.27,0,0,1-.28-.28Z"></path><path class="cls-2" d="M485.74,45.45a.27.27,0,0,1,.28-.28h3.56a.26.26,0,0,1,.28.28V63.93a.27.27,0,0,1-.28.28H486a.27.27,0,0,1-.28-.28Z"></path><path class="cls-2" d="M492.8,45.45a.26.26,0,0,1,.28-.28h3.36a.5.5,0,0,1,.47.28l6.73,12h.14v-12a.26.26,0,0,1,.28-.28h3.16a.26.26,0,0,1,.28.28V63.93a.27.27,0,0,1-.28.28h-3.33a.5.5,0,0,1-.48-.28l-6.75-12h-.14v12a.27.27,0,0,1-.28.28h-3.16a.27.27,0,0,1-.28-.28Z"></path><path class="cls-2" d="M509.94,54.69a15.4,15.4,0,0,1,.53-5.21c1-3.08,3.61-4.62,7-4.62,3.55,0,5.88,1.76,6.77,4.06a.28.28,0,0,1-.11.42l-3,1.26c-.19,0-.33,0-.39-.14a3.47,3.47,0,0,0-3.27-2,2.94,2.94,0,0,0-3.06,2.12,14.08,14.08,0,0,0-.3,4.07,14.17,14.17,0,0,0,.3,4.08,3,3,0,0,0,3.11,2.1,3,3,0,0,0,3.05-2A6.49,6.49,0,0,0,520.8,57a.15.15,0,0,0-.17-.17h-2.58a.26.26,0,0,1-.27-.28V53.9a.26.26,0,0,1,.27-.28h6.56a.26.26,0,0,1,.28.28v1.57a15,15,0,0,1-.48,4.28c-.95,3.06-3.58,4.76-6.94,4.76s-6-1.54-7-4.62A15.37,15.37,0,0,1,509.94,54.69Z"></path><path class="cls-2" d="M532.31,61.91a.34.34,0,0,1,0-.48L534.41,59a.28.28,0,0,1,.42,0,8,8,0,0,0,5,2c2,0,3.11-.93,3.11-2.27,0-1.12-.67-1.82-2.94-2.13l-1-.14c-3.86-.53-6-2.35-6-5.71s2.63-5.82,6.75-5.82a10.73,10.73,0,0,1,6.47,2c.16.11.19.22.05.42l-1.71,2.54a.28.28,0,0,1-.39.09,7.86,7.86,0,0,0-4.42-1.46c-1.68,0-2.55.87-2.55,2.07s.78,1.8,3,2.1l1,.14c3.92.54,6,2.33,6,5.77s-2.55,6-7.48,6A11.19,11.19,0,0,1,532.31,61.91Z"></path><path class="cls-2" d="M549.22,59.89a15.37,15.37,0,0,1-.53-5.2,15.4,15.4,0,0,1,.53-5.21c1-3.08,3.61-4.62,6.94-4.62s6,1.54,7,4.62a15.4,15.4,0,0,1,.53,5.21,15.37,15.37,0,0,1-.53,5.2c-1,3.08-3.62,4.62-7,4.62S550.2,63,549.22,59.89Zm9.94-1.12a14,14,0,0,0,.31-4.08,14,14,0,0,0-.31-4.09,3.19,3.19,0,0,0-6,0,13.67,13.67,0,0,0-.31,4.09,13.63,13.63,0,0,0,.31,4.08,3.19,3.19,0,0,0,6,0Z"></path><path class="cls-2" d="M566.1,59.89a15.37,15.37,0,0,1-.53-5.2,15.4,15.4,0,0,1,.53-5.21c1-3.08,3.61-4.62,6.95-4.62s6,1.54,6.94,4.62a15.4,15.4,0,0,1,.53,5.21,15.37,15.37,0,0,1-.53,5.2c-1,3.08-3.61,4.62-6.94,4.62S567.08,63,566.1,59.89ZM576,58.77a13.63,13.63,0,0,0,.31-4.08A13.67,13.67,0,0,0,576,50.6a3.19,3.19,0,0,0-6,0,14,14,0,0,0-.31,4.09,14,14,0,0,0,.31,4.08,3.19,3.19,0,0,0,6,0Z"></path><path class="cls-2" d="M583,45.45a.26.26,0,0,1,.28-.28h3.36a.51.51,0,0,1,.47.28l6.72,12h.14v-12a.27.27,0,0,1,.28-.28h3.17a.26.26,0,0,1,.28.28V63.93a.27.27,0,0,1-.28.28h-3.33a.5.5,0,0,1-.48-.28l-6.75-12h-.14v12a.27.27,0,0,1-.28.28h-3.16a.27.27,0,0,1-.28-.28Z"></path></svg> 