<?xml version="1.0" encoding="UTF-8"?> <svg xmlns="http://www.w3.org/2000/svg" id="Layer_1" data-name="Layer 1" viewBox="0 0 649.12 199.79"><defs><style>.cls-1{fill:#191919;}.cls-2{fill:#4285f4;}.cls-3{fill:#34a853;}.cls-4{fill:#fbbc04;}.cls-5{fill:#ea4335;}.cls-6{fill:#ccffde;stroke:#a3e2c6;stroke-miterlimit:10;stroke-width:1.5px;}.cls-7{fill:#232323;}</style></defs><path class="cls-1" d="M300.92,100.32V142.8H287.44V37.88h35.74A32.31,32.31,0,0,1,346.33,47,29.19,29.19,0,0,1,356,69.1a29.07,29.07,0,0,1-9.67,22.28q-9.37,8.94-23.15,8.93Zm0-49.52V87.43h22.6a18.26,18.26,0,0,0,13.69-30.71c-.13-.13-.23-.25-.36-.36a17.58,17.58,0,0,0-13.33-5.56Zm86.14,17.87q15,0,23.6,8t8.63,21.9V142.8H406.41v-10h-.59q-8.37,12.31-22.27,12.31-11.87,0-19.85-7a22.45,22.45,0,0,1-8-17.58q0-11.14,8.43-17.72t22.49-6.59c8,0,14.6,1.47,19.77,4.39V97.51a15.35,15.35,0,0,0-5.57-11.93,19,19,0,0,0-13-4.9q-11.28,0-17.87,9.52l-11.87-7.48q9.77-14.06,29-14Zm-17.44,52.16a10.79,10.79,0,0,0,4.46,8.79,16.45,16.45,0,0,0,10.48,3.51,21.47,21.47,0,0,0,15.16-6.3,19.66,19.66,0,0,0,6.7-14.8c-4.2-3.34-10.06-5-17.58-5q-8.22,0-13.7,4c-3.69,2.69-5.52,6-5.52,9.87ZM493.3,71l-45,103.44H434.39l16.69-36.19L421.48,71h14.65l21.39,51.57h.29L478.62,71Z"></path><path class="cls-2" d="M246.45,91.15a72,72,0,0,0-1-12.26H188.56V102.1h32.55a27.85,27.85,0,0,1-12,18.31v15.08h19.43c11.38-10.47,17.94-26,17.94-44.34Z"></path><path class="cls-3" d="M188.56,150.06c16.27,0,30-5.34,39.95-14.56l-19.43-15.07c-5.41,3.67-12.37,5.76-20.52,5.76-15.72,0-29.07-10.59-33.84-24.87h-20v15.53A60.25,60.25,0,0,0,188.56,150.06Z"></path><path class="cls-4" d="M154.72,101.32a36.18,36.18,0,0,1,0-23.08V62.71h-20a60.28,60.28,0,0,0,0,54.14Z"></path><path class="cls-5" d="M188.56,53.37a32.74,32.74,0,0,1,23.12,9l17.21-17.2a58,58,0,0,0-40.33-15.7,60.29,60.29,0,0,0-53.85,33.21l20,15.53C159.49,64,172.84,53.37,188.56,53.37Z"></path><rect class="cls-6" x="412.42" y="29.37" width="201.46" height="56.58" rx="12"></rect><path class="cls-7" d="M430.52,58.68c0-2.94.11-3.92.53-5.15,1-3.11,3.45-4.68,6.78-4.68a6.71,6.71,0,0,1,6.64,4.23.22.22,0,0,1-.15.34l-3.05,1.37a.27.27,0,0,1-.39-.14,3.14,3.14,0,0,0-3-2.16,2.8,2.8,0,0,0-2.86,2.1,13.2,13.2,0,0,0-.31,4.09,13.15,13.15,0,0,0,.31,4.09,2.79,2.79,0,0,0,2.86,2.1,3.13,3.13,0,0,0,3-2.16.28.28,0,0,1,.39-.14L444.32,64a.21.21,0,0,1,.15.33,6.71,6.71,0,0,1-6.64,4.23c-3.33,0-5.77-1.57-6.78-4.68C430.63,62.6,430.52,61.62,430.52,58.68Z"></path><path class="cls-7" d="M446.45,63.89a15.44,15.44,0,0,1-.53-5.21,15.44,15.44,0,0,1,.53-5.21c1-3.08,3.62-4.62,6.95-4.62s6,1.54,6.94,4.62a15.44,15.44,0,0,1,.53,5.21,15.44,15.44,0,0,1-.53,5.21c-1,3.08-3.61,4.62-6.94,4.62S447.43,67,446.45,63.89Zm9.94-1.12a13.72,13.72,0,0,0,.31-4.09,13.77,13.77,0,0,0-.31-4.09,3.19,3.19,0,0,0-6,0,14.14,14.14,0,0,0-.31,4.09,14.1,14.1,0,0,0,.31,4.09,3.19,3.19,0,0,0,6,0Z"></path><path class="cls-7" d="M463.31,49.44a.26.26,0,0,1,.28-.28h3.33a.44.44,0,0,1,.45.28l4.81,10.87h.12L477,49.44a.43.43,0,0,1,.45-.28h3.27a.26.26,0,0,1,.28.28V67.92a.26.26,0,0,1-.28.28h-3.16a.26.26,0,0,1-.28-.28V57.2h-.11l-3.53,8a.53.53,0,0,1-.53.37H471.2a.53.53,0,0,1-.53-.37l-3.52-8H467V67.92a.26.26,0,0,1-.28.28h-3.16a.26.26,0,0,1-.28-.28Z"></path><path class="cls-7" d="M484,49.44a.26.26,0,0,1,.28-.28h3.56a.26.26,0,0,1,.28.28V67.92a.26.26,0,0,1-.28.28h-3.56a.26.26,0,0,1-.28-.28Z"></path><path class="cls-7" d="M491,49.44a.26.26,0,0,1,.28-.28h3.36a.53.53,0,0,1,.47.28l6.72,12H502v-12a.27.27,0,0,1,.28-.28h3.17a.26.26,0,0,1,.28.28V67.92a.26.26,0,0,1-.28.28h-3.33a.49.49,0,0,1-.48-.28l-6.75-12h-.14v12a.26.26,0,0,1-.28.28h-3.16a.26.26,0,0,1-.28-.28Z"></path><path class="cls-7" d="M508.16,58.68a15.37,15.37,0,0,1,.54-5.21c1-3.08,3.61-4.62,7-4.62,3.55,0,5.87,1.77,6.77,4.06a.28.28,0,0,1-.11.42l-3,1.26a.29.29,0,0,1-.39-.14,3.48,3.48,0,0,0-3.27-2,3,3,0,0,0-3.06,2.13,14,14,0,0,0-.3,4.06,14.26,14.26,0,0,0,.3,4.09,3,3,0,0,0,3.11,2.1,3,3,0,0,0,3-2A6.56,6.56,0,0,0,519,61c0-.11-.06-.16-.17-.16h-2.58a.27.27,0,0,1-.28-.28V57.9a.27.27,0,0,1,.28-.28h6.56a.27.27,0,0,1,.28.28v1.57a15,15,0,0,1-.48,4.28c-.95,3-3.58,4.76-6.94,4.76s-6-1.54-7-4.62A15.37,15.37,0,0,1,508.16,58.68Z"></path><path class="cls-7" d="M530.54,65.91a.34.34,0,0,1,0-.48L532.64,63a.27.27,0,0,1,.42,0,8.11,8.11,0,0,0,5,2c2,0,3.11-.93,3.11-2.27,0-1.12-.67-1.82-2.94-2.13l-1-.14c-3.87-.53-6-2.35-6-5.71s2.63-5.83,6.75-5.83a10.8,10.8,0,0,1,6.47,2c.16.11.19.23.05.42l-1.71,2.55a.27.27,0,0,1-.39.08,7.87,7.87,0,0,0-4.42-1.45c-1.68,0-2.55.87-2.55,2.07s.78,1.79,3,2.1l1,.14c3.92.53,6,2.32,6,5.77s-2.55,6-7.48,6A11.24,11.24,0,0,1,530.54,65.91Z"></path><path class="cls-7" d="M547.45,63.89a15.37,15.37,0,0,1-.54-5.21,15.37,15.37,0,0,1,.54-5.21c1-3.08,3.61-4.62,6.94-4.62s6,1.54,6.94,4.62a15.37,15.37,0,0,1,.54,5.21,15.37,15.37,0,0,1-.54,5.21c-1,3.08-3.61,4.62-6.94,4.62S548.43,67,547.45,63.89Zm9.94-1.12a14.26,14.26,0,0,0,.3-4.09,14.31,14.31,0,0,0-.3-4.09,3.19,3.19,0,0,0-6,0,13.77,13.77,0,0,0-.31,4.09,13.72,13.72,0,0,0,.31,4.09,3.19,3.19,0,0,0,6,0Z"></path><path class="cls-7" d="M564.33,63.89a15.44,15.44,0,0,1-.53-5.21,15.44,15.44,0,0,1,.53-5.21c1-3.08,3.61-4.62,6.94-4.62s6,1.54,7,4.62a15.44,15.44,0,0,1,.53,5.21,15.44,15.44,0,0,1-.53,5.21c-1,3.08-3.61,4.62-7,4.62S565.31,67,564.33,63.89Zm9.94-1.12a14.1,14.1,0,0,0,.31-4.09,14.14,14.14,0,0,0-.31-4.09,3.19,3.19,0,0,0-6,0,14.14,14.14,0,0,0-.31,4.09,14.1,14.1,0,0,0,.31,4.09,3.19,3.19,0,0,0,6,0Z"></path><path class="cls-7" d="M581.19,49.44a.26.26,0,0,1,.28-.28h3.36a.53.53,0,0,1,.47.28l6.72,12h.14v-12a.26.26,0,0,1,.28-.28h3.17a.27.27,0,0,1,.28.28V67.92a.27.27,0,0,1-.28.28h-3.34a.48.48,0,0,1-.47-.28l-6.75-12h-.14v12a.26.26,0,0,1-.28.28h-3.16a.26.26,0,0,1-.28-.28Z"></path></svg> 