<?xml version="1.0" encoding="UTF-8"?> <svg xmlns="http://www.w3.org/2000/svg" xmlns:xlink="http://www.w3.org/1999/xlink" id="Layer_1" data-name="Layer 1" viewBox="0 0 612.25 597.24"><defs><style>.cls-1{isolation:isolate;}.cls-2{fill:#faeeee;}.cls-2,.cls-3,.cls-4,.cls-9{stroke:#1e1e1e;}.cls-13,.cls-14,.cls-15,.cls-2,.cls-3,.cls-4,.cls-5,.cls-6,.cls-7,.cls-9{stroke-miterlimit:10;}.cls-10,.cls-11,.cls-12,.cls-13,.cls-14,.cls-15,.cls-2,.cls-3,.cls-4,.cls-5,.cls-6,.cls-7,.cls-8,.cls-9{stroke-width:1.25px;}.cls-3{fill:#fff;}.cls-4{fill:#d2ffe0;}.cls-5{fill:#0dff9c;}.cls-5,.cls-8{stroke:#2d2d2d;}.cls-13,.cls-14,.cls-15,.cls-6,.cls-7{stroke:#221e14;}.cls-6{fill:url(#linear-gradient);}.cls-7{fill:url(#linear-gradient-2);}.cls-8{fill:#191919;}.cls-10,.cls-11,.cls-12,.cls-8{stroke-linecap:round;stroke-linejoin:round;}.cls-9{fill:#e1ffeb;}.cls-10,.cls-12{fill:none;}.cls-10,.cls-11{stroke:#1f1000;}.cls-11{fill:#ffc48a;}.cls-12{stroke:#262626;}.cls-13{fill:#fff2ee;}.cls-14{fill:#eac7be;}.cls-15{fill:#ffc0ab;}</style><linearGradient id="linear-gradient" x1="418.73" y1="459.81" x2="229.52" y2="459.81" gradientTransform="matrix(1, 0.02, -0.02, 0.86, -28.84, 51.39)" gradientUnits="userSpaceOnUse"><stop offset="0" stop-color="#0dff9c"></stop><stop offset="0.05" stop-color="#20ff9c"></stop><stop offset="0.28" stop-color="#6aff9c"></stop><stop offset="0.44" stop-color="#99ff9c"></stop><stop offset="0.52" stop-color="#abff9c"></stop><stop offset="0.69" stop-color="#c5eba1"></stop><stop offset="1" stop-color="#ffc0ab"></stop></linearGradient><linearGradient id="linear-gradient-2" x1="418.76" y1="463.23" x2="229.55" y2="463.23" gradientTransform="matrix(1, 0.02, -0.02, 0.86, -28.86, 51.39)" xlink:href="#linear-gradient"></linearGradient></defs><g class="cls-1"><polygon class="cls-2" points="4.88 324.71 6.75 367.07 137.42 496.8 135.54 454.43 4.88 324.71"></polygon><polygon class="cls-2" points="175.05 196.14 4.88 324.71 135.54 454.43 436.39 455.58 606.56 327.02 475.89 197.29 175.05 196.14"></polygon><polygon class="cls-2" points="135.54 454.43 137.42 496.8 438.27 497.95 436.39 455.58 135.54 454.43"></polygon><polygon class="cls-2" points="436.39 455.58 438.27 497.95 608.44 369.39 606.56 327.02 436.39 455.58"></polygon></g><g class="cls-1"><polygon class="cls-2" points="2.64 284.24 4.52 326.61 135.19 456.33 133.31 413.96 2.64 284.24"></polygon><polygon class="cls-2" points="172.82 155.68 2.64 284.24 133.31 413.96 434.16 415.12 604.33 286.55 473.66 156.83 172.82 155.68"></polygon><polygon class="cls-2" points="133.31 413.96 135.19 456.33 436.03 457.49 434.16 415.12 133.31 413.96"></polygon><polygon class="cls-2" points="434.16 415.12 436.03 457.49 606.21 328.92 604.33 286.55 434.16 415.12"></polygon><polygon class="cls-3" points="172.27 155.54 2.1 284.11 132.77 413.83 433.61 414.98 603.79 286.42 473.12 156.7 172.27 155.54"></polygon></g><path class="cls-2" d="M527.33,241.17l.21,46.19c0,6.45,10.09,11.62,22.49,11.57s22.42-5.32,22.39-11.77L572.21,241Z"></path><ellipse class="cls-3" cx="301.91" cy="292.63" rx="188.76" ry="76.49" transform="translate(-1.3 1.34) rotate(-0.25)"></ellipse><ellipse class="cls-3" cx="549.73" cy="242.19" rx="22.44" ry="11.67" transform="translate(-1.07 2.44) rotate(-0.25)"></ellipse><path class="cls-4" d="M542.29,243.26l0,0a12.91,12.91,0,0,0,17.23-1.74h0c0-.16,0-.54-1.37-11.1-1.92-15.4-18.61-21.35-20.51-22l-.56-.17c-2.69-.76-9-3.46-7.48-11.44,3.54-18.5-9.14-30.51-16.34-34.28l-.2-.1c-1-.5-10.35-4.83-20-.38-7,3.22-11.81,9.85-14.32,19.69l16.81,4.28c1.1-4.35,2.78-7.26,4.71-8.2s4.49-.07,5.12.18c1.48.87,9,5.86,7.18,15.55-3.47,18.14,9.8,28.63,19.79,31.39,2.69,1,8.14,4,8.59,7.61C542.11,241.7,542.27,243.06,542.29,243.26Z"></path><path class="cls-5" d="M541.82,242.44a6.77,6.77,0,0,0,4.54,2.93l2.31.41,0-1.14h-.07c-.22-3.33-.87-8.26-1.4-11.95-1-7.36-7.45-9.54-10.53-10.58l-.86-.3-.27-.09c-8-2.2-22.1-11.18-18.61-29.46A18.58,18.58,0,0,0,511.47,175,11.14,11.14,0,0,0,499,172.83l-.12.06c-3.06,1.47-5.37,5.18-6.85,11l6.72,1.71c1.14-4.45,2.57-6.18,3.18-6.47a4.16,4.16,0,0,1,4.68.85,11.49,11.49,0,0,1,3.5,11c-4.1,21.48,11.73,34.11,23.45,37.41l.88.3c3.19,1.09,5.48,2.08,5.9,5,.78,5.46,1.25,6.26,1.35,8.56A.58.58,0,0,0,541.82,242.44Z"></path><rect class="cls-6" x="190.99" y="439.32" width="189.24" height="28.93" rx="14.46" transform="translate(2.22 -1.39) rotate(0.28)"></rect><rect class="cls-7" x="190.93" y="442.27" width="189.24" height="28.93" rx="14.46" transform="translate(2.24 -1.39) rotate(0.28)"></rect><circle class="cls-3" cx="402.92" cy="453.49" r="15.16"></circle><circle class="cls-3" cx="402.55" cy="456.53" r="15.16"></circle><ellipse class="cls-8" cx="345.82" cy="351.99" rx="75.4" ry="20.97" transform="translate(-1.56 1.54) rotate(-0.25)"></ellipse><ellipse class="cls-8" cx="431.41" cy="301.87" rx="86.85" ry="20.97" transform="translate(-14.96 22.59) rotate(-2.95)"></ellipse><path class="cls-2" d="M38.26,237.91l.21,46.18c0,6.45,10.1,11.62,22.49,11.57s22.42-5.31,22.39-11.77l-.21-46.18Z"></path><ellipse class="cls-3" cx="60.75" cy="238.92" rx="22.44" ry="11.67" transform="matrix(1, 0, 0, 1, -1.06, 0.27)"></ellipse><path class="cls-4" d="M70.2,239.92l0,0a12.9,12.9,0,0,1-17.24-1.58h0c0-.16,0-.54,1.27-11.11,1.78-15.42,18.42-21.52,20.31-22.17l.56-.16c2.69-.79,9-3.55,7.38-11.52-3.7-18.46,8.88-30.58,16-34.41l.19-.1c1-.52,10.32-4.93,20-.57,7,3.16,11.9,9.75,14.5,19.57l-16.77,4.43c-1.15-4.35-2.85-7.24-4.79-8.16s-4.48,0-5.11.22c-1.48.89-9,5.94-7,15.62,3.63,18.11-9.54,28.71-19.51,31.56-2.68,1-8.1,4.1-8.52,7.69C70.37,238.36,70.22,239.73,70.2,239.92Z"></path><circle class="cls-3" cx="167.54" cy="455.71" r="15.16"></circle><circle class="cls-3" cx="167.16" cy="458.74" r="15.16"></circle><path class="cls-5" d="M71,238.31a6.77,6.77,0,0,1-4.51,3l-2.3.43,0-1.14h.08c.19-3.34.79-8.27,1.28-12,1-7.36,7.37-9.6,10.44-10.67l.86-.31.27-.09c7.94-2.27,22-11.38,18.35-29.62a18.55,18.55,0,0,1,5.33-17.32,11.13,11.13,0,0,1,12.43-2.27l.11.05c3.07,1.46,5.42,5.14,7,10.94l-6.71,1.77c-1.17-4.45-2.62-6.16-3.23-6.45a4.19,4.19,0,0,0-4.67.89,11.53,11.53,0,0,0-3.41,11c4.3,21.45-11.42,34.22-23.11,37.63l-.87.31c-3.19,1.11-5.47,2.12-5.86,5-.73,5.47-1.19,6.28-1.28,8.58A.68.68,0,0,1,71,238.31Z"></path><path class="cls-9" d="M480,162.87c-18.06-15.61-43.87-21-65.45-12.41a92.09,92.09,0,0,0-9.12,4.25,66,66,0,0,0-65.59,1.41c-23.32,14.36-37.16,43.19-36.33,71.84A99.14,99.14,0,0,0,341,301.4a106.35,106.35,0,0,0,138.89-8.47,96.48,96.48,0,0,0,27.8-65C508.13,203.47,498.06,178.49,480,162.87Z"></path><path class="cls-5" d="M503.63,207.27c.66,12.12-.24,25.06-7,35-6.6,9.61-17.9,15.06-29.27,17.59-17,3.93-36,1.68-50-8.75-18.48-13.76-25.85-39.41-45.57-51.3-14.66-8.87-33.37-8-49.56-2.56a85.19,85.19,0,0,0-16.17,7.37A87,87,0,0,0,303.5,228,99.16,99.16,0,0,0,341,301.42,106.36,106.36,0,0,0,479.85,293a96.49,96.49,0,0,0,27.79-65,88.69,88.69,0,0,0-4.76-30.35C503.19,200.82,503.48,204.05,503.63,207.27Z"></path><path class="cls-10" d="M480,162.87c-18.06-15.61-43.87-21-65.45-12.41a92.09,92.09,0,0,0-9.12,4.25,66,66,0,0,0-65.59,1.41c-23.32,14.36-37.16,43.19-36.33,71.84A99.14,99.14,0,0,0,341,301.4a106.35,106.35,0,0,0,138.89-8.47,96.48,96.48,0,0,0,27.8-65C508.13,203.47,498.06,178.49,480,162.87Z"></path><polyline class="cls-11" points="403.93 164.58 409.04 151.06 411.85 152.64 410.23 162.96"></polyline><path class="cls-9" d="M399.25,82.83c-10,23.42-3.22,48.14,10.53,70.5,16.8.19,32.66-9.39,42.78-22.75s14.86-30.15,16-46.87-1-33.51-3.67-50C436.79,39.81,412.81,51.09,399.25,82.83Z"></path><path class="cls-5" d="M410.59,153.33c16.79.18,32.66-10.2,42.78-23.57s14.05-29.33,15.22-46-1-32.7-3.66-49.17C417.58,89.56,410.59,153.33,410.59,153.33Z"></path><path class="cls-12" d="M453.73,104.48s-23,6.73-36.23,16"></path><path class="cls-12" d="M458.1,86.85S437.35,91.56,425.34,99"></path><path class="cls-12" d="M417.54,120.45s-3.62-20.76-12.7-36.69"></path><path class="cls-12" d="M425.34,99s-3.91-16.75-12-28.82"></path><path class="cls-10" d="M391.62,161.6A26.26,26.26,0,0,1,413.54,174"></path><path class="cls-10" d="M395.61,171.1a44.42,44.42,0,0,1,25.84-10"></path><path class="cls-9" d="M277.94,164.15c-18.06-15.61-43.87-21-65.45-12.41a92.09,92.09,0,0,0-9.12,4.25,66,66,0,0,0-65.59,1.41c-23.32,14.35-37.16,43.19-36.33,71.84a99.16,99.16,0,0,0,37.46,73.44,106.35,106.35,0,0,0,138.89-8.47,96.5,96.5,0,0,0,27.8-65C306,204.75,296,179.77,277.94,164.15Z"></path><path class="cls-5" d="M301.54,208.55c.66,12.12-.24,25.06-7,35-6.6,9.61-17.9,15.06-29.27,17.59-17,3.93-36,1.68-50-8.76-18.48-13.75-25.85-39.4-45.57-51.29-14.66-8.87-33.37-8-49.56-2.56A85.19,85.19,0,0,0,104,205.91a87,87,0,0,0-2.55,23.34,99.13,99.13,0,0,0,37.45,73.44,106.35,106.35,0,0,0,138.9-8.47,96.45,96.45,0,0,0,27.79-65,88.69,88.69,0,0,0-4.76-30.35C301.1,202.1,301.39,205.33,301.54,208.55Z"></path><path class="cls-10" d="M277.94,164.15c-18.06-15.61-43.87-21-65.45-12.41a92.09,92.09,0,0,0-9.12,4.25,66,66,0,0,0-65.59,1.41c-23.32,14.35-37.16,43.19-36.33,71.84a99.16,99.16,0,0,0,37.46,73.44,106.35,106.35,0,0,0,138.89-8.47,96.5,96.5,0,0,0,27.8-65C306,204.75,296,179.77,277.94,164.15Z"></path><polyline class="cls-11" points="201.84 165.86 206.95 152.34 209.76 153.92 208.14 164.24"></polyline><path class="cls-9" d="M197.16,84.11c-10,23.42-3.22,48.14,10.53,70.5,16.8.18,32.66-9.39,42.78-22.75s14.86-30.15,16-46.88-1.05-33.5-3.67-50C234.7,41.09,210.72,52.37,197.16,84.11Z"></path><path class="cls-5" d="M208.5,154.61c16.79.18,32.66-10.2,42.78-23.57s14-29.33,15.22-46.06-1.05-32.69-3.66-49.16C215.49,90.84,208.5,154.61,208.5,154.61Z"></path><path class="cls-12" d="M251.64,105.76s-23,6.73-36.23,16"></path><path class="cls-12" d="M256,88.13s-20.75,4.71-32.76,12.1"></path><path class="cls-12" d="M215.45,121.73S211.83,101,202.75,85"></path><path class="cls-12" d="M223.25,100.23S219.34,83.48,211.2,71.4"></path><path class="cls-10" d="M189.53,162.88a26.27,26.27,0,0,1,21.92,12.4"></path><path class="cls-10" d="M193.52,172.38a44.42,44.42,0,0,1,25.84-10"></path><path class="cls-3" d="M154.59,210.93a50.47,50.47,0,0,1,5.4,5.83l-.84-1.07a49.45,49.45,0,0,1,3.17,4.56,5.57,5.57,0,0,0,3.19,2.44,5.44,5.44,0,0,0,4.1-.56,5.33,5.33,0,0,0,2.44-3.19,5.44,5.44,0,0,0-.56-4.1,48.24,48.24,0,0,0-8.92-10.71,5.58,5.58,0,0,0-3.77-1.54c-1.31,0-3.34-.19-4.24.8a5.32,5.32,0,0,0-1.54,3.77A5.5,5.5,0,0,0,154.59,210.93Z"></path><path class="cls-3" d="M365.21,223.11a49.76,49.76,0,0,1,5.4,5.84l-.84-1.08a47.47,47.47,0,0,1,3.16,4.56,5.63,5.63,0,0,0,3.2,2.44,5.48,5.48,0,0,0,4.1-.55,5.38,5.38,0,0,0,2.44-3.2,5.44,5.44,0,0,0-.56-4.1,48.51,48.51,0,0,0-8.92-10.71,5.58,5.58,0,0,0-3.77-1.54c-1.31,0-3.34-.18-4.24.8a5.33,5.33,0,0,0-1.54,3.77A5.45,5.45,0,0,0,365.21,223.11Z"></path><path class="cls-13" d="M378.29,213.38c-18.06-15.61-43.87-21-65.46-12.41a93,93,0,0,0-9.11,4.25,66,66,0,0,0-65.59,1.41C214.81,221,201,249.82,201.8,278.47a99.12,99.12,0,0,0,37.46,73.44,106.35,106.35,0,0,0,138.89-8.47,96.5,96.5,0,0,0,27.8-65C406.39,254,396.32,229,378.29,213.38Z"></path><path class="cls-14" d="M401.88,257.78c.67,12.12-.23,25.06-7,35-6.6,9.61-17.9,15-29.28,17.59-17,3.93-36,1.68-50-8.76-18.48-13.75-25.85-39.4-45.57-51.29-14.67-8.87-33.37-8-49.57-2.56a85.76,85.76,0,0,0-16.17,7.37,87.37,87.37,0,0,0-2.54,23.34,99.13,99.13,0,0,0,37.45,73.44,106.35,106.35,0,0,0,138.9-8.47,96.47,96.47,0,0,0,27.79-65,88.69,88.69,0,0,0-4.76-30.35C401.44,251.33,401.74,254.56,401.88,257.78Z"></path><path class="cls-10" d="M378.29,213.38c-18.06-15.61-43.87-21-65.46-12.41a93,93,0,0,0-9.11,4.25,66,66,0,0,0-65.59,1.41C214.81,221,201,249.82,201.8,278.47a99.12,99.12,0,0,0,37.46,73.44,106.35,106.35,0,0,0,138.89-8.47,96.5,96.5,0,0,0,27.8-65C406.39,254,396.32,229,378.29,213.38Z"></path><polyline class="cls-11" points="302.18 215.09 307.3 201.57 310.11 203.15 308.49 213.47"></polyline><path class="cls-13" d="M297.51,133.34c-10,23.42-3.22,48.14,10.53,70.5,16.79.18,32.66-9.39,42.78-22.76s14.85-30.14,16-46.87-1.06-33.5-3.67-50C335.05,90.32,311.07,101.6,297.51,133.34Z"></path><path class="cls-14" d="M308.85,203.84c16.79.18,32.66-10.2,42.78-23.57s14-29.33,15.22-46.06-1.05-32.69-3.66-49.16C315.83,140.07,308.85,203.84,308.85,203.84Z"></path><path class="cls-12" d="M352,155s-23,6.73-36.22,16"></path><path class="cls-12" d="M356.35,137.36s-20.74,4.71-32.75,12.1"></path><path class="cls-12" d="M315.8,171s-3.62-20.76-12.71-36.69"></path><path class="cls-12" d="M323.6,149.46s-3.91-16.75-12.05-28.83"></path><path class="cls-10" d="M289.88,212.11a26.27,26.27,0,0,1,21.92,12.4"></path><path class="cls-10" d="M293.87,221.61a44.39,44.39,0,0,1,25.84-10"></path><path class="cls-3" d="M253.56,263.2A49.76,49.76,0,0,1,259,269l-.84-1.07a48.13,48.13,0,0,1,3.17,4.56,5.59,5.59,0,0,0,3.19,2.43,5.44,5.44,0,0,0,4.1-.55,5.34,5.34,0,0,0,2.44-3.2,5.45,5.45,0,0,0-.56-4.1,48.24,48.24,0,0,0-8.92-10.71,5.58,5.58,0,0,0-3.77-1.54c-1.31,0-3.34-.18-4.24.81a5.29,5.29,0,0,0-1.54,3.76A5.46,5.46,0,0,0,253.56,263.2Z"></path><path class="cls-5" d="M409.93,449.65,399.62,460,394,454.36l-2.51,2.52,8.13,8.11,12.81-12.83Z"></path><path class="cls-15" d="M176,452.32l-2-2-6.41,6.42-6.42-6.41-2,2,6.43,6.42-6.41,6.42,2,2,6.41-6.42,6.43,6.41,2-2-6.42-6.41Z"></path></svg> 