<?xml version="1.0" encoding="UTF-8"?> <svg xmlns="http://www.w3.org/2000/svg" id="Layer_1" data-name="Layer 1" viewBox="0 0 649.12 199.79"><defs><style>.cls-1{fill:#191919;}.cls-2{fill:#ffa022;}</style></defs><path class="cls-1" d="M274.53,150H246L263.85,40.6h28.49ZM222.07,40.6l-27.16,75.27-3.22-16.21h0l-9.59-49.22S181,40.6,168.59,40.6h-44.9l-.53,1.85S136.89,45.31,153,55L177.72,150H207.4L252.73,40.6ZM446.18,150h26.16L449.53,40.6H426.62c-10.57,0-13.15,8.15-13.15,8.15L371,150h29.7l5.94-16.26h36.22L446.18,150Zm-31.36-38.72,15-40.95,8.43,40.95Zm-41.61-44.4,4.06-23.51s-12.55-4.77-25.62-4.77c-14.14,0-47.72,6.18-47.72,36.23,0,28.27,39.41,28.63,39.41,43.48s-35.35,12.19-47,2.82l-4.23,24.57s12.72,6.18,32.16,6.18S373,141.86,373,114.46C373,86,333.26,83.35,333.26,71S361,60.2,373.21,66.92Z"></path><path class="cls-2" d="M191.7,99.66l-9.59-49.21S181,40.6,168.59,40.6h-44.9l-.53,1.85a110.41,110.41,0,0,1,42.29,21.23C185.24,79.7,191.7,99.66,191.7,99.66Z"></path></svg> 