<?xml version="1.0" encoding="UTF-8"?> <svg xmlns="http://www.w3.org/2000/svg" id="Layer_1" data-name="Layer 1" viewBox="0 0 649.12 199.79"><defs><style>.cls-1,.cls-2,.cls-3{fill-rule:evenodd;}.cls-2{fill:#fff;}.cls-3{fill:#99c78f;}</style></defs><path class="cls-1" d="M160.54,1.12H463.41l.71.07,2.13.26,1.33.36,1.35.45,1.25.64,1.16.68,1.12.81a14.24,14.24,0,0,1,5.05,9.51l.14,1.4V184.77l-.07.76-.24,2.15L477,189l-.45,1.3-.66,1.26-.66,1.14a14.1,14.1,0,0,1-10.38,6.2l-1.4,0H159.78l-2.16-.26-1.32-.33-1.33-.47-1.26-.62-1.16-.71a14.1,14.1,0,0,1-6.21-10.35l0-1.44V14.61l.26-2.15.38-1.33.42-1.3L148,8.55l.69-1.13a14.45,14.45,0,0,1,11.85-6.3Z"></path><path class="cls-2" d="M156.63,125.33v1.83c-4.34.14-2.65,5.64-1.35,7.89a35.4,35.4,0,0,1,3.37,12.14c.6,6.24-10.11,18.11-1.17,19.63v1.75c-13.71-1.21.75-15.47-.61-22.3-.62-5.4-3.15-8.87-4.79-13.83-1.29-4.14,0-6.73,4.55-7.11Z"></path><path class="cls-2" d="M152.29,144l1.16,1.26.41,1.23-.1,1.23-.49,1.06-1,.76V144Zm315.24-18.71v1.83c4.2.22,2.66,5.72,1.26,7.89a34.92,34.92,0,0,0-3.3,12.14c-.83,6,10.11,18.12,1.14,19.63v1.75c13.62-1.23-.74-15.46.59-22.3.42-5,3.3-9.17,4.77-13.83,1.38-4.08-.05-6.7-4.46-7.11Z"></path><path class="cls-2" d="M471.82,144l-1,.87-.47,1.14-.08,1.26.38,1.18,1.19,1.09ZM217.14,11.77H219c-.1-3.48,4.11-2.93,6.24-2.08a34.5,34.5,0,0,0,12,3.91c4.55,1,9-1.78,13.06-3.27,3.87-1.35,7.11-2.8,8.44,2.34h1.8c-1.41-13.62-15.55.76-22.47-.59-5-.48-9.23-3.22-13.86-4.78-4-1.29-6.77.07-7.06,4.47Z"></path><path class="cls-2" d="M235.91,7.49l.83,1,1.11.49,1.28.05,1.21-.38,1.16-1.18Zm-58.09,4.38c15.84,8.22,25.49-10.36,29.17.8h1.78c-.35-9.55-10-5.14-14.88-2.29-5.6,2.6-10.93,2.35-16.07-1.14v2.63Z"></path><path class="cls-2" d="M184.12,7.49l.86,1,1.13.49,1.26.05,1.21-.38,1.11-1.18Zm82.17,4.28h1.83c0-3.53,4.1-2.9,6.28-2.08a33.88,33.88,0,0,0,12,3.91c7.43,2.19,19.31-10.38,21.52-.93h1.75c-1.45-13.62-15.53.76-22.47-.59-5-.46-9.23-3.23-13.86-4.78-4.11-1.26-6.69,0-7.09,4.47Z"></path><path class="cls-2" d="M285.09,7.49l.8,1,1.16.49,1.26.05,1.18-.38,1.16-1.18Zm31.26,4.28h1.82l.19-1.23,1.09-1.09,1.24-.4h1.11l1.26.26,3,1.23a34.93,34.93,0,0,0,12.18,3.27c3.88,0,7.65-2.14,11.21-3.48,4-1.35,7.05-2.82,8.49,2.34h1.77c-1.29-13.22-15-.05-21.63-.52-7.35.52-20.49-11.89-21.71-.38Z"></path><path class="cls-2" d="M335.07,7.49l.83,1L337,9l1.27.05,1.19-.38,1.14-1.18Zm29.55,4.28h1.85c-.1-3.52,4.11-2.9,6.26-2.08a34.28,34.28,0,0,0,12,3.91c4.44,1,9-1.77,13-3.27,3.92-1.35,7-2.81,8.46,2.34h1.81c-1.51-13.62-15.54.76-22.5-.59-5-.47-9.22-3.23-13.86-4.78-4.07-1.28-6.75,0-7.09,4.47Z"></path><path class="cls-2" d="M383.42,7.49l.85,1,1.14.49,1.23.05,1.23-.38L389,7.49Z"></path><path class="cls-2" d="M364.62,11.77h1.85c-.1-3.52,4.11-2.9,6.26-2.08a34.28,34.28,0,0,0,12,3.91c4.44,1,9-1.77,13-3.27,3.92-1.35,7-2.81,8.46,2.34h1.81c-1.51-13.62-15.54.76-22.5-.59-5-.47-9.22-3.23-13.86-4.78-4.07-1.28-6.75,0-7.09,4.47Z"></path><path class="cls-2" d="M383.42,7.49l.85,1,1.14.49,1.23.05,1.23-.38L389,7.49Zm30.38,4.28h1.83l.21-1.23,1.07-1.09,1.25-.4h1.07l1.28.26c3.08,1,5.83,2.83,9.55,3.67,9,2.19,9.25-.45,17-2.34V8.46c-7.92,2.32-10.11,4.6-18.25,1.65-4.77-1.48-14.24-7.38-15,1.66Z"></path><path class="cls-2" d="M432.6,7.49l.85,1,1.11.49,1.26.05L437,8.67l1.13-1.18Zm-276,68.85v1.8l-1.35.24-1.07,1.06-.35,1.26v1.09l.21,1.26.48,1.32a37.63,37.63,0,0,1,3.86,12c2.18,7.12-10.43,19.63-.93,21.38v1.8c-4.87.18-6.67-3.21-5.54-7.7,1.62-5.5,6.46-10.36,4.55-16.83-.79-6-10.62-17.61.14-18.69Z"></path><path class="cls-2" d="M152.29,95l1.16,1.28.41,1.18-.1,1.25-.49,1.07-1,.73V95ZM467.53,76.34v1.8c3.48.1,3,4,2.09,6.23a35,35,0,0,0-3.91,12c-1.13,4.39,2.12,9.69,3.65,13.92,1,3.57,2.08,6.27-2.73,7.46v1.8c4.84.19,6.64-3.33,5.52-7.7-1.74-5.57-6.35-10.32-4.57-16.83,1.06-4.57,3.05-7.3,4.41-11.6,1.39-4.07-.07-6.68-4.46-7.09Z"></path><path class="cls-2" d="M471.82,95l-1,.87L470.33,97l-.08,1.28.38,1.23,1.19,1ZM153.76,32.59c-.48,2.22,1.53,4.94,2.3,6.93,1.25,3.2,2.71,8.12,2.51,11.53-.31,3.61-2.57,7.76-3.86,11.18-1,3.72-2,6.17,2.77,7.44v1.75c-11.69-.56-2.62-13-1.18-17.83,2.87-7.63-4.58-13.79-4.81-21Z"></path><path class="cls-2" d="M152.29,46.86l1.16,1.28.41,1.21-.1,1.25-.49,1.1-1,.73V46.86ZM469.54,32c.77,5.13-4.05,11.15-4.43,16.74-.49,4.38,1.69,7.73,3.44,11.61,1.42,3.82,3.72,7.94-1.92,9.28v1.75c12-.68,2.09-13.31.85-19-1.77-7.59,5.11-13.25,4.86-20.39Z"></path><path class="cls-2" d="M471.82,46.86l-1,.9-.47,1.14-.08,1.28.38,1.18,1.19,1.07ZM158.2,173.55v1.91c-3.44,0-4.49,3.15-3.82,6l.66,1.82.43,1.14.52,1,.69,1.07.76,1.13.87,1.26.38,4.45c-4.24-5.23-12.84-18.58-.49-19.84Zm308.26,0v1.91c3.35,0,4.44,3.26,3.72,6l-.56,1.82-.48,1.14-.54,1-.71,1.07-.74,1.13-.9,1.26-.28,4.45c4.06-5.31,12.84-18.46.49-19.84Z"></path><path class="cls-3" d="M170.92,26v-9.5l281.3.17,0,8.64h9.83V199H162.7V26.1Z"></path><path class="cls-2" d="M155.47,7.49l1-1,.26,1.09.8,1.63,1,1.09,1.14.57,1,.05,1.09-1,.1-1.11-.43-1.73h1.28c2.86,6.51-6.15,7.41-7.3.38ZM471.34,9.41l1,1-1.07.3-1.66.86-1.06,1L468,13.67l-.1,1,1,1.07,1.11.16,1.71-.52v1.26c-6.21,3.05-7.74-5.88-.36-7.22Zm-318.64.8-1.21.88,1,.45,1.5,1,1,1.14.43,1.18-.05,1-1,.95h-1.19l-1.54-.73-.16,1.32c5.88,3.61,8-4.84,1.21-7.22Zm315.9-3.6-.91-1.21-.42,1.07-1,1.51-1.14,1-1.19.45-1,0-1-1.05V7.15l.71-1.53-1.33-.22c-3.61,6,5.12,8,7.28,1.21Z"></path><path class="cls-2" d="M168.77,23.8H155.35l-1,.1-1.14.28-.94,1.14.14,1.2.38,1.05-1.36.54c-6.11-9,14.23-6.62,15.39-6.44V8.2L167,6.9l.65-1.05,1.44-.92,1.09-.26,1.09,0,1.26.75.5.81V8.67l-.72-1-1-.88-1-.12-1.07.62-.38,1V23.8Zm286.15-1.18V9.24l-.12-1.37-.38-1-1-.62-1.18.14-1,.38-.57-1.42c9.2-5.81,6.33,13.86,6.44,15.32h13.56l1.28.26,1.09.64.93,1.45.26,1.06-.1,1.07-.73,1.3-.83.43h-2.42l1-.64.87-1.09.17-1L471.51,23l-1-.35-15.57-.07Z"></path><path class="cls-1" d="M315.63,65.55c30.59.56,50.12,30.2,50,58.81.2,28.46-19.32,58.79-50,59.08-30.64-.18-50.41-30.64-50.08-59.08-.16-28.69,19.44-58.28,50.08-58.81Z"></path><path class="cls-2" d="M338.77,110.77l3.41,7.25.45,1.23.09,1.21-1.06,1-4.2-.33-1.18.23-.6,1,.55,1.14,2.77.49.69,1.07c-1.48,1.44-4.08,0-6.19,3.72l1,.71h4l.74,1.09-1,.69H337l-1.31.19-.54,1c1.52,1.67,7.07,2.45,2.53,7l-1.39.5h-1.21l-1.95-.14-1.28-.12-1.18-.24-1.21-.26a33.65,33.65,0,0,1-8-3.22l-1.07-.57-1-.64-1.09-.62-1-.7-1.43-.48-1-.21-1,.64c.2,2.54,6.63,7.91,8.65,9.07,3,2.48,9.83,3.6,6.21,8.85l-1.45,1.24-1.14.45-1.23,0-3.22.15h-3.69l-1.31-.1a55.46,55.46,0,0,1-10.66-1.61c-1.66-5-1.05-10.32-1.09-15.46.22-2.84-1.19-6.76-.83-8.76l1.11-.81,1.26.12.95.64,1,.95,1.16.42h1.07L312,128l1.14-1.47.52-1.23.31-1.52.17-1.16.78-1.06c1.91-1.84,3.72-3.62,3.65-6.47-.59-8.39,1.72-9.63,9.81-8.57l.21,1.07-1.23.66-1.59.94-1.11,1,.54,1c4.46-.2,7.63-.45,11.8,1.78l-.09-2.16.19-1.11,1-.24.67,1.23Z"></path><path class="cls-2" d="M301.91,90.74c5.18.44,7.7,3.48,9.36,8.08,1.16,2.91,1.69,5.86,2.61,8.8,2,4.22.37,4.25-3.89,5.74l-1.11.28-1-.12-1-1.07-.17-1.39a27,27,0,0,0-2.37-7.6c-1.74-4.52-3.5-7.65-2.39-12.72ZM317,101l-.19-1,.19-1.14,1.14-1,2-.94,1.35-.59,1.33-.41a29.5,29.5,0,0,1,8.39-1.51c8.86.15,10.41-.47,12.91,8.79a72.88,72.88,0,0,0-13.53-.55l-1.45.12-1.61.09-1.49.22-1.54.26c-4.31,0-5.59,3.17-7.47-2.35Z"></path><path class="cls-3" d="M331.16,71.66c29,14.61,37.64,48.7,26.49,77.54l-21.87-2.08c4.75-1.2,12.08-6.41,7.58-11.77,4.3-2.16,4.88-5.46.83-8.4,4-2.93,4.64-4.82,2.73-9.08-1.58-3.2-3.36-7.46-3.56-11l1.35-.07h1.14l1-.16,1.09-.71.37-1.14.27-1.68-.21-4.14-.43-.71-1.16-1.92L346,95.1c-3.52-5.24-7.86-8.1-13.54-10.49Zm-38.66,67.1,2.09,15-13.06,8.89-3-3.82C289.62,151.58,290.05,152.22,292.5,138.76Z"></path><path class="cls-2" d="M309.71,89.15a39.79,39.79,0,0,1,5.88,5.5l1.16,0,1.18-.55,1.19-.5,1.28-.47,1.35-.24,1-.19c-5.31-2.73-6.62-4.1-13-3.6Zm-7.44,19.4,1,4-6.33,4.74-.69-3.32,6-5.44Zm-4.84-11.18.08,10.54,1,.09.83-1.16Zm-1.59,41.25c.33-3.08,1-6.17,1.4-9.26l.12-1,.15-1,.09-1,.14-2,.07-1v-1.08l.05-1.07.64-1.25,1.26-.72,1,.6.19,1.37-.14,1.11-.16,1.14a41,41,0,0,1-1,5.37,49.75,49.75,0,0,1-3.8,9.79Zm-3.24-38.08c.27,3.65.26,7.32.52,11l.19,1.94.07,1,.19,1,.19.92.07,1.16-.21,1-.69,1-1.14.31c-2.44-2.62-.34-15.94.81-19.35Zm-8.16,27.68L277.31,148l-.12,1.3.29,1.26.78,1.14,1-.29,5.18-23.16ZM281,124.88,274.09,138l-.28,1.28.33,1.13,1.06-.07ZM279.78,122l-7.56,8.31-.5,1.23.21,1.05.67-.31Zm30.93-39.45L321.92,81l1.06-.49.43-1.1-12.7,3.08Zm-1.9-3.26L319.88,77l1-.5.52-1-.76-.26-11.85,4.08Zm-9.55,78.44,1.82.48L296.29,165l-2.1-.38,5.07-7Zm5.69,1,1.89.21-3.65,7.56-2.15-.07,3.91-7.7Zm6.49,1.07h1.8l-2.84,8-2.18.09,3.22-8.07Zm5.85.83h1.83l-2.85,7.95-2.2.12,3.22-8.07Z"></path><path class="cls-2" d="M285.25,117.31c-1.95-13,4-31.77,17.73-36-14,7.91-17.18,21-15.55,36l-1.06.94-1.12-.68Zm30.29,55.48,6,.45-2.41,3.12-5.62-.31,2-3.26Zm11.68-1.33,5.95.45-2.37,3.17-5.61-.35,2-3.27Zm-6.54-4.29,4.86.31-2,2.54-4.45-.24Zm11.69-1.3,4.78.31-1.94,2.51-4.41-.23,1.57-2.59Zm-6.92-4,4.38.3-1.71,2.35-4.05-.27Zm11.63-1.33,4.46.3-1.78,2.35-4.07-.26,1.39-2.39Zm-7-2,3.25.26-1.3,1.66-2.92-.22Zm11.69-1.3,3.27.24-1.33,1.65-3-.19,1.05-1.7Zm-34.89-34.57.83-1.21,1.26-.73,1.06-.24,1.1-.14h.75l.15,1.32-.15,1.16-.33,1-.62,1.16-.54.67-1,.07-1.21-.64-.95-1.09Z"></path><path class="cls-1" d="M420.89,38.74l1.13.86,1.17.54,1.13.31,1,.14,1.18-.14.95-1.07c-1.86-2.42-9.59-3-5.36-9,3-2.76,7.76-2.8,11.4-1.51v4.62c-1.61-1.07-3.64-2.08-5.57-1.12v1.12c13.88,5.7,2.46,13.45-7,10.25v-5Zm-15.57,5.45V28.35h12.56V32H412.1v2.34h5.18v3.65H412.1v2.44h5.78v3.81Zm-32.17-8.45c2.09,0,3.07-.9,3-1.83s-1.07-1.89-3-2v3.86Zm-6.82,8.71V28.35h6.26c4.13.12,10.68.16,10.45,6.37-.17,4.52-6.48,4.66-9.89,4.55v5.18Zm-22.21-.26,6-8.27L345,28.35h7.25l1.92,3.48,1.52-3.48h7.89l-6.07,7.57,6.33,8.27h-7.61l-2.06-4.29-2.44,4.29Zm-14.74,0V28.35h12.54V32h-5.78v2.34h5.19v3.65h-5.19v2.44h5.78v3.81Zm-27,0V28.35h6.28l4.48,7.57-.05-7.57h6.38V44.19h-6.14l-4.67-8.38v8.38Zm-131,.38,6.07-16.18h8l5.6,16.18H184l-.52-2H179.1l-.52,2ZM179.78,39h2.92l-1.4-5.47Zm100.89,5.54,6.06-16.18h8l5.59,16.18H293.2l-.52-2h-4.36l-.52,2ZM289,39h2.91l-1.4-5.47Zm-9.3.35-.5,4.67c-18.53,4.17-18.21-19.28.38-15.58V33C269.1,28.05,270,45.27,279.71,39.38Z"></path><path d="M255.84,44.19h6.61V28.35h-6.61Z"></path><path class="cls-1" d="M242.85,35.92c4.09.41,4.51-4.38,0-4Zm-6.66,8.58V28.35c3.43.27,12.53-.9,15.48,2.53,2.59,2.4.45,7-3,6.94l4.88,6.67H246.5l-3.65-6.56v6.56h-6.66Zm155.88-8.58c4.09.41,4.51-4.38,0-4Zm-6.66,8.58V28.35c3.42.27,12.53-.9,15.47,2.53,2.6,2.4.46,7-3,6.94l4.88,6.67h-7.08l-3.65-6.56v6.56h-6.66Zm-165.14-.24V28.35h12.3V32h-5.72v2.37H232V38h-5.15v2.44h5.72v3.81Zm-28-.07,2.77-15.84h8.37l1.89,8.59,2.23-8.59h8.15l2.61,15.84h-7.2l-.48-9.73-2.84,9.73h-5.38l-2.2-9.9-.77,9.9Zm244-5.45,1.19.86,1.11.54,1.14.31,1,.14,1.21-.14.94-1.07c-1.95-2.42-9.6-3.06-5.37-9,2.88-2.69,7.8-2.84,11.32-1.51v4.62l-1.18-.74-1.11-.47L445.18,32l-1.11.05-1,.76,1,1.11,1,.49,1.25.52,1.23.69c2,1.38,2.78,3.82,1.24,5.9-2.34,3.52-9,3.12-12.56,2.18v-5ZM196.6,108.59v4a3.08,3.08,0,0,1-.87,2.27,3.19,3.19,0,0,1,.9,2.17v4.2a2.08,2.08,0,0,1-.64,1.51,2.12,2.12,0,0,1-1.54.63h-7.6a1.06,1.06,0,0,1-1.07-1.08,1.1,1.1,0,0,1,.31-.76,1.08,1.08,0,0,1,.76-.31h7.58v-4.19a1.09,1.09,0,0,0-.31-.77,1.07,1.07,0,0,0-.77-.33H189a1,1,0,0,1-1.07-1v0a1,1,0,0,1,.31-.76,1,1,0,0,1,.76-.32h4.35a1,1,0,0,0,.75-.31,1,1,0,0,0,.32-.76v-4.15h-7.67a1.07,1.07,0,0,1-.76-.31,1,1,0,0,1-.32-.76,1,1,0,0,1,.32-.76,1,1,0,0,1,.76-.32h7.67a2.13,2.13,0,0,1,2.15,2.15Zm5-.13v-.92a1.05,1.05,0,0,1,.32-.76,1,1,0,0,1,.76-.31h9.75v6.59a1.11,1.11,0,0,1-.4.87L208,117.3v5a1.1,1.1,0,0,1-1.08,1.1,1.06,1.06,0,0,1-.77-.32,1,1,0,0,1-.33-.75v-5.42a1.15,1.15,0,0,1,.39-.94l4-3.35v-4h-6.5a1.08,1.08,0,0,1-2.15-.16Zm16.88,12.8h3.3V108.59h-3.25a1.07,1.07,0,0,1-.76-.31,1,1,0,0,1-.32-.76,1,1,0,0,1,.32-.76,1,1,0,0,1,.76-.32h5.4v14.82H226v-4.48a1,1,0,0,1,.31-.75,1,1,0,0,1,.76-.32,1,1,0,0,1,.76.31,1.05,1.05,0,0,1,.32.76v5.55a1.05,1.05,0,0,1-.32.76,1,1,0,0,1-.76.31h-8.67a1,1,0,0,1-.76-.32,1.1,1.1,0,0,1-.32-.78,1,1,0,0,1,.32-.74,1,1,0,0,1,.76-.3ZM243,123.4h-9.77V116a2.12,2.12,0,0,1,.63-1.54,2.08,2.08,0,0,1,1.52-.63h6.52v-5.23h-7.67a1.06,1.06,0,0,1-.77-.31,1,1,0,0,1-.31-.76,1.08,1.08,0,0,1,1.08-1.08h7.67a2.17,2.17,0,0,1,2.18,2.15v5.23A2.17,2.17,0,0,1,241.9,116h-6.52v5.27H243a1.06,1.06,0,0,1,.76.31,1,1,0,0,1,.32.76,1.05,1.05,0,0,1-.32.76,1.07,1.07,0,0,1-.76.31Zm135.49-14.81H385V112h-6.53Zm8.34,14.47a1,1,0,0,0,.31-.76V107.49a1,1,0,0,0-.32-.75,1,1,0,0,0-.76-.32h-8.64a1.09,1.09,0,0,0-1.08,1.07v5.57a1.07,1.07,0,0,0,.32.76,1,1,0,0,0,.76.31H385v7.1a1.08,1.08,0,0,0-.76.31,1,1,0,0,0-.31.76,1,1,0,0,0,.32.76,1,1,0,0,0,.75.32h1.08a1.05,1.05,0,0,0,.76-.32Zm14-1.8h-6.5v-3.4h6.5Zm-8.33-14.5a1,1,0,0,0-.32.76v14.81a1,1,0,0,0,.33.75,1,1,0,0,0,.77.32h8.63a1.12,1.12,0,0,0,.77-.31,1,1,0,0,0,.33-.76v-5.55a1.1,1.1,0,0,0-.32-.77,1,1,0,0,0-.76-.33h-7.57v-7.09a1.07,1.07,0,0,0,.76-.31,1,1,0,0,0,.31-.76,1.07,1.07,0,0,0-.31-.76,1.05,1.05,0,0,0-.76-.32h-1.08A1.1,1.1,0,0,0,392.46,106.76Zm17.61,1.83h6.54v12.67h-6.54Zm-1.55,14.21a2,2,0,0,0,1.47.6h6.68a2.07,2.07,0,0,0,2.07-2.07V108.49a2,2,0,0,0-.61-1.46,2,2,0,0,0-1.44-.61H410a2.08,2.08,0,0,0-2.07,2.07v12.84a2,2,0,0,0,.6,1.47Zm17.37-14.21h6.55v12.67h-6.55Zm-1.55,14.21a2,2,0,0,0,1.47.6h6.68a2.07,2.07,0,0,0,2.07-2.07V108.49A2,2,0,0,0,434,107a1.93,1.93,0,0,0-1.43-.61h-6.71a2,2,0,0,0-1.46.61,2,2,0,0,0-.61,1.46v12.84A2,2,0,0,0,424.34,122.8Zm15.22-14.34v-.92a1.08,1.08,0,0,1,1.08-1.07h9.75v6.59a1.08,1.08,0,0,1-.4.87L446,117.3v5a1.13,1.13,0,0,1-.31.78,1.09,1.09,0,0,1-1.54,0,1,1,0,0,1-.33-.75v-5.42a1.15,1.15,0,0,1,.39-.94l4-3.35v-4h-6.5a1.08,1.08,0,0,1-2.15-.16ZM172.72,177.94v-2.1h7.87V178a.79.79,0,0,1-.78.78.79.79,0,0,1-.56-.23A.75.75,0,0,1,179,178v-.56h-1.58v10a.75.75,0,0,1-.24.55.73.73,0,0,1-.54.22.78.78,0,0,1-.8-.77h0v-10h-1.58v.54a.71.71,0,0,1-.23.55.78.78,0,0,1-1.33-.55Zm23.75,7.85v-2.47a.74.74,0,0,1,.22-.55.79.79,0,0,1,.56-.23.79.79,0,0,1,.78.78v2.49a.67.67,0,0,0,.23.53.79.79,0,0,0,.56.23h1.58a.79.79,0,0,0,.56-.23.72.72,0,0,0,.24-.55V176.6a.77.77,0,0,1,.76-.78.76.76,0,0,1,.56.25.81.81,0,0,1,.24.57v9.15a2.23,2.23,0,0,1-.72,1.67,2.29,2.29,0,0,1-1.64.69h-1.58a2.37,2.37,0,0,1-2.35-2.36Zm22.2,1.58V175.82h7.07a.74.74,0,0,1,.54.23.77.77,0,0,1,0,1.09l0,0a.71.71,0,0,1-.55.23h-5.51v2.45h4a.79.79,0,0,1,.78.78.71.71,0,0,1-.23.55.75.75,0,0,1-.55.23h-4v6a.78.78,0,0,1-.75.78h0a.79.79,0,0,1-.78-.77Zm17-10a.75.75,0,0,1,.55.22.77.77,0,0,1,.23.56v.9a.79.79,0,0,1-.78.78h-4v-2.47h4Zm-5.29,10.52a.7.7,0,0,0,.55.22.78.78,0,0,0,.8-.77v-6h1.12l3.67,6.31a.78.78,0,0,0,1.25.19.7.7,0,0,0,.24-.54.9.9,0,0,0-.14-.48l-3.2-5.47h1a2.26,2.26,0,0,0,1.65-.7,2.3,2.3,0,0,0,.69-1.66v-.89a2.37,2.37,0,0,0-2.34-2.36h-5.52v11.55a.78.78,0,0,0,.23.55Zm15.15-10.54a.54.54,0,0,1,.5.36l1.63,3.28a2.2,2.2,0,0,1,.23,1,2.33,2.33,0,0,1-.23,1L246,186.28a.5.5,0,0,1-.46.31.47.47,0,0,1-.47-.31L243.42,183a2.15,2.15,0,0,1-.22-1,2.31,2.31,0,0,1,.22-1l1.61-3.28A.58.58,0,0,1,245.55,177.38Zm0-1.56a2,2,0,0,0-1.86,1.14l-1.73,3.5a3.44,3.44,0,0,0-.34,1.55,3.31,3.31,0,0,0,.34,1.53l1.73,3.46a2.07,2.07,0,0,0,.74.82,2,2,0,0,0,1.12.32,1.91,1.91,0,0,0,1.86-1.14l1.72-3.46a3.38,3.38,0,0,0,.36-1.53,3.33,3.33,0,0,0-.36-1.55l-1.72-3.5a1.92,1.92,0,0,0-1.86-1.14Zm9.33,0h4.06a2.09,2.09,0,0,1,1.41.62A2,2,0,0,1,261,178a.76.76,0,0,1-.24.57.72.72,0,0,1-.52.23.68.68,0,0,1-.55-.18,2,2,0,0,1-.28-.68.59.59,0,0,0-.6-.49H255c-.19,0-.28.06-.28.18a.46.46,0,0,0,.12.26l5.78,7.39a1.87,1.87,0,0,1,.42,1.15,1.73,1.73,0,0,1-.51,1.23,1.54,1.54,0,0,1-1.13.53h-4.2a2,2,0,0,1-1.45-.64,1.93,1.93,0,0,1-.62-1.39c0-.59.27-.87.82-.87a.69.69,0,0,1,.53.22.72.72,0,0,1,.23.53.57.57,0,0,0,.56.59h3.92c.17,0,.25-.07.25-.2a.44.44,0,0,0-.12-.24l-5.77-7.39a1.86,1.86,0,0,1-.41-1.15,1.75,1.75,0,0,1,.52-1.26,1.69,1.69,0,0,1,1.25-.53Zm9.7,2.12v-2.1h7.88V178a.76.76,0,0,1-.24.55.77.77,0,0,1-1.1,0h0a.75.75,0,0,1-.23-.55v-.56H269.3v10a.78.78,0,0,1-.23.55.77.77,0,0,1-.55.22.78.78,0,0,1-.8-.77h0v-10h-1.58v.54a.79.79,0,0,1-.78.78.73.73,0,0,1-.55-.23.75.75,0,0,1-.23-.55Z"></path></svg> 