<?xml version="1.0" encoding="UTF-8"?> <svg xmlns="http://www.w3.org/2000/svg" id="Layer_1" data-name="Layer 1" viewBox="0 0 649.12 199.79"><defs><style>.cls-1,.cls-2,.cls-3{fill-rule:evenodd;}.cls-2{fill:#fff;}.cls-3{fill:#99c78f;}</style></defs><path class="cls-1" d="M202,14.06H461.34l.61.06,1.82.22,1.14.3,1.16.39,1.07.55,1,.58.95.69A12.23,12.23,0,0,1,473.42,25l.12,1.2V171.32l-.06.65-.21,1.84L473,175l-.39,1.11-.56,1.08-.57,1a12,12,0,0,1-8.89,5.31l-1.2,0h-260l-1.84-.22-1.14-.28-1.14-.41-1.07-.53-1-.6a12.09,12.09,0,0,1-5.31-8.87l0-1.23V25.61l.22-1.84.33-1.14.36-1.11.55-1.1.59-1A12.36,12.36,0,0,1,202,14.06Z"></path><path class="cls-2" d="M198.65,120.42V122c-3.72.13-2.27,4.84-1.16,6.76a30.15,30.15,0,0,1,2.88,10.4c.52,5.34-8.65,15.5-1,16.81v1.5c-11.75-1,.64-13.25-.53-19.1-.53-4.62-2.69-7.6-4.1-11.84-1.1-3.55,0-5.77,3.9-6.09Z"></path><path class="cls-2" d="M194.93,136.44l1,1.07.34,1.06-.08,1.06-.42.91-.84.65v-4.75Zm269.94-16V122c3.6.2,2.28,4.9,1.08,6.76a29.69,29.69,0,0,0-2.82,10.4c-.72,5.13,8.65,15.52,1,16.81v1.5c11.67-1.06-.63-13.24.51-19.1.35-4.27,2.82-7.86,4.08-11.84,1.18-3.49,0-5.74-3.82-6.09Z"></path><path class="cls-2" d="M468.54,136.44l-.87.75-.4,1-.07,1.08.33,1,1,.94ZM250.46,23.18H252c-.09-3,3.52-2.52,5.34-1.79a29.33,29.33,0,0,0,10.31,3.35c3.89.84,7.66-1.52,11.18-2.8,3.31-1.15,6.08-2.39,7.23,2h1.54c-1.21-11.66-13.32.65-19.24-.51-4.25-.41-7.9-2.76-11.87-4.09-3.47-1.11-5.8.06-6,3.83Z"></path><path class="cls-2" d="M266.53,19.51l.71.87,1,.43,1.09,0,1-.33,1-1Zm-49.74,3.75c13.56,7,21.83-8.87,25,.69h1.52c-.29-8.18-8.51-4.41-12.74-2-4.8,2.23-9.36,2-13.76-1v2.25Z"></path><path class="cls-2" d="M222.19,19.51l.73.87,1,.43,1.08,0,1-.33,1-1Zm70.36,3.67h1.56c0-3,3.52-2.49,5.38-1.79a28.93,28.93,0,0,0,10.31,3.35c6.37,1.88,16.54-8.88,18.43-.79h1.5c-1.24-11.67-13.3.65-19.24-.51-4.26-.39-7.9-2.77-11.87-4.09-3.52-1.08-5.73,0-6.07,3.83Z"></path><path class="cls-2" d="M308.64,19.51l.69.87,1,.43,1.07,0,1-.33,1-1Zm26.77,3.67H337l.17-1.06.93-.93,1.06-.34h.95l1.08.22,2.55,1.05a29.87,29.87,0,0,0,10.44,2.8c3.31,0,6.54-1.83,9.59-3,3.44-1.15,6-2.41,7.27,2h1.52c-1.11-11.33-12.82,0-18.53-.45-6.29.45-17.54-10.18-18.59-.32Z"></path><path class="cls-2" d="M351.44,19.51l.71.87,1,.43,1.09,0,1-.33,1-1Zm25.31,3.67h1.58c-.08-3,3.53-2.49,5.36-1.79A29.06,29.06,0,0,0,394,24.74c3.81.85,7.7-1.52,11.16-2.8s6-2.4,7.25,2H414c-1.29-11.67-13.3.65-19.26-.51-4.25-.4-7.9-2.76-11.87-4.09-3.48-1.1-5.78,0-6.07,3.83Z"></path><path class="cls-2" d="M392.84,19.51l.73.87,1,.43,1.06,0,1.05-.33.95-1Z"></path><path class="cls-2" d="M376.75,23.18h1.58c-.08-3,3.53-2.49,5.36-1.79A29.06,29.06,0,0,0,394,24.74c3.81.85,7.7-1.52,11.16-2.8s6-2.4,7.25,2H414c-1.29-11.67-13.3.65-19.26-.51-4.25-.4-7.9-2.76-11.87-4.09-3.48-1.1-5.78,0-6.07,3.83Z"></path><path class="cls-2" d="M392.84,19.51l.73.87,1,.43,1.06,0,1.05-.33.95-1Zm26,3.67h1.57l.18-1.06.91-.93,1.08-.34h.91l1.1.22c2.64.84,5,2.42,8.17,3.14,7.68,1.88,7.93-.38,14.54-2V20.34c-6.78,2-8.66,3.94-15.63,1.42-4.08-1.27-12.19-6.33-12.83,1.42Z"></path><path class="cls-2" d="M435,19.51l.73.87.95.43,1.08,0,1-.33,1-1Zm-236.31,59V80l-1.16.2-.91.92-.31,1.07v.93l.19,1.08.4,1.13a32.16,32.16,0,0,1,3.31,10.28c1.86,6.1-8.93,16.82-.79,18.31v1.54c-4.18.16-5.71-2.75-4.75-6.58,1.39-4.71,5.53-8.88,3.9-14.42-.68-5.1-9.1-15.07.12-16Z"></path><path class="cls-2" d="M194.93,94.47l1,1.09.34,1-.08,1.07-.42.91-.84.63V94.47Zm269.94-16V80c3,.08,2.53,3.43,1.79,5.33a29.94,29.94,0,0,0-3.35,10.28c-1,3.77,1.82,8.31,3.12,11.93.89,3.06,1.79,5.36-2.33,6.38v1.54c4.15.17,5.69-2.85,4.73-6.58-1.49-4.78-5.44-8.85-3.92-14.42.91-3.91,2.62-6.25,3.78-9.94,1.19-3.48-.06-5.71-3.82-6.06Z"></path><path class="cls-2" d="M468.54,94.47l-.87.75-.4,1-.07,1.1.33,1,1,.87ZM196.19,41c-.41,1.91,1.31,4.23,2,5.94,1.07,2.74,2.32,7,2.15,9.88s-2.2,6.64-3.31,9.57c-.89,3.18-1.72,5.28,2.38,6.36v1.51c-10-.49-2.25-11.16-1-15.27,2.46-6.53-3.92-11.82-4.12-18Z"></path><path class="cls-2" d="M194.93,53.23l1,1.09.34,1-.08,1.07-.42.93-.84.63V53.23ZM466.6,40.53c.65,4.39-3.47,9.55-3.8,14.34-.42,3.75,1.44,6.62,2.94,9.94,1.22,3.27,3.19,6.8-1.64,7.94v1.51c10.25-.59,1.79-11.41.73-16.27-1.52-6.5,4.38-11.34,4.16-17.45H466.6Z"></path><path class="cls-2" d="M468.54,53.23l-.87.77-.4,1-.07,1.1.33,1,1,.91ZM200,161.71v1.64c-3,0-3.84,2.69-3.27,5.17l.57,1.56.36,1,.45.88.59.91.65,1,.75,1.08.32,3.81c-3.63-4.48-11-15.91-.42-17Zm264,0v1.64c2.86,0,3.8,2.78,3.18,5.17l-.48,1.56-.41,1-.46.88-.61.91-.63,1-.77,1.08-.25,3.81c3.48-4.55,11-15.81.43-17Z"></path><path class="cls-3" d="M210.88,35.32V27.19l240.88.14,0,7.41h8.42V183.46H203.84v-148Z"></path><path class="cls-2" d="M197.65,19.51l.88-.87.22.93.69,1.4.87.93,1,.49.87,0,.93-.81.08-1-.36-1.48h1.09c2.45,5.58-5.26,6.35-6.25.33Zm270.49,1.64L469,22l-.91.27-1.42.73-.92.85-.48,1-.09.85.86.91,1,.15,1.46-.45v1.08c-5.32,2.61-6.63-5-.3-6.19Zm-272.86.69-1,.75.87.39,1.28.85.9,1,.36,1,0,.9-.89.81h-1l-1.32-.63L194.24,28c5,3.09,6.87-4.15,1-6.18Zm270.5-3.08-.77-1-.36.92-.88,1.29-1,.88-1,.38-.87,0-.83-.89v-1l.61-1.31-1.14-.19c-3.09,5.15,4.38,6.86,6.23,1Z"></path><path class="cls-2" d="M209,33.48H197.55l-.87.08-1,.24-.81,1,.12,1,.33.89-1.16.47c-5.23-7.69,12.18-5.67,13.17-5.52V20.12l.16-1.12.55-.89,1.24-.79.93-.23.94.05,1.07.64.43.69v2.05l-.61-.85-.89-.75-.9-.1-.91.53-.32.85V33.48Zm245-1V21l-.1-1.18-.32-.87-.88-.53-1,.13-.87.32-.49-1.22c7.88-5,5.42,11.87,5.52,13.12h11.61l1.09.22.93.55.8,1.24.22.91-.08.91-.63,1.12-.71.37h-2.07l.85-.55.75-.94.14-.85-.54-.93-.88-.3-13.33-.07Z"></path><path class="cls-1" d="M334.8,69.23c26.2.48,42.92,25.86,42.82,50.36.18,24.37-16.54,50.34-42.82,50.59-26.24-.16-43.16-26.24-42.88-50.59C291.78,95,308.56,69.68,334.8,69.23Z"></path><path class="cls-2" d="M354.61,108l2.92,6.21.39,1,.08,1-.92.87-3.59-.29-1,.21-.51.89.47,1,2.37.43.59.91c-1.26,1.23-3.5,0-5.3,3.18l.86.61h3.43l.63.93-.88.59h-1.05l-1.12.16-.47.86c1.31,1.43,6.06,2.09,2.17,6l-1.19.43h-1l-1.66-.13-1.1-.1-1-.2-1-.23a28.6,28.6,0,0,1-6.88-2.75l-.91-.49-.87-.55L337,128l-.87-.61-1.22-.41-.89-.18-.85.55c.17,2.18,5.68,6.77,7.4,7.76,2.56,2.13,8.42,3.09,5.32,7.59l-1.24,1.05-1,.39-1.06,0-2.76.12h-3.16l-1.12-.08a47.73,47.73,0,0,1-9.13-1.38c-1.42-4.29-.9-8.84-.93-13.24.19-2.43-1-5.79-.71-7.5l1-.69,1.08.1.81.55.89.81,1,.36h.91l1.2-.52,1-1.26.45-1.06.26-1.29.14-1,.67-.91c1.64-1.57,3.19-3.09,3.13-5.53-.51-7.19,1.47-8.26,8.4-7.34l.18.91-1.06.57-1.36.8-.95.88.47.87c3.82-.17,6.53-.39,10.1,1.52l-.08-1.84.16-1,.88-.2.57,1Z"></path><path class="cls-2" d="M323.05,90.8c4.44.38,6.59,3,8,6.91,1,2.5,1.44,5,2.23,7.55,1.72,3.61.32,3.64-3.33,4.9l-1,.25-.87-.1-.88-.92-.14-1.19a23.14,23.14,0,0,0-2-6.51c-1.5-3.87-3-6.55-2.05-10.89ZM336,99.62l-.16-.89.16-1,1-.81,1.69-.81,1.16-.5,1.13-.35a25.48,25.48,0,0,1,7.19-1.3c7.59.14,8.92-.4,11.06,7.53a62.41,62.41,0,0,0-11.59-.47l-1.24.1-1.38.08-1.28.19-1.32.22c-3.68,0-4.78,2.72-6.39-2Z"></path><path class="cls-3" d="M348.1,74.46c24.86,12.51,32.23,41.7,22.68,66.4l-18.73-1.79c4.07-1,10.35-5.48,6.5-10.07,3.68-1.85,4.17-4.68.71-7.2,3.42-2.51,4-4.12,2.33-7.77-1.35-2.74-2.87-6.39-3-9.44l1.15-.06h1l.85-.14.94-.61.32-1,.22-1.44-.18-3.54-.36-.61-1-1.64-.71-1c-3-4.49-6.73-6.94-11.59-9ZM315,131.92l1.78,12.87L305.6,152.4,303,149.13C312.53,142.89,312.9,143.44,315,131.92Z"></path><path class="cls-2" d="M329.73,89.44a34.46,34.46,0,0,1,5,4.7l1,0,1-.47,1-.43,1.09-.4,1.16-.21.85-.16c-4.54-2.34-5.67-3.51-11.16-3.08Zm-6.37,16.61.83,3.44-5.42,4.06-.59-2.84,5.18-4.66Zm-4.14-9.57.06,9,.89.08.71-1Zm-1.36,35.32c.28-2.64.84-5.29,1.2-7.93l.1-.87.12-.88.08-.83.12-1.7.06-.86v-.93l0-.91.55-1.07,1.08-.61.87.51.16,1.17-.12,1-.14,1a36.19,36.19,0,0,1-.87,4.6,43.53,43.53,0,0,1-3.25,8.38Zm-2.78-32.61c.23,3.13.22,6.27.44,9.39l.17,1.66.06.9.16.85.16.79.06,1-.18.85-.59.88-1,.26c-2.1-2.24-.3-13.65.69-16.57Zm-7,23.71L302,139.81l-.1,1.11.24,1.07.67,1,.85-.25,4.44-19.82Zm-3-2.86-5.88,11.21-.25,1.09.29,1,.91-.06Zm-1-2.5-6.48,7.12-.42,1,.18.9.57-.27Zm26.48-33.78,9.6-1.27.92-.43.36-.93-10.88,2.63ZM329,81l9.48-2,.87-.43.45-.87-.65-.22L329,81Zm-8.18,67.18,1.56.41-4.1,5.87-1.8-.32,4.34-6Zm4.87.87,1.62.18-3.12,6.47-1.85-.06,3.35-6.59Zm5.56.91h1.54l-2.43,6.84-1.87.08,2.76-6.92Zm5,.71h1.57l-2.44,6.82-1.89.1,2.76-6.92Z"></path><path class="cls-2" d="M308.78,113.55c-1.67-11.11,3.46-27.2,15.19-30.84-12,6.77-14.72,18-13.32,30.84l-.91.81-1-.59Zm25.94,47.51,5.13.38-2.06,2.68-4.82-.27,1.75-2.79Zm10-1.14,5.09.39-2,2.71-4.81-.3,1.75-2.8Zm-5.6-3.67,4.15.26-1.68,2.17-3.81-.2Zm10-1.12,4.1.27-1.66,2.15-3.78-.2,1.34-2.22Zm-5.93-3.46,3.76.26-1.46,2-3.47-.23Zm10-1.14,3.81.26-1.52,2-3.49-.22,1.2-2.05Zm-6-1.74,2.78.22-1.11,1.42-2.5-.18Zm10-1.11,2.8.2-1.14,1.42-2.56-.17.9-1.45Zm-29.88-29.61.71-1,1.08-.63.91-.2.94-.13h.65l.12,1.14-.12,1-.29.83-.53,1-.46.56-.88.06-1-.54-.81-.94Z"></path><path class="cls-1" d="M424.93,46.27l1,.73,1,.47,1,.26.86.12,1-.12.81-.91c-1.6-2.07-8.21-2.57-4.59-7.71,2.56-2.36,6.65-2.39,9.77-1.29v4c-1.38-.92-3.13-1.78-4.77-1v1c11.88,4.88,2.1,11.52-6,8.78V46.27ZM411.6,50.94V37.37h10.75v3.08h-5v2h4.44v3.12H417.4v2.09h5v3.27ZM384.06,43.7c1.78,0,2.62-.77,2.6-1.56s-.92-1.63-2.6-1.75V43.7Zm-5.85,7.46V37.37h5.36c3.54.1,9.15.14,8.95,5.46-.15,3.87-5.54,4-8.46,3.89v4.44Zm-19-.22,5.15-7.08-4.42-6.49h6.21l1.64,3,1.3-3h6.76l-5.2,6.49,5.42,7.08h-6.51l-1.77-3.67-2.09,3.67Zm-12.63,0V37.37h10.74v3.08h-4.95v2h4.44v3.12h-4.44v2.09h4.95v3.27Zm-23.09,0V37.37h5.38l3.83,6.49,0-6.49h5.46V50.94h-5.26l-4-7.18v7.18Zm-112.15.32,5.2-13.85h6.81l4.79,13.85h-6.06l-.45-1.7h-3.73l-.45,1.7Zm7.14-4.74H221l-1.2-4.69Zm86.39,4.74,5.19-13.85h6.82l4.79,13.85h-6.07l-.44-1.7h-3.74l-.44,1.7ZM312,46.52h2.5l-1.2-4.69Zm-8,.3-.43,4c-15.86,3.58-15.59-16.51.33-13.34v3.85C295,37.11,295.76,51.87,304,46.82Z"></path><path d="M283.6,50.94h5.66V37.37H283.6Z"></path><path class="cls-1" d="M272.48,43.86c3.5.35,3.86-3.76,0-3.45Zm-5.7,7.34V37.37c2.93.23,10.73-.77,13.25,2.17,2.22,2.05.39,6-2.54,5.94l4.18,5.72H275.6l-3.12-5.62V51.2Zm133.47-7.34c3.5.35,3.86-3.76,0-3.45Zm-5.7,7.34V37.37c2.93.23,10.73-.77,13.25,2.17,2.22,2.05.39,6-2.54,5.94l4.19,5.72h-6.07l-3.13-5.62V51.2ZM253.14,51V37.37h10.53v3.1h-4.89v2h4.4v3.14h-4.4v2.09h4.89V51Zm-23.95-.06,2.37-13.57h7.17l1.62,7.36,1.91-7.36h7l2.23,13.57H245.3l-.4-8.34-2.44,8.34h-4.6L236,42.46l-.65,8.48Zm208.93-4.67,1,.73.95.47,1,.26.87.12,1-.12.81-.91c-1.67-2.07-8.22-2.62-4.6-7.71,2.46-2.3,6.68-2.43,9.7-1.29v4l-1-.63-.95-.4-1.18-.21-1,0-.83.64.89,1,.86.43,1.07.45,1.05.59a3.43,3.43,0,0,1,1.06,5c-2,3-7.72,2.68-10.76,1.87V46.27ZM232.88,106.08v3.45a2.64,2.64,0,0,1-.75,2,2.74,2.74,0,0,1,.77,1.86v3.59a1.79,1.79,0,0,1-.55,1.3,1.84,1.84,0,0,1-1.32.53h-6.5a.91.91,0,0,1-.92-.92.89.89,0,0,1,.27-.65.87.87,0,0,1,.65-.26H231v-3.59a.89.89,0,0,0-.26-.66.84.84,0,0,0-.66-.28h-3.7a.92.92,0,0,1-.92-.9v0a.9.9,0,0,1,.27-.66.93.93,0,0,1,.65-.27h3.73a.9.9,0,0,0,.91-.92v-3.55h-6.57a.88.88,0,0,1-.65-.26.93.93,0,0,1,0-1.31.93.93,0,0,1,.65-.27H231a1.86,1.86,0,0,1,1.85,1.84Zm4.24-.11v-.79a.9.9,0,0,1,.26-.65.88.88,0,0,1,.65-.26h8.35v5.64a1,1,0,0,1-.34.75l-3.38,2.89v4.28a.93.93,0,0,1-1.59.66.85.85,0,0,1-.27-.64v-4.64a1,1,0,0,1,.32-.81l3.4-2.87V106.1H239a.9.9,0,0,1-.93.79.85.85,0,0,1-.65-.27.87.87,0,0,1-.26-.65Zm14.45,11h2.82V106.08h-2.78a.87.87,0,0,1-.65-.26.93.93,0,0,1,0-1.31.91.91,0,0,1,.65-.27h4.62v12.69h1.84V113.1a.91.91,0,0,1,.27-.65.89.89,0,0,1,.65-.27.91.91,0,0,1,.65.26.88.88,0,0,1,.27.66v4.75a.85.85,0,0,1-.27.65.91.91,0,0,1-.65.27h-7.42a.91.91,0,0,1-.66-.28,1,1,0,0,1-.27-.66.87.87,0,0,1,.27-.64.93.93,0,0,1,.66-.26Zm21,1.84h-8.37v-6.35a1.79,1.79,0,0,1,.54-1.31,1.75,1.75,0,0,1,1.3-.55h5.59v-4.48h-6.58a.92.92,0,0,1,0-1.84h6.58a1.76,1.76,0,0,1,1.31.55,1.73,1.73,0,0,1,.55,1.29v4.48a1.78,1.78,0,0,1-.55,1.32,1.83,1.83,0,0,1-1.31.54h-5.59v4.51h6.53a.91.91,0,0,1,.64,1.57.91.91,0,0,1-.64.27Zm116-12.69h5.58V109h-5.58Zm7.14,12.4a.88.88,0,0,0,.26-.65V105.14a.94.94,0,0,0-.92-.92h-7.4a.88.88,0,0,0-.65.28.87.87,0,0,0-.27.64v4.77a.89.89,0,0,0,.27.65.88.88,0,0,0,.65.27h6.48v6.08a.88.88,0,0,0-.65.26.9.9,0,0,0-.27.66.86.86,0,0,0,.28.65.91.91,0,0,0,.64.27h.92a.94.94,0,0,0,.66-.27Zm12-1.55h-5.56V114h5.56Zm-7.13-12.42a.85.85,0,0,0-.27.65v12.69a.84.84,0,0,0,.28.64.87.87,0,0,0,.66.28h7.38a1,1,0,0,0,.67-.27.9.9,0,0,0,.28-.65V113.1a1,1,0,0,0-.28-.67.82.82,0,0,0-.64-.27h-6.49v-6.08a.91.91,0,0,0,.65-1.56.88.88,0,0,0-.65-.28h-.92A1,1,0,0,0,400.59,104.51Zm15.07,1.57h5.61v10.85h-5.61Zm-1.32,12.17a1.72,1.72,0,0,0,1.26.52h5.72a1.75,1.75,0,0,0,1.25-.52,1.69,1.69,0,0,0,.52-1.25V106a1.79,1.79,0,0,0-1.75-1.78H415.6a1.81,1.81,0,0,0-1.78,1.78v11a1.75,1.75,0,0,0,.52,1.25Zm14.87-12.17h5.61v10.85h-5.61Zm-1.32,12.17a1.72,1.72,0,0,0,1.26.52h5.72a1.75,1.75,0,0,0,1.25-.52,1.69,1.69,0,0,0,.52-1.25V106a1.79,1.79,0,0,0-1.75-1.78h-5.74a1.81,1.81,0,0,0-1.78,1.78v11A1.75,1.75,0,0,0,427.89,118.25Zm13-12.28v-.79a1,1,0,0,1,.27-.65.89.89,0,0,1,.66-.26h8.34v5.64a1,1,0,0,1-.34.75l-3.38,2.89v4.28a1,1,0,0,1-.27.66.93.93,0,0,1-1.32,0,.86.86,0,0,1-.28-.64v-4.64a1,1,0,0,1,.33-.81l3.4-2.87V106.1h-5.57a.89.89,0,0,1-.92.79.85.85,0,0,1-.65-.27.91.91,0,0,1-.27-.65Zm-228.5,59.5v-1.8h6.75v1.82a.63.63,0,0,1-.2.47.7.7,0,0,1-.47.19A.69.69,0,0,1,218,166a.65.65,0,0,1-.2-.47V165h-1.36v8.54a.61.61,0,0,1-.2.47.63.63,0,0,1-.46.2.69.69,0,0,1-.69-.67h0V165h-1.35v.47a.67.67,0,0,1-.19.47.67.67,0,0,1-.48.2.65.65,0,0,1-.47-.2.63.63,0,0,1-.2-.47Zm20.34,6.72v-2.11a.65.65,0,0,1,.19-.48.69.69,0,0,1,1,0,.63.63,0,0,1,.19.48v2.12a.6.6,0,0,0,.2.46.65.65,0,0,0,.49.19h1.35a.63.63,0,0,0,.48-.19.6.6,0,0,0,.2-.47v-7.87a.67.67,0,0,1,.65-.67.64.64,0,0,1,.48.22.66.66,0,0,1,.21.48v7.84a1.91,1.91,0,0,1-.62,1.43,2,2,0,0,1-1.4.59h-1.35a2,2,0,0,1-2-2Zm19,1.35v-9.89h6.06a.65.65,0,0,1,.46.2.66.66,0,0,1,0,.93v0a.63.63,0,0,1-.47.2h-4.72v2.1h3.38a.63.63,0,0,1,.47.19.67.67,0,0,1-.47,1.14h-3.38v5.11a.66.66,0,0,1-.65.66h0A.59.59,0,0,1,252,174a.63.63,0,0,1-.2-.47ZM266.34,165a.66.66,0,0,1,.48.2.63.63,0,0,1,.19.47v.78a.7.7,0,0,1-.19.47.63.63,0,0,1-.48.19H263V165Zm-4.52,9a.63.63,0,0,0,.47.2.69.69,0,0,0,.68-.67v-5.09h1l3.14,5.4a.69.69,0,0,0,.61.36.67.67,0,0,0,.47-.2.6.6,0,0,0,.2-.46.73.73,0,0,0-.12-.41l-2.74-4.69h.85a2,2,0,0,0,1.42-.59,2,2,0,0,0,.59-1.43v-.76a2,2,0,0,0-2-2h-4.72v9.89a.65.65,0,0,0,.2.47Zm13-9a.44.44,0,0,1,.42.31l1.4,2.81a1.81,1.81,0,0,1,.2.82,2,2,0,0,1-.2.84l-1.43,2.84a.41.41,0,0,1-.39.26.39.39,0,0,1-.4-.26L273,169.77a2,2,0,0,1-.19-.84,2.12,2.12,0,0,1,.19-.82l1.39-2.81A.47.47,0,0,1,274.79,165Zm0-1.34a1.69,1.69,0,0,0-1.6,1l-1.48,3a3.07,3.07,0,0,0-.29,1.33,3,3,0,0,0,.29,1.32l1.48,3a1.94,1.94,0,0,0,.64.7,1.79,1.79,0,0,0,1,.28,1.63,1.63,0,0,0,1.59-1l1.47-3a2.91,2.91,0,0,0,.31-1.32,2.8,2.8,0,0,0-.31-1.33l-1.47-3a1.65,1.65,0,0,0-1.59-1Zm8,0h3.48a1.73,1.73,0,0,1,1.2.54,1.71,1.71,0,0,1,.57,1.3.64.64,0,0,1-.21.48.61.61,0,0,1-.44.2.55.55,0,0,1-.47-.16,1.54,1.54,0,0,1-.25-.57.49.49,0,0,0-.51-.42h-3.3c-.16,0-.24,0-.24.15a.38.38,0,0,0,.11.22l4.95,6.33a1.55,1.55,0,0,1,.35,1,1.41,1.41,0,0,1-.43,1.05,1.29,1.29,0,0,1-1,.46H283a1.85,1.85,0,0,1-1.78-1.74c0-.5.24-.75.7-.75a.69.69,0,0,1,.66.65.48.48,0,0,0,.47.5h3.37c.14,0,.21-.05.21-.17a.41.41,0,0,0-.1-.2l-4.95-6.33a1.61,1.61,0,0,1-.35-1,1.49,1.49,0,0,1,.45-1.07,1.44,1.44,0,0,1,1.07-.46Zm8.31,1.82v-1.8h6.74v1.82a.63.63,0,0,1-.2.47.68.68,0,0,1-.95,0h0a.65.65,0,0,1-.2-.47V165h-1.36v8.54a.59.59,0,0,1-.19.47.67.67,0,0,1-.47.2.69.69,0,0,1-.69-.67h0V165h-1.35v.47a.59.59,0,0,1-.19.47.66.66,0,0,1-1,0,.59.59,0,0,1-.19-.47Z"></path></svg> 