<?xml version="1.0" encoding="UTF-8"?> <svg xmlns="http://www.w3.org/2000/svg" xmlns:xlink="http://www.w3.org/1999/xlink" id="Layer_1" data-name="Layer 1" viewBox="0 0 500.13 477.23"><defs><style>.cls-1,.cls-5{fill:#ff5050;}.cls-1,.cls-2,.cls-22,.cls-3,.cls-7{stroke:#000;stroke-miterlimit:10;stroke-width:2px;}.cls-3{fill:#c169ff;}.cls-4{isolation:isolate;}.cls-6{clip-path:url(#clip-path);}.cls-7{fill:none;}.cls-8{clip-path:url(#clip-path-2);}.cls-9{clip-path:url(#clip-path-3);}.cls-10{clip-path:url(#clip-path-4);}.cls-11{clip-path:url(#clip-path-5);}.cls-12{clip-path:url(#clip-path-6);}.cls-13{clip-path:url(#clip-path-7);}.cls-14{clip-path:url(#clip-path-8);}.cls-15{clip-path:url(#clip-path-9);}.cls-16{clip-path:url(#clip-path-10);}.cls-17{clip-path:url(#clip-path-11);}.cls-18{clip-path:url(#clip-path-12);}.cls-19{clip-path:url(#clip-path-13);}.cls-20{clip-path:url(#clip-path-14);}.cls-21{clip-path:url(#clip-path-15);}.cls-22{fill:#fff;}.cls-23{clip-path:url(#clip-path-16);}</style><clipPath id="clip-path"><path class="cls-1" d="M287.64,427.82,195.08,374q-.93-.54-.93-2.67l92.56,53.79Q286.71,427.28,287.64,427.82Z"></path></clipPath><clipPath id="clip-path-2"><path class="cls-1" d="M193.26,357.7l92.56,53.79a2.25,2.25,0,0,1,.86,2.1L194.12,359.8A2.23,2.23,0,0,0,193.26,357.7Z"></path></clipPath><clipPath id="clip-path-3"><path class="cls-2" d="M233.62,236.14l92.56,53.79a11.54,11.54,0,0,1,1.57,1.08,17.3,17.3,0,0,1,4.5,6,20.57,20.57,0,0,1,1.89,9,51.29,51.29,0,0,1-5.91,23.35l-92.56-53.79a51.16,51.16,0,0,0,5.91-23.35,20.57,20.57,0,0,0-1.89-9,17.3,17.3,0,0,0-4.5-6A11.54,11.54,0,0,0,233.62,236.14Z"></path></clipPath><clipPath id="clip-path-4"><path class="cls-1" d="M270.35,367.56l-92.56-53.79a8.41,8.41,0,0,0,4.24.89,16.21,16.21,0,0,0,8.21-2.38,7,7,0,0,0,3.73-6.44l92.55,53.79a7,7,0,0,1-3.72,6.44,16.31,16.31,0,0,1-8.21,2.38A8.41,8.41,0,0,1,270.35,367.56Z"></path></clipPath><clipPath id="clip-path-5"><path class="cls-1" d="M258.71,353.41a2,2,0,0,0-2.07-.11,7.45,7.45,0,0,0-1.86,1.5"></path></clipPath><clipPath id="clip-path-6"><path class="cls-1" d="M192,235.86l92.55,53.79a3.73,3.73,0,0,1,1.82,2.75l-92.56-53.79A3.75,3.75,0,0,0,192,235.86Z"></path></clipPath><clipPath id="clip-path-7"><path class="cls-2" d="M237.44,418l-92.56-53.79a42.8,42.8,0,0,1-8.82-6.72,29.9,29.9,0,0,1-6-8.34,17.84,17.84,0,0,1-2.07-6.95c0-1.14.75-2.58,2.24-4.29l92.56,53.79c-1.49,1.71-2.25,3.15-2.24,4.29a17.84,17.84,0,0,0,2.07,6.95,29.9,29.9,0,0,0,6,8.34A42.8,42.8,0,0,0,237.44,418Z"></path></clipPath><clipPath id="clip-path-8"><path class="cls-1" d="M263.58,183.89l92.56,53.79q-14.89-8.66-41.24-6.8l-92.56-53.79Q248.68,175.22,263.58,183.89Z"></path></clipPath><clipPath id="clip-path-9"><path class="cls-1" d="M333.93,175.18l-92.56-53.79a2.05,2.05,0,0,1-.71-.77,37.16,37.16,0,0,0-2.82-4l92.56,53.79a37.16,37.16,0,0,1,2.82,4A2,2,0,0,0,333.93,175.18Z"></path></clipPath><clipPath id="clip-path-10"><path class="cls-1" d="M229.59,107.83l92.56,53.79a8.53,8.53,0,0,1,.77.51,39.47,39.47,0,0,1,7.48,8.32l-92.56-53.79a39.47,39.47,0,0,0-7.48-8.32A7.32,7.32,0,0,0,229.59,107.83Z"></path></clipPath><clipPath id="clip-path-11"><path class="cls-1" d="M262.71,58.15l92.56,53.79a27.71,27.71,0,0,0-19.45-3.37L243.26,54.78A27.71,27.71,0,0,1,262.71,58.15Z"></path></clipPath><clipPath id="clip-path-12"><path class="cls-1" d="M313.65,114.67,221.09,60.88a1.58,1.58,0,0,0,.53.18,10.17,10.17,0,0,0,4.3-.78c1.86-.64,4.23-1.5,7.08-2.59a77.31,77.31,0,0,1,10.26-2.91l92.56,53.79a75.41,75.41,0,0,0-10.26,2.91c-2.85,1.09-5.22,2-7.08,2.59a10.17,10.17,0,0,1-4.3.78A1.51,1.51,0,0,1,313.65,114.67Z"></path></clipPath><clipPath id="clip-path-13"><path class="cls-1" d="M219.17,43.18,311.73,97q-.94-.54-2.82.54L216.35,43.72Q218.23,42.64,219.17,43.18Z"></path></clipPath><clipPath id="clip-path-14"><path class="cls-1" d="M285.83,115.12,193.27,61.33A6.93,6.93,0,0,1,197,54.9l92.56,53.79A6.93,6.93,0,0,0,285.83,115.12Z"></path></clipPath><clipPath id="clip-path-15"><path class="cls-1" d="M255.32,155.47l-92.55-53.79a80.74,80.74,0,0,1,11.54-11.16q5.58-4.29,9.69-7.1a63.3,63.3,0,0,0,6.7-5.16,7.05,7.05,0,0,0,2.6-5.37l92.56,53.79a7.08,7.08,0,0,1-2.6,5.37,62.51,62.51,0,0,1-6.71,5.16q-4.1,2.81-9.68,7.1A80.76,80.76,0,0,0,255.32,155.47Z"></path></clipPath><clipPath id="clip-path-16"><path class="cls-1" d="M236.81,284.82,144.25,231a31.21,31.21,0,0,1-7.25-5.75q-10.87-11.5-10.93-33.35-.13-48.83,36.7-90.25l92.55,53.79q-36.81,41.43-36.69,90.25.06,21.82,10.93,33.35A31.21,31.21,0,0,0,236.81,284.82Z"></path></clipPath></defs><circle class="cls-3" cx="249.24" cy="238.5" r="233.5"></circle><g class="cls-4"><g class="cls-4"><path class="cls-5" d="M287.64,427.82,195.08,374q-.93-.54-.93-2.67l92.56,53.79Q286.71,427.28,287.64,427.82Z"></path><g class="cls-6"><g class="cls-4"><path class="cls-1" d="M287.64,427.82,195.08,374q-.93-.54-.93-2.67l92.56,53.79q0,2.13.93,2.67"></path></g></g><path class="cls-7" d="M287.64,427.82,195.08,374q-.93-.54-.93-2.67l92.56,53.79Q286.71,427.28,287.64,427.82Z"></path></g><polygon class="cls-1" points="286.71 425.15 194.15 371.36 194.12 359.8 286.68 413.59 286.71 425.15"></polygon><g class="cls-4"><path class="cls-5" d="M193.26,357.7l92.56,53.79a2.25,2.25,0,0,1,.86,2.1L194.12,359.8A2.23,2.23,0,0,0,193.26,357.7Z"></path><g class="cls-8"><g class="cls-4"><path class="cls-1" d="M286.68,413.59,194.12,359.8a2.23,2.23,0,0,0-.86-2.1l92.56,53.79a2.25,2.25,0,0,1,.86,2.1"></path></g></g><path class="cls-7" d="M193.26,357.7l92.56,53.79a2.25,2.25,0,0,1,.86,2.1L194.12,359.8A2.23,2.23,0,0,0,193.26,357.7Z"></path></g><g class="cls-4"><path class="cls-5" d="M314.25,345l-92.56-53.79a1.71,1.71,0,0,0,1.71-.26q6.34-3.66,12.27-15.44l92.56,53.79q-5.94,11.79-12.27,15.44A1.71,1.71,0,0,1,314.25,345Z"></path><path class="cls-7" d="M314.25,345l-92.56-53.79a1.71,1.71,0,0,0,1.71-.26q6.34-3.66,12.27-15.44l92.56,53.79q-5.94,11.79-12.27,15.44A1.71,1.71,0,0,1,314.25,345Z"></path></g><path d="M233.62,236.14l92.56,53.79a11.54,11.54,0,0,1,1.57,1.08,17.3,17.3,0,0,1,4.5,6,20.57,20.57,0,0,1,1.89,9,51.29,51.29,0,0,1-5.91,23.35l-92.56-53.79a51.16,51.16,0,0,0,5.91-23.35,20.57,20.57,0,0,0-1.89-9,17.3,17.3,0,0,0-4.5-6A11.54,11.54,0,0,0,233.62,236.14Z"></path><g class="cls-9"><g class="cls-4"><path class="cls-2" d="M328.23,329.34l-92.56-53.79.5-1,92.56,53.79c-.17.33-.33.67-.5,1"></path><path class="cls-2" d="M329.78,326l-92.56-53.79c.34-.77.65-1.54.95-2.31l92.56,53.79c-.3.77-.61,1.54-1,2.31"></path><path class="cls-2" d="M333.76,311.94l-92.55-53.79a45.81,45.81,0,0,0,.37-5.95,20.57,20.57,0,0,0-1.89-9,17.3,17.3,0,0,0-4.5-6,11.54,11.54,0,0,0-1.57-1.08l92.56,53.79a11.54,11.54,0,0,1,1.57,1.08,17.3,17.3,0,0,1,4.5,6,20.57,20.57,0,0,1,1.89,9,44.13,44.13,0,0,1-.38,5.95"></path></g></g><path class="cls-7" d="M233.62,236.14l92.56,53.79a11.54,11.54,0,0,1,1.57,1.08,17.3,17.3,0,0,1,4.5,6,20.57,20.57,0,0,1,1.89,9,51.29,51.29,0,0,1-5.91,23.35l-92.56-53.79a51.16,51.16,0,0,0,5.91-23.35,20.57,20.57,0,0,0-1.89-9,17.3,17.3,0,0,0-4.5-6A11.54,11.54,0,0,0,233.62,236.14Z"></path><g class="cls-4"><path class="cls-5" d="M270.35,367.56l-92.56-53.79a8.41,8.41,0,0,0,4.24.89,16.21,16.21,0,0,0,8.21-2.38,7,7,0,0,0,3.73-6.44l92.55,53.79a7,7,0,0,1-3.72,6.44,16.31,16.31,0,0,1-8.21,2.38A8.41,8.41,0,0,1,270.35,367.56Z"></path><g class="cls-10"><g class="cls-4"><path class="cls-1" d="M270.35,367.56l-92.56-53.79.06,0,92.56,53.79-.06,0"></path><path class="cls-1" d="M270.41,367.59,177.85,313.8a4.15,4.15,0,0,0,.56.27L271,367.86a4.68,4.68,0,0,1-.55-.27"></path><path class="cls-1" d="M271,367.86l-92.55-53.79a6,6,0,0,0,.68.24l92.56,53.79a7,7,0,0,1-.69-.24"></path><path class="cls-1" d="M271.65,368.1l-92.56-53.79c.27.08.55.14.86.2L272.5,368.3c-.3-.06-.58-.12-.85-.2"></path><path class="cls-1" d="M272.5,368.3,180,314.51c.35.06.73.1,1.13.13l92.56,53.79c-.4,0-.78-.07-1.14-.13"></path><path class="cls-1" d="M273.64,368.43l-92.56-53.79c.3,0,.62,0,.95,0h.62l92.56,53.79h-.62c-.33,0-.65,0-.95,0"></path><path class="cls-1" d="M275.21,368.44l-92.56-53.79a12.82,12.82,0,0,0,1.52-.15l92.56,53.79a13,13,0,0,1-1.52.15"></path><path class="cls-1" d="M276.73,368.29,184.17,314.5a13.61,13.61,0,0,0,1.66-.35l92.56,53.79a13.61,13.61,0,0,1-1.66.35"></path><path class="cls-2" d="M278.39,367.94l-92.56-53.79a16.41,16.41,0,0,0,2-.7l92.56,53.79a18.23,18.23,0,0,1-2,.7"></path><path class="cls-2" d="M280.43,367.24l-92.56-53.79a20,20,0,0,0,2.37-1.17,8.58,8.58,0,0,0,1.69-1.27l92.56,53.79a8.58,8.58,0,0,1-1.69,1.27,21.66,21.66,0,0,1-2.37,1.17"></path><path class="cls-1" d="M284.49,364.8,191.93,311l.37-.39,92.56,53.79-.37.39"></path><path class="cls-1" d="M284.86,364.41,192.3,310.62c.08-.1.17-.2.24-.3l92.56,53.79-.24.3"></path><path class="cls-1" d="M285.1,364.11l-92.56-53.79c.07-.08.13-.17.19-.25l92.56,53.79c-.06.08-.12.17-.19.25"></path><path class="cls-1" d="M285.29,363.86l-92.56-53.79c.06-.08.11-.16.16-.24l92.56,53.79-.16.24"></path><path class="cls-1" d="M285.45,363.62l-92.56-53.79.14-.22,92.56,53.79-.14.22"></path><path class="cls-1" d="M285.59,363.4,193,309.61l.12-.22,92.56,53.78-.12.23"></path><path class="cls-1" d="M285.71,363.17l-92.56-53.78.12-.23L285.83,363l-.12.22"></path><path class="cls-1" d="M285.83,363l-92.56-53.79.1-.24,92.56,53.79-.1.24"></path><path class="cls-1" d="M285.93,362.71l-92.56-53.79c0-.09.08-.17.11-.26L286,362.45c0,.09-.07.17-.11.26"></path><path class="cls-1" d="M286,362.45l-92.56-53.79a2.47,2.47,0,0,0,.1-.29l92.56,53.79c0,.1-.06.19-.1.29"></path><path class="cls-1" d="M286.14,362.16l-92.56-53.79a3.38,3.38,0,0,0,.11-.34l92.56,53.79c0,.12-.07.23-.11.34"></path><path class="cls-1" d="M286.25,361.82,193.69,308c0-.14.07-.28.1-.42l92.56,53.79c0,.14-.07.28-.1.42"></path><path class="cls-1" d="M286.35,361.4l-92.56-53.79c0-.2.08-.41.11-.62l92.55,53.79c0,.21-.06.41-.1.62"></path><path class="cls-1" d="M286.45,360.78,193.9,307a10.6,10.6,0,0,0,.07-1.15l92.55,53.79a7.18,7.18,0,0,1-.07,1.15"></path></g></g><path class="cls-7" d="M270.35,367.56l-92.56-53.79a8.41,8.41,0,0,0,4.24.89,16.21,16.21,0,0,0,8.21-2.38,7,7,0,0,0,3.73-6.44l92.55,53.79a7,7,0,0,1-3.72,6.44,16.31,16.31,0,0,1-8.21,2.38A8.41,8.41,0,0,1,270.35,367.56Z"></path></g><g class="cls-4"><path class="cls-5" d="M258.71,353.41a2,2,0,0,0-2.07-.11,7.45,7.45,0,0,0-1.86,1.5"></path><g class="cls-11"><g class="cls-4"><path class="cls-1" d="M164.08,299.51l.23-.11,92.55,53.79-.22.11a7.58,7.58,0,0,0-1.55,1.17"></path><path class="cls-1" d="M256.86,353.19,164.31,299.4l.21-.08,92.56,53.79-.22.08"></path><path class="cls-1" d="M257.08,353.11l-92.56-53.79.19,0,92.56,53.79-.19,0"></path><path class="cls-1" d="M257.27,353.07l-92.56-53.79h.18l92.56,53.79h-.18"></path><path class="cls-1" d="M257.45,353.06l-92.56-53.79h.19l92.56,53.79h-.19"></path><path class="cls-1" d="M257.64,353.06l-92.56-53.79.21,0,92.56,53.79-.21,0"></path><path class="cls-1" d="M257.85,353.08l-92.56-53.79.23.06,92.56,53.79-.23-.06"></path><path class="cls-1" d="M258.35,353.23l-.27-.09"></path><path class="cls-1" d="M258.08,353.14l-92.56-53.79"></path><path class="cls-1" d="M258.67,353.39l-.32-.16"></path></g></g><path class="cls-7" d="M258.71,353.41a2,2,0,0,0-2.07-.11,7.45,7.45,0,0,0-1.86,1.5"></path></g><polygon class="cls-2" points="286.52 359.63 193.97 305.84 193.78 238.61 286.33 292.4 286.52 359.63"></polygon><g class="cls-4"><path class="cls-5" d="M192,235.86l92.55,53.79a3.73,3.73,0,0,1,1.82,2.75l-92.56-53.79A3.75,3.75,0,0,0,192,235.86Z"></path><g class="cls-12"><g class="cls-4"><path class="cls-1" d="M286.33,292.4l-92.56-53.79a3.75,3.75,0,0,0-1.81-2.75l92.55,53.79a3.73,3.73,0,0,1,1.82,2.75"></path></g></g><path class="cls-7" d="M192,235.86l92.55,53.79a3.73,3.73,0,0,1,1.82,2.75l-92.56-53.79A3.75,3.75,0,0,0,192,235.86Z"></path></g><path class="cls-1" d="M222.79,391.72l-92.56-53.79,34.52-37.41a2.47,2.47,0,0,1,3.05-.45l89.31,52a.23.23,0,0,1,.06.36Z"></path><path d="M237.44,418l-92.56-53.79a42.8,42.8,0,0,1-8.82-6.72,29.9,29.9,0,0,1-6-8.34,17.84,17.84,0,0,1-2.07-6.95c0-1.14.75-2.58,2.24-4.29l92.56,53.79c-1.49,1.71-2.25,3.15-2.24,4.29a17.84,17.84,0,0,0,2.07,6.95,29.9,29.9,0,0,0,6,8.34A42.8,42.8,0,0,0,237.44,418Z"></path><g class="cls-13"><g class="cls-4"><path class="cls-2" d="M237.44,418l-92.56-53.79a42.8,42.8,0,0,1-8.82-6.72,29.9,29.9,0,0,1-6-8.34,17.84,17.84,0,0,1-2.07-6.95c0-.12,0-.25,0-.37l92.56,53.79c0,.12,0,.25,0,.37a17.84,17.84,0,0,0,2.07,6.95,29.9,29.9,0,0,0,6,8.34,42.8,42.8,0,0,0,8.82,6.72"></path><path class="cls-2" d="M220.57,395.64,128,341.85a2.56,2.56,0,0,1,.05-.27l92.56,53.79a2.56,2.56,0,0,0-.05.27"></path><path class="cls-2" d="M220.62,395.37l-92.56-53.79c0-.07,0-.15.05-.23l92.56,53.79c0,.08,0,.16,0,.23"></path><path class="cls-2" d="M220.67,395.14l-92.56-53.79c0-.07,0-.14.07-.21l92.56,53.79a1.72,1.72,0,0,0-.07.21"></path><path class="cls-2" d="M220.74,394.93l-92.56-53.79c0-.07,0-.14.07-.21l92.56,53.79c0,.07-.05.14-.07.21"></path><path class="cls-2" d="M220.81,394.72l-92.56-53.79.09-.21,92.56,53.79-.09.21"></path><path class="cls-2" d="M220.9,394.51l-92.56-53.79a2.4,2.4,0,0,1,.11-.23L221,394.28a2.4,2.4,0,0,0-.11.23"></path><path class="cls-2" d="M221,394.28l-92.56-53.79.12-.25L221.13,394l-.12.25"></path><path class="cls-2" d="M221.13,394l-92.56-53.79c.05-.09.1-.19.16-.28l92.56,53.79c-.06.09-.11.19-.16.28"></path><path class="cls-2" d="M221.29,393.75,128.73,340c.06-.11.13-.21.2-.32l92.56,53.79a3.45,3.45,0,0,0-.2.32"></path><path class="cls-2" d="M221.49,393.43l-92.56-53.79a4.81,4.81,0,0,1,.27-.41L221.76,393a4.81,4.81,0,0,0-.27.41"></path><path class="cls-2" d="M221.76,393,129.2,339.23l.38-.52,92.56,53.79c-.14.18-.26.35-.38.52"></path><path class="cls-2" d="M222.14,392.5l-92.56-53.79c.19-.24.4-.5.63-.76l92.56,53.79c-.23.26-.44.52-.63.76"></path><path class="cls-2" d="M222.77,391.74,130.21,338l0,0,92.56,53.79,0,0"></path></g></g><path class="cls-7" d="M237.44,418l-92.56-53.79a42.8,42.8,0,0,1-8.82-6.72,29.9,29.9,0,0,1-6-8.34,17.84,17.84,0,0,1-2.07-6.95c0-1.14.75-2.58,2.24-4.29l92.56,53.79c-1.49,1.71-2.25,3.15-2.24,4.29a17.84,17.84,0,0,0,2.07,6.95,29.9,29.9,0,0,0,6,8.34A42.8,42.8,0,0,0,237.44,418Z"></path><g class="cls-4"><path class="cls-5" d="M263.58,183.89l92.56,53.79q-14.89-8.66-41.24-6.8l-92.56-53.79Q248.68,175.22,263.58,183.89Z"></path><g class="cls-14"><g class="cls-4"><path class="cls-1" d="M314.9,230.88l-92.56-53.79c1.25-.09,2.48-.16,3.7-.21l92.56,53.79c-1.22.05-2.45.12-3.7.21"></path><path class="cls-1" d="M318.6,230.67,226,176.88a108.06,108.06,0,0,1,11.71.08l92.56,53.78a108.15,108.15,0,0,0-11.71-.07"></path><path class="cls-1" d="M330.31,230.74,237.75,177a80.73,80.73,0,0,1,8.64,1L339,231.74a83.32,83.32,0,0,0-8.64-1"></path><path class="cls-1" d="M339,231.74,246.39,178a62.44,62.44,0,0,1,6.72,1.54l92.56,53.79a62.44,62.44,0,0,0-6.72-1.54"></path><path class="cls-1" d="M345.67,233.28l-92.56-53.79a49.83,49.83,0,0,1,5.45,1.92l92.56,53.79a49.83,49.83,0,0,0-5.45-1.92"></path><path class="cls-1" d="M351.12,235.2l-92.56-53.79a40.8,40.8,0,0,1,4.55,2.21l92.56,53.79a41.67,41.67,0,0,0-4.55-2.21"></path><path class="cls-1" d="M355.67,237.41l-92.56-53.79.47.27,92.56,53.79-.47-.27"></path></g></g><path class="cls-7" d="M263.58,183.89l92.56,53.79q-14.89-8.66-41.24-6.8l-92.56-53.79Q248.68,175.22,263.58,183.89Z"></path></g><g class="cls-4"><path class="cls-5" d="M333.93,175.18l-92.56-53.79a2.05,2.05,0,0,1-.71-.77,37.16,37.16,0,0,0-2.82-4l92.56,53.79a37.16,37.16,0,0,1,2.82,4A2,2,0,0,0,333.93,175.18Z"></path><g class="cls-15"><g class="cls-4"><path class="cls-1" d="M333.93,175.18l-92.56-53.79a2.05,2.05,0,0,1-.71-.77,37.16,37.16,0,0,0-2.82-4l92.56,53.79a37.16,37.16,0,0,1,2.82,4,2,2,0,0,0,.71.77"></path></g></g><path class="cls-7" d="M333.93,175.18l-92.56-53.79a2.05,2.05,0,0,1-.71-.77,37.16,37.16,0,0,0-2.82-4l92.56,53.79a37.16,37.16,0,0,1,2.82,4A2,2,0,0,0,333.93,175.18Z"></path></g><g class="cls-4"><path class="cls-5" d="M229.59,107.83l92.56,53.79a8.53,8.53,0,0,1,.77.51,39.47,39.47,0,0,1,7.48,8.32l-92.56-53.79a39.47,39.47,0,0,0-7.48-8.32A7.32,7.32,0,0,0,229.59,107.83Z"></path><g class="cls-16"><g class="cls-4"><path class="cls-1" d="M330.4,170.45l-92.56-53.79a39.47,39.47,0,0,0-7.48-8.32,7.32,7.32,0,0,0-.77-.51l92.56,53.79a8.53,8.53,0,0,1,.77.51,39.47,39.47,0,0,1,7.48,8.32"></path></g></g><path class="cls-7" d="M229.59,107.83l92.56,53.79a8.53,8.53,0,0,1,.77.51,39.47,39.47,0,0,1,7.48,8.32l-92.56-53.79a39.47,39.47,0,0,0-7.48-8.32A7.32,7.32,0,0,0,229.59,107.83Z"></path></g><path class="cls-5" d="M268.62,234l-92.56-53.78a15.23,15.23,0,0,0,7.27,2,14.29,14.29,0,0,0,7.66-2.07c1.73-1,2.61-2.93,2.6-5.78l92.56,53.78c0,2.86-.88,4.8-2.6,5.79a14.32,14.32,0,0,1-7.66,2.07A15.13,15.13,0,0,1,268.62,234Z"></path><path class="cls-7" d="M268.62,234l-92.56-53.78a15.23,15.23,0,0,0,7.27,2,14.29,14.29,0,0,0,7.66-2.07c1.73-1,2.61-2.93,2.6-5.78l92.56,53.78c0,2.86-.88,4.8-2.6,5.79a14.32,14.32,0,0,1-7.66,2.07A15.13,15.13,0,0,1,268.62,234Z"></path><g class="cls-4"><path class="cls-5" d="M262.71,58.15l92.56,53.79a27.71,27.71,0,0,0-19.45-3.37L243.26,54.78A27.71,27.71,0,0,1,262.71,58.15Z"></path><g class="cls-17"><g class="cls-4"><path class="cls-1" d="M335.82,108.57,243.26,54.78l.9-.15,92.56,53.79-.9.15"></path><path class="cls-1" d="M336.72,108.42,244.16,54.63c1.09-.16,2.18-.27,3.25-.32L340,108.1c-1.07.05-2.16.16-3.25.32"></path><path class="cls-1" d="M340,108.1,247.41,54.31c1,0,2,0,3,0L343,108.13c-1-.06-2-.07-3,0"></path><path class="cls-1" d="M343,108.13,250.43,54.34a27.66,27.66,0,0,1,2.9.34l92.56,53.79a28.17,28.17,0,0,0-2.91-.34"></path><path class="cls-1" d="M345.89,108.47,253.33,54.68a29.18,29.18,0,0,1,2.91.67l92.55,53.79a28.36,28.36,0,0,0-2.9-.67"></path><path class="cls-1" d="M348.79,109.14,256.24,55.35a30.07,30.07,0,0,1,3,1.06l92.56,53.79a29.35,29.35,0,0,0-3-1.06"></path><path class="cls-1" d="M351.77,110.2,259.21,56.41a29.14,29.14,0,0,1,3.13,1.53l92.56,53.79a29.14,29.14,0,0,0-3.13-1.53"></path><path class="cls-1" d="M354.9,111.73,262.34,57.94l.37.21,92.56,53.79-.37-.21"></path></g></g><path class="cls-7" d="M262.71,58.15l92.56,53.79a27.71,27.71,0,0,0-19.45-3.37L243.26,54.78A27.71,27.71,0,0,1,262.71,58.15Z"></path></g><polygon class="cls-2" points="286.15 228.18 193.59 174.39 193.46 127.27 286.02 181.06 286.15 228.18"></polygon><g class="cls-4"><path class="cls-5" d="M313.65,114.67,221.09,60.88a1.58,1.58,0,0,0,.53.18,10.17,10.17,0,0,0,4.3-.78c1.86-.64,4.23-1.5,7.08-2.59a77.31,77.31,0,0,1,10.26-2.91l92.56,53.79a75.41,75.41,0,0,0-10.26,2.91c-2.85,1.09-5.22,2-7.08,2.59a10.17,10.17,0,0,1-4.3.78A1.51,1.51,0,0,1,313.65,114.67Z"></path><g class="cls-18"><g class="cls-4"><path class="cls-1" d="M313.65,114.67,221.09,60.88h0l92.56,53.79h0"></path><path class="cls-1" d="M313.66,114.68,221.1,60.89l.15.07,92.56,53.79-.15-.07"></path><path class="cls-1" d="M313.81,114.75,221.25,61l.15,0L314,114.8l-.15,0"></path><path class="cls-1" d="M314,114.8,221.4,61l.16,0,92.56,53.79-.16,0"></path><path class="cls-1" d="M314.12,114.84,221.56,61.05h.06l.26,0,92.56,53.79-.26,0h-.06"></path><path class="cls-1" d="M314.44,114.87,221.88,61.08h.52L315,114.88h-.52"></path><path class="cls-1" d="M315,114.88,222.4,61.09c.24,0,.5,0,.78-.08l92.56,53.79c-.28,0-.54.07-.78.08"></path><path class="cls-1" d="M315.74,114.8,223.18,61a11.87,11.87,0,0,0,1.32-.29l92.56,53.79a11.87,11.87,0,0,1-1.32.29"></path><path class="cls-1" d="M317.06,114.51,224.5,60.72c.44-.12.92-.27,1.42-.44,1.86-.64,4.23-1.5,7.08-2.59q2.55-.94,5.68-1.8l92.56,53.79c-2.09.57-4,1.17-5.68,1.8-2.85,1.09-5.22,2-7.08,2.59-.51.17-1,.32-1.42.44"></path><path class="cls-1" d="M331.24,109.68,238.68,55.89c1.43-.38,3-.75,4.58-1.11l92.56,53.79c-1.62.36-3.15.73-4.58,1.11"></path></g></g><path class="cls-7" d="M313.65,114.67,221.09,60.88a1.58,1.58,0,0,0,.53.18,10.17,10.17,0,0,0,4.3-.78c1.86-.64,4.23-1.5,7.08-2.59a77.31,77.31,0,0,1,10.26-2.91l92.56,53.79a75.41,75.41,0,0,0-10.26,2.91c-2.85,1.09-5.22,2-7.08,2.59a10.17,10.17,0,0,1-4.3.78A1.51,1.51,0,0,1,313.65,114.67Z"></path></g><g class="cls-4"><path class="cls-5" d="M219.17,43.18,311.73,97q-.94-.54-2.82.54L216.35,43.72Q218.23,42.64,219.17,43.18Z"></path><g class="cls-19"><g class="cls-4"><path class="cls-1" d="M308.91,97.51,216.35,43.72a8.6,8.6,0,0,1,.86-.43l92.56,53.79a6.88,6.88,0,0,0-.86.43"></path><path class="cls-1" d="M309.77,97.08,217.21,43.29a5,5,0,0,1,.54-.19l92.56,53.79a5,5,0,0,0-.54.19"></path><path class="cls-1" d="M310.31,96.89,217.75,43.1a2.29,2.29,0,0,1,.34-.07l92.56,53.79a2.29,2.29,0,0,0-.34.07"></path><path class="cls-1" d="M310.65,96.82,218.09,43l.25,0L310.9,96.79l-.25,0"></path><path class="cls-1" d="M310.9,96.79,218.34,43h.21l92.56,53.79h-.21"></path><path class="cls-1" d="M311.11,96.79,218.55,43l.18,0,92.55,53.79-.17,0"></path><path class="cls-1" d="M311.28,96.81,218.73,43l.15,0,92.56,53.79-.16,0"></path><path class="cls-1" d="M311.44,96.85,218.88,43.06l.14,0L311.58,96.9l-.14-.05"></path><path class="cls-1" d="M311.58,96.9,219,43.11l.14.06L311.72,97l-.14-.06"></path><path class="cls-1" d="M311.72,97,219.16,43.17h0L311.73,97h0"></path></g></g><path class="cls-7" d="M219.17,43.18,311.73,97q-.94-.54-2.82.54L216.35,43.72Q218.23,42.64,219.17,43.18Z"></path></g><polygon class="cls-2" points="285.86 126.68 193.31 72.89 193.27 61.33 285.83 115.12 285.86 126.68"></polygon><polygon class="cls-1" points="289.54 108.69 196.98 54.9 216.35 43.72 308.91 97.51 289.54 108.69"></polygon><g class="cls-4"><path class="cls-5" d="M285.83,115.12,193.27,61.33A6.93,6.93,0,0,1,197,54.9l92.56,53.79A6.93,6.93,0,0,0,285.83,115.12Z"></path><g class="cls-20"><g class="cls-4"><path class="cls-1" d="M285.83,115.12,193.27,61.33a9,9,0,0,1,.07-1.17L285.9,114a9,9,0,0,0-.07,1.17"></path><path class="cls-1" d="M285.9,114,193.34,60.16c0-.21.06-.41.11-.62L286,113.33c-.05.21-.08.41-.11.62"></path><path class="cls-1" d="M286,113.33,193.45,59.54c0-.14.06-.28.1-.42l92.56,53.79c0,.14-.07.28-.1.42"></path><path class="cls-1" d="M286.11,112.91,193.55,59.12c0-.12.07-.23.1-.34l92.56,53.79c0,.11-.07.22-.1.34"></path><path class="cls-1" d="M286.21,112.57,193.65,58.78c0-.09.07-.19.11-.29l92.56,53.79c0,.1-.08.19-.11.29"></path><path class="cls-1" d="M286.32,112.28,193.76,58.49a2.6,2.6,0,0,1,.1-.25L286.42,112a2.6,2.6,0,0,0-.1.25"></path><path class="cls-1" d="M286.42,112,193.86,58.24,194,58l92.56,53.79a2.56,2.56,0,0,0-.11.24"></path><path class="cls-1" d="M286.53,111.79,194,58a2.26,2.26,0,0,1,.11-.22l92.56,53.79-.11.22"></path><path class="cls-1" d="M286.64,111.57,194.08,57.78a1.59,1.59,0,0,1,.13-.22l92.55,53.79-.12.22"></path><path class="cls-1" d="M286.76,111.35,194.21,57.56a1.59,1.59,0,0,1,.13-.22l92.56,53.79-.14.22"></path><path class="cls-1" d="M286.9,111.13,194.34,57.34c0-.08.1-.16.16-.24l92.56,53.79-.16.24"></path><path class="cls-1" d="M287.06,110.89,194.5,57.1l.18-.25,92.56,53.79-.18.25"></path><path class="cls-1" d="M287.24,110.64,194.68,56.85l.24-.29,92.56,53.79-.24.29"></path><path class="cls-1" d="M287.48,110.35,194.92,56.56l.36-.38L287.84,110l-.36.38"></path><path class="cls-1" d="M287.84,110,195.28,56.18A8.69,8.69,0,0,1,197,54.9l92.56,53.79a8.69,8.69,0,0,0-1.7,1.28"></path></g></g><path class="cls-7" d="M285.83,115.12,193.27,61.33A6.93,6.93,0,0,1,197,54.9l92.56,53.79A6.93,6.93,0,0,0,285.83,115.12Z"></path></g><g class="cls-4"><path class="cls-5" d="M255.32,155.47l-92.55-53.79a80.74,80.74,0,0,1,11.54-11.16q5.58-4.29,9.69-7.1a63.3,63.3,0,0,0,6.7-5.16,7.05,7.05,0,0,0,2.6-5.37l92.56,53.79a7.08,7.08,0,0,1-2.6,5.37,62.51,62.51,0,0,1-6.71,5.16q-4.1,2.81-9.68,7.1A80.76,80.76,0,0,0,255.32,155.47Z"></path><g class="cls-21"><g class="cls-4"><path class="cls-1" d="M255.32,155.47l-92.55-53.79,0,0,92.55,53.79,0,0"></path><path class="cls-1" d="M283.6,131.73,191,77.94c.17-.17.34-.35.49-.52l92.56,53.78c-.15.18-.32.35-.49.53"></path><path class="cls-1" d="M284.09,131.2,191.53,77.42l.31-.38,92.56,53.79c-.1.12-.2.25-.31.37"></path><path class="cls-1" d="M284.4,130.83,191.84,77l.23-.31,92.55,53.79a3.46,3.46,0,0,1-.22.31"></path><path class="cls-1" d="M284.62,130.52,192.07,76.73l.18-.27,92.56,53.79-.19.27"></path><path class="cls-1" d="M284.81,130.25,192.25,76.46l.15-.25L285,130l-.15.25"></path><path class="cls-1" d="M285,130,192.4,76.21l.14-.25,92.56,53.79L285,130"></path><path class="cls-1" d="M285.1,129.75,192.54,76l.12-.24,92.56,53.79-.12.24"></path><path class="cls-1" d="M285.22,129.51,192.66,75.72a2.56,2.56,0,0,0,.11-.24l92.56,53.78a1.89,1.89,0,0,1-.11.25"></path><path class="cls-1" d="M285.33,129.26,192.77,75.48c0-.09.08-.17.11-.26L285.44,129a2.72,2.72,0,0,1-.11.25"></path><path class="cls-1" d="M285.44,129,192.88,75.22c0-.09.07-.18.1-.28l92.56,53.79c0,.1-.07.19-.1.28"></path><path class="cls-1" d="M285.54,128.73,193,74.94l.09-.3,92.56,53.79-.09.3"></path><path class="cls-1" d="M285.63,128.43,193.07,74.64a3,3,0,0,0,.09-.38l92.56,53.79a3,3,0,0,1-.09.38"></path><path class="cls-1" d="M285.72,128.05,193.16,74.26a4.54,4.54,0,0,0,.09-.51l92.56,53.79a4.54,4.54,0,0,1-.09.51"></path><path class="cls-1" d="M285.81,127.54,193.25,73.75a4.91,4.91,0,0,0,.05-.86l92.56,53.79a6.11,6.11,0,0,1-.05.86"></path></g></g><path class="cls-7" d="M255.32,155.47l-92.55-53.79a80.74,80.74,0,0,1,11.54-11.16q5.58-4.29,9.69-7.1a63.3,63.3,0,0,0,6.7-5.16,7.05,7.05,0,0,0,2.6-5.37l92.56,53.79a7.08,7.08,0,0,1-2.6,5.37,62.51,62.51,0,0,1-6.71,5.16q-4.1,2.81-9.68,7.1A80.76,80.76,0,0,0,255.32,155.47Z"></path></g><path class="cls-22" d="M361.39,241.35q15.15,12.71,15.24,42.25A101.52,101.52,0,0,1,373.9,307a158,158,0,0,1-7.4,23.37,132.32,132.32,0,0,1-11.13,21.65,100,100,0,0,1-14,17.5,124.38,124.38,0,0,1-11.73,10.84q-5,4-8.74,7a36,36,0,0,0-5.58,5.36,7.7,7.7,0,0,0-1.85,4.93l0,12a7,7,0,0,1-3.73,6.43l-19.37,11.19c-2.49,1.44-3.72.72-3.73-2.13l0-11.56c0-2-1-2.7-3-2.13a66.51,66.51,0,0,0-8,3.12q-5,2.26-11.74,4.64a37.59,37.59,0,0,1-13.8,2.18A23.7,23.7,0,0,1,238,418.33a42.69,42.69,0,0,1-9.36-7,29.9,29.9,0,0,1-6-8.34,17.84,17.84,0,0,1-2.07-6.95c0-1.14.75-2.58,2.24-4.29l32-36.92a7.45,7.45,0,0,1,1.86-1.5c1.24-.72,2.74.14,4.48,2.57s4.38,5.9,7.87,10.45c1,1.43,2.86,2.15,5.6,2.13a16.31,16.31,0,0,0,8.21-2.38,7,7,0,0,0,3.72-6.44l-.19-67.23c-.51-2.85-2.95-3.93-7.3-3.29a143.72,143.72,0,0,1-17.34,1.23q-21.3.27-32.13-11.27t-10.93-33.35q-.15-48.83,36.69-90.25a80.76,80.76,0,0,1,11.55-11.16q5.58-4.29,9.68-7.1a62.51,62.51,0,0,0,6.71-5.16,7.08,7.08,0,0,0,2.6-5.37l0-11.56a6.93,6.93,0,0,1,3.71-6.43l19.37-11.18c2.48-1.43,3.74-.73,3.75,2.12l0,12.43c0,1.71.49,2.65,1.48,2.79a10.17,10.17,0,0,0,4.3-.78c1.86-.64,4.23-1.5,7.08-2.59a75.41,75.41,0,0,1,10.26-2.91,27.73,27.73,0,0,1,20.16,3.8q8.61,5.75,12.55,11c2.61,3.51,3.93,6.24,3.94,8.24,0,1.43-.73,3-2.22,4.72l-32.38,37.13a7.24,7.24,0,0,1-1.86,1.5c-1.25.71-2.19.54-2.79-.53a37.16,37.16,0,0,0-2.82-4,39.47,39.47,0,0,0-7.48-8.32c-2.26-1.71-4.74-1.78-7.48-.2-1.74,1-2.59,3.08-2.58,6.22l.17,60.37,1.87,2.36Q346.24,228.65,361.39,241.35Zm-75.24-13.18L286,181.06c0-2.83-1.27-3.55-3.75-2.12a28.2,28.2,0,0,0-7.44,6.67A61.91,61.91,0,0,0,268,196a64.87,64.87,0,0,0-5,12.11,39,39,0,0,0-1.83,11.35,18.15,18.15,0,0,0,2.07,8.88,14.19,14.19,0,0,0,5.43,5.66,15.13,15.13,0,0,0,7.27,2,14.32,14.32,0,0,0,7.66-2.07c1.72-1,2.61-2.93,2.6-5.79m42.08,101.17A51.29,51.29,0,0,0,334.14,306a20.57,20.57,0,0,0-1.89-9,17.3,17.3,0,0,0-4.5-6,11.47,11.47,0,0,0-6-2.55,9.44,9.44,0,0,0-6,1.09c-1.74,1-2.59,3.06-2.58,6.21l.13,46.24c0,2.85.87,3.79,2.61,2.78q6.35-3.66,12.27-15.44"></path><g class="cls-4"><path class="cls-5" d="M236.81,284.82,144.25,231a31.21,31.21,0,0,1-7.25-5.75q-10.87-11.5-10.93-33.35-.13-48.83,36.7-90.25l92.55,53.79q-36.81,41.43-36.69,90.25.06,21.82,10.93,33.35A31.21,31.21,0,0,0,236.81,284.82Z"></path><g class="cls-23"><g class="cls-4"><path class="cls-2" d="M236.81,284.82,144.25,231a31.21,31.21,0,0,1-7.25-5.75q-10.87-11.5-10.93-33.35a124.12,124.12,0,0,1,1-16.31l92.56,53.78a124.38,124.38,0,0,0-1,16.32q.06,21.82,10.93,33.35a31.21,31.21,0,0,0,7.25,5.75"></path><path class="cls-1" d="M219.64,229.4l-92.56-53.78c.42-3.3,1-6.56,1.67-9.8l92.56,53.79q-1,4.86-1.67,9.79"></path><path class="cls-1" d="M221.31,219.61l-92.56-53.79c.52-2.44,1.11-4.85,1.78-7.26l92.56,53.79q-1,3.6-1.78,7.26"></path><path class="cls-1" d="M223.09,212.35l-92.56-53.79c.56-2,1.16-4,1.82-5.95l92.56,53.79c-.66,2-1.27,4-1.82,5.95"></path><path class="cls-1" d="M224.91,206.4l-92.56-53.79c.6-1.8,1.24-3.58,1.92-5.36L226.83,201c-.68,1.78-1.32,3.56-1.92,5.36"></path><path class="cls-1" d="M226.83,201l-92.56-53.79c.64-1.68,1.33-3.34,2-5L228.88,196c-.72,1.66-1.41,3.32-2,5"></path><path class="cls-1" d="M228.88,196l-92.56-53.79c.7-1.62,1.43-3.22,2.2-4.82l92.56,53.79c-.77,1.6-1.51,3.2-2.2,4.82"></path><path class="cls-1" d="M231.08,191.22l-92.56-53.79q1.15-2.4,2.42-4.78l92.56,53.79c-.84,1.58-1.65,3.18-2.42,4.78"></path><path class="cls-1" d="M233.5,186.44l-92.56-53.79c.87-1.63,1.77-3.24,2.71-4.85l92.56,53.79c-.94,1.61-1.84,3.22-2.71,4.85"></path><path class="cls-1" d="M236.21,181.59,143.65,127.8c1-1.71,2-3.4,3.11-5.09l92.55,53.79c-1.07,1.69-2.11,3.38-3.1,5.09"></path><path class="cls-1" d="M239.31,176.5l-92.55-53.79c1.19-1.86,2.43-3.72,3.73-5.56l92.56,53.79c-1.3,1.84-2.54,3.7-3.74,5.56"></path><path class="cls-1" d="M243.05,170.94l-92.56-53.79c1.47-2.1,3-4.2,4.63-6.27l92.56,53.79c-1.61,2.07-3.16,4.16-4.63,6.27"></path></g></g><path class="cls-7" d="M236.81,284.82,144.25,231a31.21,31.21,0,0,1-7.25-5.75q-10.87-11.5-10.93-33.35-.13-48.83,36.7-90.25l92.55,53.79q-36.81,41.43-36.69,90.25.06,21.82,10.93,33.35A31.21,31.21,0,0,0,236.81,284.82Z"></path></g></g></svg> 