<?xml version="1.0" encoding="UTF-8"?> <!-- Generator: Adobe Illustrator 22.1.0, SVG Export Plug-In . SVG Version: 6.00 Build 0) --> <svg xmlns="http://www.w3.org/2000/svg" xmlns:xlink="http://www.w3.org/1999/xlink" id="Layer_1" x="0px" y="0px" viewBox="0 0 84.3 84.3" style="enable-background:new 0 0 84.3 84.3;" xml:space="preserve"> <style type="text/css"> .st0{fill:#1CE783;} </style> <g id="XMLID_2489_"> <path id="XMLID_2490_" class="st0" d="M52,55.9h6.7V28.4H52V55.9z M40.3,48.1c0,1-0.8,1.8-1.8,1.8h-3.9c-1,0-1.8-0.8-1.8-1.8 c0-0.4,0-11.1,0-11.1h-6.7v11.6c0,4.8,3.1,7.3,7.5,7.3h6.5c4.1,0,6.7-3,6.7-7.3V37h-6.7C40.3,37,40.3,47.7,40.3,48.1z M77.7,37 c0,0,0,10.8,0,11.1c0,1-0.8,1.8-1.8,1.8H72c-1,0-1.8-0.8-1.8-1.8c0-0.4,0-11.1,0-11.1h-6.7v11.6c0,4.8,3.1,7.3,7.5,7.3h6.5 c4.1,0,6.7-3,6.7-7.3V37H77.7z M13.9,37c0,0-3.4,0-4.3,0c-1.5,0-2.2,0.4-2.2,0.4v-9H0.8v27.5h6.6V44.8c0-1,0.8-1.8,1.8-1.8H13 c1,0,1.8,0.8,1.8,1.8v11.1h6.7v-12C21.5,38.9,18.1,37,13.9,37z"></path> </g> </svg> 