<?xml version="1.0" encoding="UTF-8"?> <!-- Generator: Adobe Illustrator 24.1.0, SVG Export Plug-In . SVG Version: 6.00 Build 0) --> <svg xmlns="http://www.w3.org/2000/svg" xmlns:xlink="http://www.w3.org/1999/xlink" id="Layer_1" x="0px" y="0px" viewBox="0 0 2399 2500" style="enable-background:new 0 0 2399 2500;" xml:space="preserve"> <style type="text/css"> .st0{fill:#FFBB36;} .st1{fill:#0066B3;} .st2{fill:#EC1D23;} .st3{fill:#FFFFFF;} </style> <g> <path class="st0" d="M1605.38,701.08c3.59-8.84-3.72-17.51-3.72-17.51s-57.41-97.66-260.53-119.33 c-108.75-11.59-256.81,10.41-360.59,66.38C792.52,731.93,764.36,898.83,764.36,898.83c-1.06,4.09-2.86,16.53,1.37,21.84 c4.31,5.4,10.57,5.3,18.35,2.68c66.36-22.42,264.15-88.01,388.97-121.13c177.63-47.09,323.55-75.75,417.21-91.71 C1596.91,709.37,1602.87,707.19,1605.38,701.08"></path> <path class="st1" d="M1808.21,1487.68c-106.32,238.77-310.29,404.94-577.61,408.72c-194.66,2.76-366.45-63.93-490.52-180.26 l-75.04,32.1l0.12-116.18c-81.75-110.27-129.15-249.76-129.15-408.22c0-405.85,310.85-725.77,744.38-725.77 c70.76,0,134.72,11.01,182.94,21.94c-74.29-23.77-148.11-36.66-230.29-36.66c-465.28,0-778.4,377.28-778.41,766.35 c0,423.99,332.61,779.13,769.19,779.13c416.99,0,641.97-293.99,713.91-470.8L1808.21,1487.68z"></path> <path class="st2" d="M1700.29,1403.79c61.19-6.94,103.52-31.53,126.75-54.34c21.18-20.8,26.12-49.45,26.15-70.73 c0.85-31.27,0-129.93,0-129.93l-161.92,35.03c0,0-0.01,12.21-0.06,37.83c0.3,25.02,12.36,38.64,38.58,33.82 c8.22-1.35,20.87-5.38,20.87-5.38l0.22,30.92c-0.14-0.89,2.4,17.24-38.41,25.31c-53.4,8.38-77.67-24.48-78.3-82.54 c1.05-62.23,36.24-98.11,78.92-107.94c48.02-11.01,75.2,0.43,91.17,2.87c53.63,8.03,68.84-72.38,20.05-91.24 c-36.06-14.53-82.85-17.15-127.46-8.25c-59.56,11.88-176.68,61.73-177,223.7C1520.17,1371.61,1615.06,1413.56,1700.29,1403.79 M1173.94,1541.74c0,0,49.68-17.04,53.98-18.55c39.93-13.78,54.48-37.52,54.3-78.61c-0.5-44.62-0.58-131.63-0.58-131.63 l115.52,133.11c18.77,19.38,42.28,21.03,63.82,14.72c22.26-6.52,40.8-26.87,41.36-55.57c0.18-96.12-0.05-330.71-0.05-330.71 s-29.85,6.33-54.63,13.36c-28.51,8.08-50.44,26.26-50.44,74.25c0,16.99-0.06,114.49-0.06,114.49s-65.01-81.54-107.53-124.07 c-22.73-22.71-60.34-9.15-60.34-9.15l-55.43,16.77L1173.94,1541.74z M1138.97,1168.73c0,0-34.79,10.2-63.1,20.43 c-36.76,13.29-57.95,34.56-57.95,90.21c0,51.11-0.09,317.13-0.09,317.13s32.2-11.01,62.23-22.34 c42.69-16.09,58.79-38.05,58.79-82.87C1138.84,1452.75,1138.97,1168.73,1138.97,1168.73 M966.32,1244.19 c-31.93-14.51-59.34,1.67-70.98,19.55l-98.15,166.94l-0.17-134.58l-115.71,47.93l-0.36,380.59l81.51-34.17c0,0,16-4.54,25.66-19.71 c8.87-13.98,8.54-37.42,8.54-37.42l0.1-120.68l91.09,96.66c20,20.77,56.75,31.44,89.18,5.24c29.32-23.68,24.78-64.05,8.42-82.13 l-82.98-83.53c0,0,73.03-115.1,84.97-134.33C1003.29,1289,995.31,1257.36,966.32,1244.19"></path> <path class="st0" d="M921,1691.54c-4.31,9.92,5.52,19.77,5.52,19.77c42.11,52.84,229.11,119.85,432.07,70.79 c309.96-74.96,375.45-294.25,382.87-325.21c1.52-6.31,2.73-16.47-3.13-22.56c-4.91-5.09-11.9-5.14-21.59-2.9 c-215.28,50.61-573.53,159.96-780.07,248.46C927.79,1683.7,923.77,1685.1,921,1691.54"></path> <g> <path class="st2" d="M737.18,1192.77c-0.28-20.98-16.59-32.42-44.77-18.28l-0.06,67.44c0,0,9.11-4.03,15.8-7.15 C724.62,1227.14,737.56,1213.39,737.18,1192.77 M691.85,1131.81c4.39-1.7,8.7-3.59,12.92-5.66c15.27-7.43,26.13-21.22,26.26-39.08 c0.16-20.33-16.59-25.59-39.15-13.93L691.85,1131.81z M811.14,1183.13c0.92,53.22-37.42,81.54-87.37,102.23l-102.3,43.46 l-0.24-277.17c0,0,64.46-26.28,85.48-33.93c59.78-21.75,94.92,4.47,94.92,44.4c0,26.65-11.41,49.29-36.16,69.2 C789.86,1135.4,810.68,1155.42,811.14,1183.13L811.14,1183.13z M1005.35,949.2c0-23.34-16.06-29.55-35.48-23.96 c-15.7,4.49-33.99,11.64-33.99,11.64l-0.13,172.31c-0.19,17.16-2.84,38.65-23.99,43.97c-16.23,4.09-23.9-6.74-23.92-23.87 l-0.23-141.04c0-23.46-16.32-30.49-35.68-24.07c-21.76,7.27-34.84,12.5-34.84,12.5s0.25,122.02-0.05,170.82 c-0.28,57.2,39.16,85.76,99.27,68c53.03-15.68,88.44-45.35,89.11-121.53L1005.35,949.2z M1573.92,1020.41 c15.28-3.3,24.81-14.1,24.81-32.76c0-16.82,0.06-29.6,0.06-29.6l-82.99,18.13l0.15-48.82c0,0,40.67-8.62,51.97-11.09 c14.19-3.11,21.63-10.85,21.63-27.07c0-15.13-0.09-28.22-0.09-28.22l-73.53,15.6l-0.01-38.71c0,0,38.22-7.98,58.82-12.31 c16.05-3.37,21.34-14.36,21.34-29.49c0-9.85,0.16-29.34,0.16-29.34c-36.68,6.48-106.4,20.4-149.88,30.36l-0.59,252.66 C1445.77,1049.75,1528.45,1030.28,1573.92,1020.41 M1094.38,1010.2c0.06-0.05,41.05-21.22,40.6-54.82 c-0.4-28.72-26.86-22.44-40.59-17.4L1094.38,1010.2z M1094.49,1049.18c0,0-0.14,48.39-0.2,67.91 c-0.17,18.3-12.67,31.52-28.49,37.57c-13.23,4.54-41.34,14.21-41.34,14.21l0.11-260.18c0,0,58.05-20.22,92.18-28.15 c53.04-12.34,90.77,11.8,90.09,54.65c-0.33,40.8-23.09,65.55-43.53,82.5l44.92,43.13c13.8,13.37,14.77,37.55-0.76,52.16 c-9.21,8.65-33.83,17.61-53.11-2.01L1094.49,1049.18z M1681.83,870.27c0.08,0,40.5-15.39,40.04-47.79 c-0.42-27.4-27.4-22.44-40.14-19.6L1681.83,870.27 M1614.01,1012.83l0.11-249.48c0,0,72.84-12.88,91.66-15.3 c52.22-6.71,87.26,22.28,86.54,63.45c-0.28,36.21-23.03,58-42.36,71.07c0,0,35.52,40.02,45.04,50.61 c12.79,14.27,12.22,38.67-6.7,50.62c-18.59,11.73-37.01,5.59-47.71-6.22l-58.64-68.77c0,0,0.19,42.3,0.14,60.77 c-0.17,18.38-10.81,31.78-29.88,35.73L1614.01,1012.83z"></path> <path class="st2" d="M1429.43,908.12l-103.33,23.47c0,0-0.12,10.92-0.14,28.74c0.14,13.36,9.51,22.04,23,19.26 c8.5-1.76,15.31-3.34,15.31-3.34l0.16,28.7c0.11,11.35-16.93,18.79-34.62,18.38c-24.79-0.64-38.54-19.91-38.89-56.56 c0.77-48.2,23.44-76.49,54.33-84.39c15.42-3.97,29.46-2.04,40.36-0.62c26.62,4.3,41.95-8.54,42.5-30.54 c0.55-23.57-20.35-38.14-65.22-36.59c-97.29,3.36-147.03,73.26-147.03,156.68c0,85.43,55.81,123.17,123.93,110.86 c38.5-7.76,57.64-20.27,70.91-31.9c13.26-11.64,18.73-29.04,18.73-43.9L1429.43,908.12z"></path> </g> <path class="st3" d="M1022.32,628.7C908.37,679,831.43,798.74,827.2,849.43c-1.67,20.15,25.05,23.04,27.56,1.65 C878.81,758.62,952.41,671.45,1022.32,628.7 M1399.94,714.61c61.46-15.08,95.22-17.35,95.83-44.81 c1.07-45.98-130.1-99.29-250.21-89.63c122.38,8.18,195.78,55.29,196.19,88.12C1441.98,689.06,1423.98,707.39,1399.94,714.61 M1438.03,1730.84c92.23-36.27,180.85-105.56,229.88-209.35c14.15-29.99-26.77-45.32-38.32-10.1 C1600.9,1585.18,1541.92,1671.82,1438.03,1730.84"></path> </g> </svg> 