<?xml version="1.0" encoding="UTF-8"?> <!-- Generator: Adobe Illustrator 24.1.2, SVG Export Plug-In . SVG Version: 6.00 Build 0) --> <svg xmlns="http://www.w3.org/2000/svg" xmlns:xlink="http://www.w3.org/1999/xlink" id="layer" x="0px" y="0px" viewBox="0 0 652 233.4" style="enable-background:new 0 0 652 233.4;" xml:space="preserve"> <style type="text/css"> .st0{fill:#FEFEFE;} .st1{fill:#25D675;} .st2{fill:#FFFFFF;} </style> <g id="Page-1"> <g transform="translate(0.000000, -8.000000)"> <g id="Rectangle-3-_x2B_-Letters" transform="translate(0.000000, 8.500000)"> <g> <path class="st0" d="M303.4,1.3l-282.6,16l78.3,213.6l150.7-47.5c-4.3-6.1-7.3-12.8-8.4-19c-0.1,0-0.1,0-0.2,0 c-1,0-11.1,0.4-16.3,0c-52.9-3.3-52.9-41-52.9-42.1v-9c0-1.6,1.9-38.5,52.9-42.6c3.3-0.5,15.6-0.4,16.3,0 c14,0.8,18.6,3.8,18.6,3.8c0.3,0.2,0.5,0.5,0.5,0.8v23.2c0,0.3-0.2,0.4-0.5,0.3c0,0-8.2-5-18.3-6.3h-8.7 c-23.1,2-24.7,20.5-24.7,20.5c-0.1,0.2-0.1,0.7-0.1,1v6.6c0,0.2,0.1,0.7,0.1,1c0,0,1.1,17.2,24.7,21.2c1.7,0.3,4,0.5,8.7,0 c16.6-1.7,20.4-4.7,20.4-4.7c0.2-0.2,0.4-0.1,0.4,0.2v3.8c4.9,0.8,10,3.1,14.8,6.4V72.1h35v57.1c12.4-17.8,25.5-35.9,29.9-41.9 L303.4,1.3z M110.4,136.2c-0.3,0-0.5,0.2-0.5,0.5v26.6c0,0.3-0.2,0.5-0.5,0.5H75.3c-0.3,0-0.5-0.2-0.5-0.5V72.6 c0-0.3,0.2-0.5,0.5-0.5c0,0,44,0,44.2,0c11.2-0.5,45.4,2.6,45.4,31.5C164.9,140.1,110.4,136.2,110.4,136.2z M294.6,63.4 c-11.8,0-21.4-9.1-21.4-20.2c0-11.2,9.6-20.2,21.4-20.2S316,32,316,43.2C316,54.4,306.4,63.4,294.6,63.4z"></path> <path class="st0" d="M117.7,92h-8.4v23.9h9.4c0,0,10.5-0.5,12.1-10.2c0.2-0.2,0.2-4.3,0-4.9C129.8,92.5,117.7,92,117.7,92z"></path> <path class="st0" d="M362,131.8c-4.7,5.9-9.4,13.5-13.3,20.4l19.7-6.2L362,131.8z"></path> </g> <path id="Path-7" class="st1" d="M295.6,207.8c2.8,0,5,0,8.6-1.6c12.4-6.5,54.3-108.8,98.5-140.3c0.3-0.2,0.6-0.5,0.8-0.8 c0.3-0.4,0.3-0.8,0.3-0.8s0-2.1-6.5-2.1c-39.3-1.1-80.2,81.4-101.7,114c-0.3,0.4-1.7,0-1.7,0s-14.4-17-26.9-23.5 c-0.3-0.1-1.7-0.6-3.2-0.5c-1,0-6.8,1.2-9.5,4c-3.2,3.4-3.1,5.3-3.1,9.4c0,0.3,0.2,1.7,0.6,2.4c3.1,5.4,17,24.6,28.5,35.2 C282,204.5,284.7,207.8,295.6,207.8z"></path> </g> <g> <path class="st2" d="M428.9,143.5c-0.6,0.7-1.6,1.1-2.9,1.1c-1.3,0-2.4-0.5-3.1-1.4c-0.7-0.9-1.1-2.6-1.1-5 c0-1.9,0.3-3.4,0.9-4.3c0.8-1.3,2-1.9,3.5-1.9c0.6,0,1.2,0.1,1.8,0.4c0.6,0.3,1,0.7,1.4,1.2c0.3,0.3,0.5,0.8,0.7,1.5l6-1.3 c-0.7-2.4-1.9-4.1-3.5-5.2c-1.6-1.1-3.7-1.7-6.5-1.7c-3.5,0-6.3,0.9-8.2,2.9c-1.9,2-2.9,4.8-2.9,8.4c0,2.7,0.6,5,1.7,6.7 c1.1,1.8,2.4,3,3.9,3.7c1.6,0.7,3.5,1,5.9,1c2,0,3.6-0.3,4.9-0.9c1.3-0.5,2.3-1.4,3.2-2.5c0.9-1.1,1.5-2.5,1.9-4.2l-6-1.8 C430.2,141.6,429.7,142.6,428.9,143.5z"></path> <path class="st2" d="M450.3,126.8c-3.6,0-6.4,1-8.4,3s-3,4.8-3,8.4c0,2.6,0.4,4.5,1.5,6.3c1.1,1.8,2.4,3,4,3.8 c1.7,0.8,3.7,1.2,6.2,1.2c2.4,0,4.5-0.5,6.1-1.4c1.7-0.9,2.9-2.2,3.8-3.8c0.9-1.6,1.3-3.7,1.3-6.3c0-3.6-1-6.3-3-8.3 C456.8,127.8,454,126.8,450.3,126.8z M453.7,143.1c-0.8,0.9-1.9,1.4-3.4,1.4s-2.6-0.5-3.4-1.5s-1.2-2.6-1.2-4.8s0.4-3.8,1.2-4.6 c0.8-1,1.9-1.5,3.3-1.5c1.4,0,2.6,0.4,3.4,1.4c0.9,0.9,1.3,2.4,1.3,4.5C454.9,140.4,454.5,142.1,453.7,143.1z"></path> <polygon class="st2" points="477.6,140.6 474.2,127.2 465.3,127.2 465.1,127.2 465.1,149.2 470.7,149.2 470.7,132.4 475,149.2 480,149.2 484.3,132.4 484.3,149.2 489.9,149.2 489.9,127.2 481,127.2 "></polygon> <path class="st2" d="M505.6,127.2h-11.3v22.1h6.8v-8.2h3.7c2.7,0,4.8-0.6,6.1-1.9c1.3-1.2,2-3,2-5.2s-0.6-3.8-1.8-5 S508.1,127.2,505.6,127.2z M505.6,135.9c-0.6,0.5-1.5,0.7-2.8,0.7h-1.6v-4.9h1.9c1.3,0,2.1,0.2,2.6,0.7s0.7,1.1,0.7,1.8 S506.1,135.4,505.6,135.9z"></path> <polygon class="st2" points="523.3,127.2 516.5,127.2 516.5,127.2 516.5,149.2 533.9,149.2 533.9,143.8 523.3,143.8 "></polygon> <rect x="537.3" y="127.2" class="st2" width="6.8" height="22"></rect> <path class="st2" d="M555.1,127.1l-8.3,22h6.9l1.1-3.6h7.7l1.2,3.6h7.1l-8.3-22H555.1z M556.3,140.8l2.4-7.9l2.4,7.9H556.3z"></path> <polygon class="st2" points="587.5,139.4 579.2,127.2 572.9,127.2 572.9,127.2 572.9,149.2 579.3,149.2 579.3,137.1 587.5,149.2 593.9,149.2 593.9,127.2 587.5,127.2 "></polygon> <polygon class="st2" points="597,132.6 603.9,132.6 603.9,149.2 610.7,149.2 610.7,132.6 617.6,132.6 617.6,127.2 597,127.2 "></polygon> <path class="st2" d="M460.1,112.8c3.5-1,6.8-2.9,9.9-5.7c3.1-2.9,5.5-6.4,7.2-10.6s2.6-10.1,2.6-17.7c0-4.9-0.6-9.5-1.8-13.8 c-1.1-4.3-3-8.1-5.6-11.4c-2.5-3.2-5.8-5.7-9.8-7.5c-3.9-1.7-9.1-2.6-15.6-2.6h-32.7v71.2H447 C450.9,114.7,455.3,114.1,460.1,112.8z M436.3,98.5V59.6h5.5c5.8,0,9.8,1.4,12.3,4.2s3.7,7.9,3.7,15.5c0,5.7-0.6,9.9-1.7,12.4 c-1.1,2.5-2.7,4.3-4.6,5.3c-1.9,1-5.2,1.5-9.8,1.5H436.3z"></path> <path class="st2" d="M547.8,81c-1.9-3.1-4.9-5.8-9.1-7.9c-4.2-2.1-11.1-4.2-20.7-6.3c-3.9-0.8-6.4-1.7-7.4-2.6 c-1.1-0.9-1.6-2-1.6-3.1c0-1.6,0.6-2.9,1.9-4c1.3-1.1,3.2-1.6,5.8-1.6c3.1,0,5.5,0.7,7.3,2.2s2.9,3.8,3.5,7l20.8-1.2 c-0.9-7.4-3.7-12.8-8.5-16.2c-4.7-3.4-11.7-5.1-20.8-5.1c-7.4,0-13.2,0.9-17.5,2.8c-4.3,1.9-7.5,4.4-9.6,7.7 c-2.1,3.3-3.2,6.7-3.2,10.4c0,5.6,2,10.2,6.2,13.8c4.2,3.6,11,6.5,20.7,8.7c5.9,1.3,9.7,2.6,11.3,4.1c1.6,1.5,2.4,3.2,2.4,5 c0,1.9-0.9,3.6-2.6,5.1s-4.2,2.2-7.3,2.2c-4.2,0-7.4-1.4-9.7-4.3c-1.4-1.8-2.3-4.4-2.8-7.8l-21,1.3c0.7,7.2,3.3,13.1,7.9,17.8 c4.7,4.7,13.1,7,25.2,7c6.9,0,12.7-1,17.2-3s8.1-4.9,10.6-8.8c2.5-3.8,3.8-8,3.8-12.6C550.6,87.7,549.7,84.1,547.8,81z"></path> <path class="st2" d="M597,99.8c-1.7,1.5-4.2,2.2-7.3,2.2c-4.2,0-7.4-1.4-9.7-4.3c-1.4-1.8-2.3-4.4-2.8-7.8l-21,1.3 c0.6,7.2,3.2,13.1,7.9,17.8c4.7,4.7,13.1,7,25.2,7c6.9,0,12.7-1,17.2-3s8.1-4.9,10.6-8.8c2.5-3.8,3.8-8,3.8-12.6 c0-3.9-0.9-7.5-2.8-10.6c-1.9-3.1-4.9-5.8-9.1-7.9c-4.2-2.1-11.1-4.2-20.7-6.3c-3.9-0.8-6.4-1.7-7.4-2.6c-1.1-0.9-1.6-2-1.6-3.1 c0-1.6,0.6-2.9,1.9-4c1.3-1.1,3.2-1.6,5.8-1.6c3.1,0,5.5,0.7,7.3,2.2s2.9,3.8,3.5,7l20.8-1.2c-0.9-7.4-3.7-12.8-8.5-16.2 c-4.7-3.4-11.7-5.1-20.8-5.1c-7.4,0-13.2,0.9-17.5,2.8c-4.3,1.9-7.5,4.4-9.6,7.7c-2.1,3.3-3.2,6.7-3.2,10.4 c0,5.6,2.1,10.2,6.2,13.8c4.2,3.6,11,6.5,20.7,8.7c5.9,1.3,9.7,2.6,11.3,4.1c1.6,1.5,2.4,3.2,2.4,5 C599.6,96.6,598.7,98.3,597,99.8z"></path> </g> </g> </g> </svg> 