<?xml version="1.0" encoding="UTF-8"?> <svg xmlns="http://www.w3.org/2000/svg" xmlns:xlink="http://www.w3.org/1999/xlink" id="Layer_1" data-name="Layer 1" viewBox="0 0 500.13 477.23"><defs><style>.cls-1,.cls-4{fill:#ff5050;}.cls-1,.cls-11,.cls-2,.cls-5,.cls-6{stroke:#000;stroke-miterlimit:10;stroke-width:2px;}.cls-2{fill:#c169ff;}.cls-3{isolation:isolate;}.cls-5{fill:none;}.cls-7{clip-path:url(#clip-path);}.cls-8{clip-path:url(#clip-path-2);}.cls-9{clip-path:url(#clip-path-3);}.cls-10{clip-path:url(#clip-path-4);}.cls-11{fill:#fff;}.cls-12{clip-path:url(#clip-path-5);}.cls-13{clip-path:url(#clip-path-6);}.cls-14{clip-path:url(#clip-path-7);}.cls-15{clip-path:url(#clip-path-8);}.cls-16{clip-path:url(#clip-path-9);}</style><clipPath id="clip-path"><path class="cls-1" d="M274.39,192.17l93.79,54.51c-.19-.11-.38-.22-.58-.32l-93.8-54.51Z"></path></clipPath><clipPath id="clip-path-2"><path class="cls-1" d="M251.7,228.42l93.8,54.51c1.19.69,1.78,2.41,1.79,5.16L253.5,233.58Q253.49,229.46,251.7,228.42Z"></path></clipPath><clipPath id="clip-path-3"><path class="cls-1" d="M312.18,379.4l-93.8-54.5q-9.65-5.61-9.7-23.73l93.8,54.51Q302.52,373.8,312.18,379.4Z"></path></clipPath><clipPath id="clip-path-4"><path class="cls-1" d="M229.69,437.83l-93.8-54.51c-.49-.29-.73-.92-.74-1.89a11.13,11.13,0,0,1,.74-3l93.8,54.51a10.75,10.75,0,0,0-.74,3C229,436.91,229.2,437.54,229.69,437.83Z"></path></clipPath><clipPath id="clip-path-5"><path class="cls-1" d="M302.36,314l-93.8-54.51a69.13,69.13,0,0,1,10.11-35.84,75.08,75.08,0,0,1,27.54-27.2q17.35-10,27.59-4.63l93.8,54.51Q357.37,241,340,251a75.23,75.23,0,0,0-27.53,27.21A69.13,69.13,0,0,0,302.36,314Z"></path></clipPath><clipPath id="clip-path-6"><path class="cls-1" d="M238.14,249.48,144.34,195c1.2.7,3,.35,5.41-1a14.85,14.85,0,0,0,5.28-5.66,14.23,14.23,0,0,0,2.25-7l93.79,54.51a14.13,14.13,0,0,1-2.24,6.95,14.85,14.85,0,0,1-5.28,5.66Q239.93,250.53,238.14,249.48Z"></path></clipPath><clipPath id="clip-path-7"><path class="cls-1" d="M251,194.18l-93.8-54.51a4.61,4.61,0,0,0-2.28-4.34l93.8,54.51A4.61,4.61,0,0,1,251,194.18Z"></path></clipPath><clipPath id="clip-path-8"><path class="cls-1" d="M215.45,285.74l-93.8-54.51q-9.65-5.61-9.7-23.74l93.8,54.5Q205.8,280.14,215.45,285.74Z"></path></clipPath><clipPath id="clip-path-9"><path class="cls-1" d="M178.05,98.28l93.8,54.51-.59-.32q-10.23-5.4-28,4.84a74.58,74.58,0,0,0-27.36,27.53q-10.34,17.72-10.29,36.81l-93.8-54.51a71.54,71.54,0,0,1,10.3-36.81A74.51,74.51,0,0,1,149.5,102.8q17.73-10.24,28-4.84Z"></path></clipPath></defs><circle class="cls-2" cx="250.5" cy="238.5" r="233.5"></circle><g class="cls-3"><g class="cls-3"><path class="cls-4" d="M334.86,343.15l-93.79-54.51c1.2.7,3,.35,5.4-1a13.36,13.36,0,0,0,7.14-12.38l93.8,54.51a13.38,13.38,0,0,1-7.15,12.38C337.86,343.5,336.06,343.85,334.86,343.15Z"></path><path class="cls-5" d="M334.86,343.15l-93.79-54.51c1.2.7,3,.35,5.4-1a13.36,13.36,0,0,0,7.14-12.38l93.8,54.51a13.38,13.38,0,0,1-7.15,12.38C337.86,343.5,336.06,343.85,334.86,343.15Z"></path></g><polygon class="cls-6" points="347.41 329.74 253.61 275.23 253.5 229.58 347.29 284.09 347.41 329.74"></polygon><g class="cls-3"><path class="cls-4" d="M274.39,192.17l93.79,54.51c-.19-.11-.38-.22-.58-.32l-93.8-54.51Z"></path><g class="cls-7"><g class="cls-3"><path class="cls-1" d="M367.6,246.36l-93.8-54.51.4.21L368,246.57l-.4-.21"></path><path class="cls-1" d="M368,246.57l-93.8-54.51.19.11,93.79,54.51-.18-.11"></path></g></g><path class="cls-5" d="M274.39,192.17l93.79,54.51c-.19-.11-.38-.22-.58-.32l-93.8-54.51Z"></path></g><g class="cls-3"><path class="cls-4" d="M251.7,228.42l93.8,54.51c1.19.69,1.78,2.41,1.79,5.16L253.5,233.58Q253.49,229.46,251.7,228.42Z"></path><g class="cls-8"><g class="cls-3"><path class="cls-1" d="M347.29,288.09,253.5,233.58q0-4.12-1.8-5.16l93.8,54.51c1.19.69,1.78,2.41,1.79,5.16"></path></g></g><path class="cls-5" d="M251.7,228.42l93.8,54.51c1.19.69,1.78,2.41,1.79,5.16L253.5,233.58Q253.49,229.46,251.7,228.42Z"></path></g><g class="cls-3"><path class="cls-4" d="M312.18,379.4l-93.8-54.5q-9.65-5.61-9.7-23.73l93.8,54.51Q302.52,373.8,312.18,379.4Z"></path><g class="cls-9"><g class="cls-3"><path class="cls-6" d="M312.18,379.4l-93.8-54.5q-9.65-5.61-9.7-23.73l93.8,54.51q0,18.12,9.7,23.72"></path></g></g><path class="cls-5" d="M312.18,379.4l-93.8-54.5q-9.65-5.61-9.7-23.73l93.8,54.51Q302.52,373.8,312.18,379.4Z"></path></g><polygon class="cls-6" points="302.48 355.68 208.68 301.17 208.56 259.52 302.36 314.03 302.48 355.68"></polygon><g class="cls-3"><path class="cls-4" d="M229.69,437.83l-93.8-54.51c-.49-.29-.73-.92-.74-1.89a11.13,11.13,0,0,1,.74-3l93.8,54.51a10.75,10.75,0,0,0-.74,3C229,436.91,229.2,437.54,229.69,437.83Z"></path><g class="cls-10"><path class="cls-1" d="M229.69,437.83l-93.8-54.51c-.49-.29-.73-.92-.74-1.89a3.29,3.29,0,0,1,0-.41L229,435.53a3.29,3.29,0,0,0,0,.41c0,1,.25,1.6.74,1.89"></path><path class="cls-1" d="M135.45,379.8c.08-.3.19-.63.31-1l93.79,54.51c-.12.37-.22.7-.3,1"></path><path class="cls-1" d="M229.55,433.31,135.76,378.8c0-.13.09-.26.13-.4l93.8,54.51c-.05.14-.09.27-.14.4"></path></g><path class="cls-5" d="M229.69,437.83l-93.8-54.51c-.49-.29-.73-.92-.74-1.89a11.13,11.13,0,0,1,.74-3l93.8,54.51a10.75,10.75,0,0,0-.74,3C229,436.91,229.2,437.54,229.69,437.83Z"></path></g><path class="cls-11" d="M367.79,246.44c6.83,3.62,10.21,11.65,10.21,24.09v41.66A68.83,68.83,0,0,1,367.79,348a75.05,75.05,0,0,1-27.61,27.12q-17.39,10-27.61,4.55t-10.21-24.08V313.92a69,69,0,0,1,10.21-35.81A75.15,75.15,0,0,1,340.18,251Q357.56,241,367.79,246.44Zm-20.43,83.32V288.11c0-5.51-2.38-6.9-7.18-4.14A13.39,13.39,0,0,0,333,296.35V338q0,8.24,7.18,4.12a13.36,13.36,0,0,0,7.18-12.36"></path><g class="cls-3"><path class="cls-4" d="M302.36,314l-93.8-54.51a69.13,69.13,0,0,1,10.11-35.84,75.08,75.08,0,0,1,27.54-27.2q17.35-10,27.59-4.63l93.8,54.51Q357.37,241,340,251a75.23,75.23,0,0,0-27.53,27.21A69.13,69.13,0,0,0,302.36,314Z"></path><g class="cls-12"><g class="cls-3"><path class="cls-1" d="M302.36,314l-93.8-54.51a68.91,68.91,0,0,1,.55-8.76l93.8,54.51a67.12,67.12,0,0,0-.55,8.76"></path><path class="cls-1" d="M302.91,305.27l-93.8-54.51c.23-1.78.54-3.55.91-5.31l93.8,54.5c-.38,1.76-.68,3.54-.91,5.32"></path><path class="cls-1" d="M303.82,300,210,245.45c.28-1.33.61-2.65,1-4L304.79,296c-.37,1.31-.69,2.63-1,3.95"></path><path class="cls-1" d="M304.79,296,211,241.49c.31-1.11.65-2.22,1-3.32l93.79,54.51c-.36,1.1-.7,2.21-1,3.32"></path><path class="cls-1" d="M305.8,292.68,212,238.17c.33-1,.69-2,1.07-3l93.8,54.51q-.57,1.49-1.08,3"></path><path class="cls-1" d="M306.88,289.68l-93.8-54.51c.37-.94.75-1.88,1.16-2.82L308,286.86c-.4.94-.79,1.88-1.15,2.82"></path><path class="cls-1" d="M308,286.86l-93.79-54.51c.39-.91.81-1.82,1.25-2.73l93.79,54.51c-.43.91-.85,1.82-1.25,2.73"></path><path class="cls-1" d="M309.28,284.13l-93.79-54.51q.66-1.37,1.38-2.73l93.8,54.51c-.49.91-.95,1.82-1.39,2.73"></path><path class="cls-1" d="M310.67,281.4l-93.8-54.51c.49-.92,1-1.84,1.54-2.76l93.8,54.51c-.54.92-1,1.84-1.54,2.76"></path><path class="cls-1" d="M312.21,278.64l-93.8-54.51c.09-.15.18-.3.26-.45.47-.79,1-1.56,1.43-2.32l93.8,54.5c-.49.77-1,1.54-1.43,2.33-.09.15-.18.3-.26.45"></path><path class="cls-1" d="M313.9,275.86l-93.8-54.5c.61-1,1.23-1.88,1.87-2.8l93.8,54.51c-.64.92-1.26,1.85-1.87,2.79"></path><path class="cls-1" d="M315.77,273.07,222,218.56c.7-1,1.42-2,2.16-2.92l93.8,54.51c-.74,1-1.46,1.93-2.16,2.92"></path><path class="cls-1" d="M317.93,270.15l-93.8-54.51c.86-1.11,1.75-2.2,2.67-3.25l93.8,54.51c-.92,1.05-1.81,2.14-2.67,3.25"></path><path class="cls-1" d="M320.6,266.9l-93.8-54.51c1.23-1.41,2.5-2.77,3.83-4.08l93.79,54.51c-1.32,1.31-2.6,2.67-3.82,4.08"></path><path class="cls-1" d="M324.42,262.82l-93.79-54.51a75.9,75.9,0,0,1,15.58-11.83,64.22,64.22,0,0,1,7.52-3.76l93.79,54.51A64.85,64.85,0,0,0,340,251a76.49,76.49,0,0,0-15.58,11.84"></path><path class="cls-1" d="M347.52,247.23l-93.79-54.51a41.51,41.51,0,0,1,5.08-1.75l93.79,54.5a42.22,42.22,0,0,0-5.08,1.76"></path><path class="cls-1" d="M352.6,245.47,258.81,191a27.37,27.37,0,0,1,3.36-.72L356,244.76a29.88,29.88,0,0,0-3.37.71"></path><path class="cls-1" d="M356,244.76l-93.8-54.51a25.15,25.15,0,0,1,2.64-.27l93.8,54.51a24.62,24.62,0,0,0-2.64.27"></path><path class="cls-1" d="M358.61,244.49,264.81,190c.77,0,1.51,0,2.24,0l93.8,54.51a20.85,20.85,0,0,0-2.24,0"></path><path class="cls-1" d="M360.85,244.51,267.05,190a18,18,0,0,1,2,.23l93.8,54.51a18,18,0,0,0-2-.23"></path><path class="cls-1" d="M362.82,244.74,269,190.23a17.65,17.65,0,0,1,1.81.42l93.8,54.51a17.65,17.65,0,0,0-1.81-.42"></path><path class="cls-1" d="M364.63,245.16l-93.8-54.51a15.68,15.68,0,0,1,1.71.6l93.8,54.51a15.68,15.68,0,0,0-1.71-.6"></path><path class="cls-1" d="M366.34,245.76l-93.8-54.51q.65.27,1.26.6l93.8,54.51q-.62-.33-1.26-.6"></path></g></g><path class="cls-5" d="M302.36,314l-93.8-54.51a69.13,69.13,0,0,1,10.11-35.84,75.08,75.08,0,0,1,27.54-27.2q17.35-10,27.59-4.63l93.8,54.51Q357.37,241,340,251a75.23,75.23,0,0,0-27.53,27.21A69.13,69.13,0,0,0,302.36,314Z"></path></g><path class="cls-1" d="M328.11,111.57,234.85,57.2c-.41-.23-1.46-1.88-1-2.11l22.27-14.65a3.27,3.27,0,0,1,3.3,0l94,54.64a.62.62,0,0,1,0,1.07l-24.67,15.41A.62.62,0,0,1,328.11,111.57Z"></path><path class="cls-1" d="M229.69,437.13l-94.78-53.87a1.61,1.61,0,0,1-.75-1.87L232.65,56.78l94.86,54.51Z"></path><path class="cls-6" d="M229.88,437,135.1,383.14a1.61,1.61,0,0,1-.75-1.88l48.86-164.07,94.85,54.51Z"></path><path class="cls-11" d="M355.07,96.26a11.23,11.23,0,0,1-.74,3L256.52,420.9a8,8,0,0,1-3.39,4.56l-20,11.56c-2.77,1.6-4.15,1.24-4.16-1.08a10.75,10.75,0,0,1,.74-3l97.82-321.62c.25-1,1.37-2.53,3.39-4.56l20-11.56Q355.08,92.77,355.07,96.26Z"></path><path class="cls-4" d="M238.14,249.48,144.34,195c1.2.7,3,.35,5.41-1a14.85,14.85,0,0,0,5.28-5.66,14.23,14.23,0,0,0,2.25-7l93.79,54.51a14.13,14.13,0,0,1-2.24,6.95,14.85,14.85,0,0,1-5.28,5.66Q239.93,250.53,238.14,249.48Z"></path><g class="cls-13"><g class="cls-3"><path class="cls-1" d="M238.14,249.48,144.34,195l0,0,93.79,54.51,0,0"></path><path class="cls-1" d="M238.16,249.5,144.37,195a1.92,1.92,0,0,0,.25.12l93.8,54.51-.26-.12"></path><path class="cls-1" d="M238.42,249.62l-93.8-54.51.28.1,93.79,54.51-.27-.1"></path><path class="cls-1" d="M238.69,249.72,144.9,195.21l.29.07L239,249.79l-.3-.07"></path><path class="cls-1" d="M239,249.79l-93.8-54.51.34,0,93.8,54.5c-.12,0-.23,0-.34,0"></path><path class="cls-1" d="M239.33,249.82l-93.8-54.5h.39l93.8,54.51h-.39"></path></g></g><path class="cls-5" d="M238.14,249.48,144.34,195c1.2.7,3,.35,5.41-1a14.85,14.85,0,0,0,5.28-5.66,14.23,14.23,0,0,0,2.25-7l93.79,54.51a14.13,14.13,0,0,1-2.24,6.95,14.85,14.85,0,0,1-5.28,5.66Q239.93,250.53,238.14,249.48Z"></path><polygon class="cls-6" points="251.07 235.83 157.28 181.32 157.16 139.67 250.96 194.18 251.07 235.83"></polygon><g class="cls-3"><path class="cls-4" d="M251,194.18l-93.8-54.51a4.61,4.61,0,0,0-2.28-4.34l93.8,54.51A4.61,4.61,0,0,1,251,194.18Z"></path><g class="cls-14"><g class="cls-3"><path class="cls-1" d="M251,194.18l-93.8-54.51a4.61,4.61,0,0,0-2.28-4.34l93.8,54.51a4.61,4.61,0,0,1,2.28,4.34"></path></g></g><path class="cls-5" d="M251,194.18l-93.8-54.51a4.61,4.61,0,0,0-2.28-4.34l93.8,54.51A4.61,4.61,0,0,1,251,194.18Z"></path></g><path class="cls-4" d="M215.45,285.74l-93.8-54.51q-9.65-5.61-9.7-23.74l93.8,54.5Q205.8,280.14,215.45,285.74Z"></path><g class="cls-15"><path class="cls-6" d="M215.45,285.74l-93.8-54.51q-9.65-5.61-9.7-23.74l93.8,54.5q0,18.15,9.7,23.75"></path></g><path class="cls-5" d="M215.45,285.74l-93.8-54.51q-9.65-5.61-9.7-23.74l93.8,54.5Q205.8,280.14,215.45,285.74Z"></path><polygon class="cls-6" points="205.75 261.99 111.95 207.49 111.84 167.14 205.64 221.65 205.75 261.99"></polygon><g class="cls-3"><path class="cls-4" d="M178.05,98.28l93.8,54.51-.59-.32q-10.23-5.4-28,4.84a74.58,74.58,0,0,0-27.36,27.53q-10.34,17.72-10.29,36.81l-93.8-54.51a71.54,71.54,0,0,1,10.3-36.81A74.51,74.51,0,0,1,149.5,102.8q17.73-10.24,28-4.84Z"></path><g class="cls-16"><g class="cls-3"><path class="cls-1" d="M205.64,221.65l-93.8-54.51a68,68,0,0,1,.57-9l93.79,54.51a69.73,69.73,0,0,0-.56,9"></path><path class="cls-1" d="M206.2,212.62l-93.79-54.51c.23-1.84.55-3.67.94-5.5l93.79,54.51q-.58,2.74-.94,5.5"></path><path class="cls-1" d="M207.14,207.12l-93.79-54.51c.29-1.37.63-2.74,1-4.1L208.15,203c-.38,1.36-.71,2.73-1,4.1"></path><path class="cls-1" d="M208.15,203l-93.79-54.51c.32-1.16.67-2.31,1-3.46l93.8,54.51c-.38,1.15-.74,2.3-1.06,3.46"></path><path class="cls-1" d="M209.21,199.56l-93.8-54.51c.35-1,.72-2.08,1.12-3.11l93.8,54.51c-.4,1-.77,2.07-1.12,3.11"></path><path class="cls-1" d="M210.33,196.45l-93.8-54.51c.38-1,.78-2,1.2-2.94l93.8,54.51q-.65,1.45-1.2,2.94"></path><path class="cls-1" d="M211.53,193.51,117.73,139c.41-.95.85-1.9,1.31-2.85l93.79,54.51c-.45.94-.89,1.9-1.3,2.85"></path><path class="cls-1" d="M212.83,190.66,119,136.15c.46-1,.94-1.91,1.44-2.86l93.8,54.51c-.5.95-1,1.9-1.45,2.86"></path><path class="cls-1" d="M214.28,187.8l-93.8-54.51c.51-.95,1-1.91,1.6-2.87l93.8,54.51c-.56,1-1.09,1.91-1.6,2.87"></path><path class="cls-1" d="M215.88,184.93l-93.8-54.51.06-.09c.56-1,1.15-1.92,1.74-2.86L217.68,182c-.6.94-1.18,1.89-1.75,2.86l-.05.09"></path><path class="cls-1" d="M217.68,182l-93.8-54.51c.64-1,1.3-2,2-2.93l93.8,54.51c-.68,1-1.33,1.93-2,2.93"></path><path class="cls-1" d="M219.65,179.05l-93.8-54.51c.72-1,1.47-2,2.23-3L221.88,176c-.77,1-1.51,2-2.23,3"></path><path class="cls-1" d="M221.88,176l-93.8-54.51c.88-1.13,1.79-2.24,2.72-3.31l93.8,54.51c-.93,1.07-1.84,2.18-2.72,3.31"></path><path class="cls-1" d="M224.6,172.71,130.8,118.2q1.86-2.13,3.84-4.09l93.8,54.51q-2,2-3.84,4.09"></path><path class="cls-1" d="M228.44,168.62l-93.8-54.51A73.2,73.2,0,0,1,149.5,102.8a66.55,66.55,0,0,1,7.79-3.9l93.8,54.51a66.64,66.64,0,0,0-7.8,3.9,73,73,0,0,0-14.85,11.31"></path><path class="cls-1" d="M251.09,153.41,157.29,98.9a44.73,44.73,0,0,1,5.2-1.79l93.8,54.51a44.09,44.09,0,0,0-5.2,1.79"></path><path class="cls-1" d="M256.29,151.62l-93.8-54.51a30.56,30.56,0,0,1,3.4-.73l93.8,54.51a30.56,30.56,0,0,0-3.4.73"></path><path class="cls-1" d="M259.69,150.89l-93.8-54.51a25.16,25.16,0,0,1,2.66-.26l93.8,54.51a22.77,22.77,0,0,0-2.66.26"></path><path class="cls-1" d="M262.35,150.63l-93.8-54.51a18.36,18.36,0,0,1,2.23,0l93.8,54.5a20.69,20.69,0,0,0-2.23,0"></path><path class="cls-1" d="M264.58,150.64l-93.8-54.5a15.61,15.61,0,0,1,2,.23l93.8,54.5c-.64-.11-1.3-.18-2-.23"></path><path class="cls-1" d="M266.55,150.87l-93.8-54.5a15,15,0,0,1,1.79.41l93.8,54.51a17.28,17.28,0,0,0-1.79-.42"></path><path class="cls-1" d="M268.34,151.29l-93.8-54.51a16.06,16.06,0,0,1,1.69.59L270,151.88a16.06,16.06,0,0,0-1.69-.59"></path><path class="cls-1" d="M270,151.88l-93.8-54.51c.42.18.83.37,1.24.59l.39.21,93.8,54.51-.4-.21c-.4-.22-.81-.41-1.23-.59"></path><path class="cls-1" d="M271.66,152.68l-93.8-54.51.19.11,93.8,54.51-.19-.11"></path></g></g><path class="cls-5" d="M178.05,98.28l93.8,54.51-.59-.32q-10.23-5.4-28,4.84a74.58,74.58,0,0,0-27.36,27.53q-10.34,17.72-10.29,36.81l-93.8-54.51a71.54,71.54,0,0,1,10.3-36.81A74.51,74.51,0,0,1,149.5,102.8q17.73-10.24,28-4.84Z"></path></g><path class="cls-11" d="M271.55,254a76.06,76.06,0,0,1-27.9,27.42q-17.39,10-27.62,4.63T205.75,262l-.11-40.34q-.06-19.1,10.29-36.81a74.58,74.58,0,0,1,27.36-27.53q17.75-10.25,28-4.84t10.28,24l.12,41.66A68.86,68.86,0,0,1,271.55,254Zm-35.21-9.68q0,8.26,7.21,4.11a14.85,14.85,0,0,0,5.28-5.66,14.13,14.13,0,0,0,2.24-6.95L251,194.18a4.61,4.61,0,0,0-2.28-4.34c-1.52-.87-3.29-.71-5.29.45a13.4,13.4,0,0,0-7.17,12.39l.12,41.65"></path></g></svg> 