<?xml version="1.0" encoding="UTF-8"?> <!-- Generator: Adobe Illustrator 24.1.2, SVG Export Plug-In . SVG Version: 6.00 Build 0) --> <svg xmlns="http://www.w3.org/2000/svg" xmlns:xlink="http://www.w3.org/1999/xlink" id="Layer_1" x="0px" y="0px" viewBox="0 0 126 48" style="enable-background:new 0 0 126 48;" xml:space="preserve"> <style type="text/css"> .st0{fill:#FFFFFF;} .st1{fill-rule:evenodd;clip-rule:evenodd;fill:#5C74FF;} .st2{fill-rule:evenodd;clip-rule:evenodd;fill:#FFFFFF;} </style> <g> <g> <path class="st0" d="M66.2,16.3c-1.1-0.9-2.9-1.3-5.4-1.3h-5.8v17.8h4.3v-5.6h1.9c2.3,0,4.1-0.5,5.1-1.5c1.2-1.2,1.8-2.7,1.8-4.6 C68.3,19,67.6,17.4,66.2,16.3z M61.2,23.1L61.2,23.1l-1.8,0V19H61c2,0,3,0.7,3,2.1C64,22.4,63.1,23.1,61.2,23.1z"></path> <path class="st0" d="M93.2,14.9h-3.6l-7.1,17.8h4.8l0.9-2.6h6.1l0.8,2.6h4.9L93.2,14.9z M89.6,26.5l1.8-6.1l1.8,6.1H89.6z"></path> <polygon class="st0" points="75.7,14.9 71.2,14.9 71.2,32.7 80.9,32.7 80.9,28.7 75.7,28.7 "></polygon> </g> <path class="st1" d="M47,18.8L43.2,4.1l-14.5-4l-5.1,5.1l-5-5.1L4.1,3.8l-4,14.6l5,5.1L0,28.7l3.8,14.7l14.5,4l5.1-5.1l5,5.1 l14.5-3.8l4-14.6l-5-5.1L47,18.8z M42.4,17.5L39,20.9L34.2,16l6.2-6.2L42.4,17.5z M36.1,23.8l-4.9,4.9l-4.8-4.9l4.9-4.9L36.1,23.8z M29.9,4.7l7.6,2.1L31.3,13l-4.8-4.9L29.9,4.7z M28.4,15.9l-4.9,4.9l-4.8-4.9l4.9-4.9L28.4,15.9z M20.6,23.7l-4.9,4.9l-4.8-4.9 l4.9-4.9L20.6,23.7z M17.4,4.6l3.4,3.4l-4.9,4.9L9.7,6.6L17.4,4.6z M4.7,17.2L4.7,17.2L4.7,17.2L4.7,17.2l2.1-7.7l6.1,6.3L8,20.7 L4.7,17.2z M4.6,29.9L8,26.5l4.8,4.9l-6.2,6.2L4.6,29.9z M17.1,42.8l-7.6-2.1l0,0v0l0,0l6.2-6.2l4.8,4.9L17.1,42.8z M18.6,31.5 l4.9-4.9l4.8,4.9l-4.9,4.9L18.6,31.5z M29.6,42.9l-3.3-3.4l4.9-4.9l6.1,6.3L29.6,42.9z M42.3,30.2l-2.1,7.7l-6.1-6.3l4.9-4.9 L42.3,30.2z"></path> </g> <g> <rect x="102.5" y="14.6" class="st2" width="4.5" height="17.8"></rect> <path class="st2" d="M124.4,17.9L124.4,17.9c-0.6-0.8-1.3-1.5-2.1-2.1c-1.4-0.9-3.2-1.3-5.5-1.3h-5.9v17.8h6.9c2.5,0,4.5-0.8,6-2.5 c1.5-1.6,2.3-3.8,2.3-6.5C126,21.3,125.5,19.4,124.4,17.9z M117.2,28.4h-1.9v-9.7h2c1.4,0,2.4,0.4,3.2,1.3s1.1,2.1,1.1,3.6 C121.5,26.8,120.1,28.4,117.2,28.4z"></path> </g> </svg> 