<?xml version="1.0" encoding="UTF-8"?> <svg xmlns="http://www.w3.org/2000/svg" id="Layer_1" data-name="Layer 1" viewBox="0 0 566 748"><defs><style>.cls-1,.cls-22,.cls-4{fill:#fff;}.cls-2{fill:#d8e5d9;}.cls-19,.cls-3{fill:none;}.cls-18,.cls-19,.cls-3{stroke:#211e15;}.cls-17,.cls-18,.cls-19,.cls-22,.cls-23,.cls-24,.cls-3{stroke-miterlimit:10;}.cls-18,.cls-24,.cls-3{stroke-width:1.25px;}.cls-4{opacity:0.4;}.cls-18,.cls-5{fill:#ffc4b0;}.cls-6{fill:#2b2b2b;}.cls-7{fill:#1e1e1e;}.cls-8{fill:#e2f7ec;}.cls-9{fill:#8edda6;}.cls-10{isolation:isolate;}.cls-11{fill:#f9efef;}.cls-12{fill:#211e15;}.cls-13{fill:#d7ffe1;}.cls-14{fill:#ff9c8f;}.cls-15{fill:#ff5050;}.cls-16{fill:#ff8d98;}.cls-17{fill:#6bb287;}.cls-17,.cls-22,.cls-23,.cls-24{stroke:#1e1e1e;}.cls-17,.cls-22,.cls-23{stroke-width:1.5px;}.cls-20{opacity:0.25;}.cls-21,.cls-24{fill:#a1ffc0;}.cls-23{fill:#e2eadc;}</style></defs><path class="cls-1" d="M350.78,289.09l2.85,302a29.22,29.22,0,0,0,15.31,25.53l130.22,70.42a11.91,11.91,0,0,0,17.57-10.51l-1.9-311.06a11.94,11.94,0,0,0-6.57-10.61L368,278.38A11.91,11.91,0,0,0,350.78,289.09Z"></path><path class="cls-1" d="M351.64,289.32l2.85,302a29.22,29.22,0,0,0,15.31,25.53L500,687.29a11.91,11.91,0,0,0,17.57-10.51l-1.91-311.06a11.91,11.91,0,0,0-6.57-10.61l-140.24-76.5A11.91,11.91,0,0,0,351.64,289.32Z"></path><path class="cls-2" d="M509.76,688.3c-.34.05,7.59-4.47,7.57-13.51l-1.91-311.06a16.89,16.89,0,0,0-.16-2.49s-1.23-2.38-2-1.75l-5.43,4Z"></path><path class="cls-3" d="M351.58,289.31l2.85,302a29.18,29.18,0,0,0,15.32,25.52L500,687.28a11.91,11.91,0,0,0,17.57-10.51l-1.91-311.06a11.91,11.91,0,0,0-6.57-10.61L368.83,278.6A11.91,11.91,0,0,0,351.58,289.31Z"></path><path class="cls-4" d="M344.68,292.28l2.85,302a29.2,29.2,0,0,0,15.31,25.52l130.23,70.42a11.9,11.9,0,0,0,17.56-10.5l-1.9-311.06a11.9,11.9,0,0,0-6.57-10.61l-140.24-76.5A11.9,11.9,0,0,0,344.68,292.28Z"></path><path class="cls-5" d="M447,619.3l-1.94-52.72a5,5,0,0,1,7.41-4.53l23.17,13a17.68,17.68,0,0,1,9.05,15.07l1.1,51.93a4.16,4.16,0,0,1-6.16,3.75l-24.6-13.46A15.45,15.45,0,0,1,447,619.3Z"></path><path class="cls-6" d="M451.73,562l12.83,7.23.51,21.46-6.42-3.59L451.91,572a.8.8,0,0,0-.26-.34l-5.82-3.28c0-5.19,2.43-7.81,5.88-6.38m13.48,7.55L478,576.7c3.17,1.8,5.9,7.58,6.38,13.28l-5.82-3.29a.26.26,0,0,0-.24.1l-6.15,7.89-6.41-3.59-.53-21.46m-19.46,0,5.7,3.22,6.66,14.94.28,11.45-12.05-6.77-.57-22.92m32.95,18.59,5.72,3.22.59,22.84L473,607.37l-.29-11.48,6.05-7.79m-19.79.38,12.88,7.24.06.15h0l.58,23-.08,0h0l-12.87-7.24h0l-.06-.16-.56-23,.07,0h0m-12.53,5.15,12.06,6.76.3,11.48-6.06,7.79L447,616.47l-.66-22.88m26.71,15.08,12.07,6.79.57,22.81-5.7-3.21-6.65-14.91-.29-11.48m-25.91,9.23,5.81,3.28a.18.18,0,0,0,.24-.09l6.15-7.89,6.43,3.62.53,21.46-12.82-7.19c-3.16-1.78-5.9-7.58-6.38-13.28m19.26-.86,6.42,3.63,6.75,15.16a.59.59,0,0,0,.25.3l5.83,3.28c0,5.25-2.35,8-5.81,6.57L467,638.7l-.51-21.47M479.78,647c3.65,2.06,6.49-1.38,6.56-7.65v-.19h0c0-.16,0-.31,0-.46l-1.2-47,0-.46h0l-.07-.19c-.28-6.49-3.42-13.12-7.12-15.3L451.56,560.9c-3.64-2-6.5,1.38-6.55,7.69v.18h0v.44l1.19,47,0,.46h0l.07.19c.28,6.5,3.42,13.12,7.12,15.3L479.78,647"></path><path class="cls-3" d="M344.23,292.32l2.85,302a29.25,29.25,0,0,0,15.32,25.53l130.22,70.42a11.91,11.91,0,0,0,17.57-10.51l-1.91-311.06a11.91,11.91,0,0,0-6.56-10.61l-140.24-76.5A11.91,11.91,0,0,0,344.23,292.32Z"></path><path class="cls-7" d="M311.74,15c4.93,1.64,7.89,5.13,7.9,9.31l-5.48,578.4c0,9.17-6.44,20.39-14.43,25L125,731c-7.84,4.52-19.52-6.62-19.54-16L103.88,144.8c0-9.18,6.45-20.4,14.44-25L298,16.06A17.29,17.29,0,0,1,311.74,15Zm1.37,588.32,5.46-578.4c0-3.81-2.81-7-7.48-8.58-4.42-1.48-9.56-1.11-13.09.93L118.32,121c-7.4,4.28-13.4,14.67-13.37,23.17l1.61,570.23c0,8.73,11.25,19.57,18.47,15.41L299.72,626.5c7.41-4.28,13.41-14.67,13.39-23.17"></path><path class="cls-8" d="M298,17.28c3.53-2,8.67-2.41,13.09-.93,4.67,1.56,7.47,4.77,7.48,8.58l-5.46,578.4c0,8.5-6,18.89-13.39,23.17L125,729.82c-7.22,4.16-18.44-6.68-18.47-15.41L105,144.18c0-8.5,6-18.89,13.37-23.17Z"></path><path class="cls-9" d="M106.31,554.41l13.4,5.32L319.92,445.06l-6.61,160.4c0,8.51-6,18.91-13.39,23.18L126.64,730.32c-3.89,2.25-9.39,1.85-13.7-1a13.87,13.87,0,0,1-6.18-12.78Z"></path><path class="cls-7" d="M120.1,558.28,321,443.2l-6.67,161.69c0,9.14-6.46,20.36-14.44,25L126.65,731.53c-4.17,2.41-10,2-14.49-.92a14.59,14.59,0,0,1-6.46-13.49l-.47-164.73Zm193.21,47.18,6.61-160.4L119.71,559.73l-13.4-5.32.45,162.14a13.87,13.87,0,0,0,6.18,12.78c4.31,2.84,9.81,3.24,13.7,1L299.92,628.65c7.4-4.28,13.41-14.68,13.39-23.19"></path><path class="cls-1" d="M309.57,24.13C317,19.86,323,23.3,323,31.8l1.61,565.34c0,8.5-6,18.89-13.38,23.17L131.59,724c-7.41,4.28-13.45.83-13.47-7.67L116.51,151c0-8.51,6-18.9,13.39-23.18Z"></path><path d="M309.56,22.91c8-4.61,14.51-.9,14.54,8.28l1.6,565.33c0,9.18-6.45,20.4-14.44,25L131.59,725.26c-8,4.62-14.51.9-14.53-8.28l-1.61-565.33c0-9.18,6.46-20.4,14.44-25Zm15.07,574.23L323,31.8c0-8.5-6.06-11.94-13.46-7.67L129.9,127.86c-7.41,4.28-13.41,14.67-13.39,23.18l1.61,565.33c0,8.5,6.06,12,13.47,7.67L311.26,620.31c7.4-4.28,13.4-14.67,13.37-23.17"></path><g class="cls-10"><path class="cls-11" d="M227.34,161.91c7.4-4.27,13.44-.82,13.46,7.68l1,369.2c0,8.51-6,18.9-13.38,23.17L117.84,625.84,116.7,225.79Z"></path><path class="cls-12" d="M227.33,160.7c8-4.62,14.51-.9,14.54,8.28l1,369.19c0,9.18-6.46,20.4-14.44,25l-111.7,64.49-1.14-402.48Zm14.52,378.09-1-369.2c0-8.5-6.06-12-13.46-7.68L116.7,225.79l1.14,400.05L228.47,562c7.4-4.27,13.4-14.66,13.38-23.17"></path></g><path class="cls-7" d="M116.83,558.82,325.48,438.35,325.94,601c0,9.18-6.45,20.4-14.44,25L131.83,729.79c-8,4.61-14.51.9-14.54-8.28Zm208.05,42.84-.46-161.47L117.9,559.43l.46,161.46c0,8.51,6.06,12,13.46,7.68L311.5,624.83c7.4-4.27,13.4-14.67,13.38-23.17"></path><path class="cls-13" d="M324.42,440.19l.46,161.47c0,8.5-6,18.9-13.38,23.17L131.82,728.57c-7.4,4.27-13.44.83-13.46-7.68l-.46-161.46Z"></path><path d="M305.6,36c5.57-3.21,10.13-.63,10.14,5.79L317.32,597c0,7.72-5.43,17.17-12.16,21L139.25,713.8c-6.72,3.88-12.21.75-12.23-7l-1.58-555.17c0-6.42,4.51-14.24,10.08-17.46Zm10.65,561.57L314.68,42.4c0-5.74-4.09-8-9.08-5.17L135.53,135.42c-5,2.88-9,9.88-9,15.62l1.57,555.17c0,7,5,9.91,11.17,6.37l165.91-95.79c6.13-3.55,11.11-12.17,11.09-19.22"></path><path class="cls-14" d="M172.19,140.87c3.65-2.1,6.63-.4,6.64,3.8a14.58,14.58,0,0,1-6.6,11.43c-3.65,2.11-6.63.41-6.64-3.79A14.57,14.57,0,0,1,172.19,140.87Z"></path><path class="cls-12" d="M172.18,139.66c4.24-2.45,7.7-.48,7.71,4.39s-3.42,10.82-7.66,13.27-7.7.47-7.71-4.39A16.9,16.9,0,0,1,172.18,139.66Zm0,16.44a14.58,14.58,0,0,0,6.6-11.43c0-4.2-3-5.9-6.64-3.79a14.51,14.51,0,0,0-6.6,11.43c0,4.2,3,5.9,6.64,3.79"></path><path class="cls-15" d="M149.64,150.37c3.65-2.11,6.64-.42,6.65,3.78a14.54,14.54,0,0,1-6.61,11.43c-3.65,2.11-6.63.42-6.64-3.78A14.57,14.57,0,0,1,149.64,150.37Z"></path><path class="cls-12" d="M149.64,149.14c4.24-2.44,7.7-.47,7.71,4.4a16.92,16.92,0,0,1-7.66,13.27c-4.24,2.44-7.7.48-7.71-4.39S145.4,151.59,149.64,149.14Zm0,16.45a14.57,14.57,0,0,0,6.61-11.44c0-4.2-3-5.89-6.65-3.78A14.57,14.57,0,0,0,143,161.8c0,4.2,3,5.89,6.64,3.79"></path><path class="cls-12" d="M175.18,141.1c4.24-2.45,7.7-.48,7.71,4.4s-3.42,10.82-7.66,13.27-7.69.46-7.7-4.4S171,143.54,175.18,141.1Zm0,16.44a14.56,14.56,0,0,0,6.6-11.43c0-4.2-3-5.9-6.65-3.79a14.56,14.56,0,0,0-6.59,11.44c0,4.19,3,5.89,6.64,3.78"></path><path class="cls-5" d="M175.18,142.32c3.66-2.11,6.64-.41,6.65,3.79a14.56,14.56,0,0,1-6.6,11.43c-3.65,2.11-6.63.41-6.64-3.78A14.56,14.56,0,0,1,175.18,142.32Z"></path><path class="cls-12" d="M152.64,150.58c4.24-2.44,7.7-.47,7.72,4.4s-3.43,10.82-7.67,13.27-7.69.48-7.71-4.39A16.92,16.92,0,0,1,152.64,150.58Zm.05,16.45a14.59,14.59,0,0,0,6.6-11.44c0-4.19-3-5.89-6.64-3.78A14.59,14.59,0,0,0,146,163.24c0,4.2,3,5.89,6.65,3.79"></path><path class="cls-16" d="M152.65,151.81c3.65-2.11,6.63-.41,6.64,3.78a14.55,14.55,0,0,1-6.6,11.43c-3.65,2.11-6.64.42-6.65-3.78A14.59,14.59,0,0,1,152.65,151.81Z"></path><ellipse class="cls-17" cx="229.34" cy="574.57" rx="26.67" ry="19.4" transform="translate(-387.71 619.03) rotate(-72.36)"></ellipse><path class="cls-18" d="M226.2,552.32c11.77.74,17.45,15.58,13.88,26.82A21.35,21.35,0,0,1,213.26,593s-6.84-5.91-2.58-23.23C210.68,569.79,216.43,551.7,226.2,552.32Z"></path><path class="cls-14" d="M214.44,593.59s-6.84-5.91-2.58-23.23c0,0,4.22-17.53,15.52-17.48l4.42,1.41s-23.43,11-14.2,39.63Z"></path><path class="cls-19" d="M226.74,552.27c11.77.74,17.45,15.58,13.88,26.82A21.35,21.35,0,0,1,213.8,593s-6.84-5.91-2.58-23.23C211.22,569.74,217,551.65,226.74,552.27Z"></path><g class="cls-20"><path class="cls-21" d="M354.74,112.89c11.78-6.8,21.37-1.34,21.4,12.21l.5,175.12c0,13.54-9.48,30-21.27,36.84L69.51,502.11c-11.79,6.8-21.37,1.33-21.41-12.21l-.5-175.12c0-13.54,9.48-30,21.27-36.84Z"></path></g><path class="cls-7" d="M354.73,112.28c12.06-7,21.9-1.35,21.94,12.51l.5,175.12c0,13.86-9.74,30.8-21.8,37.76L69.51,502.72c-12.06,7-21.91,1.35-22-12.51l-.5-175.12c0-13.86,9.75-30.8,21.81-37.77Zm21.38,188.24-.5-175.12c0-13.18-9.4-18.52-20.87-11.9L68.87,278.55c-11.47,6.62-20.78,22.74-20.74,35.92l.5,175.12c0,13.19,9.4,18.53,20.87,11.91l285.87-165c11.47-6.62,20.78-22.74,20.74-35.93"></path><path class="cls-22" d="M254,411.64h0c0,.77-.83,1.58-2.44,2.2a19.79,19.79,0,0,1-12,0c-1.64-.61-2.48-1.45-2.48-2.25h0L236.75,310l16.91-.06Z"></path><path class="cls-22" d="M337.19,284.38h0L263.75,312l-.07-19.81L330.59,267h0a4.69,4.69,0,0,1,3.3,0,12.13,12.13,0,0,1,6.65,11A6.14,6.14,0,0,1,337.19,284.38Z"></path><path class="cls-7" d="M286.05,222.54c9.87,10.92,14.8,27.32,11.71,39-12.47,47.17-29.39,99.62-72.62,124.9a47.23,47.23,0,0,1-43.06,1.95c-15.53-7.22-25.42-22.2-27.86-42.17-2.67-21.86,4.13-51.13,17.76-76.39,8.43-15.62,23.29-36.82,46.65-50.3.69-.41,1.39-.8,2.1-1.19C256.57,198.8,277,212.59,286.05,222.54Zm10.71,39.17c2.56-9.68-.6-25.83-11.59-38-8.9-9.83-29.1-23.43-64.46-4.15-.7.38-1.38.76-2.06,1.16-23,13.26-37.6,34.1-45.88,49.46-13.42,24.88-20.13,53.72-17.5,75.26,2.41,19.7,12.18,34.48,27.53,41.61a46.31,46.31,0,0,0,42.09-1.72c18.89-11,33.85-27.64,46-50.88,11.93-22.9,19.8-49.64,25.91-72.77"></path><path class="cls-21" d="M218.65,220.75c.68-.4,1.36-.78,2.06-1.16,35.36-19.28,55.56-5.68,64.46,4.15,11,12.14,14.15,28.29,11.59,38l.5-.09-.5.09c-6.11,23.13-14,49.87-25.91,72.77-12.11,23.24-27.07,39.84-45.72,50.74a46.43,46.43,0,0,1-42.33,1.86c-15.35-7.13-25.12-21.92-27.53-41.61-2.63-21.54,4.08-50.38,17.5-75.26C181.05,254.85,195.67,234,218.65,220.75Z"></path><path class="cls-9" d="M236.44,228.52c37.7-21.77,68.23-4.53,68.49,38.47s-30,95.73-67.56,117.57-68.23,4.53-68.48-38.47S198.87,250.36,236.44,228.52Z"></path><path class="cls-7" d="M237.66,228a85.38,85.38,0,0,1,11.14-5.45A54.23,54.23,0,0,1,269,218.47,37.4,37.4,0,0,1,279.35,220c17.23,5.06,27.19,22.12,27.33,46.83.26,43.36-30.28,96.52-68.08,118.5C220.13,395.94,203,397.73,190,390.43s-20.28-22.92-20.41-43.92c-.07-12.36,2.29-25.6,7-39.35h.95c-4.65,13.54-7,26.58-6.9,38.74.13,20.68,7.27,36,20.1,43.25s29.67,5.42,47.61-4.94c37.46-21.78,67.53-74.12,67.28-116.8-.15-24.32-10-41.12-26.91-46.11a37.78,37.78,0,0,0-10.16-1.46,53.56,53.56,0,0,0-19.92,4,81.74,81.74,0,0,0-10.73,5.22,103.62,103.62,0,0,0-10.28,6.84,131.13,131.13,0,0,0-21.45,20.61l-.51-.79a133.14,133.14,0,0,1,21.79-20.93A102.35,102.35,0,0,1,237.66,228Z"></path><g class="cls-10"><path class="cls-7" d="M270.92,244.84l19.73,11.47c8.36,4.86,13.54,15.17,13.58,29.81.09,29.48-20.71,65.51-46.36,80.32L238.13,355c25.66-14.81,46.45-50.84,46.37-80.31C284.46,260,279.27,249.7,270.92,244.84Z"></path><path class="cls-7" d="M224.78,369.66,205,358.19c8.47,4.92,20.18,4.24,33.09-3.22l19.74,11.47C245,373.9,233.24,374.58,224.78,369.66Z"></path><path class="cls-13" d="M237.83,248.06c12.91-7.45,24.62-8.13,33.08-3.22l19.74,11.47c-8.47-4.92-20.18-4.23-33.09,3.22Z"></path><path class="cls-7" d="M271.67,243.55,291.4,255c-8.65-5-20.64-4.34-33.84,3.28l-19.73-11.46C251,239.21,263,238.52,271.67,243.55Z"></path><path class="cls-13" d="M191.46,328.38a79.21,79.21,0,0,1,3.6-22.9L214.79,317a79.2,79.2,0,0,0-3.6,22.89c0,14.65,5.23,25,13.59,29.82l-19.73-11.47C196.69,353.34,191.5,343,191.46,328.38Z"></path><path class="cls-13" d="M197.79,297.62l19.73,11.47c-1,2.6-1.94,5.23-2.73,7.86l-19.73-11.47Q196.25,301.54,197.79,297.62Z"></path><path class="cls-13" d="M197.79,297.62c.49-1.24,1-2.47,1.54-3.7l19.73,11.47c-.54,1.23-1.05,2.46-1.54,3.7Z"></path><path class="cls-13" d="M199.33,293.92c8.32-19.05,22.46-36.6,38.5-45.86l19.73,11.47c-16,9.26-30.17,26.8-38.5,45.86Z"></path><path class="cls-7" d="M224,371l-19.74-11.47c-8.54-5-13.85-15.51-13.89-30.49-.09-30.16,21.19-67,47.43-82.15l19.73,11.46c-26.24,15.15-47.51,52-47.43,82.16C210.17,355.43,215.48,366,224,371Z"></path><path class="cls-7" d="M257.56,258.3c26.24-15.14,47.66-2.94,47.74,27.21s-21.19,67-47.43,82.15-47.65,2.95-47.74-27.2S231.32,273.45,257.56,258.3Zm.31,108.14c25.65-14.81,46.45-50.84,46.36-80.32s-21-41.4-46.67-26.59-46.45,50.84-46.37,80.31,21,41.41,46.68,26.6"></path><path class="cls-13" d="M257.56,259.53c25.66-14.81,46.59-2.88,46.67,26.59s-20.71,65.51-46.36,80.32-46.6,2.88-46.68-26.6S231.91,274.34,257.56,259.53Z"></path></g><path class="cls-22" d="M254.16,255.57h0c0,1-.83,1.93-2.52,2.66a18.22,18.22,0,0,1-12.42,0c-1.71-.72-2.58-1.7-2.58-2.64h0l-.19-51.32,17.52-.06Z"></path><path class="cls-23" d="M251.79,202.36c3.39,1.28,3.39,3.36,0,4.64a20.53,20.53,0,0,1-12.41,0c-3.4-1.28-3.4-3.36,0-4.6a20.84,20.84,0,0,1,12.41,0"></path><path class="cls-22" d="M202.21,332.8h0l-49.7,19.45-7.57-17.5,50.67-19.33h0a4.74,4.74,0,0,1,3.3,0,12.11,12.11,0,0,1,6.64,11A6.15,6.15,0,0,1,202.21,332.8Z"></path><path class="cls-23" d="M148.73,334.54a12.73,12.73,0,0,1,6.91,11.63c0,4.95-3.07,7.86-6.95,6.39a12.8,12.8,0,0,1-6.9-11.62c0-5,3.07-7.86,6.94-6.4"></path><path class="cls-1" d="M263.63,279.84c8.94-5.16,17.25-6,23.53-2.5S297,288.44,297,298.6s-3.33,21.73-9.56,32.57S273,350.8,264.09,356c-18.36,10.6-33.29,2.18-33.41-18.76S245.34,290.48,263.63,279.84Z"></path><path class="cls-7" d="M288,275.83c6.55,3.67,10.19,11.51,10.25,22.05s-3.45,22.54-9.91,33.78S273.29,352,264.09,357.38s-17.88,6.24-24.4,2.59-10.19-11.51-10.25-22.06c-.13-21.77,15.21-48.46,34.19-59.5C272.9,273.06,281.51,272.17,288,275.83Zm-.55,55.34c6.23-10.84,9.62-22.4,9.56-32.57s-3.57-17.71-9.88-21.26-14.59-2.66-23.41,2.43c-18.41,10.71-33.19,36.44-33.07,57.42s15,29.36,33.29,18.83c9-5.22,17.29-14,23.51-24.85"></path><path class="cls-7" d="M288.26,294.38c4.53,2.55,7,8,7.09,15.25S293,325.22,288.5,333s-10.43,14.08-16.79,17.78c-13.17,7.6-23.86,1.56-24-13.46s10.52-33.5,23.64-41.14C277.8,292.47,283.76,291.85,288.26,294.38Zm-.65,38.11c4.23-7.36,6.54-15.22,6.5-22.14s-2.43-12-6.72-14.44-9.91-1.82-15.91,1.64c-12.52,7.28-22.57,24.77-22.48,39s10.22,20,22.63,12.81c6.1-3.55,11.75-9.53,16-16.9"></path><path class="cls-11" d="M271.4,297.6c6.08-3.51,11.72-4.09,16-1.69s6.68,7.53,6.72,14.44-2.27,14.78-6.5,22.14-9.88,13.35-15.91,16.86c-12.48,7.2-22.62,1.47-22.7-12.77S259,304.83,271.4,297.6Z"></path><line class="cls-24" x1="128" y1="129" x2="116" y2="122"></line><line class="cls-24" x1="116.04" y1="157.77" x2="104.04" y2="150.77"></line><path class="cls-13" d="M378.14,375.74l1.44,2.08a3.43,3.43,0,0,0-1.37,3,4.81,4.81,0,0,0,1.87,4.14c1.29.74,2.12,0,2.13-3.53l1.65.95c0,3.1.84,4.76,2,5.42s1.66,0,1.67-1.55a9.1,9.1,0,0,0-1.16-4l1.39-.53a12.65,12.65,0,0,1,1.57,5.65c0,2.92-1.21,4.34-3.31,3.13a7.14,7.14,0,0,1-2.87-4.57l-.08-.05c-.38,1.65-1.45,2.56-3.11,1.59-2.27-1.3-3.6-4.58-3.59-7.53C376.37,377.52,377.15,376.25,378.14,375.74Z"></path><path class="cls-13" d="M378.14,362.22l1.46,2.06a3.31,3.31,0,0,0-1.35,2.94,5.31,5.31,0,0,0,2.38,4.57c1.49.86,2.32.09,2.33-1.72a7.63,7.63,0,0,0-.68-3.05l.69-.85,6.16,4,0,8.46-1.93-1.11,0-6.2-3-2a8.68,8.68,0,0,1,.39,2.5c0,2.69-1.23,4.22-3.91,2.68a9.56,9.56,0,0,1-4.28-8C376.41,364,377.22,362.83,378.14,362.22Z"></path><path class="cls-13" d="M386.08,354.31c2,1.17,3.32,3.88,3.32,6.59s-1.39,3.79-3.39,2.63a8.17,8.17,0,0,1-2.85-3.76l-.07,0c-.68,1.16-1.54,1.87-3.28.87-1.91-1.11-3.38-3.87-3.37-7.27s1.44-4.5,3.44-3.34c1.62.93,2.56,2.85,3.18,4.73l.08.05A2.1,2.1,0,0,1,386.08,354.31Zm-6.18,3.87c1.43.83,1.85-.64,2.54-2.51a6.32,6.32,0,0,0-2.32-3.26c-1.24-.71-2.06.08-2.06,1.92a4.26,4.26,0,0,0,1.84,3.85m6,3.09c1.08.62,1.89.21,1.9-1.36a3.76,3.76,0,0,0-1.71-3.27c-1.24-.72-1.8.36-2.36,1.95a6.2,6.2,0,0,0,2.17,2.68"></path><path class="cls-13" d="M378.58,336.2v4l8.17,4.72v-3.2l1.43.83a16.9,16.9,0,0,0,1,4.47V349l-10.63-6.14v3.5l-1.85-1.07,0-10.11Z"></path><path class="cls-13" d="M378,416.32l1.44,2.08a3.42,3.42,0,0,0-1.37,3,4.75,4.75,0,0,0,1.86,4.13c1.29.75,2.13,0,2.14-3.53l1.65,1c0,3.09.83,4.76,2,5.42s1.67,0,1.67-1.56a9,9,0,0,0-1.16-4l1.4-.53a12.74,12.74,0,0,1,1.57,5.64c0,2.92-1.21,4.35-3.32,3.13a7.11,7.11,0,0,1-2.86-4.56l-.09-.05c-.38,1.65-1.44,2.55-3.11,1.59-2.26-1.31-3.59-4.58-3.58-7.53C376.25,418.1,377,416.84,378,416.32Z"></path><path class="cls-13" d="M378,402.81l1.46,2.05a3.26,3.26,0,0,0-1.35,2.94,5.29,5.29,0,0,0,2.38,4.57c1.48.86,2.32.09,2.32-1.71a7.86,7.86,0,0,0-.67-3.06l.69-.85,6.16,4,0,8.47-1.93-1.12V411.9l-3-2a8.09,8.09,0,0,1,.39,2.5c0,2.69-1.22,4.23-3.9,2.68a9.59,9.59,0,0,1-4.29-7.95C376.29,404.55,377.1,403.42,378,402.81Z"></path><path class="cls-13" d="M385.08,434.19a9,9,0,0,1,4.09,7.33c0,3-1.91,4.57-6.12,2.14-4.83-2.79-6.85-6.91-6.84-10.05,0-1.9.64-3,1.42-3.49l1.38,2.2a2.5,2.5,0,0,0-.95,2.15c0,2,1.17,4.46,4.64,6.57a10.06,10.06,0,0,1-1.49-4.63C381.22,433.83,382.47,432.68,385.08,434.19Zm-.78,7.7c2.19.94,3.12.25,3.13-1.33a4.75,4.75,0,0,0-2.35-4c-1.49-.86-2.23-.32-2.24,1.3a7.86,7.86,0,0,0,1.46,4"></path><path class="cls-13" d="M387.2,449a11.56,11.56,0,0,1,1.93,6.06c0,2.95-1.53,4-3.84,2.66s-4.51-5.19-7.08-10c.06.9.11,1.91.11,2.71v4l-1.92-1.11,0-10.45,1.31.76c3.36,6.43,5.51,10.39,7.44,11.51,1.32.76,2.15.31,2.15-1.5a8.52,8.52,0,0,0-1.37-3.95Z"></path><path class="cls-13" d="M381.06,485.55l7.72,11v3l-7.52-4.34v2l-1.77-1v-2l-3.2-1.85V490l3.2,1.86,0-7.16Zm5.64,10.53V496c-.66-.85-1.31-1.78-2-2.65l-3.46-5v4.5l3,1.7c.74.45,1.74,1.08,2.48,1.55"></path><path class="cls-13" d="M377.88,470.44l1.44,2.08a3.41,3.41,0,0,0-1.38,3,4.78,4.78,0,0,0,1.87,4.13c1.29.75,2.13,0,2.14-3.52l1.64.95c0,3.09.84,4.76,2,5.42s1.66,0,1.67-1.56a9.06,9.06,0,0,0-1.16-4l1.39-.53a12.65,12.65,0,0,1,1.57,5.65c0,2.92-1.2,4.34-3.31,3.12-1.4-.8-2.33-2.5-2.87-4.56l-.08-.05c-.38,1.65-1.45,2.56-3.11,1.59-2.27-1.31-3.6-4.58-3.59-7.53C376.1,472.23,376.88,471,377.88,470.44Z"></path><path class="cls-13" d="M387,516.59a11.77,11.77,0,0,1,1.93,6.06c0,3-1.53,4-3.85,2.67s-4.5-5.2-7.07-10c.06.9.11,1.92.1,2.71v4L376.2,521l0-10.45,1.31.76c3.35,6.42,5.51,10.38,7.44,11.5,1.32.76,2.15.31,2.15-1.5a8.52,8.52,0,0,0-1.37-4Z"></path><path class="cls-13" d="M377.76,497.51l1.46,2.06a3.26,3.26,0,0,0-1.35,2.93,5.3,5.3,0,0,0,2.38,4.58c1.48.86,2.32.08,2.32-1.72a7.72,7.72,0,0,0-.67-3.06l.69-.84,6.16,4,0,8.46-1.93-1.12,0-6.19-3-2.05a8.68,8.68,0,0,1,.39,2.5c0,2.69-1.23,4.23-3.91,2.68a9.55,9.55,0,0,1-4.28-8C376,499.25,376.83,498.12,377.76,497.51Z"></path><path class="cls-13" d="M382,541c4.84,2.79,6.85,6.9,6.84,10.05,0,1.9-.64,3-1.43,3.48l-1.38-2.2a2.5,2.5,0,0,0,1-2.14c0-2-1.18-4.46-4.64-6.57a10.27,10.27,0,0,1,1.49,4.62c0,2.57-1.27,3.74-3.88,2.23a9,9,0,0,1-4.08-7.34C375.91,540.11,377.82,538.59,382,541Zm-2,7.05c1.49.86,2.23.34,2.24-1.28a7.83,7.83,0,0,0-1.45-4c-2.21-.95-3.15-.28-3.15,1.32a4.72,4.72,0,0,0,2.36,4"></path><path class="cls-13" d="M384.66,583a9,9,0,0,1,4.09,7.34c0,3-1.92,4.56-6.12,2.13-4.84-2.79-6.85-6.91-6.84-10.05,0-1.9.64-3,1.41-3.48l1.39,2.2a2.48,2.48,0,0,0-.95,2.14c0,2,1.17,4.46,4.64,6.58a10.09,10.09,0,0,1-1.49-4.63C380.79,582.64,382.05,581.49,384.66,583Zm-.79,7.7c2.2.94,3.13.26,3.13-1.33a4.71,4.71,0,0,0-2.35-4c-1.48-.86-2.23-.32-2.23,1.3a7.86,7.86,0,0,0,1.45,4"></path><path class="cls-13" d="M377.57,565.15l1.46,2.06a3.24,3.24,0,0,0-1.35,2.93,5.3,5.3,0,0,0,2.38,4.58c1.48.86,2.32.08,2.32-1.72a7.9,7.9,0,0,0-.67-3.06l.69-.84,6.16,4,0,8.46-1.93-1.11v-6.2l-3-2a8,8,0,0,1,.39,2.49c0,2.69-1.22,4.23-3.9,2.68a9.59,9.59,0,0,1-4.29-8C375.83,566.9,376.64,565.76,377.57,565.15Z"></path><path class="cls-13" d="M388.6,558.31l0,10.59-1.4-.81A29.4,29.4,0,0,0,376.1,557v-2.66a32.07,32.07,0,0,1,10.55,10.6l0-7.73Z"></path><path d="M375,333.89v4l8.18,4.72v-3.21l1.44.83a16.54,16.54,0,0,0,1,4.48v1.93L375,340.5V344l-1.85-1.07,0-10.11Z"></path><path d="M374.54,373.43l1.45,2.08a3.39,3.39,0,0,0-1.37,3,4.74,4.74,0,0,0,1.86,4.12c1.29.75,2.13,0,2.14-3.52l1.64.95c0,3.1.84,4.76,2,5.42s1.67,0,1.67-1.55a8.84,8.84,0,0,0-1.16-4l1.41-.53a12.63,12.63,0,0,1,1.56,5.65c0,2.92-1.2,4.35-3.31,3.13a7.19,7.19,0,0,1-2.87-4.56l-.08-.05c-.39,1.63-1.44,2.55-3.12,1.58-2.26-1.3-3.59-4.58-3.58-7.53C372.76,375.21,373.55,374,374.54,373.43Z"></path><path d="M374.54,359.91,376,362a3.31,3.31,0,0,0-1.35,2.94,5.33,5.33,0,0,0,2.38,4.57c1.48.86,2.32.09,2.33-1.71a7.79,7.79,0,0,0-.68-3.07l.7-.84,6.16,4,0,8.47-1.93-1.12,0-6.2-3-2a8.31,8.31,0,0,1,.39,2.5c0,2.69-1.23,4.22-3.91,2.68a9.57,9.57,0,0,1-4.28-8C372.8,361.65,373.62,360.53,374.54,359.91Z"></path><path d="M382.48,352c2,1.16,3.33,3.87,3.32,6.59s-1.39,3.78-3.39,2.62a8.09,8.09,0,0,1-2.84-3.76l-.08,0c-.68,1.15-1.54,1.86-3.28.86-1.91-1.11-3.39-3.88-3.38-7.27s1.44-4.5,3.45-3.34c1.62.94,2.56,2.86,3.18,4.73l.08.05A2.1,2.1,0,0,1,382.48,352Zm-6.18,3.87c1.43.82,1.85-.64,2.54-2.52a6.32,6.32,0,0,0-2.33-3.26c-1.22-.7-2.05.08-2.06,1.91a4.36,4.36,0,0,0,1.85,3.87m6,3.08c1.09.63,1.89.22,1.9-1.37a3.76,3.76,0,0,0-1.71-3.26c-1.24-.72-1.81.35-2.36,1.95a6.2,6.2,0,0,0,2.17,2.68"></path><path d="M383.61,446.64a11.66,11.66,0,0,1,1.92,6.06c0,2.95-1.53,4-3.85,2.66s-4.5-5.19-7.07-10c.06.9.11,1.91.11,2.71v4L372.79,451l0-10.44,1.31.75c3.36,6.43,5.5,10.38,7.44,11.5,1.32.76,2.15.31,2.15-1.49a8.73,8.73,0,0,0-1.36-4Z"></path><g class="cls-10"><path d="M381.48,431.88a9,9,0,0,1,4.09,7.33c0,3-1.92,4.57-6.12,2.15-4.84-2.8-6.85-6.93-6.84-10.06,0-1.9.64-3,1.42-3.49l1.37,2.2a2.55,2.55,0,0,0-.94,2.15c0,2,1.18,4.46,4.64,6.58a10.21,10.21,0,0,1-1.49-4.64C377.62,431.52,378.88,430.38,381.48,431.88Zm-.78,7.7c2.19.94,3.12.26,3.13-1.33a4.74,4.74,0,0,0-2.36-4c-1.48-.86-2.22-.33-2.23,1.3a7.83,7.83,0,0,0,1.46,4"></path><path d="M374.43,414l1.44,2.09a3.42,3.42,0,0,0-1.37,3,4.78,4.78,0,0,0,1.86,4.13c1.29.74,2.13,0,2.14-3.53l1.65,1c0,3.11.83,4.77,2,5.43s1.66,0,1.67-1.56a9.06,9.06,0,0,0-1.16-4L384,420a12.65,12.65,0,0,1,1.57,5.65c0,2.92-1.21,4.34-3.32,3.12a7.12,7.12,0,0,1-2.86-4.56l-.08-.05c-.39,1.64-1.45,2.56-3.12,1.59-2.27-1.31-3.6-4.58-3.59-7.53C372.65,415.79,373.44,414.53,374.43,414Z"></path></g><path d="M374.43,400.5l1.45,2.05a3.33,3.33,0,0,0-1.34,2.95,5.29,5.29,0,0,0,2.38,4.57c1.48.85,2.32.09,2.32-1.72a7.45,7.45,0,0,0-.68-3.07l.7-.83,6.16,4,0,8.46-1.93-1.11,0-6.2-3-2a8.62,8.62,0,0,1,.39,2.49c0,2.7-1.24,4.23-3.91,2.69a9.59,9.59,0,0,1-4.29-8C372.69,402.24,373.5,401.11,374.43,400.5Z"></path><path d="M383.41,514.28a11.61,11.61,0,0,1,1.93,6.06c0,2.95-1.53,4-3.85,2.67s-4.5-5.2-7.08-10c.07.9.12,1.91.12,2.71v4l-1.93-1.11,0-10.44,1.32.76c3.36,6.43,5.5,10.38,7.44,11.5,1.32.76,2.14.31,2.15-1.5a8.7,8.7,0,0,0-1.36-4Z"></path><path d="M374.16,495.2l1.46,2.05a3.33,3.33,0,0,0-1.35,2.95,5.32,5.32,0,0,0,2.38,4.57c1.48.85,2.32.09,2.33-1.72a7.64,7.64,0,0,0-.69-3.07l.7-.84,6.16,4,0,8.47-1.93-1.11,0-6.2-3-2a8.62,8.62,0,0,1,.39,2.49c0,2.7-1.23,4.23-3.91,2.68a9.56,9.56,0,0,1-4.29-7.95C372.42,496.94,373.23,495.81,374.16,495.2Z"></path><g class="cls-10"><path d="M377.46,483.23l7.72,11v3L377.66,493v2l-1.77-1v-2l-3.21-1.86v-2.43l3.21,1.85,0-7.16Zm5.64,10.55v-.1c-.65-.86-1.32-1.79-2-2.67l-3.46-5v4.5l3,1.71c.74.44,1.73,1.07,2.48,1.55"></path><path d="M374.27,468.13l1.45,2.08a3.39,3.39,0,0,0-1.37,3,4.74,4.74,0,0,0,1.86,4.12c1.29.75,2.13,0,2.14-3.52l1.65.95c0,3.1.83,4.76,2,5.42s1.66,0,1.66-1.56a8.8,8.8,0,0,0-1.16-4l1.41-.52a12.7,12.7,0,0,1,1.57,5.64c0,2.92-1.21,4.35-3.32,3.13a7.14,7.14,0,0,1-2.86-4.57l-.09,0c-.39,1.64-1.44,2.55-3.12,1.58-2.26-1.3-3.59-4.58-3.58-7.53C372.5,469.91,373.29,468.65,374.27,468.13Z"></path></g><path d="M381.06,580.69a9,9,0,0,1,4.09,7.33c0,3-1.92,4.57-6.12,2.15-4.84-2.8-6.86-6.92-6.85-10.06,0-1.9.65-3,1.43-3.48l1.37,2.19A2.56,2.56,0,0,0,374,581c0,2,1.17,4.45,4.63,6.57a10.31,10.31,0,0,1-1.48-4.64C377.2,580.34,378.45,579.19,381.06,580.69Zm-.78,7.7c2.19,1,3.12.26,3.13-1.32a4.74,4.74,0,0,0-2.36-4c-1.48-.86-2.22-.32-2.23,1.3a7.8,7.8,0,0,0,1.46,4"></path><path d="M374,562.84l1.45,2.06a3.3,3.3,0,0,0-1.34,2.94,5.29,5.29,0,0,0,2.38,4.57c1.48.85,2.32.09,2.32-1.72a7.65,7.65,0,0,0-.68-3.07l.7-.83,6.16,4,0,8.46L383,578.13l0-6.2-3-2a8.68,8.68,0,0,1,.39,2.5c0,2.69-1.24,4.22-3.91,2.68a9.58,9.58,0,0,1-4.29-8C372.23,564.58,373,563.45,374,562.84Z"></path><path d="M385,556l0,10.59-1.39-.8a29.4,29.4,0,0,0-11.09-11.12V552a32.2,32.2,0,0,1,10.55,10.61l0-7.72Z"></path><path d="M378.42,538.71c4.83,2.79,6.85,6.9,6.84,10,0,1.9-.64,3-1.44,3.48l-1.37-2.2a2.53,2.53,0,0,0,1-2.14c0-2-1.17-4.46-4.63-6.57a10.4,10.4,0,0,1,1.48,4.62c0,2.58-1.27,3.74-3.87,2.23a9,9,0,0,1-4.1-7.34C372.3,537.8,374.21,536.28,378.42,538.71Zm-2,7c1.48.86,2.23.33,2.23-1.28a7.77,7.77,0,0,0-1.44-4c-2.2-1-3.15-.29-3.16,1.31a4.79,4.79,0,0,0,2.37,4"></path><line class="cls-3" x1="514" y1="360.06" x2="507.31" y2="364.07"></line></svg> 