<?xml version="1.0" encoding="UTF-8"?> <svg xmlns="http://www.w3.org/2000/svg" id="Layer_1" data-name="Layer 1" viewBox="0 0 500.13 477.23"><defs><style>.cls-1{fill:#c169ff;}.cls-1,.cls-3,.cls-4,.cls-5{stroke:#000;stroke-miterlimit:10;stroke-width:2px;}.cls-2{isolation:isolate;}.cls-3{fill:#fff;}.cls-4{fill:#ff5050;}</style></defs><circle class="cls-1" cx="250.37" cy="238.5" r="233.5"></circle><g class="cls-2"><path class="cls-3" d="M294.57,69.62l82.8,48.11c21,12.22,34.06,38.15,34.17,75,.21,74.14-52.11,164.75-116.63,202l-82.79-48.12c64.51-37.24,116.83-127.86,116.62-202C328.64,107.77,315.59,81.83,294.57,69.62Z"></path><path class="cls-3" d="M272.94,246.42c8-16.48,12.59-33.47,12.54-48.84l82.8,48.12c0,15.37-4.59,32.36-12.55,48.84Z"></path><path class="cls-3" d="M211.7,402.8l-82.8-48.12c21.29,12.37,50.75,10.66,83.22-8.09l82.79,48.12C262.45,413.45,233,415.17,211.7,402.8Z"></path><path class="cls-3" d="M211.69,314.62c25.5-14.73,48-40.75,61.25-68.2l82.79,48.12C342.48,322,320,348,294.49,362.73c-22.35,12.91-42.45,14.49-56.07,6.55l-82.8-48.11C169.25,329.11,189.34,327.52,211.69,314.62Z"></path><path class="cls-4" d="M239.39,367.68l-82.8-48.12c13.38,7.78,33.13,6.2,55.1-6.48,39.81-23,72.16-73.94,72.46-114L367,247.23c-.3,40-32.65,91-72.47,114C272.51,373.88,252.77,375.45,239.39,367.68Z"></path><path class="cls-5" d="M294.07,361c39.82-23,72.17-73.94,72.47-114L283.74,199c-.3,40-32.64,91-72.46,114Z"></path><polygon class="cls-3" points="220.27 330.38 137.48 282.26 285.48 196.82 368.27 244.93 220.27 330.38"></polygon><polygon class="cls-3" points="368.28 245.7 285.48 197.58 285.48 196.82 368.27 244.93 368.28 245.7"></polygon><path class="cls-3" d="M255.36,173.54a46.47,46.47,0,0,0,6.15-4.27l82.8,48.12a48.75,48.75,0,0,1-6.15,4.26Z"></path><path class="cls-3" d="M247.27,177a33.26,33.26,0,0,0,8.09-3.42l82.8,48.11a33.08,33.08,0,0,1-8.09,3.43Z"></path><path class="cls-3" d="M285.94,120.59c0-9.65-3.45-16.44-8.95-19.65l82.8,48.12c5.5,3.2,8.91,10,8.94,19.64,0,17-10.46,37.34-24.42,48.69-27.6-16-45.88-48.12-82.8-48.12C275.48,157.92,286,137.6,285.94,120.59Z"></path><path class="cls-3" d="M247.27,177c34.22,4.64,55.2,32.08,82.8,48.12-5.27,1.38-10,.86-13.73-1.32l-82.8-48.11C237.29,177.83,242,178.35,247.27,177Z"></path><path class="cls-4" d="M317.3,222.15,234.5,174c5.34,3.1,12.72,2.67,20.86-2l82.79,48.12C330,224.82,322.63,225.25,317.3,222.15Z"></path><path class="cls-5" d="M276,102.56l82.8,48.12c5.27,3.06,8.54,9.56,8.56,18.8.06,18.58-13.06,41.3-29.24,50.64L255.36,172c16.18-9.33,29.29-32.05,29.24-50.64C284.57,112.13,281.3,105.62,276,102.56Z"></path><path class="cls-3" d="M277,100.94l82.8,48.11c-5.59-3.24-13.31-2.79-21.82,2.12l-82.8-48.11C263.68,98.14,271.4,97.69,277,100.94Z"></path><path class="cls-3" d="M316.35,223.77l-82.8-48.12c-5.51-3.2-8.93-10-9-19.65-.06-19.43,13.66-43.18,30.56-52.94L338,151.17c-16.91,9.76-30.62,33.52-30.57,53C307.42,213.77,310.84,220.57,316.35,223.77Z"></path><path class="cls-3" d="M238.45,369.3l-82.8-48.11c-11.27-6.55-18.12-19.61-18.17-38.16l82.8,48.12C220.33,349.7,227.18,362.75,238.45,369.3Z"></path><polygon class="cls-3" points="220.28 331.15 137.48 283.03 137.48 282.26 220.27 330.38 220.28 331.15"></polygon><path class="cls-4" d="M155.46,226a52.19,52.19,0,0,0,6.83-4.73l92,53.47a52.19,52.19,0,0,1-6.83,4.73,36.48,36.48,0,0,1-9,3.81l-92-53.47A36.48,36.48,0,0,0,155.46,226Z"></path><path class="cls-3" d="M195.93,172.55c0-9.65-3.44-16.44-8.94-19.64L269.78,201c5.51,3.2,8.92,10,9,19.65,0,17-10.46,37.33-24.43,48.68l-82.79-48.11C185.48,209.89,196,189.56,195.93,172.55Z"></path><path class="cls-5" d="M165.36,224c16.17-9.34,29.29-32.06,29.24-50.65,0-9.23-3.3-15.73-8.57-18.8l82.79,48.12c5.27,3.06,8.54,9.56,8.57,18.8.05,18.59-13.06,41.3-29.24,50.64"></path><path class="cls-3" d="M94.73,279.7q0-6.92.57-14l82.79,48.12q-.57,7.08-.56,14c.1,36.86,13.17,62.81,34.22,75L129,354.72C107.91,342.52,94.84,316.56,94.73,279.7Z"></path><path class="cls-3" d="M226.34,275.73l-82.79-48.11c-5.51-3.2-8.93-10-9-19.65-.05-19.43,13.66-43.19,30.57-52.95,8.51-4.91,16.24-5.36,21.82-2.12L269.77,201c-5.58-3.25-13.3-2.8-21.82,2.12-16.9,9.76-30.62,33.51-30.56,52.94C217.42,265.73,220.84,272.53,226.34,275.73Z"></path><path class="cls-3" d="M248.15,273.61c-16.9,9.77-30.71,1.9-30.76-17.53S231.05,212.9,248,203.14s30.72-1.9,30.78,17.53S265.07,263.85,248.15,273.61ZM248,204.67c-16.17,9.33-29.29,32.05-29.23,50.64s13.25,26.11,29.42,16.77,29.29-32,29.24-50.64S264.14,195.33,248,204.67"></path><path class="cls-3" d="M211.36,77.7c32.43-18.72,61.87-20.45,83.15-8.12l82.8,48.12c-21.28-12.34-50.72-10.61-83.16,8.12Z"></path><path class="cls-3" d="M199.31,85.37q5.94-4.14,12.05-7.67l82.79,48.12c-4.07,2.34-8.09,4.91-12,7.66Z"></path><path class="cls-3" d="M106.19,214.59,189,262.71c-.85,2.51-1.66,5-2.41,7.55-27.6-16-45.88-48.11-82.8-48.11Q104.92,218.37,106.19,214.59Z"></path><path class="cls-3" d="M95.34,265.14l82.79,48.12c0,.18,0,.36,0,.54L95.3,265.68C95.31,265.5,95.33,265.32,95.34,265.14Z"></path><path class="cls-3" d="M95.34,265.14c.38-4.55,1-9.14,1.68-13.76l82.79,48.11c-.73,4.62-1.29,9.22-1.68,13.77Z"></path><path class="cls-3" d="M99.35,239.1l82.8,48.12c-.91,4.1-1.69,8.2-2.34,12.27L97,251.38Q98,245.28,99.35,239.1Z"></path><path class="cls-3" d="M99.35,239.1c.16-.73.33-1.47.5-2.2L182.64,285c-.17.74-.33,1.47-.49,2.21Z"></path><path class="cls-3" d="M103,224.73l82.79,48.12q-1.76,6.07-3.17,12.16c-27.59-16-45.87-48.11-82.79-48.11Q101.26,230.83,103,224.73Z"></path><path class="cls-3" d="M103,224.73c.25-.86.5-1.72.76-2.58l82.8,48.11c-.26.86-.52,1.72-.77,2.59Z"></path><path class="cls-3" d="M106.19,214.59q1.19-3.5,2.47-7l82.79,48.11q-1.29,3.5-2.46,7Z"></path><path class="cls-3" d="M108.79,207.24l82.8,48.12-.14.36c-27.6-16-45.87-48.11-82.79-48.11C108.7,207.48,108.75,207.36,108.79,207.24Z"></path><path class="cls-3" d="M108.79,207.24c17.93-48.37,51.36-94.63,90.52-121.87l82.79,48.11C243,160.72,209.52,207,191.59,255.36Z"></path><path class="cls-4" d="M210.75,404.42,128,356.31C106.7,344,93.5,317.72,93.4,280.47c-.22-75,52.7-166.63,118-204.3l82.8,48.12C228.89,162,176,253.61,176.19,328.59,176.3,365.84,189.49,392.07,210.75,404.42Z"></path><path class="cls-5" d="M176.31,329c.11,37.24,13.31,63.48,34.56,75.83l-82.79-48.11c-21.26-12.36-34.45-38.59-34.56-75.84Z"></path><path class="cls-4" d="M208.3,266.7,107.87,206.41l3.6-9,97.65,59.87a71.82,71.82,0,0,0-.82,9.41"></path><path class="cls-4" d="M209.12,257.29l-97.24-60.2c.3-1.92,1.57-2.93,2-4.82l96.34,59.3c-.45,1.89-.83,3.8-1.12,5.72"></path><path class="cls-4" d="M211.14,251.57l-96.34-59.3L116,188l96.34,59.3c-.43,1.42-.81,2.84-1.15,4.27"></path><path class="cls-4" d="M212.29,247.3,116,188c.37-1.2.76-2.39,1.19-3.58l96.34,59.3c-.43,1.19-.82,2.38-1.19,3.58"></path><path class="cls-4" d="M213.48,244.62l-96.34-59.3s.8-2.15,1.24-3.22l96.34,59.3c-.44,1.07-.85,2.14-1.24,3.22"></path><path class="cls-4" d="M214.72,241.4l-96.34-59.3c.42-1,.86-2,1.33-3l96.34,59.3c-.47,1-.91,2-1.33,3"></path><path class="cls-4" d="M216.05,238.36l-96.34-59.3,1.43-2.95,96.34,59.3c-.5,1-1,2-1.43,3"></path><path class="cls-4" d="M217.48,235.41l-96.34-59.3c.51-1,1-2,1.58-2.94l96.34,59.3c-.55,1-1.07,2-1.58,2.94"></path><path class="cls-4" d="M219.06,232.47l-96.34-59.3,1.74-3,96.34,59.3c-.6,1-1.18,2-1.74,3"></path><path class="cls-4" d="M220.8,229.51l-96.34-59.3.06-.09c.61-1,1.25-2,1.89-2.94l96.34,59.3q-1,1.44-1.89,2.94l-.06.09"></path><path class="cls-4" d="M222.75,226.48l-96.34-59.3s1.4-2,2.12-3l96.34,59.3c-.72,1-1.43,2-2.12,3"></path><path class="cls-4" d="M224.87,223.46l-96.34-59.3,2.41-3.1,96.33,59.3c-.82,1-1.62,2-2.4,3.1"></path><path class="cls-4" d="M227.27,220.36l-96.33-59.3,2-4.29L230.19,217q-1.5,1.64-2.92,3.39"></path><path class="cls-4" d="M230.19,217,133,157.67a51.65,51.65,0,0,1,4.1-5.08l97.24,60.2c-1.42,1.33-2.78,2.72-4.11,4.18"></path><path class="cls-3" d="M294.15,124.29C359.4,86.61,412.66,117,412.87,191.94s-52.7,166.63-117.95,204.31-118.52,7.32-118.73-67.66S228.89,162,294.15,124.29Zm.76,270.42c64.52-37.25,116.84-127.86,116.63-202S358.67,88.57,294.15,125.82s-116.83,127.86-116.62,202S230.39,432,294.91,394.71"></path><path class="cls-3" d="M294.15,125.82c64.52-37.25,117.18-7.24,117.39,66.89s-52.11,164.75-116.63,202S177.74,402,177.53,327.82,229.63,163.07,294.15,125.82ZM368.28,245.7v-.77l-148,85.45v.77c.11,41,33.4,55.14,74.21,31.58s73.9-76.06,73.79-117m-30.12-24c16.91-9.77,30.63-33.52,30.57-53S354.87,141.41,338,151.17s-30.62,33.52-30.57,53,13.86,27.29,30.77,17.53M248,203.14c-16.9,9.76-30.62,33.51-30.56,52.94s13.86,27.3,30.76,17.53,30.63-33.52,30.58-52.94-13.86-27.3-30.78-17.53"></path><path class="cls-3" d="M338,151.17c16.91-9.76,30.72-1.9,30.77,17.53s-13.66,43.18-30.57,53-30.71,1.9-30.77-17.53S321.05,160.93,338,151.17Zm.19,69c16.18-9.34,29.3-32.06,29.24-50.64S354.14,143.36,338,152.7s-29.28,32.06-29.23,50.64,13.25,26.12,29.42,16.78"></path><path class="cls-3" d="M220.28,331.15v-.77l148-85.45v.77c.11,41-33,93.47-73.79,117S220.39,372.12,220.28,331.15ZM367,247.23,221.62,331.14c.52,39.55,33,53,72.86,30.05s72.17-73.94,72.47-114"></path><path class="cls-5" d="M295.52,68l82.79,48.12c-21.53-12.52-51.33-10.78-84.16,8.18l-82.8-48.12C244.19,57.21,274,55.48,295.52,68Z"></path></g><polygon class="cls-4" points="286.9 129.98 203.4 81.11 209.97 77.42 294.01 125.78 286.9 129.98"></polygon></svg> 