<?xml version="1.0" encoding="UTF-8"?> <!-- Generator: Adobe Illustrator 24.1.2, SVG Export Plug-In . SVG Version: 6.00 Build 0) --> <svg xmlns="http://www.w3.org/2000/svg" xmlns:xlink="http://www.w3.org/1999/xlink" id="Layer_1" x="0px" y="0px" viewBox="0 0 559.3 187.1" style="enable-background:new 0 0 559.3 187.1;" xml:space="preserve"> <style type="text/css"> .st0{fill:#D5D5D9;} .st1{fill:#25D675;} .st2{clip-path:url(#SVGID_2_);} .st3{opacity:0.1;fill:#134200;enable-background:new ;} .st4{fill:#FFFFFF;} .st5{fill:#BABABD;} </style> <g> <g id="Layer_2_1_"> <g id="Content"> <path class="st0" d="M125,74h-20.2V58.6c0-21.3-17.2-38.5-38.5-38.5S27.8,37.4,27.8,58.6V74H7.7V58.6C7.7,26.2,34,0,66.3,0 S125,26.2,125,58.6L125,74z"></path> <path class="st1" d="M3.3,73.7h126.1c1.8,0,3.3,1.5,3.3,3.3c0,0,0,0,0,0v78.2c0,17.6-14.3,31.9-31.9,31.9H31.9 C14.3,187.1,0,172.8,0,155.2c0,0,0,0,0,0V77C0,75.2,1.5,73.7,3.3,73.7L3.3,73.7z"></path> <g> <defs> <path id="SVGID_1_" d="M125,73.7v-13C125.6,28.3,99.8,1.6,67.4,1S8.3,26.2,7.7,58.6v15H5.2C2.3,73.6,0,76,0,78.9c0,0,0,0,0,0 v41.8c0,36.6,29.7,66.3,66.3,66.4l0,0c36.6,0,66.3-29.7,66.3-66.3V78.9c0-2.9-2.3-5.2-5.2-5.2H125z M27.9,58.7 c0-21.3,17.2-38.5,38.5-38.5s38.5,17.2,38.5,38.5v15h-77V58.7z"></path> </defs> <clipPath id="SVGID_2_"> <use xlink:href="#SVGID_1_" style="overflow:visible;"></use> </clipPath> <g class="st2"> <rect x="66.3" y="73.7" class="st3" width="66.3" height="113.4"></rect> </g> </g> <polygon class="st4" points="60.5,152.9 29.3,123.7 42.6,111.2 60.5,128 96.4,94.3 109.6,106.8 "></polygon> <path class="st4" d="M186.7,75.8c-2.4-0.9-4.7-2-6.9-3.2c-2-1.1-3.7-2.5-5.2-4.2c-1.5-1.7-2.6-3.7-3.4-5.9 c-0.8-2.6-1.2-5.4-1.1-8.2c-0.1-3.5,0.6-7,2-10.2c1.3-2.9,3.2-5.4,5.6-7.5c2.6-2.1,5.5-3.6,8.7-4.5c3.7-1.1,7.6-1.6,11.5-1.5 c3.6,0,7.3,0.3,10.9,1c3.6,0.8,7.2,1.8,10.6,3c-0.5,4.5-1.7,8.9-3.6,13l-3.5-1.4c-1.2-0.5-2.5-0.9-3.8-1.1 c-1.5-0.3-3-0.6-4.5-0.7c-1.9-0.2-3.8-0.3-5.7-0.3c-1.3,0-2.6,0.1-3.9,0.3c-1.3,0.2-2.5,0.6-3.6,1.2c-1.1,0.6-2,1.6-2.6,2.7 c-0.7,1.4-1.1,3-1,4.6c0,1.3,0.2,2.6,0.8,3.8c0.5,1,1.3,1.9,2.2,2.6c0.9,0.7,2,1.3,3,1.8c1.1,0.5,2.3,1,3.4,1.4l6.8,2.6 c2.9,1.1,5.5,2.3,7.9,3.5c2.3,1.1,4.3,2.7,6,4.5c1.7,1.9,2.9,4.1,3.7,6.5c1,3,1.5,6.2,1.4,9.4c0,3.6-0.7,7.2-2.1,10.6 c-1.4,3.2-3.5,6-6.1,8.2c-2.9,2.4-6.2,4.2-9.8,5.3c-4.4,1.3-8.9,2-13.5,1.9c-2.5,0-4.7-0.1-6.7-0.2c-1.9-0.1-3.8-0.4-5.6-0.7 c-1.8-0.3-3.6-0.8-5.3-1.3c-1.7-0.5-3.6-1.2-5.5-1.9c0.2-2.3,0.7-4.6,1.2-6.9c0.6-2.4,1.3-4.8,2.2-7.2c2.9,1.2,5.9,2.2,9,2.9 c3,0.7,6,1,9,1c4.8,0,8.5-0.9,11.3-2.7c2.7-1.8,4.1-4.5,4.1-8.1c0-1.6-0.3-3.1-1-4.6c-0.6-1.2-1.5-2.2-2.5-3.1 c-1.1-0.8-2.2-1.6-3.5-2.1c-1.3-0.6-2.6-1.1-4-1.7L186.7,75.8z"></path> <path class="st4" d="M234.4,31.8h46.4c0.5,2.3,0.7,4.6,0.7,6.9c0,2.4-0.2,4.8-0.7,7.2H251v17.8h23.7c0.4,2.3,0.7,4.7,0.7,7.1 c0,2.4-0.2,4.8-0.7,7.2H251v21.6h30.6c0.5,2.3,0.7,4.6,0.7,6.9c0,2.4-0.2,4.8-0.7,7.2h-47.3V31.8z"></path> <path class="st4" d="M348.8,98.2c1,2.1,1.8,4.3,2.5,6.5c0.6,2.2,1.1,4.5,1.4,6.8c-3.5,1.3-7,2.3-10.7,2.8 c-3.4,0.5-6.8,0.7-10.2,0.7c-5.8,0.1-11.6-0.9-17-3.1c-4.7-2-8.9-5-12.2-8.8c-3.4-3.9-5.9-8.4-7.5-13.4 c-1.7-5.4-2.6-11.1-2.5-16.8c0-5.7,0.9-11.5,2.7-16.9c1.6-4.9,4.2-9.5,7.6-13.5c3.3-3.8,7.5-6.9,12.2-8.9 c5.2-2.2,10.8-3.3,16.4-3.2c3.4,0,6.7,0.2,10.1,0.7c3.4,0.6,6.8,1.5,9.9,2.9c-0.2,2.3-0.6,4.5-1.4,6.7c-0.8,2.2-1.6,4.4-2.5,6.5 c-2.3-0.8-4.7-1.5-7-1.9c-2.4-0.4-4.8-0.6-7.3-0.6c-7.3,0-12.9,2.4-16.8,7.1c-3.9,4.7-5.9,11.8-5.9,21.1 c0,18.5,7.9,27.8,23.5,27.8c2.5,0,4.9-0.2,7.4-0.6C344.1,99.6,346.5,99,348.8,98.2z"></path> <path class="st4" d="M364.6,31.8c1.4-0.2,2.8-0.4,4.2-0.5c1.4-0.1,2.8-0.1,4.2-0.1s2.6,0,4,0.1s2.8,0.2,4.2,0.5v42.4 c0,4,0.1,7.9,0.5,11.9c0.2,2.8,0.9,5.6,2,8.2c0.9,2,2.4,3.7,4.3,4.8c2.2,1.1,4.7,1.6,7.2,1.5c2.5,0.1,5-0.4,7.2-1.5 c1.9-1.1,3.4-2.8,4.3-4.8c1.1-2.6,1.8-5.4,2-8.2c0.4-4,0.6-7.9,0.5-11.9V31.8c1.5-0.2,3-0.4,4.3-0.5s2.7-0.1,4-0.1s2.8,0,4.1,0.1 c1.4,0.1,2.9,0.2,4.3,0.5v46c0,5.1-0.4,10.2-1.4,15.2c-0.8,4.2-2.4,8.2-4.9,11.8c-2.4,3.3-5.7,5.9-9.4,7.6 c-3.9,1.8-8.9,2.7-15,2.7s-11.1-0.9-15-2.7c-3.8-1.6-7-4.3-9.5-7.6c-2.5-3.5-4.1-7.5-4.9-11.8c-0.9-5-1.4-10.1-1.4-15.2 L364.6,31.8z"></path> <path class="st4" d="M442.2,31.8c3.3-0.4,6.5-0.7,9.4-1c2.9-0.3,6.2-0.4,9.7-0.4c4.1,0,8.3,0.4,12.3,1.1c3.9,0.7,7.6,2,11,4 c3.2,1.9,6,4.6,7.9,7.8c2,3.3,3,7.5,3,12.6c0,2.7-0.3,5.4-1.1,8c-0.7,2.2-1.7,4.2-2.9,6.1c-1.1,1.6-2.4,3.1-3.8,4.5 c-1.2,1.1-2.5,2.1-3.9,3l-1.9,1.2l19.9,34.6c-1.5,0.2-3.1,0.3-4.8,0.5s-3.4,0.2-5.1,0.2c-2.9,0-5.7-0.2-8.5-0.7L462,75.5l2.7-1.4 c1.1-0.5,2.4-1.2,3.9-2c1.6-0.9,3.1-1.9,4.4-3.2c1.4-1.3,2.7-2.8,3.6-4.6c1-2,1.5-4.1,1.4-6.3c0-4.8-1.4-8.3-4.1-10.5 c-3-2.3-6.8-3.5-10.6-3.3c-1.5,0-3,0.1-4.5,0.3v69.1c-1.4,0.2-2.7,0.3-4.1,0.4s-2.7,0.2-4,0.2s-2.7,0-4.1-0.1s-2.9-0.2-4.4-0.4 L442.2,31.8z"></path> <path class="st4" d="M510.9,31.8h46.4c0.5,2.3,0.7,4.6,0.7,6.9c0,2.4-0.2,4.8-0.7,7.2h-29.8v17.8h23.7c0.5,2.3,0.7,4.7,0.7,7.1 c0,2.4-0.2,4.8-0.7,7.2h-23.7v21.6h30.6c0.5,2.3,0.7,4.6,0.7,6.9c0,2.4-0.2,4.8-0.7,7.2h-47.2V31.8z"></path> <path class="st5" d="M175.8,155.7c-1.1-0.4-2.2-0.9-3.2-1.5c-0.9-0.5-1.7-1.2-2.4-1.9c-0.7-0.8-1.2-1.7-1.5-2.7 c-0.4-1.2-0.6-2.5-0.5-3.7c0-1.6,0.3-3.2,0.9-4.7c0.6-1.3,1.5-2.5,2.6-3.4c1.2-1,2.5-1.7,4-2.1c1.7-0.5,3.5-0.7,5.2-0.7 c1.7,0,3.4,0.1,5,0.5c1.7,0.3,3.3,0.8,4.9,1.4c-0.2,2.1-0.8,4.1-1.7,5.9l-1.6-0.6c-0.6-0.2-1.1-0.4-1.7-0.5 c-0.7-0.1-1.4-0.3-2.1-0.3c-0.9-0.1-1.7-0.1-2.6-0.1c-0.6,0-1.2,0.1-1.8,0.2c-0.6,0.1-1.1,0.3-1.6,0.6c-0.5,0.3-0.9,0.7-1.2,1.2 c-0.3,0.7-0.5,1.4-0.5,2.1c-0.1,1.1,0.5,2.2,1.4,2.9c0.4,0.3,0.9,0.6,1.4,0.8c0.5,0.2,1,0.4,1.6,0.6l3.1,1.2 c1.3,0.5,2.5,1.1,3.6,1.6c1,0.5,2,1.2,2.7,2.1c0.8,0.9,1.4,1.9,1.8,3c0.4,1.4,0.7,2.8,0.6,4.3c0,1.7-0.3,3.3-1,4.8 c-0.6,1.4-1.6,2.7-2.8,3.8c-1.3,1.1-2.9,1.9-4.5,2.4c-2,0.6-4.1,0.9-6.2,0.9c-1.1,0-2.2,0-3.1-0.1c-0.9-0.1-1.7-0.2-2.6-0.3 c-0.8-0.2-1.6-0.4-2.4-0.6s-1.6-0.5-2.5-0.9c0.1-1.1,0.3-2.1,0.6-3.1c0.3-1.1,0.6-2.2,1-3.3c1.3,0.6,2.7,1,4.1,1.3 c1.4,0.3,2.8,0.4,4.2,0.4c1.8,0.1,3.6-0.3,5.1-1.2c1.2-0.8,2-2.2,1.9-3.7c0-0.7-0.1-1.4-0.4-2.1c-0.3-0.5-0.7-1-1.1-1.4 c-0.5-0.4-1-0.7-1.6-1c-0.6-0.3-1.2-0.5-1.8-0.8L175.8,155.7z"></path> <path class="st5" d="M203.1,155.7c-1.1-0.4-2.1-0.9-3.1-1.5c-0.9-0.5-1.7-1.2-2.4-1.9c-0.7-0.8-1.2-1.7-1.5-2.7 c-0.4-1.2-0.6-2.5-0.6-3.7c0-1.6,0.3-3.2,0.9-4.7c0.6-1.3,1.5-2.5,2.6-3.4c1.2-1,2.5-1.7,4-2.1c1.7-0.5,3.5-0.7,5.3-0.7 c1.7,0,3.4,0.1,5,0.5c1.6,0.3,3.3,0.8,4.9,1.4c-0.2,2.1-0.8,4.1-1.7,5.9l-1.6-0.6c-0.6-0.2-1.1-0.4-1.7-0.5 c-0.7-0.1-1.4-0.3-2.1-0.3c-0.9-0.1-1.7-0.1-2.6-0.1c-0.6,0-1.2,0.1-1.8,0.2c-0.6,0.1-1.1,0.3-1.6,0.6c-0.5,0.3-0.9,0.7-1.2,1.2 c-0.3,0.7-0.5,1.4-0.5,2.1c0,0.6,0.1,1.2,0.4,1.7c0.2,0.5,0.6,0.9,1,1.2c0.4,0.3,0.9,0.6,1.4,0.8c0.5,0.2,1,0.4,1.6,0.6l3.1,1.2 c1.3,0.5,2.5,1.1,3.6,1.6c1,0.5,1.9,1.2,2.7,2.1c0.8,0.9,1.4,1.9,1.7,3c0.5,1.4,0.7,2.8,0.6,4.3c0,1.7-0.3,3.3-1,4.8 c-0.6,1.4-1.6,2.7-2.8,3.8c-1.3,1.1-2.9,1.9-4.5,2.4c-2,0.6-4.1,0.9-6.2,0.9c-1.1,0-2.2,0-3.1-0.1c-0.9-0.1-1.7-0.2-2.6-0.3 c-0.8-0.2-1.6-0.4-2.4-0.6s-1.6-0.5-2.5-0.9c0.1-1.1,0.3-2.1,0.6-3.1c0.3-1.1,0.6-2.2,1-3.3c1.3,0.6,2.7,1,4.1,1.3 c1.3,0.3,2.7,0.4,4.1,0.4c1.8,0.1,3.6-0.3,5.1-1.2c1.2-0.8,2-2.2,1.9-3.7c0-0.7-0.1-1.4-0.4-2.1c-0.3-0.5-0.7-1-1.1-1.4 c-0.5-0.4-1-0.7-1.6-1c-0.6-0.3-1.2-0.5-1.8-0.8L203.1,155.7z"></path> <path class="st5" d="M224.9,135.6c1.2-0.2,2.5-0.3,3.7-0.3c1.3,0,2.5,0.1,3.8,0.3v30.9h13c0.1,0.6,0.2,1.1,0.2,1.7 c0,0.5,0,1.1,0,1.5s0,1.1,0,1.6c0,0.6-0.1,1.1-0.2,1.7h-20.5V135.6z"></path> <path class="st5" d="M262,135.6h21.2c0.2,1,0.3,2.1,0.3,3.2c0,1.1-0.1,2.2-0.3,3.3h-13.6v8.1h10.8c0.2,1.1,0.3,2.1,0.3,3.2 c0,1.1-0.1,2.2-0.3,3.3h-10.8v9.9h14c0.2,1,0.3,2.1,0.3,3.2c0,1.1-0.1,2.2-0.3,3.3H262V135.6z"></path> <path class="st5" d="M289.6,135.6c1-0.2,2-0.3,3.1-0.3c1.1,0,2.2,0.1,3.2,0.3l14.5,23.8v-23.8c1.2-0.2,2.4-0.3,3.6-0.3 c1,0,2.1,0.1,3.1,0.3V173c-1,0.2-2,0.3-3,0.3c-1.1,0-2.1-0.1-3.2-0.3l-14.6-23.8V173c-1.1,0.2-2.2,0.3-3.4,0.3 c-1.1,0-2.2-0.1-3.3-0.3L289.6,135.6z"></path> <path class="st5" d="M349.1,165.9c0.4,1,0.8,2,1.1,3c0.3,1,0.5,2.1,0.7,3.1c-1.6,0.6-3.2,1-4.9,1.3c-1.5,0.2-3.1,0.3-4.7,0.3 c-2.7,0.1-5.3-0.4-7.8-1.4c-2.1-0.9-4.1-2.3-5.6-4c-1.5-1.8-2.7-3.9-3.4-6.1c-0.8-2.5-1.2-5.1-1.1-7.7c0-2.6,0.4-5.2,1.2-7.7 c0.7-2.3,1.9-4.4,3.5-6.2c1.5-1.8,3.4-3.1,5.6-4.1c2.4-1,4.9-1.5,7.5-1.5c1.5,0,3.1,0.1,4.6,0.3c1.6,0.3,3.1,0.7,4.6,1.3 c-0.1,1-0.3,2-0.6,3c-0.4,1-0.7,2-1.1,3c-1.1-0.4-2.1-0.7-3.2-0.9c-1.1-0.2-2.2-0.3-3.3-0.3c-3.3,0-5.9,1.1-7.7,3.2 s-2.7,5.4-2.7,9.6c0,8.5,3.6,12.7,10.8,12.7c1.1,0,2.3-0.1,3.4-0.3C347,166.6,348.1,166.3,349.1,165.9z"></path> <path class="st5" d="M356.9,135.6c1.5-0.2,3-0.3,4.3-0.4s2.8-0.2,4.5-0.2c1.9,0,3.8,0.2,5.6,0.5c1.8,0.3,3.5,0.9,5,1.9 c1.5,0.9,2.7,2.1,3.6,3.6c1,1.8,1.5,3.7,1.4,5.8c0,1.2-0.2,2.5-0.5,3.7c-0.6,1.8-1.6,3.5-3.1,4.8c-0.5,0.5-1.1,1-1.8,1.4 l-0.9,0.6l9.1,15.8l-2.2,0.2c-0.8,0.1-1.5,0.1-2.3,0.1c-1.3,0-2.6-0.1-3.9-0.3l-9.7-17.4l1.2-0.6c0.5-0.2,1.1-0.6,1.8-0.9 c0.7-0.4,1.4-0.9,2-1.4c0.7-0.6,1.2-1.3,1.6-2.1c1.2-2.6,0.8-5.6-1.2-7.7c-1.4-1.1-3.1-1.6-4.8-1.5c-0.7,0-1.4,0-2.1,0.1V173 c-0.6,0.1-1.2,0.1-1.9,0.2s-1.2,0.1-1.8,0.1s-1.2,0-1.9-0.1s-1.3-0.1-2-0.2L356.9,135.6z"></path> <path class="st5" d="M395.8,159.6l-11.7-24c1.4-0.2,2.9-0.3,4.4-0.3c1.3,0,2.7,0.1,4,0.3l7.4,17l7.3-17c1.3-0.2,2.6-0.3,4-0.3 c1.3,0,2.7,0.1,4,0.3l-11.6,24v13.4c-0.7,0.1-1.3,0.2-2,0.2c-0.6,0-1.2,0-1.9,0s-1.2,0-1.9,0s-1.3-0.1-2-0.2L395.8,159.6z"></path> <path class="st5" d="M419.3,135.4c1.6-0.1,3.2-0.2,4.8-0.3s3.3-0.1,5-0.1c1.8,0,3.5,0.2,5.3,0.5c1.7,0.3,3.4,1,4.8,1.9 c1.5,1,2.7,2.4,3.5,4c1,2.1,1.4,4.3,1.4,6.6c0.1,2.3-0.4,4.5-1.4,6.6c-0.8,1.6-2,3-3.5,4c-1.4,1-3.1,1.7-4.8,2 c-1.7,0.3-3.4,0.5-5.2,0.5c-0.5,0-0.9,0-1.3,0s-0.8,0-1.1-0.1v12c-0.6,0.1-1.3,0.2-1.9,0.2c-0.6,0-1.2,0.1-1.8,0.1 s-1.2,0-1.8-0.1s-1.3-0.1-2-0.2L419.3,135.4z M426.9,154.7c0.4,0.1,0.8,0.1,1.2,0.1h1.3c0.9,0,1.7-0.1,2.5-0.3 c0.8-0.2,1.6-0.6,2.2-1.1c0.7-0.6,1.2-1.3,1.5-2.1c0.4-1,0.6-2.1,0.6-3.1c0-1.1-0.2-2.2-0.6-3.3c-0.7-1.6-2-2.8-3.7-3.3 c-0.8-0.2-1.7-0.3-2.5-0.3h-1.1l-1.4,0.1V154.7z"></path> <path class="st5" d="M456.9,142.1h-9.3c-0.2-1.1-0.3-2.2-0.3-3.3c0-1.1,0.1-2.1,0.3-3.2h26.3c0.2,1,0.3,2.1,0.3,3.2 c0,1.1-0.1,2.2-0.3,3.3h-9.3v31c-0.6,0.1-1.2,0.1-1.9,0.2s-1.2,0.1-1.8,0.1s-1.2,0-1.9-0.1s-1.4-0.1-2-0.2V142.1z"></path> <path class="st5" d="M479.1,135.6c1.3-0.2,2.5-0.3,3.8-0.3c1.3,0,2.6,0.1,3.9,0.3V173c-2.5,0.4-5.1,0.4-7.6,0V135.6z"></path> <path class="st5" d="M509.3,173.6c-2.5,0.1-5-0.4-7.3-1.5c-2-0.9-3.7-2.3-5-4c-1.4-1.8-2.4-3.9-2.9-6.1c-0.7-2.5-1-5.1-1-7.7 c0-2.6,0.3-5.2,1-7.7c0.6-2.2,1.6-4.3,2.9-6.2c1.3-1.7,3-3.1,5-4.1c4.7-1.9,9.9-1.9,14.6,0c2,0.9,3.7,2.3,5,4.1 c1.4,1.8,2.4,3.9,2.9,6.2c0.7,2.5,1,5.1,1,7.7c0,2.6-0.3,5.2-1,7.7c-0.6,2.2-1.6,4.3-2.9,6.1c-1.3,1.7-3,3.1-5,4 C514.3,173.2,511.8,173.7,509.3,173.6z M509.3,167.3c5.4,0,8.1-4.3,8.1-12.9c0-4.3-0.7-7.5-2-9.7c-1.3-2.1-3.6-3.4-6.1-3.2 c-5.4,0-8.2,4.3-8.2,12.9C501.1,163,503.9,167.3,509.3,167.3z"></path> <path class="st5" d="M531.8,135.6c1-0.2,2-0.3,3.1-0.3c1.1,0,2.2,0.1,3.2,0.3l14.5,23.8v-23.8c1.2-0.2,2.4-0.3,3.6-0.3 c1,0,2.1,0.1,3.1,0.3V173c-1,0.2-2,0.3-3,0.3c-1.1,0-2.1-0.1-3.2-0.3l-14.6-23.8V173c-1.1,0.2-2.2,0.3-3.4,0.3 c-1.1,0-2.2-0.1-3.3-0.3L531.8,135.6z"></path> </g> </g> </g> </svg> 