<?xml version="1.0" encoding="UTF-8"?> <!-- Generator: Adobe Illustrator 24.1.2, SVG Export Plug-In . SVG Version: 6.00 Build 0) --> <svg xmlns="http://www.w3.org/2000/svg" xmlns:xlink="http://www.w3.org/1999/xlink" id="Layer_1" x="0px" y="0px" viewBox="0 0 237.6 125.6" style="enable-background:new 0 0 237.6 125.6;" xml:space="preserve"> <style type="text/css"> .st0{fill:#FFFFFF;} </style> <path class="st0" d="M148.3,33.3l7.9-4.5v39.9l-17.6,10l-17.6,9.9l-17.5-9.9L86,68.7v-40l35.2-19.9l27.1,15.4l-8.1,4.6l-19.1-10.8 L94,33.3l0,23.9l0.1,6.9l27.1,15.3L148.2,64l0.1-6.9V42.7L133.6,51v-9.1l10.1-5.8L148.3,33.3z M99.9,37.7v23.1l21.2,12l21.2-12V48.4 l-8.7,4.9v2.3l-12.5,7.1l-12.5-7.1v-13L99.9,37.7z M9.7,113.8l-3.5-10.5H2.2l5.6,14.8h3.8l5.9-14.8h-3.8L9.7,113.8z M18.8,118.1 h10.5v-3.3h-6.8v-2.5H28v-3.1h-5.5v-2.5h6.8v-3.3H18.8V118.1z M41,112.9l2.6,5.1h-4.2l-2.1-4.5h-2.1v4.5h-3.7v-14.8h7 c3.3,0,5,2.3,5,5C43.6,110.5,42.5,112.1,41,112.9z M39.8,108.4c0-0.8-0.6-1.8-2-1.8h-2.4v3.8h2.4C39.2,110.4,39.8,109.4,39.8,108.4z M51,109.8h-0.1l-3.3-6.5h-4.2l5.6,9.9v4.9h3.7v-4.9l6-9.9h-3.8L51,109.8z M71.6,112.8h2.3v2.3c-0.5,0-0.9,0.1-1.4,0.1 c-3,0-4.7-1.5-4.7-4.5c0-2.9,1.7-4.3,4.6-4.3c1.9,0,3.5,0.3,4.8,1.1l0.3-3.3c-0.9-0.6-2.9-1.1-5.1-1.1c-5.2,0-8.3,3.4-8.3,7.7 c0,5.1,3.8,7.6,8.3,7.6c2.4,0,4-0.5,5.2-1.1v-7.6h-5.9V112.8z M94.4,110.6c0,5.2-3.5,7.8-7.6,7.8c-4.1,0-7.6-2.6-7.6-7.7 c0-4.8,3.1-7.6,7.6-7.6C91.2,103,94.4,105.6,94.4,110.6z M90.6,110.5c0-3-1.6-4.4-3.8-4.4c-2.1,0-3.8,1.4-3.8,4.5 c0,3.1,1.6,4.6,3.8,4.6C89,115.3,90.6,113.8,90.6,110.5z M110.9,110.6c0,5.2-3.5,7.8-7.6,7.8c-4.1,0-7.6-2.6-7.6-7.7 c0-4.8,3.1-7.6,7.6-7.6C107.7,103,110.9,105.6,110.9,110.6z M107.1,110.5c0-3-1.6-4.4-3.8-4.4c-2.1,0-3.8,1.4-3.8,4.5 c0,3.1,1.6,4.6,3.8,4.6C105.4,115.3,107.1,113.8,107.1,110.5z M126.1,110.7c0,4.1-3.5,7.4-7.5,7.4H113v-14.8h5.6 C122.7,103.3,126.1,106.3,126.1,110.7z M122.5,110.7c0-2-1.3-4.1-3.9-4.1h-1.9v8.1h1.9C121.2,114.8,122.5,112.6,122.5,110.7z M136.3,107.4c0-0.8,0.8-1.2,1.9-1.2c1.4,0,3.3,0.4,4.5,1.1l0.7-3.1c-1.2-0.7-3.2-1.1-5.1-1.1c-3.2,0-5.7,1.7-5.7,4.8 c0,5.2,7.6,3.9,7.6,6.2c0,0.7-0.4,1.3-2,1.3c-1.9,0-3.5-0.4-5.1-1.2l-0.1,3.4c1.5,0.7,3.4,0.9,5.1,0.9c3.9,0,5.8-2.3,5.8-5 C143.9,108.4,136.3,109.8,136.3,107.4z M146,118.1h10.5v-3.3h-6.8v-2.5h5.5v-3.1h-5.5v-2.5h6.8v-3.3H146V118.1z M166.1,106.3 c1.1,0,2,0.1,3.3,0.5l0.4-3.4c-1.1-0.4-2.5-0.4-3.8-0.4c-4.8,0-8,3.5-8,7.7c0,4.1,3.1,7.7,7.7,7.7c1.7,0,2.7-0.1,3.8-0.5v-3.4 c-1.1,0.4-1.6,0.5-3.3,0.5c-2.6,0-4.4-1.6-4.4-4.3C161.8,107.9,163.4,106.3,166.1,106.3z M181.6,111c0,2.1-1.2,3.9-3.3,3.9 c-2.1,0-3.3-1.3-3.3-3.9v-7.7h-3.7v7.7c0,5,2.9,7.4,7,7.4c4.1,0,7-3.3,7-7.4v-7.7h-3.7V111z M197.5,112.9l2.6,5.1H196l-2.1-4.5h-2.1 v4.5h-3.7v-14.8h7c3.3,0,5,2.3,5,5C200.1,110.5,199,112.1,197.5,112.9z M196.3,108.4c0-0.8-0.6-1.8-2-1.8h-2.4v3.8h2.4 C195.7,110.4,196.3,109.4,196.3,108.4z M202.7,118.1h3.7v-14.8h-3.7V118.1z M232.1,103.3l-3.8,6.5h-0.1l-3.3-6.5h-3.9h-0.3H208v3.3 h4.6v11.5h3.7v-11.5h4.6v-2.9l5.4,9.4v4.9h3.7v-4.9l6-9.9H232.1z"></path> </svg> 