<?xml version="1.0" encoding="UTF-8"?>
<svg width="94px" height="42px" viewBox="0 0 94 42" version="1.1" xmlns="http://www.w3.org/2000/svg" xmlns:xlink="http://www.w3.org/1999/xlink">
    <title>Group 2</title>
    <g id="Page-1" stroke="none" stroke-width="1" fill="none" fill-rule="evenodd">
        <g id="Group-2" transform="translate(-0.000000, 0.000000)">
            <g id="arrow-right" fill-rule="nonzero">
                <g id="Group-3">
                    <circle id="Oval" fill="#222222" cx="21" cy="21" r="21"></circle>
                    <g id="doot-arrow" transform="translate(56.990039, 5.029937)">
                        <g id="next" transform="translate(0.000000, 0.000000)">
                            <g id="Group" transform="translate(0.000000, 0.000000)" fill="#009688">
                                <path d="M35.2099606,15.7100629 L35.2099606,15.7100629 C34.8886513,15.7060208 34.5969085,15.8970006 34.4720742,16.1930959 C34.3472399,16.4891912 34.4141908,16.8313968 34.6414087,17.0586148 C34.8686267,17.2858328 35.2108324,17.3527836 35.5069276,17.2279493 C35.8030229,17.103115 35.9940027,16.8113723 35.9899606,16.4900629 C35.9899606,16.0592808 35.6407427,15.7100629 35.2099606,15.7100629 L35.2099606,15.7100629 Z" id="Path"></path>
                                <path d="M32.0899606,15.7100629 L32.0899606,15.7100629 C31.7686513,15.7060208 31.4769085,15.8970006 31.3520742,16.1930959 C31.2272399,16.4891912 31.2941908,16.8313968 31.5214087,17.0586148 C31.7486267,17.2858328 32.0908324,17.3527836 32.3869276,17.2279493 C32.6830229,17.103115 32.8740027,16.8113723 32.8699606,16.4900629 C32.8699606,16.0592808 32.5207427,15.7100629 32.0899606,15.7100629 L32.0899606,15.7100629 Z" id="Path-2"></path>
                                <path d="M28.9599606,15.7100629 L28.9599606,15.7100629 C28.6386513,15.7060208 28.3469085,15.8970006 28.2220742,16.1930959 C28.0972399,16.4891912 28.1641908,16.8313968 28.3914087,17.0586148 C28.6186267,17.2858328 28.9608324,17.3527836 29.2569276,17.2279493 C29.5530229,17.103115 29.7440027,16.8113723 29.7399606,16.4900629 C29.7400235,16.2796818 29.6551117,16.0781935 29.5044787,15.9313264 C29.3538458,15.7844592 29.1502726,15.7046685 28.9399606,15.7100629 L28.9599606,15.7100629 Z" id="Path-3"></path>
                                <path d="M25.8299606,15.7100629 L25.8299606,15.7100629 C25.4305374,15.7552162 25.1287018,16.0930957 25.1287018,16.4950629 C25.1287018,16.8970302 25.4305374,17.2349097 25.8299606,17.2800629 C26.1315697,17.3141587 26.4260429,17.1724369 26.5875623,16.9154504 C26.7490816,16.6584639 26.7490816,16.3316619 26.5875623,16.0746754 C26.4260429,15.8176889 26.1315697,15.6759672 25.8299606,15.7100629 L25.8299606,15.7100629 Z" id="Path-4"></path>
                                <path d="M22.7399606,15.7100629 L22.7399606,15.7100629 C22.4195309,15.7100886 22.1308558,15.9036659 22.0091879,16.2000982 C21.8875201,16.4965305 21.9569623,16.8370937 22.1849788,17.0622239 C22.4129954,17.2873542 22.7544155,17.3524525 23.0492739,17.2270185 C23.3441323,17.1015845 23.5340167,16.8104669 23.5299606,16.4900629 C23.5299777,16.2814497 23.4464281,16.081523 23.2979798,15.9349538 C23.1495314,15.7883845 22.9485566,15.7073884 22.7399606,15.7100629 L22.7399606,15.7100629 Z" id="Path-5"></path>
                                <path d="M19.5699606,15.7100629 L19.5699606,15.7100629 C19.2486513,15.7060208 18.9569085,15.8970006 18.8320742,16.1930959 C18.7072399,16.4891912 18.7741908,16.8313968 19.0014087,17.0586148 C19.2286267,17.2858328 19.5708324,17.3527836 19.8669276,17.2279493 C20.1630229,17.103115 20.3540027,16.8113723 20.3499606,16.4900629 C20.3499606,16.0592808 20.0007427,15.7100629 19.5699606,15.7100629 L19.5699606,15.7100629 Z" id="Path-6"></path>
                                <path d="M16.4399606,15.7100629 L16.4399606,15.7100629 C16.1186513,15.7060208 15.8269085,15.8970006 15.7020742,16.1930959 C15.5772399,16.4891912 15.6441908,16.8313968 15.8714087,17.0586148 C16.0986267,17.2858328 16.4408324,17.3527836 16.7369276,17.2279493 C17.0330229,17.103115 17.2240027,16.8113723 17.2199606,16.4900629 C17.2199606,16.0592808 16.8707427,15.7100629 16.4399606,15.7100629 L16.4399606,15.7100629 Z" id="Path-7"></path>
                                <path d="M32.0899606,12.5400629 L32.0899606,12.5400629 C31.6575659,12.5455367 31.3099259,12.8976336 31.3099606,13.3300629 C31.3099606,13.760845 31.6591785,14.1100629 32.0899606,14.1100629 C32.5207427,14.1100629 32.8699606,13.760845 32.8699606,13.3300629 C32.8699952,12.8976336 32.5223553,12.5455367 32.0899606,12.5400629 L32.0899606,12.5400629 Z" id="Path-8"></path>
                                <path d="M28.9599606,12.5400629 L28.9599606,12.5400629 C28.5275659,12.5455367 28.1799259,12.8976336 28.1799606,13.3300629 C28.1799606,13.760845 28.5291785,14.1100629 28.9599606,14.1100629 C29.3907427,14.1100629 29.7399606,13.760845 29.7399606,13.3300629 C29.7399952,12.8976336 29.3923553,12.5455367 28.9599606,12.5400629 L28.9599606,12.5400629 Z" id="Path-9"></path>
                                <path d="M25.8299606,12.5400629 L25.8299606,12.5400629 C25.3975659,12.5455367 25.0499259,12.8976336 25.0499606,13.3300629 C25.0499606,13.5369318 25.1321389,13.7353278 25.2784173,13.8816062 C25.4246957,14.0278846 25.6230917,14.1100629 25.8299606,14.1100629 C26.2623899,14.1100976 26.6144868,13.7624576 26.6199606,13.3300629 C26.614568,12.8960113 26.2640122,12.5454555 25.8299606,12.5400629 L25.8299606,12.5400629 Z" id="Path-10"></path>
                                <path d="M22.7399606,12.5400629 L22.7399606,12.5400629 C22.3075659,12.5455367 21.9599259,12.8976336 21.9599606,13.3300629 C22.0051138,13.7294861 22.3429933,14.0313217 22.7449606,14.0313217 C23.1469279,14.0313217 23.4848074,13.7294861 23.5299606,13.3300629 C23.5299606,12.893758 23.1762655,12.5400629 22.7399606,12.5400629 L22.7399606,12.5400629 Z" id="Path-11"></path>
                                <path d="M19.5699606,12.5400629 L19.5699606,12.5400629 C19.1336556,12.5400629 18.7799606,12.893758 18.7799606,13.3300629 C18.7799606,13.7663679 19.1336556,14.1200629 19.5699606,14.1200629 C20.0062655,14.1200629 20.3599606,13.7663679 20.3599606,13.3300629 C20.3599606,12.893758 20.0062655,12.5400629 19.5699606,12.5400629 L19.5699606,12.5400629 Z" id="Path-12"></path>
                                <path d="M28.9599606,9.41006293 L28.9599606,9.41006293 C28.6386513,9.40602083 28.3469085,9.5970006 28.2220742,9.89309588 C28.0972399,10.1891912 28.1641908,10.5313968 28.3914087,10.7586148 C28.6186267,10.9858328 28.9608324,11.0527836 29.2569276,10.9279493 C29.5530229,10.803115 29.7440027,10.5113723 29.7399606,10.1900629 C29.7399606,9.75928083 29.3907427,9.41006293 28.9599606,9.41006293 L28.9599606,9.41006293 Z" id="Path-13"></path>
                                <path d="M25.8299606,9.41006293 L25.8299606,9.41006293 C25.4305374,9.45521617 25.1287018,9.79309567 25.1287018,10.1950629 C25.1287018,10.5970302 25.4305374,10.9349097 25.8299606,10.9800629 C26.1315697,11.0141587 26.4260429,10.8724369 26.5875623,10.6154504 C26.7490816,10.3584639 26.7490816,10.0316619 26.5875623,9.77467544 C26.4260429,9.51768894 26.1315697,9.3759672 25.8299606,9.41006293 L25.8299606,9.41006293 Z" id="Path-14"></path>
                                <path d="M22.7399606,9.41006293 L22.7399606,9.41006293 C22.4195309,9.41008861 22.1308558,9.6036659 22.0091879,9.9000982 C21.8875201,10.1965305 21.9569623,10.5370937 22.1849788,10.7622239 C22.4129954,10.9873542 22.7544155,11.0524525 23.0492739,10.9270185 C23.3441323,10.8015845 23.5340167,10.5104669 23.5299606,10.1900629 C23.5299777,9.98144975 23.4464281,9.78152305 23.2979798,9.63495378 C23.1495314,9.48838452 22.9485566,9.40738841 22.7399606,9.41006293 L22.7399606,9.41006293 Z" id="Path-15"></path>
                                <path d="M19.5699606,9.41006293 L19.5699606,9.41006293 C19.2486513,9.40602083 18.9569085,9.5970006 18.8320742,9.89309588 C18.7072399,10.1891912 18.7741908,10.5313968 19.0014087,10.7586148 C19.2286267,10.9858328 19.5708324,11.0527836 19.8669276,10.9279493 C20.1630229,10.803115 20.3540027,10.5113723 20.3499606,10.1900629 C20.3499606,9.75928083 20.0007427,9.41006293 19.5699606,9.41006293 L19.5699606,9.41006293 Z" id="Path-16"></path>
                                <path d="M25.8299606,6.27006293 L25.8299606,6.27006293 C25.3936556,6.27006293 25.0399606,6.62375798 25.0399606,7.06006293 C25.0399606,7.49636789 25.3936556,7.85006293 25.8299606,7.85006293 C26.2662655,7.85006293 26.6199606,7.49636789 26.6199606,7.06006293 C26.6199606,6.85054191 26.5367287,6.64960232 26.3885749,6.50144858 C26.2404212,6.35329484 26.0394816,6.27006293 25.8299606,6.27006293 L25.8299606,6.27006293 Z" id="Path-17"></path>
                                <path d="M22.7399606,6.27006293 L22.7399606,6.27006293 C22.3036556,6.27006293 21.9499606,6.62375798 21.9499606,7.06006293 C21.9499606,7.49636789 22.3036556,7.85006293 22.7399606,7.85006293 C23.1762655,7.85006293 23.5299606,7.49636789 23.5299606,7.06006293 C23.532675,6.84972151 23.450315,6.64720093 23.3015688,6.4984547 C23.1528226,6.34970848 22.950302,6.26734851 22.7399606,6.27006293 L22.7399606,6.27006293 Z" id="Path-18"></path>
                                <path d="M19.5699606,6.27006293 L19.5699606,6.27006293 C19.2495566,6.26600686 18.958439,6.45589121 18.833005,6.75074962 C18.707571,7.04560802 18.7726693,7.38702815 18.9977996,7.61504469 C19.2229298,7.84306122 19.563493,7.91250342 19.8599253,7.79083557 C20.1563576,7.66916773 20.3499349,7.3804926 20.3499606,7.06006293 C20.3499952,6.62763358 20.0023553,6.27553672 19.5699606,6.27006293 L19.5699606,6.27006293 Z" id="Path-19"></path>
                                <path d="M22.7399606,3.14006293 L22.7399606,3.14006293 C22.3105233,3.14556899 21.9663299,3.49718726 21.9699889,3.92664423 C21.9736479,4.3561012 22.3237825,4.70180375 22.7532513,4.69999898 C23.18272,4.69818002 23.5299253,4.34953549 23.5299606,3.92006293 C23.5299777,3.71144975 23.4464281,3.51152305 23.2979798,3.36495378 C23.1495314,3.21838452 22.9485566,3.13738841 22.7399606,3.14006293 L22.7399606,3.14006293 Z" id="Path-20"></path>
                                <path d="M19.5699606,3.14006293 L19.5699606,3.14006293 C19.25448,3.14006293 18.9700637,3.33010383 18.8493346,3.62156986 C18.7286054,3.91303588 18.7953389,4.24852779 19.0184173,4.47160622 C19.2414957,4.69468466 19.5769876,4.76141815 19.8684537,4.64068897 C20.1599197,4.51995979 20.3499606,4.23554349 20.3499606,3.92006293 C20.3499606,3.48928083 20.0007427,3.14006293 19.5699606,3.14006293 L19.5699606,3.14006293 Z" id="Path-21"></path>
                                <path d="M19.5699606,6.29341718e-05 L19.5699606,6.29341718e-05 C19.2486513,-0.00397917017 18.9569085,0.187000603 18.8320742,0.483095883 C18.7072399,0.779191163 18.7741908,1.12139681 19.0014087,1.34861479 C19.2286267,1.57583276 19.5708324,1.64278362 19.8669276,1.51794933 C20.1630229,1.39311503 20.3540027,1.10137225 20.3499606,0.780062934 C20.3499606,0.349280829 20.0007427,6.29341718e-05 19.5699606,6.29341718e-05 L19.5699606,6.29341718e-05 Z" id="Path-22"></path>
                                <path d="M32.0899606,18.8200629 L32.0899606,18.8200629 C31.6591785,18.8200629 31.3099606,19.1692808 31.3099606,19.6000629 C31.3099606,20.030845 31.6591785,20.3800629 32.0899606,20.3800629 C32.5207427,20.3800629 32.8699606,20.030845 32.8699606,19.6000629 C32.8699606,19.1692808 32.5207427,18.8200629 32.0899606,18.8200629 Z" id="Path-23"></path>
                                <path d="M28.9599606,18.8200629 L28.9599606,18.8200629 C28.5291785,18.8200629 28.1799606,19.1692808 28.1799606,19.6000629 C28.1799606,20.030845 28.5291785,20.3800629 28.9599606,20.3800629 C29.3907427,20.3800629 29.7399606,20.030845 29.7399606,19.6000629 C29.7399606,19.1692808 29.3907427,18.8200629 28.9599606,18.8200629 L28.9599606,18.8200629 Z" id="Path-24"></path>
                                <path d="M25.8299606,18.8200629 L25.8299606,18.8200629 C25.5512934,18.8200629 25.2937943,18.9687301 25.1544607,19.2100629 C25.0151271,19.4513958 25.0151271,19.7487301 25.1544607,19.9900629 C25.2937943,20.2313958 25.5512934,20.3800629 25.8299606,20.3800629 C26.2607427,20.3800629 26.6099606,20.030845 26.6099606,19.6000629 C26.6099606,19.1692808 26.2607427,18.8200629 25.8299606,18.8200629 L25.8299606,18.8200629 Z" id="Path-25"></path>
                                <path d="M22.7399606,18.8200629 L22.7399606,18.8200629 C22.3105233,18.825569 21.9663299,19.1771873 21.9699889,19.6066442 C21.9736479,20.0361012 22.3237825,20.3818038 22.7532513,20.379999 C23.18272,20.37818 23.5299253,20.0295355 23.5299606,19.6000629 C23.5299777,19.3914497 23.4464281,19.191523 23.2979798,19.0449538 C23.1495314,18.8983845 22.9485566,18.8173884 22.7399606,18.8200629 Z" id="Path-26"></path>
                                <path d="M19.5699606,18.8200629 L19.5699606,18.8200629 C19.1391785,18.8200629 18.7899606,19.1692808 18.7899606,19.6000629 C18.7899606,20.030845 19.1391785,20.3800629 19.5699606,20.3800629 C20.0007427,20.3800629 20.3499606,20.030845 20.3499606,19.6000629 C20.3499606,19.1692808 20.0007427,18.8200629 19.5699606,18.8200629 Z" id="Path-27"></path>
                                <path d="M28.9599606,21.9500629 L28.9599606,21.9500629 C28.6368711,21.9462051 28.343999,22.1394869 28.2205054,22.4380686 C28.0970118,22.7366503 28.1677924,23.0803392 28.3992151,23.305828 C28.6306379,23.5313168 28.976049,23.5931481 29.2713229,23.4619421 C29.5665968,23.3307361 29.7522077,23.0329433 29.7399606,22.7100629 C29.7426351,22.5014669 29.661639,22.3004921 29.5150697,22.1520438 C29.3685005,22.0035954 29.1685738,21.9200458 28.9599606,21.9200629 L28.9599606,21.9500629 Z" id="Path-28"></path>
                                <path d="M25.8299606,21.9500629 L25.8299606,21.9500629 C25.3936556,21.9500629 25.0399606,22.303758 25.0399606,22.7400629 C25.0399606,23.1763679 25.3936556,23.5300629 25.8299606,23.5300629 C26.2662655,23.5300629 26.6199606,23.1763679 26.6199606,22.7400629 C26.6199606,22.303758 26.2662655,21.9500629 25.8299606,21.9500629 L25.8299606,21.9500629 Z" id="Path-29"></path>
                                <path d="M22.7399606,21.9500629 L22.7399606,21.9500629 C22.3036556,21.9500629 21.9499606,22.303758 21.9499606,22.7400629 C21.9499606,23.1763679 22.3036556,23.5300629 22.7399606,23.5300629 C23.1762655,23.5300629 23.5299606,23.1763679 23.5299606,22.7400629 C23.532675,22.5297215 23.450315,22.3272009 23.3015688,22.1784547 C23.1528226,22.0297085 22.950302,21.9473485 22.7399606,21.9500629 L22.7399606,21.9500629 Z" id="Path-30"></path>
                                <path d="M19.5699606,21.9500629 L19.5699606,21.9500629 C19.2495566,21.9460069 18.958439,22.1358912 18.833005,22.4307496 C18.707571,22.725608 18.7726693,23.0670281 18.9977996,23.2950447 C19.2229298,23.5230612 19.563493,23.5925034 19.8599253,23.4708356 C20.1563576,23.3491677 20.3499349,23.0604926 20.3499606,22.7400629 C20.3499952,22.3076336 20.0023553,21.9555367 19.5699606,21.9500629 L19.5699606,21.9500629 Z" id="Path-31"></path>
                                <path d="M25.8299606,25.0900629 L25.8299606,25.0900629 C25.6230917,25.0900629 25.4246957,25.1722413 25.2784173,25.3185196 C25.1321389,25.464798 25.0499606,25.6631941 25.0499606,25.8700629 C25.0499259,26.3024923 25.3975659,26.6545891 25.8299606,26.6600629 C26.2640122,26.6546704 26.614568,26.3041146 26.6199606,25.8700629 C26.6144868,25.4376682 26.2623899,25.0900283 25.8299606,25.0900629 L25.8299606,25.0900629 Z" id="Path-32"></path>
                                <path d="M22.7399606,25.0900629 L22.7399606,25.0900629 C22.5330917,25.0900629 22.3346957,25.1722413 22.1884173,25.3185196 C22.0421389,25.464798 21.9599606,25.6631941 21.9599606,25.8700629 C21.9559185,26.1913723 22.1468983,26.483115 22.4429935,26.6079493 C22.7390888,26.7327836 23.0812945,26.6658328 23.3085124,26.4386148 C23.5357304,26.2113968 23.6026813,25.8691912 23.477847,25.5730959 C23.3530127,25.2770006 23.0612699,25.0860208 22.7399606,25.0900629 L22.7399606,25.0900629 Z" id="Path-33"></path>
                                <path d="M19.5699606,25.0900629 L19.5699606,25.0900629 C19.3613645,25.0873884 19.1603898,25.1683845 19.0119414,25.3149538 C18.8634931,25.461523 18.7799434,25.6614497 18.7799606,25.8700629 C18.7458649,26.171672 18.8875866,26.4661453 19.1445731,26.6276646 C19.4015596,26.789184 19.7283616,26.789184 19.9853481,26.6276646 C20.2423346,26.4661453 20.3840563,26.171672 20.3499606,25.8700629 C20.3499606,25.6631941 20.2677823,25.464798 20.1215039,25.3185196 C19.9752255,25.1722413 19.7768295,25.0900629 19.5699606,25.0900629 L19.5699606,25.0900629 Z" id="Path-34"></path>
                                <path d="M22.7399606,28.2200629 L22.7399606,28.2200629 C22.3036556,28.2200629 21.9499606,28.573758 21.9499606,29.0100629 C21.9499606,29.4463679 22.3036556,29.8000629 22.7399606,29.8000629 C23.1762655,29.8000629 23.5299606,29.4463679 23.5299606,29.0100629 C23.532675,28.7997215 23.450315,28.5972009 23.3015688,28.4484547 C23.1528226,28.2997085 22.950302,28.2173485 22.7399606,28.2200629 L22.7399606,28.2200629 Z" id="Path-35"></path>
                                <path d="M19.5699606,28.2200629 L19.5699606,28.2200629 C19.2495566,28.2160069 18.958439,28.4058912 18.833005,28.7007496 C18.707571,28.995608 18.7726693,29.3370281 18.9977996,29.5650447 C19.2229298,29.7930612 19.563493,29.8625034 19.8599253,29.7408356 C20.1563576,29.6191677 20.3499349,29.3304926 20.3499606,29.0100629 C20.3499952,28.5776336 20.0023553,28.2255367 19.5699606,28.2200629 Z" id="Path-36"></path>
                                <path d="M19.5699606,31.3600629 L19.5699606,31.3600629 C19.2486513,31.3560208 18.9569085,31.5470006 18.8320742,31.8430959 C18.7072399,32.1391912 18.7741908,32.4813968 19.0014087,32.7086148 C19.2286267,32.9358328 19.5708324,33.0027836 19.8669276,32.8779493 C20.1630229,32.753115 20.3540027,32.4613723 20.3499606,32.1400629 C20.3499606,31.7092808 20.0007427,31.3600629 19.5699606,31.3600629 L19.5699606,31.3600629 Z" id="Path-37"></path>
                                <path d="M13.3199606,15.7100629 L13.3199606,15.7100629 C12.9986513,15.7060208 12.7069085,15.8970006 12.5820742,16.1930959 C12.4572399,16.4891912 12.5241908,16.8313968 12.7514087,17.0586148 C12.9786267,17.2858328 13.3208324,17.3527836 13.6169276,17.2279493 C13.9130229,17.103115 14.1040027,16.8113723 14.0999606,16.4900629 C14.0999606,16.0592808 13.7507427,15.7100629 13.3199606,15.7100629 L13.3199606,15.7100629 Z" id="Path-38"></path>
                                <path d="M10.1899606,15.7100629 L10.1899606,15.7100629 C9.86865127,15.7060208 9.57690849,15.8970006 9.4520742,16.1930959 C9.3272399,16.4891912 9.39419076,16.8313968 9.62140874,17.0586148 C9.84862671,17.2858328 10.1908324,17.3527836 10.4869276,17.2279493 C10.7830229,17.103115 10.9740027,16.8113723 10.9699606,16.4900629 C10.9699606,16.0592808 10.6207427,15.7100629 10.1899606,15.7100629 L10.1899606,15.7100629 Z" id="Path-39"></path>
                                <path d="M7.05996059,15.7100629 L7.05996059,15.7100629 C6.73953092,15.7100886 6.4508558,15.9036659 6.32918795,16.2000982 C6.2075201,16.4965305 6.2769623,16.8370937 6.50497884,17.0622239 C6.73299538,17.2873542 7.0744155,17.3524525 7.36927391,17.2270185 C7.66413231,17.1015845 7.85401666,16.8104669 7.84996059,16.4900629 C7.85011758,16.2778898 7.76383398,16.0748082 7.61100132,15.927636 C7.45816866,15.7804638 7.25197682,15.7019024 7.03996059,15.7100629 L7.05996059,15.7100629 Z" id="Path-40"></path>
                                <path d="M3.92996059,15.7100629 L3.92996059,15.7100629 C3.60953092,15.7100886 3.3208558,15.9036659 3.19918795,16.2000982 C3.0775201,16.4965305 3.1469623,16.8370937 3.37497884,17.0622239 C3.60299538,17.2873542 3.9444155,17.3524525 4.23927391,17.2270185 C4.53413231,17.1015845 4.72401666,16.8104669 4.71996059,16.4900629 C4.71997773,16.2814497 4.63642811,16.081523 4.48797975,15.9349538 C4.3395314,15.7883845 4.13855663,15.7073884 3.92996059,15.7100629 L3.92996059,15.7100629 Z" id="Path-41"></path>
                                <path d="M0.79996059,15.7100629 L0.79996059,15.7100629 C0.478651272,15.7060208 0.186908491,15.8970006 0.0620741959,16.1930959 C-0.0627600993,16.4891912 0.00419076267,16.8313968 0.231408738,17.0586148 C0.458626712,17.2858328 0.800832361,17.3527836 1.09692764,17.2279493 C1.39302292,17.103115 1.58400269,16.8113723 1.57996059,16.4900629 C1.57996059,16.0592808 1.23074269,15.7100629 0.79996059,15.7100629 L0.79996059,15.7100629 Z" id="Path-42"></path>
                                <path d="M16.4399606,18.8200629 L16.4399606,18.8200629 C16.0091785,18.8200629 15.6599606,19.1692808 15.6599606,19.6000629 C15.6599606,20.030845 16.0091785,20.3800629 16.4399606,20.3800629 C16.8707427,20.3800629 17.2199606,20.030845 17.2199606,19.6000629 C17.2199606,19.1692808 16.8707427,18.8200629 16.4399606,18.8200629 Z" id="Path-43"></path>
                                <path d="M13.3199606,18.8200629 L13.3199606,18.8200629 C12.8891785,18.8200629 12.5399606,19.1692808 12.5399606,19.6000629 C12.5399606,20.030845 12.8891785,20.3800629 13.3199606,20.3800629 C13.7507427,20.3800629 14.0999606,20.030845 14.0999606,19.6000629 C14.0999606,19.1692808 13.7507427,18.8200629 13.3199606,18.8200629 Z" id="Path-44"></path>
                                <path d="M10.1899606,18.8200629 L10.1899606,18.8200629 C9.75917848,18.8200629 9.40996059,19.1692808 9.40996059,19.6000629 C9.40996059,20.030845 9.75917848,20.3800629 10.1899606,20.3800629 C10.6207427,20.3800629 10.9699606,20.030845 10.9699606,19.6000629 C10.9699606,19.1692808 10.6207427,18.8200629 10.1899606,18.8200629 Z" id="Path-45"></path>
                                <path d="M7.05996059,18.8200629 L7.05996059,18.8200629 C6.63052333,18.825569 6.2863299,19.1771873 6.2899889,19.6066442 C6.2936479,20.0361012 6.64378253,20.3818038 7.07325127,20.379999 C7.50272001,20.37818 7.84992529,20.0295355 7.84996059,19.6000629 C7.84997773,19.3914497 7.76642811,19.191523 7.61797975,19.0449538 C7.4695314,18.8983845 7.26855663,18.8173884 7.05996059,18.8200629 Z" id="Path-46"></path>
                                <path d="M3.92996059,18.8200629 L3.92996059,18.8200629 C3.50052333,18.825569 3.1563299,19.1771873 3.1599889,19.6066442 C3.1636479,20.0361012 3.51378253,20.3818038 3.94325127,20.379999 C4.37272001,20.37818 4.71992529,20.0295355 4.71996059,19.6000629 C4.71997773,19.3914497 4.63642811,19.191523 4.48797975,19.0449538 C4.3395314,18.8983845 4.13855663,18.8173884 3.92996059,18.8200629 L3.92996059,18.8200629 Z" id="Path-47"></path>
                                <path d="M0.79996059,18.8200629 L0.79996059,18.8200629 C0.369178485,18.8200629 0.0199605898,19.1692808 0.0199605898,19.6000629 C0.0199605898,20.030845 0.369178485,20.3800629 0.79996059,20.3800629 C1.23074269,20.3800629 1.57996059,20.030845 1.57996059,19.6000629 C1.57996059,19.1692808 1.23074269,18.8200629 0.79996059,18.8200629 Z" id="Path-48"></path>
                                <path d="M16.4399606,12.5400629 L16.4399606,12.5400629 C16.0075659,12.5455367 15.6599259,12.8976336 15.6599606,13.3300629 C15.6599606,13.760845 16.0091785,14.1100629 16.4399606,14.1100629 C16.8707427,14.1100629 17.2199606,13.760845 17.2199606,13.3300629 C17.2199952,12.8976336 16.8723553,12.5455367 16.4399606,12.5400629 L16.4399606,12.5400629 Z" id="Path-49"></path>
                                <path d="M13.3199606,12.5400629 L13.3199606,12.5400629 C12.8875659,12.5455367 12.5399259,12.8976336 12.5399606,13.3300629 C12.5455742,13.7568654 12.8932028,14.0998863 13.3200422,14.0998047 C13.7468816,14.0997231 14.0943791,13.7565694 14.0998295,13.3297648 C14.10528,12.9029601 13.7666587,12.5510444 13.3399606,12.5400629 L13.3199606,12.5400629 Z" id="Path-50"></path>
                                <path d="M10.1899606,12.5400629 L10.1899606,12.5400629 C9.75756588,12.5455367 9.40992594,12.8976336 9.40996059,13.3300629 C9.41557418,13.7568654 9.76320281,14.0998863 10.1900422,14.0998047 C10.6168816,14.0997231 10.9643791,13.7565694 10.9698295,13.3297648 C10.97528,12.9029601 10.6366587,12.5510444 10.2099606,12.5400629 L10.1899606,12.5400629 Z" id="Path-51"></path>
                                <path d="M7.05996059,12.5400629 L7.05996059,12.5400629 C6.62756588,12.5455367 6.27992594,12.8976336 6.27996059,13.3300629 C6.32511383,13.7294861 6.66299333,14.0313217 7.06496059,14.0313217 C7.46692785,14.0313217 7.80480735,13.7294861 7.84996059,13.3300629 C7.84996059,12.893758 7.49626554,12.5400629 7.05996059,12.5400629 L7.05996059,12.5400629 Z" id="Path-52"></path>
                                <path d="M3.92996059,12.5400629 L3.92996059,12.5400629 C3.53053742,12.5852162 3.22870179,12.9230957 3.22870179,13.3250629 C3.22870179,13.7270302 3.53053742,14.0649097 3.92996059,14.1100629 C4.32938376,14.0649097 4.63121939,13.7270302 4.63121939,13.3250629 C4.63121939,12.9230957 4.32938376,12.5852162 3.92996059,12.5400629 L3.92996059,12.5400629 Z" id="Path-53"></path>
                                <path d="M0.79996059,12.5400629 L0.79996059,12.5400629 C0.367565876,12.5455367 0.0199259442,12.8976336 0.0199605898,13.3300629 C0.025485519,13.7581912 0.375090715,14.1018325 0.803250712,14.0999981 C1.23141071,14.0981491 1.57804675,13.7515131 1.5798958,13.3233531 C1.58173012,12.8951931 1.2380889,12.5455879 0.80996059,12.5400629 L0.79996059,12.5400629 Z" id="Path-54"></path>
                            </g>
                            <path d="M35.2099606,17.2500629 C34.8105374,17.2049097 34.5087018,16.8670302 34.5087018,16.4650629 C34.5087018,16.0630957 34.8105374,15.7252162 35.2099606,15.6800629 L35.2099606,15.6800629 C35.5115697,15.6459672 35.8060429,15.7876889 35.9675623,16.0446754 C36.1290816,16.3016619 36.1290816,16.6284639 35.9675623,16.8854504 C35.8060429,17.1424369 35.5115697,17.2841587 35.2099606,17.2500629 L35.2099606,17.2500629 Z" id="Path-55" fill="#000000"></path>
                            <path d="M32.0899606,17.2500629 C31.7883515,17.2841587 31.4938783,17.1424369 31.3323589,16.8854504 C31.1708396,16.6284639 31.1708396,16.3016619 31.3323589,16.0446754 C31.4938783,15.7876889 31.7883515,15.6459672 32.0899606,15.6800629 L32.0899606,15.6800629 C32.4893838,15.7252162 32.7912194,16.0630957 32.7912194,16.4650629 C32.7912194,16.8670302 32.4893838,17.2049097 32.0899606,17.2500629 L32.0899606,17.2500629 Z" id="Path-56" fill="#000000"></path>
                            <path d="M28.9599606,17.2500629 C28.6583515,17.2841587 28.3638783,17.1424369 28.2023589,16.8854504 C28.0408396,16.6284639 28.0408396,16.3016619 28.2023589,16.0446754 C28.3638783,15.7876889 28.6583515,15.6459672 28.9599606,15.6800629 L28.9599606,15.6800629 C29.3593838,15.7252162 29.6612194,16.0630957 29.6612194,16.4650629 C29.6612194,16.8670302 29.3593838,17.2049097 28.9599606,17.2500629 L28.9599606,17.2500629 Z" id="Path-57" fill="#000000"></path>
                            <path d="M25.8299606,17.2500629 C25.4305374,17.2049097 25.1287018,16.8670302 25.1287018,16.4650629 C25.1287018,16.0630957 25.4305374,15.7252162 25.8299606,15.6800629 L25.8299606,15.6800629 C26.2293838,15.7252162 26.5312194,16.0630957 26.5312194,16.4650629 C26.5312194,16.8670302 26.2293838,17.2049097 25.8299606,17.2500629 L25.8299606,17.2500629 Z" id="Path-58" fill="#000000"></path>
                            <path d="M22.7399606,17.2500629 C22.38103,17.1677255 22.1265958,16.8483164 22.1265958,16.4800629 C22.1265958,16.1118094 22.38103,15.7924003 22.7399606,15.7100629 L22.7399606,15.7100629 C23.1393838,15.7552162 23.4412194,16.0930957 23.4412194,16.4950629 C23.4412194,16.8970302 23.1393838,17.2349097 22.7399606,17.2800629 L22.7399606,17.2500629 Z" id="Path-59" fill="#000000"></path>
                            <path d="M19.5699606,17.2500629 C19.1705374,17.2049097 18.8687018,16.8670302 18.8687018,16.4650629 C18.8687018,16.0630957 19.1705374,15.7252162 19.5699606,15.6800629 L19.5699606,15.6800629 C19.9693838,15.7252162 20.2712194,16.0630957 20.2712194,16.4650629 C20.2712194,16.8670302 19.9693838,17.2049097 19.5699606,17.2500629 L19.5699606,17.2500629 Z" id="Path-60" fill="#000000"></path>
                            <path d="M16.4399606,17.2500629 C16.0405374,17.2049097 15.7387018,16.8670302 15.7387018,16.4650629 C15.7387018,16.0630957 16.0405374,15.7252162 16.4399606,15.6800629 L16.4399606,15.6800629 C16.7415697,15.6459672 17.0360429,15.7876889 17.1975623,16.0446754 C17.3590816,16.3016619 17.3590816,16.6284639 17.1975623,16.8854504 C17.0360429,17.1424369 16.7415697,17.2841587 16.4399606,17.2500629 L16.4399606,17.2500629 Z" id="Path-61" fill="#000000"></path>
                            <path d="M32.0899606,14.1100629 C31.8813645,14.1127375 31.6803898,14.0317413 31.5319414,13.8851721 C31.3834931,13.7386028 31.2999434,13.5386761 31.2999606,13.3300629 C31.2999606,12.893758 31.6536556,12.5400629 32.0899606,12.5400629 L32.0899606,12.5400629 C32.5223553,12.5455367 32.8699952,12.8976336 32.8699606,13.3300629 C32.8699606,13.760845 32.5207427,14.1100629 32.0899606,14.1100629 Z" id="Path-62" fill="#000000"></path>
                            <path d="M28.9599606,14.1100629 C28.5275312,14.1100976 28.1754344,13.7624576 28.1699606,13.3300629 C28.1753532,12.8960113 28.5259089,12.5454555 28.9599606,12.5400629 L28.9599606,12.5400629 C29.3923553,12.5455367 29.7399952,12.8976336 29.7399606,13.3300629 C29.7399606,13.5369318 29.6577823,13.7353278 29.5115039,13.8816062 C29.3652255,14.0278846 29.1668295,14.1100629 28.9599606,14.1100629 L28.9599606,14.1100629 Z" id="Path-63" fill="#000000"></path>
                            <path d="M25.8299606,14.1100629 C25.6230917,14.1100629 25.4246957,14.0278846 25.2784173,13.8816062 C25.1321389,13.7353278 25.0499606,13.5369318 25.0499606,13.3300629 C25.0499259,12.8976336 25.3975659,12.5455367 25.8299606,12.5400629 L25.8299606,12.5400629 C26.2623553,12.5455367 26.6099952,12.8976336 26.6099606,13.3300629 C26.6099606,13.760845 26.2607427,14.1100629 25.8299606,14.1100629 Z" id="Path-64" fill="#000000"></path>
                            <path d="M22.7399606,14.1100629 C22.5330917,14.1100629 22.3346957,14.0278846 22.1884173,13.8816062 C22.0421389,13.7353278 21.9599606,13.5369318 21.9599606,13.3300629 C21.9599259,12.8976336 22.3075659,12.5455367 22.7399606,12.5400629 L22.7399606,12.5400629 C23.1723553,12.5455367 23.5199952,12.8976336 23.5199606,13.3300629 C23.5199606,13.760845 23.1707427,14.1100629 22.7399606,14.1100629 Z" id="Path-65" fill="#000000"></path>
                            <path d="M19.5699606,14.1100629 C19.3630917,14.1100629 19.1646957,14.0278846 19.0184173,13.8816062 C18.8721389,13.7353278 18.7899606,13.5369318 18.7899606,13.3300629 C18.7899259,12.8976336 19.1375659,12.5455367 19.5699606,12.5400629 L19.5699606,12.5400629 C20.0023553,12.5455367 20.3499952,12.8976336 20.3499606,13.3300629 C20.3499606,13.5369318 20.2677823,13.7353278 20.1215039,13.8816062 C19.9752255,14.0278846 19.7768295,14.1100629 19.5699606,14.1100629 Z" id="Path-66" fill="#000000"></path>
                            <path d="M28.9599606,10.9800629 C28.6583515,11.0141587 28.3638783,10.8724369 28.2023589,10.6154504 C28.0408396,10.3584639 28.0408396,10.0316619 28.2023589,9.77467544 C28.3638783,9.51768894 28.6583515,9.3759672 28.9599606,9.41006293 L28.9599606,9.41006293 C29.3593838,9.45521617 29.6612194,9.79309567 29.6612194,10.1950629 C29.6612194,10.5970302 29.3593838,10.9349097 28.9599606,10.9800629 L28.9599606,10.9800629 Z" id="Path-67" fill="#000000"></path>
                            <path d="M25.8299606,10.9800629 C25.4305374,10.9349097 25.1287018,10.5970302 25.1287018,10.1950629 C25.1287018,9.79309567 25.4305374,9.45521617 25.8299606,9.41006293 L25.8299606,9.41006293 C26.2293838,9.45521617 26.5312194,9.79309567 26.5312194,10.1950629 C26.5312194,10.5970302 26.2293838,10.9349097 25.8299606,10.9800629 L25.8299606,10.9800629 Z" id="Path-68" fill="#000000"></path>
                            <path d="M22.7399606,10.9800629 C22.3405374,10.9349097 22.0387018,10.5970302 22.0387018,10.1950629 C22.0387018,9.79309567 22.3405374,9.45521617 22.7399606,9.41006293 L22.7399606,9.41006293 C23.1393838,9.45521617 23.4412194,9.79309567 23.4412194,10.1950629 C23.4412194,10.5970302 23.1393838,10.9349097 22.7399606,10.9800629 L22.7399606,10.9800629 Z" id="Path-69" fill="#000000"></path>
                            <path d="M19.5699606,10.9800629 C19.1705374,10.9349097 18.8687018,10.5970302 18.8687018,10.1950629 C18.8687018,9.79309567 19.1705374,9.45521617 19.5699606,9.41006293 L19.5699606,9.41006293 C19.9693838,9.45521617 20.2712194,9.79309567 20.2712194,10.1950629 C20.2712194,10.5970302 19.9693838,10.9349097 19.5699606,10.9800629 L19.5699606,10.9800629 Z" id="Path-70" fill="#000000"></path>
                            <path d="M25.8299606,7.84006293 C25.4305374,7.7949097 25.1287018,7.4570302 25.1287018,7.05506293 C25.1287018,6.65309567 25.4305374,6.31521617 25.8299606,6.27006293 L25.8299606,6.27006293 C26.2293838,6.31521617 26.5312194,6.65309567 26.5312194,7.05506293 C26.5312194,7.4570302 26.2293838,7.7949097 25.8299606,7.84006293 L25.8299606,7.84006293 Z" id="Path-71" fill="#000000"></path>
                            <path d="M22.7399606,7.84006293 C22.3405374,7.7949097 22.0387018,7.4570302 22.0387018,7.05506293 C22.0387018,6.65309567 22.3405374,6.31521617 22.7399606,6.27006293 L22.7399606,6.27006293 C23.1393838,6.31521617 23.4412194,6.65309567 23.4412194,7.05506293 C23.4412194,7.4570302 23.1393838,7.7949097 22.7399606,7.84006293 L22.7399606,7.84006293 Z" id="Path-72" fill="#000000"></path>
                            <path d="M19.5699606,7.84006293 C19.1705374,7.7949097 18.8687018,7.4570302 18.8687018,7.05506293 C18.8687018,6.65309567 19.1705374,6.31521617 19.5699606,6.27006293 L19.5699606,6.27006293 C19.9693838,6.31521617 20.2712194,6.65309567 20.2712194,7.05506293 C20.2712194,7.4570302 19.9693838,7.7949097 19.5699606,7.84006293 L19.5699606,7.84006293 Z" id="Path-73" fill="#000000"></path>
                            <path d="M22.7399606,4.71006293 C22.3091785,4.71006293 21.9599606,4.36084504 21.9599606,3.93006293 C21.9599606,3.49928083 22.3091785,3.15006293 22.7399606,3.15006293 L22.7399606,3.15006293 C23.0186278,3.15006293 23.2761268,3.29873008 23.4154604,3.54006292 C23.554794,3.78139577 23.554794,4.0787301 23.4154604,4.32006294 C23.2761268,4.56139579 23.0186278,4.71006293 22.7399606,4.71006293 Z" id="Path-74" fill="#000000"></path>
                            <path d="M19.5699606,4.71006293 C19.1391785,4.71006293 18.7899606,4.36084504 18.7899606,3.93006293 C18.7899606,3.49928083 19.1391785,3.15006293 19.5699606,3.15006293 L19.5699606,3.15006293 C20.0007427,3.15006293 20.3499606,3.49928083 20.3499606,3.93006293 C20.3499606,4.36084504 20.0007427,4.71006293 19.5699606,4.71006293 L19.5699606,4.71006293 Z" id="Path-75" fill="#000000"></path>
                            <path d="M19.5699606,1.57006293 C19.1705374,1.5249097 18.8687018,1.1870302 18.8687018,0.785062934 C18.8687018,0.383095671 19.1705374,0.0452161696 19.5699606,6.29341718e-05 L19.5699606,6.29341718e-05 C19.9693838,0.0452161696 20.2712194,0.383095671 20.2712194,0.785062934 C20.2712194,1.1870302 19.9693838,1.5249097 19.5699606,1.57006293 L19.5699606,1.57006293 Z" id="Path-76" fill="#000000"></path>
                            <path d="M32.0899606,20.3800629 C31.8112934,20.3800629 31.5537943,20.2313958 31.4144607,19.9900629 C31.2751271,19.7487301 31.2751271,19.4513958 31.4144607,19.2100629 C31.5537943,18.9687301 31.8112934,18.8200629 32.0899606,18.8200629 L32.0899606,18.8200629 C32.5207427,18.8200629 32.8699605,19.1692808 32.8699605,19.6000629 C32.8699605,20.030845 32.5207427,20.3800629 32.0899606,20.3800629 L32.0899606,20.3800629 Z" id="Path-77" fill="#000000"></path>
                            <path d="M28.9599606,20.3800629 C28.6812934,20.3800629 28.4237943,20.2313958 28.2844607,19.9900629 C28.1451271,19.7487301 28.1451271,19.4513958 28.2844607,19.2100629 C28.4237943,18.9687301 28.6812934,18.8200629 28.9599606,18.8200629 L28.9599606,18.8200629 C29.3907427,18.8200629 29.7399605,19.1692808 29.7399605,19.6000629 C29.7399605,20.030845 29.3907427,20.3800629 28.9599606,20.3800629 L28.9599606,20.3800629 Z" id="Path-78" fill="#000000"></path>
                            <path d="M25.8299606,20.3800629 C25.3991785,20.3800629 25.0499606,20.030845 25.0499606,19.6000629 C25.0499606,19.1692808 25.3991785,18.8200629 25.8299606,18.8200629 L25.8299606,18.8200629 C26.2607427,18.8200629 26.6099605,19.1692808 26.6099605,19.6000629 C26.6099605,20.030845 26.2607427,20.3800629 25.8299606,20.3800629 L25.8299606,20.3800629 Z" id="Path-79" fill="#000000"></path>
                            <path d="M22.7399606,20.3800629 C22.4612934,20.3800629 22.2037943,20.2313958 22.0644607,19.9900629 C21.9251271,19.7487301 21.9251271,19.4513958 22.0644607,19.2100629 C22.2037943,18.9687301 22.4612934,18.8200629 22.7399606,18.8200629 L22.7399606,18.8200629 C23.1707427,18.8200629 23.5199605,19.1692808 23.5199605,19.6000629 C23.5199605,20.030845 23.1707427,20.3800629 22.7399606,20.3800629 L22.7399606,20.3800629 Z" id="Path-80" fill="#000000"></path>
                            <path d="M19.5699606,20.3800629 C19.1391785,20.3800629 18.7899606,20.030845 18.7899606,19.6000629 C18.7899606,19.1692808 19.1391785,18.8200629 19.5699606,18.8200629 L19.5699606,18.8200629 C20.0007427,18.8200629 20.3499605,19.1692808 20.3499605,19.6000629 C20.3499605,20.030845 20.0007427,20.3800629 19.5699606,20.3800629 L19.5699606,20.3800629 Z" id="Path-81" fill="#000000"></path>
                            <path d="M28.9599606,23.5200629 C28.6583515,23.5541587 28.3638783,23.4124369 28.2023589,23.1554504 C28.0408396,22.8984639 28.0408396,22.5716619 28.2023589,22.3146754 C28.3638783,22.0576889 28.6583515,21.9159672 28.9599606,21.9500629 L28.9599606,21.9500629 C29.3593838,21.9952162 29.6612194,22.3330957 29.6612194,22.7350629 C29.6612194,23.1370302 29.3593838,23.4749097 28.9599606,23.5200629 L28.9599606,23.5200629 Z" id="Path-82" fill="#000000"></path>
                            <path d="M25.8299606,23.5200629 C25.4305374,23.4749097 25.1287018,23.1370302 25.1287018,22.7350629 C25.1287018,22.3330957 25.4305374,21.9952162 25.8299606,21.9500629 L25.8299606,21.9500629 C26.2293838,21.9952162 26.5312194,22.3330957 26.5312194,22.7350629 C26.5312194,23.1370302 26.2293838,23.4749097 25.8299606,23.5200629 L25.8299606,23.5200629 Z" id="Path-83" fill="#000000"></path>
                            <path d="M22.7399606,23.5200629 C22.3405374,23.4749097 22.0387018,23.1370302 22.0387018,22.7350629 C22.0387018,22.3330957 22.3405374,21.9952162 22.7399606,21.9500629 L22.7399606,21.9500629 C23.1393838,21.9952162 23.4412194,22.3330957 23.4412194,22.7350629 C23.4412194,23.1370302 23.1393838,23.4749097 22.7399606,23.5200629 L22.7399606,23.5200629 Z" id="Path-84" fill="#000000"></path>
                            <path d="M19.5699606,23.5200629 C19.1705374,23.4749097 18.8687018,23.1370302 18.8687018,22.7350629 C18.8687018,22.3330957 19.1705374,21.9952162 19.5699606,21.9500629 L19.5699606,21.9500629 C19.9693838,21.9952162 20.2712194,22.3330957 20.2712194,22.7350629 C20.2712194,23.1370302 19.9693838,23.4749097 19.5699606,23.5200629 L19.5699606,23.5200629 Z" id="Path-85" fill="#000000"></path>
                            <path d="M25.8299606,26.7100629 C25.3975659,26.7045891 25.0499259,26.3524923 25.0499606,25.9200629 C25.0499606,25.4892808 25.3991785,25.1400629 25.8299606,25.1400629 L25.8299606,25.1400629 C26.0368295,25.1400629 26.2352255,25.2222413 26.3815039,25.3685196 C26.5277823,25.514798 26.6099606,25.7131941 26.6099606,25.9200629 C26.6099952,26.3524923 26.2623553,26.7045891 25.8299606,26.7100629 L25.8299606,26.7100629 Z" id="Path-86" fill="#000000"></path>
                            <path d="M22.7399606,26.7100629 C22.3075659,26.7045891 21.9599259,26.3524923 21.9599606,25.9200629 C21.9599606,25.4892808 22.3091785,25.1400629 22.7399606,25.1400629 L22.7399606,25.1400629 C22.9468295,25.1400629 23.1452255,25.2222413 23.2915039,25.3685196 C23.4377823,25.514798 23.5199606,25.7131941 23.5199606,25.9200629 C23.5199952,26.3524923 23.1723553,26.7045891 22.7399606,26.7100629 L22.7399606,26.7100629 Z" id="Path-87" fill="#000000"></path>
                            <path d="M19.5699606,26.7100629 C19.1375659,26.7045891 18.7899259,26.3524923 18.7899606,25.9200629 C18.7899606,25.4892808 19.1391785,25.1400629 19.5699606,25.1400629 L19.5699606,25.1400629 C19.7768295,25.1400629 19.9752255,25.2222413 20.1215039,25.3685196 C20.2677823,25.514798 20.3499606,25.7131941 20.3499606,25.9200629 C20.3499952,26.3524923 20.0023553,26.7045891 19.5699606,26.7100629 L19.5699606,26.7100629 Z" id="Path-88" fill="#000000"></path>
                            <path d="M22.7399606,29.7900629 C22.3405374,29.7449097 22.0387018,29.4070302 22.0387018,29.0050629 C22.0387018,28.6030957 22.3405374,28.2652162 22.7399606,28.2200629 L22.7399606,28.2200629 C23.1393838,28.2652162 23.4412194,28.6030957 23.4412194,29.0050629 C23.4412194,29.4070302 23.1393838,29.7449097 22.7399606,29.7900629 L22.7399606,29.7900629 Z" id="Path-89" fill="#000000"></path>
                            <path d="M19.5699606,29.7900629 C19.1705374,29.7449097 18.8687018,29.4070302 18.8687018,29.0050629 C18.8687018,28.6030957 19.1705374,28.2652162 19.5699606,28.2200629 L19.5699606,28.2200629 C19.9693838,28.2652162 20.2712194,28.6030957 20.2712194,29.0050629 C20.2712194,29.4070302 19.9693838,29.7449097 19.5699606,29.7900629 L19.5699606,29.7900629 Z" id="Path-90" fill="#000000"></path>
                            <path d="M19.5699606,32.9300629 C19.1705374,32.8849097 18.8687018,32.5470302 18.8687018,32.1450629 C18.8687018,31.7430957 19.1705374,31.4052162 19.5699606,31.3600629 L19.5699606,31.3600629 C19.9693838,31.4052162 20.2712194,31.7430957 20.2712194,32.1450629 C20.2712194,32.5470302 19.9693838,32.8849097 19.5699606,32.9300629 L19.5699606,32.9300629 Z" id="Path-91" fill="#000000"></path>
                            <path d="M13.3199606,17.2500629 C13.0183515,17.2841587 12.7238783,17.1424369 12.5623589,16.8854504 C12.4008396,16.6284639 12.4008396,16.3016619 12.5623589,16.0446754 C12.7238783,15.7876889 13.0183515,15.6459672 13.3199606,15.6800629 L13.3199606,15.6800629 C13.7193838,15.7252162 14.0212194,16.0630957 14.0212194,16.4650629 C14.0212194,16.8670302 13.7193838,17.2049097 13.3199606,17.2500629 L13.3199606,17.2500629 Z" id="Path-92" fill="#000000"></path>
                            <path d="M10.1899606,17.2500629 C9.8883515,17.2841587 9.59387825,17.1424369 9.43235891,16.8854504 C9.27083956,16.6284639 9.27083956,16.3016619 9.43235891,16.0446754 C9.59387825,15.7876889 9.8883515,15.6459672 10.1899606,15.6800629 L10.1899606,15.6800629 C10.5893838,15.7252162 10.8912194,16.0630957 10.8912194,16.4650629 C10.8912194,16.8670302 10.5893838,17.2049097 10.1899606,17.2500629 L10.1899606,17.2500629 Z" id="Path-93" fill="#000000"></path>
                            <path d="M7.05996059,17.2500629 C6.66053742,17.2049097 6.35870179,16.8670302 6.35870179,16.4650629 C6.35870179,16.0630957 6.66053742,15.7252162 7.05996059,15.6800629 L7.05996059,15.6800629 C7.45938376,15.7252162 7.76121939,16.0630957 7.76121939,16.4650629 C7.76121939,16.8670302 7.45938376,17.2049097 7.05996059,17.2500629 L7.05996059,17.2500629 Z" id="Path-94" fill="#000000"></path>
                            <path d="M3.92996059,17.2500629 C3.53053742,17.2049097 3.22870179,16.8670302 3.22870179,16.4650629 C3.22870179,16.0630957 3.53053742,15.7252162 3.92996059,15.6800629 L3.92996059,15.6800629 C4.32938376,15.7252162 4.63121939,16.0630957 4.63121939,16.4650629 C4.63121939,16.8670302 4.32938376,17.2049097 3.92996059,17.2500629 L3.92996059,17.2500629 Z" id="Path-95" fill="#000000"></path>
                            <path d="M0.79996059,17.2500629 C0.400537423,17.2049097 0.0987017865,16.8670302 0.0987017865,16.4650629 C0.0987017865,16.0630957 0.400537423,15.7252162 0.79996059,15.6800629 L0.79996059,15.6800629 C1.19938376,15.7252162 1.50121939,16.0630957 1.50121939,16.4650629 C1.50121939,16.8670302 1.19938376,17.2049097 0.79996059,17.2500629 L0.79996059,17.2500629 Z" id="Path-96" fill="#000000"></path>
                            <path d="M16.4399606,20.3800629 C16.0091785,20.3800629 15.6599606,20.030845 15.6599606,19.6000629 C15.6599606,19.1692808 16.0091785,18.8200629 16.4399606,18.8200629 L16.4399606,18.8200629 C16.7186278,18.8200629 16.9761269,18.9687301 17.1154604,19.2100629 C17.254794,19.4513958 17.254794,19.7487301 17.1154604,19.9900629 C16.9761269,20.2313958 16.7186278,20.3800629 16.4399606,20.3800629 L16.4399606,20.3800629 Z" id="Path-97" fill="#000000"></path>
                            <path d="M13.3199606,20.3800629 C13.0412934,20.3800629 12.7837943,20.2313958 12.6444607,19.9900629 C12.5051271,19.7487301 12.5051271,19.4513958 12.6444607,19.2100629 C12.7837943,18.9687301 13.0412934,18.8200629 13.3199606,18.8200629 L13.3199606,18.8200629 C13.7507427,18.8200629 14.0999605,19.1692808 14.0999605,19.6000629 C14.0999605,20.030845 13.7507427,20.3800629 13.3199606,20.3800629 L13.3199606,20.3800629 Z" id="Path-98" fill="#000000"></path>
                            <path d="M10.1899606,20.3800629 C9.91129342,20.3800629 9.65379433,20.2313958 9.51446074,19.9900629 C9.37512715,19.7487301 9.37512715,19.4513958 9.51446074,19.2100629 C9.65379433,18.9687301 9.91129342,18.8200629 10.1899606,18.8200629 L10.1899606,18.8200629 C10.6207427,18.8200629 10.9699605,19.1692808 10.9699605,19.6000629 C10.9699605,20.030845 10.6207427,20.3800629 10.1899606,20.3800629 L10.1899606,20.3800629 Z" id="Path-99" fill="#000000"></path>
                            <path d="M7.05996059,20.3800629 C6.6291785,20.3800629 6.27996064,20.030845 6.27996064,19.6000629 C6.27996064,19.1692808 6.6291785,18.8200629 7.05996059,18.8200629 L7.05996059,18.8200629 C7.49074268,18.8200629 7.83996054,19.1692808 7.83996054,19.6000629 C7.83996054,20.030845 7.49074268,20.3800629 7.05996059,20.3800629 L7.05996059,20.3800629 Z" id="Path-100" fill="#000000"></path>
                            <path d="M3.92996059,20.3800629 C3.4991785,20.3800629 3.14996064,20.030845 3.14996064,19.6000629 C3.14996064,19.1692808 3.4991785,18.8200629 3.92996059,18.8200629 L3.92996059,18.8200629 C4.36074268,18.8200629 4.70996054,19.1692808 4.70996054,19.6000629 C4.70996054,20.030845 4.36074268,20.3800629 3.92996059,20.3800629 L3.92996059,20.3800629 Z" id="Path-101" fill="#000000"></path>
                            <path d="M0.79996059,20.3800629 C0.369178503,20.3800629 0.0199606363,20.030845 0.0199606363,19.6000629 C0.0199606363,19.1692808 0.369178503,18.8200629 0.79996059,18.8200629 L0.79996059,18.8200629 C1.23074268,18.8200629 1.57996054,19.1692808 1.57996054,19.6000629 C1.57996054,20.030845 1.23074268,20.3800629 0.79996059,20.3800629 L0.79996059,20.3800629 Z" id="Path-102" fill="#000000"></path>
                            <path d="M16.4399606,14.1100629 C16.2330917,14.1100629 16.0346957,14.0278846 15.8884173,13.8816062 C15.7421389,13.7353278 15.6599606,13.5369318 15.6599606,13.3300629 C15.6599259,12.8976336 16.0075659,12.5455367 16.4399606,12.5400629 L16.4399606,12.5400629 C16.8762655,12.5400629 17.2299606,12.893758 17.2299606,13.3300629 C17.2299777,13.5386761 17.1464281,13.7386028 16.9979798,13.8851721 C16.8495314,14.0317413 16.6485566,14.1127375 16.4399606,14.1100629 Z" id="Path-103" fill="#000000"></path>
                            <path d="M13.3199606,14.1100629 C13.1113645,14.1127375 12.9103898,14.0317413 12.7619414,13.8851721 C12.6134931,13.7386028 12.5299434,13.5386761 12.5299606,13.3300629 C12.5299606,13.1205419 12.6131925,12.9196023 12.7613462,12.7714486 C12.9095,12.6232948 13.1104396,12.5400629 13.3199606,12.5400629 L13.3199606,12.5400629 C13.7523553,12.5455367 14.0999952,12.8976336 14.0999606,13.3300629 C14.0999606,13.5369318 14.0177823,13.7353278 13.8715039,13.8816062 C13.7252255,14.0278846 13.5268295,14.1100629 13.3199606,14.1100629 Z" id="Path-104" fill="#000000"></path>
                            <path d="M10.1899606,14.1100629 C9.75753123,14.1100976 9.40543438,13.7624576 9.39996059,13.3300629 C9.40535316,12.8960113 9.75590893,12.5454555 10.1899606,12.5400629 L10.1899606,12.5400629 C10.6223553,12.5455367 10.9699952,12.8976336 10.9699606,13.3300629 C10.9699606,13.5369318 10.8877823,13.7353278 10.7415039,13.8816062 C10.5952255,14.0278846 10.3968295,14.1100629 10.1899606,14.1100629 Z" id="Path-105" fill="#000000"></path>
                            <path d="M7.05996059,14.1100629 C6.85309173,14.1100629 6.65469568,14.0278846 6.5084173,13.8816062 C6.36213893,13.7353278 6.27996059,13.5369318 6.27996059,13.3300629 C6.27992594,12.8976336 6.62756588,12.5455367 7.05996059,12.5400629 L7.05996059,12.5400629 C7.4923553,12.5455367 7.83999524,12.8976336 7.83996059,13.3300629 C7.83996059,13.760845 7.49074269,14.1100629 7.05996059,14.1100629 Z" id="Path-106" fill="#000000"></path>
                            <path d="M3.92996059,14.1100629 C3.72309173,14.1100629 3.52469568,14.0278846 3.3784173,13.8816062 C3.23213893,13.7353278 3.14996059,13.5369318 3.14996059,13.3300629 C3.14992594,12.8976336 3.49756588,12.5455367 3.92996059,12.5400629 L3.92996059,12.5400629 C4.3623553,12.5455367 4.70999524,12.8976336 4.70996059,13.3300629 C4.70996059,13.5369318 4.62778225,13.7353278 4.48150388,13.8816062 C4.3352255,14.0278846 4.13682945,14.1100629 3.92996059,14.1100629 L3.92996059,14.1100629 Z" id="Path-107" fill="#000000"></path>
                            <path d="M0.79996059,14.1100629 C0.593091728,14.1100629 0.394695676,14.0278846 0.2484173,13.8816062 C0.102138925,13.7353278 0.0199605898,13.5369318 0.0199605898,13.3300629 C0.0199259442,12.8976336 0.367565876,12.5455367 0.79996059,12.5400629 L0.79996059,12.5400629 C1.2323553,12.5455367 1.57999524,12.8976336 1.57996059,13.3300629 C1.57996059,13.5369318 1.49778225,13.7353278 1.35150388,13.8816062 C1.2052255,14.0278846 1.00682945,14.1100629 0.79996059,14.1100629 Z" id="Path-108" fill="#000000"></path>
                        </g>
                    </g>
                </g>
            </g>
            <text id="9" font-family="Helvetica-Bold, Helvetica" font-size="19" font-weight="bold" letter-spacing="0.59375" fill="#FFFFFF">
                <tspan x="15" y="28">9</tspan>
            </text>
        </g>
    </g>
</svg>