<?xml version="1.0" encoding="UTF-8"?> <svg xmlns="http://www.w3.org/2000/svg" id="Layer_1" data-name="Layer 1" viewBox="0 0 1719.98 836.73"><defs><style>.cls-1{fill:#fadbdd;stroke:#000;stroke-miterlimit:10;stroke-width:1.25px;}</style></defs><path class="cls-1" d="M1236,267.88h-.28v9.77a2.63,2.63,0,0,1-2.46,2.79H1199.4a2.63,2.63,0,0,1-2.79-2.46,1.82,1.82,0,0,1,0-.33V93.43a2.63,2.63,0,0,1,2.46-2.79,1.82,1.82,0,0,1,.33,0h33.49a2.63,2.63,0,0,1,2.79,2.46,1.82,1.82,0,0,1,0,.33v64.48h.28c6.14-9.21,17.59-15.63,35.45-15.63,22.61,0,38.8,10.88,45.78,32.38,3.35,10.6,4.74,20.65,4.74,38.24,0,17.3-1.39,27.63-4.74,38.24-7,21.21-23.17,32.37-45.78,32.37C1253.55,283.51,1242.1,277.1,1236,267.88Zm43.82-31.82c1.68-5.3,2.52-11.16,2.52-23.16s-.84-17.87-2.52-23.17c-3.07-9.77-10.32-14.51-20.93-14.51-10.33,0-17.58,4.74-20.65,14.51-1.68,5.3-2.52,11.16-2.52,23.17s.84,17.86,2.52,23.16c3.07,9.49,10.32,14.52,20.65,14.52,10.57,0,17.82-5,20.89-14.52Z"></path><path class="cls-1" d="M1418.23,280.44a2.64,2.64,0,0,1-2.8-2.47,1.71,1.71,0,0,1,0-.32v-9.77h-.27c-7,9.22-17.59,15.63-34.62,15.63-29.86,0-45.49-20.93-45.49-50.24V148.14a2.63,2.63,0,0,1,2.46-2.79h33.82a2.63,2.63,0,0,1,2.79,2.46,1.82,1.82,0,0,1,0,.33v77.6c0,14.51,7,24.56,20.66,24.56,13.4,0,20.65-9.77,20.65-24.56v-77.6a2.63,2.63,0,0,1,2.48-2.79h33.81a2.63,2.63,0,0,1,2.79,2.46,1.82,1.82,0,0,1,0,.33V277.65a2.63,2.63,0,0,1-2.46,2.79h-33.82Z"></path><path class="cls-1" d="M1478.51,123.86a2.64,2.64,0,0,1-2.79-2.48,1.61,1.61,0,0,1,0-.31V93.43a2.64,2.64,0,0,1,2.48-2.79,1.61,1.61,0,0,1,.31,0H1512a2.64,2.64,0,0,1,2.79,2.48,1.61,1.61,0,0,1,0,.31v27.64a2.64,2.64,0,0,1-2.48,2.79,1.61,1.61,0,0,1-.31,0Zm0,156.58a2.63,2.63,0,0,1-2.79-2.46,1.82,1.82,0,0,1,0-.33V148.14a2.64,2.64,0,0,1,2.48-2.79H1512a2.64,2.64,0,0,1,2.79,2.48,1.61,1.61,0,0,1,0,.31V277.65a2.63,2.63,0,0,1-2.46,2.79h-33.82Z"></path><path class="cls-1" d="M1577.32,282.12c-29.87,0-41.87-13.12-41.87-43V93.43a2.64,2.64,0,0,1,2.48-2.79,1.61,1.61,0,0,1,.31,0h33.5a2.64,2.64,0,0,1,2.79,2.48,1.61,1.61,0,0,1,0,.31V236.06c0,9.21,3.63,12.84,11.72,12.84h5.86a2.64,2.64,0,0,1,2.8,2.47,1.71,1.71,0,0,1,0,.32v27.64a2.63,2.63,0,0,1-2.48,2.79h-15.11Z"></path><path class="cls-1" d="M1689.24,280.44a2.63,2.63,0,0,1-2.79-2.46,1.82,1.82,0,0,1,0-.33v-9.77h-.28c-6.42,9.22-17.58,15.63-35.44,15.63-22.61,0-38.8-11.16-45.78-32.37-3.35-10.61-4.75-20.94-4.75-38.24,0-17.59,1.4-27.64,4.75-38.24,7-21.5,23.17-32.38,45.78-32.38,17.86,0,29,6.42,35.44,15.63h.28V93.43a2.64,2.64,0,0,1,2.48-2.79,1.61,1.61,0,0,1,.31,0h33.5a2.64,2.64,0,0,1,2.79,2.48,1.61,1.61,0,0,1,0,.31V277.65a2.63,2.63,0,0,1-2.46,2.79h-33.83Zm-5.3-44.38c1.68-5.3,2.51-11.16,2.51-23.16s-.83-17.87-2.51-23.17c-3.07-9.77-10.33-14.51-20.65-14.51-10.61,0-17.87,4.74-20.94,14.51-1.67,5.3-2.51,11.16-2.51,23.17s.84,17.86,2.51,23.16c3.07,9.49,10.33,14.52,20.94,14.52C1673.61,250.58,1680.87,245.55,1683.94,236.06Z"></path></svg> 