<?xml version="1.0" encoding="UTF-8"?> <svg xmlns="http://www.w3.org/2000/svg" xmlns:xlink="http://www.w3.org/1999/xlink" width="33px" height="38px" viewBox="0 0 33 38" version="1.1"><title>discord</title><g id="Marketing-Tools" stroke="none" stroke-width="1" fill="none" fill-rule="evenodd"><g id="Desktop-HD" transform="translate(-1191.000000, -5550.000000)" fill="#7289DA" fill-rule="nonzero"><g id="discord-seeklogo.com" transform="translate(1191.000000, 5550.000000)"><path d="M29.1342858,0 L3.86571428,0 C1.73485714,0 0,1.7454432 0,3.90827498 L0,29.5587011 C0,31.7215329 1.73485714,33.4669761 3.86571428,33.4669761 L25.2497142,33.4669761 L24.2502858,29.9571175 L26.664,32.2148104 L28.9457142,34.3396977 L33,37.9444174 L33,3.90827498 C33,1.7454432 31.2651428,0 29.1342858,0 Z M21.8554286,24.7777046 C21.8554286,24.7777046 21.1765714,23.9618995 20.6108572,23.2409556 C23.0811428,22.538984 24.024,20.9832628 24.024,20.9832628 C23.2508572,21.4955124 22.5154286,21.8559844 21.8554286,22.1026231 C20.9125714,22.5010395 20.0074286,22.7666504 19.1211428,22.9184281 C17.3108572,23.2599279 15.6514286,23.1650668 14.2371428,22.8994559 C13.1622858,22.6907615 12.2382857,22.3872063 11.4651429,22.0836508 C11.0314286,21.912901 10.56,21.7042067 10.0885714,21.4385958 C10.032,21.4006514 9.97542858,21.3816792 9.91885714,21.3437348 C9.88114286,21.3247626 9.86228572,21.3057903 9.84342858,21.2868181 C9.504,21.097096 9.31542858,20.9642906 9.31542858,20.9642906 C9.31542858,20.9642906 10.2205714,22.4820672 12.6154286,23.2030113 C12.0497143,23.9239552 11.352,24.7777046 11.352,24.7777046 C7.18457142,24.6448991 5.60057142,21.8939288 5.60057142,21.8939288 C5.60057142,15.7848776 8.316,10.8331312 8.316,10.8331312 C11.0314286,8.78413262 13.6148572,8.84089159 13.6148572,8.84089159 L13.8034286,9.06871574 C10.4091429,10.0552706 8.844,11.5540751 8.844,11.5540751 C8.844,11.5540751 9.25885714,11.3264086 9.95657142,11.003881 C11.9742857,10.1121872 13.5771428,9.86554851 14.2371428,9.80863189 C14.3502858,9.78965968 14.4445714,9.77068748 14.5577142,9.77068748 C15.708,9.61890979 17.0091428,9.58096538 18.3668572,9.73274305 C20.1582858,9.94143735 22.0817142,10.4726592 24.0428572,11.5540751 C24.0428572,11.5540751 22.5531428,10.1311594 19.3474286,9.14460458 L19.6114286,8.84089159 C19.6114286,8.84089159 22.1948572,8.78413262 24.9102858,10.8331312 C24.9102858,10.8331312 27.6257142,15.7848776 27.6257142,21.8939288 C27.6257142,21.8939288 26.0228572,24.6448991 21.8554286,24.7777046 Z M13.0868572,15.917683 C12.012,15.917683 11.1634286,16.8662935 11.1634286,18.0235983 C11.1634286,19.180903 12.0308571,20.1295134 13.0868572,20.1295134 C14.1617142,20.1295134 15.0102858,19.180903 15.0102858,18.0235983 C15.0291428,16.8662935 14.1617142,15.917683 13.0868572,15.917683 M19.9697142,15.917683 C18.8948572,15.917683 18.0462858,16.8662935 18.0462858,18.0235983 C18.0462858,19.180903 18.9137142,20.1295134 19.9697142,20.1295134 C21.0445714,20.1295134 21.8931428,19.180903 21.8931428,18.0235983 C21.8931428,16.8662935 21.0445714,15.917683 19.9697142,15.917683" id="Shape"></path></g></g></g></svg> 