<?xml version="1.0" encoding="UTF-8"?> <svg xmlns="http://www.w3.org/2000/svg" id="Layer_1" data-name="Layer 1" viewBox="0 0 1719.98 836.73"><defs><style>.cls-1{fill:#e3e9ff;stroke:#000;stroke-miterlimit:10;stroke-width:1.25px;}</style></defs><path class="cls-1" d="M1030.15,239.54c-3-9-5.11-19.5-5.11-34.5,0-15.3,1.8-25.8,4.8-34.8,8.41-26.11,31.51-41.11,62.41-41.11,32.1,0,54.3,15.3,62.7,40.8,3,9.6,4.8,20.1,4.8,44.71,0,1.8-1.2,3-3.3,3h-87.9a1.59,1.59,0,0,0-1.8,1.8,32.14,32.14,0,0,0,1.8,8.1c3.9,12.6,15,19.2,30,19.2,14.4,0,24.9-5.1,33.3-12.9,1.5-1.2,3-1.5,4.2,0l19.8,18.6a2.7,2.7,0,0,1,.3,4.2c-13.8,14.7-35.1,24.3-61.8,24.3C1061.35,280.94,1038.54,265.64,1030.15,239.54Zm86.4-49.8a1.59,1.59,0,0,0,1.8-1.8,35.94,35.94,0,0,0-1.5-10.8c-3.3-9.91-12.3-15.91-24.3-15.91s-21,6-24.3,15.91a35.94,35.94,0,0,0-1.5,10.8,1.59,1.59,0,0,0,1.8,1.8Z"></path><path class="cls-1" d="M1273.14,277.64a2.83,2.83,0,0,1-3-3v-83.4c0-15.91-7.5-26.41-22.5-26.41-14.4,0-22.8,10.5-22.8,26.41v83.4a2.83,2.83,0,0,1-3,3h-36a2.83,2.83,0,0,1-3-3V135.43a2.83,2.83,0,0,1,3-3h36a2.83,2.83,0,0,1,3,3v10.2h.3c6.6-9,18.9-16.5,37.5-16.5,32.11,0,49.5,22.2,49.5,54v91.5a2.83,2.83,0,0,1-3,3Z"></path><path class="cls-1" d="M1339.14,313a3,3,0,0,1,.3-4.5l21.3-21.6q2.25-2.25,4.5,0c9,8.1,18.6,12.6,30,12.6,20.1,0,29.1-10.8,29.1-32.1v-12.3h-.3c-6.3,10.2-18.9,16.8-37.2,16.8-24,0-41.1-12-48.6-35.1-3.3-10.8-4.8-20.7-4.8-36.3s1.5-25.8,4.8-36.31c7.5-23.1,24.6-35.1,48.6-35.1,18.3,0,30.9,6.6,37.2,16.8h.3v-10.5a2.83,2.83,0,0,1,3-3h36a2.83,2.83,0,0,1,3,3V262c0,48.6-24.6,72.9-72.3,72.9C1372.44,334.94,1349.64,325.64,1339.14,313Zm82.5-92.1c1.8-5.4,2.7-11.4,2.7-20.4s-.9-15-2.7-20.4c-3.3-10.21-9.9-15.61-21.6-15.61-11.4,0-18,5.4-21.6,15.61-1.5,5.39-2.4,11.39-2.4,20.4s.9,15,2.4,20.4c3.6,10.2,10.2,15.6,21.6,15.6C1411.74,236.54,1418.34,231.14,1421.64,220.94Z"></path><path class="cls-1" d="M1581.84,277.64a2.83,2.83,0,0,1-3-3V265h-.3c-7.5,9.6-20.1,15.9-39.9,15.9-25.8,0-48.3-13.5-48.3-44.4,0-32.1,24.3-46.8,60.3-46.8h25.8a1.59,1.59,0,0,0,1.8-1.8v-5.41c0-13.5-6.6-19.8-29.7-19.8-14.7,0-25.5,4.2-32.4,9.3a2.39,2.39,0,0,1-3.9-.6l-13.5-23.7c-.9-1.8-.6-3.3.9-4.2,12.3-8.7,30-14.4,54-14.4,47.4,0,64.5,16.2,64.5,52.51v93a2.83,2.83,0,0,1-3,3Zm-3.6-48.3v-9.9a1.59,1.59,0,0,0-1.8-1.8H1556c-17.7,0-25.8,5.1-25.8,16.5,0,10.2,7.2,15.3,21,15.3C1569.24,249.44,1578.24,242.84,1578.24,229.34Z"></path><path class="cls-1" d="M1645.44,313a3,3,0,0,1,.3-4.5l21.3-21.6q2.25-2.25,4.5,0c9,8.1,18.6,12.6,30,12.6,20.1,0,29.1-10.8,29.1-32.1v-12.3h-.3c-6.3,10.2-18.9,16.8-37.2,16.8-24,0-41.1-12-48.6-35.1-3.3-10.8-4.8-20.7-4.8-36.3s1.5-25.8,4.8-36.31c7.5-23.1,24.6-35.1,48.6-35.1,18.3,0,30.9,6.6,37.2,16.8h.3v-10.5a2.83,2.83,0,0,1,3-3h36a2.83,2.83,0,0,1,3,3V262c0,48.6-24.6,72.9-72.3,72.9C1678.74,334.94,1655.94,325.64,1645.44,313Zm82.5-92.1c1.8-5.4,2.7-11.4,2.7-20.4s-.9-15-2.7-20.4c-3.3-10.21-9.9-15.61-21.6-15.61-11.4,0-18,5.4-21.6,15.61-1.5,5.39-2.4,11.39-2.4,20.4s.9,15,2.4,20.4c3.6,10.2,10.2,15.6,21.6,15.6C1718,236.54,1724.64,231.14,1727.94,220.94Z"></path></svg> 