<?xml version="1.0" encoding="UTF-8"?> <svg xmlns="http://www.w3.org/2000/svg" xmlns:xlink="http://www.w3.org/1999/xlink" width="37px" height="37px" viewBox="0 0 37 37" version="1.1"><title>Facebook_f_logo_(2019)</title><g id="Marketing-Tools" stroke="none" stroke-width="1" fill="none" fill-rule="evenodd"><g id="Desktop-HD" transform="translate(-1031.000000, -5548.000000)" fill="#1977F3" fill-rule="nonzero"><g id="Facebook_f_logo_(2019)" transform="translate(1031.000000, 5548.000000)"><path d="M37,18.6125495 C37,8.33389926 28.7164956,0 18.5,0 C8.28350443,0 0,8.33389926 0,18.6125495 C0,27.901811 6.76416819,35.602292 15.6096189,37 L15.6096189,23.993987 L10.9111236,23.993987 L10.9111236,18.6125495 L15.6096189,18.6125495 L15.6096189,14.5110357 C15.6096189,9.84677419 18.3725214,7.26860498 22.597525,7.26860498 C24.6215722,7.26860498 26.7392772,7.63242784 26.7392772,7.63242784 L26.7392772,12.2129315 L24.4056392,12.2129315 C22.1084236,12.2129315 21.3903811,13.6472835 21.3903811,15.120897 L21.3903811,18.6125495 L26.5207425,18.6125495 L25.7012375,23.993987 L21.3903811,23.993987 L21.3903811,37 C30.2358318,35.6049095 37,27.9044284 37,18.6125495 Z" id="Path"></path></g></g></g></svg> 