<?xml version="1.0" encoding="UTF-8"?> <svg xmlns="http://www.w3.org/2000/svg" id="Layer_1" data-name="Layer 1" viewBox="0 0 1719.98 836.73"><defs><style>.cls-1{fill:#f9e2ff;stroke:#000;stroke-miterlimit:10;stroke-width:1.25px;}</style></defs><path class="cls-1" d="M1120.7,294.41a3,3,0,0,1,.3-4.5l21.3-21.6q2.25-2.25,4.5,0c9,8.1,18.6,12.6,30,12.6,20.1,0,29.1-10.8,29.1-32.1v-12.3h-.3c-6.3,10.2-18.9,16.8-37.2,16.8-24,0-41.1-12-48.6-35.1-3.3-10.8-4.8-20.7-4.8-36.3s1.5-25.8,4.8-36.3c7.5-23.1,24.6-35.1,48.6-35.1,18.3,0,30.9,6.6,37.2,16.8h.3v-10.5a2.83,2.83,0,0,1,3-3h36a2.83,2.83,0,0,1,3,3v126.6c0,48.6-24.6,72.9-72.3,72.9C1154,316.31,1131.2,307,1120.7,294.41Zm82.5-92.1c1.8-5.4,2.7-11.4,2.7-20.4s-.9-15-2.7-20.4c-3.3-10.2-9.9-15.6-21.6-15.6-11.4,0-18,5.4-21.6,15.6-1.5,5.4-2.4,11.4-2.4,20.4s.9,15,2.4,20.4c3.6,10.2,10.2,15.6,21.6,15.6C1193.3,217.91,1199.9,212.51,1203.2,202.31Z"></path><path class="cls-1" d="M1281.2,259a2.83,2.83,0,0,1-3-3V116.81a2.83,2.83,0,0,1,3-3h36a2.83,2.83,0,0,1,3,3v12.3h.3c6.9-11.7,20.1-18.6,37.8-18.6,9.6,0,19.2,3.3,25.5,8.7a3,3,0,0,1,.9,4.2L1367.9,154c-1.2,1.5-2.4,1.5-4.2.6-6.9-4.5-13.8-6.9-21-6.6-15.6.6-22.5,12-22.5,31.5V256a2.83,2.83,0,0,1-3,3Z"></path><path class="cls-1" d="M1390.7,221.51c-3.3-10.5-4.8-20.7-4.8-35.1s1.5-24.6,4.8-35.1c8.4-26.4,32.4-40.8,63-40.8s54.6,14.4,63,40.8c3.3,10.5,4.8,20.7,4.8,35.1s-1.5,24.6-4.8,35.1c-8.4,26.4-32.4,40.8-63,40.8S1399.1,247.91,1390.7,221.51Zm85.5-10.2c2.1-6.6,2.7-12.6,2.7-24.9s-.6-18.3-2.7-24.9c-3.3-10.2-11.4-15.6-22.5-15.6s-19.2,5.4-22.5,15.6c-2.1,6.6-2.7,12.6-2.7,24.9s.6,18.3,2.7,24.9c3.3,10.2,11.4,15.6,22.5,15.6S1472.9,221.51,1476.2,211.31Z"></path><path class="cls-1" d="M1665.5,259c-1.79,0-3-1.2-3.59-3L1637,171.71h-.6L1610.9,256c-.6,1.8-1.8,3-3.6,3h-29.7c-1.8,0-3-1.2-3.6-3l-46.5-139.2c-.6-1.8.3-3,2.1-3h36.9c2.4,0,3.6.9,4.2,3l24,86.4h.6l24.9-86.4a3.92,3.92,0,0,1,4.2-3h25.2a3.6,3.6,0,0,1,3.9,3l25.5,86.4h.61l22.8-86.4a3.61,3.61,0,0,1,3.9-3h36.9c2.1,0,3,1.2,2.4,3L1699.11,256c-.61,1.8-1.8,3-3.61,3Z"></path></svg> 