<?xml version="1.0" encoding="UTF-8"?> <svg xmlns="http://www.w3.org/2000/svg" xmlns:xlink="http://www.w3.org/1999/xlink" width="203px" height="231px" viewBox="0 0 203 231" version="1.1"><title>security</title><g id="Marketing-Tools" stroke="none" stroke-width="1" fill="none" fill-rule="evenodd"><g id="Desktop-HD" transform="translate(-138.000000, -1484.000000)"><g id="secure-1" transform="translate(138.000000, 1484.000000)"><path d="M58.1612718,179.555538 L58.0701496,179.322 L57.9942145,179.352462 C54.7543142,176.214923 50.0412718,174.011538 44.6954364,173.148462 C43.718404,172.986 42.7464339,172.879385 41.7744638,172.808308 C41.7699407,171.930317 41.6438655,171.057209 41.3998504,170.214 C41.2429177,167.513077 39.9317706,164.832462 37.5828429,162.486923 L37.4866584,162.253385 L37.4107232,162.283846 C34.1708229,159.146308 29.4577805,156.948 24.1119451,156.079846 C18.6395511,155.191385 13.1874065,155.739692 8.76291771,157.628308 L8.25668329,157.841538 L8.05925187,157.932923 L8.05925187,157.932923 C3.95875312,159.852 1.22508728,162.801692 0.364488778,166.243846 C-0.0206425534,167.826597 0.00550237765,169.481968 0.44042394,171.051692 C0.577107232,173.813538 1.91862843,176.55 4.36880299,178.966615 C7.61376559,182.170154 12.3774314,184.414154 17.7789526,185.287385 C18.7509227,185.444769 19.7178304,185.551385 20.6847382,185.617385 C20.6897593,186.462866 20.8037633,187.304148 21.0239152,188.120308 C21.1605985,190.882154 22.5021197,193.618615 24.9522943,196.035231 C28.1972569,199.238769 32.9609227,201.482769 38.3624439,202.356 C40.0364592,202.626571 41.7291742,202.764076 43.424788,202.767231 C46.9434793,202.807055 50.4344192,202.138966 53.6912219,200.802462 C53.9291521,200.706 54.1569576,200.599385 54.3847631,200.492769 C58.4852618,198.578769 61.208803,195.634154 62.0491521,192.207231 C62.4513846,190.585725 62.4164417,188.886115 61.9479052,187.282615 C61.826409,184.581692 60.5152618,181.901077 58.1612718,179.555538 Z" id="Path" fill="#1E1E1E" fill-rule="nonzero"></path><path d="M8.60598504,158.491385 L9.28433915,158.186769 C13.6885786,156.308308 19.1052868,155.780308 24.4966833,156.663692 C29.8880798,157.547077 34.5859352,159.770769 37.7701496,162.913385 C40.9543641,166.056 42.2300748,169.736769 41.3542893,173.280462 C40.5240648,176.651538 37.8663342,179.514923 33.8265835,181.403538 C33.5987781,181.510154 33.3760349,181.616769 33.1431671,181.713231 C28.7389277,183.591692 23.3222195,184.119692 17.9561347,183.236308 C12.5900499,182.352923 7.84157107,180.124154 4.65735661,176.981538 C1.47314214,173.838923 0.197431421,170.158154 1.05296758,166.609385 C1.9034414,163.248462 4.55610973,160.385077 8.60598504,158.491385 Z" id="Path" fill="#D5D8E2" fill-rule="nonzero"></path><path d="M22.9729177,183.896308 C21.2773126,183.892942 19.5846142,183.755438 17.9105736,183.485077 C12.5090524,182.611846 7.74538653,180.367846 4.50042394,177.164308 C1.25546135,173.960769 -0.0556857855,170.193692 0.830224439,166.553538 C1.69588529,163.121538 4.42448878,160.182 8.51992519,158.262923 L8.51992519,158.262923 C8.74773067,158.156308 8.97047382,158.059846 9.20334165,157.958308 C13.6328928,156.069692 19.0850374,155.516308 24.5574314,156.404769 C30.0298254,157.293231 34.7023691,159.527077 37.967581,162.720462 C41.232793,165.913846 42.5236908,169.696154 41.6225935,173.331231 C40.7569327,176.758154 38.0333915,179.723077 33.9177057,181.621846 L33.2241646,181.931538 C29.9720827,183.266044 26.4865068,183.934094 22.9729177,183.896308 Z M8.71229426,158.724923 C4.75860349,160.572923 2.13124688,163.395692 1.2959601,166.675385 C0.460673317,170.132769 1.71613466,173.727231 4.839601,176.803846 C7.96306733,179.880462 12.6761097,182.129538 18.0016958,182.982462 C23.3930923,183.855692 28.74399,183.312462 33.0773566,181.459385 C33.3051621,181.362923 33.5279052,181.256308 33.7506484,181.154769 C37.7094015,179.306769 40.3316958,176.484 41.1416708,173.204308 C41.997207,169.752 40.746808,166.152462 37.6233416,163.075846 C34.4998753,159.999231 29.7868329,157.760308 24.4865586,156.897231 C19.1052868,156.029077 13.754389,156.567231 9.41089776,158.420308 L8.74266833,158.724923 L8.71229426,158.724923 Z" id="Shape" fill="#000000" fill-rule="nonzero"></path><path d="M8.27693267,156.369231 C8.50473815,156.267692 8.7274813,156.161077 8.95528678,156.064615 C13.3595262,154.186154 18.7762344,153.658154 24.1676309,154.541538 C29.5590274,155.424923 34.2619451,157.628308 37.4613466,160.770923 L37.6891521,160.684615 L37.4410973,160.791231 C43.8500249,167.112 42.0478304,175.280769 33.4823441,179.281385 C33.2697257,179.388 33.0419202,179.489538 32.8141147,179.586 C23.7018953,183.464769 10.9093516,181.352769 4.33842893,174.869538 C1.1238404,171.732 -0.136683292,168.046154 0.718852868,164.492308 C1.56932668,161.111077 4.23718204,158.247692 8.27693267,156.369231 Z" id="Path" fill="#F5F9FC" fill-rule="nonzero"></path><path d="M22.638803,181.779231 C15.6527681,181.779231 8.53004988,179.377846 4.14605985,175.052308 C0.896034913,171.864 -0.410049875,168.096923 0.475860349,164.441538 C1.33645885,160.999385 4.07012469,158.044615 8.17062344,156.130615 L8.17062344,156.130615 L8.36805486,156.044308 L8.87428928,155.826 C13.2987781,153.942462 18.7509227,153.389077 24.2233167,154.277538 C29.5691521,155.145692 34.2821945,157.349077 37.5220948,160.481538 L37.6030923,160.451077 L37.6942145,160.684615 C40.6658105,163.659692 41.9870823,167.162769 41.3998504,170.569385 C40.761995,174.285692 37.9878304,177.463846 33.5886534,179.514923 C33.3760349,179.621538 33.1431671,179.723077 32.9153616,179.824615 C29.6529558,181.15306 26.1596668,181.817489 22.638803,181.779231 L22.638803,181.779231 Z M8.3832419,156.587538 C4.42448878,158.440615 1.80219451,161.273538 0.966907731,164.563385 C0.126558603,168.036 1.38201995,171.630462 4.51054863,174.686769 C11.0156608,181.104 23.6664589,183.195692 32.7128678,179.352462 C32.935611,179.256 33.1583541,179.159538 33.3709726,179.052923 C37.6182793,177.067846 40.2861347,174.021692 40.8986783,170.478 C41.4555362,167.213538 40.1646384,163.837385 37.2588529,160.968923 L36.9905486,160.704923 L36.9905486,160.704923 C33.8316459,157.719692 29.2755362,155.628 24.1119451,154.785231 C18.7357357,153.906923 13.3797756,154.450154 9.04134663,156.308308 L8.56548628,156.521538 L8.3832419,156.587538 Z" id="Shape" fill="#000000" fill-rule="nonzero"></path><path d="M11.0409726,158.207077 C11.223217,158.125846 11.400399,158.039538 11.5877057,157.963385 C15.1313466,156.440308 19.5254613,156.013846 23.8841397,156.724615 C28.242818,157.435385 32.0446384,159.232615 34.6163092,161.771077 L34.7985536,161.705077 L34.6011222,161.786308 C39.7799002,166.898769 38.3219451,173.503846 31.4017207,176.737846 C31.2245387,176.824154 31.0473566,176.905385 30.8600499,176.981538 C23.4842145,180.114 13.1418454,178.408154 7.84157107,173.168769 C5.25471322,170.630308 4.23718204,167.655231 4.93072319,164.786769 C5.61413965,162.050308 7.77069825,159.735231 11.0409726,158.207077 Z" id="Path" fill="#F5F9FC" fill-rule="nonzero"></path><path d="M22.6489277,178.804154 C16.9892269,178.804154 11.2181546,176.854615 7.66438903,173.351538 C5.02690773,170.762308 3.96381546,167.700923 4.68266833,164.720769 C5.38633416,161.953846 7.59351621,159.532154 10.9346633,157.973538 L10.9346633,157.973538 L11.0865337,157.907538 L11.4864589,157.729846 C15.0756608,156.206769 19.4900249,155.749846 23.9246384,156.470769 C28.242818,157.171385 32.0547631,158.948308 34.6770574,161.481692 L34.7124938,161.481692 L34.7428678,161.557846 L34.7934913,161.608615 L34.7934913,161.608615 L34.7934913,161.608615 C37.2537905,164.035385 38.3371322,166.903846 37.8663342,169.696154 C37.3600998,172.716923 35.0921696,175.280769 31.523217,176.966308 C31.3460349,177.052615 31.1637905,177.133846 30.9764838,177.215077 C28.3337973,178.295471 25.5025847,178.835727 22.6489277,178.804154 L22.6489277,178.804154 Z M11.1371571,158.435538 C7.9478803,159.928154 5.8267581,162.202615 5.16359102,164.847692 C4.49029925,167.64 5.49770574,170.528769 8.00862843,172.970769 C13.253217,178.144154 23.4538404,179.829692 30.7537406,176.727692 C30.935985,176.651538 31.1131671,176.570308 31.2599751,176.489077 C34.6770574,174.889846 36.8285536,172.427538 37.334788,169.589538 C37.7853367,166.969846 36.7475561,164.253692 34.4087531,161.948769 L34.1404489,161.684769 L34.1404489,161.684769 C31.6092768,159.303692 27.949202,157.623231 23.8132668,156.963231 C19.4748379,156.257538 15.1566584,156.694154 11.6636409,158.186769 L11.2738404,158.359385 L11.1371571,158.435538 Z" id="Shape" fill="#000000" fill-rule="nonzero"></path><path d="M29.1894763,175.56 L29.8678304,175.255385 C34.2720698,173.376923 39.6887781,172.848923 45.0801746,173.732308 C50.4715711,174.615692 55.1694264,176.839385 58.3536409,179.982 C61.5378554,183.124615 62.8135661,186.805385 61.9377805,190.349077 C61.1075561,193.720154 58.4447631,196.583538 54.4100748,198.472154 C54.1822693,198.578769 53.9595262,198.680308 53.7266584,198.776769 C49.322419,200.660308 43.9057107,201.188308 38.5396259,200.299846 C33.1735411,199.411385 28.4453117,197.187692 25.2661596,194.050154 C22.0870075,190.912615 20.8062344,187.226769 21.6617706,183.678 C22.4869327,180.317077 25.1497257,177.453692 29.1894763,175.56 Z" id="Path" fill="#D5D8E2" fill-rule="nonzero"></path><path d="M43.5361596,200.964923 C41.8401537,200.956521 40.1474527,200.813925 38.4738155,200.538462 C33.0722943,199.665231 28.3086284,197.416154 25.0636658,194.217692 C21.8187032,191.019231 20.5075561,187.242 21.3934663,183.606923 C22.2540648,180.174923 24.9877307,177.230308 29.0831671,175.316308 L29.0831671,175.316308 L29.7665835,175.006615 C34.1961347,173.118 39.6482793,172.569692 45.1206733,173.458154 C50.5930673,174.346615 55.2858603,176.580462 58.5308229,179.773846 C61.7757855,182.967231 63.0869327,186.749538 62.1858354,190.384615 C61.3404239,193.811538 58.6421945,196.756154 54.516384,198.670154 C54.2885786,198.776769 54.0607731,198.883385 53.8228429,198.979846 C50.5611774,200.325974 47.0630327,201.00103 43.5361596,200.964923 L43.5361596,200.964923 Z M29.2957855,175.793538 C25.3420948,177.641538 22.7147382,180.464308 21.8794514,183.744 C21.0441646,187.196308 22.2996259,190.795846 25.4230923,193.867385 C28.5465586,196.938923 33.2545387,199.193077 38.554813,200.030769 C43.9462095,200.904 49.2971072,200.360769 53.6304738,198.507692 C53.8582793,198.411231 54.0810224,198.304615 54.3037656,198.203077 C58.2625187,196.355077 60.884813,193.532308 61.694788,190.252615 C62.5503242,186.800308 61.2999252,183.200769 58.1511471,180.098769 C55.0023691,176.996769 50.3399501,174.834 45.0548628,173.970923 C39.673591,173.097692 34.3226933,173.635846 29.979202,175.494 L29.3109726,175.798615 L29.2957855,175.793538 Z" id="Shape" fill="#000000" fill-rule="nonzero"></path><path d="M28.8553616,173.427692 C29.0831671,173.326154 29.3059102,173.219538 29.5337157,173.123077 C33.9379551,171.244615 39.3546633,170.716615 44.7460599,171.6 C50.1374564,172.483385 54.8403741,174.707077 58.0195262,177.849692 L58.252394,177.763385 L58.0043392,177.87 C64.4132668,184.185692 62.6110723,192.359538 54.045586,196.360154 C53.8279052,196.466769 53.6051621,196.563231 53.3773566,196.659692 C44.2651372,200.538462 31.4725935,198.426462 24.9016708,191.948308 C21.697207,188.810769 20.4417456,185.124923 21.2972818,181.576154 C22.152818,178.2 24.8054863,175.316308 28.8553616,173.427692 Z" id="Path" fill="#F5F9FC" fill-rule="nonzero"></path><path d="M43.2222943,198.842769 C36.2362594,198.842769 29.1135411,196.446462 24.7295511,192.120923 C21.4795262,188.932615 20.1734414,185.165538 21.0593516,181.510154 C21.9199501,178.068 24.653616,175.113231 28.7541147,173.194154 L28.7541147,173.194154 L28.9515461,173.102769 L29.4577805,172.889538 C33.8822693,171.000923 39.334414,170.452615 44.806808,171.341077 C50.1526434,172.209231 54.8656858,174.387231 58.105586,177.545077 L58.1815212,177.514615 L58.2777057,177.748154 C61.2493017,180.718154 62.5655112,184.226308 61.9833416,187.627846 C61.3454863,191.344154 58.5713217,194.522308 54.1721446,196.578462 C53.9544638,196.685077 53.7266584,196.786615 53.4937905,196.883077 C50.2343555,198.216133 46.7421241,198.882414 43.2222943,198.842769 L43.2222943,198.842769 Z M28.9667332,173.656154 C25.00798,175.509231 22.3856858,178.342154 21.550399,181.632 C20.7100499,185.104615 21.9655112,188.699077 25.0940399,191.755385 C31.5991521,198.172615 44.2499501,200.264308 53.2963591,196.421077 L53.9544638,196.121538 C58.1967082,194.136462 60.8696259,191.090308 61.4821696,187.546615 C62.0390274,184.282154 60.7481297,180.906 57.8423441,178.037538 L57.5740399,177.773538 L57.5740399,177.773538 C54.4201995,174.788308 49.8640898,172.696615 44.7004988,171.848769 C39.3192269,170.980615 33.9683292,171.513692 29.6299002,173.371846 L29.1540399,173.58 L28.9667332,173.656154 Z" id="Shape" fill="#000000" fill-rule="nonzero"></path><path d="M31.6244638,175.275692 C31.8016459,175.194462 31.9838903,175.108154 32.171197,175.032 C35.7148379,173.508923 40.1089526,173.082462 44.4676309,173.788154 C48.8263092,174.493846 52.6281297,176.301231 55.1998005,178.839692 L55.3820449,178.773692 L55.1846135,178.854923 C60.3633915,183.967385 58.9054364,190.567385 51.985212,193.806462 L51.4435411,194.050154 C44.0677057,197.182615 33.7253367,195.476769 28.4250623,190.237385 C25.8382045,187.698923 24.8206733,184.718769 25.5142145,181.855385 C26.1976309,179.113846 28.3491272,176.803846 31.6244638,175.275692 Z" id="Path" fill="#F5F9FC" fill-rule="nonzero"></path><path d="M43.232419,195.867692 C37.5727182,195.867692 31.8016459,193.923231 28.2478803,190.420154 C25.610399,187.830923 24.5473067,184.769538 25.2661596,181.789385 C25.9698254,178.992 28.1871322,176.595692 31.5181546,175.037077 L31.6447132,174.981231 L32.0699501,174.793385 C35.6591521,173.270308 40.0735162,172.813385 44.5081297,173.534308 C48.8263092,174.234923 52.6382544,176.011846 55.2605486,178.540154 L55.295985,178.540154 L55.3263591,178.616308 L55.3769825,178.667077 L55.3769825,178.667077 L55.3769825,178.667077 C57.8372818,181.093846 58.9206234,183.962308 58.4447631,186.754615 C57.9385287,189.775385 55.6756608,192.339231 52.1067082,194.024769 C51.9295262,194.111077 51.7472818,194.192308 51.5549127,194.273538 C48.9142334,195.355269 46.0847422,195.897251 43.232419,195.867692 L43.232419,195.867692 Z M31.7257107,175.504154 C28.5414963,176.996769 26.4203741,179.271231 25.757207,181.916308 C25.0839152,184.708615 26.0913217,187.597385 28.6022444,190.039385 C33.8468329,195.207692 44.0474564,196.893231 51.3473566,193.796308 C51.529601,193.720154 51.706783,193.638923 51.853591,193.557692 C55.2757357,191.958462 57.4221696,189.496154 57.928404,186.658154 C58.3789526,184.038462 57.3411721,181.322308 55.0023691,179.017385 L54.7340648,178.753385 L54.7340648,178.753385 C52.2028928,176.372308 48.542818,174.691846 44.4068828,174.031846 C40.0633915,173.326154 35.745212,173.757692 32.2572569,175.250308 L31.847207,175.438154 L31.7257107,175.504154 Z" id="Shape" fill="#000000" fill-rule="nonzero"></path><path d="M155.413965,215.205692 C155.257032,212.504769 153.945885,209.824154 151.596958,207.473538 L151.500773,207.245077 L151.424838,207.270462 C148.184938,204.138 143.471895,201.934615 138.12606,201.066462 C132.653666,200.178 127.201521,200.731385 122.777032,202.62 C122.609975,202.686 122.453042,202.762154 122.270798,202.833231 L122.073367,202.919538 L122.073367,202.919538 C117.972868,204.838615 115.239202,207.788308 114.378603,211.230462 C113.993472,212.813213 114.019617,214.468583 114.454539,216.038308 C114.591222,218.800154 115.932743,221.536615 118.382918,223.953231 C121.62788,227.156769 126.391546,229.400769 131.793067,230.274 C133.467108,230.544361 135.159806,230.681865 136.855411,230.685231 C140.374103,230.725055 143.865043,230.056966 147.121845,228.720462 C147.354713,228.624 147.577456,228.522462 147.815387,228.410769 C151.915885,226.491692 154.639426,223.552154 155.479776,220.125231 C155.892642,218.508476 155.869931,216.810757 155.413965,215.205692 Z" id="Path" fill="#1E1E1E" fill-rule="nonzero"></path><path d="M123.014963,204.254769 L123.693317,203.950154 C128.097556,202.071692 133.514264,201.538615 138.880349,202.427077 C144.246434,203.315538 148.969601,205.534154 152.153815,208.671692 C155.33803,211.809231 156.613741,215.500154 155.737955,219.043846 C154.912793,222.409846 152.25,225.273231 148.210249,227.166923 C147.982444,227.273538 147.759701,227.375077 147.526833,227.471538 C143.122594,229.355077 137.705885,229.883077 132.3398,228.994615 C126.973716,228.106154 122.250549,225.882462 119.066334,222.744923 C115.88212,219.607385 114.606409,215.916462 115.461945,212.372769 C116.307357,209.006769 118.965087,206.123077 123.014963,204.254769 Z" id="Path" fill="#D5D8E2" fill-rule="nonzero"></path><path d="M137.381895,229.654615 C135.677739,229.655061 133.976328,229.517537 132.294239,229.243385 C126.892718,228.370154 122.129052,226.126154 118.88409,222.922615 C115.639127,219.719077 114.32798,215.952 115.21389,212.311846 C116.079551,208.884923 118.808155,205.940308 122.903591,204.026308 L122.903591,204.026308 L123.587007,203.716615 C128.016559,201.828 133.468703,201.279692 138.941097,202.168154 C144.413491,203.056615 149.111347,205.285385 152.351247,208.483846 C155.591147,211.682308 156.907357,215.454462 156.006259,219.094615 C155.160848,222.521538 152.437307,225.466154 148.336808,227.380154 C148.098878,227.491846 147.876135,227.593385 147.643267,227.689846 C144.388038,229.025684 140.898886,229.69376 137.381895,229.654615 Z M123.116209,204.483231 C119.162519,206.336308 116.535162,209.159077 115.699875,212.433692 C114.869651,215.891077 116.12005,219.490615 119.243516,222.562154 C122.366983,225.633692 127.080025,227.887846 132.405611,228.745846 C137.797007,229.614 143.147905,229.075846 147.481272,227.222769 C147.709077,227.131385 147.921696,227.029846 148.139377,226.928308 C152.113317,225.070154 154.720424,222.247385 155.545586,218.972769 C156.401122,215.515385 155.150723,211.920923 152.027257,208.844308 C148.903791,205.767692 144.19581,203.528769 138.890474,202.665692 C133.509202,201.792462 128.158304,202.330615 123.814813,204.188769 C123.587007,204.285231 123.369327,204.386769 123.146584,204.488308 L123.116209,204.483231 Z" id="Shape" fill="#000000" fill-rule="nonzero"></path><path d="M122.68591,202.117385 L123.359202,201.817846 C127.763441,199.939385 133.18015,199.406308 138.571546,200.294769 C143.962943,201.183231 148.66586,203.401846 151.850075,206.539385 L152.07788,206.458154 L151.829825,206.559692 C158.238753,212.880462 156.436559,221.049231 147.871072,225.054923 C147.658454,225.156462 147.430648,225.258 147.202843,225.354462 C138.090623,229.233231 125.29808,227.121231 118.727157,220.643077 C115.527756,217.500462 114.267232,213.814615 115.122768,210.270923 C115.973242,206.874462 118.641097,204.011077 122.68591,202.117385 Z" id="Path" fill="#F5F9FC" fill-rule="nonzero"></path><path d="M137.042718,227.537538 C130.056683,227.537538 122.939027,225.136154 118.549975,220.810615 C115.29995,217.627385 113.993865,213.855231 114.879776,210.199846 C115.740374,206.757692 118.47404,203.808 122.574539,201.888923 L122.574539,201.888923 L122.77197,201.797538 L123.278204,201.584308 C127.702693,199.695692 133.154838,199.147385 138.627232,200.035846 C143.973067,200.904 148.691172,203.082 151.92601,206.239846 L152.001945,206.209385 L152.09813,206.442923 C155.069726,209.412923 156.390998,212.921077 155.803766,216.322615 C155.16591,220.038923 152.391746,223.217077 147.992569,225.273231 C147.77995,225.379846 147.547082,225.481385 147.319277,225.577846 C144.057957,226.910515 140.564152,227.576768 137.042718,227.537538 L137.042718,227.537538 Z M122.787157,202.350923 C118.828404,204.204 116.20611,207.031846 115.370823,210.321692 C114.530474,213.794308 115.785935,217.393846 118.914464,220.475538 C125.419576,226.892769 138.070374,228.979385 147.116783,225.136154 C147.339526,225.044769 147.562269,224.943231 147.774888,224.841692 C152.022195,222.856615 154.69005,219.810462 155.302594,216.261692 C155.859451,212.997231 154.568554,209.621077 151.662768,206.757692 L151.394464,206.493692 L151.394464,206.493692 C148.235561,203.503385 143.679451,201.416769 138.51586,200.568923 C133.134589,199.695692 127.783691,200.233846 123.445262,202.092 L122.969401,202.300154 L122.787157,202.350923 Z" id="Shape" fill="#000000" fill-rule="nonzero"></path><path d="M125.444888,203.965385 L125.991621,203.721692 C129.535262,202.198615 133.929377,201.777231 138.288055,202.482923 C142.646733,203.188615 146.448554,204.996 149.020224,207.534462 L149.202469,207.463385 L149.005037,207.549692 C154.183815,212.657077 152.72586,219.262154 145.805636,222.496154 C145.633516,222.582462 145.451272,222.663692 145.263965,222.739846 C137.88813,225.877385 127.545761,224.171538 122.245486,218.932154 C119.658628,216.393692 118.641097,213.413538 119.334638,210.550154 C120.018055,207.808615 122.174613,205.493538 125.444888,203.965385 Z" id="Path" fill="#F5F9FC" fill-rule="nonzero"></path><path d="M137.052843,224.562462 C131.393142,224.562462 125.62207,222.618 122.068304,219.109846 C119.430823,216.525692 118.367731,213.459231 119.086584,210.479077 C119.790249,207.681692 122.007556,205.285385 125.338579,203.726769 L125.510698,203.650615 L125.890374,203.478 C129.479576,201.954923 133.89394,201.503077 138.328554,202.224 C142.646733,202.924615 146.458678,204.701538 149.080973,207.229846 L149.116409,207.229846 L149.146783,207.306 L149.197406,207.351692 L149.197406,207.351692 L149.197406,207.351692 L149.197406,207.351692 C151.657706,209.778462 152.741047,212.652 152.270249,215.439231 C151.764015,218.46 149.496085,221.023846 145.927132,222.714462 C145.755012,222.795692 145.567706,222.882 145.380399,222.958154 C142.738779,224.043761 139.907528,224.589203 137.052843,224.562462 Z M125.546135,204.198923 C122.356858,205.686462 120.235736,207.966 119.572569,210.611077 C118.899277,213.398308 119.911746,216.292154 122.417606,218.734154 C127.662195,223.907538 137.862818,225.593077 145.162718,222.491077 C145.344963,222.414923 145.522145,222.338769 145.668953,222.257538 C149.091097,220.658308 151.237531,218.196 151.743766,215.358 C152.194314,212.733231 151.156534,210.022154 148.817731,207.717231 L148.549426,207.448154 L148.549426,207.448154 C146.018254,205.067077 142.35818,203.386615 138.222244,202.721538 C133.878753,202.020923 129.565636,202.452462 126.072618,203.945077 L125.703067,204.107538 L125.546135,204.198923 Z" id="Shape" fill="#000000" fill-rule="nonzero"></path><path d="M140.039588,67.9901538 L141.102718,181.271538 C141.123608,185.277852 143.320362,188.954195 146.833292,190.861846 L195.538105,217.261846 C196.920974,218.011658 198.595328,217.97596 199.945172,217.167886 C201.295017,216.359812 202.120966,214.898723 202.119155,213.322154 L201.400299,96.6392308 C201.398861,94.9521297 200.448857,93.4100663 198.945062,92.6538462 L146.48399,63.9692308 C145.100118,63.2764928 143.456999,63.3531908 142.143272,64.1718481 C140.829545,64.9905054 140.033239,66.4339507 140.039588,67.9850769 L140.039588,67.9901538 Z" id="Path" fill="#FFFFFF" fill-rule="nonzero"></path><path d="M140.363605,68.0764615 L141.426708,181.357846 C141.449851,185.35961 143.646752,189.030359 147.157282,190.932923 L195.862095,217.332923 C197.244633,218.085985 198.920727,218.051857 200.271648,217.243139 C201.622569,216.43442 202.447965,214.971051 202.443163,213.393231 L201.734414,96.7103077 C201.726585,95.0249195 200.775781,93.4866948 199.274115,92.73 L146.80798,64.0707692 C144.6088,62.9679698 141.934502,63.8581848 140.829352,66.0609231 C140.521453,66.6878512 140.362067,67.3776162 140.363605,68.0764615 Z" id="Path" fill="#FFFFFF" fill-rule="nonzero"></path><path d="M199.506983,217.114615 C199.380424,217.114615 202.321646,215.449385 202.311547,212.093538 L201.602793,96.4615385 C201.607107,96.1525797 201.588494,95.8437272 201.547107,95.5375385 C201.547107,95.5375385 201.086434,94.6541538 200.802943,94.8876923 L198.778005,96.3752308 L199.506983,217.114615 Z" id="Path" fill="#FAEEEE" fill-rule="nonzero"></path><path d="M197.937656,218.114769 C197.161076,218.114769 196.396913,217.919329 195.715287,217.546154 L147.005411,191.146154 C143.421026,189.205863 141.17874,185.457957 141.158404,181.373077 L140.090249,68.0866154 C140.090981,66.456464 140.932821,64.9427814 142.315428,64.0855981 C143.698036,63.2284148 145.424491,63.1498171 146.878853,63.8778462 L199.355112,92.5370769 C200.939,93.3248854 201.938375,94.9473935 201.931845,96.7204615 L202.645647,213.398308 C202.648325,214.648256 202.155094,215.847934 201.274733,216.732736 C200.394372,217.617537 199.199205,218.114769 197.952843,218.114769 L197.937656,218.114769 Z M140.576201,68.0713846 L141.639327,181.352769 C141.663661,185.266528 143.811393,188.856391 147.243342,190.719692 L195.953217,217.119692 C198.001204,218.231223 200.559909,217.467538 201.668603,215.413846 C202.00137,214.789 202.174839,214.091459 202.174839,213.383077 L201.481297,96.7204615 C201.483016,95.1226954 200.580329,93.6624291 199.152618,92.9533846 L146.676359,64.2789231 C145.36805,63.6208447 143.812886,63.6911112 142.568885,64.4645098 C141.324883,65.2379085 140.57043,66.6035366 140.576201,68.0713846 Z" id="Shape" fill="#221E14" fill-rule="nonzero"></path><path d="M137.761342,69.1883077 L138.824663,182.469692 C138.848641,186.46855 141.043186,190.136659 144.550175,192.039692 L193.26005,218.439692 C194.297822,219.004222 195.516755,219.132015 196.648509,218.794938 C197.780264,218.457862 198.732059,217.68355 199.294364,216.642462 C199.647229,215.983832 199.831608,215.247679 199.830974,214.5 L199.117182,97.8323077 C199.110752,96.1492026 198.161667,94.6125548 196.661945,93.8570769 L144.205935,65.1623077 C142.820913,64.4625028 141.172327,64.5373009 139.855971,65.3596701 C138.539616,66.1820393 137.745862,67.6330492 137.761342,69.1883077 L137.761342,69.1883077 Z" id="Path" fill="#FFFFFF" fill-rule="nonzero"></path><path d="M176.245511,193.730308 L175.557032,175.037077 C175.534208,174.398901 175.856546,173.79804 176.400134,173.465475 C176.943723,173.13291 177.623951,173.120406 178.179327,173.432769 L186.3702,178.037538 C188.303424,179.125146 189.519978,181.156002 189.569601,183.378462 L189.954339,201.792462 C189.964019,202.318356 189.69417,202.809753 189.245824,203.082672 C188.797477,203.355592 188.238255,203.368871 187.777531,203.117538 L179.085486,198.350308 C177.39193,197.421122 176.3125,195.665133 176.245511,193.730308 Z" id="Path" fill="#FFC33E" fill-rule="nonzero"></path><path d="M177.900898,173.422615 L182.457007,175.961077 L182.639252,183.576462 L180.371322,182.302154 L177.986958,176.930769 C177.966574,176.882118 177.933313,176.839984 177.890773,176.808923 L175.815212,175.661538 C175.815212,173.823692 176.670748,172.894615 177.895835,173.402308 M182.659501,176.072769 L187.190299,178.611231 C188.31414,179.250923 189.275985,181.296923 189.443042,183.317538 L187.387731,182.154923 C187.356967,182.145459 187.323706,182.157967 187.306733,182.185385 L185.129925,184.987846 L182.861995,183.713538 L182.679751,176.128615 M175.805087,176.128615 L177.830025,177.265846 L180.184015,182.581385 L180.2802,186.642923 L176.022768,184.246615 L175.820274,176.123538 M187.463666,182.723538 L189.488603,183.860769 L189.69616,191.958462 L185.433666,189.552 L185.327357,185.490462 L187.468728,182.728615 M180.467506,182.860615 L185.023616,185.424462 L185.023616,185.480308 L185.023616,185.480308 L185.231172,193.633846 L185.200798,193.633846 L180.644688,191.039538 L180.644688,191.039538 L180.644688,190.978615 L180.447257,182.825077 L180.472569,182.825077 M176.043017,184.657846 L180.305511,187.054154 L180.406758,191.115692 L178.270449,193.867385 L176.245511,192.730154 L176.012643,184.607077 M185.453915,189.958154 L189.721471,192.364615 L189.923965,200.452154 L187.899027,199.309846 L185.5501,194.024769 L185.448853,189.963231 M176.291072,193.237846 L178.346384,194.400462 C178.378479,194.411275 178.413518,194.395901 178.427382,194.364923 L180.60419,191.567538 L182.877182,192.852 L183.059426,200.467385 L178.533691,197.928923 C177.40985,197.294308 176.448005,195.238154 176.275885,193.217538 M183.079676,192.912923 L185.352668,194.197385 L187.737032,199.573846 C187.755782,199.617918 187.787594,199.655139 187.828155,199.680462 L189.883466,200.843077 C189.883466,202.706308 189.058304,203.676 187.858529,203.168308 L183.332793,200.629846 L183.150549,193.014462 M187.812968,203.518615 C189.103865,204.249692 190.106209,203.010923 190.126459,200.807538 L190.126459,200.736462 L190.126459,200.736462 L190.126459,200.568923 L189.706284,183.911538 L189.706284,183.744 L189.706284,183.744 L189.680973,183.678 C189.574663,181.373077 188.46601,179.027538 187.1498,178.255846 L177.830025,173.016462 C176.54419,172.305692 175.531721,173.524154 175.516534,175.737692 L175.516534,175.803692 L175.516534,175.803692 L175.516534,175.956 L175.941771,192.618462 L175.941771,192.780923 L175.941771,192.780923 L175.967082,192.852 C176.068329,195.151846 177.176983,197.502462 178.498254,198.274154 L187.812968,203.513538" id="Shape" fill="#2B2B2B" fill-rule="nonzero"></path><path d="M195.209052,219.241871 C194.434783,219.241871 193.6728,219.047686 192.991746,218.678308 L144.276808,192.263077 C140.692806,190.319137 138.449709,186.571172 138.424738,182.484923 L137.361616,69.2035385 C137.3558,67.5716176 138.195148,66.0536585 139.578517,65.1943275 C140.961887,64.3349966 142.69091,64.257518 144.145187,64.9896923 L196.591072,93.6743077 C198.172443,94.4648835 199.170741,96.0856426 199.167805,97.8576923 L199.90187,214.530462 C199.905897,215.78124 199.412247,216.981961 198.530348,217.866399 C197.64845,218.750838 196.451176,219.245909 195.20399,219.241871 L195.209052,219.241871 Z M137.832444,69.1984615 L138.900599,182.479846 C138.921998,186.395735 141.070297,189.988492 144.504613,191.851846 L193.214489,218.251846 C194.524779,218.957407 196.108385,218.9205 197.38458,218.154659 C198.660775,217.388818 199.441172,216.006733 199.441172,214.515231 L198.707132,97.8475385 C198.709582,96.2482842 197.806965,94.7861632 196.378454,94.0753846 L143.932569,65.3907692 C142.623801,64.7388388 141.071941,64.81199 139.829917,65.5841588 C138.587894,66.3563276 137.832444,67.7177053 137.832444,69.1832308 L137.832444,69.1984615 Z" id="Shape" fill="#221E14" fill-rule="nonzero"></path><path d="M118.661347,1.31492308 C120.216678,0.650807792 121.952815,0.545012645 123.576883,1.01538462 C125.333516,1.52307692 126.381421,2.53846154 126.386484,3.73661538 L124.361546,185.998154 C124.361546,188.699077 122.118928,191.988923 119.299202,193.349538 L53.9645885,225.892615 C51.2511721,227.212615 47.0342394,223.785692 47.0241147,221.023846 L46.4216958,41.3464615 C46.4216958,38.6506154 48.6643142,35.3607692 51.4840399,34.0001538 L118.661347,1.31492308 Z" id="Path" fill="#F5F9FC" fill-rule="nonzero"></path><path d="M52.6483791,226.298861 C51.7773688,226.276239 50.9267233,226.029751 50.1779551,225.582923 C48.2846384,224.521846 46.9076808,222.602769 46.9026185,221.013692 L46.2951372,41.3464615 C46.2951372,38.61 48.5833167,35.2541538 51.39798,33.8935385 L118.605661,1.20830769 L118.605661,1.20830769 C120.18989,0.532080523 121.958195,0.424493198 123.612319,0.903692308 C125.424638,1.41138462 126.50798,2.47246154 126.513042,3.73661538 L124.488105,185.998154 C124.488105,188.729538 122.199925,192.090462 119.385262,193.451077 L54.0202743,225.999231 C53.5908404,226.20004 53.1221867,226.302365 52.6483791,226.298861 Z M121.496259,0.846831417 C120.547667,0.830953941 119.607136,1.02515045 118.742344,1.41646154 L118.742344,1.41646154 L51.514414,34.1016923 C48.7756858,35.4369231 46.5482544,38.6709231 46.5482544,41.3464615 L47.1506733,221.023846 C47.1506733,222.546923 48.4820698,224.359385 50.3045137,225.384923 C51.6105985,226.116 52.926808,226.268308 53.9038404,225.791077 L119.243516,193.237846 C121.987307,191.897538 124.2198,188.668615 124.2198,185.988 L126.244738,3.72646154 C126.244738,2.574 125.232269,1.59415385 123.526259,1.11692308 C122.864627,0.936635532 122.181877,0.846831417 121.496259,0.846831417 Z" id="Shape" fill="#000000" fill-rule="nonzero"></path><path d="M118.656284,1.01538462 C121.64813,-0.441692308 126.710474,0.792 126.720599,3.59446154 L124.695661,185.856 C124.695661,188.729538 122.301172,192.242769 119.324514,193.689692 L53.9645885,226.217538 C51.0537406,227.634 46.7001247,224.130923 46.6950623,221.171077 L46.0673317,41.5089231 C46.0673317,38.6353846 48.4668828,35.1221538 51.4384788,33.6752308 L118.656284,1.01538462 Z M124.341297,186.008308 L126.366521,3.74676923 C126.386484,2.53846154 125.333516,1.52307692 123.576883,1.01538462 C121.951062,0.545479365 120.213495,0.65125274 118.656284,1.31492308 L51.4587282,34.0153846 C48.6693766,35.3709231 46.396384,38.6658462 46.396384,41.3616923 L46.998803,221.039077 C46.998803,223.800923 51.2258603,227.227846 53.9392768,225.907846 L119.278953,193.369846 C122.068304,192.019385 124.341297,188.719385 124.341297,186.018462" id="Shape" fill="#1E1E1E" fill-rule="nonzero"></path><path d="M52.5015711,226.593486 C51.5975907,226.570354 50.7143053,226.317011 49.9349626,225.857077 C48.0264589,224.780769 46.6343142,222.810923 46.6343142,221.176154 L46.0268329,41.5089231 C46.0268329,38.61 48.4466334,35.0713846 51.4283541,33.6244615 L118.630973,0.939230769 C120.720354,0.0428256651 123.099331,0.126571615 125.120898,1.16769231 C126.189052,1.76676923 126.781347,2.62476923 126.781347,3.57415385 L124.756409,185.835692 C124.756409,188.734615 122.331546,192.273231 119.349825,193.720154 L53.9949626,226.268308 C53.5280628,226.488455 53.0174611,226.599548 52.5015711,226.593486 Z M118.686658,1.04584615 L51.4840399,33.7310769 C48.542818,35.1576923 46.1533915,38.6506154 46.1533915,41.5089231 L46.7558105,221.176154 C46.7558105,222.770308 48.1277057,224.699538 50.0007731,225.745385 C51.4081047,226.537385 52.8407481,226.684615 53.9392768,226.151538 L119.27389,193.598308 C122.220175,192.171692 124.614663,188.678769 124.614663,185.820462 L126.639601,3.55892308 C126.639601,2.39630769 125.768878,1.66015385 125.0399,1.24892308 C123.054893,0.23075608 120.721169,0.150756788 118.671471,1.03061538 L118.686658,1.04584615 Z M52.6483791,226.242923 C51.78438,226.216283 50.9412894,225.969965 50.1982045,225.527077 C48.3301995,224.471077 46.9734913,222.577385 46.9734913,221.023846 L46.3609476,41.3464615 C46.3609476,38.6303077 48.6187531,35.31 51.4232918,33.9493846 L118.630973,1.25907692 C120.204109,0.595256402 121.956003,0.489589292 123.597132,0.959538462 C125.38414,1.46723077 126.447232,2.48261538 126.447232,3.73661538 L124.422294,185.998154 L124.295736,185.998154 L126.320673,3.73661538 C126.320673,2.55369231 125.308204,1.55861538 123.556633,1.07123077 C121.947312,0.609661661 120.229026,0.713557309 118.686658,1.36569231 L51.4840399,34.0509231 C48.7149377,35.3963077 46.4723192,38.6709231 46.4875062,41.3464615 L47.0798005,221.023846 C47.0798005,222.546923 48.4162594,224.389846 50.2488279,225.425538 C51.5802244,226.176923 52.9217456,226.329231 53.9291521,225.841846 L119.268828,193.303846 C122.03793,191.958462 124.280549,188.683846 124.275486,186.003231 L124.402045,186.003231 C124.402045,188.724462 122.134115,192.044769 119.339701,193.410462 L53.9899002,225.923077 C53.5730899,226.131424 53.1140895,226.242923 52.6483791,226.242923 Z" id="Shape" fill="#000000" fill-rule="nonzero"></path><path d="M46.9431172,166.299692 L52.0054613,168.127385 L126.928155,129.248308 L124.447606,183.657692 C124.447606,186.556615 122.204988,190.095231 119.385262,191.562462 L54.5872569,226.014462 C52.9226675,226.770138 50.9920898,226.644489 49.4388529,225.679385 C47.8672365,224.818505 46.9442205,223.114153 47.0798005,221.323385 L46.9431172,166.299692 Z" id="Path" fill="#FF5050" fill-rule="nonzero"></path><path d="M52.1067082,167.706 L127.247082,128.725385 L124.71591,183.48 C124.71591,186.566769 122.311297,190.344 119.349825,191.897538 L54.5518204,226.364769 C52.8127591,227.160106 50.7938579,227.040334 49.1604239,226.044923 C47.5340693,225.127231 46.5935633,223.340087 46.7558105,221.475692 L46.5735661,165.726 L52.1067082,167.706 Z M124.417232,183.637385 L126.897781,129.233077 L51.9750873,168.127385 L46.9127431,166.299692 L47.0798005,221.353846 C46.9364552,223.135685 47.8423876,224.837712 49.3983541,225.709846 C50.953825,226.667927 52.8808588,226.793345 54.5467581,226.044923 L119.344763,191.562462 C122.129052,190.105385 124.407107,186.556615 124.407107,183.657692" id="Shape" fill="#2D2D2D" fill-rule="nonzero"></path><path d="M123.014963,3.50307692 C125.784065,2.15769231 128.04187,3.24415385 128.046933,5.91969231 L128.649352,184.053692 C128.649352,186.734308 126.406733,190.008923 123.647756,191.354308 L56.4147631,224.044615 C53.6456608,225.39 51.3878554,224.303538 51.382793,221.622923 L50.7803741,43.4889231 C50.7803741,40.8133846 53.0229925,37.5336923 55.7819701,36.1883077 L123.014963,3.50307692 Z" id="Path" fill="#FFFFFF" fill-rule="nonzero"></path><path d="M54.1670823,224.679631 C53.6501276,224.687638 53.1395891,224.563568 52.6838155,224.318769 C51.7642624,223.744532 51.2379127,222.706397 51.3169825,221.622923 L50.7145636,43.4889231 C50.7145636,40.788 52.9774314,37.4930769 55.7769077,36.1375385 L122.959277,3.45230769 C124.376733,2.76184615 125.748628,2.68061538 126.720599,3.22892308 C127.640202,3.80068569 128.16688,4.83751257 128.087431,5.91969231 L128.68985,184.053692 C128.68985,186.754615 126.426983,190.054615 123.652818,191.410154 L56.4451372,224.095385 C55.7388254,224.458265 54.9603952,224.65777 54.1670823,224.679631 Z M123.014963,3.55384615 L55.8123441,36.2390769 C53.073616,37.5793846 50.8411222,40.8083077 50.8411222,43.4889231 L51.4435411,221.622923 C51.4435411,222.826154 51.9092768,223.745077 52.7496259,224.217231 C53.6810973,224.724923 55.0074314,224.664 56.3894514,223.993846 L123.59207,191.303538 C126.33586,189.968308 128.563292,186.734308 128.563292,184.053692 L127.960873,5.91969231 C128.039242,4.87886755 127.536426,3.88011318 126.654788,3.32538462 C125.718254,2.81769231 124.396983,2.88369231 123.020025,3.55384615 L123.014963,3.55384615 Z" id="Shape" fill="#000000" fill-rule="nonzero"></path><path d="M122.984589,3.11723077 C125.976434,1.66523077 128.411421,2.83292308 128.426608,5.72676923 L129.023965,183.860769 C129.023965,186.754615 126.609227,190.288154 123.622444,191.740154 L56.4147631,224.430462 C53.4229177,225.882462 50.9929925,224.709692 50.9828678,221.820923 L50.3804489,43.6869231 C50.3804489,40.7930769 52.795187,37.2595385 55.7819701,35.8075385 L122.984589,3.11723077 Z M128.624048,184.053692 L128.021621,5.91969231 C128.021621,3.24415385 125.758753,2.15769231 122.989651,3.50307692 L55.7819701,36.1883077 C53.0179302,37.5336923 50.7702494,40.8133846 50.78034,43.4889231 L51.382793,221.622923 C51.382793,224.303538 53.6456608,225.39 56.4147631,224.044615 L123.617382,191.354308 C126.386484,190.008923 128.629102,186.734308 128.624048,184.053692" id="Shape" fill="#000000" fill-rule="nonzero"></path><path d="M53.9848379,225.111227 C53.428617,225.12014 52.8793859,224.985497 52.3901995,224.719846 C51.4486035,224.212154 50.9221197,223.161231 50.9170574,221.820923 L50.3197007,43.6869231 C50.3197007,40.7676923 52.7597506,37.2087692 55.7566584,35.7567692 L122.959277,3.04615385 C124.47798,2.30492308 125.966309,2.21861538 127.009152,2.80753846 C127.950748,3.31523077 128.477232,4.37123077 128.482294,5.71153846 L129.089776,183.860769 C129.089776,186.78 126.654788,190.333846 123.65788,191.790923 L56.4451372,224.481231 C55.6820504,224.872291 54.8414643,225.08738 53.9848379,225.111227 Z M123.014963,3.168 L55.8123441,35.8583077 C52.8559352,37.2950769 50.4462594,40.8032308 50.4462594,43.6869231 L51.043616,221.820923 C51.043616,223.115538 51.5498504,224.110615 52.45601,224.623385 C53.4684788,225.186923 54.8960599,225.100615 56.3894514,224.374615 L123.59207,191.689385 C126.553541,190.247538 128.958155,186.739385 128.958155,183.860769 L128.360798,5.72676923 C128.360798,4.42707692 127.854564,3.432 126.948404,2.92430769 C125.935935,2.35569231 124.508354,2.44707692 123.014963,3.168 L123.014963,3.168 Z M54.1670823,224.679631 C53.6501276,224.687638 53.1395891,224.563568 52.6838155,224.318769 C51.7644545,223.744841 51.2396049,222.705816 51.3220449,221.622923 L50.7145636,43.4889231 C50.7145636,40.788 52.9673067,37.4930769 55.7769077,36.1375385 L122.959277,3.45230769 C124.381796,2.76184615 125.753691,2.68061538 126.725661,3.22892308 C127.643327,3.80198196 128.167928,4.83855971 128.087431,5.91969231 L128.68985,184.053692 L128.68985,184.053692 C128.68985,186.754615 126.437107,190.054615 123.652818,191.410154 L56.4451372,224.095385 C55.7385818,224.457619 54.9602999,224.657086 54.1670823,224.679631 Z M125.242394,2.98477616 C124.466915,3.00573919 123.705842,3.20002496 123.014963,3.55384615 L55.8123441,36.2390769 C53.0634913,37.5793846 50.8360599,40.8083077 50.8411136,43.4889231 L51.4435411,221.622923 C51.3618024,222.663163 51.8631149,223.662807 52.7445636,224.217231 C53.6810973,224.724923 55.0074314,224.664 56.3894514,223.993846 L123.587007,191.303538 C126.33586,189.968308 128.568354,186.734308 128.558264,184.053692 L128.558264,184.053692 L127.960873,5.91969231 C128.044169,4.88052028 127.542238,3.8816031 126.65985,3.33046154 C126.224725,3.09532676 125.736589,2.9764379 125.242394,2.98477616 L125.242394,2.98477616 Z" id="Shape" fill="#000000" fill-rule="nonzero"></path><path d="M128.543042,126.730154 L128.715162,181.459385 C128.958155,187.287692 126.386484,189.907385 123.622444,191.354308 L56.5058853,224.476154 C53.736783,225.928154 50.9727431,224.760462 50.9676808,221.876769 L50.7955611,167.650154 L128.543042,126.730154 Z" id="Path" fill="#FF8495" fill-rule="nonzero"></path><path d="M54.1670823,225.354738 C53.4998811,225.362685 52.8432306,225.187074 52.2687032,224.846769 C51.2629412,224.203763 50.6821075,223.065934 50.75,221.871692 L50.5778803,167.492769 L50.7095012,167.421692 L128.831596,126.298615 L129.003716,181.449231 C129.206209,186.307846 127.485012,189.623077 123.774314,191.572615 L56.6172569,224.704615 C55.8639134,225.114139 55.0238027,225.336957 54.1670823,225.354738 L54.1670823,225.354738 Z M51.0638653,167.807538 L51.235985,221.876769 C51.1797552,222.89542 51.6749963,223.865474 52.5319451,224.415231 C53.544414,225.039692 55.0124938,224.978769 56.4046384,224.247692 L123.521197,191.125846 C127.095212,189.257538 128.669601,186.186 128.47217,181.479692 L128.305112,127.156615 L51.0638653,167.807538 Z" id="Shape" fill="#000000" fill-rule="nonzero"></path><path d="M121.496259,7.23969231 C123.576883,6.22430769 125.27783,7.04169231 125.287955,9.04707692 L125.885312,182.769231 C125.885312,185.180769 123.860374,188.135538 121.329202,189.338769 L59.2851122,219.292615 C56.7539401,220.511077 54.7290025,219.531231 54.7290025,217.104462 L54.1417706,43.4229231 C54.1417706,41.3921538 55.8275312,38.9653846 57.9081546,37.9601538 L121.496259,7.23969231 Z M125.480324,182.931692 L124.903217,9.24507692 C124.903217,7.44784615 123.384514,6.70661538 121.506384,7.62046154 L57.8929676,38.346 C56.0249626,39.2446154 54.5265087,41.4378462 54.5265087,43.23 L55.1137406,216.921692 C55.1137406,219.125077 56.986808,220.018615 59.2901746,218.911846 L121.349451,188.958 C123.637631,187.851231 125.490449,185.160462 125.490449,182.946923" id="Shape" fill="#000000" fill-rule="nonzero"></path><path d="M57.2399252,219.872018 C56.7722264,219.881537 56.3099307,219.769567 55.898404,219.546462 C55.0583204,219.03169 54.5756852,218.089114 54.648005,217.104462 L54.0557107,43.4229231 C54.0557107,41.3921538 55.7617207,38.9247692 57.8625935,37.9093846 L121.496259,7.18892308 L121.496259,7.18892308 C122.569476,6.68123077 123.602195,6.61015385 124.341297,7.02138462 C125.031738,7.45440348 125.42261,8.23839913 125.353766,9.05215385 L125.940998,182.743846 C125.940998,185.190923 123.91606,188.160923 121.384888,189.369231 L59.3154863,219.323077 C58.6730264,219.658696 57.9638796,219.846034 57.2399252,219.872018 Z M121.531696,7.29046154 L57.9182793,38.0109231 C55.8579052,39.0263077 54.1822693,41.4378462 54.1822693,43.4229231 L54.7745636,217.104462 C54.7045203,218.047503 55.1629825,218.951416 55.9642145,219.45 C56.8096259,219.922154 57.9891521,219.846 59.2547382,219.241846 L121.308953,189.257538 C123.799626,188.069538 125.819501,185.150308 125.819501,182.738769 L125.232269,9.04707692 C125.297954,8.26744119 124.920002,7.51721565 124.255237,7.10769231 C123.556633,6.71676923 122.564414,6.77769231 121.531696,7.27523077 L121.531696,7.29046154 Z M57.4171072,219.445269 C56.9866701,219.452045 56.5615339,219.34895 56.1818953,219.145385 C55.4209839,218.6738 54.9856075,217.816204 55.0529925,216.921692 L54.4657606,43.23 C54.4657606,41.4073846 55.9844638,39.1684615 57.8625935,38.2952308 L121.496259,7.56969231 C122.276856,7.11048359 123.230007,7.05569902 124.057805,7.42246154 C124.682509,7.80814022 125.040022,8.51150929 124.984214,9.24507692 L125.546135,182.931692 C125.546135,185.160462 123.673067,187.881692 121.369701,188.993538 L59.3154863,218.947385 C58.7273673,219.252504 58.0788824,219.422463 57.4171072,219.445269 Z M123.014963,7.29503777 C122.486406,7.30470933 121.966936,7.43495075 121.496259,7.67630769 L57.9233416,38.3967692 C56.0857107,39.2801538 54.5923192,41.4429231 54.5923192,43.23 L55.1795511,216.921692 C55.1105203,217.774008 55.5229393,218.593381 56.2477057,219.043846 C57.017182,219.475385 58.1157107,219.409385 59.2851122,218.861077 L121.339327,188.907231 C123.602195,187.810615 125.444888,185.135077 125.444888,182.946923 L124.837406,9.24507692 C124.891335,8.55440264 124.557656,7.89099439 123.971746,7.524 C123.677699,7.36663983 123.348169,7.28795439 123.014963,7.29503777 Z" id="Shape" fill="#000000" fill-rule="nonzero"></path><path d="M72.5433915,35.7364615 C74.1481546,34.9038462 75.418803,35.6450769 75.3783042,37.4016923 C75.2020764,39.3605749 74.0883709,41.1116669 72.3915212,42.0978462 C70.7918204,42.9355385 69.5211721,42.1892308 69.5667332,40.4376923 C69.7366761,38.4780892 70.8472199,36.7241349 72.5433915,35.7364615 L72.5433915,35.7364615 Z M72.3915212,41.6561538 C73.8587983,40.8048516 74.8189422,39.2884595 74.963192,37.5946154 C75.0087531,36.0715385 73.9051621,35.4369231 72.5282045,36.1629231 C71.0609274,37.0142254 70.1007835,38.5306175 69.9565337,40.2244615 C69.9160349,41.7475385 71.0145636,42.3770769 72.3915212,41.6561538" id="Shape" fill="#221E14" fill-rule="nonzero"></path><path d="M72.5383292,36.1781538 C73.9152868,35.4521538 75.0087531,36.102 74.9733167,37.6098462 C74.8290669,39.3036902 73.868923,40.8200823 72.4016459,41.6713846 C71.0196259,42.3923077 69.9261596,41.7526154 69.961596,40.2447692 C70.1061903,38.5483647 71.068336,37.0299006 72.5383292,36.1781538 L72.5383292,36.1781538 Z" id="Path" fill="#FF9589" fill-rule="nonzero"></path><ellipse id="Oval" fill="#FF3A47" fill-rule="nonzero" transform="translate(63.970706, 42.095308) rotate(-56.330000) translate(-63.970706, -42.095308) " cx="63.9707061" cy="42.0953078" rx="3.38839229" ry="1.99633432"></ellipse><path d="M64.0538404,38.9196923 C65.6586035,38.082 66.9241895,38.8283077 66.8836908,40.5798462 C66.709046,42.5405807 65.595136,44.2938878 63.8969077,45.2810769 C62.2921446,46.1187692 61.0214963,45.3724615 61.0670574,43.6209231 C61.2408703,41.6599046 62.355004,39.9062453 64.0538404,38.9196923 Z M63.9070324,44.8393846 C65.3606239,43.9804219 66.3052874,42.4646074 66.4382045,40.7778462 C66.4837656,39.2547692 65.3801746,38.6252308 64.003217,39.3512308 C62.534708,40.201245 61.5741096,41.7183549 61.4315461,43.4127692 C61.3910474,44.9358462 62.4895761,45.5603077 63.871596,44.8393846" id="Shape" fill="#221E14" fill-rule="nonzero"></path><path d="M73.6469825,36.2847692 C75.2517456,35.4521538 76.522394,36.1984615 76.4768329,37.95 C76.3014351,39.9091666 75.1875064,41.6606097 73.4900499,42.6461538 C71.8903491,43.4889231 70.6197007,42.7375385 70.6652618,40.986 C70.8354694,39.0251209 71.9482576,37.2706057 73.6469825,36.2847692 Z M73.4849875,42.2044615 C74.9522647,41.3531593 75.9124086,39.8367672 76.0566584,38.1429231 C76.1022195,36.6198462 74.9986284,35.9903077 73.6166085,36.7112308 C72.1517792,37.5650888 71.192535,39.08006 71.0449377,40.7727692 C71.0044389,42.2958462 72.1029676,42.9203077 73.4849875,42.1993846" id="Shape" fill="#221E14" fill-rule="nonzero"></path><path d="M73.6368579,36.7264615 C75.0188778,36.0055385 76.1123441,36.6503077 76.0769077,38.1581538 C75.93098,39.8514296 74.9712875,41.3671088 73.5052369,42.2196923 C72.1181546,42.9355385 71.0297506,42.3009231 71.065187,40.788 C71.2111148,39.0947243 72.1708073,37.5790451 73.6368579,36.7264615 L73.6368579,36.7264615 Z" id="Path" fill="#FFC0AB" fill-rule="nonzero"></path><path d="M65.1422444,39.9147692 C66.5242643,39.1938462 67.622793,39.8284615 67.5822943,41.3413846 C67.4344299,43.0353687 66.4729424,44.5508994 65.0055611,45.4029231 C63.6286035,46.1238462 62.5351372,45.4790769 62.5705736,43.9712308 C62.716417,42.2792375 63.6763543,40.7650668 65.1422444,39.9147692 Z" id="Path" fill="#FF8495" fill-rule="nonzero"></path><path d="M65.1574314,39.4730769 C66.7571322,38.6303077 68.0277805,39.3766154 67.9872818,41.1281538 C67.8133903,43.0904565 66.6994989,44.8456276 65.0004988,45.8344615 C63.3957357,46.6670769 62.1250873,45.9207692 62.165586,44.1692308 C62.3395818,42.2082154 63.4562054,40.4555058 65.1574314,39.4730769 L65.1574314,39.4730769 Z M64.9903741,45.3927692 C66.4595938,44.5426695 67.4217595,43.0260698 67.5671072,41.3312308 C67.6126683,39.8081538 66.5090773,39.1786154 65.1270574,39.9046154 C63.6597802,40.7559177 62.6996363,42.2723098 62.5553865,43.9661538 C62.5148878,45.4892308 63.6134165,46.1187692 64.9903741,45.3978462" id="Shape" fill="#221E14" fill-rule="nonzero"></path><ellipse id="Oval" fill="#FF5050" fill-rule="nonzero" transform="translate(93.422473, 173.009252) rotate(-65.224859) translate(-93.422473, -173.009252) " cx="93.4224731" cy="173.009252" rx="9.17472779" ry="7.18295409"></ellipse><path d="M91.5929925,182.286957 C91.012596,182.288851 90.4348396,182.208518 89.8768579,182.048308 C85.9130424,180.906 84.0855362,176.001692 85.8269825,171.117692 C86.6060972,168.828158 88.1009706,166.851806 90.0894763,165.482308 C91.830203,164.222418 94.0379441,163.800419 96.1187282,164.329846 C98.0948487,164.930848 99.655132,166.459632 100.300224,168.426923 C101.051577,170.649243 101.012222,173.063954 100.188853,175.260462 C98.7157107,179.448923 95.08601,182.286957 91.5929925,182.286957 Z M86.3382793,171.275077 C84.7183292,175.89 86.3787781,180.504923 90.0439152,181.560923 C93.7090524,182.616923 98.0120449,179.723077 99.631995,175.103077 C100.422405,173.008975 100.461779,170.704336 99.7433666,168.584308 C99.1593543,166.77791 97.7323784,165.371465 95.9212968,164.817231 C94.01225,164.336203 91.9887791,164.73053 90.3982793,165.893538 C88.5034012,167.200811 87.08236,169.089113 86.348404,171.275077 L86.3382793,171.275077 Z" id="Shape" fill="#1E1E1E" fill-rule="nonzero"></path><path d="M91.8258603,165.639692 C96.2300998,165.893538 98.3512219,170.924769 97.0147631,174.732462 C95.6783042,178.540154 91.1829426,180.657231 86.9761347,179.443846 L86.9761347,179.443846 C86.9761347,179.443846 84.4449626,177.443538 86.0193516,171.569538 C86.0041646,171.564462 88.1505985,165.431538 91.8258603,165.639692 Z" id="Path" fill="#FFE9E3" fill-rule="nonzero"></path><path d="M89.4111222,180.002344 C88.555037,180.002344 87.7031271,179.882678 86.8799501,179.646923 L86.834389,179.646923 L86.7837656,179.616462 C86.6774564,179.530154 84.1412219,177.458769 85.7712968,171.528923 C85.862419,171.259846 88.0291022,165.223385 91.8461097,165.436615 L91.8461097,165.436615 C93.5642215,165.535771 95.1489647,166.397421 96.1693516,167.787231 C97.5453268,169.620094 98.0089348,171.98382 97.4276614,174.202781 C96.8463881,176.421742 95.2842037,178.251736 93.1876309,179.169692 C92.0049601,179.721764 90.7156264,180.006026 89.4111222,180.002344 Z M87.0824439,179.250923 C89.0353697,179.810682 91.1241247,179.644831 92.9648878,178.783846 C94.9434316,177.91009 96.4161258,176.178461 96.9643187,174.08122 C97.5125116,171.98398 97.0762495,169.750495 95.7795511,168.015692 C94.8488044,166.732212 93.3908669,165.937735 91.8106733,165.852923 L91.6284289,165.852923 C88.2771571,165.852923 86.2319701,171.574615 86.2117207,171.635538 C84.7841397,176.940923 86.804015,178.997077 87.0723192,179.250923 L87.0824439,179.250923 Z" id="Shape" fill="#221E14" fill-rule="nonzero"></path><path d="M87.4064339,179.631692 C87.4064339,179.631692 84.8752618,177.631385 86.4445885,171.757385 C86.4445885,171.757385 88.0189776,165.817385 92.2460349,165.832586 L93.9014214,166.309846 C93.9014214,166.309846 88.4087781,168.655385 87.8266085,174.432923 C87.7387967,175.336563 87.7677226,176.247792 87.9126683,177.144 C88.0540076,178.03165 88.2794594,178.903754 88.5859601,179.748462 L87.4064339,179.631692 Z" id="Path" fill="#EAC7BE" fill-rule="nonzero"></path><path d="M89.6034913,179.931231 C88.7680629,179.931231 87.9366698,179.815051 87.1330673,179.586 L87.0672569,179.550462 C86.9609476,179.464154 84.4449626,177.413077 86.054788,171.508615 L86.1003491,171.376615 C86.6926434,169.853538 88.7530175,165.284308 92.0486035,165.456923 L92.0486035,165.456923 C93.7545129,165.543401 95.3302348,166.397898 96.336409,167.782154 C97.8111769,169.794882 98.2119219,172.403435 97.4096259,174.768 C96.2705985,177.915692 93.0458853,179.931231 89.6034913,179.931231 Z M87.2849377,179.271231 C91.3753117,180.428769 95.7441147,178.367538 97.0451372,174.666462 C97.8185297,172.404113 97.4404645,169.905488 96.0326683,167.975077 C95.0949925,166.681743 93.6256668,165.881546 92.0334165,165.797077 L92.0334165,165.797077 C88.8745137,165.614308 86.8141397,170.564308 86.4344638,171.554308 L86.4344638,171.594923 C84.9258853,176.976462 87.0065087,179.042769 87.2596259,179.271231 L87.2849377,179.271231 Z" id="Shape" fill="#221E14" fill-rule="nonzero"></path><g id="Group" opacity="0.25" transform="translate(27.336658, 9.646154)" fill="#85FFAA" fill-rule="nonzero"><path d="M117.512195,1.30476923 C122.002494,-1.122 125.510698,1.01538462 125.38414,6.09230769 L123.769252,71.6861538 C123.627506,76.7630769 119.916808,82.8198462 115.446758,85.2618462 L8.01369077,140.052 C3.53857855,142.478769 0.0151870324,140.336308 0.136683292,135.264462 L1.75663342,69.6706154 C1.89837905,64.5936923 5.60907731,58.5369231 10.0791272,56.0949231 L117.512195,1.30476923 Z" id="Path"></path></g><path d="M144.848853,10.9813846 C149.404963,8.48861538 153.044788,10.6970769 152.918229,15.8806154 L151.303342,81.3729231 C151.161596,86.5513846 147.349651,92.7858462 142.773292,95.2633846 L35.3402244,149.916462 C30.7841147,152.409231 27.1442893,150.200769 27.2404738,145.017231 L28.8553616,79.5249231 C28.9971072,74.3464615 32.8090524,68.1170769 37.3854115,65.6344615 L144.848853,10.9813846 Z M150.898354,81.5506154 L152.513242,16.0583077 C152.649925,11.1286154 149.192344,9.03692308 144.838728,11.3926154 L37.4056608,66.1116923 C33.0571072,68.4724615 29.4172818,74.3972308 29.3059102,79.3116923 L27.6960848,144.804 C27.5594015,149.733692 31.0169825,151.825385 35.3705985,149.469692 L142.788479,94.7861538 C147.137032,92.4253846 150.776858,86.5006154 150.888229,81.5861538" id="Shape" fill="#1E1E1E" fill-rule="nonzero"></path><path d="M101.338005,119.683385 L101.338005,119.683385 C101.338005,119.957538 101.014015,120.236769 100.411596,120.45 C98.94054,120.855292 97.3823489,120.811098 95.9364838,120.323077 C95.3340648,120.089538 95.0303242,119.774769 95.0303242,119.490462 L95.0303242,119.490462 L95.9010474,82.9010769 L102.203666,83.0533846 L101.338005,119.683385 Z" id="Path" fill="#FFFFFF" fill-rule="nonzero"></path><path d="M98.1537905,120.993231 C97.3680899,120.973176 96.5898835,120.834544 95.8453616,120.582 C95.1315711,120.297692 94.7468329,119.911846 94.7518459,119.485385 L95.6327431,82.6269231 L102.492219,82.7893846 L101.621496,119.688462 C101.621496,120.094615 101.211446,120.455077 100.502718,120.703846 C99.7380925,120.91512 98.946671,121.012623 98.1537905,120.993231 Z M96.1845387,83.1803077 L95.3239401,119.495538 C95.3239401,119.637692 95.5466833,119.876308 96.0529177,120.074308 C97.438551,120.54143 98.9318543,120.582097 100.340723,120.191077 C100.846958,120.018462 101.069701,119.800154 101.069701,119.683385 L101.930299,83.3275385 L96.1845387,83.1803077 Z" id="Shape" fill="#1E1E1E" fill-rule="nonzero"></path><path d="M133.585137,74.7221538 L133.585137,74.7221538 L105.9498,83.8606154 L106.116858,76.7529231 L131.30202,68.3963077 L131.30202,68.3963077 C131.700789,68.2586496 132.135631,68.2694619 132.527107,68.4267692 C134.033197,69.1920441 134.958108,70.7657493 134.896284,72.4578462 C135.004003,73.4198003 134.471618,74.3392119 133.585137,74.7221538 Z" id="Path" fill="#FFFFFF" fill-rule="nonzero"></path><path d="M105.661247,84.2769231 L105.843491,76.5752308 L131.210898,68.1526154 C131.676824,67.9981213 132.182035,68.0124948 132.638479,68.1932308 C134.234692,69.0056305 135.220474,70.6684901 135.169651,72.4629231 C135.279733,73.5321873 134.68545,74.5494884 133.701571,74.976 L133.676259,74.976 L105.661247,84.2769231 Z M106.395287,76.9610769 L106.238354,83.5153846 L133.48389,74.4784615 C134.252908,74.1408657 134.712734,73.3400293 134.617855,72.5035385 L134.617855,72.4578462 C134.676825,70.8713893 133.808707,69.3958994 132.395486,68.6806154 C132.067931,68.5644737 131.710572,68.5644737 131.383017,68.6806154 L106.395287,76.9610769 Z" id="Shape" fill="#1E1E1E" fill-rule="nonzero"></path><path d="M115.117706,51.9724615 C118.661347,55.9984615 120.35217,61.9384615 119.086584,66.1015385 C113.993865,82.9213846 107.159701,101.64 90.8235162,110.270769 C85.8060759,112.850177 79.8785527,112.945846 74.7809476,110.529692 C69.0756858,107.772923 65.5371072,102.284769 64.8283791,95.0755385 C64.0487781,87.1910769 66.8533167,76.7376923 72.1940898,67.7921538 C75.4846135,62.2684615 81.2202494,54.8003077 90.0388529,50.1955385 L90.8437656,49.7843077 C104.370349,43.1233846 111.877805,48.2967692 115.117706,51.9724615 Z M118.777781,66.1218462 C119.830748,62.6543077 118.813217,56.7955385 114.829152,52.3227692 C111.609501,48.6876923 104.198229,43.5752308 90.8235162,50.1650769 L90.0439152,50.556 C81.3417456,55.1252308 75.6769825,62.4613846 72.4370823,67.914 C67.1773067,76.7478462 64.3930175,87.0692308 65.1624938,94.8623077 C65.8661596,101.97 69.3642394,107.417538 75.0138155,110.143846 C80.0073337,112.524901 85.8186464,112.453667 90.7526434,109.950923 C97.9006733,106.168615 103.641372,100.340308 108.394913,92.0852308 C113.077581,83.9621538 116.27192,74.4124615 118.777781,66.1421538" id="Shape" fill="#2D2D2D" fill-rule="nonzero"></path><path d="M90.0439152,50.556 L90.8235162,50.1650769 C104.203292,43.5650769 111.609501,48.6876923 114.829152,52.3227692 C118.808155,56.8158462 119.830748,62.6695385 118.777781,66.1218462 C116.246608,74.3921538 113.067456,83.9418462 108.394913,92.0649231 C103.641372,100.325077 97.9006733,106.153385 90.8336409,109.895077 C85.8817502,112.428805 80.0379233,112.515074 75.0138155,110.128615 C69.3642394,107.397231 65.8661596,101.97 65.1624938,94.842 C64.3930175,87.054 67.1874314,76.7275385 72.4370823,67.8987692 C75.6769825,62.4461538 81.3366833,55.0998462 90.0439152,50.556 Z" id="Path" fill="#A9EDB9" fill-rule="nonzero"></path><path d="M82.6883292,112.042641 C80.0030202,112.047123 77.3503624,111.452285 74.9226933,110.301231 C69.2123691,107.539385 65.6737905,102.056308 64.9650623,94.8623077 C64.1905237,87.0336923 66.99,76.6615385 72.2649626,67.7972308 C75.4947382,62.3801538 81.184813,54.9627692 89.9477307,50.3884615 L89.9477307,50.3884615 L90.732394,49.9924615 C104.223541,43.3467692 111.700623,48.5201538 114.960773,52.1958462 C119.010648,56.7650769 120.023117,62.6746154 118.9499,66.1776923 C116.418728,74.448 113.239576,84.0027692 108.546783,92.1613846 C103.778055,100.446923 98.0120449,106.300615 90.9095761,110.062615 C88.3644241,111.366899 85.5465086,112.045564 82.6883292,112.042641 Z M90.1350374,50.7235385 C81.4480549,55.2572308 75.8035411,62.6187692 72.5990773,67.9850769 C67.3646135,76.7833846 64.5853865,87.0641538 65.3498005,94.8115385 C66.048404,101.873538 69.5110474,107.244923 75.094813,109.945846 C80.0670376,112.300647 85.8457931,112.216303 90.747581,109.717385 C97.7791771,105.990923 103.499626,100.182923 108.227855,91.9481538 C112.900399,83.8250769 116.094738,74.2906154 118.595536,66.0558462 C119.608005,62.6543077 118.62591,56.8818462 114.687406,52.4395385 C111.49813,48.8450769 104.172918,43.8087692 90.894389,50.3224615 L90.1198504,50.7133846 L90.1350374,50.7235385 Z" id="Shape" fill="#000000" fill-rule="nonzero"></path><path d="M96.5996509,53.5716923 C110.865337,46.1238462 122.068304,52.6476923 121.739252,68.1272308 C121.4102,83.6067692 109.589626,102.279692 95.4150623,109.758 C81.2404988,117.236308 69.946409,110.687077 70.2754613,95.2024615 C70.6045137,79.7178462 82.3795262,61.05 96.5996509,53.5716923 Z" id="Path" fill="#E6FFE6" fill-rule="nonzero"></path><path d="M97.0501995,53.394 C98.4066438,52.6779961 99.812515,52.0604139 101.257007,51.546 C103.684222,50.6526204 106.255257,50.217143 108.840399,50.2615385 C110.140676,50.3009001 111.429708,50.5160729 112.672594,50.9012308 C119.041022,52.8964615 122.584663,59.1461538 122.392294,68.0409231 C122.230299,75.6055385 119.3802,84.1347692 114.368479,92.0547692 C109.356758,99.9747692 102.765586,106.371692 95.8453616,110.022 C81.4885536,117.515538 70.1792768,110.925692 70.5336409,95.3547692 C70.7099898,90.5165192 71.7240701,85.7458926 73.5305486,81.2561538 L73.9000998,81.2561538 C72.1160696,85.6747124 71.1172073,90.3724043 70.9487531,95.1364615 C70.6247631,110.468769 81.7619202,116.967231 95.7998005,109.626 C102.689651,105.980769 109.164389,99.7107692 114.100175,91.9227692 C119.03596,84.1347692 121.840499,75.7273846 121.997431,68.2744615 C122.1898,59.5218462 118.681596,53.3686154 112.429601,51.4038462 C111.206485,51.0245124 109.937847,50.8127486 108.658155,50.7743077 C106.116003,50.7166373 103.585428,51.1350231 101.196259,52.008 C99.7708525,52.5131546 98.3835591,53.1205709 97.0451372,53.8255385 C95.7368881,54.5179495 94.470764,55.28761 93.2534414,56.1304615 C90.2550394,58.2145812 87.5020823,60.6331235 85.0473815,63.3396923 L84.8651372,63.0503077 C87.3561608,60.3051722 90.1499036,57.8525427 93.1926933,55.7395385 C94.4308805,54.8814649 95.7190036,54.0982278 97.0501995,53.394 L97.0501995,53.394 Z" id="Path" fill="#1E1E1E" fill-rule="nonzero"></path><path d="M84.6778304,113.215385 C82.077111,113.252281 79.5193718,112.548066 77.301995,111.184615 C72.7458853,108.331385 70.2906484,102.706154 70.4526434,95.3496923 C70.6317481,90.5047105 71.6474593,85.727598 73.4546135,81.2307692 L73.4546135,81.1850769 L73.9608479,81.1850769 L73.9304738,81.2713846 C72.1468259,85.6812094 71.1479218,90.3705061 70.9791272,95.1263077 C70.8272569,102.335538 73.2065586,107.818615 77.6816708,110.626154 C82.3845885,113.560615 88.8188279,113.164615 95.7390524,109.56 C102.598529,105.93 109.088454,99.6549231 114.014115,91.8770769 C118.939776,84.0992308 121.749377,75.7070769 121.906309,68.2643077 C122.093616,59.5472308 118.620848,53.4193846 112.38404,51.4546154 C111.16544,51.0781804 109.902211,50.8664668 108.627781,50.8250769 C106.093852,50.7669932 103.571495,51.1854396 101.191197,52.0587692 C99.7667996,52.5603224 98.3810528,53.1661054 97.0451372,53.8712308 C95.7392559,54.563082 94.4748818,55.3310111 93.2585037,56.1710769 C90.2685287,58.252348 87.5225201,60.6656443 85.0726933,63.3650769 L85.0473815,63.4615385 L84.7993267,63.0604615 L84.8297007,63.0249231 C87.3169253,60.2722697 90.1072082,57.8111801 93.1471322,55.6887692 C94.3874414,54.8270245 95.6790544,54.0420258 97.0147631,53.3381538 L97.0147631,53.3381538 C98.3723797,52.6209592 99.7800206,52.0033427 101.226633,51.4901538 C103.658161,50.6008074 106.232385,50.1688133 108.82015,50.2158462 C110.125625,50.2569071 111.419672,50.473772 112.667531,50.8606154 C119.061272,52.866 122.6201,59.136 122.427731,68.0663077 C122.270798,75.636 119.415636,84.1753846 114.398853,92.1106154 C109.38207,100.045846 102.785835,106.432615 95.8504239,110.077846 C91.9017955,112.149231 88.084788,113.215385 84.6778304,113.215385 Z M73.5406733,81.3424615 C71.7493477,85.8129633 70.7422937,90.5604351 70.564015,95.3750769 C70.4070823,102.685846 72.8167581,108.270462 77.3526185,111.113538 C82.1466584,114.098769 88.6973317,113.702769 95.7998005,109.996615 C102.714963,106.361538 109.285885,99.9950769 114.297606,92.0750769 C119.309327,84.1550769 122.149302,75.6410769 122.306234,68.0916923 C122.498603,59.2273846 118.975212,52.998 112.637157,51.0078462 C111.39857,50.6272424 110.114942,50.4138264 108.82015,50.3732308 C106.244572,50.3230153 103.681996,50.7516282 101.26207,51.6373846 C99.8213457,52.1510523 98.4189073,52.7669162 97.0653865,53.4803077 L97.0653865,53.4803077 C95.734831,54.1838023 94.4467635,54.9653104 93.2078803,55.8207692 C90.182544,57.9230142 87.4041945,60.3619228 84.9258853,63.0909231 L85.0372569,63.2686154 C87.4780415,60.5867444 90.2120394,58.1888841 93.1876309,56.1203077 C94.4061506,55.2750633 95.6740015,54.5036853 96.984389,53.8103077 C98.3267436,53.1048348 99.7173173,52.4957671 101.145636,51.9876923 C103.542314,51.1093982 106.081863,50.689226 108.632843,50.7489231 C109.917734,50.7890656 111.191386,51.0025215 112.419476,51.3835385 C118.717032,53.3635385 122.220175,59.5370769 122.03793,68.3201538 C121.880998,75.7832308 119.071397,84.1956923 114.125486,91.9989231 C109.179576,99.8021538 102.684589,106.082308 95.8048628,109.722462 C88.8188279,113.362615 82.3643392,113.743385 77.6209227,110.783538 C73.1053117,107.970923 70.7057606,102.426923 70.8576309,95.1770769 C71.0267029,90.4353239 72.0168006,85.7591866 73.7836658,81.3576923 L73.5406733,81.3424615 Z" id="Shape"></path><path d="M109.280823,59.8061538 L116.525037,64.1367692 C119.562444,65.9695385 121.420324,69.7213846 121.288703,75.0064615 C121.025461,85.6223077 112.920648,98.3603077 103.216135,103.437231 L95.9769825,99.1015385 C105.681496,94.0246154 113.786309,81.2764615 114.049551,70.6707692 C114.17611,65.406 112.338479,61.6236923 109.280823,59.8061538 Z" id="Path" fill="#1E1E1E" fill-rule="nonzero"></path><path d="M90.8538903,104.259692 L83.6147382,99.9290769 C86.7179551,101.787231 91.0918204,101.660308 95.9769825,99.1116923 L103.216135,103.447385 C98.3309726,105.996 93.9621696,106.107692 90.8538903,104.259692 Z" id="Path" fill="#1E1E1E" fill-rule="nonzero"></path><polygon id="Path" fill="#CCFFDE" fill-rule="nonzero" points="109.220075 59.7655385 109.280823 59.8061538 116.519975 64.1316923 116.459227 64.1012308"></polygon><path d="M80.2533416,96.2381538 C82.0302244,97.3093846 86.834389,100.177846 87.4874314,100.568769 C88.2341084,102.098248 89.4024302,103.380937 90.8538903,104.264769 L83.6147382,99.9341538 C82.1646026,99.0502355 80.9979388,97.7674385 80.2533416,96.2381538 L80.2533416,96.2381538 Z" id="Path" fill="#CCFFDE" fill-rule="nonzero"></path><path d="M96.9236409,60.6235385 C101.773367,58.0850769 106.116858,57.948 109.220075,59.7655385 L116.459227,64.1012308 C113.361072,62.2786154 109.012519,62.4207692 104.162793,64.9490769 L96.9236409,60.6235385 Z" id="Path" fill="#CCFFDE" fill-rule="nonzero"></path><path d="M109.574439,59.3441538 L116.813591,63.6747692 C113.639501,61.7861538 109.169451,61.9029231 104.157731,64.5124615 L96.9135162,60.1818462 C101.930299,57.5723077 106.400349,57.4453846 109.574439,59.3441538 Z" id="Path" fill="#1E1E1E" fill-rule="nonzero"></path><path d="M78.84601,89.0543077 C79.1092519,78.4435385 87.2140648,65.7004615 96.9236409,60.6235385 L104.162793,64.9490769 C94.4582793,70.026 86.3433416,82.7741538 86.0851621,93.3798462 C85.9524555,95.8523149 86.4343099,98.3191172 87.4874314,100.558615 L80.2533416,96.228 C79.1978842,93.9909496 78.7142354,91.5256121 78.84601,89.0543077 L78.84601,89.0543077 Z" id="Path" fill="#CCFFDE" fill-rule="nonzero"></path><path d="M104.162793,64.9490769 C113.882494,59.8721538 121.551945,64.3956923 121.293766,75.0064615 C121.035586,85.6172308 112.920648,98.3603077 103.216135,103.437231 C93.5116209,108.514154 85.8269825,103.990615 86.0851621,93.3798462 C86.3433416,82.7690769 94.4582793,70.0209231 104.162793,64.9490769 Z" id="Path" fill="#E9FFE9" fill-rule="nonzero"></path><path d="M90.5602743,104.721692 L83.3059352,100.386 C80.1723441,98.4973846 78.2992768,94.6592308 78.4308978,89.2624615 C78.699202,78.4130769 86.9862594,65.3603077 96.9135162,60.1767692 L104.157731,64.5124615 C94.2304738,69.696 85.9332918,82.7436923 85.6700499,93.5981538 C85.553616,99 87.4266833,102.843231 90.5602743,104.721692 Z" id="Path" fill="#1E1E1E" fill-rule="nonzero"></path><path d="M104.172918,64.5124615 C114.100175,59.3289231 121.956933,63.9438462 121.693691,74.7932308 C121.430449,85.6426154 113.133267,98.6953846 103.20601,103.884 C93.2787531,109.072615 85.4321197,104.472923 85.6852369,93.5981538 C85.9383541,82.7233846 94.2456608,69.696 104.172918,64.5124615 Z M103.216135,103.447385 C112.920648,98.3704615 121.025461,85.6375385 121.293766,75.0166154 C121.56207,64.3956923 113.902743,59.9076923 104.167855,64.9490769 C94.4329676,69.9904615 86.3534663,82.7741538 86.0952868,93.3798462 C85.8371072,103.985538 93.5116209,108.504 103.221197,103.437231" id="Shape" fill="#1E1E1E" fill-rule="nonzero"></path><path d="M102.932643,63.492 L102.932643,63.492 C102.932643,63.8524615 102.603591,64.1824615 101.965736,64.4261538 C100.451489,64.9079268 98.8194471,64.8632071 97.3336908,64.2992308 C96.7110224,64.02 96.3971571,63.6595385 96.4021592,63.3193846 L96.4021592,63.3193846 L96.8426434,44.8495385 L103.368005,45.0018462 L102.932643,63.492 Z" id="Path" fill="#FFFFFF" fill-rule="nonzero"></path><path d="M99.6269327,65.0252308 C98.8078352,65.0010282 97.9985279,64.8397301 97.2324439,64.548 C96.513591,64.2281538 96.1136658,63.7813846 96.1237905,63.3143077 L96.5692768,44.5703077 L103.656559,44.7378462 L103.211072,63.5224615 C103.211072,63.8626154 102.998454,64.3398462 102.072045,64.6952308 C101.280973,64.9408105 100.454597,65.0523408 99.6269327,65.0252308 L99.6269327,65.0252308 Z M97.0957606,45.1236923 L96.6907731,63.3295385 C96.6907731,63.5123077 96.8831421,63.7966154 97.455187,64.0504615 C98.87643,64.5886966 100.437263,64.6298424 101.884738,64.1672308 C102.390973,63.9793846 102.649152,63.7356923 102.659277,63.4869231 L103.089576,45.2658462 L97.0957606,45.1236923 Z" id="Shape" fill="#1E1E1E" fill-rule="nonzero"></path><path d="M102.573217,44.3164615 C103.828678,44.8241538 103.808429,45.5552308 102.527656,45.9867692 C101.008054,46.403416 99.399232,46.3574688 97.9057357,45.8547692 C96.6502743,45.3470769 96.6705237,44.6109231 97.9512968,44.1996923 C99.4707287,43.7841557 101.078736,43.8283134 102.573217,44.3266154" id="Path" fill="#DFE9DA" fill-rule="nonzero"></path><path d="M100.193915,46.5350769 C99.384367,46.5137172 98.5824904,46.3717014 97.8146135,46.1136923 C96.8021446,45.7176923 96.6907731,45.2353846 96.7008978,44.9815385 C96.7110224,44.7276923 96.8679551,44.2606154 97.8601746,43.9661538 C99.439347,43.5352652 101.109978,43.5794023 102.664339,44.0930769 L102.593466,44.286 L102.679526,44.088 C103.651496,44.4738462 103.78818,44.9561538 103.778055,45.2049231 C103.76793,45.4536923 103.610998,45.9309231 102.618778,46.266 C101.828263,46.4757656 101.011035,46.56645 100.193915,46.5350769 Z M100.264788,44.1895385 C99.5097698,44.1677229 98.7557034,44.2584031 98.0272319,44.4586154 C97.4703741,44.6363077 97.262818,44.8647692 97.2577556,45.0018462 C97.2526933,45.1389231 97.4501247,45.3826154 98.0120449,45.606 C99.4453812,46.0885887 100.990046,46.1292617 102.446658,45.7227692 C103.008579,45.5349231 103.216135,45.3064615 103.221197,45.1643077 C103.226259,45.0221538 103.03389,44.7936923 102.487157,44.5703077 L102.487157,44.5703077 C101.769809,44.3287402 101.021106,44.1936197 100.264788,44.1692308 L100.264788,44.1895385 Z" id="Shape" fill="#1E1E1E" fill-rule="nonzero"></path><path d="M82.8250125,90.7601538 L82.8250125,90.7601538 L64.0943392,97.2484615 L61.4669825,90.8769231 L80.5418953,84.4393846 L80.5418953,84.4393846 C80.9428092,84.3044833 81.3782581,84.3152661 81.7720449,84.4698462 C83.2734769,85.2394299 84.1951203,86.8109338 84.1361596,88.5009231 C84.2466676,89.4621922 83.7130203,90.3817171 82.8250125,90.7601538 L82.8250125,90.7601538 Z" id="Path" fill="#FFFFFF" fill-rule="nonzero"></path><path d="M63.9576559,97.5886154 L61.1024938,90.7144615 L80.4507731,84.1804615 C80.9170695,84.0285234 81.4213966,84.0428717 81.8783541,84.2210769 C83.4719298,85.036302 84.4566142,86.6973107 84.4095262,88.4907692 C84.5255825,89.5627669 83.9268237,90.5842073 82.936384,91.0038462 L82.936384,91.0038462 L63.9576559,97.5886154 Z M61.8365337,91.0343077 L64.2917706,96.9083077 L82.7338903,90.5063077 C83.5083872,90.1743074 83.9721471,89.370209 83.8729177,88.5313846 L83.8729177,88.4907692 C83.9222167,86.9068594 83.0596421,85.4354696 81.655611,84.7084615 C81.3280561,84.5923199 80.970697,84.5923199 80.6431421,84.7084615 L61.8365337,91.0343077 Z" id="Shape" fill="#1E1E1E" fill-rule="nonzero"></path><path d="M62.8641895,90.8363077 C64.4324304,91.6588335 65.3838411,93.3177094 65.3042394,95.0907692 C65.253616,96.8930769 64.0842145,97.8881538 62.6515711,97.3246154 C61.0774377,96.5063705 60.1195939,94.8466082 60.1963342,93.0701538 C60.2469576,91.2678462 61.4112968,90.2727692 62.8439401,90.8363077" id="Path" fill="#DFE9DA" fill-rule="nonzero"></path><path d="M63.3957357,97.7510769 C63.110597,97.7423477 62.8293609,97.6821549 62.5655112,97.5733846 C60.8906595,96.7050663 59.8668905,94.9444143 59.9381546,93.0549231 C59.8946393,92.1302656 60.3167713,91.2454307 61.061995,90.6992308 C61.6431961,90.3562374 62.353462,90.3146702 62.9704988,90.5875385 L63.0008728,90.5875385 C64.6652696,91.4559048 65.6792617,93.2107709 65.6029177,95.0907692 C65.646433,96.0154268 65.224301,96.9002616 64.4790773,97.4464615 C64.1563028,97.6540048 63.77905,97.7600812 63.3957357,97.7510769 L63.3957357,97.7510769 Z M62.1250873,90.948 C61.8576049,90.9396822 61.593572,91.0102938 61.3657357,91.1510769 C60.7780043,91.6101219 60.4525343,92.3293567 60.4950125,93.0752308 C60.4294534,94.7479542 61.3299477,96.3090903 62.8085037,97.086 C63.2494119,97.2847254 63.7590912,97.2563283 64.1753367,97.0098462 C64.763068,96.5508011 65.088538,95.8315664 65.0460599,95.0856923 C65.1140505,93.4164013 64.2174064,91.8570835 62.7426933,91.08 C62.5457287,91.0013578 62.336909,90.956727 62.1250873,90.948 L62.1250873,90.948 Z" id="Shape" fill="#1E1E1E" fill-rule="nonzero"></path><path d="M105.686559,72.2446154 C112.323292,68.7770769 117.557756,71.8130769 117.405885,79.0426154 C117.32995,82.5406154 116.013741,86.4853846 113.695187,90.1509231 C111.376633,93.8164615 108.334165,96.7509231 105.129701,98.4516923 C101.925237,100.152462 98.9333915,100.345385 96.7262095,99.0812308 C94.5190274,97.8170769 93.3293766,95.1669231 93.4053117,91.6689231 C93.557182,84.4343077 99.0700748,75.7273846 105.686559,72.2446154 Z" id="Path" fill="#FFFFFF" fill-rule="nonzero"></path><path d="M105.47394,71.6963077 C112.252419,68.1424615 117.593192,71.2647692 117.436259,78.6212308 C117.360324,82.1750769 116.013741,86.2366154 113.649626,89.958 C111.285511,93.6793846 108.177232,96.7052308 104.91202,98.4263077 C101.646808,100.147385 98.5942145,100.370769 96.336409,99.066 C94.0786035,97.7612308 92.8737656,95.0704615 92.9497007,91.5013846 C93.0256359,87.9323077 94.3722195,83.886 96.7363342,80.1646154 C99.1004489,76.4432308 102.208728,73.4173846 105.47394,71.6963077 Z M113.345885,89.7803077 C115.62394,86.1756923 116.924963,82.2918462 116.995835,78.8496923 C117.147706,71.742 111.999302,68.7669231 105.509377,72.1583077 C99.0194514,75.5496923 93.5369327,84.1652308 93.3901247,91.2678462 C93.3141895,94.71 94.4734663,97.2992308 96.6553367,98.5583077 C98.837207,99.8173846 101.753117,99.5736923 104.901895,97.9541538 C108.050673,96.3346154 111.062768,93.3849231 113.345885,89.7803077" id="Shape" fill="#1E1E1E" fill-rule="nonzero"></path><polygon id="Rectangle" fill="#221E14" fill-rule="nonzero" transform="translate(199.851377, 95.412245) rotate(-36.650000) translate(-199.851377, -95.412245) " points="198.615212 95.1857205 201.088171 95.1823133 201.087542 95.6387689 198.614583 95.6421761"></polygon></g></g></g></svg> 