<?xml version="1.0" encoding="UTF-8"?> <svg xmlns="http://www.w3.org/2000/svg" xmlns:xlink="http://www.w3.org/1999/xlink" width="36px" height="36px" viewBox="0 0 36 36" version="1.1"><title>slack</title><g id="Marketing-Tools" stroke="none" stroke-width="1" fill="none" fill-rule="evenodd"><g id="Desktop-HD" transform="translate(-1239.000000, -5549.000000)" fill-rule="nonzero"><g id="Slack_Technologies_Logo" transform="translate(1239.000000, 5549.000000)"><path d="M7.71023622,22.6771654 C7.71023622,24.7464567 6.03779528,26.4188976 3.96850394,26.4188976 C1.8992126,26.4188976 0.226771654,24.7464567 0.226771654,22.6771654 C0.226771654,20.607874 1.8992126,18.9354331 3.96850394,18.9354331 L7.71023622,18.9354331 L7.71023622,22.6771654 Z M9.58110236,22.6771654 C9.58110236,20.607874 11.2535433,18.9354331 13.3228346,18.9354331 C15.392126,18.9354331 17.0645669,20.607874 17.0645669,22.6771654 L17.0645669,32.0314961 C17.0645669,34.1007874 15.392126,35.7732283 13.3228346,35.7732283 C11.2535433,35.7732283 9.58110236,34.1007874 9.58110236,32.0314961 L9.58110236,22.6771654 Z" id="Shape" fill="#E01E5A"></path><path d="M13.3228346,7.65354331 C11.2535433,7.65354331 9.58110236,5.98110236 9.58110236,3.91181102 C9.58110236,1.84251969 11.2535433,0.17007874 13.3228346,0.17007874 C15.392126,0.17007874 17.0645669,1.84251969 17.0645669,3.91181102 L17.0645669,7.65354331 L13.3228346,7.65354331 Z M13.3228346,9.55275591 C15.392126,9.55275591 17.0645669,11.2251969 17.0645669,13.2944882 C17.0645669,15.3637795 15.392126,17.0362205 13.3228346,17.0362205 L3.94015748,17.0362205 C1.87086614,17.0362205 0.198425197,15.3637795 0.198425197,13.2944882 C0.198425197,11.2251969 1.87086614,9.55275591 3.94015748,9.55275591 L13.3228346,9.55275591 Z" id="Shape" fill="#36C5F0"></path><path d="M28.3181102,13.2944882 C28.3181102,11.2251969 29.9905512,9.55275591 32.0598425,9.55275591 C34.1291339,9.55275591 35.8015748,11.2251969 35.8015748,13.2944882 C35.8015748,15.3637795 34.1291339,17.0362205 32.0598425,17.0362205 L28.3181102,17.0362205 L28.3181102,13.2944882 Z M26.4472441,13.2944882 C26.4472441,15.3637795 24.7748031,17.0362205 22.7055118,17.0362205 C20.6362205,17.0362205 18.9637795,15.3637795 18.9637795,13.2944882 L18.9637795,3.91181102 C18.9637795,1.84251969 20.6362205,0.17007874 22.7055118,0.17007874 C24.7748031,0.17007874 26.4472441,1.84251969 26.4472441,3.91181102 L26.4472441,13.2944882 L26.4472441,13.2944882 Z" id="Shape" fill="#2EB67D"></path><path d="M22.7055118,28.2897638 C24.7748031,28.2897638 26.4472441,29.9622047 26.4472441,32.0314961 C26.4472441,34.1007874 24.7748031,35.7732283 22.7055118,35.7732283 C20.6362205,35.7732283 18.9637795,34.1007874 18.9637795,32.0314961 L18.9637795,28.2897638 L22.7055118,28.2897638 Z M22.7055118,26.4188976 C20.6362205,26.4188976 18.9637795,24.7464567 18.9637795,22.6771654 C18.9637795,20.607874 20.6362205,18.9354331 22.7055118,18.9354331 L32.088189,18.9354331 C34.1574803,18.9354331 35.8299213,20.607874 35.8299213,22.6771654 C35.8299213,24.7464567 34.1574803,26.4188976 32.088189,26.4188976 L22.7055118,26.4188976 Z" id="Shape" fill="#ECB22E"></path></g></g></g></svg> 