<?xml version="1.0" encoding="UTF-8"?> <svg xmlns="http://www.w3.org/2000/svg" id="Layer_1" data-name="Layer 1" viewBox="0 0 1719.98 836.73"><defs><style>.cls-1{fill:#dcffe3;stroke:#000;stroke-miterlimit:10;stroke-width:1.25px;}</style></defs><path class="cls-1" d="M1164,259.37a2.9,2.9,0,0,1,0-4.2l19.5-21.9c1.2-1.2,2.7-1.2,4.2,0,12.9,9.9,29.4,15.9,44.4,15.9,15.3,0,22.5-5.7,22.5-13.8,0-6.9-3.9-11.1-20.7-12.6l-16.2-1.8c-30.6-3-47.4-18.3-47.4-44.4,0-28.5,21.9-46.5,59.7-46.5,24.6,0,45.3,7.8,58.8,18a3.26,3.26,0,0,1,.3,4.5l-16.8,20.7c-1.2,1.5-2.7,1.5-4.2.6-9.9-6.3-24.3-11.7-39.3-11.7-12.3,0-18.3,4.8-18.3,12,0,6.6,3.6,10.5,20.1,12l15.9,1.8c34.2,3.3,48.3,19.8,48.3,44.1-.3,29.7-23.4,49.8-64.8,49.8C1199.71,281.87,1177.81,271.37,1164,259.37Z"></path><path class="cls-1" d="M1366.21,280.37c-33.6,0-46.2-15-46.2-48.3v-66a1.59,1.59,0,0,0-1.8-1.8h-9a2.84,2.84,0,0,1-3-3v-24.9a2.84,2.84,0,0,1,3-3h9a1.59,1.59,0,0,0,1.8-1.8v-39a2.83,2.83,0,0,1,3-3h35.7a2.83,2.83,0,0,1,3,3v39a1.59,1.59,0,0,0,1.8,1.8h18.6a2.83,2.83,0,0,1,3,3v24.9a2.83,2.83,0,0,1-3,3h-18.6a1.59,1.59,0,0,0-1.8,1.8v64.2c0,10.8,3.6,14.4,13.2,14.4h7.2a2.83,2.83,0,0,1,3,3v29.7a2.83,2.83,0,0,1-3,3Z"></path><path class="cls-1" d="M1494,278.57a2.83,2.83,0,0,1-3-3V266h-.3c-7.5,9.6-20.1,15.9-39.9,15.9-25.8,0-48.3-13.5-48.3-44.4,0-32.1,24.3-46.8,60.3-46.8h25.8a1.59,1.59,0,0,0,1.8-1.8v-5.4c0-13.5-6.6-19.8-29.7-19.8-14.7,0-25.5,4.2-32.4,9.3-1.5,1.2-3,.9-3.9-.6l-13.5-23.7c-.9-1.8-.6-3.3.9-4.2,12.3-8.7,30-14.4,54-14.4,47.4,0,64.5,16.2,64.5,52.5v93a2.83,2.83,0,0,1-3,3Zm-3.6-48.3v-9.9a1.59,1.59,0,0,0-1.8-1.8h-20.4c-17.7,0-25.8,5.1-25.8,16.5,0,10.2,7.2,15.3,21,15.3C1481.4,250.37,1490.4,243.77,1490.4,230.27Z"></path><path class="cls-1" d="M1562.7,278.57a2.83,2.83,0,0,1-3-3V136.37a2.83,2.83,0,0,1,3-3h36a2.83,2.83,0,0,1,3,3v12.3h.3c6.9-11.7,20.1-18.6,37.8-18.6,9.6,0,19.2,3.3,25.5,8.7a2.94,2.94,0,0,1,.9,4.2l-16.8,30.6c-1.2,1.5-2.4,1.5-4.2.6-6.9-4.5-13.8-6.9-21-6.6-15.6.6-22.5,12-22.5,31.5v76.5a2.83,2.83,0,0,1-3,3Z"></path><path class="cls-1" d="M1729.2,280.37c-33.6,0-46.2-15-46.2-48.3v-66a1.59,1.59,0,0,0-1.8-1.8h-9a2.83,2.83,0,0,1-3-3v-24.9a2.83,2.83,0,0,1,3-3h9a1.59,1.59,0,0,0,1.8-1.8v-39a2.83,2.83,0,0,1,3-3h35.7a2.83,2.83,0,0,1,3,3v39a1.59,1.59,0,0,0,1.8,1.8h18.6a2.83,2.83,0,0,1,3,3v24.9a2.83,2.83,0,0,1-3,3h-18.6a1.59,1.59,0,0,0-1.8,1.8v64.2c0,10.8,3.6,14.4,13.2,14.4h7.2a2.83,2.83,0,0,1,3,3v29.7a2.83,2.83,0,0,1-3,3Z"></path></svg> 