<?xml version="1.0" encoding="UTF-8"?> <svg xmlns="http://www.w3.org/2000/svg" xmlns:xlink="http://www.w3.org/1999/xlink" width="38px" height="38px" viewBox="0 0 38 38" version="1.1"><title>Telegram_2019_Logo</title><defs><linearGradient x1="66.6705202%" y1="16.6705202%" x2="41.6705202%" y2="75%" id="linearGradient-1"><stop stop-color="#37AEE2" offset="0%"></stop><stop stop-color="#1E96C8" offset="100%"></stop></linearGradient></defs><g id="Marketing-Tools" stroke="none" stroke-width="1" fill="none" fill-rule="evenodd"><g id="Desktop-HD" transform="translate(-1138.000000, -5548.000000)" fill-rule="nonzero"><g id="Telegram_2019_Logo" transform="translate(1138.000000, 5548.000000)"><circle id="Oval" fill="url(#linearGradient-1)" cx="19" cy="19" r="19"></circle><path d="M7.28745668,18.2745572 L19.7964512,12.635031 C21.0312447,12.0475803 25.2188051,10.1677382 25.2188051,10.1677382 C25.2188051,10.1677382 27.1515253,9.34530734 26.9904652,11.3426395 C26.9367786,12.1650705 26.5072852,15.0435786 26.0777918,18.1570671 L24.735625,27.3800423 C24.735625,27.3800423 24.6282517,28.7311788 23.7155783,28.966159 C22.8029048,29.2011393 21.299678,28.1437281 21.0312447,27.9087478 C20.816498,27.7325127 17.0047443,25.0889847 15.6088908,23.7965933 C15.2330841,23.4441229 14.8035907,22.7391821 15.6625775,21.9167512 C17.5952977,19.9781641 19.9038246,17.5696164 21.299678,16.0422447 C21.9439181,15.337304 22.5881582,13.6924421 19.9038246,15.6897743 L12.3340038,21.2705555 C12.3340038,21.2705555 11.4750171,21.8580062 9.86441693,21.3293006 C8.25381677,20.800595 6.37478326,20.0956542 6.37478326,20.0956542 C6.37478326,20.0956542 5.08630314,19.2144782 7.28745668,18.2745572 Z" id="Path" fill="#FFFFFF"></path></g></g></g></svg> 