<?xml version="1.0" encoding="UTF-8"?> <svg xmlns="http://www.w3.org/2000/svg" xmlns:xlink="http://www.w3.org/1999/xlink" width="221px" height="164px" viewBox="0 0 221 164" version="1.1"><title>Vouchers</title><g id="Marketing-Tools" stroke="none" stroke-width="1" fill="none" fill-rule="evenodd"><g id="Desktop-HD" transform="translate(-759.000000, -1153.000000)" fill-rule="nonzero"><g id="Group" transform="translate(757.000000, 1153.000000)"><g id="Artboard-10" transform="translate(1.715385, 0.000000)"><path d="M218.505692,62.375969 L219.209,61.8600775 L219.496327,61.6511628 L219.260462,61.3910853 C218.308904,60.3339378 217.709702,59.0099426 217.545077,57.6007752 C217.681272,56.7620327 217.972042,55.955494 218.402769,55.2217054 L218.582885,54.9189922 L217.853846,54.5736434 C218.005986,54.1287537 218.202819,53.7002335 218.441365,53.2945736 L218.617192,52.9918605 L144.774173,18.9131783 L144.649808,18.955814 C139.98056,20.523011 135.02204,21.0513528 130.124788,20.5034884 L130.000423,20.5034884 L101.040442,41.6465116 L101.229135,41.9065891 L101.229135,41.9065891 L101.229135,42.2775194 L101.229135,42.2775194 L100.988981,42.4906977 C102.911418,44.684148 103.24416,47.8404913 101.820942,50.3825581 L101.649404,50.6852713 L102.425615,51.0391473 C102.224058,51.4655039 101.996769,51.8918605 101.782346,52.3182171 L101.610808,52.6209302 L175.303731,86.4736434 L175.423808,86.5290698 L175.543885,86.4864341 C180.200265,84.9280289 185.140087,84.3870322 190.026019,84.9003876 L190.150385,84.9003876 L219.15325,63.7957364 L219.440577,63.5868217 L219.200423,63.3224806 C218.941736,63.0275561 218.709286,62.7108636 218.505692,62.375969 L218.505692,62.375969 Z" id="Path" fill="#1E1E1E"></path><path d="M108.871173,20.1069767 C109.299717,18.6059015 109.321908,17.0189279 108.9355,15.5065891 C108.871173,12.9953488 107.739019,10.4670543 105.624808,8.20736434 L105.530462,7.95581395 L105.440404,7.98565891 C102.494231,4.94573643 98.1157115,2.73294574 93.1025,1.74806202 C87.9563462,0.741860465 82.8101923,1.07868217 78.5817692,2.69883721 L78.1186154,2.88643411 L77.9256346,2.96317829 C74.0016923,4.62170543 71.3342692,7.28643411 70.4079615,10.4713178 C70.3479231,10.6887597 70.2964615,10.8976744 70.2535769,11.1321705 C66.2558373,10.6562781 62.2015555,11.1206901 58.4174231,12.4879845 C58.2630385,12.5434109 58.1086538,12.6073643 57.9542692,12.6713178 L57.7612885,12.748062 C53.8373462,14.4065891 51.1699231,17.0713178 50.2436154,20.2562016 C49.8382546,21.7169264 49.8146373,23.2563458 50.175,24.7286822 C50.2135962,27.3124031 51.3886346,29.9089147 53.6057692,32.2453488 C56.5605192,35.3406977 60.9776346,37.5918605 66.0423077,38.5852713 C67.9419751,38.9594513 69.8736992,39.1493604 71.8102885,39.1523256 C74.7954162,39.1797527 77.7603969,38.6638932 80.55875,37.6302326 C80.78175,37.5449612 80.9875962,37.4554264 81.2191731,37.3616279 C85.1431154,35.7073643 87.80625,33.0468992 88.7111154,29.8748062 C88.7754423,29.6488372 88.8269038,29.4228682 88.8740769,29.1926357 C89.905247,29.3042365 90.9416631,29.3611647 91.9789231,29.3631783 C94.9627948,29.3923013 97.9266771,28.87638 100.723096,27.8410853 C100.950385,27.7600775 101.151942,27.6662791 101.383519,27.5767442 C105.307462,25.9352713 107.966308,23.2790698 108.871173,20.1069767 Z" id="Path" fill="#1E1E1E"></path><path d="M167.966173,111.168217 C159.260596,100.202326 123.271827,83.7236434 101.769481,73.8748062 C96.4260577,71.4275194 92.2019231,69.496124 89.6288462,68.2170543 C69.4301923,58.0953488 51.9375577,52.9662791 37.6140962,52.9662791 L36.9665385,52.9662791 C25.5377885,53.0899225 15.9530769,56.4155039 7.64203846,63.1348837 C3.35357692,66.6139535 1.05496154,71.5724806 0.853403846,77.8655039 C0.497461538,89.0189922 7.10598077,102.210465 13.4314615,108.034496 C21.2107308,115.197287 44.0553654,127.889922 85.3232308,147.979845 C102.867327,156.506977 117.392346,161.469767 129.738827,163.102713 C132.60959,163.496256 135.50361,163.698516 138.401519,163.70814 C147.733212,163.70814 155.482462,161.384496 161.919442,156.681783 C169.570058,151.096512 174.201596,143.818605 175.312308,135.632558 C176.44875,127.250388 173.841365,118.565504 167.966173,111.168217 Z" id="Path" fill="#1E1E1E"></path><path d="M104.30825,43.0620155 C106.323827,45.355814 105.243135,48.6899225 103.746462,51.3503876 L177.113462,85.0751938 C181.81221,83.4941234 186.800435,82.9471347 191.732827,83.472093 L220.637058,62.4399225 C218.530035,60.1029491 218.183335,56.6802049 219.779365,53.9724806 L146.382346,20.094186 C141.670662,21.6837567 136.663776,22.2180824 131.720096,21.6589147 L104.273942,42.6996124" id="Path" fill="#FF3A47"></path><path d="M177.113462,85.4162791 L176.997673,85.3651163 L103.296173,51.5081395 L103.467712,51.2096899 C104.81,48.8135659 106.006481,45.4922481 104.068096,43.2837209 L104.471212,42.929845 L104.093827,42.448062 L131.62575,21.3178295 L131.754404,21.3178295 C136.65165,21.8677937 141.610629,21.339403 146.279423,19.770155 L146.403788,19.7317829 L220.225365,53.8104651 L220.04525,54.1131783 C218.516073,56.7088342 218.863661,59.9917442 220.902942,62.2139535 L221.138808,62.474031 L220.851481,62.6872093 L191.848615,83.7918605 L191.72425,83.7918605 C186.838313,83.2763445 181.898027,83.8173921 177.242115,85.377907 L177.113462,85.4162791 Z M104.209615,51.2182171 L177.156346,84.729845 C181.822446,83.188604 186.763812,82.6466253 191.655635,83.1395349 L220.178192,62.3844961 C218.24331,60.0521976 217.905205,56.7932916 219.3205,54.1174419 L146.365192,20.4352713 C141.681681,21.9847107 136.717637,22.5140042 131.810154,21.9872093 L104.574135,42.8786822 C106.233769,44.805814 106.100827,47.6794574 104.209615,51.2182171 Z" id="Shape" fill="#221E14"></path><path d="M102.923077,41.1775194 C104.944416,43.4781251 105.288053,46.7954674 103.780769,49.4573643 L177.164923,83.1395349 C181.865104,81.5582472 186.854773,81.0112607 191.788577,81.5364341 L220.688519,60.5042636 C218.573236,58.1727521 218.217738,54.7487506 219.809385,52.0368217 L146.420942,18.1713178 C141.708507,19.7575194 136.702063,20.2903422 131.758692,19.7317829 L102.897346,40.8065891" id="Path" fill="#FF8495"></path><path d="M177.147769,83.4934109 L177.031981,83.4379845 L103.351923,49.5852713 L103.523462,49.2825581 C104.946104,46.7389115 104.613457,43.5817624 102.6915,41.3864341 L103.090327,41.0410853 L102.725808,40.5465116 L131.655769,19.3992248 L131.780135,19.3992248 C136.677392,19.9449979 141.635455,19.4167047 146.305154,17.8515504 L146.429519,17.8089147 L220.251096,51.8875969 L220.075269,52.1903101 C218.546092,54.785966 218.89368,58.068876 220.932962,60.2910853 L221.168827,60.5554264 L220.8815,60.7643411 L191.874346,81.8604651 L191.754269,81.8604651 C186.86692,81.3447332 181.925191,81.8857785 177.267846,83.4465116 L177.147769,83.4934109 Z M104.243923,49.2910853 L177.199231,82.8069767 C181.863481,81.2640557 186.803813,80.7220302 191.694231,81.2166667 L220.2125,60.4616279 C218.277973,58.1275311 217.939946,54.8677001 219.354808,52.1903101 L146.3995,18.5081395 C141.716909,20.0617853 136.751943,20.5911773 131.844462,20.0600775 L103.180385,40.9899225 C105.179314,43.2944853 105.59339,46.5660148 104.231058,49.2910853 L104.243923,49.2910853 Z" id="Shape" fill="#221E14"></path><path d="M108.155,41.4375969 C110.000101,43.5202358 110.319987,46.5346739 108.952654,48.9542636 L176.131404,79.6093023 C180.436121,78.1683294 185.003267,77.6694706 189.519981,78.1468992 L215.941192,59.6003876 C214.002808,57.4686047 213.629712,54.9573643 215.0835,52.4887597 L146.146481,20.9383721 C141.832288,22.3837209 138.42725,22.9678295 133.920077,22.4604651 L108.137846,41.0922481" id="Path" fill="#FF8495"></path><path d="M176.11425,79.9546512 L175.998462,79.8992248 L108.498077,49.0992248 L108.669615,48.7965116 C109.968307,46.4966109 109.665763,43.6322897 107.914846,41.6507752 L108.296519,41.3139535 L107.949154,40.8406977 L133.834308,22.1321705 L133.958673,22.1321705 C138.697423,22.6608527 142.10675,21.9488372 146.047846,20.6228682 L146.167923,20.5844961 L146.283712,20.6356589 L215.546654,52.3310078 L215.366538,52.6337209 C214.015673,54.9232558 214.303,57.3236434 216.181346,59.3658915 L216.4215,59.6344961 L189.60575,78.4624031 L189.485673,78.4624031 C185.015419,77.9960927 180.496563,78.4889726 176.234327,79.9077519 L176.11425,79.9546512 Z M109.394365,48.8050388 L176.148558,79.2639535 C180.429161,77.861439 184.958466,77.369013 189.442788,77.8186047 L215.47375,59.5406977 C213.685462,57.4089147 213.393846,54.9914729 214.646077,52.6379845 L146.133615,21.2879845 C142.183942,22.6011628 138.753173,23.3131783 134.010135,22.7972868 L108.442327,41.2755814 C110.252025,43.3674706 110.626983,46.3329269 109.394365,48.8050388 L109.394365,48.8050388 Z" id="Shape" fill="#221E14"></path><g id="Group" transform="translate(159.959615, 45.193798)"><path d="M11.7675385,8.72325581 C11.596,8.65077519 11.4330385,8.57403101 11.2700769,8.48875969 C10.8906611,8.28542372 10.5341332,8.04244835 10.2065385,7.76395349 C9.77593539,7.41405918 9.46442904,6.94057862 9.31453846,6.40813953 C9.18408859,5.8317517 9.26150124,5.22811839 9.53325,4.70271318 C9.96038698,3.9244841 10.5656289,3.25703306 11.3000962,2.75426357 C12.0941548,2.13363991 12.987039,1.64943949 13.9417885,1.32170543 C14.8285968,1.01324835 15.7505403,0.815608343 16.6864038,0.733333333 C17.5444615,0.660169914 18.4082284,0.688794996 19.2594808,0.818604651 C20.0027486,0.928695298 20.7299111,1.12768304 21.4251538,1.41124031 C21.5966923,1.48372093 21.7596538,1.56046512 21.9183269,1.64573643 C22.2944318,1.84461619 22.6468673,2.08488329 22.969,2.3620155 C23.3891846,2.70715814 23.696683,3.16869614 23.8524231,3.6879845 C23.9866233,4.2395614 23.9165969,4.82073652 23.6551538,5.3251938 C23.2391924,6.07789477 22.6517128,6.72329113 21.9397692,7.20968992 C21.0691163,7.89638683 20.0893345,8.43386761 19.0407692,8.8 C18.1214991,9.11888493 17.1641776,9.3166913 16.1932308,9.38837209 C15.3532835,9.44852006 14.5090684,9.40411948 13.6801923,9.25620155 C13.0258841,9.14450139 12.3849314,8.96590504 11.7675385,8.72325581 L11.7675385,8.72325581 Z M12.9811731,5.94341085 C12.9620625,6.4119712 13.2472946,6.83991367 13.6887692,7.00503876 L13.9160577,7.11162791 C14.5842077,7.35792837 15.3103689,7.40388385 16.0045385,7.24379845 C16.9882199,7.02325928 17.9043907,6.57148833 18.67625,5.92635659 C19.5339423,5.26550388 20.01425,4.68139535 20.1000192,4.17403101 C20.1857885,3.66666667 19.9670769,3.36821705 19.4524615,3.09534884 C19.3839924,3.0553366 19.3122663,3.02110795 19.2380385,2.99302326 C18.5542785,2.73317844 17.8092131,2.67688219 17.0938077,2.83100775 C16.1205402,3.03774624 15.2124499,3.47671802 14.4478269,4.11007752 C13.4986474,4.8377261 13.0040449,5.44883721 12.9640192,5.94341085" id="Shape" fill="#FFFFFF"></path><path d="M15.4384615,9.74651163 C14.8273137,9.75047498 14.21713,9.69766149 13.6158654,9.58875969 C12.9361145,9.46627836 12.2707839,9.27483834 11.6303077,9.01744186 L11.6303077,9.01744186 C11.4501923,8.94069767 11.2743654,8.85968992 11.1071154,8.77015504 C10.7052172,8.55808024 10.3283624,8.3021054 9.98353846,8.00697674 C9.50330512,7.61513522 9.15718284,7.08481396 8.99290385,6.48914729 C8.84611052,5.84734412 8.92954217,5.17471685 9.22876923,4.5875969 C9.67473077,3.759671 10.3127576,3.0493462 11.0899615,2.51550388 C11.9132365,1.87506138 12.8378452,1.37509798 13.826,1.03604651 C14.7378393,0.719923413 15.6857426,0.517980439 16.6478077,0.434883721 C17.5314748,0.357578002 18.4212864,0.386207325 19.2980769,0.520155039 C20.0666547,0.633307723 20.818428,0.839489522 21.5366538,1.13410853 C21.7167692,1.21085271 21.8925962,1.29186047 22.0598462,1.38139535 C22.455915,1.59263807 22.8270217,1.84718655 23.1662692,2.14031008 C23.6323897,2.52618152 23.9751717,3.03885145 24.1526154,3.61550388 C24.305841,4.24119585 24.2282379,4.90077488 23.9339038,5.4744186 C23.5008488,6.27671552 22.8819912,6.96505228 22.1284615,7.48255814 C21.2262947,8.19036722 20.2117458,8.74368881 19.1265385,9.11976744 C18.1806401,9.44665208 17.1960845,9.65015907 16.1975192,9.7251938 C15.9616538,9.74224806 15.7000577,9.74651163 15.4384615,9.74651163 Z M11.8833269,8.42906977 C12.4804466,8.6695787 13.1014217,8.84678681 13.7359423,8.95775194 C14.5378089,9.10202629 15.3547971,9.14500223 16.1675,9.08565891 C17.1105284,9.01521221 18.0403414,8.82316315 18.9335577,8.51434109 C19.9469091,8.15744156 20.8944085,7.63746968 21.7382115,6.9751938 C22.4049848,6.51909706 22.955617,5.91472803 23.3463846,5.21007752 C23.5792746,4.77480158 23.6448237,4.27012412 23.5307885,3.79031008 C23.3896469,3.33302234 23.116808,2.92688089 22.746,2.62209302 C22.4425219,2.35975358 22.1102028,2.13234233 21.7553654,1.94418605 C21.6052692,1.86317829 21.4465962,1.79069767 21.2879231,1.72248062 C20.6176504,1.44852105 19.9163355,1.25667167 19.1994423,1.15116279 C18.3720858,1.027261 17.5329846,1.0000734 16.6992692,1.07015504 C15.7897508,1.14996697 14.8937393,1.34187779 14.0318462,1.64147287 C13.111888,1.95906056 12.2511421,2.4258328 11.4845,3.02286822 C10.7921934,3.49572591 10.2196819,4.12183266 9.812,4.85193798 C9.5772513,5.30638617 9.50756694,5.8274909 9.61473077,6.32713178 C9.74568211,6.79732619 10.0216577,7.21485096 10.4038077,7.52093023 C10.7134314,7.78575273 11.0513893,8.01594572 11.4115962,8.20736434 C11.5616923,8.28837209 11.7203654,8.36085271 11.8833269,8.42906977 L11.8833269,8.42906977 Z M15.0868077,7.64883721 C14.6459635,7.65380196 14.2085619,7.57117811 13.8002692,7.40581395 C13.7139678,7.37026736 13.6295212,7.33042364 13.54725,7.28643411 C12.9860563,7.06880788 12.6306651,6.51554786 12.6681154,5.91782946 C12.7195769,5.32093023 13.2470577,4.63875969 14.2805769,3.85852713 C15.085839,3.19180015 16.0427474,2.73075971 17.0680769,2.51550388 C17.8389965,2.35672488 18.6395038,2.42033452 19.3752692,2.69883721 C19.4567357,2.73115758 19.5355888,2.76964255 19.6111346,2.81395349 C20.4216538,3.24031008 20.5031346,3.8244186 20.4259423,4.23372093 C20.3230192,4.82209302 19.8169808,5.46162791 18.8820962,6.18217054 C18.0672411,6.85367439 17.1050627,7.32539873 16.0731538,7.55930233 C15.7518967,7.61723606 15.4261682,7.6471946 15.0996731,7.64883721 L15.0868077,7.64883721 Z M17.9557885,3.07829457 C17.6870376,3.07896419 17.4188051,3.10178133 17.1538462,3.14651163 C16.2323553,3.3462945 15.3731189,3.76464213 14.6493846,4.36589147 C13.5686923,5.19728682 13.3113846,5.69612403 13.2899423,5.97325581 L13.2899423,5.97325581 C13.2899423,6.16085271 13.3113846,6.44651163 13.8302885,6.72364341 C13.8954251,6.75908937 13.9627445,6.79041764 14.0318462,6.81744186 C14.641858,7.0392948 15.3040354,7.07784585 15.9359231,6.92829457 C16.866271,6.71281564 17.7328528,6.28350036 18.4661154,5.6748062 C19.4524615,4.91589147 19.7226346,4.39573643 19.7740962,4.11860465 C19.8084038,3.91395349 19.7740962,3.64108527 19.2895,3.37674419 C19.2287407,3.34263543 19.1656946,3.31271994 19.1008077,3.2872093 C18.741369,3.14267209 18.3563222,3.07161995 17.9686538,3.07829457 L17.9557885,3.07829457 Z" id="Shape" fill="#221E14"></path><polygon id="Path" fill="#FFFFFF" points="33.5357692 7.19263566 36.6706346 8.52286822 4.5715 15.1356589 1.43663462 13.8054264"></polygon><path d="M4.53719231,15.4682171 L0.364519231,13.6988372 L33.5700769,6.87713178 L37.74275,8.65077519 L4.53719231,15.4682171 Z M2.50446154,13.9120155 L4.60580769,14.8031008 L35.6028077,8.40775194 L33.5014615,7.51666667 L2.50446154,13.9120155 Z" id="Shape" fill="#221E14"></path><path d="M26.8972308,19.446124 C26.0231921,20.1369454 25.0389582,20.6773652 23.9853654,21.0449612 C23.0748211,21.3597484 22.125594,21.5504996 21.1635577,21.6120155 C20.3289413,21.6671875 19.4906671,21.6199324 18.6676731,21.4713178 C18.0097315,21.3571241 17.365753,21.1741984 16.7464423,20.9255814 C16.5620385,20.8488372 16.3862115,20.7635659 16.2189615,20.674031 C15.8372273,20.4723118 15.4791074,20.2292317 15.1511346,19.9492248 C14.7208676,19.6009523 14.406874,19.1312095 14.2505577,18.601938 C14.1116242,18.0385909 14.1896386,17.4439525 14.4692692,16.9348837 C14.9087408,16.160107 15.5185869,15.4940451 16.2532692,14.9864341 C17.0455499,14.371564 17.9315658,13.8865084 18.8778077,13.5496124 C19.7576419,13.2366174 20.6743172,13.0374379 21.6052692,12.9569767 C22.4636007,12.8838472 23.3277064,12.9153472 24.1783462,13.0507752 C24.9274157,13.1619156 25.6602995,13.3623245 26.3611731,13.6476744 C26.5327115,13.720155 26.6999615,13.8011628 26.8586346,13.8864341 C27.232635,14.0849084 27.5835403,14.3236829 27.9050192,14.5984496 C28.31952,14.9473007 28.6184545,15.4124174 28.7627115,15.9329457 C28.889068,16.4849572 28.8193667,17.0634336 28.5654423,17.570155 C28.1651001,18.3169298 27.5936295,18.9595708 26.8972308,19.446124 Z M20.9405577,19.446124 C21.9287797,19.2322542 22.8500142,18.7830894 23.6251346,18.1372093 C24.4828269,17.4749354 24.9545577,16.8936693 25.0403269,16.3934109 C25.1132308,15.9670543 24.8859423,15.596124 24.36275,15.3189922 C24.2898462,15.2806202 24.2126538,15.2422481 24.1311731,15.2081395 C23.4669032,14.9602741 22.745068,14.9070056 22.0512692,15.0546512 C21.0800016,15.2560045 20.1748234,15.6957065 19.4181538,16.3337209 C18.4704038,17.0585271 17.9772308,17.6682171 17.9300577,18.1627907 C17.905352,18.6257519 18.1844821,19.0514966 18.6205,19.2158915 C18.6898344,19.2542659 18.7614394,19.2884367 18.8349231,19.3182171 C19.5084568,19.566606 20.2402936,19.6140252 20.9405577,19.4546512" id="Shape" fill="#FFFFFF"></path><path d="M20.4816923,21.9531188 C19.1598909,21.9555588 17.8498153,21.7066422 16.6220769,21.2197674 C16.4333846,21.1387597 16.2489808,21.0492248 16.0688654,20.9554264 C15.6669302,20.7434124 15.2900688,20.4874331 14.9452885,20.1922481 C14.4688603,19.801666 14.1196379,19.2793897 13.9417885,18.6914729 C13.7854348,18.0511451 13.8708885,17.3760354 14.1819423,16.794186 C14.6398159,15.9728334 15.2827117,15.2680023 16.0602885,14.7348837 C16.8793231,14.0977987 17.7958258,13.5954249 18.7748846,13.2468992 C19.6812678,12.9263688 20.625304,12.7228956 21.5838269,12.6414729 C22.4734376,12.5625518 23.3694709,12.5940603 24.25125,12.7352713 C25.0254787,12.8501823 25.7828878,13.0577617 26.5069808,13.3534884 C26.6870962,13.4302326 26.8629231,13.5155039 27.0344615,13.6050388 C27.4287745,13.8153027 27.7984126,14.0684005 28.1365962,14.3596899 C28.6045131,14.7477792 28.9425532,15.2682535 29.1057885,15.851938 C29.2544559,16.4746676 29.1785715,17.1295203 28.8913654,17.7023256 C28.4620701,18.5009531 27.8475817,19.1864125 27.0987885,19.701938 L27.0987885,19.701938 C26.1963438,20.4114417 25.1819925,20.9675369 24.0968654,21.3476744 C23.1602846,21.6725928 22.1835352,21.8691037 21.1935769,21.9317829 C20.9448462,21.9488372 20.7089808,21.9531188 20.4816923,21.9531188 Z M22.5487308,13.2383301 C22.2485385,13.2383301 21.9440577,13.2383301 21.631,13.2767442 C20.726486,13.3553456 19.8358194,13.5487792 18.9807308,13.8523256 C18.0670242,14.1759879 17.2124396,14.6454409 16.4505385,15.2422481 C15.7554163,15.7170305 15.1776985,16.3424167 14.7608846,17.0713178 C14.5165728,17.5118561 14.4447815,18.0266642 14.5593269,18.5166667 C14.6986425,18.9862647 14.9783353,19.4026248 15.3612692,19.7104651 C15.671374,19.9734491 16.0092838,20.2021797 16.3690577,20.3926357 C16.5320192,20.477907 16.6992692,20.5589147 16.8708077,20.6313953 C17.4691645,20.8716217 18.091684,21.0474309 18.7277115,21.155814 C19.5251768,21.3004142 20.3374182,21.3476631 21.1464038,21.2965116 C22.0790694,21.2329477 22.9991195,21.046565 23.8824423,20.7422481 C24.9015929,20.3855938 25.8538155,19.8625341 26.6999615,19.1945736 C27.3656379,18.7420663 27.9150349,18.1403618 28.3038462,17.4379845 C28.5276348,16.9982731 28.5912826,16.4950597 28.4839615,16.0139535 C28.3551816,15.5529966 28.0854213,15.1432554 27.7120385,14.8414729 C27.4118743,14.5800715 27.0823367,14.3540249 26.7299808,14.1678295 C26.5755962,14.0868217 26.4212115,14.0100775 26.2539615,13.9418605 C25.5778265,13.6667828 24.8708737,13.4735352 24.1483269,13.3662791 C23.6196231,13.279579 23.0845761,13.2367955 22.5487308,13.2383301 Z M20.0442692,19.8596899 C19.5873456,19.8690653 19.1333665,19.7848919 18.7105577,19.6124031 C18.627724,19.5800546 18.5474475,19.5415746 18.4704038,19.4972868 C17.9153336,19.2801077 17.56751,18.7285496 17.6127115,18.1372093 C17.6641731,17.5403101 18.1916538,16.8581395 19.2208846,16.077907 C20.0225074,15.4131796 20.9772329,14.9561655 21.9998077,14.7476744 C22.7545962,14.5919708 23.5383424,14.6525914 24.2598269,14.9224806 C24.3462135,14.959419 24.4306616,15.0006864 24.5128462,15.046124 C25.3319423,15.4724806 25.4262885,16.0523256 25.3705385,16.4573643 C25.2761923,17.0414729 24.7744423,17.6810078 23.8352692,18.4015504 C23.0182315,19.0779619 22.0485525,19.5475521 21.0091731,19.770155 L21.0091731,19.770155 C20.6908348,19.8283122 20.3679343,19.8582746 20.0442692,19.8596899 L20.0442692,19.8596899 Z M22.8875192,15.3104651 C22.6244675,15.3114101 22.3619562,15.3342287 22.1027308,15.3786822 C21.1849338,15.5707653 20.3290602,15.9852337 19.6111346,16.5852713 C18.5304423,17.4124031 18.2774231,17.9155039 18.2516923,18.1926357 C18.2516923,18.3844961 18.2516923,18.6658915 18.7748846,18.9344961 C18.8356808,18.9685344 18.8987219,18.9984476 18.9635769,19.024031 C19.5793756,19.2460163 20.2466502,19.2859981 20.8848077,19.1391473 C21.820965,18.933814 22.6933877,18.506717 23.4278654,17.894186 C24.4142115,17.1352713 24.6758077,16.6364341 24.7144038,16.3550388 C24.7444231,16.1674419 24.7144038,15.8860465 24.1997885,15.6089147 C24.1347604,15.5720144 24.0674387,15.5392611 23.9982308,15.5108527 C23.6447776,15.3723443 23.2673869,15.3042579 22.8875192,15.3104651 L22.8875192,15.3104651 Z" id="Shape" fill="#221E14"></path></g><path d="M172.717788,43.5693798 L169.685846,45.8972868 L162.253942,42.7465116 L158.767423,44.9166667 C158.994712,44.9763566 159.264885,45.0531008 159.582231,45.1596899 C159.899577,45.2662791 160.186904,45.3686047 160.439923,45.4794574 C160.847327,45.6542636 161.224712,45.8333333 161.576365,46.0166667 C162.179043,46.3286478 162.74319,46.7092394 163.257442,47.1507752 C163.872659,47.6476647 164.33484,48.3066232 164.591154,49.0523256 C164.785606,49.728078 164.719863,50.4516159 164.40675,51.0817829 C163.987362,51.8913057 163.378463,52.5887905 162.631327,53.1155039 C161.795067,53.7421964 160.868286,54.2395512 159.882423,54.5906977 C158.775735,54.9951295 157.623692,55.2642878 156.451654,55.3922481 C155.202658,55.5284981 153.941963,55.5199133 152.694962,55.3666667 C151.393382,55.2140816 150.120835,54.8751741 148.916827,54.3604651 C148.487981,54.1856589 148.123462,54.0023256 147.776096,53.8189922 C147.174202,53.512788 146.614879,53.1301272 146.112173,52.6806202 C145.540651,52.1911865 145.122411,51.5489714 144.907115,50.8302326 C144.743672,50.2104951 144.801258,49.5535998 145.070077,48.9713178 C145.384372,48.3057389 145.839272,47.7153296 146.403788,47.2403101 L151.056769,49.2143411 C150.651917,49.5796117 150.446441,50.1148656 150.503558,50.6554264 C150.563596,51.0604651 150.932404,51.4356589 151.575673,51.7852713 C151.725769,51.8620155 151.888731,51.9387597 152.068846,52.0155039 C152.959473,52.3754447 153.928589,52.5002872 154.882077,52.377907 C155.902557,52.2875665 156.875737,51.9088393 157.686731,51.2864341 C158.58159,50.6014212 158.91609,49.9078811 158.690231,49.205814 C158.512974,48.6572351 157.952615,48.1313953 157.009154,47.6282946 C156.756135,47.4918605 156.468808,47.3554264 156.151462,47.201938 C155.373821,46.8750646 154.530423,46.5666667 153.621269,46.2767442 C152.707827,45.9868217 151.7515,45.7139535 150.760865,45.4496124 L161.301904,38.7089147 L172.717788,43.5693798 Z" id="Path" fill="#FFFFFF"></path><path d="M154.710538,55.8058142 C154.026909,55.8058142 153.343864,55.76606 152.664942,55.6864341 C151.335787,55.5257615 150.036293,55.1783704 148.805327,54.6546512 C148.376481,54.4755814 147.999096,54.2922481 147.643154,54.1003876 C147.021376,53.7803594 146.444636,53.3804182 145.927769,52.9108527 C145.314619,52.3810239 144.867965,51.6868083 144.641231,50.9112403 C144.458934,50.2216189 144.524143,49.4903888 144.825635,48.8434109 C145.158711,48.1366144 145.639734,47.508664 146.236538,47.0015504 L146.386635,46.8651163 L151.652865,49.0992248 L151.335519,49.4317829 C150.999155,49.7267265 150.826675,50.1649518 150.872365,50.6085271 C150.91525,50.9027132 151.228308,51.2096899 151.772942,51.503876 C151.914462,51.5763566 152.068846,51.6488372 152.240385,51.7213178 C153.082039,52.0561652 153.995315,52.1735125 154.894942,52.0624031 C155.857858,51.9763801 156.775947,51.6183774 157.540923,51.0306202 C158.321423,50.4294574 158.613038,49.8666667 158.432923,49.303876 C158.282827,48.8391473 157.768212,48.370155 156.906231,47.9096899 C156.6575,47.7775194 156.37875,47.6453488 156.074269,47.5174419 C155.3195,47.1976744 154.474673,46.8864341 153.574096,46.6007752 C152.673519,46.3151163 151.717192,46.0422481 150.726558,45.777907 L150.02325,45.5945736 L161.28475,38.372093 L173.352481,43.4883721 L169.733019,46.2682171 L162.279673,43.1046512 L159.547923,44.8100775 L159.685154,44.8527132 C160.023942,44.9678295 160.315558,45.0744186 160.572865,45.1852713 C161.001712,45.3643411 161.374808,45.5476744 161.73075,45.7352713 C162.355834,46.0549025 162.941544,46.4454937 163.476154,46.8992248 C164.13639,47.4377298 164.631203,48.1497876 164.904212,48.9542636 C165.120595,49.7034941 165.048745,50.5059739 164.702654,51.2054264 C164.260187,52.0546879 163.618928,52.785807 162.832885,53.3372093 C161.971045,53.9820541 161.017026,54.4950956 160.0025,54.8593023 C158.870751,55.2721088 157.692837,55.5469823 156.494538,55.677907 C155.902894,55.7551392 155.307207,55.797848 154.710538,55.8058142 L154.710538,55.8058142 Z M146.476692,47.6155039 C146.013692,48.0339221 145.639042,48.5397337 145.374558,49.1034884 C145.132756,49.6194498 145.081144,50.2035141 145.22875,50.7534884 C145.426752,51.4161308 145.812323,52.0081509 146.339462,52.4589147 C146.823648,52.8871007 147.359533,53.2537402 147.934769,53.5503876 C148.277846,53.7294574 148.650942,53.9085271 149.049769,54.0790698 C150.227335,54.5798348 151.470586,54.9114536 152.742135,55.0639535 C153.964565,55.2044379 155.199205,55.2044379 156.421635,55.0639535 C157.567655,54.9403568 158.693996,54.6768738 159.775212,54.2794574 C160.730176,53.941241 161.628079,53.4611143 162.438346,52.8554264 C163.145046,52.3588343 163.721549,51.700874 164.119423,50.9368217 C164.401321,50.3779629 164.461039,49.7340149 164.286673,49.1333333 C164.046729,48.4453775 163.61731,47.8382258 163.047308,47.3810078 C162.55198,46.9551165 162.007879,46.588764 161.426269,46.2895349 C161.087481,46.1104651 160.714385,45.9356589 160.319846,45.7651163 C160.075404,45.6627907 159.805231,45.5604651 159.462154,45.453876 C159.119077,45.3472868 158.900365,45.2748062 158.673077,45.2193798 L157.944038,45.0317829 L162.206769,42.3755814 L169.621519,45.522093 L172.070231,43.6418605 L161.349077,39.079845 L151.554231,45.3515504 C152.309,45.5562016 153.038038,45.777907 153.728481,45.9910853 C154.6505,46.2852713 155.512481,46.6007752 156.301558,46.9290698 C156.623192,47.0655039 156.919096,47.2062016 157.184981,47.3554264 C158.214212,47.9011628 158.814596,48.4810078 159.020442,49.1162791 C159.290615,49.9689922 158.917519,50.7705426 157.905442,51.5465116 C157.045573,52.2056288 156.014794,52.6078573 154.933538,52.7062016 C153.925837,52.8298879 152.903054,52.6963627 151.961635,52.3182171 C151.772942,52.2414729 151.601404,52.1562016 151.442731,52.0751938 C150.687962,51.6744186 150.284846,51.2224806 150.207654,50.7108527 C150.141029,50.2291935 150.267309,49.7407844 150.559308,49.3507752 L146.476692,47.6155039 Z" id="Shape" fill="#221E14"></path><path d="M151.502769,33.972093 C152.03306,34.2450092 152.533234,34.572236 152.995154,34.9484496 C153.569946,35.3822393 154.022027,35.9565453 154.307423,36.6155039 C154.523002,37.1555843 154.512192,37.7589801 154.277404,38.2910853 C153.978809,38.9210353 153.522531,39.464216 152.952269,39.8686047 C152.455457,40.2474855 151.902917,40.5480368 151.314077,40.7596899 C150.701822,40.9858154 150.068223,41.1500804 149.422865,41.25 C148.780282,41.3484579 148.130158,41.3898358 147.480192,41.3736434 C146.876381,41.3609032 146.274971,41.2938335 145.683327,41.1732558 L145.606135,41.2286822 C146.675391,41.9790698 147.220026,42.8133075 147.240038,43.7313953 C147.261481,44.6523256 146.703981,45.551938 145.554673,46.4302326 C144.773286,47.0148438 143.905227,47.4751211 142.981596,47.7945736 C141.944625,48.1657076 140.863387,48.4007658 139.76525,48.4937984 C138.546504,48.5941116 137.320111,48.5511794 136.111481,48.3658915 C134.772042,48.1612545 133.464724,47.7858092 132.221846,47.2488372 C131.754404,47.0527132 131.329846,46.848062 130.935308,46.6434109 C130.347142,46.342362 129.795985,45.9746721 129.292827,45.5476744 C128.688383,45.0736383 128.240341,44.4307191 128.006288,43.7015504 C127.832165,43.059834 127.907176,42.376481 128.216423,41.7872093 C128.606338,41.0516576 129.139945,40.4008409 129.786,39.8728682 L134.147365,41.7232558 C133.509814,42.3315245 133.251077,42.9341085 133.371154,43.5310078 C133.474077,44.0255814 133.888628,44.4661499 134.614808,44.8527132 C134.764904,44.9337209 134.932154,45.0104651 135.112269,45.0872093 C136.109787,45.5085535 137.202824,45.6558016 138.277154,45.5135659 C139.330209,45.3931036 140.330655,44.9908276 141.171865,44.3496124 C141.952365,43.7527132 142.249699,43.1273902 142.063865,42.4736434 C141.915199,41.9563307 141.400583,41.4645995 140.520019,40.9984496 C140.288442,40.8748062 140.026846,40.7511628 139.743808,40.6317829 L138.42725,40.0775194 L141.163288,37.9755814 L142.617077,38.5937984 C143.543601,39.0016732 144.557044,39.1759459 145.567538,39.1011628 C146.476258,39.0441291 147.348336,38.7240006 148.076288,38.1802326 C148.507802,37.8945987 148.770697,37.416485 148.779596,36.9011628 C148.779596,36.496124 148.445096,36.1209302 147.818981,35.7883721 C147.690327,35.720155 147.548808,35.6562016 147.390135,35.5922481 C146.554613,35.2031832 145.620012,35.0753287 144.709846,35.2255814 C143.942687,35.3565578 143.212,35.647136 142.565615,36.0782946 L138.20425,34.227907 C138.971939,33.6774779 139.819287,33.2462004 140.717288,32.9488372 C141.687593,32.6180883 142.696379,32.4117713 143.719212,32.3348837 C144.806967,32.2461071 145.901573,32.2904587 146.978442,32.4670543 C148.135606,32.6567626 149.264837,32.9875511 150.340596,33.451938 C150.752288,33.5926357 151.146827,33.7802326 151.502769,33.972093 Z" id="Path" fill="#FFFFFF"></path><path d="M138.517308,48.8647287 C137.697658,48.8632779 136.879221,48.8020021 136.068596,48.6813953 C134.702095,48.475321 133.368533,48.0926247 132.101769,47.5430233 C131.630038,47.3426357 131.188327,47.1379845 130.793788,46.9248062 C130.18092,46.612099 129.605487,46.2316576 129.078404,45.7906977 C128.430505,45.270824 127.951585,44.5721883 127.701808,43.7825581 C127.506076,43.0683371 127.588783,42.3069791 127.933385,41.6507752 C128.341064,40.8769938 128.899375,40.1914905 129.575865,39.6341085 L129.73025,39.501938 L134.734885,41.6337209 L134.370365,41.9705426 C133.791423,42.5034884 133.559846,42.998062 133.662769,43.479845 C133.74425,43.8763566 134.091615,44.2472868 134.739173,44.579845 C134.884981,44.6565891 135.043654,44.7333333 135.210904,44.805814 C136.155099,45.2125861 137.191838,45.3598318 138.212827,45.2321705 C139.207566,45.1190061 140.152979,44.7403843 140.948865,44.1364341 C141.617865,43.6205426 141.875173,43.1174419 141.725077,42.6015504 C141.605,42.1751938 141.137558,41.7488372 140.344192,41.3224806 C140.121192,41.2031008 139.868173,41.0837209 139.593712,40.9686047 L137.766827,40.1883721 L141.086096,37.6302326 L142.715712,38.3209302 C143.594076,38.7067149 144.553868,38.873557 145.511788,38.8069767 C146.357696,38.7547853 147.16993,38.4584483 147.849,37.9542636 C148.204202,37.7310007 148.421971,37.3444986 148.427942,36.9267442 C148.427942,36.5771318 147.999096,36.2786822 147.634577,36.074031 C146.74623,35.613466 145.739539,35.4278491 144.744154,35.5410853 C144.021933,35.6623734 143.332767,35.9309231 142.72,36.329845 L142.574192,36.427907 L137.53525,34.296124 L137.985538,33.9635659 C138.778609,33.3890326 139.654878,32.9376284 140.584346,32.6248062 C141.579786,32.2829277 142.614068,32.065242 143.663462,31.9767442 C144.777087,31.8893316 145.897241,31.9351373 146.999885,32.1131783 C148.180387,32.3085773 149.332493,32.6464755 150.430654,33.1193798 C150.8595,33.3027132 151.266904,33.4945736 151.635712,33.6864341 L151.635712,33.6864341 C152.183234,33.9707186 152.700475,34.3092585 153.179558,34.6968992 C153.795859,35.1667988 154.280246,35.7863859 154.586173,36.496124 C154.834961,37.1141791 154.822593,37.8058558 154.551865,38.4147287 C154.233224,39.0958094 153.742737,39.6833272 153.128096,40.120155 C152.607093,40.5169417 152.028768,40.8331735 151.412712,41.0581395 C150.779726,41.2923389 150.12455,41.4623244 149.457173,41.5655039 C148.794722,41.6669496 148.124523,41.7097531 147.454462,41.6934109 C147.154269,41.6934109 146.858365,41.6678295 146.571038,41.6379845 C147.157368,42.1813494 147.506738,42.9311188 147.544519,43.7271318 C147.57025,44.746124 146.961288,45.7437984 145.734788,46.6860465 C144.932764,47.2856942 144.043391,47.7601478 143.097385,48.0930233 C142.033501,48.4763166 140.923054,48.7171894 139.795269,48.8093023 C139.396442,48.8476744 138.971885,48.8647287 138.517308,48.8647287 Z M129.863192,40.2437984 C129.312608,40.7239882 128.857333,41.3024314 128.520904,41.9492248 C128.242324,42.4732113 128.174856,43.0829901 128.332212,43.6546512 C128.5514,44.3255338 128.962754,44.9182382 129.515827,45.3600775 C130.002355,45.7684189 130.533106,46.1216288 131.098269,46.4131783 C131.475654,46.6135659 131.900212,46.8139535 132.354788,47.005814 C133.571321,47.5328346 134.851333,47.901138 136.162942,48.1015504 C137.346035,48.2830938 138.5466,48.3245977 139.739519,48.2251938 C140.809531,48.1347319 141.863251,47.9068674 142.874385,47.5472868 C143.759555,47.2337603 144.592255,46.7896447 145.344538,46.229845 C146.3995,45.4197674 146.922692,44.6011628 146.90125,43.7910853 C146.879808,42.9810078 146.378058,42.2263566 145.404577,41.544186 L145.044346,41.2883721 L145.588981,40.8833333 L145.7305,40.9131783 C146.304083,41.0278156 146.886704,41.092017 147.471615,41.1050388 C148.102887,41.119998 148.734266,41.0800526 149.358538,40.9856589 C149.981744,40.8883624 150.593703,40.729834 151.185423,40.5124031 C151.74329,40.3078443 152.266719,40.0203362 152.737846,39.6596899 C153.265147,39.2910568 153.687647,38.7931686 153.964346,38.2143411 C154.169733,37.7589482 154.179028,37.2398924 153.990077,36.7775194 C153.721364,36.1704422 153.302359,35.6409262 152.772154,35.2383721 C152.327059,34.8773377 151.845623,34.5630061 151.335519,34.3003876 L151.335519,34.3003876 C150.988154,34.1127907 150.597904,33.9294574 150.181923,33.7546512 C149.130901,33.30147 148.02754,32.9792571 146.896962,32.7953488 C145.845788,32.6215938 144.77724,32.5757784 143.714923,32.6589147 C142.724304,32.7379479 141.747524,32.9399042 140.807346,33.2600775 C140.122971,33.492029 139.468133,33.8025233 138.856096,34.1852713 L142.518442,35.7414729 C143.168479,35.3445217 143.889113,35.07531 144.641231,34.9484496 C145.613661,34.7895586 146.611678,34.9247267 147.505923,35.3364341 C147.668885,35.4046512 147.814692,35.4728682 147.934769,35.5453488 C148.668096,35.9375969 149.049769,36.398062 149.066923,36.9310078 C149.069016,37.5532742 148.758504,38.1355033 148.23925,38.4829457 C147.462176,39.0658577 146.530391,39.4097284 145.558962,39.472093 C144.497097,39.5504082 143.432183,39.3673633 142.458404,38.9391473 L141.171865,38.3934109 L139.027635,40.0476744 L139.851019,40.3972868 C140.142635,40.5209302 140.412808,40.6488372 140.648673,40.7767442 C141.617865,41.2883721 142.175365,41.8383721 142.364058,42.448062 C142.587058,43.2368217 142.248269,43.9829457 141.356269,44.6651163 C140.470027,45.3398344 139.416199,45.7627499 138.307173,45.8887597 C137.176428,46.0348449 136.026977,45.8757984 134.979327,45.4282946 C134.786346,45.3472868 134.614808,45.2662791 134.451846,45.1810078 C133.645615,44.7546512 133.165308,44.2344961 133.049519,43.646124 C132.940212,43.0021578 133.149291,42.3452422 133.611308,41.8810078 L129.863192,40.2437984 Z" id="Shape" fill="#221E14"></path><path d="M91.4643077,63.9918605 C104.638462,70.5875969 160.692942,94.0073643 171.838654,108.047287 C182.984365,122.087209 183.061558,141.644186 165.684712,154.336822 C148.307865,167.029457 121.642212,162.07093 87.3302308,145.383333 C53.01825,128.695736 22.9432692,113.04845 13.5686923,104.401938 C4.19411538,95.7554264 -6.58707692,70.2550388 7.60773077,58.7562016 C21.8025385,47.2573643 45.2261154,40.8193798 91.4643077,63.9918605 Z" id="Path" fill="#FFDCD2"></path><path d="M141.7165,161.810853 C138.738389,161.801 135.764226,161.594473 132.813654,161.192636 C120.132673,159.512791 105.208827,154.43062 87.1887115,145.656202 C44.7886923,125.012016 21.3222308,111.974031 13.3285385,104.61938 C6.83151923,98.6503876 0.0343076923,85.0837209 0.411692308,73.6232558 C0.617538462,67.1554264 2.98476923,62.0647287 7.38044231,58.4875969 C15.9144808,51.5891473 25.7693654,48.1697674 37.5111731,48.0418605 L38.1673077,48.0418605 C52.8810192,48.0418605 70.8539615,53.3116279 91.6015385,63.7104651 L91.6015385,63.7104651 C94.2518077,65.0364341 98.5874423,67.0232558 104.080962,69.5387597 C126.170827,79.6562016 163.141654,96.5868217 172.083096,107.851163 C178.12125,115.453101 180.79725,124.376744 179.630788,132.972093 C178.485769,141.379845 173.725577,148.85814 165.869115,154.596899 C159.260596,159.423256 151.301212,161.810853 141.7165,161.810853 Z M38.1673077,48.6771318 L37.5111731,48.6771318 C25.9323269,48.8050388 16.1932308,52.1732558 7.77926923,58.9821705 C3.49080769,62.4356589 1.24794231,67.3686047 1.04209615,73.6403101 C0.681865385,84.9174419 7.36328846,98.253876 13.7573846,104.146124 C24.1955,113.751938 60.8189615,132.106589 87.4631731,145.076357 C105.418962,153.82093 120.278481,158.881783 132.890846,160.553101 C146.3995,162.343798 157.064904,160.224806 165.483154,154.072481 C173.202385,148.44031 177.868231,141.11124 178.987519,132.878295 C180.132538,124.453488 177.499423,115.704651 171.572769,108.239147 C162.725673,97.094186 125.844904,80.2062016 103.815077,70.1143411 C98.3172692,67.5945736 93.9773462,65.6077519 91.3142115,64.2732558 C70.6609808,53.9255814 52.7866731,48.6771318 38.1673077,48.6771318 Z" id="Shape" fill="#221E14"></path><path d="M160.628615,130.70814 L160.628615,130.70814 C155.992788,140.198837 143.646308,141.388372 134.100192,136.775194 L30.0706923,88.8868217 C20.5270044,84.2307815 16.558533,72.785024 21.1892885,63.2713178 L21.1892885,63.2713178 C25.8615893,53.7692743 37.3802923,49.8090628 46.9586538,54.4116279 L151.747212,105.092636 C161.30234,109.738627 165.27461,121.195339 160.628615,130.70814 L160.628615,130.70814 Z" id="Path" fill="#DA422A"></path><path d="M145.241615,139.631783 C141.339382,139.60824 137.492296,138.713613 133.984404,137.013953 L29.9591923,89.1085271 C20.2485395,84.4097184 16.2078792,72.7742412 20.934125,63.1199612 C25.6603708,53.4656813 37.3637895,49.4484781 47.0744423,54.1472868 L151.863,104.853876 C161.534492,109.579948 165.55665,121.1803 160.868769,130.827519 L160.868769,130.827519 C157.879712,136.945736 151.747212,139.631783 145.241615,139.631783 Z M38.5961538,52.7700262 C29.7341401,52.7378165 22.0257357,58.7987118 20.0154148,67.3796524 C18.0050939,75.9605929 22.2264409,84.7840042 30.1907692,88.648062 L134.228846,136.532171 C143.487635,141.004651 155.808385,140.002713 160.388462,130.593023 C164.94918,121.209718 161.035692,109.925916 151.627135,105.331395 L46.8385769,54.6503876 C44.2689241,53.4135646 41.451108,52.7700262 38.5961538,52.7700262 Z" id="Shape" fill="#000000"></path><path d="M21.1892885,63.2713178 L21.1892885,63.2713178 C21.4423077,62.7341085 21.7253462,62.2267442 21.9998077,61.7534884 C21.8368462,69.2573643 25.3190769,81.046124 32.0948462,84.3503876 L136.124346,132.25155 C145.130115,136.493798 157.416558,130.887209 162.562712,122.794961 C162.506922,125.541448 161.846756,128.242459 160.628615,130.70814 L160.628615,130.70814 C155.992788,140.198837 143.646308,141.388372 134.100192,136.775194 L30.0706923,88.8868217 C20.5270044,84.2307815 16.558533,72.785024 21.1892885,63.2713178 Z" id="Path" fill="#000000"></path><path d="M145.241615,139.631783 C141.339382,139.60824 137.492296,138.713613 133.984404,137.013953 L29.9591923,89.1085271 C20.3052933,84.3692483 16.2885656,72.7864589 20.9534231,63.1391473 C21.2364615,62.5507752 21.5409423,62.0093023 21.7768077,61.6042636 C21.8371678,61.4976748 21.9623404,61.445092 22.0812885,61.4763566 C22.1992266,61.5096922 22.278943,61.6188861 22.2742692,61.7406977 C22.1198846,68.9887597 25.4863269,80.8116279 32.2235,84.1031008 L136.235846,132.008527 C145.11725,136.182558 157.339365,130.512016 162.339712,122.654264 C162.401404,122.552016 162.525128,122.50457 162.639904,122.539147 C162.75603,122.575028 162.834563,122.682601 162.832911,122.803488 C162.768529,125.587774 162.098468,128.325183 160.868769,130.827519 C157.879712,136.945736 151.747212,139.631783 145.241615,139.631783 Z M21.7339231,62.7852713 C21.631,62.9771318 21.5280769,63.1775194 21.4294423,63.3864341 L21.4294423,63.3864341 C16.8908007,72.7699267 20.7965914,84.0370499 30.1864808,88.648062 L134.228846,136.532171 C143.487635,141.004651 155.808385,140.002713 160.388462,130.593023 C161.443081,128.448228 162.074854,126.122501 162.249654,123.741473 C159.380845,127.652675 155.437868,130.657877 150.893808,132.396512 C145.571827,134.468605 140.284154,134.502713 136.008558,132.49031 L31.9833462,84.601938 C25.3576731,81.3616279 21.8925962,70.2294574 21.7339231,62.7852713 Z" id="Shape" fill="#000000"></path><path d="M154.504692,151.808527 C154.504692,151.808527 155.448154,133.185271 141.137558,122.389922 C125.922096,110.899612 60.37725,75.7635659 41.1906731,71.3678295 C21.4894808,66.8527132 13.0669423,81.0077519 13.0669423,81.0077519" id="Path" fill="#FFDCD2"></path><path d="M154.813462,151.825581 L154.170192,151.795736 C154.170192,151.60814 154.933538,133.210853 140.927423,122.637209 C133.585577,117.094574 113.669962,105.523256 92.48925,94.4976744 C68.7569038,82.1333333 49.5445962,73.6062016 41.1049038,71.6748062 C21.8711538,67.2748062 13.4271731,81.0077519 13.3414038,81.1527132 L12.7881923,80.8244186 C12.8739615,80.6837209 21.5580962,66.5414729 41.2635769,71.0565891 C49.7461538,73.0050388 69.0442308,81.5534884 92.8023077,93.9348837 C114.00875,104.973256 133.971538,116.565891 141.330538,122.125581 C155.611115,132.90814 154.834904,151.637984 154.813462,151.825581 Z" id="Path" fill="#221E14"></path><path d="M145.743365,107.701938 C145.601846,103.331783 140.944577,101.217054 137.226481,100.33876 C132.273308,99.1875969 127.174327,99.2217054 122.427,97.2945736 C117.679673,95.3674419 114.973654,91.5046512 111.821635,87.4883721 C108.669615,83.472093 103.712154,83.7023256 98.7075192,83.1182171 C93.7193763,82.8226931 89.1904184,80.1249133 86.5754615,75.8914729 C84.611972,72.2228472 81.2198977,69.5163099 77.1923077,68.4046512 C68.1865385,65.7782946 58.7990962,66.3410853 50.7410769,60.8922481 C46.6241538,58.0825581 51.5044231,52.1093023 55.6256346,54.8934109 C61.6852308,59.0034884 69.74325,58.7817829 76.6862692,60.3507752 C80.1825003,61.0862353 83.5137856,62.4517629 86.5154231,64.379845 C87.9184156,65.3558516 89.1821119,66.5161204 90.2721154,67.8290698 C91.6958846,69.5131783 92.4377885,71.6662791 93.8915769,73.3290698 C96.3617308,76.1217054 101.147654,75.6910853 104.539827,76.0321705 C108.681174,76.2223952 112.629191,77.8294863 115.715558,80.5813953 C118.563096,83.3697674 120.209865,87.5651163 123.713538,89.65 C127.217212,91.7348837 131.917365,91.8670543 135.961385,92.5108527 C143.680615,93.6790698 153.080923,97.9767442 153.351096,107.006977 C153.496904,111.922868 145.794827,112.860853 145.653308,107.915116 L145.743365,107.701938 Z" id="Path" fill="#FF5050"></path><path d="M149.0755,111.458468 C148.405598,111.466645 147.744025,111.309902 147.149981,111.001938 C146.034557,110.380947 145.354974,109.198581 145.383135,107.927907 L145.383135,107.868217 L145.473192,107.655039 C145.2845,103.178295 140.189808,101.315116 137.162154,100.620155 C135.318115,100.193798 133.418327,99.9209302 131.587154,99.6608527 C128.512327,99.2344961 125.330288,98.7782946 122.336942,97.5631783 C117.919827,95.7682171 115.23525,92.3189922 112.396288,88.6693798 L111.620077,87.6717054 C109.047,84.3674419 105.131635,84.0093023 101.006135,83.629845 C100.247077,83.5616279 99.4622885,83.4891473 98.6817885,83.3996124 C93.6134967,83.0982493 89.0123912,80.3558407 86.35675,76.0534884 C84.4312069,72.4344296 81.0994618,69.756775 77.1365577,68.6434109 C74.0788495,67.8130384 70.9742621,67.1638348 67.8391731,66.6992248 C61.994,65.7228682 55.9472692,64.7081395 50.6081346,61.0926357 C48.4939231,59.6515504 48.614,57.455814 49.6689615,55.9209302 C50.89975,54.1302326 53.46425,53.0813953 55.7928846,54.6418605 C60.0041538,57.4984496 65.2618077,58.2488372 70.3479231,58.9736434 C72.4921538,59.2806202 74.6921346,59.5918605 76.7806154,60.0608527 C80.3004985,60.7982287 83.6540543,62.1726185 86.6740962,64.1155039 C88.1011555,65.1051052 89.3865542,66.2826428 90.4951154,67.6158915 C91.1737695,68.4692545 91.7723668,69.3826316 92.2834038,70.3445736 C92.7988955,71.3246793 93.4108495,72.2515633 94.1102885,73.1116279 C96.0100769,75.2434109 99.3979615,75.4267442 102.387019,75.5802326 C103.163231,75.6186047 103.896558,75.6569767 104.587,75.7251938 C108.785956,75.9294176 112.785821,77.5661508 115.912827,80.3596899 C117.038785,81.5328288 118.056386,82.8042246 118.953346,84.1585271 C120.351385,86.1282946 121.796596,88.1662791 123.867923,89.3984496 C126.556788,90.9972868 129.974692,91.4321705 133.281096,91.85 C134.19025,91.9651163 135.129423,92.0844961 136.021423,92.2251938 C140.464269,92.8945736 144.598346,94.4379845 147.621712,96.5697674 C151.481327,99.2813953 153.509769,102.781783 153.625558,106.972868 C153.697413,108.493191 152.925252,109.930337 151.614269,110.716279 C150.853626,111.192935 149.974594,111.449799 149.0755,111.458468 Z M145.923481,107.966279 C145.896154,109.02823 146.469103,110.016015 147.407288,110.524419 C148.666464,111.121602 150.146326,111.03136 151.322654,110.285659 C152.480049,109.608629 153.163938,108.348972 153.098077,107.015504 C152.930827,101.362016 148.333596,94.6511628 135.944231,92.7794574 C135.065096,92.6387597 134.168808,92.527907 133.225346,92.4085271 C129.863192,91.9821705 126.363808,91.555814 123.602038,89.8844961 C121.432077,88.6054264 119.956846,86.5120155 118.5245,84.4953488 C117.646398,83.1711372 116.651865,81.926984 115.552596,80.7775194 C112.513849,78.0681327 108.629608,76.481301 104.552692,76.2837209 C103.866538,76.2155039 103.1375,76.1813953 102.369865,76.1430233 C99.2735962,75.9852713 95.7656346,75.8062016 93.71575,73.4910853 C92.9900612,72.6062576 92.356421,71.6506014 91.8245385,70.6387597 C91.3354952,69.7045006 90.7612954,68.8168033 90.1091538,67.9868217 C89.0325384,66.6907392 87.7864166,65.5436209 86.4039231,64.575969 C83.437634,62.6723241 80.1454177,61.3255104 76.6905577,60.6023256 C74.6363846,60.1375969 72.4406923,59.8263566 70.3136154,59.5236434 C65.1674615,58.7903101 59.8497692,58.0313953 55.5355769,55.1023256 C53.4899808,53.7251938 51.2471154,54.675969 50.1535577,56.227907 C49.3173077,57.4515504 49.0214038,59.3445736 50.9512115,60.6620155 C56.196,64.2093023 61.9168077,65.1686047 67.9678269,66.1833333 C71.1235361,66.6489693 74.248294,67.3024696 77.32525,68.1403101 C81.4120416,69.2850513 84.8530216,72.036327 86.8542115,75.7593023 C89.4231279,79.9104626 93.8692259,82.5527661 98.7632692,82.8368217 C99.5523462,82.9306202 100.332846,83.0031008 101.091904,83.0713178 C105.333192,83.4593023 109.342904,83.825969 112.078942,87.3135659 L112.855154,88.3112403 C115.651231,91.9054264 118.288635,95.2992248 122.572808,97.0387597 C125.506115,98.2325581 128.653846,98.675969 131.698654,99.1065891 C133.546981,99.3666667 135.459635,99.6352713 137.329404,100.070155 C140.520019,100.824806 145.906327,102.815891 146.052135,107.684884 L146.052135,107.744574 L145.923481,107.966279 Z" id="Shape" fill="#221E14"></path><path d="M141.446327,110.306977 C141.300519,105.936822 136.64325,103.822093 132.925154,102.943798 C127.976269,101.792636 122.873,101.826744 118.129962,99.8996124 C113.386923,97.9724806 110.676615,94.1054264 107.524596,90.0934109 C104.372577,86.0813953 99.4151154,86.3073643 94.4104808,85.7189922 C89.422655,85.4296336 84.8921952,82.7341435 82.2784231,78.5007752 C80.3147372,74.8339756 76.9274348,72.125692 72.9038462,71.0054264 C63.9195192,68.3833333 54.5063462,68.946124 46.4526154,63.4930233 C42.3356923,60.6833333 47.2159615,54.7143411 51.3371731,57.494186 C57.3967692,61.6085271 65.4547885,61.3868217 72.3978077,62.955814 C75.8861124,63.6885203 79.2100997,65.0497003 82.2055192,66.972093 C83.6098266,67.9480409 84.8749484,69.108294 85.9665,70.4213178 C87.3902692,72.1011628 88.1107308,74.2585271 89.5859615,75.9170543 C92.0561154,78.7096899 96.8420385,78.2833333 100.234212,78.6244186 C104.377634,78.8197203 108.325793,80.4328942 111.409942,83.1906977 C114.257481,85.9833333 115.899962,90.1786822 119.407923,92.2635659 C122.915885,94.3484496 127.61175,94.4806202 131.651481,95.120155 C139.370712,96.2883721 148.771019,100.59031 149.041192,109.616279 C149.187,114.532171 141.484923,115.470155 141.343404,110.524419 L141.446327,110.306977 Z" id="Path" fill="#C2F2C3"></path><path d="M141.446327,110.306977 C141.300519,105.936822 136.64325,103.822093 132.925154,102.943798 C127.976269,101.792636 122.873,101.826744 118.129962,99.8996124 C113.386923,97.9724806 110.676615,94.1054264 107.524596,90.0934109 C104.372577,86.0813953 99.4151154,86.3073643 94.4104808,85.7189922 C89.422655,85.4296336 84.8921952,82.7341435 82.2784231,78.5007752 C80.3147372,74.8339756 76.9274348,72.125692 72.9038462,71.0054264 C63.9195192,68.3833333 54.5063462,68.946124 46.4526154,63.4930233 C42.3356923,60.6833333 47.2159615,54.7143411 51.3371731,57.494186 C57.3967692,61.6085271 65.4547885,61.3868217 72.3978077,62.955814 C75.8861124,63.6885203 79.2100997,65.0497003 82.2055192,66.972093 C83.6098266,67.9480409 84.8749484,69.108294 85.9665,70.4213178 C87.3902692,72.1011628 88.1107308,74.2585271 89.5859615,75.9170543 C92.0561154,78.7096899 96.8420385,78.2833333 100.234212,78.6244186 C104.377634,78.8197203 108.325793,80.4328942 111.409942,83.1906977 C114.257481,85.9833333 115.899962,90.1786822 119.407923,92.2635659 C122.915885,94.3484496 127.61175,94.4806202 131.651481,95.120155 C139.370712,96.2883721 148.771019,100.59031 149.041192,109.616279 C149.187,114.532171 141.484923,115.470155 141.343404,110.524419 L141.446327,110.306977 Z" id="Path" fill="#C2F2C3"></path><path d="M144.774173,114.063367 C144.105877,114.069575 143.446201,113.912933 142.852942,113.606977 C141.735438,112.985965 141.05537,111.801114 141.086096,110.528682 L141.086096,110.473256 L141.176154,110.255814 C140.987462,105.783333 135.892769,103.915891 132.865115,103.203876 C131.021077,102.777519 129.121288,102.504651 127.290115,102.244574 C124.215288,101.818217 121.03325,101.362016 118.035615,100.146899 C113.6185,98.351938 110.938212,94.9027132 108.09925,91.2488372 L107.323038,90.2554264 C104.749962,86.9511628 100.834596,86.5930233 96.7090962,86.2135659 C95.9500385,86.1453488 95.16525,86.0728682 94.38475,85.9833333 C89.3164593,85.6783434 84.7156085,82.9370404 82.0554231,78.6372093 C80.1262911,75.0341424 76.8001771,72.3711401 72.8480962,71.2655039 C69.7903879,70.4351314 66.6858006,69.7859279 63.5507115,69.3213178 C57.70125,68.3406977 51.6588077,67.3302326 46.3153846,63.7147287 C44.2054615,62.2736434 44.3255385,60.077907 45.3805,58.5430233 C46.607,56.7523256 49.1715,55.6992248 51.5044231,57.2639535 C55.7156923,60.1205426 60.9733462,60.8709302 66.0594615,61.5957364 C68.2036923,61.8984496 70.4036731,62.2139535 72.4921538,62.6829457 C76.0125736,63.4206446 79.3672285,64.793444 82.3899231,66.7333333 C83.8161046,67.7256735 85.1013337,68.9044898 86.2109423,70.2379845 C86.8892,71.0907428 87.4864255,72.0042173 87.9949423,72.9666667 C88.5109316,73.9461229 89.1243902,74.8716814 89.8261154,75.7294574 C91.7216154,77.8612403 95.1137885,78.0488372 98.1028462,78.198062 C98.8790577,78.2406977 99.6123846,78.2748062 100.298538,78.3472868 C104.498989,78.5505437 108.500522,80.1873401 111.628654,82.9817829 C112.752084,84.15711 113.769501,85.4282743 114.669173,86.7806202 C116.067212,88.7503876 117.512423,90.7883721 119.58375,92.0205426 C122.272615,93.6193798 125.690519,94.0542636 129.018365,94.472093 C129.927519,94.5872093 130.866692,94.7023256 131.754404,94.8430233 C136.201538,95.5166667 140.331327,97.0600775 143.358981,99.1918605 C147.218596,101.899225 149.247038,105.399612 149.362827,109.590698 C149.435406,111.113399 148.661276,112.552783 147.34725,113.338372 C146.574081,113.813251 145.682986,114.064263 144.774173,114.063367 L144.774173,114.063367 Z M141.622154,110.571318 C141.599604,111.633187 142.173243,112.619311 143.11025,113.129457 C144.369908,113.724169 145.848506,113.634004 147.025615,112.890698 C148.179242,112.20779 148.856492,110.944907 148.783885,109.612016 C148.616635,103.958527 144.015115,97.2476744 131.630038,95.375969 C130.746615,95.2352713 129.854615,95.1244186 128.906865,95.0050388 C125.544712,94.5786822 122.071058,94.1523256 119.283558,92.4810078 C117.117885,91.201938 115.638365,89.1085271 114.210308,87.0875969 C113.32945,85.7667028 112.335094,84.5241979 111.238404,83.374031 C108.199141,80.6594907 104.310827,79.0707269 100.229923,78.875969 C99.5394808,78.8077519 98.8147308,78.7693798 98.0428077,78.7310078 C94.9508269,78.5732558 91.4385769,78.3984496 89.3929808,76.0833333 C88.6663049,75.1977025 88.0326063,74.2405296 87.5017692,73.2267442 C87.0111481,72.2947399 86.4370306,71.4085968 85.7863846,70.5790698 C84.7108997,69.2819257 83.4646251,68.1346668 82.0811538,67.1682171 C79.1148648,65.2645721 75.8226484,63.9177584 72.3677885,63.1945736 C70.3136154,62.729845 68.1179231,62.4186047 65.9908462,62.1158915 C60.8446923,61.3825581 55.527,60.6236434 51.2085192,57.6945736 C49.1672115,56.3131783 46.9200577,57.2426357 45.8307885,58.820155 C44.9730962,60.0437984 44.6986346,61.9368217 46.6284423,63.2542636 C51.8732308,66.8015504 57.58975,67.7608527 63.6450577,68.7755814 C66.8003187,69.241811 69.9249565,69.8938625 73.0024808,70.7282946 C77.0898094,71.8744876 80.5307577,74.6272775 82.5314423,78.3515504 C85.1003586,82.5027107 89.5464567,85.1450142 94.4405,85.4290698 C95.2295769,85.5228682 96.0100769,85.5910853 96.7691346,85.6635659 C101.010423,86.0515504 105.020135,86.4182171 107.751885,89.905814 L108.532385,90.9034884 C111.324173,94.4976744 113.965865,97.8914729 118.250038,99.6310078 C121.183346,100.820543 124.331077,101.268217 127.371596,101.694574 C129.224212,101.958915 131.136865,102.227519 133.006635,102.662403 C136.19725,103.417054 141.583558,105.40814 141.729365,110.277132 L141.729365,110.332558 L141.622154,110.571318 Z" id="Shape" fill="#1A1A1A"></path><path d="M136.729019,113.717829 C136.583212,109.347674 131.925942,107.232946 128.207846,106.354651 C123.258962,105.203488 118.155692,105.237597 113.412654,103.310465 C108.669615,101.383333 105.959308,97.5162791 102.807288,93.5042636 C99.6552692,89.4922481 94.6978077,89.7182171 89.6931731,89.129845 C84.7053473,88.8404864 80.1748875,86.1449962 77.5611154,81.9116279 C75.5974295,78.2448283 72.2101271,75.5365448 68.1865385,74.4162791 C59.2022115,71.794186 49.7890385,72.3569767 41.7353077,66.903876 C37.6183846,64.094186 42.4986538,58.1251938 46.6198654,60.9050388 C52.6794615,65.0193798 60.7374808,64.7976744 67.6805,66.3666667 C71.1688047,67.099373 74.492792,68.4605531 77.4882115,70.3829457 C78.8925189,71.3588936 80.1576407,72.5191467 81.2491923,73.8321705 C82.6729615,75.5120155 83.3934231,77.6693798 84.8686538,79.327907 C87.3388077,82.1205426 92.1247308,81.694186 95.5169038,82.0352713 C99.6603259,82.230573 103.608485,83.8437469 106.692635,86.6015504 C109.540173,89.394186 111.182654,93.5895349 114.690615,95.6744186 C118.198577,97.7593023 122.894442,97.8914729 126.934173,98.5310078 C134.653404,99.6992248 144.053712,104.001163 144.323885,113.027132 C144.469692,117.943023 136.767615,118.881008 136.626096,113.935271 L136.729019,113.717829 Z" id="Path" fill="#FFD766"></path><path d="M140.056865,117.474219 C139.388569,117.480428 138.728893,117.323786 138.135635,117.017829 C137.01813,116.396818 136.338062,115.211966 136.368788,113.939535 L136.368788,113.884109 L136.458846,113.666667 C136.270154,109.194186 131.175462,107.326744 128.147808,106.614729 C126.303769,106.188372 124.403981,105.915504 122.572808,105.655426 C119.497981,105.22907 116.315942,104.772868 113.318308,103.557752 C108.901192,101.762791 106.220904,98.3135659 103.381942,94.6596899 L102.605731,93.6662791 C100.032654,90.3620155 96.1172885,90.003876 91.9917885,89.6244186 C91.2327308,89.5562016 90.4479423,89.4837209 89.6674423,89.394186 C84.5991516,89.0891961 79.9983008,86.3478931 77.3381154,82.048062 C75.4089834,78.4449951 72.0828694,75.7819928 68.1307885,74.6763566 C65.0730802,73.8459842 61.9684929,73.1967806 58.8334038,72.7321705 C52.9839423,71.7515504 46.9415,70.7410853 41.5980769,67.1255814 C39.4881538,65.6844961 39.6082308,63.4887597 40.6631923,61.953876 C41.8896923,60.1631783 44.4541923,59.1100775 46.7871154,60.6748062 C50.9983846,63.5313953 56.2560385,64.2817829 61.3421538,65.0065891 C63.4863846,65.3093023 65.6863654,65.6248062 67.7748462,66.0937984 C71.2952659,66.8314973 74.6499208,68.2042968 77.6726154,70.144186 C79.0987969,71.1365262 80.3840261,72.3153425 81.4936346,73.6488372 C82.1718923,74.5015955 82.7691178,75.41507 83.2776346,76.3775194 C83.7936239,77.3569756 84.4070825,78.2825341 85.1088077,79.1403101 C87.0043077,81.272093 90.3964808,81.4596899 93.3855385,81.6089147 C94.16175,81.6515504 94.8950769,81.6856589 95.5812308,81.7581395 C99.781681,81.9613964 103.783215,83.5981928 106.911346,86.3926357 C108.034777,87.5679628 109.052193,88.839127 109.951865,90.1914729 C111.349904,92.1612403 112.795115,94.1992248 114.866442,95.4313953 C117.555308,97.0302326 120.973212,97.4651163 124.301058,97.8829457 C125.210212,97.998062 126.149385,98.1131783 127.037096,98.253876 C131.484231,98.9275194 135.614019,100.47093 138.641673,102.602713 C142.501288,105.310078 144.529731,108.810465 144.645519,113.00155 C144.718099,114.524251 143.943968,115.963636 142.629942,116.749225 C141.856773,117.224104 140.965678,117.475115 140.056865,117.474219 L140.056865,117.474219 Z M136.904846,113.982171 C136.882296,115.044039 137.455935,116.030164 138.392942,116.54031 C139.6526,117.135022 141.131198,117.044857 142.308308,116.30155 C143.461934,115.618643 144.139185,114.355759 144.066577,113.022868 C143.899327,107.36938 139.297808,100.658527 126.912731,98.7868217 C126.029308,98.646124 125.137308,98.5352713 124.189558,98.4158915 C120.827404,97.9895349 117.35375,97.5631783 114.56625,95.8918605 C112.400577,94.6127907 110.921058,92.5193798 109.493,90.4984496 C108.612142,89.1775555 107.617786,87.9350506 106.521096,86.7848837 C103.481833,84.0703434 99.5935196,82.4815796 95.5126154,82.2868217 C94.8221731,82.2186047 94.0974231,82.1802326 93.3255,82.1418605 C90.2335192,81.9841085 86.7212692,81.8093023 84.6756731,79.494186 C83.9489972,78.6085552 83.3152987,77.6513823 82.7844615,76.6375969 C82.2938404,75.7055926 81.7197229,74.8194495 81.0690769,73.9899225 C79.993592,72.6927784 78.7473174,71.5455195 77.3638462,70.5790698 C74.3975571,68.6754248 71.1053407,67.3286111 67.6504808,66.6054264 C65.5963077,66.1406977 63.4006154,65.8294574 61.2735385,65.5267442 C56.1273846,64.7934109 50.8096923,64.0344961 46.4912115,61.1054264 C44.4499038,59.724031 42.20275,60.6534884 41.1134808,62.2310078 C40.2557885,63.4546512 39.9813269,65.3476744 41.9111346,66.6651163 C47.1559231,70.2124031 52.8724423,71.1717054 58.92775,72.1864341 C62.083011,72.6526637 65.2076488,73.3047152 68.2851731,74.1391473 C72.3725017,75.2853403 75.81345,78.0381303 77.8141346,81.7624031 C80.3830509,85.9135634 84.829149,88.5558669 89.7231923,88.8399225 C90.5122692,88.9337209 91.2927692,89.001938 92.0518269,89.0744186 C96.2931154,89.4624031 100.302827,89.8290698 103.034577,93.3166667 L103.815077,94.3143411 C106.606865,97.9085271 109.248558,101.302326 113.532731,103.04186 C116.466038,104.231395 119.613769,104.67907 122.654288,105.105426 C124.506904,105.369767 126.419558,105.638372 128.289327,106.073256 C131.479942,106.827907 136.86625,108.818992 137.012058,113.687984 L137.012058,113.743411 L136.904846,113.982171 Z" id="Shape" fill="#1A1A1A"></path><path d="M79.9197692,4.08023256 C80.1341923,3.98643411 80.3486154,3.90116279 80.5673269,3.81589147 C84.7828846,2.2 89.9118846,1.88023256 94.9679808,2.87364341 C100.024077,3.86705426 104.402596,6.10542636 107.288731,9.14534884 C110.174865,12.1852713 111.277,15.6728682 110.333538,18.9515504 C109.441538,22.0767442 106.838442,24.6647287 102.965962,26.2976744 C102.751538,26.3914729 102.537115,26.4810078 102.314115,26.5620155 C98.0985577,28.1821705 92.9695577,28.4976744 87.9134615,27.5085271 C82.8573654,26.5193798 78.4788462,24.2724806 75.5927115,21.2325581 C72.7065769,18.1926357 71.6087308,14.7050388 72.53075,11.4263566 C73.4399038,8.30542636 76.043,5.71744186 79.9197692,4.08023256 Z" id="Path" fill="#D5D8E2"></path><path d="M93.6428462,28.2930233 C91.7044191,28.2858534 89.7712674,28.0916614 87.8705769,27.7131783 C82.8101923,26.724031 78.3930769,24.4728682 75.4340385,21.3732558 C72.475,18.2736434 71.3728654,14.722093 72.3206154,11.353876 C73.2469231,8.18178295 75.9143462,5.5255814 79.834,3.87131783 L79.834,3.87131783 L80.4858462,3.60697674 C84.7185577,1.98682171 89.8775769,1.65 95.0065769,2.65620155 C100.07125,3.6496124 104.488365,5.90077519 107.443115,8.99186047 C110.397865,12.0829457 111.504288,15.6472868 110.539385,19.0112403 C109.634519,22.1790698 106.975673,24.8395349 103.047442,26.4937984 C102.833019,26.5875969 102.618596,26.6771318 102.387019,26.7624031 C99.5912524,27.8009804 96.6272829,28.3198072 93.6428462,28.2930233 Z M80.0055385,4.26356589 C76.2059615,5.86666667 73.6243077,8.42906977 72.7365962,11.4732558 C71.8317308,14.6879845 72.9038462,18.0988372 75.7385192,21.0833333 C78.5731923,24.0678295 82.9688654,26.3232558 87.9434808,27.2953488 C93.0081538,28.2844961 98.0771154,27.951938 102.228346,26.3616279 C102.447058,26.2763566 102.657192,26.1868217 102.871615,26.0972868 C106.675481,24.494186 109.248558,21.9317829 110.119115,18.8875969 C111.041135,15.6771318 109.977596,12.2620155 107.117192,9.27751938 C104.256788,6.29302326 99.9211538,4.05891473 94.9293846,3.08255814 C89.8732885,2.08914729 84.8043269,2.42170543 80.6445192,4.0120155 C80.4258077,4.09728682 80.2156731,4.18682171 80.0055385,4.27635659 L80.0055385,4.26356589 Z" id="Shape" fill="#000000"></path><path d="M79.6796154,2.07209302 C79.8940385,1.98255814 80.1084615,1.89302326 80.3271731,1.8120155 C84.5427308,0.196124031 89.6717308,-0.123643411 94.7278269,0.869767442 C99.7839231,1.86317829 104.162442,4.10155039 107.048577,7.14147287 L107.267288,7.06899225 L107.031423,7.15852713 C112.872308,13.2767442 110.891038,20.8573643 102.695788,24.3236434 C102.489942,24.4174419 102.266942,24.5027132 102.056808,24.5837209 C93.3212115,27.9178295 81.3349615,25.525969 75.3482692,19.2542636 C72.4278269,16.2143411 71.36,12.7267442 72.2863077,9.44806202 C73.1954615,6.29728682 75.8028462,3.70930233 79.6796154,2.07209302 Z" id="Path" fill="#F5F9FC"></path><path d="M93.3855385,26.301938 C86.4854038,26.301938 79.3837115,23.7949612 75.1938846,19.4034884 C72.2348462,16.3209302 71.1284231,12.7651163 72.0804615,9.38410853 C73.0024808,6.19922481 75.6699038,3.53023256 79.5981346,1.87596899 L79.7868269,1.79496124 L80.2499808,1.61162791 C84.4826923,1.2490009e-16 89.6288462,-0.345348837 94.775,0.660852713 C99.7925,1.64573643 104.166731,3.85852713 107.117192,6.89844961 L107.202962,6.86860465 L107.297308,7.12015504 C109.973308,9.98100775 111.088308,13.2810078 110.427885,16.4232558 C109.707423,19.8682171 106.997115,22.746124 102.785846,24.524031 C102.58,24.6178295 102.357,24.7031008 102.138288,24.7883721 C99.337361,25.8171366 96.3713631,26.3300306 93.3855385,26.301938 L93.3855385,26.301938 Z M79.7653846,2.26821705 C75.9658077,3.8755814 73.3798654,6.44224806 72.4964423,9.51627907 C71.5872885,12.7437984 72.6594038,16.1589147 75.4983654,19.1263566 C81.4293077,25.3383721 93.3083462,27.7089147 101.975327,24.4046512 C102.18975,24.3236434 102.404173,24.2383721 102.605731,24.1488372 C106.684058,22.4434109 109.308596,19.6593023 110.003327,16.3507752 C110.638019,13.3108527 109.527308,10.1046512 106.87275,7.3248062 L106.654038,7.09031008 L106.675481,7.09031008 C103.789346,4.17829457 99.5437692,2.05930233 94.6677885,1.12131783 C89.6159808,0.127906977 84.5427308,0.460465116 80.3829231,2.05077519 L79.9283462,2.23410853 L79.7653846,2.26821705 Z" id="Shape" fill="#000000"></path><path d="M82.2226731,3.88837209 C82.3985,3.81589147 82.5700385,3.74341085 82.7458654,3.67945736 C86.1551923,2.37054264 90.2978462,2.11472868 94.3890385,2.91627907 C98.4802308,3.71782946 102.005346,5.52984496 104.346846,7.98565891 L104.522673,7.93023256 L104.333981,8.00271318 C109.051288,12.9484496 107.464558,19.0879845 100.830308,21.8763566 C100.663058,21.9531008 100.491519,22.0213178 100.311404,22.0895349 C93.2525962,24.779845 83.5606731,22.8484496 78.7232885,17.7790698 C76.3603462,15.3232558 75.4983654,12.5007752 76.2445577,9.84457364 C76.9821731,7.30348837 79.0920962,5.21007752 82.2226731,3.88837209 Z" id="Path" fill="#F5F9FC"></path><path d="M93.3083462,23.5135659 C87.7333462,23.5135659 81.9610769,21.4841085 78.5646154,17.924031 C76.1673654,15.4255814 75.2667885,12.5348837 76.0387115,9.78914729 C76.7891923,7.20116279 78.9548654,5.03527132 82.1411923,3.69224806 L82.2955769,3.62829457 L82.6729615,3.47906977 C86.1037308,2.16589147 90.2764038,1.89302326 94.4319231,2.70736434 C98.4845192,3.50465116 102.0225,5.28682171 104.411173,7.74263566 L104.458346,7.74263566 L104.496942,7.84922481 L104.496942,7.84922481 L104.496942,7.84922481 L104.496942,7.87906977 C106.718365,10.2197674 107.644673,12.9228682 107.104327,15.5023256 C106.521096,18.2992248 104.316827,20.6186047 100.903212,22.0767442 C100.731673,22.1534884 100.555846,22.2217054 100.375731,22.2899225 C98.1144292,23.1218612 95.7193998,23.5365354 93.3083462,23.5135659 Z M82.3084423,4.08449612 C79.2421923,5.36356589 77.1622885,7.44418605 76.4504038,9.90426357 C75.7213654,12.5007752 76.5833462,15.2465116 78.8776731,17.629845 C83.6635962,22.648062 93.2440192,24.553876 100.2385,21.8934109 C100.410038,21.8294574 100.581577,21.7569767 100.744538,21.6887597 C104.0295,20.2988372 106.143712,18.0732558 106.696923,15.4127907 C107.211538,12.9697674 106.31525,10.3903101 104.179596,8.16472868 L103.960885,7.93449612 L103.960885,7.93449612 C101.636538,5.61085271 98.2315,3.91821705 94.3332885,3.15077519 C90.25925,2.34922481 86.1637692,2.61782946 82.8101923,3.90116279 L82.4456731,4.0503876 L82.3084423,4.08449612 Z" id="Shape" fill="#000000"></path><path d="M59.7554231,13.8651163 C59.9698462,13.7755814 60.1842692,13.6860465 60.4029808,13.6007752 C64.6185385,11.9848837 69.74325,11.6651163 74.8036346,12.6585271 C79.8640192,13.651938 84.23825,15.8945736 87.1243846,18.9302326 C90.0105192,21.9658915 91.1083654,25.4577519 90.1691923,28.7364341 C89.2771923,31.8616279 86.6740962,34.453876 82.8016154,36.0868217 L82.1497692,36.3511628 C77.9342115,37.9670543 72.8052115,38.2825581 67.7491154,37.2934109 C62.6930192,36.3042636 58.3145,34.0573643 55.4283654,31.0174419 C52.5422308,27.9775194 51.4400962,24.4899225 52.3664038,21.2112403 C53.2755577,18.0945736 55.8786538,15.5023256 59.7554231,13.8651163 Z" id="Path" fill="#D5D8E2"></path><path d="M73.4785,38.077907 C71.5407595,38.0779727 69.6075935,37.8909188 67.7062308,37.5193798 C62.6415577,36.5302326 58.2287308,34.2790698 55.2696923,31.1837209 C52.3106538,28.0883721 51.2128077,24.5282946 52.1562692,21.1643411 C53.0825769,17.9922481 55.75,15.3317829 59.6696538,13.6775194 L59.6696538,13.6775194 C59.8883654,13.5879845 60.0985,13.4984496 60.3257885,13.4131783 C64.5585,11.7887597 69.7175192,11.451938 74.8465192,12.4581395 C79.9755192,13.4643411 84.3283077,15.7027132 87.2830577,18.7937984 C90.2378077,21.8848837 91.3442308,25.4492248 90.3793269,28.8131783 C89.4744615,31.9852713 86.8113269,34.6414729 82.8873846,36.3 C82.6643846,36.3937984 82.4585385,36.4833333 82.2269615,36.5643411 C79.4286448,37.5972435 76.4632779,38.1102798 73.4785,38.077907 L73.4785,38.077907 Z M59.8369038,14.0697674 C56.0416154,15.6728682 53.4599615,18.2352713 52.57225,21.2794574 C51.6673846,24.494186 52.7352115,27.9093023 55.5741731,30.8895349 C58.4131346,33.8697674 62.8045192,36.1294574 67.7791346,37.1015504 C72.8395192,38.0906977 77.9127692,37.7581395 82.064,36.1678295 C82.2784231,36.0868217 82.4928462,35.9972868 82.6986923,35.9120155 C86.5111346,34.3003876 89.0842115,31.7422481 89.9547692,28.698062 C90.8725,25.4833333 89.8089615,22.0724806 86.9528462,19.0879845 C84.0967308,16.1034884 79.7653846,13.848062 74.76075,12.8674419 C69.7089423,11.8782946 64.6356923,12.2065891 60.4801731,13.8011628 L59.8369038,14.0612403 L59.8369038,14.0697674 Z" id="Shape" fill="#000000"></path><path d="M59.5152692,11.8569767 C59.7296923,11.7717054 59.9441154,11.677907 60.1628269,11.5968992 C64.3783846,9.98100775 69.5030962,9.66124031 74.5634808,10.6546512 C79.6238654,11.648062 83.9980962,13.8864341 86.8842308,16.9263566 L87.1029423,16.8581395 L86.8670769,16.9476744 C92.7036731,23.0616279 90.7266923,30.6465116 82.5314423,34.1127907 C82.3255962,34.2023256 82.1025962,34.2875969 81.8924615,34.3728682 C73.1568654,37.7027132 61.1706154,35.3151163 55.1839231,29.0434109 C52.2634808,26.0034884 51.1956538,22.5158915 52.1219615,19.2372093 C53.0311154,16.0864341 55.6385,13.494186 59.5152692,11.8569767 Z" id="Path" fill="#F5F9FC"></path><path d="M73.2211923,36.0868217 C66.3210577,36.0868217 59.2193654,33.579845 55.02525,29.1883721 C52.0705,26.1100775 50.9640769,22.55 51.9118269,19.1689922 C52.8381346,15.9841085 55.5055577,13.3193798 59.4295,11.6608527 L59.6224808,11.5841085 L60.0856346,11.3965116 C64.3183462,9.77635659 69.4730769,9.43953488 74.6063654,10.4457364 C79.6195769,11.4306202 83.9980962,13.6434109 86.9442692,16.6833333 L87.0343269,16.6534884 L87.1243846,16.9093023 C89.8046731,19.7658915 90.9196731,23.0658915 90.25925,26.2081395 C89.5387885,29.6531008 86.8284808,32.5310078 82.6172115,34.3089147 C82.4070769,34.3984496 82.1883654,34.4879845 81.9696538,34.5689922 C79.1709008,35.6007348 76.2060152,36.1151327 73.2211923,36.0868217 L73.2211923,36.0868217 Z M59.6096154,12.0531008 C55.80575,13.6604651 53.2240962,16.2271318 52.3406731,19.3011628 C51.4315192,22.5329457 52.4993462,25.9437984 55.3425962,28.9112403 C61.2735385,35.1275194 73.1525769,37.4937984 81.8195577,34.1895349 C82.0339808,34.1085271 82.2484038,34.0232558 82.4499615,33.9337209 C86.5282885,32.2282946 89.1528269,29.444186 89.8432692,26.1399225 C90.48225,23.0957364 89.3715385,19.8895349 86.7169808,17.1096899 L86.4982692,16.8794574 L86.5197115,16.8794574 C83.6335769,13.9674419 79.388,11.844186 74.5120192,10.8891473 C69.4602115,9.89573643 64.3869615,10.2282946 60.2314423,11.8228682 C60.0770577,11.8782946 59.9269615,11.9422481 59.7768654,12.001938 L59.6096154,12.0531008 Z" id="Shape" fill="#000000"></path><path d="M62.0583269,13.6732558 L62.5815192,13.4643411 C65.9908462,12.1596899 70.1335,11.8996124 74.2246923,12.7011628 C78.3158846,13.5027132 81.8367115,15.3147287 84.1825,17.7748062 L84.3583269,17.7151163 L84.1696346,17.7875969 C88.8869423,22.7333333 87.3002115,28.8728682 80.6659615,31.6655039 C80.4987115,31.7379845 80.3228846,31.8062016 80.1470577,31.8744186 C73.0839615,34.5689922 63.3963269,32.6375969 58.5546538,27.5639535 C56.196,25.1081395 55.3340192,22.2899225 56.0802115,19.6294574 C56.8178269,17.0926357 58.9234615,14.9992248 62.0583269,13.6732558 Z" id="Path" fill="#F5F9FC"></path><path d="M73.1397115,33.3027132 C67.5647115,33.3027132 61.7967308,31.2689922 58.4002692,27.7131783 C55.9987308,25.2104651 55.1024423,22.324031 55.8743654,19.574031 C56.6248462,16.9860465 58.7905192,14.8244186 61.9768462,13.4771318 L62.1226538,13.4174419 L62.5043269,13.2639535 C65.9350962,11.9507752 70.1120577,11.677907 74.2632885,12.4922481 C78.3158846,13.2895349 81.8538654,15.075969 84.2425385,17.5275194 L84.294,17.5275194 L84.3283077,17.629845 L84.3283077,17.629845 L84.3283077,17.629845 L84.3283077,17.6639535 C86.5497308,20.0003876 87.4760385,22.7034884 86.9356923,25.2829457 C86.3481731,28.0841085 84.1481923,30.3992248 80.7302885,31.8616279 C80.5630385,31.9341085 80.3872115,32.0065891 80.2070962,32.0748062 C77.9454671,32.9059883 75.5508407,33.3220373 73.1397115,33.3027132 L73.1397115,33.3027132 Z M62.1398077,13.8693798 C59.0778462,15.1484496 56.9936538,17.2333333 56.2860577,19.6891473 C55.5570192,22.2856589 56.419,25.0313953 58.7090385,27.4189922 C63.4949615,32.4329457 73.0796731,34.3430233 80.0698654,31.6825581 C80.2456923,31.6186047 80.4129423,31.5503876 80.5801923,31.477907 C83.8651538,30.0922481 85.9750769,27.8624031 86.5325769,25.2062016 C87.0429038,22.7589147 86.1509038,20.1794574 84.01525,17.9581395 L83.79225,17.727907 L83.79225,17.727907 C81.4679038,15.4 78.0628654,13.7073643 74.1646538,12.9399225 C70.0863269,12.1426357 65.9951346,12.4069767 62.6415577,13.6945736 L62.2684615,13.8395349 L62.1398077,13.8693798 Z" id="Shape" fill="#000000"></path></g></g></g></g></svg> 