<?xml version="1.0" encoding="UTF-8"?> <svg xmlns="http://www.w3.org/2000/svg" xmlns:xlink="http://www.w3.org/1999/xlink" width="44px" height="44px" viewBox="0 0 44 44" version="1.1"><title>whatsapp</title><defs><linearGradient x1="50.0005452%" y1="99.9896397%" x2="50.0005452%" y2="-0.0105082593%" id="linearGradient-1"><stop stop-color="#20B038" offset="0%"></stop><stop stop-color="#60D66A" offset="100%"></stop></linearGradient><linearGradient x1="50.0007039%" y1="100.002858%" x2="50.0007039%" y2="0.00300051009%" id="linearGradient-2"><stop stop-color="#F9F9F9" offset="0%"></stop><stop stop-color="#FFFFFF" offset="100%"></stop></linearGradient></defs><g id="Marketing-Tools" stroke="none" stroke-width="1" fill="none" fill-rule="evenodd"><g id="Desktop-HD" transform="translate(-1081.000000, -5545.000000)"><g id="Group" transform="translate(1081.000000, 5545.000000)"><path d="M12.1296408,36.5411515 L12.7788641,36.9259892 C15.5068469,38.5449181 18.6344465,39.4010991 21.8238622,39.4028247 L21.8308198,39.4028247 C31.6258699,39.4028247 39.5978684,31.4326751 39.6015673,21.6370087 C39.6031071,16.8896173 37.7565124,12.4262226 34.4013087,9.06793728 C31.0458585,5.71026831 26.5846208,3.8598525 21.8371678,3.8578803 C12.0347219,3.8578803 4.06272337,11.8267973 4.05902416,21.6224637 C4.05773124,24.9792082 4.99674454,28.2484364 6.77591466,31.0766932 L7.19879729,31.7489665 L5.40311,38.3046796 L12.1296408,36.5411515 Z M0.269944752,43.3828335 L3.30318697,32.3070866 C1.43224797,29.0655308 0.447997353,25.3883656 0.449538133,21.6214653 C0.454098844,9.83634303 10.0449031,0.248373825 21.831258,0.248373825 C27.5505121,0.250839073 32.9187148,2.47671229 36.9555598,6.51688541 C40.9919735,10.5569969 43.2142104,15.9273567 43.2123627,21.638722 C43.2073694,33.423228 33.6145313,43.0130461 21.831258,43.0130461 C21.830389,43.0130461 21.8316928,43.0130461 21.831258,43.0130461 L21.8221261,43.0130461 C18.2438173,43.0118135 14.7277561,42.1142164 11.6049021,40.4109759 L0.269944752,43.3828335 Z" id="Shape" fill="#FFFFFF" fill-rule="nonzero"></path><path d="M1.18640102,21.6325589 C1.18510677,25.2687394 2.13521369,28.8187594 3.9418097,31.9483929 L1.01334055,42.6407936 L11.9553477,39.7716753 C14.9701006,41.4145171 18.3643785,42.2817917 21.8188085,42.282901 L21.8277228,42.282901 C33.2036138,42.282901 42.4630886,33.0258915 42.4680207,21.6487679 C42.4701761,16.1351772 40.3251015,10.9514367 36.4278511,7.05079669 C32.5312171,3.15071133 27.3489558,1.00169225 21.8267983,0.99910374 C10.4502911,0.99910374 1.19081628,10.2548807 1.18588579,21.6326205" id="Shape" fill="url(#linearGradient-1)" fill-rule="nonzero"></path><path d="M0.449291608,21.6263958 C0.447997353,25.3932344 1.43224797,29.0708311 3.30318697,32.3120171 L0.269698227,43.3871477 L11.6042963,40.4152285 C14.7273352,42.1182841 18.2432115,43.0158195 21.8215202,43.0172987 L21.8306521,43.0172987 C33.6139255,43.0172987 43.2068252,33.4274805 43.211757,21.6429746 C43.2137279,15.9313011 40.9914293,10.5610646 36.954954,6.52113797 C32.9178624,2.48121137 27.5500295,0.255091628 21.8306521,0.252626379 C10.0449136,0.252626379 0.453862796,9.84059558 0.448932298,21.6257178 M7.19878373,31.7535766 L6.77567923,31.0815497 C4.99650911,28.2529231 4.05749581,24.9837566 4.05878873,21.6273203 C4.06267284,11.8322702 12.0344865,3.86273684 21.8369324,3.86273684 C26.5838923,3.86458577 31.0452532,5.71518648 34.4010733,9.07279382 C37.7565235,12.4306477 39.6028717,16.8944122 39.6015781,21.6412489 C39.5972293,31.4369153 31.6252647,39.407065 21.8302146,39.407065 L21.823257,39.407065 C18.6339029,39.405216 15.5060568,38.5490967 12.7782589,36.9304143 L12.1290356,36.5455766 L5.40260401,38.3090924 L7.19878373,31.7535766 Z" id="Shape" fill="url(#linearGradient-2)" fill-rule="nonzero"></path><path d="M16.4869682,12.6898686 C16.0866981,11.8001603 15.6655473,11.7823489 15.2848512,11.7666945 C14.9732869,11.7534438 14.6169537,11.7542952 14.2610333,11.7542952 C13.9046816,11.7542952 13.3259028,11.8880218 12.8364893,12.4226356 C12.3466382,12.9572742 10.9664747,14.2496316 10.9664747,16.8780183 C10.9664747,19.5066515 12.8811103,22.0465358 13.1478502,22.403319 C13.4150585,22.759455 16.843813,28.3258945 22.2735853,30.4671481 C26.7865931,32.2467496 27.70496,31.8928015 28.684465,31.8036211 C29.66397,31.7146934 31.8453454,30.5117074 32.2903845,29.2641682 C32.7356639,28.0168139 32.7356639,26.9475739 32.6021645,26.724284 C32.4686651,26.5016412 32.1123134,26.3679261 31.5781001,26.1009458 C31.0436773,25.8337374 28.4172197,24.5411828 27.9276212,24.3628837 C27.4377701,24.1848126 27.0816094,24.0958849 26.7252577,24.6307453 C26.3691217,25.1649462 25.345951,26.3679446 25.0341586,26.7242963 C24.7225943,27.0813013 24.4108204,27.125873 23.876601,26.8586585 C23.3421782,26.5905812 21.6215146,26.0270068 19.5803502,24.2072217 C17.9921136,22.7911827 16.9199768,21.0424585 16.6081845,20.5075611 C16.2966202,19.9733601 16.5749221,19.6839831 16.8427837,19.4176129 C17.0828188,19.1782311 17.3772065,18.7938433 17.644421,18.482051 C17.9109761,18.1700552 17.9999038,17.9474124 18.1779748,17.5910484 C18.3562616,17.2344748 18.2671182,16.9224729 18.1336189,16.6552399 C17.9999038,16.3880316 16.9617012,13.746123 16.4866477,12.6897022" id="Path" fill="#FFFFFF"></path></g></g></g></svg> 