<?xml version="1.0" encoding="UTF-8"?> <svg xmlns="http://www.w3.org/2000/svg" viewBox="0 0 138.27 139"><style><![CDATA[.H{stroke:#3a3a3a}.I{stroke-miterlimit:10}]]></style><g class="I"><path d="M86.94 137.24l-37.85-.4c-9.3-.1-16.73-6.48-16.6-14.26l1.6-106.5c.12-7.78 7.74-14 17-13.9l37.92.4c9.3.1 16.72 6.48 16.6 14.26l-1.6 106.5c-.14 7.78-7.77 14-17.06 13.9z" fill="#2b2b2b" stroke="#333"></path><g class="H"><path d="M83.5 137.2l-37.86-.4c-9.28-.1-16.72-6.5-16.6-14.27L30.63 16c.12-7.78 7.74-14 17-13.9l37.86.4c9.3.1 16.72 6.5 16.6 14.27l-1.6 106.5c-.08 7.82-7.7 14.05-17 13.95z" fill="#ff4d4d"></path><path d="M30.65 14.78c.9.14 74.94.8 74.94.8M29 123.73c.9.14 74.95.8 74.95.8" fill="#f7f7f7"></path><path d="M100.33 124.58l-71.5-.76 1.64-108.95 71.5.76-1.64 108.95z" fill="#fcfcfc"></path><rect x="57.21" y="8.17" width="22.07" height="2.13" rx=".94" fill="#f7f7f7"></rect><path d="M115.42 76.22A357.89 357.89 0 0 0 82.24 122l-53 1.72.32-33L59.3 36.75z" fill="#d6f2e1"></path></g></g><ellipse cx="62.54" cy="98.12" rx="12.6" ry="10.15" transform="matrix(.554844 -.831954 .831954 .554844 -53.79 95.72)" fill="#a1d3b5" class="H"></ellipse><g class="I H"><path d="M79.85 51.62c-2 2.12-11.7 19.44-29.7 1.87M96 63c-1.3 2.62-14.12 17.7 8.17 29.14" fill="none"></path><path d="M133.76 74.82s-17.73 24.28-33 49.64l-71.26-.52 48.15-88.6z" fill="#d6f2e1"></path></g><ellipse cx="80.89" cy="96.73" rx="12.6" ry="10.15" transform="matrix(.554844 -.831954 .831954 .554844 -44.46 110.36)" fill="#a1d3b5" class="H"></ellipse><path d="M98.2 50.22c-2 2.13-11.7 19.45-29.72 1.88m45.9 9.5c-1.3 2.6-14.12 17.7 8.17 29.14" fill="none" class="I H"></path></svg> 