<?xml version="1.0" encoding="UTF-8"?> <svg xmlns="http://www.w3.org/2000/svg" viewBox="0 0 138.27 139" stroke="#3a3a3a"><circle cx="71.81" cy="68.42" r="61.76" fill="#353535"></circle><circle cx="66.89" cy="69.2" r="61.83" fill="#a243a8" stroke-width="1.25"></circle><circle cx="67.14" cy="69.16" r="56.22" fill="#f9dfd2"></circle><g stroke-miterlimit="10"><path d="M123.58,68.84a56.22,56.22,0,0,1-112.44,0Z" fill="#fff"></path><g fill="#f9dfd2"><rect x="64.51" y="18.57" width="6.26" height="44.22" rx="3.13"></rect><rect x="90.63" y="46.31" width="6.26" height="44.22" rx="3.13" transform="matrix(0 1 -1 0 162.17 -25.33)"></rect></g><path d="M81.63,68.54A13.63,13.63,0,1,1,68,54.91,13.63,13.63,0,0,1,81.63,68.54Z" fill="#353535"></path><path d="M79.88 68.15a14 14 0 1 1-14-14 14 14 0 0 1 14 14z" fill="#ff4d4d"></path></g></svg> 