<?xml version="1.0" encoding="UTF-8"?> <svg xmlns="http://www.w3.org/2000/svg" viewBox="0 0 285.19 285.19"><style><![CDATA[.A{fill:#106e33}]]></style><path class="A" d="M270 163.33l-15.55-21.1-15.53 21.1h-6.4l18.7-25.5-17.07-23.18h6.4l13.9 18.9 13.9-18.9h6.4l-17.06 23.17 18.7 25.5zm-121.16 0l-18.74-25.5 17.07-23.17h-6.4l-13.92 18.9-13.86-18.9h-6.38l17.06 23.17-18.7 25.5h6.4l15.53-21.1 15.54 21.1zm35.56-23.66a13.6 13.6 0 0 0-3.19-2 11 11 0 0 0 5.86-9.74c0-3.12-1.15-13.24-15.83-13.24h-19.76v21h-6.58c-.86 1.1-2.8 3.8-3.53 4.88h10.1v22.8h19.77c10.7 0 17.36-5.44 17.36-14.2a12 12 0 0 0-4.21-9.45m-27.46-19.93h14.3c3.87 0 10.35 1 10.35 7.73 0 5.12-3.77 8.17-10.35 8.17h-14.3v-15.9zm14.3 38.5h-14.3v-17.75h14.3c5.43 0 11.9 1.5 11.9 8.47 0 8-7.46 9.24-11.9 9.24m43.08-44.7c-13.68 0-23.23 10.45-23.23 25.43s9.55 25.44 23.23 25.44 23.2-10.4 23.2-25.4-9.53-25.43-23.2-25.43m0 45.72c-10.42 0-17.72-8.35-17.72-20.3s7.3-20.3 17.72-20.3S232 127 232 139s-7.25 20.3-17.65 20.3M21.48 109.45a40.54 40.54 0 0 0-3.77 53.44.17.17 0 0 0 .21.07c.08 0 .08-.13.05-.2-3.1-9.56 12.72-32.74 20.9-42.46 0 0 .06-.07.06-.12a.17.17 0 0 0-.08-.13c-13.74-13.68-17.4-10.55-17.36-10.6m57 0a40.57 40.57 0 0 1 3.77 53.44.15.15 0 1 1-.26-.14c3.1-9.56-12.7-32.76-20.87-42.48a.2.2 0 0 1-.06-.12.14.14 0 0 1 .08-.13c13.74-13.68 17.38-10.53 17.34-10.57M50 97.78a40 40 0 0 1 21.13 5.94.15.15 0 0 1 .07.2.17.17 0 0 1-.2.07c-7.85-1.7-19.8 5.1-20.92 5.77a.11.11 0 0 1-.08 0 .12.12 0 0 1-.09 0c-3-1.72-14-7.5-21-5.73a.16.16 0 0 1-.2-.07.16.16 0 0 1 .07-.2 40 40 0 0 1 21.2-6m0 32.54a.21.21 0 0 1 .12.07c12.12 9.25 32.9 32.07 26.55 38.53a40.58 40.58 0 0 1-53.42 0c-6.33-6.46 14.45-29.28 26.58-38.5a.23.23 0 0 1 .14-.07"></path></svg> 