<?xml version="1.0" encoding="UTF-8"?> <svg xmlns="http://www.w3.org/2000/svg" viewBox="0 0 285.19 285.19"><style><![CDATA[.B{fill:#fff}]]></style><path d="M218.6 142.6a76 76 0 1 1-76-76 76.09 76.09 0 0 1 76 76z" fill="#a81612"></path><path class="B" d="M188.7 142.6a46.1 46.1 0 1 1-46.1-46.1 46.11 46.11 0 0 1 46.1 46.1z"></path><path d="M185.23 142.6A42.64 42.64 0 1 1 142.59 100a42.69 42.69 0 0 1 42.64 42.59z" fill="#451400"></path><path class="B" d="M95.48 123.36a8.85 8.85 0 0 1-2.14 3 7.89 7.89 0 0 1-3 1.73 9.78 9.78 0 0 1-3.46.51 8.34 8.34 0 0 1-3.46-.92 10 10 0 0 1-3-2 8.55 8.55 0 0 1-1.84-2.85 7.51 7.51 0 0 1-.5-3.36 8.11 8.11 0 0 1 .91-3.66 12.27 12.27 0 0 1 1.12-1.94 9.87 9.87 0 0 1 1.32-1.42 7.4 7.4 0 0 1 1.43-1 10.47 10.47 0 0 1 1.53-.71L86 114a11.3 11.3 0 0 0-2.24 1.22 5.8 5.8 0 0 0-1.52 1.93 4.6 4.6 0 0 0-.51 2 4.18 4.18 0 0 0 .4 1.93 4.88 4.88 0 0 0 1.12 1.63A6.56 6.56 0 0 0 85 124a5.44 5.44 0 0 0 2.14.51 4.6 4.6 0 0 0 2-.2 5.77 5.77 0 0 0 1.73-.92 7.23 7.23 0 0 0 1.32-1.63 6.11 6.11 0 0 0 .61-2.54 6.84 6.84 0 0 0-.51-2.44l3.36-1.12.6 1.83a11.38 11.38 0 0 1 .2 1.83 12.64 12.64 0 0 1-.2 1.93 14.93 14.93 0 0 1-.81 2.14zm-7.74-23l2.65-2.75 5.8 5.8 5.6-5.8-5.8-5.9 2.45-2.24 12.4 12.2-1.93 2.55-4.78-4.38-5.7 5.5 4.68 4.48-2.65 2.84zm21.06-18l3-1.63 8.34 15.57-2.95 1.63zm22.2 1.42a3.42 3.42 0 0 0 2.24-1.22 2.22 2.22 0 0 0 .41-1.93 2.49 2.49 0 0 0-1.22-1.73 4.25 4.25 0 0 0-2.55-.21l-3.05.62 1 5.08 3.15-.6zm-8.85-7.12l7.33-1.43a9.94 9.94 0 0 1 2.95-.1 5.73 5.73 0 0 1 2.44.82 4.38 4.38 0 0 1 1.73 1.63 5.7 5.7 0 0 1 1 2.23 5.91 5.91 0 0 1 0 2.65 5.49 5.49 0 0 1-1.12 2.14 6.71 6.71 0 0 1-2.14 1.52 10.58 10.58 0 0 1-2.75.92l-3.56.7 1 5.4-3.36.6-3.56-17.1zm32.95 1.52a5.55 5.55 0 0 0-2.24-.11 4.53 4.53 0 0 0-1.93.72 4.72 4.72 0 0 0-1.43 1.42 4.57 4.57 0 0 0-.81 2 5.64 5.64 0 0 0-.1 2.24 4.8 4.8 0 0 0 .71 2 7 7 0 0 0 1.43 1.63 4.87 4.87 0 0 0 2 1 5.72 5.72 0 0 0 2.24.1 6.38 6.38 0 0 0 1.93-.71 4.87 4.87 0 0 0 1.43-1.43 4.58 4.58 0 0 0 .81-2 5.31 5.31 0 0 0 .1-2.24 4.79 4.79 0 0 0-.71-2 7.23 7.23 0 0 0-1.42-1.63 5.49 5.49 0 0 0-2-1zm.92-3.46a10.35 10.35 0 0 1 3.56 1.73 12.19 12.19 0 0 1 2.54 2.64 9.85 9.85 0 0 1 1.33 3.36 8.86 8.86 0 0 1-.11 3.66 8.38 8.38 0 0 1-1.52 3.36 9.2 9.2 0 0 1-2.55 2.34 7.66 7.66 0 0 1-3.35 1.12 9 9 0 0 1-4-.3 10.68 10.68 0 0 1-3.57-1.73 12.72 12.72 0 0 1-2.54-2.65 9.64 9.64 0 0 1-1.32-3.36 8.69 8.69 0 0 1 .1-3.66 9.86 9.86 0 0 1 1.53-3.36 9.16 9.16 0 0 1 2.54-2.34 7.75 7.75 0 0 1 3.36-1.12 9 9 0 0 1 4 .31zm19.65 10.58l-5.3-3.16 1.73-2.54 12.82 7.63-1.73 2.65-4.4-2.88-7.63 12.4-3.05-1.73 7.53-12.4zm16.48 8.45l2.34 2.74-11.1 9.37 6.2 6.92-2.75 2-7.94-9.36 13.23-11.7zm13.35 18.42l4.78 12.1-2.85 1-3.56-8.75-4.68 1.83 2.74 7-3 1-2.75-7-3.17 1.25 3.76 9.06-3 1-4.78-12.42zM83.87 143.5A1.69 1.69 0 0 1 83 145a2 2 0 0 1-1.83 0 1.73 1.73 0 0 1 0-3.06A2 2 0 0 1 83 142a1.69 1.69 0 0 1 .87 1.51zm121.73 0a1.69 1.69 0 0 1-.92 1.53 2 2 0 0 1-1.83 0 1.73 1.73 0 0 1 0-3.06 2 2 0 0 1 1.83 0 1.69 1.69 0 0 1 .92 1.53zM89.57 157.66l.82 2.13-3 3.87 4.78.92.8 2.13-9.16 3.46-.7-2 6-2.24-4.9-1.12v-.1l3-4-5.9 2.3-.7-2zm5.9 13.54l4.17 6.1-1.65 1.12-3-4.38-1.63 1.12L96.1 179l-1.63 1.12-2.65-3.87-1.73 1.12 3 4.37-1.62 1.12-4.18-6.2 8.25-5.5zm6.1 15.15l.82-5.8 1.83 1.73-.6 3.77 3.66-.92 1.83 1.63-5.6 1.32-.82 6-1.83-1.73.6-4-3.87 1-1.83-1.63 5.8-1.43zm11.6 3.35l1.84 1.12-5.2 8.35-1.83-1.12zm7.52 14.67a5 5 0 0 1-1.73-1 3.47 3.47 0 0 1-1.12-1.53 6.25 6.25 0 0 1-.5-1.83 7.25 7.25 0 0 1 .3-2 5.85 5.85 0 0 1 1-1.73 4.62 4.62 0 0 1 1.53-1.22 6.6 6.6 0 0 1 1.83-.51 8.43 8.43 0 0 1 2.13.31 3.72 3.72 0 0 1 1.12.51l.92.6a3.85 3.85 0 0 1 .61.71l.5.82-1.83 1a4.82 4.82 0 0 0-.82-1.12 4.37 4.37 0 0 0-1.12-.71 2.23 2.23 0 0 0-1.12-.1 2.29 2.29 0 0 0-1.12.31 5.13 5.13 0 0 0-.91.71 3.15 3.15 0 0 0-.61 1 5.11 5.11 0 0 0-.21 1.22 3.78 3.78 0 0 0 .21 1.12 2.31 2.31 0 0 0 .61.91 2 2 0 0 0 1 .61 3.58 3.58 0 0 0 1.42.21 7.18 7.18 0 0 0 1.32-.41l.9 1.75a3.35 3.35 0 0 1-1 .41 3.62 3.62 0 0 1-1 .2h-1.12a1.74 1.74 0 0 1-1.17-.24zm16.5-.72l-.92-3.25-1.62 2.95 2.54.3zm-1.53-6l1.94.2 2.95 10.28-2.24-.3-.6-2.24-4.07-.5-1.12 2-2.14-.3 5.3-9.16zm10.5.6l1.93-.2 5.2 5.6-.6-6 2.14-.2 1 9.77-1.83.2-5.3-5.7.6 6.2-2.14.2-1-9.87zm24.84 4.07a5.41 5.41 0 0 1-2 .51 5.74 5.74 0 0 1-1.93-.31 5.55 5.55 0 0 1-1.63-1 3.91 3.91 0 0 1-1.12-1.73 4.38 4.38 0 0 1-.41-1.94 5.74 5.74 0 0 1 .31-1.93 5.38 5.38 0 0 1 1-1.63 5.2 5.2 0 0 1 1.73-1.22 7.5 7.5 0 0 1 1.12-.41c.3-.1.7-.1 1-.2h.93a3 3 0 0 1 .91.2l-.6 2c-.2-.1-.5-.1-.7-.2h-.6a1.83 1.83 0 0 0-.71.11c-.2.1-.5.1-.7.2a3.24 3.24 0 0 0-.92.71 4.23 4.23 0 0 0-.51.92 3.67 3.67 0 0 0-.2 1.12 2.11 2.11 0 0 0 .3 1.12 3.7 3.7 0 0 0 .72 1 2.46 2.46 0 0 0 .91.62 4.4 4.4 0 0 0 1.12.2 2.6 2.6 0 0 0 1.22-.31 4.23 4.23 0 0 0 1.63-1.32l-.6-1.32-1.93.9-.6-1.42 3.86-1.73 1.73 3.87a6.56 6.56 0 0 1-1.22 1.73 5.26 5.26 0 0 1-2 1.42zm10.26-12.4a1.61 1.61 0 0 0 .72-1 1.33 1.33 0 0 0-.31-1 1.12 1.12 0 0 0-1-.51 2.11 2.11 0 0 0-1.22.51L177.8 189l1.73 2.24zm-6.4-1.12l3.57-2.75a4.27 4.27 0 0 1 2.84-1 3.1 3.1 0 0 1 2 1.22 2.85 2.85 0 0 1 .71 1.94 4.08 4.08 0 0 1-.51 1.83l4.07 1.32-2 1.53-3.53-1.24-1.33 1 1.94 2.45-1.73 1.42-6-7.73zm10.07-8.65l1.42-1.63 7.43 6.4-1.42 1.63-7.43-6.4zm4.77-6.16l1.12-1.83 6.72 4L200 172l1.73 1-3.56 6.1-8.46-5.1zm5.3-10.24l.72-2 7.42 2.44 1.53-4.68 1.83.6-2.24 6.7zm-61.36-3.36a4.22 4.22 0 0 0-.92-1.93 8.89 8.89 0 0 1-.91-1.43c-.4-.8-1-1.42-1.33-2.23a34.54 34.54 0 0 0-1.83-4.79c-.1-.9-.5-1.93-.6-2.85a11.86 11.86 0 0 1-.1-1.93c0-.6.1-1.32.1-2v-2.74c0-.82.4-1.53.4-2.45 0-.6 1-1.42 1.22-1.83 2.44-.5 4.27-1.22 6.82-1.52a27.56 27.56 0 0 1 5.19.61c1.52.3 2.24 1.22 3.46 2 .6.3-.3 1.22-.4 1.83a5.4 5.4 0 0 1-.61 1.33c-.6 1.42-1.63 2.64-2 4.17a32.83 32.83 0 0 0-1.52 3.26c-.2.4-.5 1.22-.7 1.62a9.81 9.81 0 0 0 0 3.06 16 16 0 0 0 .4 2.13c.1.2.1.4.2.6.1.5.3 1 .4 1.53a25.49 25.49 0 0 0 1.84 4.78c.4 1 1 1.43-.2 1.12-.5-.1-.5-.3-.8-.6a10.86 10.86 0 0 0-1.12-.81 8.47 8.47 0 0 1-.92-1c-.6-.6-.7-1.22-1.42-1.93-.4-1.94-1.94-4-2.95-6-.4-.8-.92-1.42-1.33-2.24a11.22 11.22 0 0 1-.81-1.52 15.07 15.07 0 0 1-.1-3 7.82 7.82 0 0 1 .2-4.08c.1-2 1.63-1.62 3.05-1.52a2.94 2.94 0 0 1 1.94.4c1.32 1 .7.92.7 2.45a3.54 3.54 0 0 1-.51 2c-.4.72-.7 1.53-1.12 2.34-.1.1-.1-1.12-.1-1.42a1.09 1.09 0 0 0-1.22-1.12c-.92.2-.92.6-1.32 1.53-.2.5.2 1.52.3 2.13.3 1.43 1.43 2.45 2.75 1.94a2.51 2.51 0 0 0 .81-1.53 5.89 5.89 0 0 1 .72-2.14 18.11 18.11 0 0 1 1.11-2.44c.4-1.32 1.33-2.54.5-4.07-.5-1.22-1-2.14-2.34-2.54a10.6 10.6 0 0 0-2.64 0 15.9 15.9 0 0 0-4.38.91c-.5.1-.5.82-.6 1.32-.2.72-.2 1.53-.4 2.24-.2.92.1 2-.2 3a5.55 5.55 0 0 0 .1 2.85 14.15 14.15 0 0 0 1.12 2.55c1 1.32 1.22 2.75 2.24 4a12.26 12.26 0 0 1 1.32 2.54c.1.1.1.3.2.4.5 1 1.62 2.34 2.24 3.36a6.61 6.61 0 0 0 1.73 2 13.27 13.27 0 0 1 1.62 1.73c3.16 2 5.4 2.34 6.52 1.43.5-.5-.6-1.33-.82-1.53a10 10 0 0 1-2.13-3.66 14.14 14.14 0 0 0-1.33-3.06 19 19 0 0 1-1.12-4.78 10 10 0 0 1 .1-2.44c.2-2 2-3.77 2.45-5.3a4.48 4.48 0 0 0 1-1.94 13.72 13.72 0 0 0 3.25-5.39c.1-.5-.7-1.22-.9-1.63a9.15 9.15 0 0 0-1.43-1.42c-.4-.4-.5-.92-.9-1.33s-1.12-.9-1.63-.7-.72.92-1.43.92h-1.73a16.76 16.76 0 0 1-2.95-.51 13 13 0 0 1-2.65-.82c-.5-.3-1.32 0-2 .1-3.36.7-6.82-.5-7 3.46a39.87 39.87 0 0 0-.92 4.88v7a7.24 7.24 0 0 0 .51 2.55c.4 1.12 1.12 2 1.63 3.15a55.58 55.58 0 0 0 4.88 6.31c.92.6.4-.3 1.43.7zm4.58-32.4l-4.8-3.87c-.2 0-.3.1-.5.1-1.73.4-5 .1-6.3 1-2.34 1.33-3.87 3.67-5.5 5.3-.5.3-.3 1.52-.5 2.13-.4 1-.3 2.14-.7 3.16a13.07 13.07 0 0 0-.41 4.07l.1 5.5a26.3 26.3 0 0 0 .62 5c0 3.46 7.83 11.5 12.3 19.23a2.38 2.38 0 0 0 2.24 1.53c.2 0 .5.1.7.1 1.63.2 2.44 1.12 4.17 1.12a11.82 11.82 0 0 1 2.55.61 13.85 13.85 0 0 0 2.95.1c1.42 0 3-.1 4.37-.1a8 8 0 0 0 2.24 0 9.16 9.16 0 0 1 2.34 0c.72 0 1.63-.3 2.45-.3.5 0 1.42-1.33 1.93-1.53 1.12-.5 1.73-1.73 2.34-2.75a9.6 9.6 0 0 0 1-2.34c.2-.8 0-1.63-.82-1.83s-.9-.6-1.62-.7a5.24 5.24 0 0 1-1.73-.61c-.92-.72-2.14-1.43-3.06-2.24a23.72 23.72 0 0 0-3.15-2c-.7-.4-.82-.8-1.53-.6s-1-1.63-.7-2.95c.2-1-.2-1.22-.5-1.93-.7-1.73-1.53-.82.2-2.34 1.12-.82 2-3.16 2.75-4.38 1.12-1.73 2.75-3.66 2.75-5.4a6.66 6.66 0 0 0 .91-4.18c-.1-1.22-1.42-3.56-2.54-5.6-1.83-1.12-2-4.28-3.76-5.1a3.68 3.68 0 0 0-1.53.1c-.5.1-1.12 1.73-1.63 1.73a63.16 63.16 0 0 1 4.17 5.39c.92 1.94 2 3.06 1.94 5.3-.3 3-2.34 5.7-3.06 7-.1.2-1.12 1.63-1.22 1.83-.4.8-.5.7-.8 1.43a15.24 15.24 0 0 0-1 1.83 7.84 7.84 0 0 0 .1 3c.2.92.92.7 1.12 1.73a11.18 11.18 0 0 1 0 2.65c0 .7.1 1.93.1 2.64s1 .2 1.63.3c.92.2 1.22 1.42 2.34 1.83a27 27 0 0 1 3.86 2.92c.8.6.1-.4-.2.7-3 2.14-6.82 2.34-10.5 2.14-7.22-.6-7.73.1-10.48-3.16-3.87-5-7.43-9.66-11-15.26-.1-3.56 0-7.84.2-11.4 0-2 .5-2.44.5-4.48a7.34 7.34 0 0 1 5.19-5.39 33.23 33.23 0 0 1 9.47-1z"></path><path class="B" d="M131.6 122.85a6.23 6.23 0 0 0-3.86-.2c-.4-.1 1-.7 1.32-1a5.05 5.05 0 0 1 2-1.12 18.65 18.65 0 0 1 3.77 1 19.79 19.79 0 0 0 3.36.61c3.66-3.36 7.94-6.82 12.1-10a39.5 39.5 0 0 1 7.83-1c1 .5 2.24.1 2.85 1 1 1.52 3.57 3.66 3.16 4.88a18.17 18.17 0 0 1-.92 4.58l-2.44.2h-1.53a1.87 1.87 0 0 1-1-.2 11 11 0 0 0 2.54-2.34c.3-.3-.1-1.12-.2-1.43-.4-1.22-1.22-2.23-1.63-3.46a30.56 30.56 0 0 0-6 .51 6.59 6.59 0 0 0-1.83 1c-1 1.12-1.32 1.12-2.95 2.85.2 1.63-.8 3.16-.6 4.78.8 1.84.5 1.33 3.36 1.63.5.1 1.32-.1 1.63.1a.2.2 0 0 1 0 .31c-.1.2-.1 1.12-.92 1.53a18.12 18.12 0 0 1-3.36.81c-.1 0-.3.1-.4.1-.5.1-.82.2-1.43.3-1.63.2-2.24 1.32-3.26 2a7.48 7.48 0 0 1-3.15.31 2.12 2.12 0 0 1-1.22-.31c-.3-.2-.4-.8-.5-1.12a5.42 5.42 0 0 0-1-1.12c-.2-.6-.5-.6-.9-1s-.92-.92-1.53-1.43c-.4-.3-.5-.6-.92-1-.8-.8-1.22-1.52-2.34-1.83z"></path></svg> 