<?xml version="1.0" encoding="UTF-8"?> <svg xmlns="http://www.w3.org/2000/svg" viewBox="0 0 254 238.7" fill="#ee3a43"><path d="M126.922 37.888l-5.936.95-10.687 2.216c-3.56.713-11.204 3.047-14.252 4.315-1.308.513-2.8 1.108-3.365 1.267-3.007.95-12.35 5.66-16.032 8.075-5.936 3.96-6.808 4.592-9.3 6.73-11.322 9.697-19.08 21.496-22.84 34.676-1.74 6.136-2.14 9.265-2.098 17.218 0 8.116.395 11.082 1.74 12.867 2.375 3.088 4.197 1.898 4.197-2.73 0-8.63 1.898-19.157 4.987-27.55 5.7-15.52 17.1-28.345 31.905-35.943 6.136-3.13 7.957-3.8 14.965-5.623 2.216-.595 3.642-.513 3.483.2-.077.395-3.088 1.94-7.72 3.92-12.785 5.54-16.663 7.957-23.2 14.37-9.106 8.906-14.33 17.617-17.735 29.57-1.62 5.66-2.098 12.154-1.82 24.584.318 13.144.754 17.258 2.298 21.968 1.344 4.078 4.75 11.24 6.767 14.2 2.375 3.406 10.886 11.877 14.4 14.288.477.318 2.257 1.585 3.96 2.77 6.5 4.514 12.708 7.72 17.772 9.065 3.72 1.03 10.57 2.416 11.877 2.416 1.267 0 2.057 1 1.385 1.78-.554.672-4.115.8-7.126.236-8.788-1.62-15.242-3.72-22.363-7.203-7.875-3.88-16.468-11.4-23.476-20.624-4.946-6.5-6.213-7.64-7.362-6.65-2.216 1.82-.04 8.906 4.87 15.832 4.392 6.177 13.38 14.2 19.634 17.536 13.066 6.962 29.217 9.815 45.13 7.993 12.667-1.503 23.8-4.87 35.23-10.768 2.493-1.267 3.483-1.898 7.444-4.55l2.9-1.98c2.73-1.862 10.5-9.46 13.103-12.867 9.937-13.026 15.278-24.66 17.18-37.328 1.067-7.044.395-24-1.267-33.054-1.78-9.46-3.365-13.775-7.598-20.665-2.852-4.592-3.406-5.305-7.444-9.342-8.906-8.906-22.88-16.863-31.67-18.1-7.68-1.067-8.588-1.267-9.42-2.02-1.862-1.74-.63-2.9 2.8-2.6 8.706.713 15.673 2.93 24.66 7.916 9.855 5.423 17.536 11.36 22.2 17.18 6.926 8.588 12.23 23.158 13.657 37.328.713 7.008.236 22.522-.8 27.514-2.216 10.528-3.683 15.042-7.203 22.127-6.613 13.262-16.386 23.158-33.527 33.845-2.216 1.426-3.047 2.493-2.693 3.483.2.513.672.595 2.334.395 3.997-.436 9.456-3.356 16.032-8.152 4.4-3.2 4.42-3.37 7.126-5.66 2.153-1.82 11.913-11.24 14.806-14.965 5.818-7.562 8.988-13.54 11.36-21.455 3.007-10.214 4.274-21.532 3.88-34.953-.16-4.355-.436-8.63-.63-9.5l-1.185-5.54c-2.652-12.472-9.024-25.77-16.863-35.23-10.4-12.55-23.67-19.675-43.74-23.435-4.206-.754-19.725-1-24.752-.354zm18.25 32.22c.8.513 1.308 1.862 1.78 4.67.236 1.503.8 3.602 1.15 4.7l.672 1.98 8.275 2.8c8.552 2.9 9.737 3.365 15.832 6.336 4.433 2.14 5.505 3.166 5.105 4.87-.318 1.426-2.175 2.6-3.483 2.257-.436-.118-7.798-.04-16.268.2-14.4.354-31.152 1.385-37.646 2.334-1.503.236-4.828.672-7.32 1l-27.7 3.76-6.65 1.03c-3.365.554-3.8.554-4.67-.04-1.067-.672-1.03-.672-.713-1.544.754-1.98 15.042-10.096 25.097-14.288 2.493-1.067 4.8-2.057 5.07-2.298.277-.2 2.216-2.93 4.274-6.06 2.575-3.88 4.078-5.74 4.633-5.86.477-.077 4.078-.83 7.998-1.62l8.3-1.62c.672-.118 3.524-.713 6.336-1.344 6.958-1.55 9.138-1.826 9.928-1.272zm-26.047 34.244c.077.395-.277 1.385-.8 2.175-.554.8-1.503 2.257-2.14 3.247-1.662 2.534-3.997 4.75-4.987 4.75-1.15 0-2.298-1.108-2.298-2.257 0-2.493 2.73-5.7 6.53-7.598 2.575-1.35 3.483-1.4 3.683-.318zm49.482 5.895c.672.672.595 2.216-.318 4.828-.8 2.175-.8 2.334-.16 3.047.354.436 1.067.754 1.544.754 1.185 0 2.77 1.308 2.375 1.94-.513.83-3.443 2.02-5.07 2.02a7.9 7.9 0 0 1-2.889-.631c-1.226-.595-1.385-.595-2.493.2-2.575 1.862-6.136 3.247-8.034 3.13-1-.04-2.057.118-2.375.354-2.493 2.02-5.977 2.9-11.954 2.93-2.216 0-4.828.16-5.86.318-3.206.513-3.92-.754-2.057-3.683.872-1.344 5.936-6.018 9.66-8.906.554-.436.908-.83.8-.95s-1.426 0-2.97.2c-1.503.2-3.325.277-4.078.118-1.544-.277-2.852-1.462-2.852-2.534 0-1.426 1.067-2.02 3.683-2.02 1.344 0 3.683-.277 5.223-.595 1.503-.318 3.838-.595 5.105-.595 2.852 0 3.8.672 3.8 2.652 0 1.226-.554 1.94-4.8 6.254-2.6 2.693-4.633 4.946-4.433 5.07.672.354 6.7.63 7.998.354l1.385-.318-.118-2.175c-.077-1.898.077-2.416 1.267-4.115 1.744-2.575 5.382-5.505 8.193-6.613 1.185-.477 3.524-1 5.146-1.108l3.406-.318c.2-.04.595.118.872.395zm-71.5.754c2.416.95 4.514 2.77 5.305 4.592.318.713.554 2.334.554 3.602 0 4.592-3.524 8.906-9.065 11.082-4.197 1.662-5.74 1.898-7.008 1.067-.554-.354-1.067-.595-1.108-.513-.077.077-.477 1.108-.95 2.298-5.7 14.606-7.285 17.34-9.265 15.555-.713-.63-.8-1.03-.595-3.683.436-5.9 4.474-17.377 8.63-24.462 1.067-1.78 1.94-3.325 1.94-3.365 0-.077-.595-.04-1.344.04-1.067.118-1.462 0-1.82-.672-.595-1.108-.277-2.02 1.226-3.443 2.775-2.652 9.424-3.72 13.502-2.098zm33.6 4.75c1.03 1.03.8 2.257-.95 4.67-1.385 1.898-1.94 2.534-6.095 6.808l-2.852 2.93 4.433.04c2.453 0 6.767.118 9.578.2 3.642.118 5.7 0 7.044-.395 3.483-1 3.443 1.15-.04 2.852-2.73 1.385-5.7 1.82-14.134 2.02-4.946.16-8.47.436-10.3.872-5.818 1.385-6.926 1.185-6.926-1.226 0-1.662 1.62-3.642 7.68-9.3 5.54-5.146 5.936-5.66 4.078-5.105-1.78.513-5.582.436-6.808-.118-.554-.236-1.108-.908-1.267-1.426-.436-1.74.83-2.298 5.9-2.652 2.453-.16 5.264-.436 6.254-.595 2.93-.486 3.524-.445 4.396.427zm-19.043 1.78c.908 2.375.118 5.74-2.93 12.154-1.226 2.575-2.216 4.946-2.216 5.346 0 1.82-2.14 2.216-3.602.63-.83-.872-.95-1.385-.95-3.838 0-2.575.16-3.13 1.544-5.623 1.662-3.007 5.66-8.906 6.372-9.383.754-.554 1.426-.318 1.78.713zm45.526 15.596c0 .63-.318 1.78-.672 2.575-.354.754-.554 1.503-.395 1.62.118.16 1.74-.118 3.56-.554 4.315-1.108 7.598-1.503 7.957-.95.513.83-2.493 2.257-12.626 6.095-1.426.554-1.62.83-2.375 3.13-.477 1.385-1.15 3.247-1.544 4.115s-1.15 2.97-1.662 4.67c-2.098 6.572-3.088 7.875-4.115 5.423-.713-1.703-.277-6.808.908-11.48 1.03-3.96.95-4.355-.83-4.355-1.226 0-2.93-1.74-2.575-2.652.513-1.503 1-1.703 3.838-1.703h2.9l1.862-2.93c2.298-3.683 3.92-5.146 5.028-4.592.477.282.754.836.754 1.6zm-35.353 4.987c.118.354-.236 2.534-.83 4.87-1.267 5.028-1.308 5.782-.318 5.382.354-.16 1.108-.395 1.585-.513 1.462-.318 1 1.462-.713 2.575-2.416 1.62-2.693 2.02-2.97 3.96a67.08 67.08 0 0 1-.79 4.078l-.754 3.247c-.436 1.862-2.098 3.483-3.642 3.483-2.257 0-3.047-2.575-2.14-7.126.16-1 .277-1.82.2-1.898-.04-.04-1.862.477-3.997 1.226l-3.92 1.308-1.226 4.946c-1.385 5.54-2.057 7.044-3.56 8.234-1.344 1.067-2.6 1.067-3.56 0s-.95-5.582 0-8.393c1.067-3.13.908-3.683-1.03-3.96-2.14-.277-3.72-1.862-3.088-3.047.554-1.067 2.14-1.82 5.07-2.416 2.14-.436 2.534-.672 2.73-1.544.318-1.344 4.156-8.706 5.66-10.886 2.257-3.284 3.997-4.274 4.55-2.6.318 1-1.03 6.53-2.334 9.896-.595 1.426-1.03 2.73-1.03 2.93 0 .395 1.898.118 5.223-.8 2.216-.595 2.216-.595 3.13-3.047 1.462-3.92 3.72-8.275 4.9-9.46 1.23-1.2 2.457-1.4 2.852-.44zm19.993 4.237c.118.513-.077 2.9-.354 5.264-.318 2.375-.477 5.423-.354 6.767.16 1.98.077 2.453-.436 2.652-1.03.395-2.97-1.03-3.96-2.9-.513-1-1-1.82-1.067-1.898-.077-.118-1.03.754-2.057 1.862-3.365 3.602-7.167 4.87-9.265 3.13-.83-.713-1-1.15-.95-3.088 0-1.308.395-3.247.95-4.75l.95-2.534-.908-.713c-1.108-.908-.672-1.703 1.185-2.098 1.82-.354 3.088.118 3.72 1.385.672 1.267.8 4.197.2 5.66-.513 1.426-.077 1.308 2.493-.713 2.416-1.862 4.514-4.197 6.136-6.767 1.15-1.82 1.544-2.175 2.693-2.175.6-.005.908.273 1.026.908zm18.722-27.077c-1.544.672-4.55 3.602-4.55 4.392 0 .63.713.477 3.406-.8 1.98-.908 2.575-1.385 2.77-2.257.16-.595.436-1.344.672-1.62.55-.713-.4-.595-2.298.277zm-70.445 1.15c-.118.118-.2.754-.2 1.385s-.8 3.524-1.78 6.454c-2.02 5.936-2.057 6.254-1.067 5.74.354-.2 1.82-.83 3.206-1.462 3.13-1.426 6.136-4.237 6.73-6.295.318-1.226.277-1.74-.354-2.93-.395-.83-1.226-1.703-1.862-2.02-1.267-.595-4.355-1.15-4.673-.872zM41.302 135.82c-1.344 1.426-1.74 3.76-1.267 7.167.754 5.305 1.98 7.64 4.75 9.024 2.14 1.108 3.602 1.15 4.55.118.63-.672.63-1.108.236-4.828l-.672-6.254c-.436-4.156-1.74-5.9-4.67-6.213-1.626-.204-1.903-.123-2.93.986z"></path></svg> 