<?xml version="1.0" encoding="UTF-8"?> <svg xmlns="http://www.w3.org/2000/svg" viewBox="0 0 285.19 285.19"><style><![CDATA[.A{fill:#282828}]]></style><path class="A" d="M26 165.9a23.18 23.18 0 1 1 23.27-23.2A23.18 23.18 0 0 1 26 165.9zm199-43.97h3.9v13.93a6.34 6.34 0 0 1 2.56-2.32c4.64-2.27 11.3.25 11.35 7v14.88h-3.92v-15.65a9.87 9.87 0 0 0-.4-2.64c-1.08-3.63-4.77-3.87-6.94-2.4a5.62 5.62 0 0 0-2.61 4.87v15.78H225zm-98.85 42.2l.9-1a7.94 7.94 0 0 0 3.35 1.63 9.69 9.69 0 0 0 7-.73 3.66 3.66 0 0 0 2.09-3.87 2.33 2.33 0 0 0-1.76-2.26c-1.12-.27-2.27-.4-3.4-.56l-4.5-.58a6.81 6.81 0 0 1-1.63-.55 3.58 3.58 0 0 1-2.25-3.65 3.71 3.71 0 0 1 2.37-3.6l.28-.14-1.84-1.48a7.46 7.46 0 0 1-2.14-4.28 10.52 10.52 0 0 1 .38-5.25 7.26 7.26 0 0 1 6.39-5 10.89 10.89 0 0 1 5.45.58 2.06 2.06 0 0 0 .66.07h5.58v1.1h-4.18l.5.54a9.16 9.16 0 0 1 2.09 7.15 8.12 8.12 0 0 1-1.9 4.87 8.27 8.27 0 0 1-6.27 2.61l-4 .22a2.73 2.73 0 0 0-1 .35 1.51 1.51 0 0 0-.79 1.55 1.13 1.13 0 0 0 1 1.05l3.65.47 6 .62a5 5 0 0 1 2.6 1.22 5.2 5.2 0 0 1 1.59 4.79 6.14 6.14 0 0 1-3.45 4.82 11.68 11.68 0 0 1-11.56.13 10.88 10.88 0 0 1-1.18-.83zm11.44-22.58l-.37-4.16A3.64 3.64 0 0 0 134 134a7.79 7.79 0 0 0-1.28-.06 3.62 3.62 0 0 0-3.95 3.13 22 22 0 0 0-.08 8.17 3.51 3.51 0 0 0 3 3.21 9.94 9.94 0 0 0 1.73.08 3.46 3.46 0 0 0 3.67-2.95 36.29 36.29 0 0 0 .5-4.04zm-18.1 13.86h-3.92v-15.27a11.3 11.3 0 0 0-.32-2.65c-1-4.08-5.1-4.3-7.35-2.53a5.66 5.66 0 0 0-2.28 4.65v15.8h-3.93v-21.9h3.9v2.25c.48-.5.85-1 1.3-1.34 3.58-3.08 11-2 12.43 4.26a9 9 0 0 1 .23 1.94v14.23c-.02.17-.04.37-.05.58zm129.07-21.94h3.95v15.13a8.12 8.12 0 0 0 .82 4 4.47 4.47 0 0 0 4.51 2.4 4.33 4.33 0 0 0 4-2.79 8.47 8.47 0 0 0 .61-3.45q0-7.28 0-14.56v-.7h3.94v13.6a9.86 9.86 0 0 1-1.37 5.35 8 8 0 0 1-6.4 3.69 11 11 0 0 1-4.65-.46 7.69 7.69 0 0 1-5.26-6.51 18.6 18.6 0 0 1-.19-2.79v-12.16zm-157.16 0h3.92v14.02a8.4 8.4 0 0 1-3.06 6.86 8.18 8.18 0 0 1-4.26 1.7 11.18 11.18 0 0 1-5.35-.51 7.48 7.48 0 0 1-4.9-6.12 31 31 0 0 1-.25-4.63v-11.3h3.94v15.3a7.82 7.82 0 0 0 .76 3.69 4.48 4.48 0 0 0 4.48 2.51 4.34 4.34 0 0 0 4.06-2.68 7.76 7.76 0 0 0 .66-3.32v-15.53zm67.08 4.77l-1.12-.46a6.51 6.51 0 0 1 4.66-4.43c5.62-1.38 10.65 2.25 10.68 8.32v13.28a3.92 3.92 0 0 1-.05.42h-3.8v-2l-.18-.14a1.5 1.5 0 0 1-.19.38c-3.15 3.6-8.7 2.46-10.65.1-2.3-2.8-1.48-7.43 1.78-9a56.7 56.7 0 0 1 5.58-2c.56-.2 1.14-.37 1.68-.6 1.66-.72 2.5-1.75 2.23-4.1a4 4 0 0 0-3.92-3.68c-2-.16-3.88.1-5.3 1.7a17.86 17.86 0 0 0-1.42 2.23zm10.36 4.58c-.88.36-1.7.73-2.57 1-1.05.38-2.14.65-3.17 1a3.72 3.72 0 0 0-2.44 3 10.42 10.42 0 0 0 .06 4.05 3 3 0 0 0 2.51 2.66 5.11 5.11 0 0 0 5.59-4.65c.1-2.28.02-4.68.02-7.06zm-17.38 12.6h-3.94v-.62q0-16.14 0-32.27c0-.5.14-.64.63-.62H151c.4 0 .54.13.5.5s0 .64 0 1v32zm57.12-19.64a3.23 3.23 0 0 0-.58-.46 7.77 7.77 0 0 0-7.66.05 3.35 3.35 0 0 0-1.78 3.72 2.33 2.33 0 0 0 1.45 1.74 34 34 0 0 0 3.58 1 48.83 48.83 0 0 1 4.88 1.16c3.06 1.1 4.27 3.1 4.14 6.35a6.74 6.74 0 0 1-4.81 6.24 9.21 9.21 0 0 1-9.42-1.5c-.14-.12-.3-.23-.47-.36l1-1 .5.4a7.91 7.91 0 0 0 8.85.82 3.75 3.75 0 0 0 .09-6.49 11.5 11.5 0 0 0-4.28-1.37 24.91 24.91 0 0 1-3.74-.92c-2.75-1-3.8-3.1-3.55-5.85a6.7 6.7 0 0 1 6.79-6.23 9.11 9.11 0 0 1 6.4 1.9 4.35 4.35 0 0 1 1.56 2.33 2.23 2.23 0 1 1-3.41-1.24l.47-.3zM59 152.65a7.35 7.35 0 0 0 3.91 2.16 7.74 7.74 0 0 0 5.42-.78 3.74 3.74 0 0 0 0-6.63 13 13 0 0 0-4.14-1.28A23.37 23.37 0 0 1 60 145c-2.34-1-3.18-3-3-5.46.2-3.8 3.2-6.33 7.15-6.38a9 9 0 0 1 5.85 1.73 4.49 4.49 0 0 1 1.75 2.53 2.23 2.23 0 1 1-3.43-1.31l.56-.36a8.52 8.52 0 0 0-1-.65 8 8 0 0 0-7 .1 3.56 3.56 0 0 0-2.12 3.56 2.74 2.74 0 0 0 1.51 2.1A12.71 12.71 0 0 0 64.5 142a17.36 17.36 0 0 1 5.1 1.42 5.59 5.59 0 0 1 3.23 4.82c.47 5-3.32 7.4-6.57 7.9a9 9 0 0 1-7.85-2.18c-.06 0-.1-.1-.2-.2.15-.16.3-.3.44-.48s.23-.4.35-.62zm119.4 1.07l1-.93.5.42a7.47 7.47 0 0 0 8.14 1 4 4 0 0 0 2.45-4.69 3.36 3.36 0 0 0-2.36-2.49c-1.4-.46-2.9-.7-4.33-1a23.9 23.9 0 0 1-3.17-.87c-2.63-1-3.65-3.08-3.4-5.8a6.7 6.7 0 0 1 6.84-6.23 9.37 9.37 0 0 1 5.9 1.55 4.81 4.81 0 0 1 2 2.62 2.23 2.23 0 0 1-1.39 2.76 2.2 2.2 0 0 1-2.77-1.15 2.23 2.23 0 0 1 .93-2.91l.33-.2a4 4 0 0 0-2.11-1.1 7.67 7.67 0 0 0-6 .57 3.45 3.45 0 0 0-1.94 3.75 2.63 2.63 0 0 0 1.89 2 29.49 29.49 0 0 0 3.85.9 18.77 18.77 0 0 1 5.09 1.45 5.62 5.62 0 0 1 3.22 5c.36 4.55-3.1 7.16-6.62 7.7a9 9 0 0 1-7.59-2c-.12-.08-.27-.2-.47-.36zm92.48-19.12v-1.15h2.45v-8.28h3.93v8.25h5.2v1.15h-5.16v14.05a15.29 15.29 0 0 0 .34 3.16c.48 2.1 2 3 4.32 2.73.93-.1.94-.1 1 .93a6.74 6.74 0 0 1-9.27-5 16.86 16.86 0 0 1-.3-3v-12.8z"></path></svg> 