<?xml version="1.0" encoding="UTF-8"?> <svg xmlns="http://www.w3.org/2000/svg" viewBox="0 0 285.19 285.19"><path d="M100.77 160h7.84l-7.84-13.08-6.63-11L66 152.78l4.3 7.18zm73 0h38.32l-50.24-83.68-28.13 16.92 40 66.72zm-13.4 13.1a17.06 17.06 0 0 0-9.29-2.76H151a17.26 17.26 0 0 0 0 34.52h.1a16.93 16.93 0 0 0 9.29-2.76v1.8h7.93V160h-7.93v13.1zm0 16.3a9.54 9.54 0 0 1-9.29 7.7h-.08a9.49 9.49 0 0 1 0-19h.1a9.47 9.47 0 0 1 9.29 7.67v3.6zm37.25-16.3a17 17 0 0 0-9.3-2.76h-.08a17.26 17.26 0 0 0 0 34.52h.08a16.91 16.91 0 0 0 9.3-2.76v1.8h7.94v-32.7h-7.94v1.9zm0 16.3a9.53 9.53 0 0 1-9.3 7.7h-.08a9.49 9.49 0 0 1 0-19h.08a9.48 9.48 0 0 1 9.3 7.67v3.6zm36.15-4a12.17 12.17 0 0 0-1.16-.46 83.29 83.29 0 0 0-8.66-2.24c-3.52-.78-5.3-1.8-5.3-3.08a2.7 2.7 0 0 1 .93-2.15c.82-.7 2.27-1 4.36-1s3.66.47 4.56 1.37a5.58 5.58 0 0 1 1.22 2.93h8.43c0-4.12-1.68-7.1-5-8.9a3.6 3.6 0 0 0-.55-.29 21.89 21.89 0 0 0-9.15-1.63c-4.62 0-8.1 1.23-10.43 3.7a10.15 10.15 0 0 0-2.76 7.24c0 3.55 1.74 6.1 5.28 7.76 1.34.64 4.6 1.54 9.77 2.65 3.46.75 5.2 1.83 5.2 3.2a2.73 2.73 0 0 1-1.1 2.15 6.59 6.59 0 0 1-4.36 1.22c-2.6 0-4.42-.43-5.5-1.27a4.18 4.18 0 0 1-1.63-3.52h-8.84a9.71 9.71 0 0 0 5.09 9q4 2.3 10.64 2.32a19.67 19.67 0 0 0 7.78-1.45c.45-.2.88-.4 1.3-.64a9.72 9.72 0 0 0 5.2-9.15c0-3.43-1.77-6-5.34-7.68zM72.55 173.06a17.17 17.17 0 0 0-9.33-2.76h-.08a17.27 17.27 0 0 0 0 34.53h.08a17.17 17.17 0 0 0 9.33-2.76v1.8h7.93v-32.7h-7.93v1.9zm0 16.3a9.54 9.54 0 0 1-9.33 7.7h-.08a9.49 9.49 0 0 1 0-19h.08a9.53 9.53 0 0 1 9.33 7.67v3.6zm49.52-21.65h8.63v-7.6h-8.63zm0 36.15h8.63V170.3h-8.63zm-11.9-30.8a17.11 17.11 0 0 0-9.32-2.76h-.1a17.27 17.27 0 0 0 0 34.53h.1a17.11 17.11 0 0 0 9.32-2.76v1.8h7.94V160h-7.94v13.1zm0 16.3a9.53 9.53 0 0 1-9.32 7.7h-.1a9.49 9.49 0 0 1 0-19h.1a9.52 9.52 0 0 1 9.32 7.67v3.6zM160.34 160L151 144.3l-23-38.23L99.84 123l.93 1.54L122 160z" fill="#1e71b8" fill-rule="evenodd"></path></svg> 