<?xml version="1.0" encoding="UTF-8"?> <svg xmlns="http://www.w3.org/2000/svg" viewBox="0 0 285.19 285.19"><style><![CDATA[.A{fill:#353535;fill-rule:evenodd}]]></style><path class="A" d="M11.38 152.23l-5.07.2c.6 7.25 5.42 11.58 12.75 11.58s12.5-4.63 12.5-10.72c0-6.3-3.76-9.1-11.44-11.7-2.3-.8-4.56-1.3-6.42-2.67a5.23 5.23 0 0 1-2-4.42c0-3.67 2.66-6.24 6.83-6.24s6.82 2.46 7.43 7.4h5c-.35-7.24-5-11.56-12.5-11.56-7.13 0-11.6 4.12-11.6 10.4a9.4 9.4 0 0 0 3.27 7.68c2.66 2.22 5.57 3 8.33 3.93 5.22 1.76 8 3.17 8 7.44 0 3.47-2.76 6-7.33 6-4.82 0-7.73-2.7-7.78-7.28zm34.4 11H65.7v-4.53H50.74v-12.9H65.7v-4.42H50.74v-12.02H65.7v-4.52H45.77v38.4zM89 124.83h-8.2v38.4h5V150h4.16c8 0 13.45-5.23 13.45-12.52-.02-7.48-5.4-12.65-14.4-12.65zm.75 20.6h-4v-16.08h3.16c6.12 0 9.33 2.8 9.33 7.93s-3.13 8.15-8.5 8.15zm25.65 17.8h4.97V145.7h20.13v17.55h4.97v-38.4h-4.97v16.33h-20.13v-16.33h-4.97v38.4zm76.85-33.87a20.82 20.82 0 0 0-27.71 0 21 21 0 0 0 0 29.3 19.06 19.06 0 0 0 13.9 5.34 19 19 0 0 0 13.9-5.34 21 21 0 0 0 0-29.3zm-3.57 26a13.94 13.94 0 0 1-10.34 4.08 13.7 13.7 0 0 1-10.24-4.08 16.81 16.81 0 0 1 0-22.72 15 15 0 0 1 20.53 0 16.77 16.77 0 0 1 .05 22.72zm34.68-7.06h.3c6.88 0 11.54-5 11.54-11.82 0-7.24-5.12-11.66-14.5-11.66H212v38.4h5V147.6l13.65 15.64h6.28zm-6.42-3.77v-15.18h3.36c6.53 0 9.8 2.6 9.8 7.28 0 5-3.3 7.9-9.53 7.9zm48.13-19.7h-4.16l-15.66 38.4h5.32l3.42-8.9h18l3.42 8.9h5.8zm-9.33 25l6.13-15.4 1.15-3.56 1.15 3.56 6 15.4z"></path></svg> 