<?xml version="1.0" encoding="UTF-8"?> <svg xmlns="http://www.w3.org/2000/svg" viewBox="0 0 285.19 285.19"><path d="M34.83 139.4h-13.9v-4.3a18.67 18.67 0 0 0-.4-5.1 1.77 1.77 0 0 0-1.88-1 1.78 1.78 0 0 0-1.74.88 13 13 0 0 0-.46 4.52v22.8a12 12 0 0 0 .46 4.2 1.82 1.82 0 0 0 1.84 1 2.08 2.08 0 0 0 2.07-1.15 12 12 0 0 0 .54-4.45v-5.65h-2.8v-7.2h16.26v25.48h-8.75L24.8 166a9.25 9.25 0 0 1-3.58 3.3 11.15 11.15 0 0 1-5.1 1.1 14.68 14.68 0 0 1-6.55-1.51 12.18 12.18 0 0 1-4.63-3.74 11.27 11.27 0 0 1-2-4.68 50.44 50.44 0 0 1-.4-7.35V139a42.05 42.05 0 0 1 .83-9.88c.55-2 2.12-3.94 4.73-5.65a18.22 18.22 0 0 1 10.11-2.56 20.66 20.66 0 0 1 10.13 2.24q4 2.24 5.25 5.3a25.21 25.21 0 0 1 1.22 8.9v2.05zm15.77 6.16H38.1v-2.62a16.55 16.55 0 0 1 1.17-7 10.31 10.31 0 0 1 4.74-4.29 19.51 19.51 0 0 1 9.17-1.87c4.5 0 8.48.7 10.77 2.12a8.35 8.35 0 0 1 4.06 5.22q.7 3.1.7 12.74v19.54h-13.5v-3.46a8 8 0 0 1-3.18 3.12 9.61 9.61 0 0 1-4.6 1 12.33 12.33 0 0 1-6.4-1.71c-1.94-1.16-2.92-3.7-2.92-7.64v-3.2q0-4.38 1.55-6 1.55-1.62 7.7-3.7c4.38-1.53 6.72-2.55 7-3.08a7.47 7.47 0 0 0 .46-3.22 9.8 9.8 0 0 0-.51-4 1.8 1.8 0 0 0-1.7-.92c-.9 0-1.47.26-1.7.78a14 14 0 0 0-.33 4v4.07zm4.22 5.34c-2.13 1.38-3.37 2.55-3.7 3.48a12.46 12.46 0 0 0-.51 4 10.48 10.48 0 0 0 .44 3.9 1.79 1.79 0 0 0 1.77.88 1.7 1.7 0 0 0 1.63-.69 10 10 0 0 0 .38-3.62v-8zm31.08-20.4l-.23 3.7a10.31 10.31 0 0 1 3.69-3.3 10.47 10.47 0 0 1 4.88-1.1 9.72 9.72 0 0 1 8.42 4.4 11.6 11.6 0 0 1 3.79-3.3 11 11 0 0 1 10.31.37 6.45 6.45 0 0 1 2.85 3.59 27.34 27.34 0 0 1 .63 6.91v27.65H107.3V144a27.94 27.94 0 0 0-.38-6.17 1.65 1.65 0 0 0-1.76-1.19 1.72 1.72 0 0 0-1.83 1.18 25.9 25.9 0 0 0-.41 6.18v25.37H90v-24.7a41.53 41.53 0 0 0-.31-6.86 1.56 1.56 0 0 0-1.73-1.15 2.11 2.11 0 0 0-1.52.6 2.19 2.19 0 0 0-.69 1.47c0 .58-.07 1.8-.07 3.68v27H72.3v-38.94h13.6zm69.15 20.14H137.8V159a8.47 8.47 0 0 0 .43 3.4 1.73 1.73 0 0 0 1.65.76 2.06 2.06 0 0 0 2-1 9.92 9.92 0 0 0 .51-3.91v-5.14h12.64v2.9a23 23 0 0 1-.51 5.54 11 11 0 0 1-2.4 4.14 11.51 11.51 0 0 1-4.76 3.3 20.39 20.39 0 0 1-7.24 1.1 23.25 23.25 0 0 1-7.46-1.09 12.05 12.05 0 0 1-5-3 10.37 10.37 0 0 1-2.49-4.17 23.69 23.69 0 0 1-.69-6.61v-11.3a17.35 17.35 0 0 1 1.55-8 10.09 10.09 0 0 1 5.08-4.52 22.65 22.65 0 0 1 17.37.33 11.06 11.06 0 0 1 5.12 5 21.13 21.13 0 0 1 1.46 8.78v5.16zm-13.36-6.33v-2.85a12.49 12.49 0 0 0-.37-3.9 1.44 1.44 0 0 0-1.48-.88c-.92 0-1.5.25-1.72.75a13.88 13.88 0 0 0-.33 4v2.85z" fill="#383838"></path><path d="M189.26 135.2h-12.9v-3.52a6.25 6.25 0 0 0-.49-3.14 1.91 1.91 0 0 0-1.65-.67 2.17 2.17 0 0 0-1.9.91 4.75 4.75 0 0 0-.64 2.75 7.08 7.08 0 0 0 .72 3.58q.7 1.2 3.93 2.9 9.27 4.9 11.68 8c1.6 2.1 2.4 5.46 2.4 10.12q0 5.07-1.34 7.47c-.9 1.6-2.6 3-5.16 4a22.56 22.56 0 0 1-8.91 1.62 22 22 0 0 1-9.52-1.87c-2.63-1.25-4.35-2.85-5.16-4.78a21.91 21.91 0 0 1-1.22-8.24v-3.1H172V157a6.9 6.9 0 0 0 .54 3.43 2.22 2.22 0 0 0 1.93.76 2.32 2.32 0 0 0 2.06-1 5 5 0 0 0 .68-2.87q0-4.18-1.3-5.48a40.37 40.37 0 0 0-6.5-4.31c-3.45-2-6.17-3.5-7.3-4.43a10.43 10.43 0 0 1-2.79-3.81 15.06 15.06 0 0 1-1.11-6.22c0-3.63.53-6.87 1.57-8.55a10.21 10.21 0 0 1 5.07-3.94 28.33 28.33 0 0 1 18.1.13q3.8 1.56 5 3.92c.83 1.57 1.24 4.82 1.24 8.6v1.87zm19.78-11v4.68h3.74V135H209v22.3c0 2.56.15 4 .44 4.28s1 .44 3.14.44v6.28h-5.37a42.37 42.37 0 0 1-6.5-.34 7.22 7.22 0 0 1-3.43-1.55 5.06 5.06 0 0 1-1.85-2.79 44.19 44.19 0 0 1-.36-7.37v-21.2h-2.87v-6.17h2.87v-4.68H209zm37.12 18.85v9.53a35.5 35.5 0 0 1-.6 7.7 10.35 10.35 0 0 1-2.54 4.57 11.48 11.48 0 0 1-5 3.14 22.37 22.37 0 0 1-7 1 28.31 28.31 0 0 1-7.49-.86 10.6 10.6 0 0 1-4.77-2.61 10 10 0 0 1-2.42-4.23 28.45 28.45 0 0 1-.73-7.43v-10a21.88 21.88 0 0 1 1.32-8.47 10.23 10.23 0 0 1 4.75-4.91 18.47 18.47 0 0 1 8.78-1.84 22.05 22.05 0 0 1 7.7 1.19 12.45 12.45 0 0 1 5 3.09 10.7 10.7 0 0 1 2.39 3.93 21.81 21.81 0 0 1 .64 6.16zm-13.33-2.93a11.68 11.68 0 0 0-.36-3.77 1.52 1.52 0 0 0-1.55-.77 1.61 1.61 0 0 0-1.59.77 10.83 10.83 0 0 0-.39 3.77v17.56a10.38 10.38 0 0 0 .39 3.6 1.93 1.93 0 0 0 3.12.07 9 9 0 0 0 .38-3.29v-17.93zm30.6-10.74l-.23 3.43a12 12 0 0 1 3.92-3.1 10.64 10.64 0 0 1 4.69-1c7.9-.3 10.67 4 10.76 11.46v16.4a27.74 27.74 0 0 1-.71 7.55c-2.6 5.2-9.78 6-14.8 3.88a12 12 0 0 1-3.86-3.05v8.92h-13.33v-44.48zm3.8 11.32a18.3 18.3 0 0 0-.29-4.37c-.2-.5-.75-.76-1.65-.76a1.64 1.64 0 0 0-1.7.88 13.78 13.78 0 0 0-.38 4.25v16.13a14.39 14.39 0 0 0 .39 4.4 1.69 1.69 0 0 0 1.72.88c.86 0 1.4-.27 1.6-.8a14.4 14.4 0 0 0 .31-3.92v-16.67z" fill="#ce2540"></path></svg> 