<?xml version="1.0" encoding="UTF-8"?> <svg xmlns="http://www.w3.org/2000/svg" viewBox="0 0 285.19 285.19"><style><![CDATA[.A{fill:#fff}]]></style><path class="A" d="M110 109.85l55.7-55.73c4.15-4.15 8.87-4.94 13.93 0l51.8 51.8a8.91 8.91 0 0 1 0 12.69L118.73 231.2c-4 4.05-9.32 4.72-14 0L54 180.52a10.07 10.07 0 0 1 0-14.16z"></path><path d="M110.87 115.58l58.3 58.3-53 53c-3.26 3.26-6.63 3.37-10 0L57.6 178.4c-3-3-2.8-6.4 0-9.22z" fill="#006491"></path><path d="M172.9 170.4l-58.3-58.3 53-53c3.25-3.26 6.63-3.37 10 0l48.53 48.53c3 3 2.8 6.4 0 9.22z" fill="#ce1041"></path><circle class="A" cx="172.55" cy="112.21" r="14.38"></circle><circle class="A" cx="132.21" cy="173.89" r="14.38"></circle><circle class="A" cx="90.19" cy="173.89" r="14.38"></circle></svg> 