<?xml version="1.0" encoding="UTF-8"?> <svg xmlns="http://www.w3.org/2000/svg" viewBox="0 0 285.19 285.19"><path d="M110.37 171.42c.42 7.24.48 9.35.48 15.68v13.77h-8.92v-54h8.85l5.14 19.2c.92 3.38 1.6 6.26 2 8.57q-.4-8.6-.35-17.22v-10.5h8.64v54h-7.93l-5.84-19.95a82.09 82.09 0 0 1-2.1-9.51m48.52 2.55c0 23.26-3.8 28-12.66 28-8.22 0-12.65-3.58-12.65-28 0-23.7 3.44-27.9 12.65-27.9s12.66 4.22 12.66 27.9zm-10 0c0-8.5 0-13.7-.36-17.58s-.92-4.7-2.32-4.7-2.17.77-2.53 4.7-.2 9.14-.2 17.58c0 9.83-.07 13.63.2 17.43.36 4.14.9 4.57 2.53 4.57s2-.36 2.32-4.57c.28-3.88.36-7.6.36-17.43m42.78 11.66c0 11.17-5 15.25-13.42 15.25h-12.07v-54h12.16c9.34 0 11.8 5.62 11.8 14.83 0 6.6-2.4 10.2-6.68 10.4 4.63-.02 8.22 4.7 8.22 13.47zM175.5 175.5v19.05h2.5c2.88 0 3.65-1.76 3.65-10 0-6-.7-9.06-3.8-9.06h-2.3zm0-22.28v15.53h2.4c2.54 0 3-2.25 3-6.88 0-6.33-.63-8.65-3.72-8.65h-1.7m32.9 39.57h11.46v8.08h-21.3v-54h9.84v45.9m26.18 0h11.73v8.08h-21.2v-54h19.75V155h-10.25v14.6h9.06v7.52h-9.06v15.67M69.13 119.06c0 11.17-5 15.24-13.42 15.24h-12.1v-54h12.16c9.35 0 11.8 5.62 11.8 14.83 0 6.6-2.4 10.2-6.68 10.4 4.64.04 8.22 4.75 8.22 13.53zM53 108.94v19h2.46c2.88 0 3.65-1.76 3.65-10 0-6-.7-9.07-3.8-9.07zm0-22.28v15.53h2.4c2.54 0 3-2.25 3-6.88 0-6.33-.63-8.65-3.72-8.65H53m69.7 20c6 1.82 6.74 8.95 6.74 15.5 0 5.08.18 9.57.85 12.2h-9.84a36.84 36.84 0 0 1-.7-8v-6.94c0-4.3-1.46-7.52-4.54-8.32h-.66v23.26h-9.7v-54h14.4c6.74 0 11.3 3.93 11.3 13.7 0 8.5-3.7 12.14-7.87 12.57zM114.52 87v15.82h3c2.53 0 3.3-1.62 3.3-6.68 0-7.87-1.47-9.14-4.43-9.14h-1.82m32.54 17.85c.43 7.24.5 9.35.5 15.67v13.78h-8.93v-54h8.86l5.13 19.2c.9 3.38 1.6 6.26 2 8.57q-.4-8.6-.36-17.22v-10.5h8.7v54h-8l-5.84-20a83.23 83.23 0 0 1-2.11-9.5m34 21.37h11.74v8.08h-21.2v-54h19.75v8.08h-10.26V103h9.07v7.52h-9.07v15.67m25.92-4.32c0 6 1.27 7 3.44 7 1.7 0 3-1 3-7 0-5.36-3.58-9.18-7.63-14.05-3.65-4.4-7.75-10.42-7.75-15.53 0-8 3.67-12.8 11.32-12.8s11.46 4.15 11.46 12.08a13.54 13.54 0 0 1-.71 4.37h-8a26.08 26.08 0 0 0 .21-3.81c0-5.13-.56-6.67-2.8-6.67s-2.45 2-2.45 5.9c0 4.86 3.9 8.73 7 12.74 4.6 5.9 8.28 10.57 8.28 16.07 0 8.78-3.7 15.26-12 15.26-7.38 0-12.2-4-12.2-13.38a20.17 20.17 0 0 1 .63-5.86h8.64a38.17 38.17 0 0 0-.43 5.71M72.76 134.36L80.63 80h9.27l9.27 54.36h-10l-1-8.7h-6l-1 8.7zm9.95-14.7h4.92l-1.17-10.33c-.28-2.53-1.27-10.4-1.55-15.62-.15 5.34-1 13.15-1.2 15.62l-1 10.33" fill="#106e33"></path><path d="M84.92 171.76c-3.73 0-6.53 2.52-8.2 6l-4.76 10.65c-4.16-7.1-7.3-12.76-9.25-17.83 3.24-1.82 8.85-4.57 12.06-7.5s4.75-5.66 5.3-8.83c1-6.08-2.43-11.4-10.08-11.4a16.48 16.48 0 0 0-15.59 13.39c-.74 4.3.22 9.82 1.78 14.35-5.8 3.92-10.83 8.24-12.14 15-1.86 11.25 5.13 16.4 13.07 16.4 5.4 0 9.54-2.4 12.8-6.15 2.5 2.85 5.67 6.15 9.6 6.15 3.18 0 6.53-2.05 9.15-5.4l-1.12-1.6c-2.43 2.33-4.3 3.26-5.7 3.26-2.52 0-5.13-2.23-7.37-5.78-.28-.57-.66-1.12-.94-1.68 1.5-2.9 2.6-6.07 3.92-8.87 2.43-5.4 3.9-7.18 6.16-7.18 3.73 0 .75 6.25 4.76 6.25 1.86 0 2.8-1.58 3.08-3.08.38-2.25-1.2-6.16-6.53-6.16zm-24.17-17c.65-3.83 3.92-7.93 9-7.93 3.92 0 6.53 3 5.7 7.55a10.66 10.66 0 0 1-2.57 5.62c-1.77 2.2-8.12 6.14-11.16 7.75a26.72 26.72 0 0 1-.96-12.98zm-1.3 43.6c-7.46 0-10.26-6.25-9.42-11.2a21.15 21.15 0 0 1 7.39-12.83 96.9 96.9 0 0 0 10.83 19.77c-2.52 3-5.06 4.27-8.8 4.27" fill="#b86e27"></path><path d="M59 152.83s-5.12 7.8 2 23.6c5.87 13 12.9 20.28 12.9 20.28A116.85 116.85 0 0 1 62 175.38c-5.86-14.1-3-22.55-3-22.55" fill="#fff"></path></svg> 