<?xml version="1.0" encoding="UTF-8"?> <!-- Generator: Adobe Illustrator 22.1.0, SVG Export Plug-In . SVG Version: 6.00 Build 0) --> <svg xmlns="http://www.w3.org/2000/svg" xmlns:xlink="http://www.w3.org/1999/xlink" id="Layer_1" x="0px" y="0px" viewBox="0 0 84.3 84.3" style="enable-background:new 0 0 84.3 84.3;" xml:space="preserve"> <style type="text/css"> .st0{fill:#010202;} </style> <g> <path class="st0" d="M4.9,47c0.4,0.9,0.8,1.8,1.5,2.4C7,50.1,7.7,50.7,8.6,51c0.9,0.4,1.8,0.5,2.8,0.5c1,0,1.9-0.2,2.8-0.6 s1.6-0.9,2.3-1.6c0.6-0.7,1.1-1.5,1.5-2.4c0.4-0.9,0.5-2,0.5-3.1V26.1h4.3v28.8h-4.3v-2.7c-1,1-2.1,1.8-3.4,2.3 c-1.3,0.5-2.7,0.8-4.2,0.8c-1.5,0-3-0.3-4.3-0.8c-1.3-0.5-2.5-1.3-3.5-2.3c-1-1-1.7-2.2-2.3-3.6C0.3,47.4,0,45.8,0,44.2v-18h4.3 v17.8C4.3,45.1,4.5,46.1,4.9,47L4.9,47z M30.2,26.1v10.5c1-1,2.1-1.7,3.3-2.3c1.3-0.6,2.6-0.8,4.1-0.8c1.5,0,3,0.3,4.3,0.9 c1.3,0.6,2.5,1.4,3.5,2.3c1,1,1.8,2.2,2.3,3.5c0.6,1.3,0.9,2.8,0.9,4.3c0,1.5-0.3,2.9-0.9,4.3c-0.6,1.3-1.4,2.5-2.3,3.5 c-1,1-2.2,1.8-3.5,2.3c-1.3,0.6-2.8,0.9-4.3,0.9c-1.5,0-2.9-0.3-4.1-0.8c-1.3-0.6-2.4-1.3-3.3-2.3v2.6h-4.1V26.1H30.2z M30.7,47.3 c0.4,0.9,0.9,1.6,1.5,2.3c0.7,0.7,1.4,1.2,2.3,1.6c0.9,0.4,1.8,0.6,2.8,0.6c1,0,1.9-0.2,2.8-0.6c0.9-0.4,1.6-0.9,2.3-1.6 c0.6-0.7,1.2-1.4,1.5-2.3c0.4-0.9,0.6-1.8,0.6-2.8c0-1-0.2-2-0.6-2.9s-0.9-1.7-1.5-2.3c-0.6-0.7-1.4-1.2-2.3-1.5 c-0.9-0.4-1.8-0.6-2.8-0.6c-1,0-1.9,0.2-2.8,0.6s-1.6,0.9-2.3,1.5c-0.7,0.7-1.2,1.4-1.6,2.3c-0.4,0.9-0.6,1.8-0.6,2.9 C30.1,45.5,30.3,46.4,30.7,47.3L30.7,47.3z M51,40.2c0.5-1.3,1.3-2.5,2.3-3.5c1-1,2.1-1.8,3.4-2.4c1.3-0.6,2.7-0.9,4.3-0.9 c1.5,0,2.9,0.3,4.2,0.8c1.3,0.5,2.4,1.3,3.3,2.3c0.9,1,1.7,2.1,2.2,3.5c0.5,1.3,0.8,2.8,0.8,4.3v1.4H54.4c0.1,0.8,0.4,1.6,0.8,2.4 c0.4,0.7,0.9,1.4,1.5,1.9c0.6,0.5,1.3,1,2.1,1.3c0.8,0.3,1.6,0.5,2.5,0.5c2.5,0,4.5-1,6-3.1l3,2.2c-1,1.4-2.3,2.5-3.9,3.3 c-1.5,0.8-3.3,1.2-5.2,1.2c-1.6,0-3-0.3-4.4-0.8c-1.4-0.5-2.5-1.3-3.5-2.3c-1-1-1.8-2.1-2.4-3.5c-0.6-1.3-0.9-2.8-0.9-4.3 C50.2,43,50.5,41.6,51,40.2L51,40.2z M56.8,38.6c-1.2,1-1.9,2.3-2.3,3.9h12.8c-0.4-1.6-1.1-2.9-2.3-3.9c-1.2-1-2.5-1.5-4.1-1.5 C59.3,37.2,57.9,37.6,56.8,38.6L56.8,38.6z M79.2,39.1c-0.9,1-1.3,2.3-1.3,3.9v11.9h-4.2V34h4.1v2.6c0.5-0.8,1.2-1.5,2-2 c0.8-0.5,1.8-0.7,3-0.7h1.4v3.9h-1.7C81.2,37.7,80.1,38.1,79.2,39.1L79.2,39.1z"></path> </g> </svg> 