<?xml version="1.0" encoding="UTF-8"?> <svg xmlns="http://www.w3.org/2000/svg" viewBox="0 0 285.19 285.19"><path d="M197.14 132.18a23.62 23.62 0 1 0 0 20.63l3.33-.08a26.63 26.63 0 1 1-.05-20.6l-3.28.05zm-76.06-13.3a23.62 23.62 0 1 0 23.62 23.62 23.62 23.62 0 0 0-23.62-23.62zm0-3a26.64 26.64 0 0 1 23.65 14.39v-13h3v52.05h-3v-14.58a26.63 26.63 0 1 1-23.65-38.87zm-48.8.13a19.81 19.81 0 0 0-18.39 12.51 19.79 19.79 0 0 0-35.29-3v-8.32h-3v52.05h3v-35.16a17 17 0 0 1 33.78.19v35h3v-35a17 17 0 0 1 33.83.72v34.28h3V135h-.13a19.79 19.79 0 0 0-19.77-18.94zm167 1.2l-19.16 47.24-19-47.24H198l20.5 51.25-7.72 19 3.28.12 28.64-70.4zm29.5 10.87a11.89 11.89 0 0 0-3.6-8.41 13.36 13.36 0 0 0-9.37-3.93 12.36 12.36 0 0 0-12.34 12.34c0 6.62 3.15 10.18 11.64 13.15 8.85 3.33 12.8 7.3 12.8 12.88a12.62 12.62 0 0 1-12.6 12.6 12.4 12.4 0 0 1-8.87-3.81 16.64 16.64 0 0 1-4.46-11h-2.75a19.38 19.38 0 0 0 5.25 13 15.28 15.28 0 0 0 26.19-10.72c0-8.93-8.35-13.1-14.62-15.47-7.36-2.57-9.83-5.23-9.83-10.56a9.59 9.59 0 0 1 9.6-9.59 10.62 10.62 0 0 1 7.42 3.12 9.19 9.19 0 0 1 2.8 6.47zm-26.5-22.5h4.28l1.3-4 1.3 4h4.26l-3.45 2.5 1.3 4-3.45-2.5-3.43 2.5 1.3-4-3.46-2.5z" fill="#333" fill-rule="evenodd"></path></svg> 