<?xml version="1.0" encoding="UTF-8"?> <svg xmlns="http://www.w3.org/2000/svg" viewBox="0 0 285.19 285.19"><style><![CDATA[.B{fill:#fff}]]></style><circle cx="142.59" cy="142.59" r="83" fill="#ce2540"></circle><path class="B" d="M212 155.47a2.39 2.39 0 0 0-1.05-1 2.76 2.76 0 0 0-2.76 0 3 3 0 0 0-1.05 1 2.76 2.76 0 0 0-.38 1.38 2.92 2.92 0 0 0 .38 1.43 2.44 2.44 0 0 0 1.05 1 2.76 2.76 0 0 0 2.76 0 3.48 3.48 0 0 0 1.05-1 2.81 2.81 0 0 0 .38-1.43 2.76 2.76 0 0 0-.38-1.38zm-.37 2.6a1.9 1.9 0 0 1-.89.84 2.51 2.51 0 0 1-2.34 0 2.37 2.37 0 0 1-.88-.84 2.43 2.43 0 0 1-.34-1.22 2.22 2.22 0 0 1 .34-1.17 2.19 2.19 0 0 1 .88-.88 2.18 2.18 0 0 1 2.34 0 2.22 2.22 0 0 1 .89.88 2.35 2.35 0 0 1 .33 1.17 2.91 2.91 0 0 1-.37 1.22zM112.1 125.4a36.35 36.35 0 0 0-15.85 1.89C88.5 130 78.1 136.64 73.18 153c-.84 2.77 0 6.5 5.75 6h21.43a4.36 4.36 0 0 0 0-8.72H83.5c6.37-13.6 17.7-16.06 23.6-16.36v20.88a4.37 4.37 0 0 0 8.73 0v-25.08a4.35 4.35 0 0 0-3.74-4.32zm44 0z"></path><path class="B" d="M156.1 125.36c-5.45.12-9 1.88-11.58 4.65a15.11 15.11 0 0 0-11.52-4.65c-6-.42-16.28 5-15.52 14.63v14.8a4.36 4.36 0 0 0 8.72 0V140c0-5.12 5.54-5.92 6.8-6a6.51 6.51 0 0 1 7.13 6v14.8a4.45 4.45 0 0 0 8.89 0V140c.25-5.46 5.4-6 7.13-6 1 .08 6.5.38 6.8 6v14.8a4.37 4.37 0 0 0 8.73 0V140c.16-.84-.5-14.17-15.52-14.63zm50 19.62a4.35 4.35 0 0 0-5.87 1.93 9.44 9.44 0 0 1-8.43 5.16 9.43 9.43 0 0 1-6.67-16.1 9.59 9.59 0 0 1 15.31 2.51 4.37 4.37 0 1 0 8-3.48 18.27 18.27 0 0 0-34.81 7.64 18.16 18.16 0 0 0 34.37 8.22 4.32 4.32 0 0 0-1.89-5.88zm4.24 12.6a1.31 1.31 0 0 0-.38-.51 1 1 0 0 0 .5-.42.86.86 0 0 0 .17-.54.85.85 0 0 0-.12-.46.92.92 0 0 0-.34-.34 1.25 1.25 0 0 0-.63-.12h-1.1v3.44h.55v-1.47h.4s.17.12.3.33l.12.2.47.88h.62l-.58-1zm-1-.84H209v-1.18h.4a.9.9 0 0 1 .42.09.36.36 0 0 1 .17.21.53.53 0 0 1 0 .25.56.56 0 0 1-.16.42c-.06.17-.23.2-.48.2z"></path></svg> 