<?xml version="1.0" encoding="UTF-8"?> <svg xmlns="http://www.w3.org/2000/svg" viewBox="0 0 138.27 139"><style><![CDATA[.F{stroke:#333}.G{stroke-miterlimit:10}.H{stroke:#3a3a3a}.I{fill:#2b2b2b}.J{fill:#f9dfd2}]]></style><path d="M104.22 16.67c-1.32.18-14.66-2.67-35.8 8.33-16.6 8.6-33.36 4.38-39.82 2.16a16.85 16.85 0 0 0-8-.74c-1.8.27-6.83.77-7.86 1.68-2.56 2.22-4-9.38-4-9.38l14.07-2.5 20.4 2.8 18-1.4L85.3 8.4l12.92-3 12.13 6.1s-1.77 4.53-6.15 5.2zM15.8 35.5l6.9 10.35a6.91 6.91 0 0 0 2.81 2.41c2.62 1.2 8.3 4.5 16.53 12.82l4.23-5.45S19.88 34.4 15.8 35.5z" fill="#ff5050" class="F G"></path><ellipse cx="78.82" cy="87.21" rx="48.49" ry="47.89" class="F I"></ellipse><ellipse cx="74.57" cy="85.93" rx="48.49" ry="47.89" class="H J"></ellipse><ellipse cx="73.39" cy="86.57" rx="41.77" ry="41.25" class="F I"></ellipse><ellipse cx="76.59" cy="85.81" rx="41.77" ry="41.25" class="H J"></ellipse><g class="F"><g fill="#fff"><circle cx="75.12" cy="57.91" r="7.11"></circle><circle cx="75.35" cy="57.68" r="6.88"></circle></g><path d="M115 21.12v-5.34s-4.4 6.4-20.5 11.75C77.4 33.2 76.76 48 76.76 48v7.42l5.35 2.5s-1.35-17.16 13.36-23.46a165.81 165.81 0 0 0 16.36-7.8 6.35 6.35 0 0 0 3.17-5.53z" fill="#ff5050" class="G"></path></g><path d="M76.8 55.45s-1.72-19.25 13.78-24.9 22.86-12.2 22.86-12.2l1.72-1.72s.16-6.26-10.18-11.27-31.15 4.85-31.15 4.85-21.45 11.8-40.7 7.2c0 0-13.47-6.1-21.14-2.35S10.43 28.2 10.43 28.2l5 7S34 45.32 40.66 51.56l3.86-3.28-14.05-10.05s-4.54-4.54-17.7-9.7c0 0-10-6.4 5.16-8.76 0 0 8.77-.16 14.4 3.13s22.55 0 22.55 0a146.24 146.24 0 0 0 18.94-6.42 86.09 86.09 0 0 1 15.34-5.17s13.62-2.8 16.75 1.1-9.4 9.7-9.4 9.7-19.88 8.3-21.6 16.28a56.85 56.85 0 0 0-1.1 15.18 7.23 7.23 0 0 0 2.97 1.88z" fill="#a243a8" class="G H"></path><path d="M87.85 100.66c0 1.76-.4 2.93-1.24 3.5a7.59 7.59 0 0 1-4.21.87h-4.7v1.9a1.28 1.28 0 0 1-1.24 1.24h-2a1.28 1.28 0 0 1-1.24-1.24V105h-4.58a7.61 7.61 0 0 1-4.21-.87c-.83-.58-1.24-1.75-1.24-3.5V97.4a1.19 1.19 0 0 1 .37-.87 1.23 1.23 0 0 1 .87-.37h2.8a1.23 1.23 0 0 1 .87.37 1.19 1.19 0 0 1 .37.87V99c0 .58.1.93.3 1.06a3.44 3.44 0 0 0 1.45.18h3V92.5H68.6a7.63 7.63 0 0 1-4.21-.86c-.83-.58-1.24-1.75-1.24-3.52v-8.55c0-1.77.4-2.94 1.24-3.5a7.61 7.61 0 0 1 4.21-.87h4.63v-2a1.3 1.3 0 0 1 1.24-1.2h2a1.3 1.3 0 0 1 1.24 1.24v2h4.63a7.61 7.61 0 0 1 4.21.87c.83.57 1.24 1.74 1.24 3.5v3.26a1.26 1.26 0 0 1-1.24 1.24h-2.78a1.19 1.19 0 0 1-.87-.37 1.23 1.23 0 0 1-.37-.87v-1.7c0-.58-.1-.93-.3-1a3.07 3.07 0 0 0-1.4-.19H77.7v7.8h4.7a7.59 7.59 0 0 1 4.21.87c.83.58 1.24 1.75 1.24 3.5zm-17.7-12.9h3.06V80h-3.06a3.19 3.19 0 0 0-1.44.19c-.2.12-.3.47-.3 1v5.33c0 .58.1.93.3 1.06a3.41 3.41 0 0 0 1.44.18zm10.7 12.52a3.42 3.42 0 0 0 1.42-.18c.2-.13.32-.48.32-1.06v-5.3c0-.57-.1-.93-.32-1a3.37 3.37 0 0 0-1.42-.19H77.7v7.77z" class="F G I"></path><path d="M89.55 100.66c0 1.76-.4 2.93-1.24 3.5a7.59 7.59 0 0 1-4.21.87h-4.7v1.9a1.28 1.28 0 0 1-1.24 1.24h-2a1.26 1.26 0 0 1-1.24-1.24V105h-4.58a7.59 7.59 0 0 1-4.21-.87c-.83-.58-1.24-1.75-1.24-3.5V97.4a1.19 1.19 0 0 1 .37-.87 1.23 1.23 0 0 1 .87-.37h2.8a1.26 1.26 0 0 1 1.24 1.24V99c0 .58.1.93.3 1.06a3.44 3.44 0 0 0 1.45.18h3V92.5H70.3a7.6 7.6 0 0 1-4.21-.86c-.83-.58-1.24-1.75-1.24-3.52v-8.55c0-1.77.4-2.94 1.24-3.5a7.59 7.59 0 0 1 4.21-.87h4.63v-2a1.28 1.28 0 0 1 1.24-1.2h2a1.3 1.3 0 0 1 1.24 1.24v2H84a7.63 7.63 0 0 1 4.22.87c.83.57 1.24 1.74 1.24 3.5v3.26a1.26 1.26 0 0 1-1.24 1.24h-2.76a1.26 1.26 0 0 1-1.24-1.24v-1.7c0-.58-.1-.93-.3-1a3.07 3.07 0 0 0-1.4-.19H79.4v7.8h4.7a7.59 7.59 0 0 1 4.21.87c.83.58 1.24 1.75 1.24 3.5zm-17.7-12.9h3.06V80h-3.06a3.19 3.19 0 0 0-1.44.19c-.2.12-.3.47-.3 1v5.33c0 .58.1.93.3 1.06a3.41 3.41 0 0 0 1.44.18zm10.7 12.52a3.42 3.42 0 0 0 1.43-.18c.2-.13.3-.48.3-1.06v-5.3c0-.57-.1-.93-.3-1a3.37 3.37 0 0 0-1.42-.19h-3.2v7.77z" class="G H J"></path></svg> 