<?xml version="1.0" encoding="UTF-8"?> <svg xmlns="http://www.w3.org/2000/svg" viewBox="0 0 138.27 139" stroke-miterlimit="10"><path d="M105.82,26.92h3.54c2.13,0,3.86,2.66,3.86,5.95V112.8H89.63V26.92Z" fill="#f2f4f7" stroke="#3a3a3a"></path><path d="M40.6 137.2h43.08a5.43 5.43 0 0 0 5.6-5.24V7.55C89.27 3 91.13 3 91.13 3H45.46a6.12 6.12 0 0 0-6.3 5.87l-.6 128.34z" fill="#fff" stroke="#333"></path><path d="M89 6.48l.63 103.15h11s-3.06-.47-3.56-4.92c-.42-3.8-.18-76.27-.1-97.12C97 4.48 95.33 3 93.3 3c-2.03 0-4.3.36-4.3 3.48z" fill="#f2f4f7" stroke="#3a3a3a"></path><path d="M108.5 26.92s-2.94 0-3.3 4.7v71.92c0 3.5-1.82 6.32-4.1 6.36-2.3 0-4.17-2.83-4.17-6.36V26.92zM82.1 137.2s-5.1.3-4.76-8.87 0-61.94 0-61.94.57-7.7-6.44-7.7H27.24v72.1c0 3.55 3.2 6.42 7.15 6.42z" fill="#fff" stroke="#333"></path><path d="M48.7 11.22h33.4m-33.4 4.53h33.4m-33.4 4.52h33.4M48.7 24.8h33.4M47.83 31h33.4m-33.4 6.76h33.4" stroke="#3a3a3a" fill="#ffe8a9"></path><path d="M70.87 12.6a57.27 57.27 0 1 0 57.27 57.27 57.33 57.33 0 0 0-57.27-57.27zm0 12.2a44.79 44.79 0 0 1 24.77 7.45L34.2 96a45 45 0 0 1 36.66-71.21zm0 90.13a44.83 44.83 0 0 1-28.27-10l62.23-64.63a45 45 0 0 1-34 74.63z" stroke="#333" fill="#2b2b2b"></path><path d="M67.7 12.1A57.27 57.27 0 1 0 125 69.38a57.34 57.34 0 0 0-57.29-57.27zm0 12.2a44.82 44.82 0 0 1 24.78 7.44l-61.43 63.8a45 45 0 0 1 36.65-71.23zm0 90.13a44.88 44.88 0 0 1-28.27-10l62.24-64.62a45 45 0 0 1-34 74.63z" stroke="#3a3a3a" fill="#ff4d4d"></path><path d="M66 58.7H18.27a6.07 6.07 0 0 0-6.07 6.07v23.1h51v-23.4A7.63 7.63 0 0 1 66 58.7z" fill="#fff" stroke="#333"></path><path d="M30.16 78.1a2.1 2.1 0 0 1-.64 1.82 4 4 0 0 1-2.18.44H24.9v1a.65.65 0 0 1-.64.64h-1a.65.65 0 0 1-.64-.64v-1h-2.4a4.08 4.08 0 0 1-2.22-.44 2.13 2.13 0 0 1-.64-1.82v-1.7a.62.62 0 0 1 .2-.45.58.58 0 0 1 .44-.19h1.46a.65.65 0 0 1 .64.64v.85c0 .3.05.48.15.55a1.85 1.85 0 0 0 .75.09h1.56v-4H20.2a4 4 0 0 1-2.2-.47 2.11 2.11 0 0 1-.64-1.81v-4.43a2.13 2.13 0 0 1 .64-1.82 4 4 0 0 1 2.19-.45h2.4v-1a.61.61 0 0 1 .19-.45.65.65 0 0 1 .45-.19h1a.65.65 0 0 1 .45.19.61.61 0 0 1 .19.45v1h2.4a4 4 0 0 1 2.18.45 2.1 2.1 0 0 1 .64 1.82v1.7a.65.65 0 0 1-.64.64h-1.4a.58.58 0 0 1-.45-.19.62.62 0 0 1-.2-.45V68q0-.45-.15-.54a1.53 1.53 0 0 0-.72-.1H24.9v4h2.44a3.94 3.94 0 0 1 2.18.45 2.1 2.1 0 0 1 .64 1.82zM21 71.4h1.58v-4H21a1.63 1.63 0 0 0-.75.1q-.15.1-.15.54v2.76c0 .3.05.48.15.55a1.85 1.85 0 0 0 .75.05zm5.54 6.48a1.89 1.89 0 0 0 .74-.09c.1-.07.16-.25.16-.55v-2.73c0-.3-.06-.5-.16-.55a1.83 1.83 0 0 0-.74-.1H24.9v4z" stroke="#3a3a3a" fill="#d6f2e1"></path></svg> 