<?xml version="1.0" encoding="UTF-8"?> <svg xmlns="http://www.w3.org/2000/svg" viewBox="0 0 138.27 139"><style><![CDATA[.G{stroke:#3a3a3a}.H{stroke-miterlimit:10}.I{fill:#ff4d4d}]]></style><g fill="#353535" class="G"><g class="H"><path d="M32.9 22h.77a5 5 0 0 1 5 5v33.53a0 0 0 0 1 0 0H27.85a0 0 0 0 1 0 0V27a5 5 0 0 1 5-5zm19.2-8.6h.77a5 5 0 0 1 5 5v42.26a0 0 0 0 1 0 0h-10.8a0 0 0 0 1 0 0v-42.2a5 5 0 0 1 5-5zm19.34-9.96h.77a5 5 0 0 1 5 5v52.23a0 0 0 0 1 0 0H66.4a0 0 0 0 1 0 0V8.5a5 5 0 0 1 5-5zm18.4 12.44h.77a5 5 0 0 1 5 5v39.8a0 0 0 0 1 0 0H84.8a0 0 0 0 1 0 0V20.93a5 5 0 0 1 5-5zm25.02 46.3h3.25a0 0 0 0 1 0 0v36.77a0 0 0 0 1 0 0h-10.85a0 0 0 0 1 0 0V69.8a7.6 7.6 0 0 1 7.6-7.61zM87.6 135.25a30.57 30.57 0 0 0 30.56-30.57H87.6zM27.5 70.78v4.4h32.7v2.55l6.22-5.32-6.64-4.28v2.66H27.5zm0 9.98v4.38h39.46v2.56l6.22-5.33-6.64-4.28v2.67H27.5zm0 9.47v4.38h32.7v2.56l6.22-5.33-6.64-4.27v2.66H27.5zm53.3 29.23s-6.45 13.85-26 15.26-26.46-15.26-26.46-15.26S39 104.35 54.6 104.2s26.22 15.26 26.22 15.26z"></path><path d="M80.8 119.48s-6.45 9.3-26 10.23-26.46-10.23-26.46-10.23S39 109.34 54.6 109.24s26.22 10.24 26.22 10.24z"></path></g><circle cx="54.14" cy="119.86" r="9.33"></circle><circle cx="54.08" cy="119.62" r="4.43"></circle><path d="M85.8 68a2 2 0 0 1 4.08 0v4.9h6a2 2 0 1 1 0 4.08h-14v2.82h14a2.08 2.08 0 0 1 2 2v6.9a2.08 2.08 0 0 1-2 2h-6v4.9a2 2 0 1 1-4.08 0v-4.9h-6a2 2 0 1 1 0-4.08h14v-2.77h-14a2.08 2.08 0 0 1-2-2v-6.9a2.07 2.07 0 0 1 2-2h6z" class="H"></path></g><path d="M31.9 20.46h.77a5 5 0 0 1 5 5V59a0 0 0 0 1 0 0h-10.8a0 0 0 0 1 0 0V25.5a5 5 0 0 1 5-5z" fill="#a243a8" class="G H"></path><path d="M51.12 11.9h.77a5 5 0 0 1 5 5v42.25a0 0 0 0 1 0 0H46.07a0 0 0 0 1 0 0V17a5 5 0 0 1 5-5z" fill="#f9dfd2" class="G H"></path><path d="M70.44,1.94h.77a5,5,0,0,1,5,5V59.16a0,0,0,0,1,0,0H65.4a0,0,0,0,1,0,0V7a5,5,0,0,1,5-5Z" class="G H I"></path><path d="M88.84 14.38h.77a5 5 0 0 1 5 5v39.78a0 0 0 0 1 0 0H83.8a0 0 0 0 1 0 0V19.42a5 5 0 0 1 5.05-5.04z" fill="#d6f2e1" class="G H"></path><path d="M113.86 61h3.25a0 0 0 0 1 0 0v36.8a0 0 0 0 1 0 0h-10.86a0 0 0 0 1 0 0V68.63a7.6 7.6 0 0 1 7.61-7.63z" class="G H I"></path><path d="M86.6 134.1a30.57 30.57 0 0 0 30.57-30.57H86.6z" fill="#a243a8" class="G H"></path><path d="M26.52 69.62V74H59.2v2.55l6.23-5.32-6.65-4.28v2.66H26.52zm0 9.98v4.38h39.45v2.56l6.23-5.33-6.64-4.27v2.66H26.52zm0 9.47v4.38H59.2V96l6.23-5.32-6.65-4.28v2.66H26.52z" class="I G H"></path><path d="M79.82 118.3s-6.46 13.85-26 15.26-26.45-15.26-26.45-15.26S38 103.2 53.6 103.05s26.23 15.25 26.23 15.25z" fill="#d6f2e1" class="G H"></path><path d="M79.82 118.32s-6.46 9.3-26 10.24-26.46-10.24-26.46-10.24S38 108.18 53.6 108.08s26.23 10.24 26.23 10.24z" fill="#fff" class="G H"></path><circle cx="53.15" cy="118.7" r="9.33" class="G I"></circle><circle cx="53.09" cy="118.46" r="4.43" fill="#353535" class="G"></circle><path d="M84.8 66.8a2 2 0 1 1 4.08 0v4.9h6a2 2 0 0 1 0 4.08H80.85v2.82H94.9a2.08 2.08 0 0 1 2 2v6.9a2.08 2.08 0 0 1-2 2h-6v4.9a2 2 0 0 1-4.08 0V89.6h-6a2 2 0 0 1 0-4.08h14V82.7h-14a2.07 2.07 0 0 1-2-2v-6.9a2.07 2.07 0 0 1 2-2h6z" fill="#f9dfd2" class="G H"></path></svg> 