<?xml version="1.0" encoding="UTF-8"?> <svg xmlns="http://www.w3.org/2000/svg" viewBox="0 0 138.27 139"><style><![CDATA[.O{stroke:#3a3a3a}.P{stroke-miterlimit:10}]]></style><g class="O P"><path d="M33.3 94.2l21.9-17.28c1.63-1.3 3.35-1.4 5 .5l16.72 19.82a3 3 0 0 1-.45 4.4l-44.3 34.92a3.37 3.37 0 0 1-5-.51l-16.4-19.4a3.43 3.43 0 0 1 .5-4.91z" fill="#353535"></path><path d="M30.26 93.77l21.9-17.28c1.64-1.3 3.36-1.4 5 .5L73.9 96.8a3 3 0 0 1-.45 4.4l-44.3 34.92a3.36 3.36 0 0 1-5-.51l-16.4-19.4a3.43 3.43 0 0 1 .5-4.91z" fill="#fcfcfc"></path><path d="M30.38 95.8l18.84 22.32-20.85 16.45a2.3 2.3 0 0 1-3.58-.37L9.1 115.62a2 2 0 0 1 .32-3.19z" fill="#a243a8"></path><path d="M50.67,117,31.83,94.72,52.68,78.27a2.31,2.31,0,0,1,3.59.36L72,97.2a2,2,0,0,1-.33,3.2Z" fill="#ff4d4d"></path></g><g stroke="#333" fill="#fff"><ellipse cx="52.59" cy="96.86" rx="5.01" ry="5.18" transform="matrix(.100709 -.994916 .994916 .100709 -49.07 139.43)"></ellipse><ellipse cx="35.99" cy="116.77" rx="5.01" ry="5.18" transform="matrix(.100709 -.994916 .994916 .100709 -83.81 140.81)"></ellipse><ellipse cx="20.94" cy="114.65" rx="5.37" ry="5.55" transform="matrix(.100709 -.994916 .994916 .100709 -95.23 123.94)"></ellipse></g><path d="M103.92 112.7l3.44 4.8 19.9-14.2-3.44-4.8zm-.35-12.5a1.6 1.6 0 0 1-2.21-.37l-2-2.8a1.6 1.6 0 0 1 .36-2.2l8-5.73-3.43-4.8-8.4 6c-3.44 2.46-3.68 6-1.36 9.2l3.35 4.7c2.14 3 5.6 3.27 8.7 1.06l8.4-6-3.44-4.8-7.96 5.76zm27.32 21.3l-8 5.73a1.61 1.61 0 0 1-2.21-.37l-2-2.8a1.59 1.59 0 0 1 .37-2.2l8-5.73-3.43-4.8-8.4 6c-3.44 2.45-3.67 6-1.36 9.2l3.35 4.7c2.14 3 5.6 3.27 8.7 1.05l8.4-6zM98 75.46l-2.2-3.08A4.61 4.61 0 0 0 94.36 71l6.48-4.63-3.43-4.8-19.87 14.15L81 80.5l8-5.7a1.6 1.6 0 0 1 2.2.36l2 2.8a1.59 1.59 0 0 1-.37 2.2l-8 5.73 3.43 4.8 8.66-6.2c3.57-2.6 3.23-6.03 1.08-9.04z" fill="#353535" class="O P"></path><path d="M18.5 79.63a9.29 9.29 0 0 1-5.56-1.86 11.45 11.45 0 0 1-1.15-1.16 6.9 6.9 0 0 1-1.25-2.25c-.82-2.45-.4-5.67 1.2-9.2 1.37-3 3.5-6 7.2-10.18l2.17-2.4a3.41 3.41 0 0 1-.19.34 21.48 21.48 0 0 0-2.23 5.14 9.22 9.22 0 0 0 .25 6.65 6.47 6.47 0 0 0 2.84 2.83c2.06 1 5.1 1.1 8.78.24.25 0 12.85-3.4 28-7.42L86.05 53 32.62 75.9c-2.9 1.24-3.66 1.55-5 2a25.51 25.51 0 0 1-9.13 1.73z"></path><g class="O P"><path d="M15 77.93a9.26 9.26 0 0 1-5.56-1.86 10.59 10.59 0 0 1-1.16-1.16 7.29 7.29 0 0 1-1.25-2.25c-.82-2.45-.4-5.67 1.2-9.2 1.37-3 3.5-6 7.18-10.18l2.18-2.4-.2.34a21.89 21.89 0 0 0-2.23 5.14 9.28 9.28 0 0 0 .29 6.64 6.58 6.58 0 0 0 2.84 2.83c2.07 1 5.1 1.1 8.78.25l28-7.43 27.52-7.32L29.17 74.2c-2.9 1.24-3.67 1.55-5 2A25.46 25.46 0 0 1 15 77.93z" fill="#f9dfd2"></path><path d="M102.94 110.34l3.44 4.8 19.9-14.22-3.43-4.8zm-.35-12.5a1.6 1.6 0 0 1-2.21-.37l-2-2.8a1.59 1.59 0 0 1 .37-2.2l8-5.73-3.4-4.76-8.4 6c-3.43 2.46-3.67 6-1.36 9.2l3.35 4.7c2.14 3 5.6 3.26 8.7 1l8.4-6-3.43-4.8-8 5.76zm27.32 21.3l-8 5.73a1.6 1.6 0 0 1-2.2-.37l-2-2.8a1.6 1.6 0 0 1 .37-2.21l8-5.73-3.43-4.8-8.4 6c-3.43 2.45-3.67 6-1.36 9.2l3.36 4.7c2.13 3 5.58 3.27 8.68 1l8.4-6zM97 73.1L94.82 70a4.74 4.74 0 0 0-1.44-1.43L99.86 64l-3.43-4.8-19.86 14.16L80 78.14l8-5.7a1.59 1.59 0 0 1 2.2.37l2 2.8a1.59 1.59 0 0 1-.37 2.2l-8 5.73 3.44 4.8 8.66-6.2c3.58-2.6 3.24-6.02 1.07-9.04z" fill="#d6f2e1"></path></g><path d="M134.24 28.18L89.42 4.1a5.82 5.82 0 0 1-7.76 2.18l-.13-.08-13.07 24.33.13.06A5.81 5.81 0 0 1 71 38.45l44.8 24.08c0-.1.1-.22.16-.33a5.82 5.82 0 0 1 7.87-2.37l13.07-24.3a5.81 5.81 0 0 1-2.66-7.34z" fill="#2d2d2d"></path><g class="P"><path d="M133.2 25.1L88.4 1a5.83 5.83 0 0 1-7.77 2.18l-.12-.07-13.07 24.32.13.06a5.83 5.83 0 0 1 2.37 7.87l44.8 24.08c0-.1.1-.22.16-.33a5.81 5.81 0 0 1 7.87-2.36l13.06-24.32a5.8 5.8 0 0 1-2.61-7.34z" stroke="#333" fill="#ff5050"></path><g stroke-width=".78"><path d="M130.1 26.47L89 4.36a6.47 6.47 0 0 1-6.76 1.83l-.12-.07L70.86 27l.12.06c2.42 1.63 2.64 4.68 2.06 6.78L114.22 56a1.83 1.83 0 0 1 .14-.28 5.73 5.73 0 0 1 7.1-2l11.1-20.65a5.87 5.87 0 0 1-2.46-6.6z" fill="none" stroke="#353535"></path><path d="M75.8 25.42l-2.4 4.48-.4-.2 2.58-4.8.2.52zm7.88-14.35l2.4-4.47-.4-.2-2.58 4.8.56-.12zm35.9 37.5l-2.4 4.48.38.2 2.58-4.8-.56.1zm7.82-14.16l2.4-4.48.4.2-2.58 4.8-.2-.52z" stroke="#333" fill="#333"></path></g><g class="O"><path d="M79.75 25.76l1-1.92 7.06 3.62a3.11 3.11 0 0 0 1.66.4 1.34 1.34 0 0 0 1.13-.8 1.46 1.46 0 0 0 .12-1.26 2.11 2.11 0 0 0-1.06-1l-4.86-2.48.83-1.62 4.7 2.42a2.18 2.18 0 0 0 1.36.32 1.38 1.38 0 0 0 .92-.83 1.26 1.26 0 0 0 0-1.32 3.24 3.24 0 0 0-1.31-1.05l-6.9-3.53 1-1.9 7.26 3.73a5.61 5.61 0 0 1 1.36.93 3.71 3.71 0 0 1 .84 1.1 2.62 2.62 0 0 1 .26 1.26 3.21 3.21 0 0 1-.38 1.36 2.84 2.84 0 0 1-1.26 1.37 2.55 2.55 0 0 1-1.45.2 2.8 2.8 0 0 1 .79 1.51 2.93 2.93 0 0 1-.34 1.85 4.3 4.3 0 0 1-1 1.24 3.17 3.17 0 0 1-1.25.67 3.53 3.53 0 0 1-1.46.1 4.67 4.67 0 0 1-1.58-.5zM92.5 32.3l1-1.92 8.23 4.22a1.82 1.82 0 0 0 1.38.22A1.57 1.57 0 0 0 104 34a1.51 1.51 0 0 0 .14-1.27 1.92 1.92 0 0 0-1-1L94.9 27.5l3.2-6.2 11.1 5.7-1 1.9-9.12-4.68-1.37 2.68 6.25 3.2a4.12 4.12 0 0 1 2.13 2.09 3.43 3.43 0 0 1-.36 2.83 4 4 0 0 1-.87 1.17 3.13 3.13 0 0 1-1.15.7 3.43 3.43 0 0 1-1.41.13 4.67 4.67 0 0 1-1.61-.53zm18.75 2.56a3.06 3.06 0 0 1-1-.8 3.23 3.23 0 0 1-.59-1.07 3.12 3.12 0 0 1-.12-1.22 3.16 3.16 0 0 1 .35-1.23 3.05 3.05 0 0 1 .79-1 3.17 3.17 0 0 1 1-.57 2.77 2.77 0 0 1 1.19-.11 3.29 3.29 0 0 1 1.23.37 3.64 3.64 0 0 1 1 .78 3.06 3.06 0 0 1 .61 1 3.15 3.15 0 0 1 .16 1.19 3.31 3.31 0 0 1-2.22 2.83 3.33 3.33 0 0 1-1.22.14 2.93 2.93 0 0 1-1.18-.31zm-5.4 5.57l16.42-7.56 1.28.66-16.38 7.58zM114.6 33a2.11 2.11 0 0 0 .18-1.58A2.41 2.41 0 0 0 112 30a2.07 2.07 0 0 0-1.17 1.07 2.11 2.11 0 0 0-.19 1.58 2.34 2.34 0 0 0 2.79 1.43 2.12 2.12 0 0 0 1.16-1.08zm1.3 11.57a3 3 0 0 1-1-.8 3.23 3.23 0 0 1-.59-1.07 3.23 3.23 0 0 1 .23-2.45 3.05 3.05 0 0 1 .79-1 3.22 3.22 0 0 1 1-.57 2.83 2.83 0 0 1 1.2-.11 3.41 3.41 0 0 1 1.23.37 3.64 3.64 0 0 1 1 .78 3.23 3.23 0 0 1 .61 1 3.07 3.07 0 0 1-.2 2.41 3.1 3.1 0 0 1-.79 1 3.19 3.19 0 0 1-1.07.61 3.33 3.33 0 0 1-1.22.14 2.93 2.93 0 0 1-1.19-.3zm3.33-1.85a2 2 0 0 0-.94-2.81 2 2 0 0 0-1.66-.2 2.28 2.28 0 0 0-1.36 2.65A2.34 2.34 0 0 0 118 43.8a2.07 2.07 0 0 0 1.21-1.07z" fill="#2b2b2b"></path><g fill="#fff"><path d="M79.75 25.13l1-1.9 7.05 3.6a3 3 0 0 0 1.66.4 1.35 1.35 0 0 0 1.14-.79 1.49 1.49 0 0 0 .11-1.26 2.08 2.08 0 0 0-1.06-1l-4.85-2.5.83-1.6 4.7 2.42a2.17 2.17 0 0 0 1.36.31 1.35 1.35 0 0 0 .92-.82 1.27 1.27 0 0 0 0-1.33 3.41 3.41 0 0 0-1.31-1.05l-6.9-3.53 1-1.9 7.26 3.73a5.88 5.88 0 0 1 1.36.92 3.62 3.62 0 0 1 .84 1.11 2.62 2.62 0 0 1 .26 1.26 3.11 3.11 0 0 1-.38 1.36 2.81 2.81 0 0 1-1.26 1.36 2.47 2.47 0 0 1-1.45.2 2.83 2.83 0 0 1 .79 1.52 2.9 2.9 0 0 1-.34 1.84 4 4 0 0 1-1 1.24 3.33 3.33 0 0 1-1.25.68 3.71 3.71 0 0 1-1.46.1 4.49 4.49 0 0 1-1.52-.5zm12.75 6.54l1-1.9 8.2 4.24a1.86 1.86 0 0 0 1.38.21 1.76 1.76 0 0 0 1.08-2.11 1.94 1.94 0 0 0-1-.95l-8.23-4.25 3.2-6.2 11.1 5.7-1 1.92-9.12-4.68-1.36 2.67 6.25 3.2a4.11 4.11 0 0 1 2.13 2.08 3.43 3.43 0 0 1-.36 2.83 3.89 3.89 0 0 1-.87 1.18 3 3 0 0 1-1.15.69 3.1 3.1 0 0 1-1.4.13 4.62 4.62 0 0 1-1.62-.52z" stroke-width=".45"></path><path d="M111.25 34.24a3.23 3.23 0 0 1-1-.81 3 3 0 0 1-.58-1.07 3.08 3.08 0 0 1-.13-1.22 3.26 3.26 0 0 1 .35-1.23 3.12 3.12 0 0 1 .79-1 2.84 2.84 0 0 1 1-.57 3 3 0 0 1 1.19-.12 3.66 3.66 0 0 1 2.25 1.16 3 3 0 0 1 .61 1 3.1 3.1 0 0 1 .16 1.18 3.26 3.26 0 0 1-.35 1.22 3.31 3.31 0 0 1-.8 1 2.92 2.92 0 0 1-1.07.6 3.19 3.19 0 0 1-2.46-.2zm-5.4 5.57l16.42-7.57 1.28.66-16.38 7.58zm8.74-7.43a2.08 2.08 0 0 0 .18-1.57 2.12 2.12 0 0 0-4-.36 2.11 2.11 0 0 0-.19 1.58 2 2 0 0 0 1.13 1.24 2 2 0 0 0 1.66.19 2.1 2.1 0 0 0 1.22-1.08zm1.3 11.62a3.24 3.24 0 0 1-1.6-1.88 3.08 3.08 0 0 1-.12-1.22 3.16 3.16 0 0 1 .35-1.23 3.27 3.27 0 0 1 .79-1 2.94 2.94 0 0 1 2.24-.68 3.43 3.43 0 0 1 1.23.38 3.3 3.3 0 0 1 1 .78 3 3 0 0 1 .61 1 3.05 3.05 0 0 1-.2 2.4 3.14 3.14 0 0 1-.79 1 3 3 0 0 1-1.07.6 3.13 3.13 0 0 1-1.22.15 3.25 3.25 0 0 1-1.22-.3zm3.33-1.86a2.12 2.12 0 1 0-4-.35 2 2 0 0 0 1.16 1.21 2 2 0 0 0 2.84-.89z" stroke-width=".2"></path></g></g></g></svg> 