<?xml version="1.0" encoding="UTF-8"?> <svg xmlns="http://www.w3.org/2000/svg" id="Layer_1" data-name="Layer 1" viewBox="0 0 157.79 49.88"><defs><style>.cls-1{fill:#ffb0bb;stroke:#070707;stroke-miterlimit:10;}</style></defs><rect class="cls-1" x="1.85" y="1.78" width="154.56" height="46.15" rx="3.69"></rect><path d="M13,31.43V17H27.92v3.24H16.6V22.7H26.66v3.06H16.6v2.43H27.92v3.24Z"></path><path d="M43,28.51H34l-1.34,2.92H28.82l7-14.4h5.51l6.86,14.4H44.32Zm-7.63-2.93h6.3L39.06,20H37.93Z"></path><path d="M49.68,17H60.81c3.58,0,5.36,2.28,5.36,4.91a4.88,4.88,0,0,1-2.63,4.41l2.58,5.08H62.07l-2-4.41H53.28v4.41h-3.6Zm3.6,3.24V24h7c1.77,0,2.17-1,2.17-1.93,0-.75-.4-1.76-2.17-1.76Z"></path><path d="M72.54,21.33h-.9v10.1H68V17H73.1l9.52,9.09h.91V17h3.6v14.4H82.77Z"></path><path d="M102.13,24v0c1.44.63,2.4,1.42,2.4,3.13,0,2.92-2.94,4.52-6.25,4.52a8.42,8.42,0,0,1-3.89-.86l.33-3.08a10.11,10.11,0,0,0,3.81.91c1.28,0,2.22-.55,2.22-1.44,0-1.06-1.32-1.78-3.53-1.65l-.42-2.27c2.49-.49,3.8-1,3.8-2s-.88-1.39-2-1.41a8,8,0,0,0-3.55.94L94.63,18a8.12,8.12,0,0,1,4.59-1.28c2.75,0,5.35,1.31,5.35,3.85A3.76,3.76,0,0,1,102.13,24Z"></path><path d="M106.6,27.85h3.76v3.58H106.6Z"></path><path d="M112.59,25.27l.7-8.24h8.95L122,20.18h-5.65l-.26,2.43c3.79.18,6.47,1.29,6.47,4.3,0,2.61-2.07,4.79-6.07,4.79a9.7,9.7,0,0,1-4.25-.95l.18-3a8.88,8.88,0,0,0,4,1c2,0,2.54-.7,2.54-1.4C118.89,26,116.66,25.51,112.59,25.27Z"></path><path d="M128.07,16.76c2.92,0,4.16,1.69,4.16,4.25s-1.24,4.25-4.16,4.25-4.16-1.7-4.16-4.25S125.15,16.76,128.07,16.76ZM137,17h2.88l-10.12,14.4h-2.88Zm-8.93,5.78c.76,0,1.15-.58,1.15-1.8s-.23-1.8-1.15-1.8-1.15.57-1.15,1.8S127.21,22.81,128.07,22.81Zm10.86.39c2.91,0,4.16,1.7,4.16,4.25s-1.25,4.25-4.16,4.25-4.16-1.69-4.16-4.25S136,23.2,138.93,23.2Zm0,6.05c.75,0,1.15-.57,1.15-1.8s-.23-1.8-1.15-1.8-1.15.58-1.15,1.8S138.06,29.25,138.93,29.25Z"></path></svg> 