<?xml version="1.0" encoding="UTF-8"?> <svg xmlns="http://www.w3.org/2000/svg" id="Layer_1" data-name="Layer 1" viewBox="0 0 274.47 123.71"><defs><style>.cls-1{isolation:isolate;}.cls-2{fill:#6f6f6f;}</style></defs><g id="Marketing-Tools"><g id="Desktop-HD-Copy"><g id="shopathome" class="cls-1"><g class="cls-1"><path class="cls-2" d="M16.6,66.16a4.17,4.17,0,0,0,.86,2.37c.78.83,2.22,1.25,4.32,1.25a6.58,6.58,0,0,0,2.95-.55A1.84,1.84,0,0,0,24.94,66a37.23,37.23,0,0,0-6.54-1.89,13.56,13.56,0,0,1-5.75-2.52A5.47,5.47,0,0,1,11,57.27a7.46,7.46,0,0,1,2.61-5.7c1.74-1.58,4.18-2.38,7.33-2.38A13.52,13.52,0,0,1,28.24,51q2.82,1.79,3.24,6.18H25.23a3.68,3.68,0,0,0-.69-1.91A4.29,4.29,0,0,0,21,54a5.1,5.1,0,0,0-2.91.63,1.85,1.85,0,0,0-.87,1.5,1.63,1.63,0,0,0,.92,1.55,39.81,39.81,0,0,0,6.53,1.74,12,12,0,0,1,5.61,2.65,6,6,0,0,1,1.84,4.5,7.26,7.26,0,0,1-2.65,5.81q-2.65,2.25-8.19,2.25c-3.77,0-6.55-.8-8.35-2.38a7.76,7.76,0,0,1-2.69-6.07Z"></path><path class="cls-2" d="M52.91,50a7,7,0,0,1,3,2.35,6.13,6.13,0,0,1,1.2,2.75,33.49,33.49,0,0,1,.22,4.63V73.8H50.9V59.23a6.4,6.4,0,0,0-.65-3.12A3.26,3.26,0,0,0,47,54.44a4.41,4.41,0,0,0-3.74,1.66A7.61,7.61,0,0,0,42,60.83v13H35.76V41.55H42V53a7.7,7.7,0,0,1,3.14-2.91,8.83,8.83,0,0,1,3.75-.82A10,10,0,0,1,52.91,50Z"></path><path class="cls-2" d="M82.09,70.87q-3,3.73-9.2,3.74T63.7,70.87a13.83,13.83,0,0,1-3-9,13.94,13.94,0,0,1,3-9q3-3.8,9.19-3.8t9.2,3.8a13.94,13.94,0,0,1,3,9A13.83,13.83,0,0,1,82.09,70.87Zm-5-3.46a9.06,9.06,0,0,0,1.47-5.54,9,9,0,0,0-1.47-5.54,5.56,5.56,0,0,0-8.44,0,9,9,0,0,0-1.49,5.54,9,9,0,0,0,1.49,5.54,5.54,5.54,0,0,0,8.44,0Z"></path><path class="cls-2" d="M108.68,52.44q2.92,3.09,2.93,9.09,0,6.31-2.86,9.63a9.31,9.31,0,0,1-7.37,3.32,7.7,7.7,0,0,1-4.77-1.43,9.29,9.29,0,0,1-2-2.31V83.21H88.39V49.87h6v3.54A10,10,0,0,1,96.54,51a8,8,0,0,1,5-1.6A9.46,9.46,0,0,1,108.68,52.44Zm-4.8,4.5a4.45,4.45,0,0,0-4.14-2.13A4.71,4.71,0,0,0,95,58a12.19,12.19,0,0,0-.66,4.34c0,2.78.74,4.74,2.23,5.86a5.14,5.14,0,0,0,3.15,1,4.58,4.58,0,0,0,4-2,9.37,9.37,0,0,0,1.38-5.38A9.33,9.33,0,0,0,103.88,56.94Z"></path><path class="cls-2" d="M124.46,59.24a10.18,10.18,0,0,0,2.5-.54,1.89,1.89,0,0,0,1.35-1.78,2.1,2.1,0,0,0-1-2,6.45,6.45,0,0,0-3-.56,4,4,0,0,0-3.18,1.1,4.58,4.58,0,0,0-.89,2.19h-6a9.19,9.19,0,0,1,1.76-5.16c1.66-2.1,4.51-3.16,8.55-3.16a15.23,15.23,0,0,1,7,1.56q3.08,1.56,3.07,5.88v11c0,.76,0,1.68,0,2.76a3.49,3.49,0,0,0,.37,1.67,2.32,2.32,0,0,0,.93.72v.93h-6.81a6.84,6.84,0,0,1-.39-1.37c-.08-.42-.13-.9-.18-1.44a13.21,13.21,0,0,1-3,2.39,9.13,9.13,0,0,1-4.59,1.16,8,8,0,0,1-5.4-1.85,6.61,6.61,0,0,1-2.13-5.26A6.81,6.81,0,0,1,116.79,61a15.26,15.26,0,0,1,5.52-1.53Zm3.82,2.92a7.23,7.23,0,0,1-1.21.61,10.7,10.7,0,0,1-1.68.42l-1.42.27a9.43,9.43,0,0,0-2.88.85A2.87,2.87,0,0,0,119.61,67a2.8,2.8,0,0,0,.91,2.32,3.45,3.45,0,0,0,2.19.71,6.54,6.54,0,0,0,3.78-1.19q1.73-1.19,1.79-4.32Z"></path><path class="cls-2" d="M136.49,54.55V50.09h3.34V43.42H146v6.67h3.89v4.46H146V67.19a2.82,2.82,0,0,0,.38,1.83,4.13,4.13,0,0,0,2.28.36h.6c.22,0,.42,0,.63,0V74l-3,.11c-3,.11-5-.41-6.06-1.53a4.59,4.59,0,0,1-1-3.32V54.55Z"></path><path class="cls-2" d="M170.08,50a7,7,0,0,1,3,2.35,6.36,6.36,0,0,1,1.2,2.75,35.18,35.18,0,0,1,.22,4.63V73.8h-6.39V59.23a6.52,6.52,0,0,0-.65-3.12,3.27,3.27,0,0,0-3.23-1.67,4.4,4.4,0,0,0-3.73,1.66,7.61,7.61,0,0,0-1.28,4.73v13h-6.25V41.55h6.25V53a7.7,7.7,0,0,1,3.14-2.91,8.77,8.77,0,0,1,3.75-.82A10,10,0,0,1,170.08,50Z"></path><path class="cls-2" d="M199.26,70.87q-3,3.73-9.2,3.74t-9.2-3.74a13.83,13.83,0,0,1-3-9,13.93,13.93,0,0,1,3-9q3-3.8,9.2-3.8t9.2,3.8a13.93,13.93,0,0,1,3,9A13.83,13.83,0,0,1,199.26,70.87Zm-5-3.46a9.06,9.06,0,0,0,1.47-5.54,9,9,0,0,0-1.47-5.54A5,5,0,0,0,190,54.39a5,5,0,0,0-4.23,1.94,9,9,0,0,0-1.48,5.54,9.06,9.06,0,0,0,1.48,5.54,5,5,0,0,0,4.23,2A5,5,0,0,0,194.25,67.41Z"></path><path class="cls-2" d="M235.58,50a7,7,0,0,1,4.15,5.22,22.33,22.33,0,0,1,.21,3.54l0,15.08h-6.41V58.56a4.87,4.87,0,0,0-.44-2.23A3.1,3.1,0,0,0,230,54.66a3.59,3.59,0,0,0-3.58,2.15,6.84,6.84,0,0,0-.5,2.74V73.8h-6.3V59.55a8,8,0,0,0-.44-3.09,3.06,3.06,0,0,0-3.09-1.74q-2.69,0-3.6,1.74A6.63,6.63,0,0,0,212,59.4V73.8h-6.34V49.92h6.08v3.49a10.09,10.09,0,0,1,2.19-2.66,8.73,8.73,0,0,1,9.16-.2,7.14,7.14,0,0,1,2.06,2.88,7.91,7.91,0,0,1,3-3.1,9.41,9.41,0,0,1,4.3-1A8.37,8.37,0,0,1,235.58,50Z"></path><path class="cls-2" d="M260.25,50.36a9.64,9.64,0,0,1,4.13,3.54,11.75,11.75,0,0,1,1.91,4.94,30.39,30.39,0,0,1,.21,4.75H249.07q.15,3.6,2.5,5a6.38,6.38,0,0,0,3.45.9,5.31,5.31,0,0,0,3.48-1.1,5.17,5.17,0,0,0,1.28-1.65h6.39a7.84,7.84,0,0,1-2.32,4.33q-3.21,3.48-9,3.49a13,13,0,0,1-8.43-3q-3.64-2.94-3.65-9.57,0-6.23,3.3-9.54a11.54,11.54,0,0,1,8.55-3.31A13.57,13.57,0,0,1,260.25,50.36Zm-9.36,5.4a6.49,6.49,0,0,0-1.66,3.7H260a5.23,5.23,0,0,0-1.66-3.78,5.5,5.5,0,0,0-3.71-1.29A5,5,0,0,0,250.89,55.76Z"></path></g></g></g></g></svg> 