<?xml version="1.0" encoding="UTF-8"?> <svg xmlns="http://www.w3.org/2000/svg" id="Layer_1" data-name="Layer 1" viewBox="0 0 63.25 98.38"><defs><style>.cls-1{fill:#222;}.cls-2{fill:#009688;}.cls-3{fill:#fff;}</style></defs><g id="Marketing-Tools"><g id="Desktop-HD-Copy"><g id="Group-3"><circle id="Oval" class="cls-1" cx="31.56" cy="72.61" r="21"></circle></g></g></g><g id="doot-arrow"><g id="next"><g id="Group"><path id="Path" class="cls-2" d="M32.35,40h0a.79.79,0,1,0-.79.78.79.79,0,0,0,.79-.78Z"></path><path id="Path-2" data-name="Path" class="cls-2" d="M32.35,36.84h0a.79.79,0,1,0-.79.78.78.78,0,0,0,.79-.78Z"></path><path id="Path-3" data-name="Path" class="cls-2" d="M32.35,33.72v0a.79.79,0,1,0-.79.78.78.78,0,0,0,.79-.78v0Z"></path><path id="Path-4" data-name="Path" class="cls-2" d="M32.35,30.59v0a.79.79,0,1,0-.79.78.78.78,0,0,0,.79-.78v0Z"></path><path id="Path-5" data-name="Path" class="cls-2" d="M32.35,27.46v0a.79.79,0,1,0-.79.79.78.78,0,0,0,.79-.79v0Z"></path><path id="Path-6" data-name="Path" class="cls-2" d="M32.35,24.33h0a.79.79,0,1,0-.79.78.79.79,0,0,0,.79-.78Z"></path><path id="Path-7" data-name="Path" class="cls-2" d="M32.35,21.2h0a.79.79,0,1,0-.79.78.79.79,0,0,0,.79-.78Z"></path><path id="Path-8" data-name="Path" class="cls-2" d="M35.48,36.84h0a.78.78,0,1,0-.78.78.78.78,0,0,0,.78-.78Z"></path><path id="Path-9" data-name="Path" class="cls-2" d="M35.48,33.72v0a.78.78,0,1,0-.78.78.78.78,0,0,0,.78-.78Z"></path><path id="Path-10" data-name="Path" class="cls-2" d="M35.48,30.59v0a.78.78,0,1,0-.78.78.78.78,0,0,0,.78-.78Z"></path><path id="Path-11" data-name="Path" class="cls-2" d="M35.48,27.46v0a.78.78,0,1,0-.78.79.78.78,0,0,0,.78-.79Z"></path><path id="Path-12" data-name="Path" class="cls-2" d="M35.48,24.33h0a.78.78,0,1,0-.78.78.78.78,0,0,0,.78-.78Z"></path><path id="Path-13" data-name="Path" class="cls-2" d="M38.62,33.72v0a.79.79,0,1,0-.78.78.78.78,0,0,0,.78-.78Z"></path><path id="Path-14" data-name="Path" class="cls-2" d="M38.62,30.59v0a.79.79,0,1,0-.78.78.78.78,0,0,0,.78-.78Z"></path><path id="Path-15" data-name="Path" class="cls-2" d="M38.62,27.46v0a.79.79,0,1,0-.78.79.78.78,0,0,0,.78-.79Z"></path><path id="Path-16" data-name="Path" class="cls-2" d="M38.62,24.33h0a.79.79,0,1,0-.78.78.78.78,0,0,0,.78-.78Z"></path><path id="Path-17" data-name="Path" class="cls-2" d="M41.76,30.59v0a.79.79,0,1,0-.79.78.78.78,0,0,0,.79-.78v0Z"></path><path id="Path-18" data-name="Path" class="cls-2" d="M41.76,27.46v0a.79.79,0,1,0-.79.79.78.78,0,0,0,.79-.79v0Z"></path><path id="Path-19" data-name="Path" class="cls-2" d="M41.76,24.33h0a.79.79,0,1,0-.79.78.79.79,0,0,0,.79-.78Z"></path><path id="Path-20" data-name="Path" class="cls-2" d="M44.89,27.46v0a.79.79,0,1,0-.78.79.78.78,0,0,0,.78-.79Z"></path><path id="Path-21" data-name="Path" class="cls-2" d="M44.89,24.33h0a.79.79,0,1,0-.78.78.78.78,0,0,0,.78-.78Z"></path><path id="Path-22" data-name="Path" class="cls-2" d="M48,24.33h0a.79.79,0,1,0-.79.78.79.79,0,0,0,.79-.78Z"></path><path id="Path-23" data-name="Path" class="cls-2" d="M29.21,36.84h0a.78.78,0,0,0-.78-.78.78.78,0,1,0,0,1.56.78.78,0,0,0,.78-.78Z"></path><path id="Path-24" data-name="Path" class="cls-2" d="M29.21,33.72v0a.78.78,0,0,0-.78-.78.78.78,0,1,0,0,1.56.78.78,0,0,0,.78-.78Z"></path><path id="Path-25" data-name="Path" class="cls-2" d="M29.21,30.59v0a.78.78,0,0,0-.78-.78.78.78,0,1,0,0,1.56.78.78,0,0,0,.78-.78Z"></path><path id="Path-26" data-name="Path" class="cls-2" d="M29.21,27.46v0a.78.78,0,0,0-.78-.78.79.79,0,1,0,.78.78Z"></path><path id="Path-27" data-name="Path" class="cls-2" d="M29.21,24.33h0a.78.78,0,0,0-.78-.79.79.79,0,1,0,0,1.57.78.78,0,0,0,.78-.78Z"></path><path id="Path-28" data-name="Path" class="cls-2" d="M26.08,33.72v0a.79.79,0,1,0-.79.78.78.78,0,0,0,.79-.78Z"></path><path id="Path-29" data-name="Path" class="cls-2" d="M26.08,30.59v0a.79.79,0,1,0-.79.78.78.78,0,0,0,.79-.78Z"></path><path id="Path-30" data-name="Path" class="cls-2" d="M26.08,27.46v0a.79.79,0,1,0-.79.79.78.78,0,0,0,.79-.79Z"></path><path id="Path-31" data-name="Path" class="cls-2" d="M26.08,24.33h0a.79.79,0,1,0-.79.78.79.79,0,0,0,.79-.78Z"></path><path id="Path-32" data-name="Path" class="cls-2" d="M22.94,30.59v0a.79.79,0,1,0-.78.78.78.78,0,0,0,.78-.78Z"></path><path id="Path-33" data-name="Path" class="cls-2" d="M22.94,27.46v0a.79.79,0,1,0-.78.79.78.78,0,0,0,.78-.79Z"></path><path id="Path-34" data-name="Path" class="cls-2" d="M22.94,24.33h0a.79.79,0,1,0-.78.78.78.78,0,0,0,.78-.78Z"></path><path id="Path-35" data-name="Path" class="cls-2" d="M19.81,27.46v0a.79.79,0,0,0-.79-.78.79.79,0,0,0,0,1.57.79.79,0,0,0,.79-.79Z"></path><path id="Path-36" data-name="Path" class="cls-2" d="M19.81,24.33h0a.79.79,0,0,0-.79-.79.79.79,0,1,0,.79.79Z"></path><path id="Path-37" data-name="Path" class="cls-2" d="M16.67,24.33h0a.79.79,0,1,0-.78.78.78.78,0,0,0,.78-.78Z"></path><path id="Path-38" data-name="Path" class="cls-2" d="M32.35,18.07h0a.79.79,0,1,0-.79.78.78.78,0,0,0,.79-.78Z"></path><path id="Path-39" data-name="Path" class="cls-2" d="M32.35,15v0a.79.79,0,1,0-.79.78.78.78,0,0,0,.79-.78v0Z"></path><path id="Path-40" data-name="Path" class="cls-2" d="M32.35,11.82v0a.79.79,0,1,0-.79.78.78.78,0,0,0,.79-.78v0Z"></path><path id="Path-41" data-name="Path" class="cls-2" d="M32.35,8.69v0a.79.79,0,1,0-.79.79.78.78,0,0,0,.79-.79v0Z"></path><path id="Path-42" data-name="Path" class="cls-2" d="M32.35,5.56h0a.79.79,0,1,0-.79.78.78.78,0,0,0,.79-.78Z"></path><path id="Path-43" data-name="Path" class="cls-2" d="M29.21,21.2h0a.78.78,0,0,0-.78-.79.79.79,0,1,0,0,1.57.78.78,0,0,0,.78-.78Z"></path><path id="Path-44" data-name="Path" class="cls-2" d="M29.21,18.07h0a.78.78,0,0,0-.78-.78.78.78,0,1,0,0,1.56.78.78,0,0,0,.78-.78Z"></path><path id="Path-45" data-name="Path" class="cls-2" d="M29.21,15v0a.78.78,0,0,0-.78-.78.78.78,0,1,0,0,1.56.78.78,0,0,0,.78-.78Z"></path><path id="Path-46" data-name="Path" class="cls-2" d="M29.21,11.82v0a.78.78,0,0,0-.78-.78.78.78,0,1,0,0,1.56.78.78,0,0,0,.78-.78Z"></path><path id="Path-47" data-name="Path" class="cls-2" d="M29.21,8.69v0a.78.78,0,0,0-.78-.78.79.79,0,1,0,.78.78Z"></path><path id="Path-48" data-name="Path" class="cls-2" d="M29.21,5.56h0a.78.78,0,0,0-.78-.78.78.78,0,1,0,0,1.56.78.78,0,0,0,.78-.78Z"></path><path id="Path-49" data-name="Path" class="cls-2" d="M35.48,21.2h0a.78.78,0,1,0-.78.78.78.78,0,0,0,.78-.78Z"></path><path id="Path-50" data-name="Path" class="cls-2" d="M35.48,18.07h0a.78.78,0,1,0-.78.78A.77.77,0,0,0,35.48,18.07Z"></path><path id="Path-51" data-name="Path" class="cls-2" d="M35.48,15v0a.78.78,0,1,0-.78.78A.77.77,0,0,0,35.48,15Z"></path><path id="Path-52" data-name="Path" class="cls-2" d="M35.48,11.82v0a.78.78,0,1,0-.78.78A.77.77,0,0,0,35.48,11.82Z"></path><path id="Path-53" data-name="Path" class="cls-2" d="M35.48,8.69v0a.78.78,0,1,0-.78.79A.78.78,0,0,0,35.48,8.67Z"></path><path id="Path-54" data-name="Path" class="cls-2" d="M35.48,5.56h0a.78.78,0,1,0-.78.78A.77.77,0,0,0,35.48,5.56Z"></path></g><path id="Path-55" data-name="Path" d="M30.78,40a.79.79,0,0,1,1.57,0h0a.79.79,0,0,1-1.57,0Z"></path><path id="Path-56" data-name="Path" d="M30.78,36.84a.79.79,0,0,1,1.57,0h0a.79.79,0,1,1-1.57,0Z"></path><path id="Path-57" data-name="Path" d="M30.78,33.72a.79.79,0,1,1,1.57,0h0a.79.79,0,0,1-1.57,0Z"></path><path id="Path-58" data-name="Path" d="M30.78,30.59a.79.79,0,0,1,1.57,0h0a.79.79,0,0,1-1.57,0Z"></path><path id="Path-59" data-name="Path" d="M30.78,27.46a.79.79,0,0,1,1.57,0h0a.79.79,0,0,1-1.57,0Z"></path><path id="Path-60" data-name="Path" d="M30.78,24.33a.79.79,0,0,1,1.57,0h0a.79.79,0,0,1-1.57,0Z"></path><path id="Path-61" data-name="Path" d="M30.78,21.2a.79.79,0,0,1,1.57,0h0a.79.79,0,0,1-1.57,0Z"></path><path id="Path-62" data-name="Path" d="M33.92,36.84a.78.78,0,0,1,1.56,0h0a.78.78,0,1,1-1.56,0Z"></path><path id="Path-63" data-name="Path" d="M33.92,33.72a.78.78,0,1,1,1.56,0h0a.78.78,0,0,1-1.56,0Z"></path><path id="Path-64" data-name="Path" d="M33.92,30.59a.78.78,0,0,1,1.56,0h0a.78.78,0,1,1-1.56,0Z"></path><path id="Path-65" data-name="Path" d="M33.92,27.46a.78.78,0,1,1,1.56,0h0a.78.78,0,0,1-1.56,0Z"></path><path id="Path-66" data-name="Path" d="M33.92,24.33a.78.78,0,0,1,1.56,0h0a.78.78,0,1,1-1.56,0Z"></path><path id="Path-67" data-name="Path" d="M37.05,33.72a.79.79,0,1,1,1.57,0h0a.79.79,0,0,1-1.57,0Z"></path><path id="Path-68" data-name="Path" d="M37.05,30.59a.79.79,0,0,1,1.57,0h0a.79.79,0,0,1-1.57,0Z"></path><path id="Path-69" data-name="Path" d="M37.05,27.46a.79.79,0,0,1,1.57,0h0a.79.79,0,0,1-1.57,0Z"></path><path id="Path-70" data-name="Path" d="M37.05,24.33a.79.79,0,0,1,1.57,0h0a.79.79,0,0,1-1.57,0Z"></path><path id="Path-71" data-name="Path" d="M40.19,30.59a.79.79,0,0,1,1.57,0h0a.79.79,0,0,1-1.57,0Z"></path><path id="Path-72" data-name="Path" d="M40.19,27.46a.79.79,0,0,1,1.57,0h0a.79.79,0,0,1-1.57,0Z"></path><path id="Path-73" data-name="Path" d="M40.19,24.33a.79.79,0,0,1,1.57,0h0a.79.79,0,0,1-1.57,0Z"></path><path id="Path-74" data-name="Path" d="M43.32,27.46a.79.79,0,0,1,1.57,0h0a.79.79,0,0,1-1.57,0Z"></path><path id="Path-75" data-name="Path" d="M43.32,24.33a.79.79,0,0,1,1.57,0h0a.79.79,0,0,1-1.57,0Z"></path><path id="Path-76" data-name="Path" d="M46.46,24.33a.79.79,0,0,1,1.57,0h0a.79.79,0,0,1-1.57,0Z"></path><path id="Path-77" data-name="Path" d="M27.64,36.84a.79.79,0,0,1,.79-.78.78.78,0,0,1,.78.78h0a.78.78,0,0,1-.78.79A.79.79,0,0,1,27.64,36.84Z"></path><path id="Path-78" data-name="Path" d="M27.64,33.72a.79.79,0,0,1,.79-.79.78.78,0,0,1,.78.79h0a.78.78,0,0,1-.78.78A.79.79,0,0,1,27.64,33.72Z"></path><path id="Path-79" data-name="Path" d="M27.64,30.59a.79.79,0,0,1,.79-.78.78.78,0,0,1,.78.78h0a.78.78,0,0,1-.78.78A.79.79,0,0,1,27.64,30.59Z"></path><path id="Path-80" data-name="Path" d="M27.64,27.46a.79.79,0,0,1,.79-.78.78.78,0,0,1,.78.78h0a.78.78,0,0,1-.78.78A.79.79,0,0,1,27.64,27.46Z"></path><path id="Path-81" data-name="Path" d="M27.64,24.33a.79.79,0,0,1,.79-.78.78.78,0,0,1,.78.78h0a.78.78,0,0,1-.78.78A.79.79,0,0,1,27.64,24.33Z"></path><path id="Path-82" data-name="Path" d="M24.51,33.72a.79.79,0,1,1,1.57,0h0a.79.79,0,0,1-1.57,0Z"></path><path id="Path-83" data-name="Path" d="M24.51,30.59a.79.79,0,0,1,1.57,0h0a.79.79,0,0,1-1.57,0Z"></path><path id="Path-84" data-name="Path" d="M24.51,27.46a.79.79,0,0,1,1.57,0h0a.79.79,0,0,1-1.57,0Z"></path><path id="Path-85" data-name="Path" d="M24.51,24.33a.79.79,0,0,1,1.57,0h0a.79.79,0,0,1-1.57,0Z"></path><path id="Path-86" data-name="Path" d="M21.37,30.59a.79.79,0,0,1,1.57,0h0a.79.79,0,0,1-1.57,0Z"></path><path id="Path-87" data-name="Path" d="M21.37,27.46a.79.79,0,0,1,1.57,0h0a.79.79,0,0,1-1.57,0Z"></path><path id="Path-88" data-name="Path" d="M21.37,24.33a.79.79,0,0,1,1.57,0h0a.79.79,0,0,1-1.57,0Z"></path><path id="Path-89" data-name="Path" d="M18.24,27.46a.78.78,0,0,1,.78-.78.79.79,0,0,1,.79.78h0a.79.79,0,0,1-.79.78A.78.78,0,0,1,18.24,27.46Z"></path><path id="Path-90" data-name="Path" d="M18.24,24.33a.78.78,0,0,1,.78-.78.79.79,0,0,1,.79.78h0a.79.79,0,0,1-.79.78A.78.78,0,0,1,18.24,24.33Z"></path><path id="Path-91" data-name="Path" d="M15.1,24.33a.79.79,0,0,1,1.57,0h0a.79.79,0,0,1-1.57,0Z"></path><path id="Path-92" data-name="Path" d="M30.78,18.07a.79.79,0,0,1,1.57,0h0a.79.79,0,1,1-1.57,0Z"></path><path id="Path-93" data-name="Path" d="M30.78,15a.79.79,0,1,1,1.57,0h0a.79.79,0,0,1-1.57,0Z"></path><path id="Path-94" data-name="Path" d="M30.78,11.82a.79.79,0,0,1,1.57,0h0a.79.79,0,0,1-1.57,0Z"></path><path id="Path-95" data-name="Path" d="M30.78,8.69a.79.79,0,0,1,1.57,0h0a.79.79,0,0,1-1.57,0Z"></path><path id="Path-96" data-name="Path" d="M30.78,5.56a.79.79,0,0,1,1.57,0h0a.79.79,0,0,1-1.57,0Z"></path><path id="Path-97" data-name="Path" d="M27.64,21.2a.79.79,0,0,1,.79-.78.78.78,0,0,1,.78.78h0a.78.78,0,0,1-.78.78A.79.79,0,0,1,27.64,21.2Z"></path><path id="Path-98" data-name="Path" d="M27.64,18.07a.79.79,0,0,1,.79-.78.78.78,0,0,1,.78.78h0a.78.78,0,0,1-.78.79A.79.79,0,0,1,27.64,18.07Z"></path><path id="Path-99" data-name="Path" d="M27.64,15a.79.79,0,0,1,.79-.79.78.78,0,0,1,.78.79h0a.78.78,0,0,1-.78.78A.79.79,0,0,1,27.64,15Z"></path><path id="Path-100" data-name="Path" d="M27.64,11.82a.79.79,0,0,1,.79-.78.78.78,0,0,1,.78.78h0a.78.78,0,0,1-.78.78A.79.79,0,0,1,27.64,11.82Z"></path><path id="Path-101" data-name="Path" d="M27.64,8.69a.79.79,0,0,1,.79-.78.78.78,0,0,1,.78.78h0a.78.78,0,0,1-.78.78A.79.79,0,0,1,27.64,8.69Z"></path><path id="Path-102" data-name="Path" d="M27.64,5.56a.79.79,0,0,1,.79-.78.78.78,0,0,1,.78.78h0a.78.78,0,0,1-.78.78A.79.79,0,0,1,27.64,5.56Z"></path><path id="Path-103" data-name="Path" d="M33.92,21.2a.78.78,0,0,1,1.56,0h0a.78.78,0,1,1-1.56,0Z"></path><path id="Path-104" data-name="Path" d="M33.92,18.07a.78.78,0,1,1,1.56,0h0a.78.78,0,1,1-1.56,0Z"></path><path id="Path-105" data-name="Path" d="M33.92,15a.78.78,0,1,1,1.56,0h0a.78.78,0,0,1-1.56,0Z"></path><path id="Path-106" data-name="Path" d="M33.92,11.82a.78.78,0,1,1,1.56,0h0a.78.78,0,1,1-1.56,0Z"></path><path id="Path-107" data-name="Path" d="M33.92,8.69a.78.78,0,0,1,1.56,0h0a.78.78,0,0,1-1.56,0Z"></path><path id="Path-108" data-name="Path" d="M33.92,5.56a.78.78,0,0,1,1.56,0h0a.78.78,0,1,1-1.56,0Z"></path></g></g><path class="cls-3" d="M23.51,77.57V74.72a.78.78,0,0,1,0-.34l5.72-12.57a.37.37,0,0,1,.39-.23h3.55c.2,0,.26.12.2.28L27.71,74.38v.08h3.5c.11,0,.17,0,.17-.16V70.18a.26.26,0,0,1,.28-.28H34.9a.26.26,0,0,1,.28.28V74.3c0,.11.06.16.17.16h1.26a.27.27,0,0,1,.28.28v2.83a.26.26,0,0,1-.28.28H35.35a.15.15,0,0,0-.17.17v2.32a.26.26,0,0,1-.28.28H31.66a.26.26,0,0,1-.28-.28V78a.15.15,0,0,0-.17-.17H23.79A.26.26,0,0,1,23.51,77.57Z"></path></svg> 