<?xml version="1.0" encoding="UTF-8"?> <svg xmlns="http://www.w3.org/2000/svg" id="Layer_1" data-name="Layer 1" viewBox="0 0 280.4 190.58"><defs><style>.cls-1{fill:#d8d8d8;stroke:#979797;}.cls-2{fill:none;stroke-linecap:square;}.cls-2,.cls-4{stroke:#000;}.cls-10,.cls-3{fill:#fff;}.cls-3,.cls-5{stroke:#0b0b0b;}.cls-4,.cls-5{fill:#3bff80;}.cls-6{isolation:isolate;}.cls-7{fill:#191919;}.cls-8,.cls-9{fill:#222;}.cls-8{fill-rule:evenodd;}</style></defs><g id="Marketing-Tools"><g id="Desktop-HD-Copy"><g id="Group-13"><g id="Group-5"><circle id="Oval" class="cls-1" cx="28.95" cy="147.41" r="21.5"></circle><line id="Line-3" class="cls-2" x1="266.95" y1="130.41" x2="278.95" y2="123.41"></line><line id="Line-3-2" data-name="Line-3" class="cls-2" x1="261.95" y1="126.41" x2="266.45" y2="119.91"></line><line id="Line-3-3" data-name="Line-3" class="cls-2" x1="266.95" y1="137.41" x2="275.2" y2="135.66"></line><rect id="Rectangle" class="cls-3" x="1.45" y="120.91" width="256" height="48" rx="3"></rect><circle id="Oval-2" data-name="Oval" class="cls-4" cx="30.45" cy="144.91" r="17"></circle><rect id="Rectangle-2" data-name="Rectangle" class="cls-5" x="153.45" y="125.91" width="99" height="38" rx="3"></rect><g id="CASHOUT" class="cls-6"><g class="cls-6"><path class="cls-7" d="M179.56,146.33a1.83,1.83,0,0,1,.15.73,4.67,4.67,0,0,1-2,3.15,4.91,4.91,0,0,1-2.84.9,4,4,0,0,1-1.93-.46,4.29,4.29,0,0,1-2-3.74c-.09-4.45,3.85-8.43,6.33-9.55a5.1,5.1,0,0,1,1.74-.38,2.22,2.22,0,0,1,1.43.47,3.39,3.39,0,0,1,1.32,2.37,2.84,2.84,0,0,1-.3,1.28,13.83,13.83,0,0,0-.84,2,.53.53,0,0,1-.86.33,1.64,1.64,0,0,1-.75-1.41,3,3,0,0,1,.13-.81,10.54,10.54,0,0,1,.38-1c.31-.77.57-1.47.31-1.76-.53-.57-3.66,1.35-5.48,4.29a9.39,9.39,0,0,0-1.39,4.69c0,1.89.84,2.73,1.63,2.73,1.21,0,2.77-1.41,4.05-3.85A.47.47,0,0,1,179.56,146.33Z"></path><path class="cls-7" d="M186.16,149a13.78,13.78,0,0,1,.06-1.48l-1.54.16a19.7,19.7,0,0,1-2.35.15c-.59,1-1.08,2.14-1.58,3-.27.46-.64.37-.8.06a1.62,1.62,0,0,1-.26-.81,4.14,4.14,0,0,1,.35-1.5,11.68,11.68,0,0,1,.53-1.16,2.22,2.22,0,0,1-.66-.73c-.18-.42-.09-.55.48-.46.31,0,.49.07.8.09,1.65-2.88,4.68-7.13,7-9.09.49-.39.82-.37,1.15.07a3.38,3.38,0,0,1,.5.9,2,2,0,0,1,.18.77,2.28,2.28,0,0,1-.18.9,53.42,53.42,0,0,0-1.54,6.18,1.7,1.7,0,0,1,1,1.15c.11.35,0,.44-.44.37l-.77-.13c-.13,1.1-.24,2.22-.29,3.3,0,.4-.28.48-.68.31S186.18,150.29,186.16,149Zm1.54-8.69a61.9,61.9,0,0,0-4.38,6c.44,0,.88-.09,1.3-.15.75-.09,1.23-.18,1.82-.2A35.3,35.3,0,0,1,187.7,140.33Z"></path><path class="cls-7" d="M188.16,147.74a3.3,3.3,0,0,1,.68-.06,2.7,2.7,0,0,1,1.72.55c.86.7,2.31,1.8,3.58,1.8a1.69,1.69,0,0,0,1.17-.35.61.61,0,0,0,0-.93c-1.59-1.23-4.64-2.42-4.64-4.66,0-3,3.43-5.61,5.41-6.45a3.89,3.89,0,0,1,1.69-.37,2,2,0,0,1,1.34.46,4.07,4.07,0,0,1,1.17,1.89,3,3,0,0,1-.66,2.27,24.42,24.42,0,0,0-1.47,2.38c-.2.35-.44.52-.86.08a1.6,1.6,0,0,1-.53-1.18,4.37,4.37,0,0,1,1-2.29c.55-.82,1.15-1.78.84-2-.82-.59-5.63,2.65-5.74,5.18-.07,1.45,2.94,2.7,3.8,3.32a1.42,1.42,0,0,1,.66,1.12,2.88,2.88,0,0,1-.86,1.76,3.93,3.93,0,0,1-3,1.12,7.7,7.7,0,0,1-5.47-2.9C187.7,148.09,187.85,147.85,188.16,147.74Z"></path><path class="cls-7" d="M207.26,145a1.52,1.52,0,0,1,.79,1c.06.29-.09.46-.51.4a6.5,6.5,0,0,0-1-.07c-.7,1.39-1.43,2.88-2.16,4.49a.4.4,0,0,1-.77.06,2,2,0,0,1-.37-1.12,4.47,4.47,0,0,1,.29-1.36,20,20,0,0,1,.79-1.87c-1.37.17-2.77.44-3.76.44-.64,1.32-1.28,2.73-1.92,4.14a.44.44,0,0,1-.81.1,1.82,1.82,0,0,1-.38-1.14c0-.64.22-1.3,1.15-3.48a1.68,1.68,0,0,1-.71-.66c-.22-.41-.08-.57.51-.52.33,0,.46.06.7.06a77.18,77.18,0,0,1,4.29-7.81c.36-.46.69-.39.93,0a1.87,1.87,0,0,1,.2.9,5.31,5.31,0,0,1-.73,2.45l-2.35,4.29c1.38-.2,2.5-.49,3.71-.6a66.6,66.6,0,0,1,4.18-7.32c.4-.51.73-.44,1,0a2,2,0,0,1,.2.84,5.27,5.27,0,0,1-.86,2.55C208.22,143.25,207.74,144.11,207.26,145Z"></path><path class="cls-7" d="M217.93,137.75a3.57,3.57,0,0,1,2,3.55,11.22,11.22,0,0,1-1.41,5.06c-1.5,2.72-3.72,5-6.25,5a4.25,4.25,0,0,1-1.47-.26,4.11,4.11,0,0,1-2.62-4.18c0-4.65,4.14-8.72,6.64-9.6a4,4,0,0,1,1.32-.22A2.45,2.45,0,0,1,217.93,137.75Zm-1.41,7.86a11.44,11.44,0,0,0,1.49-5.15c0-1.06-.22-1.76-.68-1.94-1-.35-3.56,1.1-5.56,4.16a9.67,9.67,0,0,0-1.61,5.06c0,1.54.55,2.4,1.39,2.4C212.91,150.14,215,148.47,216.52,145.61Z"></path><path class="cls-7" d="M220.41,151.17a2.74,2.74,0,0,1-1.78-2.72,5.75,5.75,0,0,1,.15-1.32c.6-2.4,3.08-6.52,5.06-9.55.31-.44.66-.38.93,0a1.86,1.86,0,0,1,.28,1,4.72,4.72,0,0,1-.68,2.16c-1.05,1.95-3.17,5.23-3.76,7.52a5,5,0,0,0-.15,1c0,.73.33,1,.81,1,1.12,0,2.57-1.74,3.87-4.29,1.19-2.31,3.59-6.6,4.78-8.49.28-.47.63-.38.9,0a2,2,0,0,1,.22.9,4.5,4.5,0,0,1-.49,1.89,72.61,72.61,0,0,1-4.9,8.69,5,5,0,0,1-4,2.36A3.21,3.21,0,0,1,220.41,151.17Z"></path><path class="cls-7" d="M229.41,148.91a50.28,50.28,0,0,1,4.71-9.29,6.34,6.34,0,0,1-1,.09c-1.43,0-2.37-.51-2.62-1.36-.06-.29.11-.42.42-.42,1.91,0,5.44-.6,6.71-.6,1,0,1.94.27,2.27,1.19.11.27,0,.53-.49.49a14,14,0,0,0-3.41.28c0,.8-.61,2.07-1.56,3.72-1.14,2.07-2.73,5-4,7.88-.18.39-.44.42-.75.11a1.49,1.49,0,0,1-.46-1.21A3.13,3.13,0,0,1,229.41,148.91Z"></path></g></g><polygon id="Path" class="cls-8" points="253.7 185.56 250.65 186.91 245.73 175.56 239.45 181.64 239.46 156.91 257.45 173.65 248.78 174.21 253.7 185.56"></polygon><g id="_2_576-PTS" data-name="2,576-PTS" class="cls-6"><g class="cls-6"><path class="cls-7" d="M56.52,148.91v-2.1c2-1.49,4.08-3.27,4.08-4.57,0-.65-.56-1.09-1.52-1.09a6.54,6.54,0,0,0-2.51.6l-.41-1.8a6.37,6.37,0,0,1,3.13-.83c2.18,0,3.77.82,3.77,2.66s-2,3.58-3.85,5v0h4.07v2.1Z"></path><path class="cls-7" d="M63.84,150.59l.6-4h2.39l-1.31,4Z"></path><path class="cls-7" d="M67.83,144.81l.47-5.49h6l-.18,2.09H70.31L70.14,143c2.52.12,4.31.87,4.31,2.87,0,1.74-1.38,3.19-4,3.19a6.38,6.38,0,0,1-2.83-.64l.12-2a5.78,5.78,0,0,0,2.63.65c1.32,0,1.7-.47,1.7-.93C72,145.28,70.54,145,67.83,144.81Z"></path><path class="cls-7" d="M76.06,148.91l2.9-7.34h-4.1l.28-2.24H81.7l.12.56-3.3,9Z"></path><path class="cls-7" d="M89.2,141.43c-.32,0-.63,0-.89,0-2.08,0-3.1.86-3.53,1.92a4.54,4.54,0,0,1,2.07-.53,2.82,2.82,0,0,1,3,2.89c0,2.07-1.7,3.43-4,3.43-2.45,0-3.89-1.58-3.89-4.1a5.82,5.82,0,0,1,5.89-5.88c.24,0,.46,0,.55,0Zm-4.71,3.48c0,1.31.52,2.27,1.54,2.27a1.31,1.31,0,0,0,1.33-1.35c0-.8-.67-1.19-1.5-1.19A4.12,4.12,0,0,0,84.49,144.91Z"></path><path class="cls-7" d="M94,139.32h7.42a3.23,3.23,0,0,1,3.58,3.27,3.41,3.41,0,0,1-3.58,3.38h-5v2.94H94Zm2.4,2.16v2.45h4.68c1.17,0,1.43-.67,1.43-1.28s-.26-1.17-1.43-1.17Z"></path><path class="cls-7" d="M111.92,141.48v7.43h-2.39v-7.43h-4.44v-2.16h11.39v2.16Z"></path><path class="cls-7" d="M116.8,142.24c0-2,2.22-3.12,5.26-3.12a12.57,12.57,0,0,1,4.86.75l-.45,2a11.31,11.31,0,0,0-4.49-.73c-2,0-2.81.28-2.81.79,0,1.76,8,.07,8,3.91,0,1.71-1.7,3.22-5.34,3.22a14.58,14.58,0,0,1-4.88-.61l.1-2.19a12.46,12.46,0,0,0,4.85.75c2.09,0,2.88-.37,2.88-.81C124.82,144.59,116.8,146.21,116.8,142.24Z"></path></g></g><path id="path64" class="cls-7" d="M34.62,152.91H27.79V140.83h3.43v9.94h3.3c2.28,0,3.23-1.55,3.23-5.54s-1.08-5.17-3.39-5.17H26.83v12.85h-3.4V140.06h-5v-2.15h17c4.1,0,6,2.08,6,7.29,0,6.87-2.9,7.71-6.83,7.71"></path></g></g></g></g><g id="Marketing-Tools-2" data-name="Marketing-Tools"><g id="Desktop-HD-Copy-2" data-name="Desktop-HD-Copy"><g id="Group-3"><circle id="Oval-3" data-name="Oval" class="cls-9" cx="29.95" cy="79.98" r="21"></circle></g></g></g><g id="doot-arrow"><g id="next"><g id="Group"><path id="Path-2" data-name="Path" class="cls-10" d="M30.73,47.34v0a.78.78,0,1,0-.78.79.78.78,0,0,0,.78-.79v0Z"></path><path id="Path-3" data-name="Path" class="cls-10" d="M30.73,44.21h0A.78.78,0,1,0,30,45a.78.78,0,0,0,.78-.78Z"></path><path id="Path-4" data-name="Path" class="cls-10" d="M30.73,41.08h0a.78.78,0,1,0-.78.78.78.78,0,0,0,.78-.78Z"></path><path id="Path-5" data-name="Path" class="cls-10" d="M30.73,38h0a.78.78,0,1,0-.78.78.78.78,0,0,0,.78-.78Z"></path><path id="Path-6" data-name="Path" class="cls-10" d="M30.73,34.83v0a.78.78,0,1,0-.78.78.78.78,0,0,0,.78-.78v0Z"></path><path id="Path-7" data-name="Path" class="cls-10" d="M30.73,31.7v0a.78.78,0,1,0-.78.78.78.78,0,0,0,.78-.78v0Z"></path><path id="Path-8" data-name="Path" class="cls-10" d="M30.73,28.57v0a.78.78,0,1,0-.78.79.78.78,0,0,0,.78-.79v0Z"></path><path id="Path-9" data-name="Path" class="cls-10" d="M33.87,44.21h0a.79.79,0,1,0-.78.78.78.78,0,0,0,.78-.78Z"></path><path id="Path-10" data-name="Path" class="cls-10" d="M33.87,41.08h0a.79.79,0,1,0-.78.78.78.78,0,0,0,.78-.78Z"></path><path id="Path-11" data-name="Path" class="cls-10" d="M33.87,38h0a.79.79,0,1,0-.78.78.78.78,0,0,0,.78-.78Z"></path><path id="Path-12" data-name="Path" class="cls-10" d="M33.87,34.83v0a.79.79,0,1,0-.78.78.78.78,0,0,0,.78-.78Z"></path><path id="Path-13" data-name="Path" class="cls-10" d="M33.87,31.7v0a.79.79,0,1,0-.78.78.78.78,0,0,0,.78-.78Z"></path><path id="Path-14" data-name="Path" class="cls-10" d="M37,41.08h0a.79.79,0,0,0-.79-.79.79.79,0,1,0,.79.79Z"></path><path id="Path-15" data-name="Path" class="cls-10" d="M37,38h0a.79.79,0,0,0-.79-.78.78.78,0,0,0,0,1.56.79.79,0,0,0,.79-.78Z"></path><path id="Path-16" data-name="Path" class="cls-10" d="M37,34.83v0a.79.79,0,0,0-.79-.78.78.78,0,0,0,0,1.56.79.79,0,0,0,.79-.78Z"></path><path id="Path-17" data-name="Path" class="cls-10" d="M37,31.7v0a.79.79,0,0,0-.79-.78.78.78,0,0,0,0,1.56.79.79,0,0,0,.79-.78Z"></path><path id="Path-18" data-name="Path" class="cls-10" d="M40.14,38h0a.79.79,0,1,0-.78.78.78.78,0,0,0,.78-.78Z"></path><path id="Path-19" data-name="Path" class="cls-10" d="M40.14,34.83v0a.79.79,0,1,0-.78.78.78.78,0,0,0,.78-.78v0Z"></path><path id="Path-20" data-name="Path" class="cls-10" d="M40.14,31.7v0a.79.79,0,1,0-.78.78.78.78,0,0,0,.78-.78v0Z"></path><path id="Path-21" data-name="Path" class="cls-10" d="M43.28,34.83v0a.79.79,0,1,0-.79.78.78.78,0,0,0,.79-.78Z"></path><path id="Path-22" data-name="Path" class="cls-10" d="M43.28,31.7v0a.79.79,0,1,0-.79.78.78.78,0,0,0,.79-.78Z"></path><path id="Path-23" data-name="Path" class="cls-10" d="M46.41,31.7v0a.78.78,0,1,0-.78.78.78.78,0,0,0,.78-.78Z"></path><path id="Path-24" data-name="Path" class="cls-10" d="M27.6,44.21h0a.79.79,0,1,0-.79.78.79.79,0,0,0,.79-.78Z"></path><path id="Path-25" data-name="Path" class="cls-10" d="M27.6,41.08h0a.79.79,0,1,0-.79.78.79.79,0,0,0,.79-.78Z"></path><path id="Path-26" data-name="Path" class="cls-10" d="M27.6,38h0a.79.79,0,1,0-.79.78.78.78,0,0,0,.79-.78Z"></path><path id="Path-27" data-name="Path" class="cls-10" d="M27.6,34.83v0a.79.79,0,1,0-.79.78.78.78,0,0,0,.79-.78Z"></path><path id="Path-28" data-name="Path" class="cls-10" d="M27.6,31.7v0a.79.79,0,1,0-.79.78.78.78,0,0,0,.79-.78Z"></path><path id="Path-29" data-name="Path" class="cls-10" d="M24.46,41.08h0a.78.78,0,0,0-.78-.79.79.79,0,1,0,0,1.57.78.78,0,0,0,.78-.78Z"></path><path id="Path-30" data-name="Path" class="cls-10" d="M24.46,38h0a.78.78,0,0,0-.78-.78.78.78,0,1,0,0,1.56.78.78,0,0,0,.78-.78Z"></path><path id="Path-31" data-name="Path" class="cls-10" d="M24.46,34.83v0a.78.78,0,0,0-.78-.78.78.78,0,1,0,0,1.56.78.78,0,0,0,.78-.78Z"></path><path id="Path-32" data-name="Path" class="cls-10" d="M24.46,31.7v0a.78.78,0,0,0-.78-.78.78.78,0,1,0,0,1.56.78.78,0,0,0,.78-.78Z"></path><path id="Path-33" data-name="Path" class="cls-10" d="M21.33,38h0a.79.79,0,1,0-.79.78.78.78,0,0,0,.79-.78Z"></path><path id="Path-34" data-name="Path" class="cls-10" d="M21.33,34.83v0a.79.79,0,1,0-.79.78.78.78,0,0,0,.79-.78Z"></path><path id="Path-35" data-name="Path" class="cls-10" d="M21.33,31.7v0a.79.79,0,1,0-.79.78.78.78,0,0,0,.79-.78Z"></path><path id="Path-36" data-name="Path" class="cls-10" d="M18.19,34.83v0a.79.79,0,1,0-.78.78.78.78,0,0,0,.78-.78Z"></path><path id="Path-37" data-name="Path" class="cls-10" d="M18.19,31.7v0a.79.79,0,1,0-.78.78.78.78,0,0,0,.78-.78Z"></path><path id="Path-38" data-name="Path" class="cls-10" d="M15.05,31.7v0a.78.78,0,1,0-.78.78.78.78,0,0,0,.78-.78Z"></path><path id="Path-39" data-name="Path" class="cls-10" d="M30.73,25.44h0a.78.78,0,1,0-.78.78.78.78,0,0,0,.78-.78Z"></path><path id="Path-40" data-name="Path" class="cls-10" d="M30.73,22.31h0a.78.78,0,1,0-1.56,0,.78.78,0,0,0,1.56,0Z"></path><path id="Path-41" data-name="Path" class="cls-10" d="M30.73,19.18h0A.78.78,0,1,0,30,20a.78.78,0,0,0,.78-.78Z"></path><path id="Path-42" data-name="Path" class="cls-10" d="M30.73,16.06v0a.78.78,0,1,0-.78.78.78.78,0,0,0,.78-.78v0Z"></path><path id="Path-43" data-name="Path" class="cls-10" d="M30.73,12.93h0a.78.78,0,1,0-.78.78.78.78,0,0,0,.78-.78Z"></path><path id="Path-44" data-name="Path" class="cls-10" d="M27.6,28.57v0a.79.79,0,1,0-.79.79.78.78,0,0,0,.79-.79Z"></path><path id="Path-45" data-name="Path" class="cls-10" d="M27.6,25.44h0a.79.79,0,1,0-.79.78.79.79,0,0,0,.79-.78Z"></path><path id="Path-46" data-name="Path" class="cls-10" d="M27.6,22.31h0a.79.79,0,1,0-1.57,0,.79.79,0,0,0,1.57,0Z"></path><path id="Path-47" data-name="Path" class="cls-10" d="M27.6,19.18h0a.79.79,0,1,0-.79.78.78.78,0,0,0,.79-.78Z"></path><path id="Path-48" data-name="Path" class="cls-10" d="M27.6,16.06v0a.79.79,0,1,0-.79.78A.78.78,0,0,0,27.6,16Z"></path><path id="Path-49" data-name="Path" class="cls-10" d="M27.6,12.93h0a.79.79,0,1,0-.79.78.79.79,0,0,0,.79-.78Z"></path><path id="Path-50" data-name="Path" class="cls-10" d="M33.87,28.57v0a.79.79,0,1,0-.78.79.78.78,0,0,0,.78-.79Z"></path><path id="Path-51" data-name="Path" class="cls-10" d="M33.87,25.44h0a.79.79,0,1,0-.78.78A.78.78,0,0,0,33.87,25.43Z"></path><path id="Path-52" data-name="Path" class="cls-10" d="M33.87,22.31h0a.79.79,0,0,0-.78-.79.8.8,0,0,0-.79.79.79.79,0,0,0,1.57,0Z"></path><path id="Path-53" data-name="Path" class="cls-10" d="M33.87,19.18h0a.79.79,0,1,0-.78.78A.78.78,0,0,0,33.87,19.17Z"></path><path id="Path-54" data-name="Path" class="cls-10" d="M33.87,16.06v0a.79.79,0,1,0-.78.78A.78.78,0,0,0,33.87,16Z"></path><path id="Path-55" data-name="Path" class="cls-10" d="M33.87,12.93h0a.79.79,0,1,0-.78.78A.78.78,0,0,0,33.87,12.92Z"></path></g><path id="Path-56" data-name="Path" class="cls-10" d="M29.17,47.34a.78.78,0,0,1,1.56,0h0a.78.78,0,1,1-1.56,0Z"></path><path id="Path-57" data-name="Path" class="cls-10" d="M29.17,44.21a.78.78,0,1,1,1.56,0h0a.78.78,0,0,1-1.56,0Z"></path><path id="Path-58" data-name="Path" class="cls-10" d="M29.17,41.08a.78.78,0,1,1,1.56,0h0a.78.78,0,0,1-1.56,0Z"></path><path id="Path-59" data-name="Path" class="cls-10" d="M29.17,38a.78.78,0,1,1,1.56,0h0a.78.78,0,1,1-1.56,0Z"></path><path id="Path-60" data-name="Path" class="cls-10" d="M29.17,34.83a.78.78,0,1,1,1.56,0h0a.78.78,0,1,1-1.56,0Z"></path><path id="Path-61" data-name="Path" class="cls-10" d="M29.17,31.7a.78.78,0,1,1,1.56,0h0a.78.78,0,0,1-1.56,0Z"></path><path id="Path-62" data-name="Path" class="cls-10" d="M29.17,28.57a.78.78,0,1,1,1.56,0h0a.78.78,0,1,1-1.56,0Z"></path><path id="Path-63" data-name="Path" class="cls-10" d="M32.3,44.21a.79.79,0,0,1,1.57,0h0a.79.79,0,0,1-1.57,0Z"></path><path id="Path-64" data-name="Path" class="cls-10" d="M32.3,41.08a.79.79,0,0,1,1.57,0h0a.79.79,0,0,1-1.57,0Z"></path><path id="Path-65" data-name="Path" class="cls-10" d="M32.3,38a.79.79,0,0,1,1.57,0h0a.79.79,0,1,1-1.57,0Z"></path><path id="Path-66" data-name="Path" class="cls-10" d="M32.3,34.83a.79.79,0,1,1,1.57,0h0a.79.79,0,0,1-1.57,0Z"></path><path id="Path-67" data-name="Path" class="cls-10" d="M32.3,31.7a.79.79,0,0,1,1.57,0h0a.79.79,0,0,1-1.57,0Z"></path><path id="Path-68" data-name="Path" class="cls-10" d="M35.44,41.08a.78.78,0,0,1,.78-.78.79.79,0,0,1,.79.78h0a.79.79,0,0,1-.79.78A.78.78,0,0,1,35.44,41.08Z"></path><path id="Path-69" data-name="Path" class="cls-10" d="M35.44,38a.78.78,0,0,1,.78-.78A.79.79,0,0,1,37,38h0a.79.79,0,0,1-.79.79A.78.78,0,0,1,35.44,38Z"></path><path id="Path-70" data-name="Path" class="cls-10" d="M35.44,34.83a.78.78,0,0,1,.78-.79.79.79,0,0,1,.79.79h0a.79.79,0,0,1-.79.78A.78.78,0,0,1,35.44,34.83Z"></path><path id="Path-71" data-name="Path" class="cls-10" d="M35.44,31.7a.78.78,0,0,1,.78-.78.79.79,0,0,1,.79.78h0a.79.79,0,0,1-.79.78A.78.78,0,0,1,35.44,31.7Z"></path><path id="Path-72" data-name="Path" class="cls-10" d="M38.57,38a.79.79,0,0,1,1.57,0h0a.79.79,0,1,1-1.57,0Z"></path><path id="Path-73" data-name="Path" class="cls-10" d="M38.57,34.83a.79.79,0,1,1,1.57,0h0a.79.79,0,0,1-1.57,0Z"></path><path id="Path-74" data-name="Path" class="cls-10" d="M38.57,31.7a.79.79,0,0,1,1.57,0h0a.79.79,0,0,1-1.57,0Z"></path><path id="Path-75" data-name="Path" class="cls-10" d="M41.71,34.83a.79.79,0,1,1,1.57,0h0a.79.79,0,0,1-1.57,0Z"></path><path id="Path-76" data-name="Path" class="cls-10" d="M41.71,31.7a.79.79,0,0,1,1.57,0h0a.79.79,0,0,1-1.57,0Z"></path><path id="Path-77" data-name="Path" class="cls-10" d="M44.85,31.7a.78.78,0,1,1,1.56,0h0a.78.78,0,1,1-1.56,0Z"></path><path id="Path-78" data-name="Path" class="cls-10" d="M26,44.21a.79.79,0,0,1,1.57,0h0a.79.79,0,0,1-1.57,0Z"></path><path id="Path-79" data-name="Path" class="cls-10" d="M26,41.08a.79.79,0,0,1,1.57,0h0a.79.79,0,0,1-1.57,0Z"></path><path id="Path-80" data-name="Path" class="cls-10" d="M26,38a.79.79,0,0,1,1.57,0h0A.79.79,0,1,1,26,38Z"></path><path id="Path-81" data-name="Path" class="cls-10" d="M26,34.83a.79.79,0,1,1,1.57,0h0a.79.79,0,0,1-1.57,0Z"></path><path id="Path-82" data-name="Path" class="cls-10" d="M26,31.7a.79.79,0,0,1,1.57,0h0a.79.79,0,0,1-1.57,0Z"></path><path id="Path-83" data-name="Path" class="cls-10" d="M22.89,41.08a.79.79,0,0,1,.79-.78.78.78,0,0,1,.78.78h0a.78.78,0,0,1-.78.78A.79.79,0,0,1,22.89,41.08Z"></path><path id="Path-84" data-name="Path" class="cls-10" d="M22.89,38a.79.79,0,0,1,.79-.78.78.78,0,0,1,.78.78h0a.78.78,0,0,1-.78.79A.79.79,0,0,1,22.89,38Z"></path><path id="Path-85" data-name="Path" class="cls-10" d="M22.89,34.83a.79.79,0,0,1,.79-.79.78.78,0,0,1,.78.79h0a.78.78,0,0,1-.78.78A.79.79,0,0,1,22.89,34.83Z"></path><path id="Path-86" data-name="Path" class="cls-10" d="M22.89,31.7a.79.79,0,0,1,.79-.78.78.78,0,0,1,.78.78h0a.78.78,0,0,1-.78.78A.79.79,0,0,1,22.89,31.7Z"></path><path id="Path-87" data-name="Path" class="cls-10" d="M19.76,38a.79.79,0,0,1,1.57,0h0a.79.79,0,1,1-1.57,0Z"></path><path id="Path-88" data-name="Path" class="cls-10" d="M19.76,34.83a.79.79,0,1,1,1.57,0h0a.79.79,0,0,1-1.57,0Z"></path><path id="Path-89" data-name="Path" class="cls-10" d="M19.76,31.7a.79.79,0,0,1,1.57,0h0a.79.79,0,0,1-1.57,0Z"></path><path id="Path-90" data-name="Path" class="cls-10" d="M16.62,34.83a.79.79,0,1,1,1.57,0h0a.79.79,0,0,1-1.57,0Z"></path><path id="Path-91" data-name="Path" class="cls-10" d="M16.62,31.7a.79.79,0,0,1,1.57,0h0a.79.79,0,0,1-1.57,0Z"></path><path id="Path-92" data-name="Path" class="cls-10" d="M13.49,31.7a.78.78,0,1,1,1.56,0h0a.78.78,0,1,1-1.56,0Z"></path><path id="Path-93" data-name="Path" class="cls-10" d="M29.17,25.44a.78.78,0,1,1,1.56,0h0a.78.78,0,0,1-1.56,0Z"></path><path id="Path-94" data-name="Path" class="cls-10" d="M29.17,22.31a.78.78,0,1,1,1.56,0h0a.78.78,0,1,1-1.56,0Z"></path><path id="Path-95" data-name="Path" class="cls-10" d="M29.17,19.18a.78.78,0,1,1,1.56,0h0a.78.78,0,1,1-1.56,0Z"></path><path id="Path-96" data-name="Path" class="cls-10" d="M29.17,16.06a.78.78,0,1,1,1.56,0h0a.78.78,0,1,1-1.56,0Z"></path><path id="Path-97" data-name="Path" class="cls-10" d="M29.17,12.93a.78.78,0,0,1,1.56,0h0a.78.78,0,1,1-1.56,0Z"></path><path id="Path-98" data-name="Path" class="cls-10" d="M26,28.57a.79.79,0,0,1,1.57,0h0a.79.79,0,0,1-1.57,0Z"></path><path id="Path-99" data-name="Path" class="cls-10" d="M26,25.44a.79.79,0,0,1,1.57,0h0a.79.79,0,0,1-1.57,0Z"></path><path id="Path-100" data-name="Path" class="cls-10" d="M26,22.31a.79.79,0,0,1,1.57,0h0a.79.79,0,0,1-1.57,0Z"></path><path id="Path-101" data-name="Path" class="cls-10" d="M26,19.18a.79.79,0,0,1,1.57,0h0a.79.79,0,1,1-1.57,0Z"></path><path id="Path-102" data-name="Path" class="cls-10" d="M26,16.06a.79.79,0,1,1,1.57,0h0a.79.79,0,0,1-1.57,0Z"></path><path id="Path-103" data-name="Path" class="cls-10" d="M26,12.93a.79.79,0,0,1,1.57,0h0a.79.79,0,0,1-1.57,0Z"></path><path id="Path-104" data-name="Path" class="cls-10" d="M32.3,28.57a.79.79,0,0,1,1.57,0h0a.79.79,0,0,1-1.57,0Z"></path><path id="Path-105" data-name="Path" class="cls-10" d="M32.3,25.44a.79.79,0,0,1,1.57,0h0a.79.79,0,0,1-1.57,0Z"></path><path id="Path-106" data-name="Path" class="cls-10" d="M32.3,22.31a.79.79,0,0,1,1.57,0h0a.79.79,0,0,1-1.57,0Z"></path><path id="Path-107" data-name="Path" class="cls-10" d="M32.3,19.18a.79.79,0,0,1,1.57,0h0a.79.79,0,1,1-1.57,0Z"></path><path id="Path-108" data-name="Path" class="cls-10" d="M32.3,16.06a.79.79,0,1,1,1.57,0h0a.79.79,0,0,1-1.57,0Z"></path><path id="Path-109" data-name="Path" class="cls-10" d="M32.3,12.93a.79.79,0,0,1,1.57,0h0a.79.79,0,0,1-1.57,0Z"></path></g></g><path class="cls-10" d="M24,85.26a.56.56,0,0,1,.14-.4l6.69-8A3.88,3.88,0,0,0,32,74.28,2,2,0,0,0,29.9,72.1c-1.29,0-2.07.78-2.24,2.24,0,.17-.11.25-.31.22l-3.08-.5a.27.27,0,0,1-.22-.34c.2-2.63,2.32-4.93,6-4.93s5.85,2.36,5.85,5.44A6.78,6.78,0,0,1,34,78.85l-5,5.9v.06h6.66a.26.26,0,0,1,.28.28v2.77a.26.26,0,0,1-.28.28H24.3a.26.26,0,0,1-.28-.28Z"></path></svg> 