<?xml version="1.0" encoding="UTF-8"?> <svg xmlns="http://www.w3.org/2000/svg" id="Layer_1" data-name="Layer 1" viewBox="0 0 280.4 136.12"><defs><style>.cls-1,.cls-8{fill:#fff;}.cls-1,.cls-2{stroke:#0b0b0b;}.cls-2{fill:#ffd03b;}.cls-3,.cls-7{fill:#222;}.cls-3{fill-rule:evenodd;}.cls-4{isolation:isolate;}.cls-5{fill:#191919;}.cls-6{fill:none;stroke:#000;stroke-linecap:square;}</style></defs><g id="Marketing-Tools"><g id="Desktop-HD-Copy"><g id="Group-12"><rect id="Rectangle" class="cls-1" x="5.16" y="70.06" width="256" height="48" rx="3"></rect><rect id="Rectangle-2" data-name="Rectangle" class="cls-2" x="175.16" y="75.06" width="81" height="38" rx="3"></rect><polygon id="Path" class="cls-3" points="252.41 131.71 249.35 133.06 244.44 121.71 238.16 127.79 238.17 103.06 256.16 119.8 247.49 120.36 252.41 131.71"></polygon><g id="APPLY" class="cls-4"><g class="cls-4"><path class="cls-5" d="M201.65,98.17a11.82,11.82,0,0,1,.07-1.48l-1.54.16a19.86,19.86,0,0,1-2.36.15c-.59,1-1.08,2.14-1.58,3-.27.46-.64.37-.8.06a1.62,1.62,0,0,1-.26-.81,4.14,4.14,0,0,1,.35-1.5,11.68,11.68,0,0,1,.53-1.16,2.22,2.22,0,0,1-.66-.73c-.17-.42-.09-.55.49-.46.3,0,.48.07.79.09,1.65-2.89,4.68-7.13,7-9.09.49-.4.82-.37,1.15.07a3.24,3.24,0,0,1,.5.9,1.93,1.93,0,0,1,.18.77,2.28,2.28,0,0,1-.18.9,52.9,52.9,0,0,0-1.54,6.18,1.7,1.7,0,0,1,1,1.15c.11.35,0,.44-.44.37l-.77-.13c-.13,1.1-.24,2.22-.28,3.3,0,.4-.29.48-.69.31S201.67,99.44,201.65,98.17Zm1.54-8.69a61.9,61.9,0,0,0-4.38,6c.44,0,.88-.09,1.3-.15.75-.09,1.23-.18,1.83-.2A34.23,34.23,0,0,1,203.19,89.48Z"></path><path class="cls-5" d="M204.16,97.88A45.55,45.55,0,0,1,208.58,89a1.72,1.72,0,0,1-1.28-1c-.15-.33-.06-.53.42-.57a10.61,10.61,0,0,0,2.49-.64,8,8,0,0,1,2.4-.53,2.49,2.49,0,0,1,2.81,1.87,4,4,0,0,1-.68,3.81,9.17,9.17,0,0,1-6.18,3.89,2.94,2.94,0,0,1-1.48-.09c-.59,1.15-1.3,2.56-2,4.25-.18.4-.35.4-.66.09A1.65,1.65,0,0,1,204,99,4.29,4.29,0,0,1,204.16,97.88Zm3.78-3.72c4.38-1,6.51-4.2,6.12-5.67a.73.73,0,0,0-.71-.44,7.57,7.57,0,0,0-2.06.55c-.36.13-.53.19-.84.28a6.17,6.17,0,0,1-.84,2.36Z"></path><path class="cls-5" d="M213,97.88A45.55,45.55,0,0,1,217.42,89a1.7,1.7,0,0,1-1.27-1c-.16-.33-.07-.53.42-.57a10.53,10.53,0,0,0,2.48-.64,8,8,0,0,1,2.4-.53,2.5,2.5,0,0,1,2.82,1.87,4,4,0,0,1-.69,3.81,9.17,9.17,0,0,1-6.18,3.89,2.89,2.89,0,0,1-1.47-.09c-.6,1.15-1.3,2.56-2,4.25-.17.4-.35.4-.66.09a1.65,1.65,0,0,1-.41-1.17A4.24,4.24,0,0,1,213,97.88Zm3.78-3.72c4.38-1,6.52-4.2,6.12-5.67a.72.72,0,0,0-.7-.44,7.62,7.62,0,0,0-2.07.55c-.35.13-.53.19-.84.28a6.3,6.3,0,0,1-.83,2.36C218.26,91.57,218,92,216.78,94.16Z"></path><path class="cls-5" d="M223,98.48a19.27,19.27,0,0,1,2.92-.49A1.91,1.91,0,0,1,228,99.05c.11.26.06.48-.44.48a24.52,24.52,0,0,0-4.65.86c-.63.15-.92.15-1.23-.29a5.23,5.23,0,0,1-.59-.94,1.67,1.67,0,0,1,.06-1.34,80.64,80.64,0,0,1,6-11.14c.36-.48.62-.33.84.07a2.1,2.1,0,0,1,.2.9,4.86,4.86,0,0,1-.75,2.29C225.61,93.44,224.18,95.9,223,98.48Z"></path><path class="cls-5" d="M229.32,100.19c-.15.42-.37.53-.7.24a1.86,1.86,0,0,1-.53-1.34,3.93,3.93,0,0,1,.16-1.08,26.94,26.94,0,0,1,1.34-3.12,52,52,0,0,1,.61-8c.11-.53.33-.57.69-.37a3,3,0,0,1,1,2.66c0,1.21-.22,2.11-.31,3.69,2-2.13,4.67-4.73,6.36-6.27.4-.37.7-.3.79,0,.16.66,0,1.78-1.32,3.08-2.53,2.4-4.11,3.89-6.09,6A39.06,39.06,0,0,0,229.32,100.19Z"></path></g></g><g id="_3lK6---56R0---4LK1" data-name="3lK6---56R0---4LK1" class="cls-4"><g class="cls-4"><path class="cls-5" d="M25.8,93.16v0a2.14,2.14,0,0,1,1.59,2.09c0,1.94-1.95,3-4.16,3a5.57,5.57,0,0,1-2.59-.58l.22-2a6.54,6.54,0,0,0,2.54.61c.85,0,1.47-.37,1.47-1s-.87-1.18-2.35-1.1l-.27-1.51c1.65-.32,2.53-.68,2.53-1.37s-.59-.92-1.36-.93a5.47,5.47,0,0,0-2.36.62l-.27-1.86a5.53,5.53,0,0,1,3.06-.85c1.84,0,3.56.88,3.56,2.57A2.5,2.5,0,0,1,25.8,93.16Z"></path><path class="cls-5" d="M28.71,88.49h2.4v7.32h7.43v2.28H28.71Z"></path><path class="cls-5" d="M44.19,93.13l6.69,5H47.24l-4.93-3.66h-.45v3.66H39.47v-9.6h2.39v3.66h.44l5.12-3.66H50.9Z"></path><path class="cls-5" d="M58.25,90.6l-.88,0c-2.08,0-3.1.86-3.53,1.92A4.38,4.38,0,0,1,55.9,92a2.82,2.82,0,0,1,3,2.89c0,2.06-1.71,3.43-4,3.43-2.45,0-3.89-1.58-3.89-4.1A5.82,5.82,0,0,1,57,88.3l.55,0Zm-4.7,3.48c0,1.32.52,2.28,1.54,2.28A1.31,1.31,0,0,0,56.42,95c0-.81-.67-1.19-1.5-1.19A4.37,4.37,0,0,0,53.55,94.08Z"></path><path class="cls-5" d="M62.84,94.19v-1.8h4.62v1.8Z"></path><path class="cls-5" d="M71.76,94l.47-5.5h6L78,90.59H74.24l-.17,1.62c2.52.12,4.31.86,4.31,2.87,0,1.74-1.38,3.19-4,3.19a6.41,6.41,0,0,1-2.83-.64l.12-2a5.81,5.81,0,0,0,2.63.65c1.32,0,1.7-.47,1.7-.94C76,94.45,74.47,94.14,71.76,94Z"></path><path class="cls-5" d="M86.23,90.6l-.89,0c-2.08,0-3.1.86-3.53,1.92A4.42,4.42,0,0,1,83.88,92a2.82,2.82,0,0,1,3,2.89c0,2.06-1.7,3.43-4,3.43-2.45,0-3.89-1.58-3.89-4.1a5.82,5.82,0,0,1,5.89-5.88l.55,0Zm-4.7,3.48c0,1.32.51,2.28,1.53,2.28A1.31,1.31,0,0,0,84.39,95c0-.81-.67-1.19-1.5-1.19A4.26,4.26,0,0,0,81.53,94.08Z"></path><path class="cls-5" d="M88,88.49h7.41a3.23,3.23,0,0,1,3.57,3.28,3.27,3.27,0,0,1-1.75,2.94l1.72,3.38h-2.7l-1.33-2.94H90.36v2.94H88Zm2.4,2.16v2.46H95c1.18,0,1.44-.67,1.44-1.28S96.2,90.65,95,90.65Z"></path><path class="cls-5" d="M103.42,88.3c2.77,0,4,2.1,4,5s-1.19,5-4,5-4-2.1-4-5S100.65,88.3,103.42,88.3Zm0,7.89c1.25,0,1.54-1.48,1.54-3,0-1.2-.16-2.8-1.52-2.8s-1.6,1.48-1.6,2.89S102.15,96.19,103.44,96.19Z"></path><path class="cls-5" d="M111.49,94.19v-1.8h4.62v1.8Z"></path><path class="cls-5" d="M126.77,96.49v1.6H124.4v-1.6H120v-2.1l2.52-5.9h2.62l-2.62,5.9h1.87v-2h2.37v2h.83v2.1Z"></path><path class="cls-5" d="M128.61,88.49H131v7.32h7.43v2.28h-9.83Z"></path><path class="cls-5" d="M144.09,93.13l6.69,5h-3.64l-4.93-3.66h-.45v3.66h-2.4v-9.6h2.4v3.66h.44l5.12-3.66h3.47Z"></path><path class="cls-5" d="M151.19,98.09V96h2.12V91l-2.12.3V89.09l4.12-.79h.4V96h2v2.1Z"></path></g></g><line id="Line-3" class="cls-6" x1="266.66" y1="68.56" x2="278.66" y2="61.56"></line><line id="Line-3-2" data-name="Line-3" class="cls-6" x1="261.66" y1="64.56" x2="266.16" y2="58.06"></line><line id="Line-3-3" data-name="Line-3" class="cls-6" x1="266.66" y1="75.56" x2="274.91" y2="73.81"></line></g></g></g><circle id="Oval" class="cls-7" cx="27.41" cy="25.29" r="21"></circle><path class="cls-8" d="M20.93,31.3a.55.55,0,0,1,.14-.4L27.76,23a3.88,3.88,0,0,0,1.12-2.63,2,2,0,0,0-2.07-2.18c-1.29,0-2.07.78-2.24,2.24,0,.16-.11.25-.31.22l-3.08-.5a.27.27,0,0,1-.22-.34c.19-2.63,2.32-4.93,6-4.93s5.85,2.35,5.85,5.43a6.76,6.76,0,0,1-1.93,4.62l-5,5.91v.06h6.66a.26.26,0,0,1,.28.28V33.9a.26.26,0,0,1-.28.28H21.21a.26.26,0,0,1-.28-.28Z"></path></svg> 