<?xml version="1.0" encoding="UTF-8"?> <svg xmlns="http://www.w3.org/2000/svg" id="Layer_1" data-name="Layer 1" viewBox="0 0 144.66 49.88"><defs><style>.cls-1{fill:#ffb0bb;stroke:#070707;stroke-miterlimit:10;}</style></defs><rect class="cls-1" x="3.12" y="1.95" width="138.7" height="46.15" rx="3.69"></rect><path d="M16.27,31.6V17.2H31.2v3.24H19.87v2.43H29.94v3.06H19.87v2.43H31.2V31.6Z"></path><path d="M46.25,28.69h-9L35.93,31.6H32.09l7-14.4h5.51L51.5,31.6H47.6Zm-7.64-2.94h6.3l-2.57-5.62H41.2Z"></path><path d="M53,17.2H64.08c3.59,0,5.37,2.29,5.37,4.91a4.89,4.89,0,0,1-2.63,4.42L69.4,31.6H65.34l-2-4.41H56.56V31.6H53Zm3.6,3.24v3.69h7c1.77,0,2.16-1,2.16-1.92s-.39-1.77-2.16-1.77Z"></path><path d="M75.82,21.5h-.9V31.6h-3.6V17.2h5.06l9.52,9.09h.9V17.2h3.6V31.6H86Z"></path><path d="M98.08,31.6V28.45c2.94-2.23,6.12-4.91,6.12-6.86,0-1-.84-1.64-2.28-1.64a9.68,9.68,0,0,0-3.77.91l-.61-2.71a9.55,9.55,0,0,1,4.7-1.24c3.26,0,5.66,1.23,5.66,4,0,3-3,5.38-5.78,7.51v.05h6.1V31.6Z"></path><path d="M113.83,16.93c2.92,0,4.16,1.69,4.16,4.25s-1.24,4.25-4.16,4.25-4.16-1.69-4.16-4.25S110.92,16.93,113.83,16.93Zm8.93.27h2.88L115.53,31.6h-2.89ZM113.83,23c.76,0,1.16-.58,1.16-1.8s-.24-1.8-1.16-1.8-1.15.57-1.15,1.8S113,23,113.83,23Zm10.86.4c2.92,0,4.16,1.69,4.16,4.24s-1.24,4.25-4.16,4.25-4.16-1.69-4.16-4.25S121.77,23.38,124.69,23.38Zm0,6.05c.76,0,1.15-.58,1.15-1.81s-.23-1.8-1.15-1.8-1.15.58-1.15,1.8S123.83,29.43,124.69,29.43Z"></path></svg> 