<?xml version="1.0" encoding="UTF-8"?> <svg xmlns="http://www.w3.org/2000/svg" id="Layer_1" data-name="Layer 1" viewBox="0 0 280.4 190.77"><defs><style>.cls-1,.cls-11{fill:#fff;}.cls-1,.cls-2{stroke:#0b0b0b;}.cls-2{fill:#ffd03b;}.cls-10,.cls-3{fill:#222;}.cls-3{fill-rule:evenodd;}.cls-4,.cls-5{isolation:isolate;}.cls-5{font-size:22px;font-family:SignPainter-HouseScriptSemibold, SignPainter;font-weight:600;letter-spacing:-0.02em;}.cls-5,.cls-8{fill:#191919;}.cls-6{letter-spacing:-0.05em;}.cls-7{letter-spacing:-0.08em;}.cls-9{fill:none;stroke:#000;stroke-linecap:square;}</style></defs><g id="Marketing-Tools"><g id="Desktop-HD-Copy"><g id="Group-8"><rect id="Rectangle" class="cls-1" x="3.45" y="124.24" width="256" height="48" rx="3"></rect><rect id="Rectangle-2" data-name="Rectangle" class="cls-2" x="173.45" y="129.24" width="81" height="38" rx="3"></rect><polygon id="Path" class="cls-3" points="250.7 185.88 247.65 187.24 242.73 175.89 236.45 181.97 236.46 157.24 254.45 173.98 245.78 174.54 250.7 185.88"></polygon><g id="APPLY" class="cls-4"><text class="cls-5" transform="translate(193.45 154.29)">AP<tspan class="cls-6" x="18.06" y="0">P</tspan><tspan class="cls-7" x="26.25" y="0">L</tspan><tspan x="32.19" y="0">Y</tspan></text></g><g id="_3lK6---56R0---4LK1" data-name="3lK6---56R0---4LK1" class="cls-4"><g class="cls-4"><path class="cls-8" d="M23.44,147.34v0A2.14,2.14,0,0,1,25,149.45c0,1.94-2,3-4.16,3a5.57,5.57,0,0,1-2.59-.58l.22-2a6.59,6.59,0,0,0,2.54.61c.85,0,1.47-.37,1.47-.95s-.87-1.19-2.35-1.11l-.27-1.51c1.65-.32,2.53-.68,2.53-1.37s-.59-.92-1.36-.93a5.47,5.47,0,0,0-2.36.62l-.26-1.86a5.47,5.47,0,0,1,3-.85c1.84,0,3.57.88,3.57,2.57A2.51,2.51,0,0,1,23.44,147.34Z"></path><path class="cls-8" d="M26.36,142.67h2.39V150h7.43v2.28H26.36Z"></path><path class="cls-8" d="M41.83,147.31l6.7,5H44.88L40,148.61h-.44v3.66h-2.4v-9.6h2.4v3.66h.43l5.12-3.66h3.48Z"></path><path class="cls-8" d="M55.9,144.78l-.89,0c-2.08,0-3.1.86-3.53,1.92a4.42,4.42,0,0,1,2.07-.53,2.82,2.82,0,0,1,3,2.89c0,2.06-1.7,3.43-4,3.43-2.45,0-3.89-1.58-3.89-4.1a5.82,5.82,0,0,1,5.89-5.88l.55,0Zm-4.71,3.48c0,1.32.52,2.28,1.54,2.28a1.31,1.31,0,0,0,1.33-1.35c0-.81-.67-1.19-1.5-1.19A4.37,4.37,0,0,0,51.19,148.26Z"></path><path class="cls-8" d="M60.48,148.37v-1.8H65.1v1.8Z"></path><path class="cls-8" d="M69.4,148.17l.47-5.5h6l-.18,2.1H71.88l-.17,1.62c2.52.12,4.31.86,4.31,2.87,0,1.74-1.38,3.19-4,3.19a6.41,6.41,0,0,1-2.83-.64l.12-2a5.82,5.82,0,0,0,2.64.65c1.32,0,1.69-.47,1.69-.94C73.6,148.63,72.11,148.32,69.4,148.17Z"></path><path class="cls-8" d="M83.87,144.78l-.89,0c-2.07,0-3.09.86-3.53,1.92a4.42,4.42,0,0,1,2.07-.53,2.82,2.82,0,0,1,3,2.89c0,2.06-1.7,3.43-4,3.43-2.45,0-3.89-1.58-3.89-4.1a5.82,5.82,0,0,1,5.89-5.88l.55,0Zm-4.7,3.48c0,1.32.51,2.28,1.53,2.28A1.3,1.3,0,0,0,82,149.19c0-.81-.67-1.19-1.5-1.19A4.31,4.31,0,0,0,79.17,148.26Z"></path><path class="cls-8" d="M85.6,142.67H93A3.24,3.24,0,0,1,96.59,146a3.28,3.28,0,0,1-1.76,2.94l1.72,3.38h-2.7l-1.33-2.94H88v2.94H85.6Zm2.4,2.16v2.46h4.66c1.18,0,1.44-.67,1.44-1.28s-.26-1.18-1.44-1.18Z"></path><path class="cls-8" d="M101.07,142.48c2.77,0,4,2.1,4,5s-1.18,5-4,5-4-2.1-4-5S98.29,142.48,101.07,142.48Zm0,7.89c1.26,0,1.54-1.48,1.54-3,0-1.2-.16-2.8-1.52-2.8s-1.59,1.48-1.59,2.89S99.79,150.37,101.08,150.37Z"></path><path class="cls-8" d="M109.13,148.37v-1.8h4.62v1.8Z"></path><path class="cls-8" d="M124.42,150.67v1.6H122v-1.6h-4.39v-2.1l2.52-5.9h2.63l-2.63,5.9H122v-2h2.38v2h.82v2.1Z"></path><path class="cls-8" d="M126.25,142.67h2.4V150h7.43v2.28h-9.83Z"></path><path class="cls-8" d="M141.73,147.31l6.69,5h-3.64l-4.93-3.66h-.44v3.66H137v-9.6h2.4v3.66h.43l5.12-3.66h3.48Z"></path><path class="cls-8" d="M148.83,152.27v-2.1H151v-5l-2.12.3v-2.16l4.12-.79h.4v7.69h2v2.1Z"></path></g></g><line id="Line-3" class="cls-9" x1="264.95" y1="122.74" x2="276.95" y2="115.74"></line><line id="Line-3-2" data-name="Line-3" class="cls-9" x1="259.95" y1="118.74" x2="264.45" y2="112.24"></line><line id="Line-3-3" data-name="Line-3" class="cls-9" x1="264.95" y1="129.74" x2="273.2" y2="127.99"></line></g></g></g><g id="Marketing-Tools-2" data-name="Marketing-Tools"><g id="Desktop-HD-Copy-2" data-name="Desktop-HD-Copy"><g id="Group-3"><circle id="Oval" class="cls-10" cx="31.8" cy="82.09" r="21"></circle></g></g></g><g id="doot-arrow"><g id="next"><g id="Group"><path id="Path-2" data-name="Path" class="cls-11" d="M32.58,49.45v0a.79.79,0,1,0-.78.78.78.78,0,0,0,.78-.78v0Z"></path><path id="Path-3" data-name="Path" class="cls-11" d="M32.58,46.32v0a.79.79,0,1,0-.78.79.78.78,0,0,0,.78-.79v0Z"></path><path id="Path-4" data-name="Path" class="cls-11" d="M32.58,43.19h0a.79.79,0,1,0-.78.78.78.78,0,0,0,.78-.78Z"></path><path id="Path-5" data-name="Path" class="cls-11" d="M32.58,40.06h0a.79.79,0,1,0-.78.78.78.78,0,0,0,.78-.78Z"></path><path id="Path-6" data-name="Path" class="cls-11" d="M32.58,36.94v0a.79.79,0,1,0-.78.78.78.78,0,0,0,.78-.78v0Z"></path><path id="Path-7" data-name="Path" class="cls-11" d="M32.58,33.81v0a.79.79,0,1,0-.78.78.78.78,0,0,0,.78-.78v0Z"></path><path id="Path-8" data-name="Path" class="cls-11" d="M32.58,30.68v0a.79.79,0,0,0-1.57,0,.79.79,0,1,0,1.57,0v0Z"></path><path id="Path-9" data-name="Path" class="cls-11" d="M35.72,46.32v0a.79.79,0,0,0-.79-.78.79.79,0,0,0,0,1.57.79.79,0,0,0,.79-.79Z"></path><path id="Path-10" data-name="Path" class="cls-11" d="M35.72,43.19h0a.79.79,0,0,0-.79-.79.79.79,0,1,0,.79.79Z"></path><path id="Path-11" data-name="Path" class="cls-11" d="M35.72,40.06h0a.79.79,0,0,0-.79-.78.78.78,0,1,0,0,1.56.79.79,0,0,0,.79-.78Z"></path><path id="Path-12" data-name="Path" class="cls-11" d="M35.72,36.94v0a.79.79,0,0,0-.79-.78.78.78,0,1,0,0,1.56.79.79,0,0,0,.79-.78Z"></path><path id="Path-13" data-name="Path" class="cls-11" d="M35.72,33.81v0a.79.79,0,0,0-.79-.78.78.78,0,0,0,0,1.56.79.79,0,0,0,.79-.78Z"></path><path id="Path-14" data-name="Path" class="cls-11" d="M38.85,43.19h0a.79.79,0,1,0-.78.78.78.78,0,0,0,.78-.78Z"></path><path id="Path-15" data-name="Path" class="cls-11" d="M38.85,40.06h0a.79.79,0,1,0-.78.78.78.78,0,0,0,.78-.78Z"></path><path id="Path-16" data-name="Path" class="cls-11" d="M38.85,36.94v0a.79.79,0,1,0-.78.78.78.78,0,0,0,.78-.78Z"></path><path id="Path-17" data-name="Path" class="cls-11" d="M38.85,33.81v0a.79.79,0,1,0-.78.78.78.78,0,0,0,.78-.78Z"></path><path id="Path-18" data-name="Path" class="cls-11" d="M42,40.06h0a.79.79,0,1,0-.79.78.78.78,0,0,0,.79-.78Z"></path><path id="Path-19" data-name="Path" class="cls-11" d="M42,36.94v0a.79.79,0,1,0-.79.78.78.78,0,0,0,.79-.78v0Z"></path><path id="Path-20" data-name="Path" class="cls-11" d="M42,33.81v0a.79.79,0,1,0-.79.78.78.78,0,0,0,.79-.78v0Z"></path><path id="Path-21" data-name="Path" class="cls-11" d="M45.12,36.94v0a.78.78,0,1,0-.78.78.78.78,0,0,0,.78-.78Z"></path><path id="Path-22" data-name="Path" class="cls-11" d="M45.12,33.81v0a.78.78,0,1,0-.78.78.78.78,0,0,0,.78-.78Z"></path><path id="Path-23" data-name="Path" class="cls-11" d="M48.26,33.81v0a.79.79,0,1,0-.78.78.78.78,0,0,0,.78-.78Z"></path><path id="Path-24" data-name="Path" class="cls-11" d="M29.44,46.32v0a.78.78,0,1,0-.78.79.78.78,0,0,0,.78-.79Z"></path><path id="Path-25" data-name="Path" class="cls-11" d="M29.44,43.19h0a.78.78,0,1,0-.78.78.78.78,0,0,0,.78-.78Z"></path><path id="Path-26" data-name="Path" class="cls-11" d="M29.44,40.06h0a.78.78,0,1,0-.78.78.78.78,0,0,0,.78-.78Z"></path><path id="Path-27" data-name="Path" class="cls-11" d="M29.44,36.94v0a.78.78,0,1,0-.78.78.78.78,0,0,0,.78-.78Z"></path><path id="Path-28" data-name="Path" class="cls-11" d="M29.44,33.81v0a.78.78,0,1,0-.78.78.78.78,0,0,0,.78-.78Z"></path><path id="Path-29" data-name="Path" class="cls-11" d="M26.31,43.19h0a.79.79,0,1,0-.79.78.79.79,0,0,0,.79-.78Z"></path><path id="Path-30" data-name="Path" class="cls-11" d="M26.31,40.06h0a.79.79,0,1,0-.79.78.78.78,0,0,0,.79-.78Z"></path><path id="Path-31" data-name="Path" class="cls-11" d="M26.31,36.94v0a.79.79,0,1,0-.79.78.78.78,0,0,0,.79-.78Z"></path><path id="Path-32" data-name="Path" class="cls-11" d="M26.31,33.81v0a.79.79,0,1,0-.79.78.78.78,0,0,0,.79-.78Z"></path><path id="Path-33" data-name="Path" class="cls-11" d="M23.17,40.06h0a.78.78,0,0,0-.78-.78.78.78,0,1,0,0,1.56.78.78,0,0,0,.78-.78Z"></path><path id="Path-34" data-name="Path" class="cls-11" d="M23.17,36.94v0a.78.78,0,0,0-.78-.78.78.78,0,1,0,0,1.56.78.78,0,0,0,.78-.78Z"></path><path id="Path-35" data-name="Path" class="cls-11" d="M23.17,33.81v0a.78.78,0,0,0-.78-.78.78.78,0,1,0,0,1.56.78.78,0,0,0,.78-.78Z"></path><path id="Path-36" data-name="Path" class="cls-11" d="M20,36.94v0a.79.79,0,1,0-.79.78.78.78,0,0,0,.79-.78Z"></path><path id="Path-37" data-name="Path" class="cls-11" d="M20,33.81v0a.79.79,0,1,0-.79.78.78.78,0,0,0,.79-.78Z"></path><path id="Path-38" data-name="Path" class="cls-11" d="M16.9,33.81v0a.79.79,0,1,0-.78.78.78.78,0,0,0,.78-.78Z"></path><path id="Path-39" data-name="Path" class="cls-11" d="M32.58,27.55v0a.79.79,0,1,0-.78.79.78.78,0,0,0,.78-.79v0Z"></path><path id="Path-40" data-name="Path" class="cls-11" d="M32.58,24.42h0a.79.79,0,1,0-.78.78.78.78,0,0,0,.78-.78Z"></path><path id="Path-41" data-name="Path" class="cls-11" d="M32.58,21.29h0a.79.79,0,1,0-.78.78.78.78,0,0,0,.78-.78Z"></path><path id="Path-42" data-name="Path" class="cls-11" d="M32.58,18.17v0a.79.79,0,1,0-.78.78.78.78,0,0,0,.78-.78v0Z"></path><path id="Path-43" data-name="Path" class="cls-11" d="M32.58,15h0a.79.79,0,1,0-.78.78.78.78,0,0,0,.78-.78Z"></path><path id="Path-44" data-name="Path" class="cls-11" d="M29.44,30.68v0a.78.78,0,0,0-1.56,0,.78.78,0,1,0,1.56,0Z"></path><path id="Path-45" data-name="Path" class="cls-11" d="M29.44,27.55v0a.78.78,0,1,0-.78.79.78.78,0,0,0,.78-.79Z"></path><path id="Path-46" data-name="Path" class="cls-11" d="M29.44,24.42h0a.78.78,0,1,0-.78.78.78.78,0,0,0,.78-.78Z"></path><path id="Path-47" data-name="Path" class="cls-11" d="M29.44,21.29h0a.78.78,0,1,0-.78.78.78.78,0,0,0,.78-.78Z"></path><path id="Path-48" data-name="Path" class="cls-11" d="M29.44,18.17v0a.78.78,0,1,0-.78.78.78.78,0,0,0,.78-.78Z"></path><path id="Path-49" data-name="Path" class="cls-11" d="M29.44,15h0a.78.78,0,1,0-.78.78.78.78,0,0,0,.78-.78Z"></path><path id="Path-50" data-name="Path" class="cls-11" d="M35.72,30.68v0a.79.79,0,0,0-.79-.78.78.78,0,0,0-.78.78.79.79,0,0,0,.78.79.8.8,0,0,0,.79-.79Z"></path><path id="Path-51" data-name="Path" class="cls-11" d="M35.72,27.55v0a.79.79,0,0,0-.79-.78.79.79,0,1,0,.79.8Z"></path><path id="Path-52" data-name="Path" class="cls-11" d="M35.72,24.42h0a.79.79,0,0,0-.79-.79.79.79,0,1,0,.79.8Z"></path><path id="Path-53" data-name="Path" class="cls-11" d="M35.72,21.29h0a.79.79,0,0,0-.79-.78.78.78,0,1,0,.79.79Z"></path><path id="Path-54" data-name="Path" class="cls-11" d="M35.72,18.17v0a.79.79,0,0,0-.79-.78.78.78,0,1,0,.79.8Z"></path><path id="Path-55" data-name="Path" class="cls-11" d="M35.72,15h0a.79.79,0,0,0-.79-.79.79.79,0,0,0,0,1.57A.79.79,0,0,0,35.72,15Z"></path></g><path id="Path-56" data-name="Path" class="cls-11" d="M31,49.45a.79.79,0,0,1,1.57,0h0a.79.79,0,0,1-1.57,0Z"></path><path id="Path-57" data-name="Path" class="cls-11" d="M31,46.32a.79.79,0,0,1,1.57,0h0a.79.79,0,0,1-1.57,0Z"></path><path id="Path-58" data-name="Path" class="cls-11" d="M31,43.19a.79.79,0,0,1,1.57,0h0a.79.79,0,0,1-1.57,0Z"></path><path id="Path-59" data-name="Path" class="cls-11" d="M31,40.06a.79.79,0,0,1,1.57,0h0a.79.79,0,1,1-1.57,0Z"></path><path id="Path-60" data-name="Path" class="cls-11" d="M31,36.94a.79.79,0,1,1,1.57,0h0a.79.79,0,0,1-1.57,0Z"></path><path id="Path-61" data-name="Path" class="cls-11" d="M31,33.81a.79.79,0,1,1,1.57,0h0a.79.79,0,0,1-1.57,0Z"></path><path id="Path-62" data-name="Path" class="cls-11" d="M31,30.68a.79.79,0,0,1,1.57,0h0a.79.79,0,0,1-1.57,0Z"></path><path id="Path-63" data-name="Path" class="cls-11" d="M34.15,46.32a.78.78,0,0,1,.78-.78.79.79,0,0,1,.79.78h0a.79.79,0,0,1-.79.78A.78.78,0,0,1,34.15,46.32Z"></path><path id="Path-64" data-name="Path" class="cls-11" d="M34.15,43.19a.78.78,0,0,1,.78-.78.79.79,0,0,1,.79.78h0a.79.79,0,0,1-.79.78A.78.78,0,0,1,34.15,43.19Z"></path><path id="Path-65" data-name="Path" class="cls-11" d="M34.15,40.06a.78.78,0,0,1,.78-.78.79.79,0,0,1,.79.78h0a.79.79,0,0,1-.79.79A.78.78,0,0,1,34.15,40.06Z"></path><path id="Path-66" data-name="Path" class="cls-11" d="M34.15,36.94a.78.78,0,0,1,.78-.79.79.79,0,0,1,.79.79h0a.79.79,0,0,1-.79.78A.78.78,0,0,1,34.15,36.94Z"></path><path id="Path-67" data-name="Path" class="cls-11" d="M34.15,33.81a.79.79,0,0,1,.78-.79.8.8,0,0,1,.79.79h0a.79.79,0,0,1-.79.78A.78.78,0,0,1,34.15,33.81Z"></path><path id="Path-68" data-name="Path" class="cls-11" d="M37.28,43.19a.79.79,0,0,1,1.57,0h0a.79.79,0,0,1-1.57,0Z"></path><path id="Path-69" data-name="Path" class="cls-11" d="M37.28,40.06a.79.79,0,0,1,1.57,0h0a.79.79,0,1,1-1.57,0Z"></path><path id="Path-70" data-name="Path" class="cls-11" d="M37.28,36.94a.79.79,0,1,1,1.57,0h0a.79.79,0,0,1-1.57,0Z"></path><path id="Path-71" data-name="Path" class="cls-11" d="M37.28,33.81a.79.79,0,1,1,1.57,0h0a.79.79,0,0,1-1.57,0Z"></path><path id="Path-72" data-name="Path" class="cls-11" d="M40.42,40.06a.79.79,0,0,1,1.57,0h0a.79.79,0,1,1-1.57,0Z"></path><path id="Path-73" data-name="Path" class="cls-11" d="M40.42,36.94a.79.79,0,1,1,1.57,0h0a.79.79,0,0,1-1.57,0Z"></path><path id="Path-74" data-name="Path" class="cls-11" d="M40.42,33.81a.79.79,0,1,1,1.57,0h0a.79.79,0,0,1-1.57,0Z"></path><path id="Path-75" data-name="Path" class="cls-11" d="M43.56,36.94a.78.78,0,1,1,1.56,0h0a.78.78,0,1,1-1.56,0Z"></path><path id="Path-76" data-name="Path" class="cls-11" d="M43.56,33.81a.78.78,0,1,1,1.56,0h0a.78.78,0,1,1-1.56,0Z"></path><path id="Path-77" data-name="Path" class="cls-11" d="M46.69,33.81a.79.79,0,1,1,1.57,0h0a.79.79,0,0,1-1.57,0Z"></path><path id="Path-78" data-name="Path" class="cls-11" d="M27.88,46.32a.78.78,0,0,1,1.56,0h0a.78.78,0,0,1-1.56,0Z"></path><path id="Path-79" data-name="Path" class="cls-11" d="M27.88,43.19a.78.78,0,0,1,1.56,0h0a.78.78,0,0,1-1.56,0Z"></path><path id="Path-80" data-name="Path" class="cls-11" d="M27.88,40.06a.78.78,0,0,1,1.56,0h0a.78.78,0,1,1-1.56,0Z"></path><path id="Path-81" data-name="Path" class="cls-11" d="M27.88,36.94a.78.78,0,1,1,1.56,0h0a.78.78,0,0,1-1.56,0Z"></path><path id="Path-82" data-name="Path" class="cls-11" d="M27.88,33.81a.78.78,0,1,1,1.56,0h0a.78.78,0,0,1-1.56,0Z"></path><path id="Path-83" data-name="Path" class="cls-11" d="M24.74,43.19a.79.79,0,0,1,1.57,0h0a.79.79,0,0,1-1.57,0Z"></path><path id="Path-84" data-name="Path" class="cls-11" d="M24.74,40.06a.79.79,0,0,1,1.57,0h0a.79.79,0,1,1-1.57,0Z"></path><path id="Path-85" data-name="Path" class="cls-11" d="M24.74,36.94a.79.79,0,1,1,1.57,0h0a.79.79,0,0,1-1.57,0Z"></path><path id="Path-86" data-name="Path" class="cls-11" d="M24.74,33.81a.79.79,0,1,1,1.57,0h0a.79.79,0,0,1-1.57,0Z"></path><path id="Path-87" data-name="Path" class="cls-11" d="M21.6,40.06a.79.79,0,0,1,.79-.78.78.78,0,0,1,.78.78h0a.78.78,0,0,1-.78.79A.79.79,0,0,1,21.6,40.06Z"></path><path id="Path-88" data-name="Path" class="cls-11" d="M21.6,36.94a.79.79,0,0,1,.79-.79.78.78,0,0,1,.78.79h0a.78.78,0,0,1-.78.78A.79.79,0,0,1,21.6,36.94Z"></path><path id="Path-89" data-name="Path" class="cls-11" d="M21.6,33.81a.8.8,0,0,1,.79-.79.79.79,0,0,1,.78.79h0a.78.78,0,0,1-.78.78A.79.79,0,0,1,21.6,33.81Z"></path><path id="Path-90" data-name="Path" class="cls-11" d="M18.47,36.94a.79.79,0,1,1,1.57,0h0a.79.79,0,0,1-1.57,0Z"></path><path id="Path-91" data-name="Path" class="cls-11" d="M18.47,33.81a.79.79,0,1,1,1.57,0h0a.79.79,0,0,1-1.57,0Z"></path><path id="Path-92" data-name="Path" class="cls-11" d="M15.33,33.81a.79.79,0,1,1,1.57,0h0a.79.79,0,0,1-1.57,0Z"></path><path id="Path-93" data-name="Path" class="cls-11" d="M31,27.55a.79.79,0,0,1,1.57,0h0a.79.79,0,0,1-1.57,0Z"></path><path id="Path-94" data-name="Path" class="cls-11" d="M31,24.42a.79.79,0,0,1,1.57,0h0a.79.79,0,0,1-1.57,0Z"></path><path id="Path-95" data-name="Path" class="cls-11" d="M31,21.29a.79.79,0,0,1,1.57,0h0a.79.79,0,1,1-1.57,0Z"></path><path id="Path-96" data-name="Path" class="cls-11" d="M31,18.17a.79.79,0,1,1,1.57,0h0a.79.79,0,0,1-1.57,0Z"></path><path id="Path-97" data-name="Path" class="cls-11" d="M31,15a.79.79,0,0,1,1.57,0h0A.79.79,0,0,1,31,15Z"></path><path id="Path-98" data-name="Path" class="cls-11" d="M27.88,30.68a.78.78,0,0,1,1.56,0h0a.78.78,0,0,1-1.56,0Z"></path><path id="Path-99" data-name="Path" class="cls-11" d="M27.88,27.55a.78.78,0,0,1,1.56,0h0a.78.78,0,0,1-1.56,0Z"></path><path id="Path-100" data-name="Path" class="cls-11" d="M27.88,24.42a.78.78,0,0,1,1.56,0h0a.78.78,0,0,1-1.56,0Z"></path><path id="Path-101" data-name="Path" class="cls-11" d="M27.88,21.29a.78.78,0,1,1,1.56,0h0a.78.78,0,1,1-1.56,0Z"></path><path id="Path-102" data-name="Path" class="cls-11" d="M27.88,18.17a.78.78,0,1,1,1.56,0h0a.78.78,0,0,1-1.56,0Z"></path><path id="Path-103" data-name="Path" class="cls-11" d="M27.88,15a.78.78,0,0,1,1.56,0h0a.78.78,0,1,1-1.56,0Z"></path><path id="Path-104" data-name="Path" class="cls-11" d="M34.15,30.68a.78.78,0,0,1,.78-.78.79.79,0,0,1,.79.78h0a.79.79,0,0,1-.79.78A.78.78,0,0,1,34.15,30.68Z"></path><path id="Path-105" data-name="Path" class="cls-11" d="M34.15,27.55a.78.78,0,0,1,.78-.78.79.79,0,0,1,.79.78h0a.79.79,0,0,1-.79.78A.78.78,0,0,1,34.15,27.55Z"></path><path id="Path-106" data-name="Path" class="cls-11" d="M34.15,24.42a.78.78,0,0,1,.78-.78.79.79,0,0,1,.79.78h0a.79.79,0,0,1-.79.78A.78.78,0,0,1,34.15,24.42Z"></path><path id="Path-107" data-name="Path" class="cls-11" d="M34.15,21.29a.78.78,0,0,1,.78-.78.79.79,0,0,1,.79.78h0a.79.79,0,0,1-.79.79A.78.78,0,0,1,34.15,21.29Z"></path><path id="Path-108" data-name="Path" class="cls-11" d="M34.15,18.17a.78.78,0,0,1,.78-.79.79.79,0,0,1,.79.79h0a.79.79,0,0,1-.79.78A.78.78,0,0,1,34.15,18.17Z"></path><path id="Path-109" data-name="Path" class="cls-11" d="M34.15,15a.78.78,0,0,1,.78-.78.79.79,0,0,1,.79.78h0a.79.79,0,0,1-.79.78A.78.78,0,0,1,34.15,15Z"></path></g></g><path class="cls-11" d="M25.87,87.37A.55.55,0,0,1,26,87l6.69-8a3.88,3.88,0,0,0,1.12-2.63,2,2,0,0,0-2.07-2.18c-1.29,0-2.07.78-2.24,2.24,0,.16-.11.25-.31.22l-3.08-.5a.27.27,0,0,1-.22-.34c.19-2.63,2.32-4.93,6-4.93s5.85,2.35,5.85,5.43A6.76,6.76,0,0,1,35.81,81l-5,5.91v.06h6.66a.26.26,0,0,1,.28.28V90a.26.26,0,0,1-.28.28H26.15a.26.26,0,0,1-.28-.28Z"></path></svg> 