<?xml version="1.0" encoding="UTF-8"?> <svg xmlns="http://www.w3.org/2000/svg" id="Layer_1" data-name="Layer 1" viewBox="0 0 274.47 123.71"><defs><style>.cls-1{fill:#6f6f6f;}</style></defs><path class="cls-1" d="M56.64,79.53c0-2.74,0-5.47,0-8.21,0,2.74,0,5.47,0,8.21s0,5.59,0,8.38C56.65,85.12,56.64,82.32,56.64,79.53Z"></path><path class="cls-1" d="M69.84,82.67c0-1.74,0-3.49,0-5.24,0,1.75,0,3.5,0,5.24s0,3.5,0,5.25C69.86,86.17,69.84,84.42,69.84,82.67Z"></path><path class="cls-1" d="M147,44.12c-2.06,0-4.11,0-6.16,0-1.57,0-3.13,0-4.69,0-1.24,0-1.73-.45-1.86-1.68a13.52,13.52,0,0,1,0-2.11c.06-1.7.49-2.11,2.17-2.11,4.17,0,8.34,0,12.5,0a1.4,1.4,0,0,0,1-.39c.85-1.22,1.63-2.5,2.49-3.86a2.6,2.6,0,0,0-.4-.08c-5.61,0-11.22,0-16.83,0a5.73,5.73,0,0,0-4.9,2.43,8.65,8.65,0,0,0-1.2,5.91c.38,4.56,2.5,6.47,7.08,6.47,3.31,0,6.61,0,9.92,0,1.47,0,2,.52,2,2,0,.77,0,1.54,0,2.3,0,1.57-.6,2.15-2.16,2.23-.34,0-.68,0-1,0q-6.17,0-12.32,0c-.36,0-.88.08-1.05.32-.89,1.26-1.7,2.59-2.53,3.9.13.07.18.13.23.13,6,0,12.07.07,18.11-.06,3.3-.07,5.31-2,5.77-5.32a23.56,23.56,0,0,0,.1-3.85A6,6,0,0,0,147,44.12Z"></path><path class="cls-1" d="M158.29,59.51h22.58c-.83-1.3-1.61-2.46-2.32-3.66a1.27,1.27,0,0,0-1.26-.67c-4.26,0-8.52,0-12.78,0h-1.1c0-2,0-3.89,0-5.78,0-.72.19-.94.93-.93,4.08,0,8.15,0,12.23,0h1V44.27h-1.28c-4,0-8,0-11.95,0-.3,0-.84-.29-.85-.46-.06-1.83,0-3.66,0-5.58H177.2c.32,0,.81,0,.94-.18.91-1.31,1.76-2.67,2.68-4.1a5.59,5.59,0,0,0-.56-.06c-7,0-14.1,0-21.15,0-.76,0-.83.33-.83,1,0,7.36,0,14.71,0,22.07Z"></path><path class="cls-1" d="M89,59.51H94c0-.33,0-.6,0-.87V34.83a1.6,1.6,0,0,0,0-.54c-.07-.17-.25-.41-.38-.41-1.55,0-3.1,0-4.75,0V44H74.56V43c0-2.76,0-5.52,0-8.27,0-.28-.28-.78-.44-.79-1.5-.06-3,0-4.57,0V59.49h5.09V48.55H89Z"></path><path class="cls-1" d="M126.59,59.57l-2.11-4.41c-3.21-6.76-6.43-13.52-9.61-20.3a1.46,1.46,0,0,0-1.66-1,18,18,0,0,1-2.84,0,1.36,1.36,0,0,0-1.51,1c-2.75,5.87-5.54,11.72-8.31,17.57-1.11,2.34-2.22,4.68-3.4,7.2,1.81,0,3.46,0,5.11,0A1.06,1.06,0,0,0,103,59q1-2,1.8-4a1.09,1.09,0,0,1,1.17-.76q5.93,0,11.85,0a1.08,1.08,0,0,1,1.15.79c.55,1.33,1.15,2.64,1.77,3.93.12.26.43.59.67.59C123.05,59.59,124.73,59.57,126.59,59.57Zm-19.5-9.64c1.58-3.62,3.11-7.12,4.75-10.89,1.65,3.75,3.19,7.24,4.79,10.89Z"></path><path class="cls-1" d="M66.13,59.5c-1-1.48-1.79-2.82-2.69-4.13A1.13,1.13,0,0,0,62.6,55c-1.41,0-2.82,0-4.23,0-2.72,0-5.45,0-8.18,0a2.58,2.58,0,0,1-2.78-2.06,7.42,7.42,0,0,1-.21-1.82q0-4.22,0-8.45c0-3.42.87-4.28,4.31-4.28,3.67,0,7.35,0,11,0a1.39,1.39,0,0,0,1-.35c.89-1.27,1.69-2.61,2.61-4.06-.32,0-.43-.06-.55-.06-5.27,0-10.54-.05-15.81,0a7.55,7.55,0,0,0-6,2.45,8.16,8.16,0,0,0-1.91,5.34c0,3.24,0,6.49,0,9.74,0,5.1,3,8.15,8.09,8.17s10.11,0,15.17,0C65.42,59.57,65.7,59.53,66.13,59.5Z"></path><path class="cls-1" d="M203.29,39.22h20.16c-.39-.43-.58-.65-.79-.85-2.85-2.73-5.71-5.46-8.59-8.15a1.65,1.65,0,0,0-1.06-.37c-3.06,0-6.12,0-9.18,0-1.47,0-1.84.35-1.85,1.85,0,2.08,0,4.16,0,6.24C202,39.22,202,39.22,203.29,39.22Z"></path><path class="cls-1" d="M216.38,40.84c-.84,0-1,.28-1,1.06,0,6.52,0,13,0,19.56v.87c.23-.17.32-.21.38-.27,2.83-3,5.66-5.93,8.47-8.92a1.66,1.66,0,0,0,.39-1c0-3.28,0-6.55,0-9.83,0-1.08-.34-1.39-1.45-1.4C220.91,40.86,218.65,40.9,216.38,40.84Z"></path><path class="cls-1" d="M213.64,62.14c0-2.27,0-4.53,0-6.8,0-.87-.29-1.08-1.12-1.07-4.13,0-8.27,0-12.4,0h-7.93c.32.36.48.58.68.76,2.84,2.7,5.67,5.41,8.54,8.08a1.83,1.83,0,0,0,1.15.38c3.21,0,6.43,0,9.64,0C213.41,63.52,213.63,63.31,213.64,62.14Z"></path><path class="cls-1" d="M192.55,52.66c2.11,0,4.23,0,6.34,0,1.32,0,1.33,0,1.33-1.28V31.08c-3.09,3.26-6,6.3-8.84,9.36a1.64,1.64,0,0,0-.33,1q0,4.86,0,9.74C191.05,52.29,191.44,52.65,192.55,52.66Z"></path><path class="cls-1" d="M209.18,78.1c-.42-.33-.62-.47-.81-.63a5.45,5.45,0,0,0-7.62.43,7.22,7.22,0,0,0-1.47,6.29,5.54,5.54,0,0,0,3.43,4.68,5.32,5.32,0,0,0,5.82-1.05,4.07,4.07,0,0,1,.6-.31c.05.51.09.89.13,1.29h1.81V70.29h-1.89Zm-.27,6.57a3.64,3.64,0,0,1-3.65,2.82,3.59,3.59,0,0,1-3.68-2.76,6.66,6.66,0,0,1,0-4,3.63,3.63,0,0,1,3.83-2.79,3.7,3.7,0,0,1,3.61,3c.14.57.18,1.17.28,1.83C209.17,83.35,209.1,84,208.91,84.67Z"></path><path class="cls-1" d="M173.8,77.61c-.75,2.36-1.61,4.68-2.43,7-.12.33-.27.65-.5,1.2-.19-.53-.3-.84-.4-1.15-.8-2.49-1.62-5-2.39-7.47-.16-.52-.38-.74-.94-.7s-1-.06-1.23.67c-.79,2.53-1.65,5-2.49,7.54-.09.27-.22.53-.43,1-.21-.53-.33-.8-.42-1.08-.85-2.48-1.67-5-2.54-7.43-.09-.28-.34-.64-.58-.69a9.79,9.79,0,0,0-1.73,0c.67,2,1.28,3.75,1.9,5.55.74,2.13,1.47,4.26,2.24,6.37.28.76,1,.36,1.48.38.22,0,.57-.31.65-.55.87-2.52,1.7-5.06,2.54-7.6.08-.25.19-.5.29-.75h.24c.11.28.23.55.32.83.79,2.46,1.6,4.92,2.36,7.39.16.51.37.77.93.71s1.05.14,1.32-.65c1.29-3.63,2.65-7.24,4-10.86.09-.24.16-.5.25-.8a8,8,0,0,1-.8,0C174.52,76.36,174.08,76.72,173.8,77.61Z"></path><path class="cls-1" d="M87.52,76.36A10.55,10.55,0,0,0,84.75,78c-.49.35-.73.47-1.14-.1-1.53-2.11-3.45-2.31-5.5-.64-.35.29-.72.57-1.21.95a4.26,4.26,0,0,1-.13-.9c0-.65-.27-.81-.87-.81s-.81.28-.81.88c0,3.5,0,7,0,10.5,0,.68.25.87.9.87s.79-.31.79-.89c0-2.45,0-4.91.11-7.36a3.1,3.1,0,0,1,3.45-2.64c1.48.08,2.26,1.08,2.27,2.89,0,2.37,0,4.75,0,7.12,0,.69.25.86.89.86s.9-.18.89-.86c0-2.26,0-4.52,0-6.78a3.14,3.14,0,0,1,2.87-3.2,2.28,2.28,0,0,1,2.87,2.19,9.8,9.8,0,0,1,.08,1.43c0,2.15,0,4.29,0,6.44,0,.6.23.8.81.77s.88,0,.87-.71c0-2.87,0-5.75-.07-8.63A3.36,3.36,0,0,0,87.52,76.36Z"></path><path class="cls-1" d="M187.85,85.68c0-1.7,0-3.39,0-5.08,0-1.39-.26-2.74-1.57-3.54a6.1,6.1,0,0,0-5.68-.49,3.54,3.54,0,0,0-2.32,3.54h1.88c.4-2.1,1.5-2.84,3.62-2.44,1.38.25,2.33,1.42,2,3.84a18.68,18.68,0,0,0-2.24.23,22.76,22.76,0,0,0-4.29,1.14,3.1,3.1,0,0,0-1.37,4.2,4.2,4.2,0,0,0,4.74,2.06A28,28,0,0,0,186,87.5c.82,1.52,1.83,1.93,3.34,1.22V87.31C187.92,87.19,187.86,87.13,187.85,85.68Zm-6.57,1.79a1.79,1.79,0,0,1-1.53-1.5,1.7,1.7,0,0,1,1-2,14.64,14.64,0,0,1,4.95-1.14C186.34,86,184.15,88.19,181.28,87.47Z"></path><path class="cls-1" d="M147.89,83h6.86c1.59,0,1.59,0,1.46-1.57a5.53,5.53,0,0,0-4.59-5.23,6,6,0,0,0-6.27,3.17,7.9,7.9,0,0,0-.65,4,6,6,0,0,0,8.14,5.47,5.4,5.4,0,0,0,3.4-3.74l-1.91-.23c-.83,2.33-2.27,3.24-4.3,2.78a4.07,4.07,0,0,1-3.1-4.69Zm3-5.36A3.53,3.53,0,0,1,154,81.51h-7C147.23,78.92,148.77,77.44,150.84,77.65Z"></path><path class="cls-1" d="M106.1,87.41c-1.2,0-1.27-.84-1.27-1.7,0-1.86,0-3.72,0-5.59A3.33,3.33,0,0,0,103,77a5.8,5.8,0,0,0-5.44-.25,3.51,3.51,0,0,0-2.2,3.18,6,6,0,0,1,.7.12c.73.22,1.13,0,1.26-.8a1.94,1.94,0,0,1,1.82-1.63,6.22,6.22,0,0,1,1.67,0,2.16,2.16,0,0,1,2,1.94c.34,2.28.4,2-1.74,2.27a24.62,24.62,0,0,0-4.2.85,3,3,0,0,0-2.2,2.91,3.11,3.11,0,0,0,2,3.12A4.92,4.92,0,0,0,102,88l1-.78c.15.27.27.46.37.65a2,2,0,0,0,2.6.93,1.09,1.09,0,0,0,.45-.77C106.49,87.82,106.23,87.41,106.1,87.41Zm-7.25.27a2.2,2.2,0,0,1-2.11-1.74,1.84,1.84,0,0,1,1.35-2.17,27.43,27.43,0,0,1,4.41-1c.82-.12.46.7.57,1.05A3.69,3.69,0,0,1,98.85,87.68Z"></path><path class="cls-1" d="M118.79,82.86c2.54,0,5.07,0,7.61,0,.57,0,.79-.15.79-.77a5.74,5.74,0,0,0-3.91-5.63,5.85,5.85,0,0,0-6.51,2.39,7.2,7.2,0,0,0-1,4.29,5.87,5.87,0,0,0,6.72,6A5.26,5.26,0,0,0,127,85.3c-1.43-.35-1.42-.34-2.1.85a3.1,3.1,0,0,1-2.8,1.73c-2.39,0-3.92-1.3-4.35-3.82C117.6,83,117.75,82.86,118.79,82.86Zm2.52-5.35A3.83,3.83,0,0,1,125.18,81c0,.21-.29.59-.46.6-2.25,0-4.51,0-6.8,0A3.78,3.78,0,0,1,121.31,77.51Z"></path><path class="cls-1" d="M222.53,82.5a15.71,15.71,0,0,0-1.68-.55c-1.11-.32-2.23-.59-3.33-1a1.46,1.46,0,0,1-1.19-1.54,1.71,1.71,0,0,1,1.28-1.61,3.64,3.64,0,0,1,3.86.72,6.82,6.82,0,0,1,1,1.78l2.05-.27a12.46,12.46,0,0,0-1.16-2.14,6,6,0,0,0-7.77-.68,3.71,3.71,0,0,0-1.06,1.48,3,3,0,0,0,2,4c1.36.46,2.78.73,4.17,1.06s1.91.87,1.91,1.9a1.94,1.94,0,0,1-1.89,2,8.41,8.41,0,0,1-2.83-.11,2.27,2.27,0,0,1-1.72-1.9c-.06-.29-.13-.59-.22-1l-2.11.34A4.38,4.38,0,0,0,216,88.42a6.66,6.66,0,0,0,7.07-.14,3.25,3.25,0,0,0,1.6-3.16A3,3,0,0,0,222.53,82.5Z"></path><path class="cls-1" d="M51.94,76.64c-.68,0-.88.23-.87.89,0,2.11,0,4.23,0,6.35a3.44,3.44,0,0,1-3.26,3.56,2.51,2.51,0,0,1-3.12-2.7c0-2.45,0-4.91,0-7.36,0-.55-.1-.89-.73-.84s-1.06,0-1.05.77c0,2.82,0,5.64.05,8.46A3.06,3.06,0,0,0,44,88.16a4.55,4.55,0,0,0,6-.37c.27-.24.54-.46,1-.86A7.78,7.78,0,0,1,51.08,88c-.08.72.35.74.89.75s.88-.11.87-.79c0-3.5,0-7,0-10.49C52.85,76.77,52.55,76.65,51.94,76.64Z"></path><path class="cls-1" d="M66.35,87.58c-1.55,0-1.74-.12-1.76-1.68,0-2,0-4.06,0-6.09,0-1.66,0-1.64,1.66-1.85.23,0,.6-.39.59-.57a1.2,1.2,0,0,0-.52-.76,1.42,1.42,0,0,0-.83-.08c-.74.1-.92-.28-.9-.93s0-1.58,0-2.37-.54-.58-1-.6-.86,0-.84.64,0,1.52,0,2.28c0,1.06,0,1.07-1.11,1-.79-.06-1.12.26-.85,1a1.18,1.18,0,0,0,.91.44c.8,0,1.1.27,1.07,1.09-.06,1.32,0,2.65,0,4h0c0,1.38-.07,2.77,0,4.14,0,.52.37,1.37.73,1.45a10.48,10.48,0,0,0,3,.14c.12,0,.26-.58.31-.9C66.83,87.8,66.51,87.58,66.35,87.58Z"></path><path class="cls-1" d="M112.88,78c.41,0,.72-.07.73-.59s-.1-.75-.64-.77-.94-.09-1.64-.16V73.84c0-.63.11-1.21-.9-1.22s-1,.5-.92,1.17,0,1.3,0,1.95-.32,1-1,.87c-.48,0-1-.16-1.05.58s.36.85.94.79c.86-.09,1.11.3,1.1,1.14,0,2.45,0,4.91,0,7.36,0,2.09.52,2.57,2.64,2.47.25,0,.5,0,.76-.07.57,0,.77-.36.7-.91s-.49-.38-.83-.34c-1,.1-1.33-.14-1.35-1.11-.07-2.29-.08-4.57-.1-6.86C111.32,77.9,111.25,78,112.88,78Z"></path><path class="cls-1" d="M139.29,78.49l-.16-.13-.08-1.78h-1.92V88.81h2v-1c0-1.94,0-3.89,0-5.83,0-2.33,1.29-3.52,3.6-3.55.19,0,.38,0,.65,0v-2A4.66,4.66,0,0,0,139.29,78.49Z"></path><path class="cls-1" d="M193.63,78.71c0-.89-.08-1.52-.11-2.13h-1.86V88.82h1.91v-1.1c0-2,0-4.06.08-6.09A3.1,3.1,0,0,1,197,78.47c.27,0,.54,0,.82,0v-2A4.69,4.69,0,0,0,193.63,78.71Z"></path><path class="cls-1" d="M57.45,70.38c-.74,0-.82.35-.82.94,0,2.74,0,5.47,0,8.21s0,5.59,0,8.38c0,.59.14.86.8.87s.88-.25.87-.89q0-8.3,0-16.59C58.31,70.67,58.15,70.39,57.45,70.38Z"></path><path class="cls-1" d="M70.51,76.62c-.61,0-.67.33-.67.81,0,1.75,0,3.5,0,5.24s0,3.5,0,5.25c0,.6.17.86.81.86s.87-.17.86-.81c0-3.53,0-7,0-10.57C71.51,76.61,71,76.65,70.51,76.62Z"></path><path class="cls-1" d="M70.71,70.38c-.84,0-.94.4-.86,1s-.1,1.13.81,1.13.87-.41.84-1S71.65,70.39,70.71,70.38Z"></path></svg> 