<?xml version="1.0" encoding="UTF-8"?> <svg xmlns="http://www.w3.org/2000/svg" id="Layer_1" data-name="Layer 1" viewBox="0 0 274.47 123.71"><defs><style>.cls-1{fill:#7c7c7c;}</style></defs><g id="Marketing-Tools"><g id="Desktop-HD-Copy"><g id="amex"><g id="american-express-1"><path id="Shape" class="cls-1" d="M231.08,84c0,4.68-3,6.86-8.27,6.86H212.67V86.17h10.14a3.23,3.23,0,0,0,2-.46,2,2,0,0,0,.62-1.41,2.42,2.42,0,0,0-.62-1.56,2.73,2.73,0,0,0-1.87-.46c-4.84-.16-10.92.15-10.92-6.71,0-3.12,2-6.55,7.48-6.55H230V73.7h-9.68a3.67,3.67,0,0,0-2,.31,2.22,2.22,0,0,0-.78,1.71,1.72,1.72,0,0,0,1.09,1.57,8.16,8.16,0,0,0,2,.31h2.81c3,0,4.83.62,6.08,1.71A6.76,6.76,0,0,1,231.08,84Zm-22-4.68C207.83,78.22,206,77.6,203,77.6h-2.81a8.24,8.24,0,0,1-2-.31,1.72,1.72,0,0,1-1.09-1.57,1.83,1.83,0,0,1,.78-1.71,3.71,3.71,0,0,1,2-.31h9.67V69H199.1c-5.62,0-7.49,3.43-7.49,6.55,0,6.86,6.08,6.55,10.92,6.71a2.73,2.73,0,0,1,1.87.46A2.42,2.42,0,0,1,205,84.3a2,2,0,0,1-.63,1.41,3.56,3.56,0,0,1-2,.46H192.23v4.68h10.14c5.31,0,8.27-2.18,8.27-6.86a6.72,6.72,0,0,0-1.56-4.68Zm-20,7H176.79V82h12V77.6h-12V73.54h12.32V69H171.64V90.85h17.47ZM166,70.11c-1.71-.93-3.74-1.09-6.39-1.09h-12V90.85h5.3V82.9h5.62c1.87,0,3,.16,3.74.94.94,1.09.94,3,.94,4.36v2.65h5.14V86.64a7.12,7.12,0,0,0-.78-4,5.92,5.92,0,0,0-2.65-1.87,6,6,0,0,0,3.75-5.78A4.9,4.9,0,0,0,166,70.11ZM136.38,69H119.69L113,76.19,106.58,69H85.52V90.85h20.75L113,83.68l6.4,7.17h10.14V83.52h6.55c4.53,0,9.05-1.24,9.05-7.33C145.12,70.27,140.44,69,136.38,69Zm25.43,9a6.49,6.49,0,0,1-2.49.31l-6.4.15v-5h6.4a4.2,4.2,0,0,1,2.49.47,2,2,0,0,1,1.09,1.87,2.72,2.72,0,0,1-1.09,2.19Zm-25.43,1.09h-6.86V73.54h6.86c1.88,0,3.12.78,3.12,2.65A2.83,2.83,0,0,1,136.38,79.16Zm-20.12.78,8.11-8.58V89Zm-12.64,6.39h-13V82h11.55V77.6H90.67V73.54h13.11l5.77,6.4-5.93,6.39Zm113-33.06h-7.49l-9.83-16.38V53.27h-10.6l-2-4.84H175.7l-2,4.84h-6.09c-2.49,0-5.77-.63-7.64-2.5-1.72-1.87-2.65-4.37-2.65-8.27,0-3.27.47-6.24,2.8-8.58,1.56-1.71,4.37-2.49,8-2.49h5v4.68h-5A5.49,5.49,0,0,0,164,37.36c-.94.93-1.41,2.65-1.41,5s.47,4,1.41,5.15a5.22,5.22,0,0,0,3.58,1.09h2.34l7.49-17.16h7.8L194,52V31.43h8.11l9.21,15.13V31.43h5.3V53.27ZM154.64,31.43h-5.31V53.27h5.31V31.43Zm-11.08.94c-1.72-.94-3.59-.94-6.24-.94h-12V53.27h5.14v-8h5.62c1.87,0,3.12.16,3.9.94.94,1.09.78,3,.78,4.21v2.81h5.3V48.9c0-1.87-.15-2.81-.93-3.9a6.44,6.44,0,0,0-2.5-1.87,6.21,6.21,0,0,0,3.75-5.77A5.41,5.41,0,0,0,143.56,32.37Zm-22,16.37H109.39V44.38h12V39.85h-12V36h12.17V31.43H104.09V53.27h17.47ZM100.19,31.43H91.61l-6.4,14.82L78.35,31.43H69.92V52L61,31.43h-7.8L43.87,53.27h5.62l2-4.84H62.43l2,4.84H75.07V36.11l7.65,17.16h4.52l7.64-17.16V53.27h5.31V31.43Zm84.56,12.32-3.59-8.58-3.59,8.58ZM139.5,40.32a4.75,4.75,0,0,1-2.65.47h-6.4V36h6.4a6.7,6.7,0,0,1,2.65.32,2.29,2.29,0,0,1,.94,2,2.13,2.13,0,0,1-.94,2ZM53.39,43.75,57,35.17l3.59,8.58Z"></path></g></g></g></g></svg> 