<?xml version="1.0" encoding="UTF-8"?> <svg xmlns="http://www.w3.org/2000/svg" id="Layer_1" data-name="Layer 1" viewBox="0 0 97.52 43.1"><defs><style>.cls-1{fill:#222;}.cls-2{fill:#009688;}.cls-3{fill:#fff;}</style></defs><g id="Marketing-Tools"><g id="Desktop-HD-Copy"><g id="Group-3"><circle id="Oval" class="cls-1" cx="22.66" cy="21.55" r="21"></circle><g id="doot-arrow"><g id="next"><g id="Group"><path id="Path" class="cls-2" d="M93.87,21.26h0a.79.79,0,1,0,.79.78.78.78,0,0,0-.79-.78Z"></path><path id="Path-2" data-name="Path" class="cls-2" d="M90.74,21.26h0a.79.79,0,1,0,.78.78.78.78,0,0,0-.78-.78Z"></path><path id="Path-3" data-name="Path" class="cls-2" d="M87.61,21.26h0a.79.79,0,1,0,.78.78.78.78,0,0,0-.78-.78Z"></path><path id="Path-4" data-name="Path" class="cls-2" d="M84.48,21.26h0a.79.79,0,1,0,.78.78.78.78,0,0,0-.78-.78Z"></path><path id="Path-5" data-name="Path" class="cls-2" d="M81.36,21.26h0a.79.79,0,1,0,.78.78.78.78,0,0,0-.78-.78Z"></path><path id="Path-6" data-name="Path" class="cls-2" d="M78.23,21.26h0A.79.79,0,1,0,79,22a.78.78,0,0,0-.78-.78Z"></path><path id="Path-7" data-name="Path" class="cls-2" d="M75.1,21.26h0a.79.79,0,1,0,.79.78.78.78,0,0,0-.79-.78Z"></path><path id="Path-8" data-name="Path" class="cls-2" d="M90.74,18.13h0a.78.78,0,1,0,.78.78.78.78,0,0,0-.78-.78Z"></path><path id="Path-9" data-name="Path" class="cls-2" d="M87.61,18.13h0a.78.78,0,1,0,.78.78.78.78,0,0,0-.78-.78Z"></path><path id="Path-10" data-name="Path" class="cls-2" d="M84.48,18.13h0a.78.78,0,1,0,.78.78.78.78,0,0,0-.78-.78Z"></path><path id="Path-11" data-name="Path" class="cls-2" d="M81.36,18.13h0a.78.78,0,1,0,.78.78.78.78,0,0,0-.78-.78Z"></path><path id="Path-12" data-name="Path" class="cls-2" d="M78.23,18.13h0a.78.78,0,1,0,.78.78.78.78,0,0,0-.78-.78Z"></path><path id="Path-13" data-name="Path" class="cls-2" d="M87.61,15h0a.79.79,0,1,0,.78.78A.78.78,0,0,0,87.6,15Z"></path><path id="Path-14" data-name="Path" class="cls-2" d="M84.48,15h0a.79.79,0,1,0,.78.78.78.78,0,0,0-.78-.78Z"></path><path id="Path-15" data-name="Path" class="cls-2" d="M81.36,15h0a.79.79,0,1,0,.78.78.78.78,0,0,0-.78-.78Z"></path><path id="Path-16" data-name="Path" class="cls-2" d="M78.23,15h0a.79.79,0,1,0,.78.78.78.78,0,0,0-.78-.78Z"></path><path id="Path-17" data-name="Path" class="cls-2" d="M84.48,11.85h0a.79.79,0,1,0,.78.79.78.78,0,0,0-.78-.79Z"></path><path id="Path-18" data-name="Path" class="cls-2" d="M81.36,11.85h0a.79.79,0,1,0,.78.79.78.78,0,0,0-.78-.79Z"></path><path id="Path-19" data-name="Path" class="cls-2" d="M78.23,11.85h0a.79.79,0,1,0,.78.79.78.78,0,0,0-.78-.79Z"></path><path id="Path-20" data-name="Path" class="cls-2" d="M81.36,8.72h0a.78.78,0,0,0-.78.78.78.78,0,1,0,1.56,0,.78.78,0,0,0-.78-.78Z"></path><path id="Path-21" data-name="Path" class="cls-2" d="M78.23,8.72h0a.78.78,0,0,0-.78.78A.78.78,0,1,0,79,9.5a.78.78,0,0,0-.78-.78Z"></path><path id="Path-22" data-name="Path" class="cls-2" d="M78.23,5.58h0a.79.79,0,1,0,.78.79.78.78,0,0,0-.78-.79Z"></path><path id="Path-23" data-name="Path" class="cls-2" d="M90.74,24.4h0a.78.78,0,1,0,.78.78.78.78,0,0,0-.78-.78Z"></path><path id="Path-24" data-name="Path" class="cls-2" d="M87.61,24.4h0a.78.78,0,1,0,.78.78.78.78,0,0,0-.78-.78Z"></path><path id="Path-25" data-name="Path" class="cls-2" d="M84.48,24.4h0a.78.78,0,1,0,.78.78.78.78,0,0,0-.78-.78Z"></path><path id="Path-26" data-name="Path" class="cls-2" d="M81.36,24.4h0a.78.78,0,1,0,.78.78.78.78,0,0,0-.78-.78Z"></path><path id="Path-27" data-name="Path" class="cls-2" d="M78.23,24.4h0a.78.78,0,1,0,.78.78.78.78,0,0,0-.78-.78Z"></path><path id="Path-28" data-name="Path" class="cls-2" d="M87.61,27.53h0a.79.79,0,1,0,.78.79.78.78,0,0,0-.78-.79Z"></path><path id="Path-29" data-name="Path" class="cls-2" d="M84.48,27.53h0a.79.79,0,1,0,.78.79.78.78,0,0,0-.78-.79Z"></path><path id="Path-30" data-name="Path" class="cls-2" d="M81.36,27.53h0a.79.79,0,1,0,.78.79.78.78,0,0,0-.78-.79Z"></path><path id="Path-31" data-name="Path" class="cls-2" d="M78.23,27.53h0a.79.79,0,1,0,.78.79.78.78,0,0,0-.78-.79Z"></path><path id="Path-32" data-name="Path" class="cls-2" d="M84.48,30.67h0a.79.79,0,1,0,.78.78.78.78,0,0,0-.78-.78Z"></path><path id="Path-33" data-name="Path" class="cls-2" d="M81.36,30.67h0a.79.79,0,1,0,.78.78.78.78,0,0,0-.78-.78Z"></path><path id="Path-34" data-name="Path" class="cls-2" d="M78.23,30.67h0a.79.79,0,1,0,.78.78.78.78,0,0,0-.78-.78Z"></path><path id="Path-35" data-name="Path" class="cls-2" d="M81.36,33.8h0a.79.79,0,0,0-.78.79.78.78,0,0,0,1.56,0,.79.79,0,0,0-.78-.79Z"></path><path id="Path-36" data-name="Path" class="cls-2" d="M78.23,33.8h0a.79.79,0,0,0-.78.79.78.78,0,1,0,1.56,0,.79.79,0,0,0-.78-.79Z"></path><path id="Path-37" data-name="Path" class="cls-2" d="M78.23,36.94h0a.79.79,0,1,0,.78.78.78.78,0,0,0-.78-.78Z"></path><path id="Path-38" data-name="Path" class="cls-2" d="M72,21.26h0a.79.79,0,1,0,.78.78.78.78,0,0,0-.78-.78Z"></path><path id="Path-39" data-name="Path" class="cls-2" d="M68.84,21.26h0a.79.79,0,1,0,.78.78.78.78,0,0,0-.78-.78Z"></path><path id="Path-40" data-name="Path" class="cls-2" d="M65.71,21.26h0a.79.79,0,1,0,.78.78.78.78,0,0,0-.78-.78Z"></path><path id="Path-41" data-name="Path" class="cls-2" d="M62.59,21.26h0a.79.79,0,1,0,.78.78.78.78,0,0,0-.78-.78Z"></path><path id="Path-42" data-name="Path" class="cls-2" d="M59.46,21.26h0a.79.79,0,1,0,.78.78.78.78,0,0,0-.78-.78Z"></path><path id="Path-43" data-name="Path" class="cls-2" d="M75.1,24.4h0a.78.78,0,1,0,.79.78.78.78,0,0,0-.79-.78Z"></path><path id="Path-44" data-name="Path" class="cls-2" d="M72,24.4h0a.78.78,0,1,0,.78.78A.78.78,0,0,0,72,24.4Z"></path><path id="Path-45" data-name="Path" class="cls-2" d="M68.84,24.4h0a.78.78,0,1,0,.78.78.78.78,0,0,0-.78-.78Z"></path><path id="Path-46" data-name="Path" class="cls-2" d="M65.71,24.4h0a.78.78,0,1,0,.78.78.78.78,0,0,0-.78-.78Z"></path><path id="Path-47" data-name="Path" class="cls-2" d="M62.59,24.4h0a.78.78,0,1,0,.78.78.78.78,0,0,0-.78-.78Z"></path><path id="Path-48" data-name="Path" class="cls-2" d="M59.46,24.4h0a.78.78,0,1,0,0,1.56.78.78,0,1,0,0-1.56Z"></path><path id="Path-49" data-name="Path" class="cls-2" d="M75.1,18.13h0a.78.78,0,1,0,.79.78.78.78,0,0,0-.79-.78Z"></path><path id="Path-50" data-name="Path" class="cls-2" d="M72,18.13h0a.78.78,0,1,0,.78.78A.77.77,0,0,0,72,18.13Z"></path><path id="Path-51" data-name="Path" class="cls-2" d="M68.84,18.13h0a.78.78,0,1,0,.78.78A.77.77,0,0,0,68.84,18.13Z"></path><path id="Path-52" data-name="Path" class="cls-2" d="M65.71,18.13h0a.78.78,0,1,0,.78.78A.77.77,0,0,0,65.71,18.13Z"></path><path id="Path-53" data-name="Path" class="cls-2" d="M62.59,18.13h0a.78.78,0,1,0,.78.78A.77.77,0,0,0,62.59,18.13Z"></path><path id="Path-54" data-name="Path" class="cls-2" d="M59.46,18.13h0a.78.78,0,1,0,0,1.56.78.78,0,0,0,.78-.78A.77.77,0,0,0,59.46,18.13Z"></path></g><path id="Path-55" data-name="Path" d="M93.87,22.83a.79.79,0,0,1,0-1.57h0a.79.79,0,0,1,0,1.57Z"></path><path id="Path-56" data-name="Path" d="M90.74,22.83a.79.79,0,0,1,0-1.57h0a.79.79,0,0,1,0,1.57Z"></path><path id="Path-57" data-name="Path" d="M87.61,22.83a.79.79,0,0,1,0-1.57h0a.79.79,0,0,1,0,1.57Z"></path><path id="Path-58" data-name="Path" d="M84.48,22.83a.79.79,0,0,1,0-1.57h0a.79.79,0,1,1,0,1.57Z"></path><path id="Path-59" data-name="Path" d="M81.36,22.83a.79.79,0,1,1,0-1.57h0a.79.79,0,0,1,0,1.57Z"></path><path id="Path-60" data-name="Path" d="M78.23,22.83a.79.79,0,0,1,0-1.57h0a.79.79,0,0,1,0,1.57Z"></path><path id="Path-61" data-name="Path" d="M75.1,22.83a.79.79,0,0,1,0-1.57h0a.79.79,0,0,1,0,1.57Z"></path><path id="Path-62" data-name="Path" d="M90.74,19.69a.78.78,0,0,1-.78-.78.79.79,0,0,1,.78-.79h0a.79.79,0,0,1,.78.79A.78.78,0,0,1,90.74,19.69Z"></path><path id="Path-63" data-name="Path" d="M87.61,19.69a.78.78,0,0,1-.78-.78.79.79,0,0,1,.78-.79h0a.79.79,0,0,1,.78.79A.78.78,0,0,1,87.61,19.69Z"></path><path id="Path-64" data-name="Path" d="M84.48,19.69a.78.78,0,0,1-.78-.78.79.79,0,0,1,.78-.79h0a.79.79,0,0,1,.79.79A.78.78,0,0,1,84.48,19.69Z"></path><path id="Path-65" data-name="Path" d="M81.36,19.69a.78.78,0,0,1-.79-.78.79.79,0,0,1,.79-.79h0a.79.79,0,0,1,.78.79A.78.78,0,0,1,81.36,19.69Z"></path><path id="Path-66" data-name="Path" d="M78.23,19.69a.78.78,0,0,1-.78-.78.79.79,0,0,1,.78-.79h0a.79.79,0,0,1,.78.79A.78.78,0,0,1,78.23,19.69Z"></path><path id="Path-67" data-name="Path" d="M87.61,16.56a.79.79,0,0,1,0-1.57h0a.79.79,0,0,1,0,1.57Z"></path><path id="Path-68" data-name="Path" d="M84.48,16.56a.79.79,0,0,1,0-1.57h0a.79.79,0,1,1,0,1.57Z"></path><path id="Path-69" data-name="Path" d="M81.36,16.56a.79.79,0,1,1,0-1.57h0a.79.79,0,0,1,0,1.57Z"></path><path id="Path-70" data-name="Path" d="M78.23,16.56a.79.79,0,0,1,0-1.57h0a.79.79,0,0,1,0,1.57Z"></path><path id="Path-71" data-name="Path" d="M84.48,13.42a.79.79,0,0,1,0-1.57h0a.79.79,0,1,1,0,1.57Z"></path><path id="Path-72" data-name="Path" d="M81.36,13.42a.79.79,0,1,1,0-1.57h0a.79.79,0,0,1,0,1.57Z"></path><path id="Path-73" data-name="Path" d="M78.23,13.42a.79.79,0,0,1,0-1.57h0a.79.79,0,0,1,0,1.57Z"></path><path id="Path-74" data-name="Path" d="M81.36,10.29a.79.79,0,0,1-.79-.79.78.78,0,0,1,.79-.78h0a.78.78,0,0,1,.78.78A.79.79,0,0,1,81.36,10.29Z"></path><path id="Path-75" data-name="Path" d="M78.23,10.29a.79.79,0,0,1-.78-.79.78.78,0,0,1,.78-.78h0A.78.78,0,0,1,79,9.5.79.79,0,0,1,78.23,10.29Z"></path><path id="Path-76" data-name="Path" d="M78.23,7.15a.79.79,0,0,1,0-1.57h0a.79.79,0,0,1,0,1.57Z"></path><path id="Path-77" data-name="Path" d="M90.74,26a.78.78,0,0,1,0-1.56h0a.78.78,0,0,1,0,1.56Z"></path><path id="Path-78" data-name="Path" d="M87.61,26a.78.78,0,0,1,0-1.56h0a.78.78,0,0,1,0,1.56Z"></path><path id="Path-79" data-name="Path" d="M84.48,26a.78.78,0,0,1,0-1.56h0a.78.78,0,1,1,0,1.56Z"></path><path id="Path-80" data-name="Path" d="M81.36,26a.78.78,0,1,1,0-1.56h0a.78.78,0,0,1,0,1.56Z"></path><path id="Path-81" data-name="Path" d="M78.23,26a.78.78,0,0,1,0-1.56h0a.78.78,0,0,1,0,1.56Z"></path><path id="Path-82" data-name="Path" d="M87.61,29.1a.79.79,0,0,1,0-1.57h0a.79.79,0,0,1,0,1.57Z"></path><path id="Path-83" data-name="Path" d="M84.48,29.1a.79.79,0,0,1,0-1.57h0a.79.79,0,1,1,0,1.57Z"></path><path id="Path-84" data-name="Path" d="M81.36,29.1a.79.79,0,1,1,0-1.57h0a.79.79,0,0,1,0,1.57Z"></path><path id="Path-85" data-name="Path" d="M78.23,29.1a.79.79,0,0,1,0-1.57h0a.79.79,0,0,1,0,1.57Z"></path><path id="Path-86" data-name="Path" d="M84.48,32.24a.79.79,0,0,1,0-1.57h0a.79.79,0,1,1,0,1.57Z"></path><path id="Path-87" data-name="Path" d="M81.36,32.24a.79.79,0,1,1,0-1.57h0a.79.79,0,0,1,0,1.57Z"></path><path id="Path-88" data-name="Path" d="M78.23,32.24a.79.79,0,0,1,0-1.57h0a.79.79,0,0,1,0,1.57Z"></path><path id="Path-89" data-name="Path" d="M81.36,35.37a.78.78,0,0,1-.79-.78.79.79,0,0,1,.79-.79h0a.79.79,0,0,1,.78.79A.78.78,0,0,1,81.36,35.37Z"></path><path id="Path-90" data-name="Path" d="M78.23,35.37a.78.78,0,0,1-.78-.78.79.79,0,0,1,.78-.79h0a.79.79,0,0,1,.78.79A.78.78,0,0,1,78.23,35.37Z"></path><path id="Path-91" data-name="Path" d="M78.23,38.51a.79.79,0,0,1,0-1.57h0a.79.79,0,0,1,0,1.57Z"></path><path id="Path-92" data-name="Path" d="M72,22.83a.79.79,0,0,1,0-1.57h0a.79.79,0,0,1,0,1.57Z"></path><path id="Path-93" data-name="Path" d="M68.84,22.83a.79.79,0,0,1,0-1.57h0a.79.79,0,0,1,0,1.57Z"></path><path id="Path-94" data-name="Path" d="M65.71,22.83a.79.79,0,0,1,0-1.57h0a.79.79,0,1,1,0,1.57Z"></path><path id="Path-95" data-name="Path" d="M62.59,22.83a.79.79,0,1,1,0-1.57h0a.79.79,0,0,1,0,1.57Z"></path><path id="Path-96" data-name="Path" d="M59.46,22.83a.79.79,0,0,1,0-1.57h0a.79.79,0,0,1,0,1.57Z"></path><path id="Path-97" data-name="Path" d="M75.1,26a.78.78,0,0,1,0-1.56h0a.78.78,0,0,1,0,1.56Z"></path><path id="Path-98" data-name="Path" d="M72,26a.78.78,0,0,1,0-1.56h0A.78.78,0,0,1,72,26Z"></path><path id="Path-99" data-name="Path" d="M68.84,26a.78.78,0,0,1,0-1.56h0a.78.78,0,0,1,0,1.56Z"></path><path id="Path-100" data-name="Path" d="M65.71,26a.78.78,0,1,1,0-1.56h0a.78.78,0,1,1,0,1.56Z"></path><path id="Path-101" data-name="Path" d="M62.59,26a.78.78,0,1,1,0-1.56h0a.78.78,0,1,1,0,1.56Z"></path><path id="Path-102" data-name="Path" d="M59.46,26a.78.78,0,0,1,0-1.56h0a.78.78,0,0,1,0,1.56Z"></path><path id="Path-103" data-name="Path" d="M75.1,19.69a.78.78,0,0,1-.78-.78.79.79,0,0,1,.78-.79h0a.79.79,0,0,1,.78.79A.78.78,0,0,1,75.1,19.69Z"></path><path id="Path-104" data-name="Path" d="M72,19.69a.78.78,0,0,1-.78-.78.79.79,0,0,1,.78-.79h0a.79.79,0,0,1,.78.79A.78.78,0,0,1,72,19.69Z"></path><path id="Path-105" data-name="Path" d="M68.84,19.69a.78.78,0,0,1-.78-.78.79.79,0,0,1,.78-.79h0a.79.79,0,0,1,.78.79A.78.78,0,0,1,68.84,19.69Z"></path><path id="Path-106" data-name="Path" d="M65.71,19.69a.78.78,0,0,1-.78-.78.79.79,0,0,1,.78-.79h0a.79.79,0,0,1,.79.79A.78.78,0,0,1,65.71,19.69Z"></path><path id="Path-107" data-name="Path" d="M62.59,19.69a.78.78,0,0,1-.79-.78.79.79,0,0,1,.79-.79h0a.79.79,0,0,1,.78.79A.78.78,0,0,1,62.59,19.69Z"></path><path id="Path-108" data-name="Path" d="M59.46,19.69a.78.78,0,0,1-.78-.78.79.79,0,0,1,.78-.79h0a.79.79,0,0,1,.78.79A.78.78,0,0,1,59.46,19.69Z"></path></g></g></g></g></g><path class="cls-3" d="M17,27a.49.49,0,0,1,.14-.39l6.69-7.95A3.88,3.88,0,0,0,24.93,16a2,2,0,0,0-2.07-2.19c-1.29,0-2.08.79-2.24,2.24,0,.17-.12.25-.31.23l-3.08-.51a.28.28,0,0,1-.23-.33c.2-2.64,2.33-4.93,6-4.93s5.85,2.35,5.85,5.43a6.76,6.76,0,0,1-1.93,4.62l-5,5.91v.05h6.67a.27.27,0,0,1,.28.28v2.78a.27.27,0,0,1-.28.28H17.26a.27.27,0,0,1-.28-.28Z"></path></svg> 