<?xml version="1.0" encoding="UTF-8"?> <svg xmlns="http://www.w3.org/2000/svg" id="Layer_1" data-name="Layer 1" viewBox="0 0 274.47 123.71"><defs><style>.cls-1{fill:#7c7c7c;}</style></defs><g id="Marketing-Tools"><g id="Desktop-HD-Copy"><g id="citi"><path id="Shape" class="cls-1" d="M126.68,47.56h-9.09V92.08h9.09Zm8.33.07V56h7.65V81.1a12.26,12.26,0,0,0,2.78,8.34,9.32,9.32,0,0,0,7.33,3.32,14.38,14.38,0,0,0,8-2l.14-.08v-.14l2.17-8.47-.54.34a13,13,0,0,1-6.72,2.22c-2.83,0-4.26-1.69-4.26-5V56h9.28V47.63h-9.28V33.72l-9,4.81v9.1Zm44-.07h-9.17V92.08H179Zm-66.63,7-.19-.14a19.48,19.48,0,0,0-15.72-7.59c-6.58,0-12,2-16.33,6-4.6,4.23-6.92,9.91-6.92,17s2.32,12.77,6.92,17c4.27,4,9.75,6,16.33,6a19.58,19.58,0,0,0,15.72-7.54l.19-.15L107.23,79l-.19.19c-3.34,3.32-6.92,5-10.77,5a13.3,13.3,0,0,1-10-4.08,13.86,13.86,0,0,1-3.92-10.25A14.09,14.09,0,0,1,86.3,59.57a13.5,13.5,0,0,1,10-4c3.85,0,7.43,1.71,10.77,5l.19.2,5.14-6.23Z"></path><path id="Path" class="cls-1" d="M122.07,40.23a37.89,37.89,0,0,1,12.14-8.42A34.69,34.69,0,0,1,148.1,29a35.52,35.52,0,0,1,14,2.83,38.71,38.71,0,0,1,12,8.42l.14.13h10.43l-.39-.61a44.67,44.67,0,0,0-15.93-13.82,43.72,43.72,0,0,0-40.53,0,44.44,44.44,0,0,0-15.91,13.82l-.41.61H122Z"></path><path id="Shape-2" data-name="Shape" class="cls-1" d="M126.68,47.56h-9.09V92.08h9.09Zm8.33.07V56h7.65V81.1a12.26,12.26,0,0,0,2.78,8.34,9.32,9.32,0,0,0,7.33,3.32,14.38,14.38,0,0,0,8-2l.14-.08v-.14l2.17-8.47-.54.34a13,13,0,0,1-6.72,2.22c-2.83,0-4.26-1.69-4.26-5V56h9.28V47.63h-9.28V33.72l-9,4.81v9.1Zm44-.07h-9.17V92.08H179Zm-66.63,7-.19-.14a19.48,19.48,0,0,0-15.72-7.59c-6.58,0-12,2-16.33,6-4.6,4.23-6.92,9.91-6.92,17s2.32,12.77,6.92,17c4.27,4,9.75,6,16.33,6a19.58,19.58,0,0,0,15.72-7.54l.19-.15L107.23,79l-.19.19c-3.34,3.32-6.92,5-10.77,5a13.3,13.3,0,0,1-10-4.08,13.86,13.86,0,0,1-3.92-10.25A14.09,14.09,0,0,1,86.3,59.57a13.5,13.5,0,0,1,10-4c3.85,0,7.43,1.71,10.77,5l.19.2,5.14-6.23Z"></path><path id="Path-2" data-name="Path" class="cls-1" d="M122.07,40.23a37.89,37.89,0,0,1,12.14-8.42A34.69,34.69,0,0,1,148.1,29a35.52,35.52,0,0,1,14,2.83,38.71,38.71,0,0,1,12,8.42l.14.13h10.43l-.39-.61a44.67,44.67,0,0,0-15.93-13.82,43.72,43.72,0,0,0-40.53,0,44.44,44.44,0,0,0-15.91,13.82l-.41.61H122Z"></path></g></g></g></svg> 