<?xml version="1.0" encoding="UTF-8"?> <svg xmlns="http://www.w3.org/2000/svg" xmlns:xlink="http://www.w3.org/1999/xlink" id="Layer_1" data-name="Layer 1" viewBox="0 0 274.47 123.71"><defs><style>.cls-1{fill:#fff;}.cls-1,.cls-3{fill-rule:evenodd;}.cls-2{mask:url(#mask);}.cls-3{fill:#7c7c7c;}.cls-4{mask:url(#mask-2);}</style><mask id="mask" x="4.83" y="36.08" width="56.13" height="46.87" maskUnits="userSpaceOnUse"><g id="mask-3"><polygon id="path-2" class="cls-1" points="4.83 36.08 60.96 36.08 60.96 82.95 4.83 82.95 4.83 36.08"></polygon></g></mask><mask id="mask-2" x="230.02" y="43.91" width="40.63" height="24.77" maskUnits="userSpaceOnUse"><g id="mask-5"><polygon id="path-4" class="cls-1" points="230.02 43.91 270.65 43.91 270.65 68.68 230.02 68.68 230.02 43.91"></polygon></g></mask></defs><g id="Marketing-Tools"><g id="Desktop-HD-Copy"><g id="Swagbucks"><g id="Group-23"><g id="Group-3"><g class="cls-2"><path id="Fill-1" class="cls-3" d="M43.14,51.4c-3.6,2.51-6.79,5.6-10.2,8.38a6.7,6.7,0,0,1-2.71,1.62,3.26,3.26,0,0,1-2.57-.94c-.37-.42-.14-1.69.22-2.38a7.28,7.28,0,0,1,1.86-1.9c1.46-1.31,3-2.56,4.43-3.88a2.78,2.78,0,0,0,.89-3.23c-.94-2.52-4.26-3.71-6.34-2a90.16,90.16,0,0,0-8.22,7.4c-2.57,2.66-2.89,6-.9,8.84,3.86,5.4,10.42,8.43,17.14,3.25,3.3-2.53,6.34-5.41,9.58-8a7.71,7.71,0,0,1,3.25-1.64A2.93,2.93,0,0,1,51.86,58c.33.48,0,1.55-.32,2.28a3.31,3.31,0,0,1-1.08,1.17Q43,67.91,35.57,74.3c-1.9,1.62-3.72,1.68-5.64,0Q22.43,68,15,61.55c-2.12-1.85-2.14-3.21-.08-5,3.91-3.49,8-6.82,11.85-10.33,4.55-4.11,5.84-2.5,9.18.42a25.64,25.64,0,0,0,3.67,2.83c1.66,1,3.89.15,5.24-1.76,1-1.41.82-2.47-.91-4a70,70,0,0,0-6.32-5.24c-3.37-2.33-7.1-3.33-10.91-1.1A51.4,51.4,0,0,0,20,42.22c-4.12,3.43-8.22,6.89-12.13,10.55s-4,7.64-.7,11.74a14,14,0,0,0,1.75,1.78Q17,73.21,25.07,80.08A11.41,11.41,0,0,0,32,83a11.89,11.89,0,0,0,8.41-3c4.22-3.5,8.36-7.08,12.48-10.68a69,69,0,0,0,6-5.62C61.21,61.1,61.59,58,60,55.45c-3.73-5.76-10.11-8.74-16.82-4.05"></path></g></g><g id="Group-6"><g class="cls-4"><path id="Fill-4" class="cls-3" d="M261,55.35c2,0,3.93,0,5.9,0,3.26,0,3.58-.29,3.73-3.88-1.38-.15-2.77-.41-4.17-.46-4.53-.14-9.18-1.07-13.37,1.63-2.14,3.83-1.38,6.8,2.09,8,1.91.66,3.87,1.18,5.8,1.82a15.76,15.76,0,0,1,1.77.83l0,.58a16.71,16.71,0,0,1-2.49.45c-3.28.05-6.56.07-9.83,0a2.53,2.53,0,0,1-1.7-.91c-.94-1.28-1.7-2.69-2.62-4.18a15.25,15.25,0,0,0,6.25-7.38.65.65,0,0,1,0-.31l-6.43-.21c-.77.62-1.59,1.19-2.3,1.86-1.61,1.51-3.16,3.08-5,4.91.77-4.32,1.42-8,2.12-11.74.23-1.26-.18-1.92-1.44-2.16-4.22-.82-5.56.06-6.28,4.18,0,.18-.11.34-.14.52-1,5.8-2,11.6-2.83,17.42-.09.63.47,1.93.81,2,1.81.16,3.78.4,5.41-.19.8-.28,1-2.28,1.45-3.5.1-.28.05-.65.21-.86.39-.51.84-1.3,1.31-1.33a2.58,2.58,0,0,1,1.88.87,9,9,0,0,1,1.53,2.8c.72,2.11,2.28,2.5,4.22,2.49,3.21,0,6.43.1,9.64.11,2.55,0,5.11.07,7.65-.09,3.13-.21,5.18-2,5.61-4.6.36-2.15-1.17-4.27-4.06-5.4-1.72-.66-3.52-1.09-5.26-1.69A8.54,8.54,0,0,1,259,56c.05-.16.11-.32.16-.49.62-.06,1.24-.16,1.86-.17"></path></g></g><path id="Fill-7" class="cls-3" d="M123.57,51.25c-1.94-.09-3.89,0-5.55,0-1,3.85-1.9,7.42-2.89,11A7.6,7.6,0,0,1,114,64l-.46-.24c-.2-3.5-.43-7-.57-10.5-.05-1.19-.58-1.77-1.71-1.83-1.66-.1-3.32-.21-5-.23-3.21,0-3.47.31-4.08,3.4-.55,2.79-1.29,5.55-2,8.29-.13.49-.7.85-1.42,1.68-.12-1.13-.2-1.64-.22-2.16-.11-3-.26-6.06-.3-9.1,0-1.52-.66-2.19-2.17-2.14-1.13,0-2.26,0-3.39,0-1.46,0-2,.63-1.91,2.08.41,4.33.77,8.66,1.16,13a2,2,0,0,0,2.13,2c2.07.08,4.15.11,6.22.06A5,5,0,0,0,105,64.88c.69-1.83,1.23-3.73,1.76-5.62.32-1.16.51-2.37.76-3.56l.71,0c0,3.43,0,6.85,0,10.28,0,1.44.61,2.19,2,2.21a30.2,30.2,0,0,0,6.53-.25,6,6,0,0,0,3.49-2.42,50,50,0,0,0,3-6.6c.36-1.42.73-2.84,1.1-4.25a8.88,8.88,0,0,1,.34-1.72c.41-1.09-.06-1.7-1.06-1.75"></path><path id="Fill-9" class="cls-3" d="M159.45,57.68c-.24,3.18-1.68,5.2-4.75,6-1.5.42-2.16,0-2.09-1.61a20,20,0,0,1,.57-3.85c.65-2.68,1.35-3.18,4.08-3.19,2.31,0,2.37.29,2.19,2.61m6.33-6.12c-4.15-.27-8.3-.64-12.46-.67-3.26,0-5.83,1.57-6.79,4.79a30,30,0,0,0-1.29,7.68c-.09,3.42,2,5.2,5.41,5.24a7.87,7.87,0,0,0,2.47-.26c1.82-.57,3.6-1.28,5.47-2-.38,1.92-1.44,3.44-3.42,3.77a63.77,63.77,0,0,1-7.95.67c-1.55.06-2.4.43-2.53,2.19s1.15,1.91,2.26,2a70,70,0,0,0,8.18.37c5.61-.17,9-3.05,10.05-8.56.85-4.37,1.5-8.79,2.22-13.18a1.59,1.59,0,0,0-1.62-2.07"></path><path id="Fill-11" class="cls-3" d="M180.38,62.56c-.72,1.88-2.71,2.29-5.93,1.56.31-1.78.53-3.59,1-5.36s3.35-3.4,4.95-2.87a2,2,0,0,1,1.1,1.5,20.85,20.85,0,0,1-1.07,5.17m3-11.68a45.54,45.54,0,0,0-6.91,1.4c.19-1.22.37-2.55.61-3.88.76-4.15.51-4.43-3.8-4.27l-.54,0c-1.79,0-2.62.88-2.89,2.66-1,6.47-2,12.93-3.14,19.37-.17,1,.09,1.55,1,1.65a87.71,87.71,0,0,0,10.81,1c5.72-.11,8.67-2.5,9.81-7.33a22.73,22.73,0,0,0,.57-5.13c0-3.57-2-5.64-5.56-5.47"></path><path id="Fill-13" class="cls-3" d="M133.81,63.53c-2.16.88-2.82.43-2.83-1.91.16-1,.29-2.12.5-3.16.56-2.82,2.48-4.06,5.25-3.32a1.7,1.7,0,0,1,1.08,1c.64,2.74-1.35,6.32-4,7.41m10.65-12c-3.91-.22-7.82-.61-11.73-.65a8.68,8.68,0,0,0-7.62,3.89c-.4,1.53-.8,3-1.21,4.58a4.79,4.79,0,0,1-.2,1.22,6.41,6.41,0,0,0,1.11,6.68c1.48,1.89,3.87,1.9,6.11,1.37a17.15,17.15,0,0,0,3.16-1.17c1-.43,1.86-1,2.91-1.54.15.51.24.83.34,1.15.54,1.7,2,1.46,3.27,1.44s2.61-.08,2.88-1.75c.75-4.51,1.47-9,2.21-13.54.17-1-.1-1.62-1.23-1.68"></path><path id="Fill-15" class="cls-3" d="M209.94,51.21c-1.19,0-2.38,0-3.57,0a2.06,2.06,0,0,0-2.27,2c-.31,2.11-.88,4.2-1,6.33s-1.52,3.09-3.24,3.7c-2.06.72-2.81,0-2.45-2.13.4-2.34.84-4.68,1.17-7a4.07,4.07,0,0,0-.19-2.39c-.57-1-6-.64-6.72.32a2.22,2.22,0,0,0-.38,1c-.61,3.69-1.24,7.38-1.78,11.08-.34,2.37.7,3.85,3,4.57a7.88,7.88,0,0,0,5.89-.6c1.44-.66,2.85-1.37,4.37-2.1.21.57.32,1,.5,1.33.87,1.77,2.52,1.2,3.93,1.25a1.91,1.91,0,0,0,2.11-1.76c.75-4.58,1.46-9.15,2.2-13.72.2-1.25-.39-1.79-1.56-1.82"></path><path id="Fill-17" class="cls-3" d="M79.87,55.36c2.26,0,4.53,0,6.79,0,.53,0,1.34.07,1.53-.22a10.75,10.75,0,0,0,1.32-2.88c.07-.2-.6-.92-.94-.92-4.5-.09-9-.29-13.52,0a4.5,4.5,0,0,0-4.37,4.42c-.16,2.72,1,4.38,3.84,5.26,1.82.57,3.66,1.06,5.48,1.62a12.61,12.61,0,0,1,1.46.66l-.07.5a11.35,11.35,0,0,1-1.79.36c-2.33,0-4.65,0-7,0-2.73,0-3.49.93-3.17,4,4.79.57,9.62,1.22,14.48.26,3-.59,4.5-2.17,4.79-4.78.2-1.79-1.31-3.87-3.79-4.9-1.7-.7-3.51-1.14-5.25-1.74A12.72,12.72,0,0,1,78,56.11c0-.18.07-.35.11-.53a13.76,13.76,0,0,1,1.81-.22"></path><path id="Fill-19" class="cls-3" d="M222.41,56.15a28.52,28.52,0,0,1,3.21-.14,23.17,23.17,0,0,0,3-.19c1.67-.32,1.86-1.79,1.82-3.06,0-.45-1.07-1.16-1.71-1.24a60.5,60.5,0,0,0-8.15-.66c-5.3.07-8.09,2.53-9.19,7.7a23.7,23.7,0,0,0-.4,2.64,6.26,6.26,0,0,0,4.72,7,22.67,22.67,0,0,0,12-.33c.4-.11,1-.65,1-1,.05-2.29-.15-3.55-2.66-3.28-.71.07-1.43,0-2.15,0v.05a10.71,10.71,0,0,1-2.66-.05A3.65,3.65,0,0,1,219,62.34c-1.14-2.41.79-5.76,3.43-6.19"></path><path id="Fill-21" class="cls-3" d="M251.37,50.82c-1.82.1-3.63.32-5.45.5l6.43.21c-.33-.25-.67-.73-1-.71"></path></g></g></g></g></svg> 