<?xml version="1.0" encoding="UTF-8"?> <svg xmlns="http://www.w3.org/2000/svg" id="Layer_1" data-name="Layer 1" viewBox="0 0 97.52 43.1"><defs><style>.cls-1{fill:#222;}.cls-2{fill:#009688;}.cls-3{fill:#fff;}</style></defs><g id="Marketing-Tools"><g id="Desktop-HD-Copy"><g id="Group-3"><circle id="Oval" class="cls-1" cx="23.27" cy="21.55" r="21"></circle><g id="doot-arrow"><g id="next"><g id="Group"><path id="Path" class="cls-2" d="M94.47,21.26h0a.79.79,0,1,0,.78.78.78.78,0,0,0-.78-.78Z"></path><path id="Path-2" data-name="Path" class="cls-2" d="M91.35,21.26h0a.79.79,0,1,0,.78.78.78.78,0,0,0-.78-.78Z"></path><path id="Path-3" data-name="Path" class="cls-2" d="M88.22,21.26h0A.79.79,0,1,0,89,22a.78.78,0,0,0-.78-.78Z"></path><path id="Path-4" data-name="Path" class="cls-2" d="M85.09,21.26h0a.79.79,0,0,0,0,1.57.79.79,0,1,0,0-1.57Z"></path><path id="Path-5" data-name="Path" class="cls-2" d="M82,21.26h0a.79.79,0,1,0,.79.78.78.78,0,0,0-.79-.78Z"></path><path id="Path-6" data-name="Path" class="cls-2" d="M78.83,21.26h0a.79.79,0,1,0,.78.78.78.78,0,0,0-.78-.78Z"></path><path id="Path-7" data-name="Path" class="cls-2" d="M75.7,21.26h0a.79.79,0,1,0,.78.78.78.78,0,0,0-.78-.78Z"></path><path id="Path-8" data-name="Path" class="cls-2" d="M91.35,18.13h0a.78.78,0,1,0,.78.78.78.78,0,0,0-.78-.78Z"></path><path id="Path-9" data-name="Path" class="cls-2" d="M88.22,18.13h0a.78.78,0,1,0,.78.78.78.78,0,0,0-.78-.78Z"></path><path id="Path-10" data-name="Path" class="cls-2" d="M85.09,18.13h0a.78.78,0,1,0,0,1.56.78.78,0,1,0,0-1.56Z"></path><path id="Path-11" data-name="Path" class="cls-2" d="M82,18.13h0a.78.78,0,1,0,.79.78.78.78,0,0,0-.79-.78Z"></path><path id="Path-12" data-name="Path" class="cls-2" d="M78.83,18.13h0a.78.78,0,1,0,.78.78.78.78,0,0,0-.78-.78Z"></path><path id="Path-13" data-name="Path" class="cls-2" d="M88.22,15h0a.79.79,0,1,0,.78.78A.78.78,0,0,0,88.2,15Z"></path><path id="Path-14" data-name="Path" class="cls-2" d="M85.09,15h0a.79.79,0,0,0,0,1.57.79.79,0,1,0,0-1.57Z"></path><path id="Path-15" data-name="Path" class="cls-2" d="M82,15h0a.79.79,0,1,0,.79.78.78.78,0,0,0-.79-.78Z"></path><path id="Path-16" data-name="Path" class="cls-2" d="M78.83,15h0a.79.79,0,1,0,.78.78.78.78,0,0,0-.78-.78Z"></path><path id="Path-17" data-name="Path" class="cls-2" d="M85.09,11.85h0a.79.79,0,1,0,.79.79.79.79,0,0,0-.79-.79Z"></path><path id="Path-18" data-name="Path" class="cls-2" d="M82,11.85h0a.79.79,0,1,0,.79.79.78.78,0,0,0-.79-.79Z"></path><path id="Path-19" data-name="Path" class="cls-2" d="M78.83,11.85h0a.79.79,0,1,0,.78.79.79.79,0,0,0-.78-.79Z"></path><path id="Path-20" data-name="Path" class="cls-2" d="M82,8.72h0a.78.78,0,0,0-.78.78.79.79,0,1,0,.78-.78Z"></path><path id="Path-21" data-name="Path" class="cls-2" d="M78.83,8.72h0A.78.78,0,0,0,78,9.5a.79.79,0,1,0,1.57,0,.78.78,0,0,0-.78-.78Z"></path><path id="Path-22" data-name="Path" class="cls-2" d="M78.83,5.58h0a.79.79,0,1,0,.78.79.79.79,0,0,0-.78-.79Z"></path><path id="Path-23" data-name="Path" class="cls-2" d="M91.35,24.4h0a.78.78,0,1,0,.78.78.78.78,0,0,0-.78-.78Z"></path><path id="Path-24" data-name="Path" class="cls-2" d="M88.22,24.4h0a.78.78,0,1,0,.78.78.78.78,0,0,0-.78-.78Z"></path><path id="Path-25" data-name="Path" class="cls-2" d="M85.09,24.4h0a.78.78,0,1,0,0,1.56.78.78,0,1,0,0-1.56Z"></path><path id="Path-26" data-name="Path" class="cls-2" d="M82,24.4h0a.78.78,0,1,0,.79.78.78.78,0,0,0-.79-.78Z"></path><path id="Path-27" data-name="Path" class="cls-2" d="M78.83,24.4h0a.78.78,0,1,0,.78.78.78.78,0,0,0-.78-.78Z"></path><path id="Path-28" data-name="Path" class="cls-2" d="M88.22,27.53h0a.79.79,0,1,0,.78.79.78.78,0,0,0-.78-.79Z"></path><path id="Path-29" data-name="Path" class="cls-2" d="M85.09,27.53h0a.79.79,0,1,0,.79.79.79.79,0,0,0-.79-.79Z"></path><path id="Path-30" data-name="Path" class="cls-2" d="M82,27.53h0a.79.79,0,1,0,.79.79.78.78,0,0,0-.79-.79Z"></path><path id="Path-31" data-name="Path" class="cls-2" d="M78.83,27.53h0a.79.79,0,1,0,.78.79.79.79,0,0,0-.78-.79Z"></path><path id="Path-32" data-name="Path" class="cls-2" d="M85.09,30.67h0a.79.79,0,0,0,0,1.57.79.79,0,1,0,0-1.57Z"></path><path id="Path-33" data-name="Path" class="cls-2" d="M82,30.67h0a.79.79,0,1,0,.79.78.78.78,0,0,0-.79-.78Z"></path><path id="Path-34" data-name="Path" class="cls-2" d="M78.83,30.67h0a.79.79,0,1,0,.78.78.78.78,0,0,0-.78-.78Z"></path><path id="Path-35" data-name="Path" class="cls-2" d="M82,33.8h0a.79.79,0,0,0-.78.79.79.79,0,0,0,1.57,0,.79.79,0,0,0-.79-.79Z"></path><path id="Path-36" data-name="Path" class="cls-2" d="M78.83,33.8h0a.79.79,0,0,0-.79.79.79.79,0,1,0,.79-.79Z"></path><path id="Path-37" data-name="Path" class="cls-2" d="M78.83,36.94h0a.79.79,0,1,0,.78.78.78.78,0,0,0-.78-.78Z"></path><path id="Path-38" data-name="Path" class="cls-2" d="M72.58,21.26h0a.79.79,0,1,0,.78.78.78.78,0,0,0-.78-.78Z"></path><path id="Path-39" data-name="Path" class="cls-2" d="M69.45,21.26h0a.79.79,0,1,0,.78.78.78.78,0,0,0-.78-.78Z"></path><path id="Path-40" data-name="Path" class="cls-2" d="M66.32,21.26h0a.79.79,0,1,0,.79.78.78.78,0,0,0-.79-.78Z"></path><path id="Path-41" data-name="Path" class="cls-2" d="M63.19,21.26h0A.79.79,0,1,0,64,22a.78.78,0,0,0-.79-.78Z"></path><path id="Path-42" data-name="Path" class="cls-2" d="M60.06,21.26h0a.79.79,0,1,0,.78.78.78.78,0,0,0-.78-.78Z"></path><path id="Path-43" data-name="Path" class="cls-2" d="M75.7,24.4h0a.78.78,0,1,0,.78.78.78.78,0,0,0-.78-.78Z"></path><path id="Path-44" data-name="Path" class="cls-2" d="M72.58,24.4h0a.78.78,0,1,0,.78.78.78.78,0,0,0-.78-.78Z"></path><path id="Path-45" data-name="Path" class="cls-2" d="M69.45,24.4h0a.78.78,0,1,0,.78.78.78.78,0,0,0-.78-.78Z"></path><path id="Path-46" data-name="Path" class="cls-2" d="M66.32,24.4h0a.78.78,0,1,0,.79.78.78.78,0,0,0-.79-.78Z"></path><path id="Path-47" data-name="Path" class="cls-2" d="M63.19,24.4h0a.78.78,0,1,0,.79.78.78.78,0,0,0-.79-.78Z"></path><path id="Path-48" data-name="Path" class="cls-2" d="M60.06,24.4h0a.78.78,0,1,0,.78.78.78.78,0,0,0-.78-.78Z"></path><path id="Path-49" data-name="Path" class="cls-2" d="M75.7,18.13h0a.78.78,0,1,0,.78.78.78.78,0,0,0-.78-.78Z"></path><path id="Path-50" data-name="Path" class="cls-2" d="M72.58,18.13h0a.78.78,0,1,0,.78.78A.77.77,0,0,0,72.58,18.13Z"></path><path id="Path-51" data-name="Path" class="cls-2" d="M69.45,18.13h0a.78.78,0,1,0,.78.78A.77.77,0,0,0,69.45,18.13Z"></path><path id="Path-52" data-name="Path" class="cls-2" d="M66.32,18.13h0a.78.78,0,1,0,.79.78A.78.78,0,0,0,66.3,18.13Z"></path><path id="Path-53" data-name="Path" class="cls-2" d="M63.19,18.13h0a.78.78,0,1,0,.79.78A.77.77,0,0,0,63.19,18.13Z"></path><path id="Path-54" data-name="Path" class="cls-2" d="M60.06,18.13h0a.78.78,0,1,0,.78.78A.77.77,0,0,0,60.06,18.13Z"></path></g><path id="Path-55" data-name="Path" d="M94.47,22.83a.79.79,0,0,1,0-1.57h0a.79.79,0,1,1,0,1.57Z"></path><path id="Path-56" data-name="Path" d="M91.35,22.83a.79.79,0,1,1,0-1.57h0a.79.79,0,0,1,0,1.57Z"></path><path id="Path-57" data-name="Path" d="M88.22,22.83a.79.79,0,1,1,0-1.57h0a.79.79,0,0,1,0,1.57Z"></path><path id="Path-58" data-name="Path" d="M85.09,22.83a.79.79,0,0,1,0-1.57h0a.79.79,0,0,1,0,1.57Z"></path><path id="Path-59" data-name="Path" d="M82,22.83a.79.79,0,0,1,0-1.57h0a.79.79,0,0,1,0,1.57Z"></path><path id="Path-60" data-name="Path" d="M78.83,22.83a.79.79,0,0,1,0-1.57h0a.79.79,0,0,1,0,1.57Z"></path><path id="Path-61" data-name="Path" d="M75.7,22.83a.79.79,0,0,1,0-1.57h0a.79.79,0,1,1,0,1.57Z"></path><path id="Path-62" data-name="Path" d="M91.35,19.69a.78.78,0,0,1-.79-.78.79.79,0,0,1,.79-.79h0a.79.79,0,0,1,.78.79A.78.78,0,0,1,91.35,19.69Z"></path><path id="Path-63" data-name="Path" d="M88.22,19.69a.79.79,0,0,1-.79-.78.8.8,0,0,1,.79-.79h0a.79.79,0,0,1,.78.79A.78.78,0,0,1,88.22,19.69Z"></path><path id="Path-64" data-name="Path" d="M85.09,19.69a.78.78,0,0,1-.78-.78.79.79,0,0,1,.78-.79h0a.79.79,0,0,1,.78.79A.78.78,0,0,1,85.09,19.69Z"></path><path id="Path-65" data-name="Path" d="M82,19.69a.78.78,0,0,1-.78-.78.79.79,0,0,1,.78-.79h0a.79.79,0,0,1,.78.79A.78.78,0,0,1,82,19.69Z"></path><path id="Path-66" data-name="Path" d="M78.83,19.69a.78.78,0,0,1-.78-.78.79.79,0,0,1,.78-.79h0a.79.79,0,0,1,.78.79A.78.78,0,0,1,78.83,19.69Z"></path><path id="Path-67" data-name="Path" d="M88.22,16.56a.79.79,0,1,1,0-1.57h0a.79.79,0,0,1,0,1.57Z"></path><path id="Path-68" data-name="Path" d="M85.09,16.56a.79.79,0,0,1,0-1.57h0a.79.79,0,0,1,0,1.57Z"></path><path id="Path-69" data-name="Path" d="M82,16.56A.79.79,0,0,1,82,15h0a.79.79,0,0,1,0,1.57Z"></path><path id="Path-70" data-name="Path" d="M78.83,16.56a.79.79,0,0,1,0-1.57h0a.79.79,0,0,1,0,1.57Z"></path><path id="Path-71" data-name="Path" d="M85.09,13.42a.79.79,0,0,1,0-1.57h0a.79.79,0,0,1,0,1.57Z"></path><path id="Path-72" data-name="Path" d="M82,13.42a.79.79,0,0,1,0-1.57h0a.79.79,0,0,1,0,1.57Z"></path><path id="Path-73" data-name="Path" d="M78.83,13.42a.79.79,0,0,1,0-1.57h0a.79.79,0,0,1,0,1.57Z"></path><path id="Path-74" data-name="Path" d="M82,10.29a.79.79,0,0,1-.78-.79A.78.78,0,0,1,82,8.72h0a.78.78,0,0,1,.78.78A.79.79,0,0,1,82,10.29Z"></path><path id="Path-75" data-name="Path" d="M78.83,10.29a.79.79,0,0,1-.78-.79.78.78,0,0,1,.78-.78h0a.78.78,0,0,1,.78.78A.79.79,0,0,1,78.83,10.29Z"></path><path id="Path-76" data-name="Path" d="M78.83,7.15a.79.79,0,0,1,0-1.57h0a.79.79,0,0,1,0,1.57Z"></path><path id="Path-77" data-name="Path" d="M91.35,26a.78.78,0,1,1,0-1.56h0a.78.78,0,0,1,0,1.56Z"></path><path id="Path-78" data-name="Path" d="M88.22,26a.78.78,0,1,1,0-1.56h0a.78.78,0,0,1,0,1.56Z"></path><path id="Path-79" data-name="Path" d="M85.09,26a.78.78,0,0,1,0-1.56h0a.78.78,0,0,1,0,1.56Z"></path><path id="Path-80" data-name="Path" d="M82,26a.78.78,0,1,1,0-1.56h0A.78.78,0,0,1,82,26Z"></path><path id="Path-81" data-name="Path" d="M78.83,26a.78.78,0,0,1,0-1.56h0a.78.78,0,0,1,0,1.56Z"></path><path id="Path-82" data-name="Path" d="M88.22,29.1a.79.79,0,1,1,0-1.57h0a.79.79,0,0,1,0,1.57Z"></path><path id="Path-83" data-name="Path" d="M85.09,29.1a.79.79,0,0,1,0-1.57h0a.79.79,0,0,1,0,1.57Z"></path><path id="Path-84" data-name="Path" d="M82,29.1a.79.79,0,0,1,0-1.57h0a.79.79,0,0,1,0,1.57Z"></path><path id="Path-85" data-name="Path" d="M78.83,29.1a.79.79,0,0,1,0-1.57h0a.79.79,0,0,1,0,1.57Z"></path><path id="Path-86" data-name="Path" d="M85.09,32.24a.79.79,0,0,1,0-1.57h0a.79.79,0,0,1,0,1.57Z"></path><path id="Path-87" data-name="Path" d="M82,32.24a.79.79,0,0,1,0-1.57h0a.79.79,0,0,1,0,1.57Z"></path><path id="Path-88" data-name="Path" d="M78.83,32.24a.79.79,0,0,1,0-1.57h0a.79.79,0,0,1,0,1.57Z"></path><path id="Path-89" data-name="Path" d="M82,35.37a.78.78,0,0,1-.78-.78A.79.79,0,0,1,82,33.8h0a.79.79,0,0,1,.78.79A.78.78,0,0,1,82,35.37Z"></path><path id="Path-90" data-name="Path" d="M78.83,35.37a.78.78,0,0,1-.78-.78.79.79,0,0,1,.78-.79h0a.79.79,0,0,1,.78.79A.78.78,0,0,1,78.83,35.37Z"></path><path id="Path-91" data-name="Path" d="M78.83,38.51a.79.79,0,0,1,0-1.57h0a.79.79,0,0,1,0,1.57Z"></path><path id="Path-92" data-name="Path" d="M72.58,22.83a.79.79,0,1,1,0-1.57h0a.79.79,0,0,1,0,1.57Z"></path><path id="Path-93" data-name="Path" d="M69.45,22.83a.79.79,0,1,1,0-1.57h0a.79.79,0,0,1,0,1.57Z"></path><path id="Path-94" data-name="Path" d="M66.32,22.83a.79.79,0,0,1,0-1.57h0a.79.79,0,0,1,0,1.57Z"></path><path id="Path-95" data-name="Path" d="M63.19,22.83a.79.79,0,0,1,0-1.57h0a.79.79,0,0,1,0,1.57Z"></path><path id="Path-96" data-name="Path" d="M60.06,22.83a.79.79,0,0,1,0-1.57h0a.79.79,0,0,1,0,1.57Z"></path><path id="Path-97" data-name="Path" d="M75.7,26a.78.78,0,0,1,0-1.56h0a.78.78,0,1,1,0,1.56Z"></path><path id="Path-98" data-name="Path" d="M72.58,26a.78.78,0,1,1,0-1.56h0a.78.78,0,0,1,0,1.56Z"></path><path id="Path-99" data-name="Path" d="M69.45,26a.78.78,0,1,1,0-1.56h0a.78.78,0,0,1,0,1.56Z"></path><path id="Path-100" data-name="Path" d="M66.32,26a.78.78,0,0,1,0-1.56h0a.78.78,0,0,1,0,1.56Z"></path><path id="Path-101" data-name="Path" d="M63.19,26a.78.78,0,0,1,0-1.56h0a.78.78,0,0,1,0,1.56Z"></path><path id="Path-102" data-name="Path" d="M60.06,26a.78.78,0,0,1,0-1.56h0a.78.78,0,0,1,0,1.56Z"></path><path id="Path-103" data-name="Path" d="M75.7,19.69a.78.78,0,0,1-.78-.78.79.79,0,0,1,.78-.79h0a.79.79,0,0,1,.79.79A.78.78,0,0,1,75.7,19.69Z"></path><path id="Path-104" data-name="Path" d="M72.58,19.69a.78.78,0,0,1-.79-.78.79.79,0,0,1,.79-.79h0a.79.79,0,0,1,.78.79A.78.78,0,0,1,72.58,19.69Z"></path><path id="Path-105" data-name="Path" d="M69.45,19.69a.79.79,0,0,1-.79-.78.8.8,0,0,1,.79-.79h0a.79.79,0,0,1,.78.79A.78.78,0,0,1,69.45,19.69Z"></path><path id="Path-106" data-name="Path" d="M66.32,19.69a.78.78,0,0,1-.78-.78.79.79,0,0,1,.78-.79h0a.79.79,0,0,1,.78.79A.78.78,0,0,1,66.32,19.69Z"></path><path id="Path-107" data-name="Path" d="M63.19,19.69a.78.78,0,0,1-.78-.78.79.79,0,0,1,.78-.79h0a.79.79,0,0,1,.78.79A.78.78,0,0,1,63.19,19.69Z"></path><path id="Path-108" data-name="Path" d="M60.06,19.69a.78.78,0,0,1-.78-.78.79.79,0,0,1,.78-.79h0a.79.79,0,0,1,.78.79A.78.78,0,0,1,60.06,19.69Z"></path></g></g></g></g></g><path class="cls-3" d="M21.26,15.3H21.2l-3,2.08c-.17.11-.31.05-.31-.17V13.74a.48.48,0,0,1,.2-.4l3.19-2.29a.8.8,0,0,1,.5-.17H24.9a.26.26,0,0,1,.28.28V29.64a.26.26,0,0,1-.28.28H21.54a.26.26,0,0,1-.28-.28Z"></path></svg> 