<?xml version="1.0" encoding="UTF-8"?> <svg xmlns="http://www.w3.org/2000/svg" id="Layer_1" data-name="Layer 1" viewBox="0 0 274.47 123.71"><defs><style>.cls-1{fill:#7c7c7c;}</style></defs><g id="Marketing-Tools"><g id="Desktop-HD-Copy"><g id="capital-one"><g id="capital-one-2"><path id="Shape" class="cls-1" d="M164.11,76c-7.43,5.27-16.2,10.78-25.62,16.57l-.37.21a.3.3,0,0,0-.08.4.31.31,0,0,0,.41.09l.33-.17c8-4.16,17.21-9.14,26.43-14.24,0,0,.08,0,.16-.08A11.63,11.63,0,0,1,164.11,76Zm48.63-39.38C201.07,23.7,126,35.29,94,42.27l-.73.16a.29.29,0,1,0,.08.57l.73-.16c26.44-4.7,81.47-11.23,93.35.53C191.08,47,190.18,51.57,186,57a11.06,11.06,0,0,1,4.61,6.61C207,52.71,217.92,42.35,212.74,36.59Z"></path><g id="Group"><path id="Shape-2" data-name="Shape" class="cls-1" d="M168.65,72.1c.16,4.54,3,8.25,6.77,8.25,7.25,0,10.31-8.9,10.1-14.86-.16-4.54-3.09-8.26-6.8-8.26C172.44,57.23,168.45,66.1,168.65,72.1Zm-3.83-.24c-.29-7.76,5.79-15.65,14.59-15.65,5.87,0,9.74,3.92,9.94,9.93.29,8.17-5.38,15.64-14.59,15.64C168.9,81.78,165,77.86,164.82,71.86Zm-83.26-2a6.65,6.65,0,0,1-1.22.32c-.49.13-1.43.29-2.73.49a4.8,4.8,0,0,0-1.92.62,1.27,1.27,0,0,0-.61.93.89.89,0,0,0,.41,1,3.22,3.22,0,0,0,1.75.36,5.81,5.81,0,0,0,1.83-.28,4.88,4.88,0,0,0,1.51-.78,2.44,2.44,0,0,0,.65-.94c0-.28.17-.86.33-1.71ZM89.22,65c0,.69-.16,1.34-.33,2.41l-1.3,7.27a1.35,1.35,0,0,0,.73,1.51l0,.28H80.87l-.09-1.83a14.36,14.36,0,0,1-3.54,1.51,13.83,13.83,0,0,1-3.55.45c-2.4,0-3.75-.25-4.68-1.06A3,3,0,0,1,67.62,73a3.86,3.86,0,0,1,.9-2.16,5.89,5.89,0,0,1,2-1.39,10.38,10.38,0,0,1,3-.82c1.3-.2,3.14-.41,5.58-.61a10.83,10.83,0,0,0,2.45-.53c.53-.21.69-.41.77-.82.12-.74-.08-1.19-1.1-1.39-2.65-.53-7.66.33-10.23,1l1.39-3.8a68.45,68.45,0,0,1,9.94-.82C87.55,61.56,89.26,63.08,89.22,65Zm21.44,11.47L113.23,62h7.09l-2.57,14.54Zm3-17.89c.21-1.18,2.08-2.16,4.2-2.16s3.63,1,3.42,2.16-2.12,2.17-4.19,2.17-3.67-1-3.43-2.17ZM145.5,69.86a6.44,6.44,0,0,1-1.22.32c-.49.13-1.43.29-2.77.49a4.8,4.8,0,0,0-1.92.62,1.59,1.59,0,0,0-.61.94.94.94,0,0,0,.41,1,3.33,3.33,0,0,0,1.79.36,5.88,5.88,0,0,0,1.84-.28,4.71,4.71,0,0,0,1.5-.78,2.1,2.1,0,0,0,.62-.94C145.22,71.29,145.34,70.71,145.5,69.86Zm7.62-4.78a18.85,18.85,0,0,1-.36,2.41l-1.27,7.27a1.36,1.36,0,0,0,.74,1.51l0,.24h-7.42l0-1.83a16,16,0,0,1-3.55,1.51,12.25,12.25,0,0,1-3.54.45c-2.41,0-3.75-.25-4.69-1.06A3,3,0,0,1,131.56,73a3.94,3.94,0,0,1,.9-2.16,5.83,5.83,0,0,1,2-1.39,11.6,11.6,0,0,1,3-.86c1.31-.21,3.14-.41,5.59-.61a10.31,10.31,0,0,0,2.4-.53c.53-.21.73-.41.82-.86.12-.74-.13-1.19-1.1-1.39-2.69-.53-7.67.33-10.23,1l1.38-3.8a68.45,68.45,0,0,1,9.94-.82c5.26.08,7,1.6,6.93,3.56ZM66.64,71.29a26.27,26.27,0,0,1-5.87.65c-3.38,0-6.07-1.68-6-4.78.13-2,2.53-6.41,8.73-6.41a9.83,9.83,0,0,1,5.5,1.51l.89-5a16.57,16.57,0,0,0-7-1.18C54.82,56.13,47,59.81,46.1,67.32s8.32,9.56,12.43,9.52c2.37,0,4.85-.12,7.18-.33Zm57.59-9.4.49-2.94,7.42-1.63-.78,4.57H135l-.69,2.94h-3.51l-2.12,11.69s-7.13,0-7.17,0l2.12-11.65h-2.69l.53-2.94h2.77v0Zm36.11,14.62h-7.26l3.63-20.26,7,.21-3.42,20.05ZM101.28,65.4a4.11,4.11,0,0,0-2.52.86,3.68,3.68,0,0,0-1.39,2.49,3.33,3.33,0,0,0,.41,2.74,2.74,2.74,0,0,0,2.2.86,4.06,4.06,0,0,0,1.79-.37,3.66,3.66,0,0,0,1.39-1.18,4.45,4.45,0,0,0,.77-1.92,2.88,2.88,0,0,0-.49-2.58A2.66,2.66,0,0,0,101.28,65.4ZM88.36,81.54l3.47-19.49h6.23l-.48,2.5a5.67,5.67,0,0,1,2.6-1.84,10.67,10.67,0,0,1,4-.86,7.11,7.11,0,0,1,3.83.74,5.25,5.25,0,0,1,2.53,2.77,7.56,7.56,0,0,1,.32,4A8.51,8.51,0,0,1,107.4,75a9.23,9.23,0,0,1-6,1.76,8.41,8.41,0,0,1-2.21-.25,4.83,4.83,0,0,1-1.42-.57,7.56,7.56,0,0,1-1.18-1.06l-1.14,6.66ZM217.07,67.2c0-1.18-.61-2-1.84-2-2.89,0-6,5.72-6.52,8C213.44,73.25,217.15,70.39,217.07,67.2Zm.61,9,.57.36a8.92,8.92,0,0,1-7.7,5.23c-2.78,0-5.06-1.83-5.18-5.31-.2-6.21,5.58-12,10.35-12,2,0,4,.9,4,3.11.16,4.94-6.77,6.45-11.33,6.58a4.78,4.78,0,0,0-.17,1.83,3.67,3.67,0,0,0,3.88,3.8C214.34,79.66,216.54,77.9,217.68,76.15Z"></path><path id="Path" class="cls-1" d="M189.23,67a14.37,14.37,0,0,1,1.63-.17c.53,0,1,.09,1,.62,0,.32-.53,2.53-.65,3l-1.1,4.9c-.45,2-.94,4.09-1.35,5.76h2.86l1.59-7.72c4.89-5.06,6.76-6.74,7.9-6.74a.84.84,0,0,1,.9.9,13.73,13.73,0,0,1-.74,3.51l-1.63,5.64a11.53,11.53,0,0,0-.61,3.23A1.72,1.72,0,0,0,201,81.78c2.08,0,3.59-2.16,4.89-4.28l-.37-.7c-.53.86-1.75,2.74-2.73,2.74-.32,0-.61-.21-.61-.74a7.81,7.81,0,0,1,.45-2.29l1.79-6.61a14.53,14.53,0,0,0,.7-3.64,1.71,1.71,0,0,0-1.88-1.8c-1.87,0-4.36,1.35-9.62,7.44h-.08l.65-2.94c.37-1.64.7-3.31,1.06-4.45a51.69,51.69,0,0,1-6,1.71l0,.82Z"></path></g></g></g></g></g></svg> 