<?xml version="1.0" encoding="UTF-8"?> <svg xmlns="http://www.w3.org/2000/svg" xmlns:xlink="http://www.w3.org/1999/xlink" id="Layer_1" data-name="Layer 1" viewBox="0 0 274.47 123.71"><defs><style>.cls-1{fill:#fff;}.cls-1,.cls-2{fill-rule:evenodd;}.cls-2{fill:#7c7c7c;}.cls-3{mask:url(#mask);}.cls-4{mask:url(#mask-2);}</style><mask id="mask" x="91.03" y="24.9" width="26.61" height="11.16" maskUnits="userSpaceOnUse"><g id="mask-3"><polygon id="path-2" class="cls-1" points="91.03 24.9 117.64 24.9 117.64 36.06 91.03 36.06 91.03 24.9"></polygon></g></mask><mask id="mask-2" x="141.82" y="24.9" width="26.61" height="11.16" maskUnits="userSpaceOnUse"><g id="mask-5"><polygon id="path-4" class="cls-1" points="141.82 24.9 168.44 24.9 168.44 36.06 141.82 36.06 141.82 24.9"></polygon></g></mask></defs><g id="Marketing-Tools"><g id="Desktop-HD-Copy"><g id="Earny"><g id="Group-20"><path id="Fill-1" class="cls-2" d="M55,40.64c1.77-4.25,5-5.91,9.5-5.8,5.22.13,10.44,0,15.65,0,2.48,0,4.94.52,5.12,3.45.21,3.3-2.48,3.89-5,4s-4.91.09-7.37.09c-10.41,0-10.41,0-10.39,5.69,0,5.45,0,5.44,10.17,5.46a56.63,56.63,0,0,1,6,.22c2.31.25,4.31,1.22,4.17,4s-2.28,3.36-4.61,3.39c-4,0-8,.12-12,0-4.53-.11-3.69,3.16-3.7,5.79s-.81,5.91,3.68,5.85,9.21,0,13.82,0c2.61,0,5.26.57,5.28,3.8S82.62,80.45,80,80.48c-4.91.06-9.83-.09-14.74,0-4.59.13-8-1.56-10.26-5.64Z"></path><path id="Fill-3" class="cls-2" d="M182.26,95.09c-2.83-4.08-2.39-5.54,2-7.4a16.39,16.39,0,0,0,3.64-1.91c3.08-2.38,2.92-3.89-.6-5.32a9.38,9.38,0,0,1-5.87-6.64q-2.89-10.93-5.61-21.92c-.57-2.34-.69-4.88,2.32-5.65s4.1,1.37,4.73,3.79c1.66,6.41,3.29,12.82,4.94,19.23.51,2,.87,4.32,3.41,4.28,2.75,0,2.48-2.7,2.94-4.53,1.56-6.11,3-12.26,4.54-18.38.62-2.51,1.56-5.11,4.79-4.34s3,3.4,2.34,6c-2.24,9.12-4.42,18.26-6.66,27.38-1.94,7.87-6.82,13.27-14.68,16.14a1.88,1.88,0,0,1-2.25-.73"></path><g id="Group-7"><g class="cls-3"><path id="Fill-5" class="cls-2" d="M105.33,24.9a12.26,12.26,0,0,1,6.68,2c1.92,1.24,4.09,2.95,5,4.79.53,1.11,1,2.35.26,3.51s-2.21.92-3.34.45c-6.26-2.58-12.48-2.83-18.74,0-1.28.58-2.75.82-3.7-.66s-.26-2.67.39-3.92c1.06-2.06,3.58-3.74,5.59-4.82a11.16,11.16,0,0,1,5.28-1.31Z"></path></g></g><g id="Group-10"><g class="cls-4"><path id="Fill-8" class="cls-2" d="M156.12,24.9a12.26,12.26,0,0,1,6.68,2c1.92,1.24,4.1,2.95,5,4.79.53,1.11,1,2.35.26,3.51s-2.21.92-3.34.45c-6.26-2.58-12.47-2.83-18.74,0-1.28.58-2.75.82-3.7-.66s-.25-2.67.39-3.92c1.06-2.06,3.58-3.74,5.59-4.82a11.17,11.17,0,0,1,5.29-1.31Z"></path></g></g><path id="Fill-11" class="cls-2" d="M102,74.58c3.33-.37,7-.58,6.92-5s-4.09-3.35-6.66-3.56-6-.06-6.22,3.73c-.21,4,3.12,4.3,6,4.83Zm14.28-9.73c0,1.08,0,2.15,0,3.23-.27,12-10.68,18-21.46,12.36-4.47-2.36-7.28-7.84-6.31-12.29,1.07-4.92,5.16-8.05,10.83-8.18,1.53,0,3.06.25,4.59.31s4.2,1.68,4.67-.84a4.57,4.57,0,0,0-4.24-5.55,58.11,58.11,0,0,0-7.35-.2c-2.76,0-5.67,0-5.78-3.6-.1-3.23,2.79-3.73,5.25-4a39.23,39.23,0,0,1,7.35,0c8.08.76,12.07,5.07,12.41,13.22.07,1.84,0,3.69,0,5.54Z"></path><path id="Fill-13" class="cls-2" d="M171.3,66.89c0,3.24.12,6.48-.05,9.71-.11,2.12-1,4.08-3.46,4.19-2.76.12-3.8-1.9-3.88-4.23-.17-5.24-.06-10.48-.16-15.72-.11-5.08-2.12-7.07-7-7.13-5.06-.05-7.25,2-7.36,7.29-.1,4.78,0,9.56,0,14.34,0,2.56-.2,5.3-3.59,5.36-3,0-3.75-2.48-3.79-4.87a180.76,180.76,0,0,1,.16-18.48c.62-7.32,7-11.71,15.35-11.34,8.2.36,13.48,5.1,13.86,12.56.14,2.77,0,5.55,0,8.32Z"></path><path id="Fill-15" class="cls-2" d="M121.35,66.14c0-3.08-.17-6.18,0-9.24a11.88,11.88,0,0,1,14.85-10.54c2.08.55,3.84,1.56,3.71,4s-1.93,3.18-4.16,3.39c-6.77.64-6.9.83-6.93,7.87,0,4.62.05,9.24-.07,13.86-.06,2.57-.6,5.29-3.86,5.26s-3.58-2.79-3.61-5.37c0-3.08,0-6.16,0-9.24Z"></path><g id="Group-19"><path id="Fill-17" class="cls-2" d="M216.17,76.41a4.47,4.47,0,1,1-4.47-4.48,4.48,4.48,0,0,1,4.47,4.48"></path></g></g></g></g></g></svg> 