<?xml version="1.0" encoding="UTF-8"?> <svg xmlns="http://www.w3.org/2000/svg" id="Layer_1" data-name="Layer 1" viewBox="0 0 144.66 49.88"><defs><style>.cls-1{fill:#ffb0bb;stroke:#070707;stroke-miterlimit:10;}</style></defs><rect class="cls-1" x="2.96" y="2.04" width="138.7" height="46.15" rx="3.69"></rect><path d="M12.75,21.68c0-3,3.33-4.68,7.91-4.68,3.07,0,6.15.47,7.29,1.11l-.69,3.07c-1.2-.72-4.26-1.1-6.73-1.1-3,0-4.21.43-4.21,1.19,0,2.64,12.06.1,12.06,5.87,0,2.57-2.56,4.84-8,4.84-2.54,0-5.84-.22-7.33-.92l.14-3.29a18.85,18.85,0,0,0,7.3,1.13c3.13,0,4.32-.56,4.32-1.22C24.8,25.21,12.75,27.64,12.75,21.68Z"></path><path d="M42.56,28.77h-9l-1.33,2.92H28.41l7-14.4H41l6.86,14.4H43.91Zm-7.63-2.93h6.3l-2.57-5.62H37.52Z"></path><path d="M59,31.69H53l-6.68-14.4h4.26l5.12,11.47h.84l5-11.47h4.2Z"></path><path d="M66.75,31.69V17.29H81.68v3.24H70.35V23H80.42V26H70.35v2.43H81.68v3.24Z"></path><path d="M88.75,31.69V28.54c2.93-2.23,6.12-4.92,6.12-6.86,0-1-.85-1.64-2.29-1.64a9.79,9.79,0,0,0-3.76.9l-.61-2.7A9.49,9.49,0,0,1,92.91,17c3.26,0,5.65,1.22,5.65,4,0,3-3,5.38-5.78,7.51v.05h6.1v3.15Z"></path><path d="M100.81,25.53l.7-8.24h8.95l-.27,3.15h-5.66l-.25,2.43c3.78.18,6.47,1.29,6.47,4.3,0,2.61-2.07,4.79-6.07,4.79a9.7,9.7,0,0,1-4.25-.95l.18-3a8.88,8.88,0,0,0,4,1c2,0,2.54-.7,2.54-1.4C107.11,26.24,104.88,25.77,100.81,25.53Z"></path><path d="M116.29,17c2.91,0,4.16,1.69,4.16,4.25s-1.25,4.25-4.16,4.25-4.16-1.7-4.16-4.25S113.37,17,116.29,17Zm8.93.27h2.88L118,31.69H115.1Zm-8.93,5.78c.75,0,1.15-.58,1.15-1.8s-.23-1.8-1.15-1.8-1.15.57-1.15,1.8S115.42,23.07,116.29,23.07Zm10.85.39c2.92,0,4.16,1.69,4.16,4.25S130.06,32,127.14,32,123,30.27,123,27.71,124.23,23.46,127.14,23.46Zm0,6.05c.76,0,1.16-.57,1.16-1.8s-.24-1.8-1.16-1.8-1.15.58-1.15,1.8S126.28,29.51,127.14,29.51Z"></path></svg> 