<?xml version="1.0" encoding="UTF-8"?> <svg xmlns="http://www.w3.org/2000/svg" id="Layer_1" data-name="Layer 1" viewBox="0 0 280.4 136.12"><defs><style>.cls-1,.cls-10{fill:#fff;}.cls-1,.cls-2{stroke:#0b0b0b;}.cls-2{fill:#ffb0bb;}.cls-3,.cls-9{fill:#222;}.cls-3{fill-rule:evenodd;}.cls-4{isolation:isolate;}.cls-5{fill:#191919;}.cls-6{fill:none;stroke:#000;stroke-linecap:square;}.cls-7,.cls-8{fill:#c7232f;stroke-width:0.5px;}.cls-7{stroke:#0d0d0d;}.cls-8{stroke:#0f0f0f;}</style></defs><g id="Marketing-Tools"><g id="Desktop-HD-Copy"><g id="Group-11"><g id="Group-6"><rect id="Rectangle" class="cls-1" x="3.45" y="69.8" width="256" height="48" rx="3"></rect><rect id="Rectangle-2" data-name="Rectangle" class="cls-2" x="150.45" y="74.8" width="104" height="38" rx="3"></rect><polygon id="Path" class="cls-3" points="250.7 131.45 247.65 132.8 242.73 121.46 236.45 127.53 236.46 102.8 254.45 119.54 245.78 120.1 250.7 131.45"></polygon><g id="SHOP-NOW" class="cls-4"><g class="cls-4"><path class="cls-5" d="M163.72,96.34a3.26,3.26,0,0,1,.69-.07,2.74,2.74,0,0,1,1.71.55c.86.71,2.31,1.81,3.59,1.81a1.72,1.72,0,0,0,1.17-.35.61.61,0,0,0,0-.93c-1.58-1.23-4.64-2.42-4.64-4.66,0-3,3.43-5.61,5.41-6.45a3.93,3.93,0,0,1,1.7-.37,2,2,0,0,1,1.34.46,4.15,4.15,0,0,1,1.17,1.89,3,3,0,0,1-.66,2.27c-.53.7-1.17,1.85-1.48,2.37-.2.35-.44.53-.86.09a1.66,1.66,0,0,1-.53-1.19,4.36,4.36,0,0,1,1-2.29c.55-.81,1.14-1.78.83-2-.81-.59-5.63,2.64-5.74,5.17-.07,1.45,3,2.71,3.81,3.32a1.47,1.47,0,0,1,.66,1.13,3,3,0,0,1-.86,1.76,3.93,3.93,0,0,1-3,1.12,7.72,7.72,0,0,1-5.48-2.9C163.26,96.69,163.42,96.45,163.72,96.34Z"></path><path class="cls-5" d="M182.82,93.59a1.49,1.49,0,0,1,.79,1c.07.28-.08.46-.5.39a8.12,8.12,0,0,0-1-.06Q181,97,179.94,99.38c-.15.35-.53.46-.77.06a2,2,0,0,1-.37-1.12,4.39,4.39,0,0,1,.28-1.36,20,20,0,0,1,.79-1.87,37.76,37.76,0,0,1-3.76.44c-.64,1.32-1.28,2.72-1.91,4.13-.16.38-.55.49-.82.11a1.84,1.84,0,0,1-.37-1.14c0-.64.22-1.3,1.14-3.48a1.64,1.64,0,0,1-.7-.66c-.22-.42-.09-.57.5-.53.33,0,.47.07.71.07A73.39,73.39,0,0,1,179,86.22c.35-.46.68-.4.92,0a1.74,1.74,0,0,1,.2.9,5.25,5.25,0,0,1-.73,2.44L177,93.88c1.39-.2,2.51-.49,3.72-.6A67.91,67.91,0,0,1,184.89,86c.4-.5.73-.44,1,0a1.92,1.92,0,0,1,.19.83,5.34,5.34,0,0,1-.85,2.56C183.79,91.85,183.31,92.71,182.82,93.59Z"></path><path class="cls-5" d="M193.49,86.35a3.56,3.56,0,0,1,2,3.54,11.3,11.3,0,0,1-1.4,5.06c-1.5,2.73-3.72,5-6.25,5a4.1,4.1,0,0,1-4.1-4.45c0-4.64,4.14-8.71,6.65-9.59a4,4,0,0,1,1.32-.22A2.38,2.38,0,0,1,193.49,86.35Zm-1.41,7.86a11.35,11.35,0,0,0,1.5-5.15c0-1.06-.22-1.76-.68-1.94-1-.35-3.57,1.1-5.57,4.16a9.76,9.76,0,0,0-1.61,5.06c0,1.54.55,2.4,1.39,2.4C188.47,98.74,190.52,97.07,192.08,94.21Z"></path><path class="cls-5" d="M193.71,97.33a45.87,45.87,0,0,1,4.42-8.85,1.65,1.65,0,0,1-1.27-1c-.16-.33-.07-.53.41-.58a10,10,0,0,0,2.49-.63,8,8,0,0,1,2.4-.53A2.47,2.47,0,0,1,205,87.65a4,4,0,0,1-.68,3.81,9.17,9.17,0,0,1-6.18,3.89,3,3,0,0,1-1.47-.09c-.6,1.15-1.3,2.55-2,4.25-.17.39-.35.39-.66.09a1.65,1.65,0,0,1-.41-1.17A4.24,4.24,0,0,1,193.71,97.33Zm3.78-3.72c4.38-1,6.52-4.2,6.12-5.68a.74.74,0,0,0-.7-.44,8,8,0,0,0-2.07.55,7.69,7.69,0,0,1-.84.29,6.2,6.2,0,0,1-.83,2.35C199,91,198.75,91.41,197.49,93.61Z"></path><path class="cls-5" d="M211.68,96.1a49.6,49.6,0,0,1,.29-5,54.23,54.23,0,0,0-4.09,8.42c-.16.44-.49.46-.79.13a2,2,0,0,1-.42-1.23,4.35,4.35,0,0,1,.28-1.32,93.62,93.62,0,0,1,5.61-11c.29-.48.55-.48.88-.22a2,2,0,0,1,1,1.74,6.26,6.26,0,0,1-.11,1.06,65.1,65.1,0,0,0-.66,6.6,96.53,96.53,0,0,1,5.08-9.26c.33-.47.6-.36.84.06a1.94,1.94,0,0,1,.2.86,4.49,4.49,0,0,1-.81,2.4c-1.24,2-3.94,7.19-5.29,10.16a.47.47,0,0,1-.74.2,2.18,2.18,0,0,1-1.17-2.07C211.71,97.07,211.68,96.63,211.68,96.1Z"></path><path class="cls-5" d="M227.13,86.35a3.56,3.56,0,0,1,2,3.54A11.19,11.19,0,0,1,227.72,95c-1.49,2.73-3.72,5-6.25,5a4.1,4.1,0,0,1-4.09-4.45c0-4.64,4.14-8.71,6.65-9.59a3.93,3.93,0,0,1,1.32-.22A2.38,2.38,0,0,1,227.13,86.35Zm-1.41,7.86a11.35,11.35,0,0,0,1.5-5.15c0-1.06-.22-1.76-.69-1.94-1-.35-3.56,1.1-5.56,4.16a9.76,9.76,0,0,0-1.61,5.06c0,1.54.55,2.4,1.39,2.4C222.11,98.74,224.16,97.07,225.72,94.21Z"></path><path class="cls-5" d="M233.71,96.58c.26-1.23.9-3.19,1.47-5-1.8,2.44-4,5.59-5.52,8a.62.62,0,0,1-1,.16,2.24,2.24,0,0,1-.83-1.83,6.73,6.73,0,0,1,.17-1.3,59.26,59.26,0,0,1,3.61-10.34c.31-.55.69-.57,1-.09a2,2,0,0,1,.29,1.08,9.52,9.52,0,0,1-.73,2.77c-.72,1.94-1.16,2.84-2,5.59a108.67,108.67,0,0,1,6.69-9.09.51.51,0,0,1,.9,0,1.76,1.76,0,0,1,.42,1.16,5.6,5.6,0,0,1-.4,1.76c-.68,2-1.29,3.5-2.11,6.65,2.29-3.54,5.55-7.44,7.68-10.14.4-.49.77-.36.84.15.11.79-.16,1.8-2.38,4.66-1.74,2.25-4.29,5.53-6.31,8.65-.27.38-.6.51-1,.13a2.66,2.66,0,0,1-.91-1.93A6,6,0,0,1,233.71,96.58Z"></path></g></g><g id="EARN-2_" data-name="EARN-2%" class="cls-4"><g class="cls-4"><path class="cls-5" d="M63.77,97.59V88h9.94v2.16H66.17v1.62h6.7v2h-6.7v1.62h7.54v2.15Z"></path><path class="cls-5" d="M83.47,95.65h-6l-.89,1.94H74L78.73,88H82.4L87,97.59h-2.6Zm-5.09-2h4.2L80.86,90h-.75Z"></path><path class="cls-5" d="M87.67,88h7.41a3.31,3.31,0,0,1,1.83,6.21l1.71,3.38h-2.7l-1.33-2.93H90.07v2.93h-2.4Zm2.4,2.16v2.46h4.67c1.17,0,1.43-.67,1.43-1.29s-.26-1.17-1.43-1.17Z"></path><path class="cls-5" d="M102.63,90.87H102v6.72H99.64V88H103l6.34,6.06h.6V88h2.4v9.59h-2.9Z"></path><path class="cls-5" d="M116.93,97.59V95.5C118.88,94,121,92.22,121,90.93c0-.65-.57-1.09-1.53-1.09a6.47,6.47,0,0,0-2.5.59l-.41-1.79a6.23,6.23,0,0,1,3.13-.83c2.17,0,3.76.81,3.76,2.65s-2,3.59-3.85,5v0h4.07v2.09Z"></path><path class="cls-5" d="M127.15,87.82a2.83,2.83,0,1,1-2.77,2.83A2.51,2.51,0,0,1,127.15,87.82Zm5.95.18H135l-6.74,9.59h-1.92Zm-5.95,3.85c.5,0,.77-.38.77-1.2s-.16-1.2-.77-1.2-.77.39-.77,1.2S126.57,91.85,127.15,91.85Zm7.23.26a2.83,2.83,0,1,1-2.77,2.83A2.51,2.51,0,0,1,134.38,92.11Zm0,4c.51,0,.77-.38.77-1.2s-.16-1.19-.77-1.19-.77.38-.77,1.19S133.81,96.14,134.38,96.14Z"></path></g></g><line id="Line-3" class="cls-6" x1="264.95" y1="68.3" x2="276.95" y2="61.3"></line><line id="Line-3-2" data-name="Line-3" class="cls-6" x1="259.95" y1="64.3" x2="264.45" y2="57.8"></line><line id="Line-3-3" data-name="Line-3" class="cls-6" x1="264.95" y1="75.3" x2="273.2" y2="73.55"></line><g id="h-m"><g id="Shape"><path class="cls-7" d="M42.36,79.71c1.58-.79,2.4-.66,2.42.13a31.62,31.62,0,0,1-.25,3.4C43.92,88.63,43,93,42.87,98.57c2.62-6.76,4.79-11.42,7.61-17.2.9-1.84,1.48-1.49,2.22-1.84,2.86-1.27,3-.48,2.57,1.1-1.38,5.73-4.91,23.85-5.46,26.63-.16.81-1.05.48-1.26.16-1-1.4-2.19-1.42-2.07-2.37.65-4.62,3-16.3,3.56-19.06-3.07,6.24-6.24,14.08-7.86,18.49-.35.94-1,.87-1.36.19-.57-1-1.63-1.48-1.79-2.62-.57-3.62.63-10.55.79-14.94-1.64,4.78-4.45,14.09-5.66,18.28-.51,1.75-2.2,1.44-1.75-.22,1.87-7.07,5.87-19.52,7.59-24,.41-1.07,1.49-1,2.36-1.46Zm-10.11-.87c-.55-.12-2.14.73-3.11.87a1.23,1.23,0,0,0-.69.63c-1.54,3.55-2.92,6.91-4.1,10q-2.67.48-5.32,1c1.44-3.65,2.88-7.27,4.28-10.73.69-1.75-1.13-1.91-1.85-.17-.91,2.25-2.64,6.48-4.54,11.41-1.41.34-2.93.73-4.47,1.19-1.14.3-1.18.61-.69,1.3.28.36.81.32,1.07.6.67.69,1.08,1.52,2.28,1.65C14,99.42,13,102.32,12,105.09c-.61,1.76,1.12,2.13,1.77.26,1.05-3,2.17-6,3.33-9,.95-.2,3.25-.69,5.38-1.17-1.69,4.65-2.78,8.16-3.23,9.88a.88.88,0,0,0,.14.65c.55.81,1.12.85,1.85,1.88a.62.62,0,0,0,1.1-.26q2.17-6.61,4.65-13.13a3.93,3.93,0,0,0,2.46-1.43c1.21-1.83,1.56-1.46,1.88-2,.37-.71.11-1.34-1.19-1.19l-1.43.14C30.2,86,31.5,82.81,32.39,80.4c.3-.83.34-1.44-.14-1.56Z"></path><path class="cls-8" d="M30.82,101.86c.21-.27.4-.54.57-.8.77-1.13,0-1.8-.77-1.13-.11.1-.23.21-.34.33L29.89,99a14.61,14.61,0,0,0,1-1.36,1.47,1.47,0,1,0-2.3-1.82,1.88,1.88,0,0,0-.26,1.92c0,.18.12.43.21.73-.4.42-.78.84-1.15,1.27-1.23,1.42-.89,3.25.41,3.65a2.29,2.29,0,0,0,2.17-.67,2.09,2.09,0,0,1,.08.23c.35.85,1.43.58,1-.45-.07-.17-.15-.41-.25-.68Zm-1.76-1.79q.15.51.33,1c-.14.11-.29.23-.43.32-.51.29-.88,0-.23-.9Zm.4-2.48c0-.09-.06-.18-.08-.26-.36-1.35,1.2-1,.41-.1A2.88,2.88,0,0,1,29.46,97.59Z"></path></g></g></g></g></g></g><g id="Marketing-Tools-2" data-name="Marketing-Tools"><g id="Desktop-HD-Copy-2" data-name="Desktop-HD-Copy"><g id="Group-3"><circle id="Oval" class="cls-9" cx="27.5" cy="28.81" r="21"></circle></g></g></g><path class="cls-10" d="M25.49,22.56h0l-3,2.08c-.17.11-.31.05-.31-.17V21a.48.48,0,0,1,.2-.4l3.19-2.29a.75.75,0,0,1,.51-.17h3.13a.26.26,0,0,1,.28.28V36.9a.26.26,0,0,1-.28.28H25.77a.26.26,0,0,1-.28-.28Z"></path></svg> 