<?xml version="1.0" encoding="UTF-8"?> <svg xmlns="http://www.w3.org/2000/svg" id="Layer_1" data-name="Layer 1" viewBox="0 0 97.52 43.1"><defs><style>.cls-1{fill:#222;}.cls-2{fill:#009688;}.cls-3{fill:#fff;}</style></defs><g id="Marketing-Tools"><g id="Desktop-HD-Copy"><g id="Group-3"><circle id="Oval" class="cls-1" cx="24.05" cy="21.55" r="21"></circle><g id="doot-arrow"><g id="next"><g id="Group"><path id="Path" class="cls-2" d="M95.25,21.26h0A.79.79,0,1,0,96,22a.78.78,0,0,0-.79-.78Z"></path><path id="Path-2" data-name="Path" class="cls-2" d="M92.12,21.26h0a.79.79,0,1,0,.78.78.78.78,0,0,0-.78-.78Z"></path><path id="Path-3" data-name="Path" class="cls-2" d="M89,21.26h0a.79.79,0,1,0,.78.78.78.78,0,0,0-.78-.78Z"></path><path id="Path-4" data-name="Path" class="cls-2" d="M85.87,21.26h0a.79.79,0,1,0,.78.78.78.78,0,0,0-.78-.78Z"></path><path id="Path-5" data-name="Path" class="cls-2" d="M82.74,21.26h0a.79.79,0,1,0,.78.78.78.78,0,0,0-.78-.78Z"></path><path id="Path-6" data-name="Path" class="cls-2" d="M79.61,21.26h0a.79.79,0,0,0,0,1.57.79.79,0,1,0,0-1.57Z"></path><path id="Path-7" data-name="Path" class="cls-2" d="M76.48,21.26h0a.79.79,0,1,0,.79.78.78.78,0,0,0-.79-.78Z"></path><path id="Path-8" data-name="Path" class="cls-2" d="M92.12,18.13h0a.78.78,0,1,0,.78.78.78.78,0,0,0-.78-.78Z"></path><path id="Path-9" data-name="Path" class="cls-2" d="M89,18.13h0a.78.78,0,1,0,.78.78.78.78,0,0,0-.78-.78Z"></path><path id="Path-10" data-name="Path" class="cls-2" d="M85.87,18.13h0a.78.78,0,1,0,.78.78.78.78,0,0,0-.78-.78Z"></path><path id="Path-11" data-name="Path" class="cls-2" d="M82.74,18.13h0a.78.78,0,1,0,.78.78.78.78,0,0,0-.78-.78Z"></path><path id="Path-12" data-name="Path" class="cls-2" d="M79.61,18.13h0a.78.78,0,0,0,0,1.56.78.78,0,1,0,0-1.56Z"></path><path id="Path-13" data-name="Path" class="cls-2" d="M89,15h0a.79.79,0,1,0,.78.78A.78.78,0,0,0,89,15Z"></path><path id="Path-14" data-name="Path" class="cls-2" d="M85.87,15h0a.79.79,0,1,0,.78.78.78.78,0,0,0-.78-.78Z"></path><path id="Path-15" data-name="Path" class="cls-2" d="M82.74,15h0a.79.79,0,1,0,.78.78.78.78,0,0,0-.78-.78Z"></path><path id="Path-16" data-name="Path" class="cls-2" d="M79.61,15h0a.79.79,0,0,0,0,1.57.79.79,0,1,0,0-1.57Z"></path><path id="Path-17" data-name="Path" class="cls-2" d="M85.87,11.85h0a.79.79,0,1,0,.78.79.78.78,0,0,0-.78-.79Z"></path><path id="Path-18" data-name="Path" class="cls-2" d="M82.74,11.85h0a.79.79,0,1,0,.78.79.78.78,0,0,0-.78-.79Z"></path><path id="Path-19" data-name="Path" class="cls-2" d="M79.61,11.85h0a.79.79,0,1,0,.79.79.79.79,0,0,0-.79-.79Z"></path><path id="Path-20" data-name="Path" class="cls-2" d="M82.74,8.72h0a.78.78,0,0,0-.78.78.78.78,0,1,0,1.56,0,.78.78,0,0,0-.78-.78Z"></path><path id="Path-21" data-name="Path" class="cls-2" d="M79.61,8.72h0a.78.78,0,0,0-.78.78.79.79,0,0,0,.78.79.8.8,0,0,0,.79-.79.79.79,0,0,0-.79-.78Z"></path><path id="Path-22" data-name="Path" class="cls-2" d="M79.61,5.58h0a.79.79,0,1,0,.79.79.79.79,0,0,0-.79-.79Z"></path><path id="Path-23" data-name="Path" class="cls-2" d="M92.12,24.4h0a.78.78,0,1,0,.78.78.78.78,0,0,0-.78-.78Z"></path><path id="Path-24" data-name="Path" class="cls-2" d="M89,24.4h0a.78.78,0,1,0,.78.78A.78.78,0,0,0,89,24.4Z"></path><path id="Path-25" data-name="Path" class="cls-2" d="M85.87,24.4h0a.78.78,0,1,0,.78.78.78.78,0,0,0-.78-.78Z"></path><path id="Path-26" data-name="Path" class="cls-2" d="M82.74,24.4h0a.78.78,0,1,0,.78.78.78.78,0,0,0-.78-.78Z"></path><path id="Path-27" data-name="Path" class="cls-2" d="M79.61,24.4h0a.78.78,0,0,0,0,1.56.78.78,0,1,0,0-1.56Z"></path><path id="Path-28" data-name="Path" class="cls-2" d="M89,27.53h0a.79.79,0,1,0,.78.79.78.78,0,0,0-.78-.79Z"></path><path id="Path-29" data-name="Path" class="cls-2" d="M85.87,27.53h0a.79.79,0,1,0,.78.79.78.78,0,0,0-.78-.79Z"></path><path id="Path-30" data-name="Path" class="cls-2" d="M82.74,27.53h0a.79.79,0,1,0,.78.79.78.78,0,0,0-.78-.79Z"></path><path id="Path-31" data-name="Path" class="cls-2" d="M79.61,27.53h0a.79.79,0,1,0,.79.79.79.79,0,0,0-.79-.79Z"></path><path id="Path-32" data-name="Path" class="cls-2" d="M85.87,30.67h0a.79.79,0,1,0,.78.78.78.78,0,0,0-.78-.78Z"></path><path id="Path-33" data-name="Path" class="cls-2" d="M82.74,30.67h0a.79.79,0,1,0,.78.78.78.78,0,0,0-.78-.78Z"></path><path id="Path-34" data-name="Path" class="cls-2" d="M79.61,30.67h0a.79.79,0,0,0,0,1.57.79.79,0,1,0,0-1.57Z"></path><path id="Path-35" data-name="Path" class="cls-2" d="M82.74,33.8h0a.79.79,0,0,0-.78.79.78.78,0,0,0,1.56,0,.79.79,0,0,0-.78-.79Z"></path><path id="Path-36" data-name="Path" class="cls-2" d="M79.61,33.8h0a.79.79,0,0,0-.78.79.78.78,0,0,0,.78.78.79.79,0,0,0,.79-.78.8.8,0,0,0-.79-.79Z"></path><path id="Path-37" data-name="Path" class="cls-2" d="M79.61,36.94h0a.79.79,0,0,0,0,1.57.79.79,0,1,0,0-1.57Z"></path><path id="Path-38" data-name="Path" class="cls-2" d="M73.35,21.26h0a.79.79,0,1,0,.78.78.78.78,0,0,0-.78-.78Z"></path><path id="Path-39" data-name="Path" class="cls-2" d="M70.22,21.26h0A.79.79,0,1,0,71,22a.78.78,0,0,0-.78-.78Z"></path><path id="Path-40" data-name="Path" class="cls-2" d="M67.1,21.26h0a.79.79,0,1,0,.78.78.78.78,0,0,0-.78-.78Z"></path><path id="Path-41" data-name="Path" class="cls-2" d="M64,21.26h0a.79.79,0,1,0,.78.78.78.78,0,0,0-.78-.78Z"></path><path id="Path-42" data-name="Path" class="cls-2" d="M60.84,21.26h0a.79.79,0,1,0,.78.78.78.78,0,0,0-.78-.78Z"></path><path id="Path-43" data-name="Path" class="cls-2" d="M76.48,24.4h0a.78.78,0,1,0,.79.78.78.78,0,0,0-.79-.78Z"></path><path id="Path-44" data-name="Path" class="cls-2" d="M73.35,24.4h0a.78.78,0,1,0,.78.78.78.78,0,0,0-.78-.78Z"></path><path id="Path-45" data-name="Path" class="cls-2" d="M70.22,24.4h0a.78.78,0,1,0,.78.78.78.78,0,0,0-.78-.78Z"></path><path id="Path-46" data-name="Path" class="cls-2" d="M67.1,24.4h0a.78.78,0,1,0,.78.78.78.78,0,0,0-.78-.78Z"></path><path id="Path-47" data-name="Path" class="cls-2" d="M64,24.4h0a.78.78,0,1,0,.78.78A.78.78,0,0,0,64,24.4Z"></path><path id="Path-48" data-name="Path" class="cls-2" d="M60.84,24.4h0a.78.78,0,1,0,.78.78.78.78,0,0,0-.78-.78Z"></path><path id="Path-49" data-name="Path" class="cls-2" d="M76.48,18.13h0a.78.78,0,1,0,.79.78.78.78,0,0,0-.79-.78Z"></path><path id="Path-50" data-name="Path" class="cls-2" d="M73.35,18.13h0a.78.78,0,1,0,.78.78A.77.77,0,0,0,73.35,18.13Z"></path><path id="Path-51" data-name="Path" class="cls-2" d="M70.22,18.13h0a.78.78,0,1,0,.78.78A.77.77,0,0,0,70.22,18.13Z"></path><path id="Path-52" data-name="Path" class="cls-2" d="M67.1,18.13h0a.78.78,0,1,0,.78.78A.77.77,0,0,0,67.1,18.13Z"></path><path id="Path-53" data-name="Path" class="cls-2" d="M64,18.13h0a.78.78,0,1,0,.78.78A.77.77,0,0,0,64,18.13Z"></path><path id="Path-54" data-name="Path" class="cls-2" d="M60.84,18.13h0a.78.78,0,1,0,.78.78A.77.77,0,0,0,60.84,18.13Z"></path></g><path id="Path-55" data-name="Path" d="M95.25,22.83a.79.79,0,0,1,0-1.57h0a.79.79,0,0,1,0,1.57Z"></path><path id="Path-56" data-name="Path" d="M92.12,22.83a.79.79,0,0,1,0-1.57h0a.79.79,0,0,1,0,1.57Z"></path><path id="Path-57" data-name="Path" d="M89,22.83a.79.79,0,0,1,0-1.57h0a.79.79,0,1,1,0,1.57Z"></path><path id="Path-58" data-name="Path" d="M85.87,22.83a.79.79,0,1,1,0-1.57h0a.79.79,0,0,1,0,1.57Z"></path><path id="Path-59" data-name="Path" d="M82.74,22.83a.79.79,0,1,1,0-1.57h0a.79.79,0,0,1,0,1.57Z"></path><path id="Path-60" data-name="Path" d="M79.61,22.83a.79.79,0,0,1,0-1.57h0a.79.79,0,0,1,0,1.57Z"></path><path id="Path-61" data-name="Path" d="M76.48,22.83a.79.79,0,0,1,0-1.57h0a.79.79,0,0,1,0,1.57Z"></path><path id="Path-62" data-name="Path" d="M92.12,19.69a.78.78,0,0,1-.78-.78.79.79,0,0,1,.78-.79h0a.79.79,0,0,1,.78.79A.78.78,0,0,1,92.12,19.69Z"></path><path id="Path-63" data-name="Path" d="M89,19.69a.78.78,0,0,1-.78-.78.79.79,0,0,1,.78-.79h0a.79.79,0,0,1,.79.79A.78.78,0,0,1,89,19.69Z"></path><path id="Path-64" data-name="Path" d="M85.87,19.69a.78.78,0,0,1-.79-.78.79.79,0,0,1,.79-.79h0a.79.79,0,0,1,.78.79A.78.78,0,0,1,85.87,19.69Z"></path><path id="Path-65" data-name="Path" d="M82.74,19.69a.79.79,0,0,1-.79-.78.8.8,0,0,1,.79-.79h0a.79.79,0,0,1,.78.79A.78.78,0,0,1,82.74,19.69Z"></path><path id="Path-66" data-name="Path" d="M79.61,19.69a.78.78,0,0,1-.78-.78.79.79,0,0,1,.78-.79h0a.79.79,0,0,1,.78.79A.78.78,0,0,1,79.61,19.69Z"></path><path id="Path-67" data-name="Path" d="M89,16.56A.79.79,0,0,1,89,15h0a.79.79,0,1,1,0,1.57Z"></path><path id="Path-68" data-name="Path" d="M85.87,16.56a.79.79,0,1,1,0-1.57h0a.79.79,0,0,1,0,1.57Z"></path><path id="Path-69" data-name="Path" d="M82.74,16.56a.79.79,0,1,1,0-1.57h0a.79.79,0,0,1,0,1.57Z"></path><path id="Path-70" data-name="Path" d="M79.61,16.56a.79.79,0,0,1,0-1.57h0a.79.79,0,0,1,0,1.57Z"></path><path id="Path-71" data-name="Path" d="M85.87,13.42a.79.79,0,1,1,0-1.57h0a.79.79,0,0,1,0,1.57Z"></path><path id="Path-72" data-name="Path" d="M82.74,13.42a.79.79,0,1,1,0-1.57h0a.79.79,0,0,1,0,1.57Z"></path><path id="Path-73" data-name="Path" d="M79.61,13.42a.79.79,0,0,1,0-1.57h0a.79.79,0,0,1,0,1.57Z"></path><path id="Path-74" data-name="Path" d="M82.74,10.29A.8.8,0,0,1,82,9.5a.79.79,0,0,1,.79-.78h0a.78.78,0,0,1,.78.78A.79.79,0,0,1,82.74,10.29Z"></path><path id="Path-75" data-name="Path" d="M79.61,10.29a.79.79,0,0,1-.78-.79.78.78,0,0,1,.78-.78h0a.78.78,0,0,1,.78.78A.79.79,0,0,1,79.61,10.29Z"></path><path id="Path-76" data-name="Path" d="M79.61,7.15a.79.79,0,0,1,0-1.57h0a.79.79,0,0,1,0,1.57Z"></path><path id="Path-77" data-name="Path" d="M92.12,26a.78.78,0,0,1,0-1.56h0a.78.78,0,0,1,0,1.56Z"></path><path id="Path-78" data-name="Path" d="M89,26a.78.78,0,0,1,0-1.56h0A.78.78,0,1,1,89,26Z"></path><path id="Path-79" data-name="Path" d="M85.87,26a.78.78,0,1,1,0-1.56h0a.78.78,0,0,1,0,1.56Z"></path><path id="Path-80" data-name="Path" d="M82.74,26a.78.78,0,1,1,0-1.56h0a.78.78,0,0,1,0,1.56Z"></path><path id="Path-81" data-name="Path" d="M79.61,26a.78.78,0,0,1,0-1.56h0a.78.78,0,0,1,0,1.56Z"></path><path id="Path-82" data-name="Path" d="M89,29.1a.79.79,0,0,1,0-1.57h0a.79.79,0,1,1,0,1.57Z"></path><path id="Path-83" data-name="Path" d="M85.87,29.1a.79.79,0,1,1,0-1.57h0a.79.79,0,0,1,0,1.57Z"></path><path id="Path-84" data-name="Path" d="M82.74,29.1a.79.79,0,1,1,0-1.57h0a.79.79,0,0,1,0,1.57Z"></path><path id="Path-85" data-name="Path" d="M79.61,29.1a.79.79,0,0,1,0-1.57h0a.79.79,0,0,1,0,1.57Z"></path><path id="Path-86" data-name="Path" d="M85.87,32.24a.79.79,0,1,1,0-1.57h0a.79.79,0,0,1,0,1.57Z"></path><path id="Path-87" data-name="Path" d="M82.74,32.24a.79.79,0,1,1,0-1.57h0a.79.79,0,0,1,0,1.57Z"></path><path id="Path-88" data-name="Path" d="M79.61,32.24a.79.79,0,0,1,0-1.57h0a.79.79,0,0,1,0,1.57Z"></path><path id="Path-89" data-name="Path" d="M82.74,35.37a.79.79,0,0,1-.79-.78.8.8,0,0,1,.79-.79h0a.79.79,0,0,1,.78.79A.78.78,0,0,1,82.74,35.37Z"></path><path id="Path-90" data-name="Path" d="M79.61,35.37a.78.78,0,0,1-.78-.78.79.79,0,0,1,.78-.79h0a.79.79,0,0,1,.78.79A.78.78,0,0,1,79.61,35.37Z"></path><path id="Path-91" data-name="Path" d="M79.61,38.51a.79.79,0,0,1,0-1.57h0a.79.79,0,0,1,0,1.57Z"></path><path id="Path-92" data-name="Path" d="M73.35,22.83a.79.79,0,0,1,0-1.57h0a.79.79,0,0,1,0,1.57Z"></path><path id="Path-93" data-name="Path" d="M70.22,22.83a.79.79,0,0,1,0-1.57h0a.79.79,0,1,1,0,1.57Z"></path><path id="Path-94" data-name="Path" d="M67.1,22.83a.79.79,0,1,1,0-1.57h0a.79.79,0,0,1,0,1.57Z"></path><path id="Path-95" data-name="Path" d="M64,22.83a.79.79,0,0,1,0-1.57h0a.79.79,0,0,1,0,1.57Z"></path><path id="Path-96" data-name="Path" d="M60.84,22.83a.79.79,0,0,1,0-1.57h0a.79.79,0,0,1,0,1.57Z"></path><path id="Path-97" data-name="Path" d="M76.48,26a.78.78,0,0,1,0-1.56h0a.78.78,0,0,1,0,1.56Z"></path><path id="Path-98" data-name="Path" d="M73.35,26a.78.78,0,0,1,0-1.56h0a.78.78,0,0,1,0,1.56Z"></path><path id="Path-99" data-name="Path" d="M70.22,26a.78.78,0,0,1,0-1.56h0a.78.78,0,1,1,0,1.56Z"></path><path id="Path-100" data-name="Path" d="M67.1,26a.78.78,0,1,1,0-1.56h0a.78.78,0,0,1,0,1.56Z"></path><path id="Path-101" data-name="Path" d="M64,26a.78.78,0,0,1,0-1.56h0A.78.78,0,0,1,64,26Z"></path><path id="Path-102" data-name="Path" d="M60.84,26a.78.78,0,0,1,0-1.56h0a.78.78,0,1,1,0,1.56Z"></path><path id="Path-103" data-name="Path" d="M76.48,19.69a.78.78,0,0,1-.78-.78.79.79,0,0,1,.78-.79h0a.79.79,0,0,1,.78.79A.78.78,0,0,1,76.48,19.69Z"></path><path id="Path-104" data-name="Path" d="M73.35,19.69a.78.78,0,0,1-.78-.78.79.79,0,0,1,.78-.79h0a.79.79,0,0,1,.78.79A.78.78,0,0,1,73.35,19.69Z"></path><path id="Path-105" data-name="Path" d="M70.22,19.69a.78.78,0,0,1-.78-.78.79.79,0,0,1,.78-.79h0a.79.79,0,0,1,.79.79A.78.78,0,0,1,70.22,19.69Z"></path><path id="Path-106" data-name="Path" d="M67.1,19.69a.78.78,0,0,1-.79-.78.79.79,0,0,1,.79-.79h0a.79.79,0,0,1,.78.79A.78.78,0,0,1,67.1,19.69Z"></path><path id="Path-107" data-name="Path" d="M64,19.69a.78.78,0,0,1-.78-.78.79.79,0,0,1,.78-.79h0a.79.79,0,0,1,.78.79A.78.78,0,0,1,64,19.69Z"></path><path id="Path-108" data-name="Path" d="M60.84,19.69a.78.78,0,0,1-.78-.78.79.79,0,0,1,.78-.79h0a.79.79,0,0,1,.78.79A.78.78,0,0,1,60.84,19.69Z"></path></g></g></g></g></g><path class="cls-3" d="M16.65,26.51V23.65a.65.65,0,0,1,.06-.33l5.71-12.57a.38.38,0,0,1,.39-.23h3.56c.19,0,.25.11.19.28L20.85,23.32v.08h3.5a.15.15,0,0,0,.17-.17V19.12a.26.26,0,0,1,.28-.28h3.25a.26.26,0,0,1,.28.28v4.11c0,.12.05.17.17.17h1.26a.27.27,0,0,1,.28.28v2.83a.27.27,0,0,1-.28.28H28.5a.15.15,0,0,0-.17.17v2.32a.26.26,0,0,1-.28.28H24.8a.26.26,0,0,1-.28-.28V27a.15.15,0,0,0-.17-.17H16.93A.26.26,0,0,1,16.65,26.51Z"></path></svg> 