<?xml version="1.0" encoding="UTF-8"?> <svg xmlns="http://www.w3.org/2000/svg" xmlns:xlink="http://www.w3.org/1999/xlink" id="Layer_1" data-name="Layer 1" viewBox="0 0 274.47 123.71"><defs><style>.cls-1{fill:#fff;}.cls-1,.cls-3{fill-rule:evenodd;}.cls-2{mask:url(#mask);}.cls-3{fill:#7c7c7c;}.cls-4{mask:url(#mask-2);}</style><mask id="mask" x="37.17" y="38.42" width="25.95" height="38.18" maskUnits="userSpaceOnUse"><g id="mask-3"><polygon id="path-2" class="cls-1" points="37.17 38.42 63.13 38.42 63.13 76.59 37.17 76.59 37.17 38.42"></polygon></g></mask><mask id="mask-2" x="231.58" y="37.33" width="10.5" height="39.56" maskUnits="userSpaceOnUse"><g id="mask-5"><polygon id="path-4" class="cls-1" points="231.58 37.33 242.08 37.33 242.08 76.88 231.58 76.88 231.58 37.33"></polygon></g></mask></defs><g id="Marketing-Tools"><g id="Desktop-HD-Copy"><g id="befrugal"><g id="Group-19"><g id="Group-3"><g class="cls-2"><path id="Fill-1" class="cls-3" d="M51.54,69.16c-1.89.56-4,1.38-5.76.21-1.51-1-.43-3.09-.68-4.66a5,5,0,0,1,0-.67,2.08,2.08,0,0,1,0-.66c.52-1.42-1.33-4,1.49-4.21,4.71-.37,7.46.21,8.29,4a5,5,0,0,1-3.35,6M49.62,45.49C52,46,53.05,47,53,48.88c0,2-1.54,3.43-4,3.65-3.89.35-3.92.32-3.92-3.51s.66-4.36,4.52-3.53M58.84,56c-.34-.26-.65-.57-1.14-1,1.12-1.34,2.22-2.26,2.74-3.71C62.3,46,59.16,40.54,53.29,39.09c-4.61-1.14-9.28-.5-13.93-.38-1.93,0-2.2,1.19-2.19,2.87.07,10.59,0,21.19,0,31.78a15.48,15.48,0,0,0,0,1.67c.11.87.55,1.47,1.51,1.45,5.21-.1,10.5.66,15.6-.75,4.3-1.18,7.67-3.75,8.53-8.44.8-4.44-.2-8.43-4-11.3"></path></g></g><path id="Fill-4" class="cls-3" d="M184.26,78a11.37,11.37,0,0,1-1.44-.72c2.82.41,6-1,9.11.26-2.91,2-5.23,1.34-7.67.46m3.19-23.47a4,4,0,0,1,4,4.09c0,2.42-1.54,4.3-3.66,4.34a4.36,4.36,0,0,1-4.26-4.29,4.17,4.17,0,0,1,4-4.14m6.1,15.24a3.9,3.9,0,0,0-2.49-.31,4,4,0,0,0,1.76-.88c3.34-1.15,5.15-3.56,6.08-6.91a10.89,10.89,0,0,0-.36-6.87,1.69,1.69,0,0,1,.57-2.23c1.75-1.61,1.7-1.7,0-3.29-.82-.75-1.67-1.47-2.54-2.16-.59-.46-1.43-.57-1.8,0-1.29,2.18-3,1.49-4.83,1a9.65,9.65,0,0,0-2.63-.29c-7.24,0-12.1,5.48-11.29,12.57.3,2.57,1.83,4.47,3.33,6.37-3.67,4-3.47,6.4.71,9.21a4.8,4.8,0,0,0,1.05.7,2.43,2.43,0,0,0-1.63.72,15.93,15.93,0,0,1-2.61,3.44c-1,1-.94,1.81.29,2.7,5.18,3.79,14.48,4.31,19.82.56a8.15,8.15,0,0,0,3.6-8.36c-.73-3.52-2.89-5.37-7-6"></path><path id="Fill-6" class="cls-3" d="M83.2,59.1c-3,0-6,0-9.2,0,1.75-4.27,5.23-5.58,8.6-3.61a4,4,0,0,1,1.71,2c.44,1,.18,1.68-1.11,1.67M70.82,50.9c-5.16,4.23-6.45,10.85-4.57,17.27a11.47,11.47,0,0,0,8.49,8.18,19.35,19.35,0,0,0,10.51-.22c4.84-1.35,5.33-2.86,2.45-6.87-.67-.93-1.4-1.32-2.47-.5-2.13,1.63-4.6,1.47-7,1.16a5.26,5.26,0,0,1-4-2.72c-.84-1.44-.57-2,1-2.07,2.45-.06,4.9,0,7.35,0s5.12,0,7.68,0c1.38,0,2.1-.5,2.18-1.89a19.1,19.1,0,0,0-.32-6.3c-2.61-9.47-14.89-11.29-21.3-6"></path><path id="Fill-8" class="cls-3" d="M119.56,39c-6.67.06-13.34,0-20,0-2.75,0-2.82.06-2.84,2.79,0,5.24,0,10.48,0,15.71V71.53c0,5.58-.46,5,5,5,2.72,0,2.84-.14,2.86-2.81,0-3.46,0-6.91,0-10.37,0-3.88-.54-3.44,3.62-3.47,1.56,0,3.11,0,4.67,0,4.7-.08,4.42,1,4.41-4.83,0-.11,0-.23,0-.34,0-1.11-.47-1.62-1.6-1.61-2.22,0-4.44,0-6.67,0-5-.12-4.31,1.07-4.45-4.7,0-1.57.43-2.19,2.07-2.15,3.44.1,6.89,0,10.34,0,5.7,0,4.76.39,5-5.07.06-1.87-.74-2.22-2.37-2.2"></path><path id="Fill-10" class="cls-3" d="M217.48,66.15a4.56,4.56,0,0,1-6.09,4.2,2.55,2.55,0,0,1-1.9-2.11A3.25,3.25,0,0,1,211,64.77a6.14,6.14,0,0,1,3.58-1c2.92,0,3.08.12,2.95,2.37m7.83,1.17A64.72,64.72,0,0,0,224.79,57c-.44-3-1.42-5.72-4.25-7.17-5.39-2.76-10.8-2.4-16.19.1.43,1.6.77,2.88,1.12,4.17s.84,1.95,2.37,1.33a9.82,9.82,0,0,1,3.57-.65c2,0,4.22-.32,5.9,2.63a23.1,23.1,0,0,0-6.21.45,11.15,11.15,0,0,0-7.41,4.07c-3.25,4-2.92,12.52,4.05,14.45a12.35,12.35,0,0,0,9.06-.64c1.29-.65,2-1,3.31.19a4.67,4.67,0,0,0,6.75-.93c.33-.47.6-.91.06-1.43-1.81-1.75-1.64-4-1.61-6.25"></path><path id="Fill-12" class="cls-3" d="M172.61,53.57c0-5.75.52-5.11-5.25-5.11-2.42,0-2.57.18-2.59,2.74,0,4.68,0,9.37,0,14,0,3-1.6,4.54-4.72,4.81s-4-.59-4.53-3.92a16.51,16.51,0,0,1-.09-2.33q0-5.19,0-10.37c0-5.41-.22-5.58-5.6-5a1.84,1.84,0,0,0-1.93,2.14c0,6.13-.1,12.27.19,18.39.2,4.29,3.14,6.93,7.4,7.74a14.27,14.27,0,0,0,7.47-.85c.58-.2,1.18-.92,1.8-.25,1.57,1.7,3.57.78,5.36.86,2.21.11,2.47-.24,2.5-2.48,0-3.79,0-7.58,0-11.37v-9"></path><g id="Group-16"><g class="cls-4"><path id="Fill-14" class="cls-3" d="M241.59,72.83c-2.34-1.59-2.14-4-2.14-6.3q0-12.73,0-25.45a22.8,22.8,0,0,0,0-2.34c-.11-1-.65-1.62-1.79-1.34a31.2,31.2,0,0,1-3.88.92c-1.7.19-2.21,1-2.18,2.65.08,4.9,0,9.82,0,14.73q0,7,0,14.06a11.6,11.6,0,0,0,.39,3.3,4.59,4.59,0,0,0,3.78,3.71,6.06,6.06,0,0,0,5.7-1.92c.59-.6.95-1.45.12-2"></path></g></g><path id="Fill-17" class="cls-3" d="M144,48.58a12.23,12.23,0,0,0-8.47.31c-.53.24-1.08.94-1.78.32-1.64-1.46-3.61-.51-5.42-.75s-2.37.66-2.34,2.35c.06,3.9,0,7.81,0,11.71,0,2.9,0,5.8,0,8.7.05,5.63-1.1,5.32,5.78,5.29,1.62,0,2.12-.86,2.08-2.33,0-1.78,0-3.57,0-5.36,0-3,0-6,0-9s3.18-5.71,5.74-4.93c3,.9,3,.74,4.34-2,.34-.7.65-1.42,1.05-2.09.73-1.26.08-2-1-2.24"></path></g></g></g></g></svg> 