<?xml version="1.0" encoding="UTF-8"?> <svg xmlns="http://www.w3.org/2000/svg" id="Layer_1" data-name="Layer 1" viewBox="0 0 280.4 190.58"><defs><style>.cls-1,.cls-11{fill:#fff;}.cls-1,.cls-2{stroke:#0b0b0b;}.cls-2{fill:#ffd03b;}.cls-10,.cls-3{fill:#222;}.cls-3{fill-rule:evenodd;}.cls-4,.cls-5{isolation:isolate;}.cls-5{font-size:22px;font-family:SignPainter-HouseScriptSemibold, SignPainter;font-weight:600;letter-spacing:-0.02em;}.cls-5,.cls-8{fill:#191919;}.cls-6{letter-spacing:-0.05em;}.cls-7{letter-spacing:-0.08em;}.cls-9{fill:none;stroke:#000;stroke-linecap:square;}</style></defs><g id="Marketing-Tools"><g id="Desktop-HD-Copy"><g id="Group-8"><rect id="Rectangle" class="cls-1" x="3.45" y="123.27" width="256" height="48" rx="3"></rect><rect id="Rectangle-2" data-name="Rectangle" class="cls-2" x="173.45" y="128.27" width="81" height="38" rx="3"></rect><polygon id="Path" class="cls-3" points="250.7 184.91 247.65 186.27 242.73 174.92 236.45 181 236.46 156.27 254.45 173.01 245.78 173.57 250.7 184.91"></polygon><g id="APPLY" class="cls-4"><text class="cls-5" transform="translate(193.45 153.32)">AP<tspan class="cls-6" x="18.06" y="0">P</tspan><tspan class="cls-7" x="26.25" y="0">L</tspan><tspan x="32.19" y="0">Y</tspan></text></g><g id="_3lK6---56R0---4LK1" data-name="3lK6---56R0---4LK1" class="cls-4"><g class="cls-4"><path class="cls-8" d="M23.44,146.37v0A2.14,2.14,0,0,1,25,148.48c0,1.94-2,3-4.16,3a5.57,5.57,0,0,1-2.59-.58l.22-2a6.59,6.59,0,0,0,2.54.61c.85,0,1.47-.37,1.47-1s-.87-1.18-2.35-1.1l-.27-1.51c1.65-.32,2.53-.68,2.53-1.37s-.59-.92-1.36-.93a5.33,5.33,0,0,0-2.36.62l-.26-1.86a5.47,5.47,0,0,1,3-.85c1.84,0,3.57.88,3.57,2.57A2.51,2.51,0,0,1,23.44,146.37Z"></path><path class="cls-8" d="M26.36,141.7h2.39V149h7.43v2.28H26.36Z"></path><path class="cls-8" d="M41.83,146.34l6.7,5H44.88L40,147.64h-.44v3.66h-2.4v-9.6h2.4v3.66h.43l5.12-3.66h3.48Z"></path><path class="cls-8" d="M55.9,143.81l-.89,0c-2.08,0-3.1.86-3.53,1.92a4.42,4.42,0,0,1,2.07-.53,2.82,2.82,0,0,1,3,2.89c0,2.06-1.7,3.43-4,3.43-2.45,0-3.89-1.58-3.89-4.1a5.82,5.82,0,0,1,5.89-5.88l.55,0Zm-4.71,3.48c0,1.32.52,2.28,1.54,2.28a1.31,1.31,0,0,0,1.33-1.36c0-.8-.67-1.18-1.5-1.18A4.1,4.1,0,0,0,51.19,147.29Z"></path><path class="cls-8" d="M60.48,147.4v-1.8H65.1v1.8Z"></path><path class="cls-8" d="M69.4,147.2l.47-5.5h6l-.18,2.1H71.88l-.17,1.62c2.52.12,4.31.86,4.31,2.87,0,1.74-1.38,3.19-4,3.19a6.41,6.41,0,0,1-2.83-.64l.12-2a5.82,5.82,0,0,0,2.64.65c1.32,0,1.69-.47,1.69-.94C73.6,147.66,72.11,147.35,69.4,147.2Z"></path><path class="cls-8" d="M83.87,143.81l-.89,0c-2.07,0-3.09.86-3.53,1.92a4.42,4.42,0,0,1,2.07-.53,2.82,2.82,0,0,1,3,2.89c0,2.06-1.7,3.43-4,3.43-2.45,0-3.89-1.58-3.89-4.1a5.82,5.82,0,0,1,5.89-5.88l.55,0Zm-4.7,3.48c0,1.32.51,2.28,1.53,2.28A1.3,1.3,0,0,0,82,148.21c0-.8-.67-1.18-1.5-1.18A4,4,0,0,0,79.17,147.29Z"></path><path class="cls-8" d="M85.6,141.7H93a3.3,3.3,0,0,1,1.82,6.21l1.72,3.39h-2.7l-1.33-2.94H88v2.94H85.6Zm2.4,2.16v2.46h4.66c1.18,0,1.44-.67,1.44-1.28s-.26-1.18-1.44-1.18Z"></path><path class="cls-8" d="M101.07,141.51c2.77,0,4,2.1,4,5s-1.18,5-4,5-4-2.1-4-5S98.29,141.51,101.07,141.51Zm0,7.89c1.26,0,1.54-1.49,1.54-3,0-1.2-.16-2.8-1.52-2.8s-1.59,1.48-1.59,2.89S99.79,149.4,101.08,149.4Z"></path><path class="cls-8" d="M109.13,147.4v-1.8h4.62v1.8Z"></path><path class="cls-8" d="M124.42,149.7v1.6H122v-1.6h-4.39v-2.1l2.52-5.9h2.63l-2.63,5.9H122v-2h2.38v2h.82v2.1Z"></path><path class="cls-8" d="M126.25,141.7h2.4V149h7.43v2.28h-9.83Z"></path><path class="cls-8" d="M141.73,146.34l6.69,5h-3.64l-4.93-3.66h-.44v3.66H137v-9.6h2.4v3.66h.43L145,141.7h3.48Z"></path><path class="cls-8" d="M148.83,151.3v-2.1H151v-5l-2.12.3V142.3l4.12-.79h.4v7.69h2v2.1Z"></path></g></g><line id="Line-3" class="cls-9" x1="264.95" y1="121.77" x2="276.95" y2="114.77"></line><line id="Line-3-2" data-name="Line-3" class="cls-9" x1="259.95" y1="117.77" x2="264.45" y2="111.27"></line><line id="Line-3-3" data-name="Line-3" class="cls-9" x1="264.95" y1="128.77" x2="273.2" y2="127.02"></line></g></g></g><g id="Marketing-Tools-2" data-name="Marketing-Tools"><g id="Desktop-HD-Copy-2" data-name="Desktop-HD-Copy"><g id="Group-3"><circle id="Oval" class="cls-10" cx="30.8" cy="81.12" r="21"></circle></g></g></g><g id="doot-arrow"><g id="next"><g id="Group"><path id="Path-2" data-name="Path" class="cls-10" d="M31.58,48.48v0a.79.79,0,1,0-.78.78.78.78,0,0,0,.78-.78v0Z"></path><path id="Path-3" data-name="Path" class="cls-10" d="M31.58,45.35v0a.79.79,0,1,0-.78.79.78.78,0,0,0,.78-.79v0Z"></path><path id="Path-4" data-name="Path" class="cls-10" d="M31.58,42.22h0a.79.79,0,1,0-.78.78.78.78,0,0,0,.78-.78Z"></path><path id="Path-5" data-name="Path" class="cls-10" d="M31.58,39.09h0a.79.79,0,1,0-.78.78.78.78,0,0,0,.78-.78Z"></path><path id="Path-6" data-name="Path" class="cls-10" d="M31.58,36h0a.79.79,0,1,0-.78.78.78.78,0,0,0,.78-.78Z"></path><path id="Path-7" data-name="Path" class="cls-10" d="M31.58,32.84v0a.79.79,0,1,0-.78.78.78.78,0,0,0,.78-.78v0Z"></path><path id="Path-8" data-name="Path" class="cls-10" d="M31.58,29.71v0a.79.79,0,1,0-.78.78.78.78,0,0,0,.78-.78v0Z"></path><path id="Path-9" data-name="Path" class="cls-10" d="M34.72,45.35v0a.79.79,0,0,0-.79-.78.79.79,0,0,0,0,1.57.79.79,0,0,0,.79-.79Z"></path><path id="Path-10" data-name="Path" class="cls-10" d="M34.72,42.22h0a.79.79,0,0,0-.79-.79.79.79,0,1,0,.79.79Z"></path><path id="Path-11" data-name="Path" class="cls-10" d="M34.72,39.09h0a.79.79,0,0,0-.79-.78.78.78,0,1,0,0,1.56.79.79,0,0,0,.79-.78Z"></path><path id="Path-12" data-name="Path" class="cls-10" d="M34.72,36h0a.79.79,0,0,0-.79-.78.78.78,0,1,0,0,1.56.79.79,0,0,0,.79-.78Z"></path><path id="Path-13" data-name="Path" class="cls-10" d="M34.72,32.84v0a.79.79,0,0,0-.79-.78.78.78,0,0,0,0,1.56.79.79,0,0,0,.79-.78Z"></path><path id="Path-14" data-name="Path" class="cls-10" d="M37.85,42.22h0a.79.79,0,1,0-.78.78.78.78,0,0,0,.78-.78Z"></path><path id="Path-15" data-name="Path" class="cls-10" d="M37.85,39.09h0a.79.79,0,1,0-.78.78.78.78,0,0,0,.78-.78Z"></path><path id="Path-16" data-name="Path" class="cls-10" d="M37.85,36h0a.79.79,0,1,0-.78.78.78.78,0,0,0,.78-.78Z"></path><path id="Path-17" data-name="Path" class="cls-10" d="M37.85,32.84v0a.79.79,0,1,0-.78.78.78.78,0,0,0,.78-.78Z"></path><path id="Path-18" data-name="Path" class="cls-10" d="M41,39.09h0a.79.79,0,1,0-.79.78.78.78,0,0,0,.79-.78Z"></path><path id="Path-19" data-name="Path" class="cls-10" d="M41,36h0a.79.79,0,1,0-.79.78A.78.78,0,0,0,41,36Z"></path><path id="Path-20" data-name="Path" class="cls-10" d="M41,32.84v0a.79.79,0,1,0-.79.78.78.78,0,0,0,.79-.78v0Z"></path><path id="Path-21" data-name="Path" class="cls-10" d="M44.12,36h0a.78.78,0,1,0-.78.78.78.78,0,0,0,.78-.78Z"></path><path id="Path-22" data-name="Path" class="cls-10" d="M44.12,32.84v0a.78.78,0,1,0-.78.78.78.78,0,0,0,.78-.78Z"></path><path id="Path-23" data-name="Path" class="cls-10" d="M47.26,32.84v0a.79.79,0,1,0-.78.78.78.78,0,0,0,.78-.78Z"></path><path id="Path-24" data-name="Path" class="cls-10" d="M28.44,45.35v0a.78.78,0,1,0-.78.79.78.78,0,0,0,.78-.79Z"></path><path id="Path-25" data-name="Path" class="cls-10" d="M28.44,42.22h0a.78.78,0,1,0-.78.78.78.78,0,0,0,.78-.78Z"></path><path id="Path-26" data-name="Path" class="cls-10" d="M28.44,39.09h0a.78.78,0,1,0-.78.78.78.78,0,0,0,.78-.78Z"></path><path id="Path-27" data-name="Path" class="cls-10" d="M28.44,36h0a.78.78,0,1,0-.78.78.78.78,0,0,0,.78-.78Z"></path><path id="Path-28" data-name="Path" class="cls-10" d="M28.44,32.84v0a.78.78,0,1,0-.78.78.78.78,0,0,0,.78-.78Z"></path><path id="Path-29" data-name="Path" class="cls-10" d="M25.31,42.22h0a.79.79,0,1,0-.79.78.79.79,0,0,0,.79-.78Z"></path><path id="Path-30" data-name="Path" class="cls-10" d="M25.31,39.09h0a.79.79,0,1,0-.79.78.78.78,0,0,0,.79-.78Z"></path><path id="Path-31" data-name="Path" class="cls-10" d="M25.31,36h0a.79.79,0,1,0-.79.78.78.78,0,0,0,.79-.78Z"></path><path id="Path-32" data-name="Path" class="cls-10" d="M25.31,32.84v0a.79.79,0,1,0-.79.78.78.78,0,0,0,.79-.78Z"></path><path id="Path-33" data-name="Path" class="cls-10" d="M22.17,39.09h0a.78.78,0,0,0-.78-.78.78.78,0,1,0,0,1.56.78.78,0,0,0,.78-.78Z"></path><path id="Path-34" data-name="Path" class="cls-10" d="M22.17,36h0a.78.78,0,0,0-.78-.78.78.78,0,1,0,0,1.56.78.78,0,0,0,.78-.78Z"></path><path id="Path-35" data-name="Path" class="cls-10" d="M22.17,32.84v0a.78.78,0,0,0-.78-.78.78.78,0,1,0,0,1.56.78.78,0,0,0,.78-.78Z"></path><path id="Path-36" data-name="Path" class="cls-10" d="M19,36h0a.79.79,0,1,0-.79.78A.78.78,0,0,0,19,36Z"></path><path id="Path-37" data-name="Path" class="cls-10" d="M19,32.84v0a.79.79,0,1,0-.79.78.78.78,0,0,0,.79-.78Z"></path><path id="Path-38" data-name="Path" class="cls-10" d="M15.9,32.84v0a.79.79,0,1,0-.78.78.78.78,0,0,0,.78-.78Z"></path><path id="Path-39" data-name="Path" class="cls-10" d="M31.58,26.58v0a.79.79,0,1,0-.78.79.78.78,0,0,0,.78-.79v0Z"></path><path id="Path-40" data-name="Path" class="cls-10" d="M31.58,23.45h0a.79.79,0,1,0-.78.78.78.78,0,0,0,.78-.78Z"></path><path id="Path-41" data-name="Path" class="cls-10" d="M31.58,20.32h0a.79.79,0,1,0-.78.78.78.78,0,0,0,.78-.78Z"></path><path id="Path-42" data-name="Path" class="cls-10" d="M31.58,17.19h0a.79.79,0,1,0-.78.78.78.78,0,0,0,.78-.78Z"></path><path id="Path-43" data-name="Path" class="cls-10" d="M31.58,14.07h0a.79.79,0,1,0-.78.78.78.78,0,0,0,.78-.78Z"></path><path id="Path-44" data-name="Path" class="cls-10" d="M28.44,29.71v0a.78.78,0,1,0-.78.78.78.78,0,0,0,.78-.78Z"></path><path id="Path-45" data-name="Path" class="cls-10" d="M28.44,26.58v0a.78.78,0,1,0-.78.79.78.78,0,0,0,.78-.79Z"></path><path id="Path-46" data-name="Path" class="cls-10" d="M28.44,23.45h0a.78.78,0,1,0-.78.78.78.78,0,0,0,.78-.78Z"></path><path id="Path-47" data-name="Path" class="cls-10" d="M28.44,20.32h0a.78.78,0,1,0-.78.78.78.78,0,0,0,.78-.78Z"></path><path id="Path-48" data-name="Path" class="cls-10" d="M28.44,17.19h0a.78.78,0,1,0-.78.78.78.78,0,0,0,.78-.78Z"></path><path id="Path-49" data-name="Path" class="cls-10" d="M28.44,14.07h0a.78.78,0,1,0-.78.78.78.78,0,0,0,.78-.78Z"></path><path id="Path-50" data-name="Path" class="cls-10" d="M34.72,29.71v0a.79.79,0,0,0-.79-.78.78.78,0,1,0,0,1.56.79.79,0,0,0,.79-.78Z"></path><path id="Path-51" data-name="Path" class="cls-10" d="M34.72,26.58v0a.79.79,0,0,0-.79-.78.79.79,0,1,0,.79.8Z"></path><path id="Path-52" data-name="Path" class="cls-10" d="M34.72,23.45h0a.79.79,0,0,0-.79-.79.79.79,0,1,0,.79.8Z"></path><path id="Path-53" data-name="Path" class="cls-10" d="M34.72,20.32h0a.79.79,0,0,0-.79-.78.78.78,0,1,0,.79.79Z"></path><path id="Path-54" data-name="Path" class="cls-10" d="M34.72,17.19h0a.79.79,0,0,0-.79-.78.78.78,0,1,0,.79.79Z"></path><path id="Path-55" data-name="Path" class="cls-10" d="M34.72,14.07h0a.79.79,0,0,0-.79-.79.79.79,0,0,0,0,1.57A.79.79,0,0,0,34.72,14.07Z"></path></g><path id="Path-56" data-name="Path" class="cls-10" d="M30,48.48a.79.79,0,0,1,1.57,0h0a.79.79,0,0,1-1.57,0Z"></path><path id="Path-57" data-name="Path" class="cls-10" d="M30,45.35a.79.79,0,0,1,1.57,0h0a.79.79,0,0,1-1.57,0Z"></path><path id="Path-58" data-name="Path" class="cls-10" d="M30,42.22a.79.79,0,0,1,1.57,0h0a.79.79,0,0,1-1.57,0Z"></path><path id="Path-59" data-name="Path" class="cls-10" d="M30,39.09a.79.79,0,0,1,1.57,0h0a.79.79,0,0,1-1.57,0Z"></path><path id="Path-60" data-name="Path" class="cls-10" d="M30,36a.79.79,0,0,1,1.57,0h0A.79.79,0,1,1,30,36Z"></path><path id="Path-61" data-name="Path" class="cls-10" d="M30,32.84a.79.79,0,1,1,1.57,0h0a.79.79,0,0,1-1.57,0Z"></path><path id="Path-62" data-name="Path" class="cls-10" d="M30,29.71a.79.79,0,0,1,1.57,0h0a.79.79,0,0,1-1.57,0Z"></path><path id="Path-63" data-name="Path" class="cls-10" d="M33.15,45.35a.78.78,0,0,1,.78-.78.79.79,0,0,1,.79.78h0a.79.79,0,0,1-.79.78A.78.78,0,0,1,33.15,45.35Z"></path><path id="Path-64" data-name="Path" class="cls-10" d="M33.15,42.22a.78.78,0,0,1,.78-.78.79.79,0,0,1,.79.78h0a.79.79,0,0,1-.79.78A.78.78,0,0,1,33.15,42.22Z"></path><path id="Path-65" data-name="Path" class="cls-10" d="M33.15,39.09a.78.78,0,0,1,.78-.78.79.79,0,0,1,.79.78h0a.79.79,0,0,1-.79.78A.78.78,0,0,1,33.15,39.09Z"></path><path id="Path-66" data-name="Path" class="cls-10" d="M33.15,36a.78.78,0,0,1,.78-.78.79.79,0,0,1,.79.78h0a.79.79,0,0,1-.79.79A.78.78,0,0,1,33.15,36Z"></path><path id="Path-67" data-name="Path" class="cls-10" d="M33.15,32.84a.78.78,0,0,1,.78-.79.79.79,0,0,1,.79.79h0a.79.79,0,0,1-.79.78A.78.78,0,0,1,33.15,32.84Z"></path><path id="Path-68" data-name="Path" class="cls-10" d="M36.28,42.22a.79.79,0,0,1,1.57,0h0a.79.79,0,0,1-1.57,0Z"></path><path id="Path-69" data-name="Path" class="cls-10" d="M36.28,39.09a.79.79,0,0,1,1.57,0h0a.79.79,0,0,1-1.57,0Z"></path><path id="Path-70" data-name="Path" class="cls-10" d="M36.28,36a.79.79,0,0,1,1.57,0h0a.79.79,0,1,1-1.57,0Z"></path><path id="Path-71" data-name="Path" class="cls-10" d="M36.28,32.84a.79.79,0,1,1,1.57,0h0a.79.79,0,0,1-1.57,0Z"></path><path id="Path-72" data-name="Path" class="cls-10" d="M39.42,39.09a.79.79,0,0,1,1.57,0h0a.79.79,0,0,1-1.57,0Z"></path><path id="Path-73" data-name="Path" class="cls-10" d="M39.42,36A.79.79,0,0,1,41,36h0a.79.79,0,1,1-1.57,0Z"></path><path id="Path-74" data-name="Path" class="cls-10" d="M39.42,32.84a.79.79,0,1,1,1.57,0h0a.79.79,0,0,1-1.57,0Z"></path><path id="Path-75" data-name="Path" class="cls-10" d="M42.56,36a.78.78,0,0,1,1.56,0h0a.78.78,0,1,1-1.56,0Z"></path><path id="Path-76" data-name="Path" class="cls-10" d="M42.56,32.84a.78.78,0,1,1,1.56,0h0a.78.78,0,0,1-1.56,0Z"></path><path id="Path-77" data-name="Path" class="cls-10" d="M45.69,32.84a.79.79,0,1,1,1.57,0h0a.79.79,0,0,1-1.57,0Z"></path><path id="Path-78" data-name="Path" class="cls-10" d="M26.88,45.35a.78.78,0,0,1,1.56,0h0a.78.78,0,0,1-1.56,0Z"></path><path id="Path-79" data-name="Path" class="cls-10" d="M26.88,42.22a.78.78,0,0,1,1.56,0h0a.78.78,0,0,1-1.56,0Z"></path><path id="Path-80" data-name="Path" class="cls-10" d="M26.88,39.09a.78.78,0,0,1,1.56,0h0a.78.78,0,0,1-1.56,0Z"></path><path id="Path-81" data-name="Path" class="cls-10" d="M26.88,36a.78.78,0,0,1,1.56,0h0a.78.78,0,1,1-1.56,0Z"></path><path id="Path-82" data-name="Path" class="cls-10" d="M26.88,32.84a.78.78,0,1,1,1.56,0h0a.78.78,0,1,1-1.56,0Z"></path><path id="Path-83" data-name="Path" class="cls-10" d="M23.74,42.22a.79.79,0,0,1,1.57,0h0a.79.79,0,0,1-1.57,0Z"></path><path id="Path-84" data-name="Path" class="cls-10" d="M23.74,39.09a.79.79,0,0,1,1.57,0h0a.79.79,0,0,1-1.57,0Z"></path><path id="Path-85" data-name="Path" class="cls-10" d="M23.74,36a.79.79,0,0,1,1.57,0h0a.79.79,0,1,1-1.57,0Z"></path><path id="Path-86" data-name="Path" class="cls-10" d="M23.74,32.84a.79.79,0,1,1,1.57,0h0a.79.79,0,0,1-1.57,0Z"></path><path id="Path-87" data-name="Path" class="cls-10" d="M20.6,39.09a.79.79,0,0,1,.79-.78.78.78,0,0,1,.78.78h0a.78.78,0,0,1-.78.78A.79.79,0,0,1,20.6,39.09Z"></path><path id="Path-88" data-name="Path" class="cls-10" d="M20.6,36a.79.79,0,0,1,.79-.78.78.78,0,0,1,.78.78h0a.78.78,0,0,1-.78.79A.79.79,0,0,1,20.6,36Z"></path><path id="Path-89" data-name="Path" class="cls-10" d="M20.6,32.84a.79.79,0,0,1,.79-.79.78.78,0,0,1,.78.79h0a.78.78,0,0,1-.78.78A.79.79,0,0,1,20.6,32.84Z"></path><path id="Path-90" data-name="Path" class="cls-10" d="M17.47,36A.79.79,0,0,1,19,36h0a.79.79,0,1,1-1.57,0Z"></path><path id="Path-91" data-name="Path" class="cls-10" d="M17.47,32.84a.79.79,0,1,1,1.57,0h0a.79.79,0,0,1-1.57,0Z"></path><path id="Path-92" data-name="Path" class="cls-10" d="M14.33,32.84a.79.79,0,1,1,1.57,0h0a.79.79,0,0,1-1.57,0Z"></path><path id="Path-93" data-name="Path" class="cls-10" d="M30,26.58a.79.79,0,0,1,1.57,0h0a.79.79,0,0,1-1.57,0Z"></path><path id="Path-94" data-name="Path" class="cls-10" d="M30,23.45a.79.79,0,0,1,1.57,0h0a.79.79,0,0,1-1.57,0Z"></path><path id="Path-95" data-name="Path" class="cls-10" d="M30,20.32a.79.79,0,0,1,1.57,0h0a.79.79,0,1,1-1.57,0Z"></path><path id="Path-96" data-name="Path" class="cls-10" d="M30,17.19a.79.79,0,0,1,1.57,0h0a.79.79,0,1,1-1.57,0Z"></path><path id="Path-97" data-name="Path" class="cls-10" d="M30,14.07a.79.79,0,1,1,1.57,0h0a.79.79,0,0,1-1.57,0Z"></path><path id="Path-98" data-name="Path" class="cls-10" d="M26.88,29.71a.78.78,0,0,1,1.56,0h0a.78.78,0,0,1-1.56,0Z"></path><path id="Path-99" data-name="Path" class="cls-10" d="M26.88,26.58a.78.78,0,1,1,1.56,0h0a.78.78,0,0,1-1.56,0Z"></path><path id="Path-100" data-name="Path" class="cls-10" d="M26.88,23.45a.78.78,0,1,1,1.56,0h0a.78.78,0,0,1-1.56,0Z"></path><path id="Path-101" data-name="Path" class="cls-10" d="M26.88,20.32a.78.78,0,0,1,1.56,0h0a.78.78,0,1,1-1.56,0Z"></path><path id="Path-102" data-name="Path" class="cls-10" d="M26.88,17.19a.78.78,0,0,1,1.56,0h0a.78.78,0,1,1-1.56,0Z"></path><path id="Path-103" data-name="Path" class="cls-10" d="M26.88,14.07a.78.78,0,1,1,1.56,0h0a.78.78,0,1,1-1.56,0Z"></path><path id="Path-104" data-name="Path" class="cls-10" d="M33.15,29.71a.78.78,0,0,1,.78-.78.79.79,0,0,1,.79.78h0a.79.79,0,0,1-.79.78A.78.78,0,0,1,33.15,29.71Z"></path><path id="Path-105" data-name="Path" class="cls-10" d="M33.15,26.58a.78.78,0,0,1,.78-.78.79.79,0,0,1,.79.78h0a.79.79,0,0,1-.79.78A.78.78,0,0,1,33.15,26.58Z"></path><path id="Path-106" data-name="Path" class="cls-10" d="M33.15,23.45a.78.78,0,0,1,.78-.78.79.79,0,0,1,.79.78h0a.79.79,0,0,1-.79.78A.78.78,0,0,1,33.15,23.45Z"></path><path id="Path-107" data-name="Path" class="cls-10" d="M33.15,20.32a.78.78,0,0,1,.78-.78.79.79,0,0,1,.79.78h0a.8.8,0,0,1-.79.79A.79.79,0,0,1,33.15,20.32Z"></path><path id="Path-108" data-name="Path" class="cls-10" d="M33.15,17.19a.78.78,0,0,1,.78-.78.79.79,0,0,1,.79.78h0a.79.79,0,0,1-.79.79A.78.78,0,0,1,33.15,17.19Z"></path><path id="Path-109" data-name="Path" class="cls-10" d="M33.15,14.07a.78.78,0,0,1,.78-.79.79.79,0,0,1,.79.79h0a.79.79,0,0,1-.79.78A.78.78,0,0,1,33.15,14.07Z"></path></g></g><path class="cls-11" d="M24.87,86.4A.55.55,0,0,1,25,86l6.69-8a3.88,3.88,0,0,0,1.12-2.63,2,2,0,0,0-2.07-2.18c-1.29,0-2.07.78-2.24,2.24,0,.16-.11.25-.31.22l-3.08-.5a.27.27,0,0,1-.22-.34c.19-2.63,2.32-4.93,6-4.93s5.85,2.35,5.85,5.43A6.76,6.76,0,0,1,34.81,80l-5,5.91V86h6.66a.26.26,0,0,1,.28.28V89a.26.26,0,0,1-.28.28H25.15a.26.26,0,0,1-.28-.28Z"></path></svg> 