<?xml version="1.0" encoding="UTF-8"?> <svg xmlns="http://www.w3.org/2000/svg" id="Layer_1" data-name="Layer 1" viewBox="0 0 63.25 98.38"><defs><style>.cls-1{fill:#222;}.cls-2{fill:#009688;}.cls-3{fill:#fff;}</style></defs><g id="Marketing-Tools"><g id="Desktop-HD-Copy"><g id="Group-3"><circle id="Oval" class="cls-1" cx="31.59" cy="73.61" r="21"></circle></g></g></g><g id="doot-arrow"><g id="next"><g id="Group"><path id="Path" class="cls-2" d="M32.38,41h0a.79.79,0,1,0-.79.78.79.79,0,0,0,.79-.78Z"></path><path id="Path-2" data-name="Path" class="cls-2" d="M32.38,37.84h0a.79.79,0,1,0-.79.78.78.78,0,0,0,.79-.78Z"></path><path id="Path-3" data-name="Path" class="cls-2" d="M32.38,34.72v0a.79.79,0,1,0-.79.78.78.78,0,0,0,.79-.78v0Z"></path><path id="Path-4" data-name="Path" class="cls-2" d="M32.38,31.59v0a.79.79,0,1,0-.79.78.78.78,0,0,0,.79-.78v0Z"></path><path id="Path-5" data-name="Path" class="cls-2" d="M32.38,28.46v0a.79.79,0,1,0-.79.79.78.78,0,0,0,.79-.79v0Z"></path><path id="Path-6" data-name="Path" class="cls-2" d="M32.38,25.33h0a.79.79,0,1,0-.79.78.79.79,0,0,0,.79-.78Z"></path><path id="Path-7" data-name="Path" class="cls-2" d="M32.38,22.2h0a.79.79,0,1,0-.79.78.79.79,0,0,0,.79-.78Z"></path><path id="Path-8" data-name="Path" class="cls-2" d="M35.51,37.84h0a.78.78,0,0,0-.78-.78.78.78,0,1,0,0,1.56.78.78,0,0,0,.78-.78Z"></path><path id="Path-9" data-name="Path" class="cls-2" d="M35.51,34.72v0a.78.78,0,0,0-.78-.78.78.78,0,1,0,0,1.56.78.78,0,0,0,.78-.78Z"></path><path id="Path-10" data-name="Path" class="cls-2" d="M35.51,31.59v0a.78.78,0,0,0-.78-.78.78.78,0,1,0,0,1.56.78.78,0,0,0,.78-.78Z"></path><path id="Path-11" data-name="Path" class="cls-2" d="M35.51,28.46v0a.78.78,0,0,0-.78-.78.79.79,0,1,0,.78.78Z"></path><path id="Path-12" data-name="Path" class="cls-2" d="M35.51,25.33h0a.78.78,0,0,0-.78-.79.79.79,0,1,0,0,1.57.78.78,0,0,0,.78-.78Z"></path><path id="Path-13" data-name="Path" class="cls-2" d="M38.65,34.72v0a.79.79,0,1,0-.79.78.78.78,0,0,0,.79-.78Z"></path><path id="Path-14" data-name="Path" class="cls-2" d="M38.65,31.59v0a.79.79,0,1,0-.79.78.78.78,0,0,0,.79-.78Z"></path><path id="Path-15" data-name="Path" class="cls-2" d="M38.65,28.46v0a.79.79,0,1,0-.79.79.78.78,0,0,0,.79-.79Z"></path><path id="Path-16" data-name="Path" class="cls-2" d="M38.65,25.33h0a.79.79,0,1,0-.79.78.79.79,0,0,0,.79-.78Z"></path><path id="Path-17" data-name="Path" class="cls-2" d="M41.78,31.59v0a.78.78,0,1,0-.78.78.78.78,0,0,0,.78-.78v0Z"></path><path id="Path-18" data-name="Path" class="cls-2" d="M41.78,28.46v0a.78.78,0,1,0-.78.79.78.78,0,0,0,.78-.79v0Z"></path><path id="Path-19" data-name="Path" class="cls-2" d="M41.78,25.33h0a.78.78,0,1,0-.78.78.78.78,0,0,0,.78-.78Z"></path><path id="Path-20" data-name="Path" class="cls-2" d="M44.92,28.46v0a.79.79,0,1,0-.78.79.78.78,0,0,0,.78-.79Z"></path><path id="Path-21" data-name="Path" class="cls-2" d="M44.92,25.33h0a.79.79,0,1,0-.78.78.78.78,0,0,0,.78-.78Z"></path><path id="Path-22" data-name="Path" class="cls-2" d="M48.06,25.33h0a.79.79,0,0,0-.79-.79.79.79,0,1,0,.79.79Z"></path><path id="Path-23" data-name="Path" class="cls-2" d="M29.24,37.84h0a.79.79,0,1,0-.78.78.78.78,0,0,0,.78-.78Z"></path><path id="Path-24" data-name="Path" class="cls-2" d="M29.24,34.72v0a.79.79,0,1,0-.78.78.78.78,0,0,0,.78-.78Z"></path><path id="Path-25" data-name="Path" class="cls-2" d="M29.24,31.59v0a.79.79,0,1,0-.78.78.78.78,0,0,0,.78-.78Z"></path><path id="Path-26" data-name="Path" class="cls-2" d="M29.24,28.46v0a.79.79,0,1,0-.78.79.78.78,0,0,0,.78-.79Z"></path><path id="Path-27" data-name="Path" class="cls-2" d="M29.24,25.33h0a.79.79,0,1,0-.78.78.78.78,0,0,0,.78-.78Z"></path><path id="Path-28" data-name="Path" class="cls-2" d="M26.1,34.72v0a.78.78,0,1,0-.78.78.78.78,0,0,0,.78-.78Z"></path><path id="Path-29" data-name="Path" class="cls-2" d="M26.1,31.59v0a.78.78,0,1,0-.78.78.78.78,0,0,0,.78-.78Z"></path><path id="Path-30" data-name="Path" class="cls-2" d="M26.1,28.46v0a.78.78,0,1,0-.78.79.78.78,0,0,0,.78-.79Z"></path><path id="Path-31" data-name="Path" class="cls-2" d="M26.1,25.33h0a.78.78,0,1,0-.78.78.78.78,0,0,0,.78-.78Z"></path><path id="Path-32" data-name="Path" class="cls-2" d="M23,31.59v0a.79.79,0,1,0-.79.78.78.78,0,0,0,.79-.78Z"></path><path id="Path-33" data-name="Path" class="cls-2" d="M23,28.46v0a.79.79,0,1,0-.79.79.78.78,0,0,0,.79-.79Z"></path><path id="Path-34" data-name="Path" class="cls-2" d="M23,25.33h0a.79.79,0,1,0-.79.78.79.79,0,0,0,.79-.78Z"></path><path id="Path-35" data-name="Path" class="cls-2" d="M19.83,28.46v0a.78.78,0,0,0-.78-.78.79.79,0,1,0,.78.78Z"></path><path id="Path-36" data-name="Path" class="cls-2" d="M19.83,25.33h0a.78.78,0,0,0-.78-.79.79.79,0,1,0,0,1.57.78.78,0,0,0,.78-.78Z"></path><path id="Path-37" data-name="Path" class="cls-2" d="M16.7,25.33h0a.79.79,0,1,0-.79.78.79.79,0,0,0,.79-.78Z"></path><path id="Path-38" data-name="Path" class="cls-2" d="M32.38,19.07h0a.79.79,0,1,0-.79.78.78.78,0,0,0,.79-.78Z"></path><path id="Path-39" data-name="Path" class="cls-2" d="M32.38,16v0a.79.79,0,1,0-.79.78.78.78,0,0,0,.79-.78v0Z"></path><path id="Path-40" data-name="Path" class="cls-2" d="M32.38,12.82v0a.79.79,0,1,0-.79.78.78.78,0,0,0,.79-.78v0Z"></path><path id="Path-41" data-name="Path" class="cls-2" d="M32.38,9.69v0a.79.79,0,1,0-.79.79.78.78,0,0,0,.79-.79v0Z"></path><path id="Path-42" data-name="Path" class="cls-2" d="M32.38,6.56h0a.79.79,0,1,0-.79.78.78.78,0,0,0,.79-.78Z"></path><path id="Path-43" data-name="Path" class="cls-2" d="M29.24,22.2h0a.79.79,0,1,0-.78.78.78.78,0,0,0,.78-.78Z"></path><path id="Path-44" data-name="Path" class="cls-2" d="M29.24,19.07h0a.79.79,0,1,0-.78.78.78.78,0,0,0,.78-.78Z"></path><path id="Path-45" data-name="Path" class="cls-2" d="M29.24,16v0a.79.79,0,1,0-.78.78.78.78,0,0,0,.78-.78Z"></path><path id="Path-46" data-name="Path" class="cls-2" d="M29.24,12.82v0a.79.79,0,1,0-.78.78.78.78,0,0,0,.78-.78Z"></path><path id="Path-47" data-name="Path" class="cls-2" d="M29.24,9.69v0a.79.79,0,1,0-.78.79.78.78,0,0,0,.78-.79Z"></path><path id="Path-48" data-name="Path" class="cls-2" d="M29.24,6.56h0a.79.79,0,1,0-.78.78.78.78,0,0,0,.78-.78Z"></path><path id="Path-49" data-name="Path" class="cls-2" d="M35.51,22.2h0a.78.78,0,0,0-.78-.79.79.79,0,1,0,0,1.57.78.78,0,0,0,.78-.78Z"></path><path id="Path-50" data-name="Path" class="cls-2" d="M35.51,19.07h0a.78.78,0,0,0-.78-.78.78.78,0,1,0,0,1.56A.78.78,0,0,0,35.51,19.07Z"></path><path id="Path-51" data-name="Path" class="cls-2" d="M35.51,16v0a.78.78,0,0,0-.78-.78.78.78,0,1,0,0,1.56A.78.78,0,0,0,35.51,16Z"></path><path id="Path-52" data-name="Path" class="cls-2" d="M35.51,12.82v0a.78.78,0,0,0-.78-.78.78.78,0,1,0,0,1.56A.78.78,0,0,0,35.51,12.82Z"></path><path id="Path-53" data-name="Path" class="cls-2" d="M35.51,9.69v0a.78.78,0,0,0-.78-.78.79.79,0,1,0,.78.8Z"></path><path id="Path-54" data-name="Path" class="cls-2" d="M35.51,6.56h0a.78.78,0,0,0-.78-.78.78.78,0,1,0,0,1.56A.77.77,0,0,0,35.51,6.56Z"></path></g><path id="Path-55" data-name="Path" d="M30.81,41a.79.79,0,0,1,1.57,0h0a.79.79,0,0,1-1.57,0Z"></path><path id="Path-56" data-name="Path" d="M30.81,37.84a.79.79,0,0,1,1.57,0h0a.79.79,0,1,1-1.57,0Z"></path><path id="Path-57" data-name="Path" d="M30.81,34.72a.79.79,0,1,1,1.57,0h0a.79.79,0,0,1-1.57,0Z"></path><path id="Path-58" data-name="Path" d="M30.81,31.59a.79.79,0,0,1,1.57,0h0a.79.79,0,0,1-1.57,0Z"></path><path id="Path-59" data-name="Path" d="M30.81,28.46a.79.79,0,0,1,1.57,0h0a.79.79,0,0,1-1.57,0Z"></path><path id="Path-60" data-name="Path" d="M30.81,25.33a.79.79,0,0,1,1.57,0h0a.79.79,0,0,1-1.57,0Z"></path><path id="Path-61" data-name="Path" d="M30.81,22.2a.79.79,0,0,1,1.57,0h0a.79.79,0,0,1-1.57,0Z"></path><path id="Path-62" data-name="Path" d="M33.94,37.84a.79.79,0,0,1,.79-.78.78.78,0,0,1,.78.78h0a.78.78,0,0,1-.78.79A.79.79,0,0,1,33.94,37.84Z"></path><path id="Path-63" data-name="Path" d="M33.94,34.72a.79.79,0,0,1,.79-.79.78.78,0,0,1,.78.79h0a.78.78,0,0,1-.78.78A.79.79,0,0,1,33.94,34.72Z"></path><path id="Path-64" data-name="Path" d="M33.94,31.59a.79.79,0,0,1,.79-.78.78.78,0,0,1,.78.78h0a.78.78,0,0,1-.78.78A.79.79,0,0,1,33.94,31.59Z"></path><path id="Path-65" data-name="Path" d="M33.94,28.46a.79.79,0,0,1,.79-.78.78.78,0,0,1,.78.78h0a.78.78,0,0,1-.78.78A.79.79,0,0,1,33.94,28.46Z"></path><path id="Path-66" data-name="Path" d="M33.94,25.33a.79.79,0,0,1,.79-.78.78.78,0,0,1,.78.78h0a.78.78,0,0,1-.78.78A.79.79,0,0,1,33.94,25.33Z"></path><path id="Path-67" data-name="Path" d="M37.08,34.72a.79.79,0,1,1,1.57,0h0a.79.79,0,0,1-1.57,0Z"></path><path id="Path-68" data-name="Path" d="M37.08,31.59a.79.79,0,0,1,1.57,0h0a.79.79,0,0,1-1.57,0Z"></path><path id="Path-69" data-name="Path" d="M37.08,28.46a.79.79,0,0,1,1.57,0h0a.79.79,0,0,1-1.57,0Z"></path><path id="Path-70" data-name="Path" d="M37.08,25.33a.79.79,0,0,1,1.57,0h0a.79.79,0,0,1-1.57,0Z"></path><path id="Path-71" data-name="Path" d="M40.22,31.59a.78.78,0,0,1,1.56,0h0a.78.78,0,1,1-1.56,0Z"></path><path id="Path-72" data-name="Path" d="M40.22,28.46a.78.78,0,0,1,1.56,0h0a.78.78,0,1,1-1.56,0Z"></path><path id="Path-73" data-name="Path" d="M40.22,25.33a.78.78,0,0,1,1.56,0h0a.78.78,0,0,1-1.56,0Z"></path><path id="Path-74" data-name="Path" d="M43.35,28.46a.79.79,0,0,1,1.57,0h0a.79.79,0,0,1-1.57,0Z"></path><path id="Path-75" data-name="Path" d="M43.35,25.33a.79.79,0,0,1,1.57,0h0a.79.79,0,0,1-1.57,0Z"></path><path id="Path-76" data-name="Path" d="M46.49,25.33a.78.78,0,0,1,.78-.78.79.79,0,0,1,.79.78h0a.79.79,0,0,1-.79.78A.78.78,0,0,1,46.49,25.33Z"></path><path id="Path-77" data-name="Path" d="M27.67,37.84a.79.79,0,0,1,1.57,0h0a.79.79,0,1,1-1.57,0Z"></path><path id="Path-78" data-name="Path" d="M27.67,34.72a.79.79,0,1,1,1.57,0h0a.79.79,0,0,1-1.57,0Z"></path><path id="Path-79" data-name="Path" d="M27.67,31.59a.79.79,0,0,1,1.57,0h0a.79.79,0,0,1-1.57,0Z"></path><path id="Path-80" data-name="Path" d="M27.67,28.46a.79.79,0,0,1,1.57,0h0a.79.79,0,0,1-1.57,0Z"></path><path id="Path-81" data-name="Path" d="M27.67,25.33a.79.79,0,0,1,1.57,0h0a.79.79,0,0,1-1.57,0Z"></path><path id="Path-82" data-name="Path" d="M24.54,34.72a.78.78,0,1,1,1.56,0h0a.78.78,0,0,1-1.56,0Z"></path><path id="Path-83" data-name="Path" d="M24.54,31.59a.78.78,0,1,1,1.56,0h0a.78.78,0,0,1-1.56,0Z"></path><path id="Path-84" data-name="Path" d="M24.54,28.46a.78.78,0,0,1,1.56,0h0a.78.78,0,0,1-1.56,0Z"></path><path id="Path-85" data-name="Path" d="M24.54,25.33a.78.78,0,1,1,1.56,0h0a.78.78,0,0,1-1.56,0Z"></path><path id="Path-86" data-name="Path" d="M21.4,31.59a.79.79,0,0,1,1.57,0h0a.79.79,0,0,1-1.57,0Z"></path><path id="Path-87" data-name="Path" d="M21.4,28.46a.79.79,0,0,1,1.57,0h0a.79.79,0,0,1-1.57,0Z"></path><path id="Path-88" data-name="Path" d="M21.4,25.33a.79.79,0,0,1,1.57,0h0a.79.79,0,0,1-1.57,0Z"></path><path id="Path-89" data-name="Path" d="M18.26,28.46a.79.79,0,0,1,.79-.78.78.78,0,0,1,.78.78h0a.78.78,0,0,1-.78.78A.79.79,0,0,1,18.26,28.46Z"></path><path id="Path-90" data-name="Path" d="M18.26,25.33a.79.79,0,0,1,.79-.78.78.78,0,0,1,.78.78h0a.78.78,0,0,1-.78.78A.79.79,0,0,1,18.26,25.33Z"></path><path id="Path-91" data-name="Path" d="M15.13,25.33a.79.79,0,0,1,1.57,0h0a.79.79,0,0,1-1.57,0Z"></path><path id="Path-92" data-name="Path" d="M30.81,19.07a.79.79,0,0,1,1.57,0h0a.79.79,0,1,1-1.57,0Z"></path><path id="Path-93" data-name="Path" d="M30.81,16a.79.79,0,1,1,1.57,0h0a.79.79,0,0,1-1.57,0Z"></path><path id="Path-94" data-name="Path" d="M30.81,12.82a.79.79,0,0,1,1.57,0h0a.79.79,0,0,1-1.57,0Z"></path><path id="Path-95" data-name="Path" d="M30.81,9.69a.79.79,0,0,1,1.57,0h0a.79.79,0,0,1-1.57,0Z"></path><path id="Path-96" data-name="Path" d="M30.81,6.56a.79.79,0,0,1,1.57,0h0a.79.79,0,0,1-1.57,0Z"></path><path id="Path-97" data-name="Path" d="M27.67,22.2a.79.79,0,0,1,1.57,0h0a.79.79,0,0,1-1.57,0Z"></path><path id="Path-98" data-name="Path" d="M27.67,19.07a.79.79,0,0,1,1.57,0h0a.79.79,0,1,1-1.57,0Z"></path><path id="Path-99" data-name="Path" d="M27.67,16a.79.79,0,1,1,1.57,0h0a.79.79,0,0,1-1.57,0Z"></path><path id="Path-100" data-name="Path" d="M27.67,12.82a.79.79,0,0,1,1.57,0h0a.79.79,0,0,1-1.57,0Z"></path><path id="Path-101" data-name="Path" d="M27.67,9.69a.79.79,0,0,1,1.57,0h0a.79.79,0,0,1-1.57,0Z"></path><path id="Path-102" data-name="Path" d="M27.67,6.56a.79.79,0,0,1,1.57,0h0a.79.79,0,0,1-1.57,0Z"></path><path id="Path-103" data-name="Path" d="M33.94,22.2a.79.79,0,0,1,.79-.78.78.78,0,0,1,.78.78h0a.78.78,0,0,1-.78.78A.79.79,0,0,1,33.94,22.2Z"></path><path id="Path-104" data-name="Path" d="M33.94,19.07a.79.79,0,0,1,.79-.78.78.78,0,0,1,.78.78h0a.78.78,0,0,1-.78.79A.79.79,0,0,1,33.94,19.07Z"></path><path id="Path-105" data-name="Path" d="M33.94,16a.79.79,0,0,1,.79-.79.78.78,0,0,1,.78.79h0a.78.78,0,0,1-.78.78A.79.79,0,0,1,33.94,16Z"></path><path id="Path-106" data-name="Path" d="M33.94,12.82a.79.79,0,0,1,.79-.78.78.78,0,0,1,.78.78h0a.78.78,0,0,1-.78.78A.79.79,0,0,1,33.94,12.82Z"></path><path id="Path-107" data-name="Path" d="M33.94,9.69a.79.79,0,0,1,.79-.78.78.78,0,0,1,.78.78h0a.78.78,0,0,1-.78.78A.79.79,0,0,1,33.94,9.69Z"></path><path id="Path-108" data-name="Path" d="M33.94,6.56a.79.79,0,0,1,.79-.78.78.78,0,0,1,.78.78h0a.78.78,0,0,1-.78.78A.79.79,0,0,1,33.94,6.56Z"></path></g></g><path class="cls-3" d="M25.62,77.71l3.08-.59a.28.28,0,0,1,.33.22,2.5,2.5,0,0,0,2.49,1.8,2.29,2.29,0,0,0,2.36-2.47A2.47,2.47,0,0,0,31.22,74H30.4a.27.27,0,0,1-.28-.28V71a.27.27,0,0,1,.28-.28h.76a2.21,2.21,0,0,0,2.35-2.38,2,2,0,0,0-2.15-2.24,2.1,2.1,0,0,0-2.16,1.76.27.27,0,0,1-.34.2l-3.05-.59a.24.24,0,0,1-.22-.31c.45-2.52,2.6-4.37,6-4.37,3.73,0,5.88,2.22,5.88,5.27A4.55,4.55,0,0,1,35.3,72v0a5,5,0,0,1,2.5,4.62c0,3.48-2.64,5.8-6.22,5.8-3.25,0-5.66-1.62-6.19-4.37A.3.3,0,0,1,25.62,77.71Z"></path></svg> 