<?xml version="1.0" encoding="UTF-8"?> <svg xmlns="http://www.w3.org/2000/svg" id="Layer_1" data-name="Layer 1" viewBox="0 0 274.47 123.71"><defs><style>.cls-1{isolation:isolate;}.cls-2{fill:#6f6f6f;}</style></defs><g id="Group-4"><g id="Rewards" class="cls-1"><g class="cls-1"><path class="cls-2" d="M92,99.05V83.65h5.74a4.5,4.5,0,0,1,4.62,4.51,4.35,4.35,0,0,1-3.08,4.16l4,6.73h-2.57l-3.79-6.49H94.29v6.49Zm2.31-13.37V90.6h3.13A2.44,2.44,0,0,0,100,88.16a2.46,2.46,0,0,0-2.59-2.48Z"></path><path class="cls-2" d="M109.65,87.61a5.57,5.57,0,0,1,5.61,5.83v.73h-9.13a3.75,3.75,0,0,0,3.71,3.19,3.88,3.88,0,0,0,3.24-1.65l1.61,1.19a5.92,5.92,0,0,1-4.85,2.4,5.85,5.85,0,1,1-.19-11.69Zm-3.48,4.8H113a3.49,3.49,0,0,0-3.41-2.86A3.53,3.53,0,0,0,106.17,92.41Z"></path><path class="cls-2" d="M125.38,87.83l2.68,7.9,2.27-7.9h2.26l-3.38,11.22h-2l-2.79-8.12-2.77,8.12h-2l-3.41-11.22h2.36l2.24,7.9,2.71-7.9Z"></path><path class="cls-2" d="M137,92.67l3.5-.26v-.73c0-1.27-.83-2-2.31-2a4.73,4.73,0,0,0-3,1.07l-1-1.6a6.48,6.48,0,0,1,4.31-1.48c2.53,0,4.18,1.48,4.18,3.77v5.06a.58.58,0,0,0,.66.64h.57v2h-1.1a2.09,2.09,0,0,1-2.15-1.4,4.21,4.21,0,0,1-3.5,1.65c-2.2,0-3.83-1.39-3.83-3.35S134.68,92.83,137,92.67Zm.6,4.89a2.72,2.72,0,0,0,2.9-2.53V94.1l-3.17.27c-1.23.09-1.87.63-1.87,1.56S136.35,97.56,137.61,97.56Z"></path><path class="cls-2" d="M150.55,89.81A2.56,2.56,0,0,0,148,92.67v6.38h-2.23V87.83H148v1.39a3,3,0,0,1,2.69-1.48h.77v2.07Z"></path><path class="cls-2" d="M162.43,99.05v-1.4a5.58,5.58,0,0,1-4,1.67,5.87,5.87,0,1,1,0-11.73,5.53,5.53,0,0,1,4,1.65V83.65h2.23v15.4Zm-3.83-9.48a3.9,3.9,0,1,0,3.85,3.89A3.85,3.85,0,0,0,158.6,89.57Z"></path><path class="cls-2" d="M166.58,95.58h2.14a2.54,2.54,0,0,0,2.75,1.93c1.21,0,1.95-.57,1.95-1.43,0-.68-.48-1.16-1.54-1.45l-2.06-.5c-2-.51-3-1.57-3-3.17,0-2,1.65-3.37,3.92-3.37a4.39,4.39,0,0,1,4.64,3.72h-2.13a2.49,2.49,0,0,0-2.54-1.94c-1.07,0-1.71.57-1.71,1.37s.55,1.18,1.6,1.45l1.94.5c2.07.53,3.1,1.61,3.1,3.22,0,1.93-1.6,3.39-4.11,3.39A4.64,4.64,0,0,1,166.58,95.58Z"></path></g></g><g id="Uber_logo_2018-_1_" data-name="Uber_logo_2018-(1)"><path id="Path" class="cls-2" d="M74.05,57.65a11.93,11.93,0,0,0,2.4,4,10.52,10.52,0,0,0,3.64,2.53,11.87,11.87,0,0,0,4.58.88,11.23,11.23,0,0,0,4.51-.92,11,11,0,0,0,3.67-2.56,11.71,11.71,0,0,0,2.44-3.94,14.36,14.36,0,0,0,.86-5.12V23.37h7V70.56h-7V66.18A16.11,16.11,0,0,1,90.71,70a17.29,17.29,0,0,1-6.84,1.35,18.48,18.48,0,0,1-7-1.31,16.48,16.48,0,0,1-5.61-3.74,17.69,17.69,0,0,1-3.74-5.84,20,20,0,0,1-1.37-7.58V23.37h7V52.5A14.61,14.61,0,0,0,74.05,57.65Z"></path><path id="Shape" class="cls-2" d="M116,23.37V40.56a18.06,18.06,0,0,1,5.45-3.74,16.34,16.34,0,0,1,6.73-1.38,17.6,17.6,0,0,1,7.06,1.42,17.87,17.87,0,0,1,5.72,3.84,18.17,18.17,0,0,1,3.83,5.73,17.5,17.5,0,0,1,1.42,7,17.29,17.29,0,0,1-1.42,7A17.93,17.93,0,0,1,135.2,70a17.77,17.77,0,0,1-7.06,1.41A16.55,16.55,0,0,1,121.38,70a17.88,17.88,0,0,1-5.49-3.74v4.31h-6.72V23.37Zm.78,34.72a11.6,11.6,0,0,0,2.52,3.78A12,12,0,0,0,123,64.43a11.39,11.39,0,0,0,4.64.94,11.23,11.23,0,0,0,4.57-.94A11.79,11.79,0,0,0,136,61.87a12.63,12.63,0,0,0,2.52-3.78,11.47,11.47,0,0,0,.94-4.65,11.73,11.73,0,0,0-.94-4.69A12.36,12.36,0,0,0,136,45a11.25,11.25,0,0,0-3.74-2.53A11.78,11.78,0,0,0,119.33,45a12,12,0,0,0-2.56,3.8,12.25,12.25,0,0,0,0,9.34Z"></path><path id="Shape-2" data-name="Shape" class="cls-2" d="M149.48,47.12a17.85,17.85,0,0,1,3.62-5.57,16.89,16.89,0,0,1,12.3-5.18,17,17,0,0,1,6.71,1.32,15.9,15.9,0,0,1,5.32,3.66,16.79,16.79,0,0,1,3.49,5.54,19,19,0,0,1,1.25,7V56h-27.3a11.17,11.17,0,0,0,1.32,3.79,11.3,11.3,0,0,0,5.82,5,11,11,0,0,0,4,.72,11.52,11.52,0,0,0,9.67-4.94l4.8,3.56A17.5,17.5,0,0,1,166,71.37a18.44,18.44,0,0,1-7-1.32,17,17,0,0,1-5.66-3.69,17.81,17.81,0,0,1-3.85-19.24Zm9.24-2.61A11.24,11.24,0,0,0,155,50.74h20.45a10.94,10.94,0,0,0-3.65-6.23,10.32,10.32,0,0,0-13.09,0Z"></path><path id="Path-2" data-name="Path" class="cls-2" d="M195.48,44.91a8.65,8.65,0,0,0-2.24,6.28V70.37h-7.07V36.64h7V40.8a9.8,9.8,0,0,1,3.47-3.24,10.29,10.29,0,0,1,5.08-1.19h2.45v6.22h-2.94A7.64,7.64,0,0,0,195.48,44.91Z"></path></g></g></svg> 