<?xml version="1.0" encoding="UTF-8"?> <svg xmlns="http://www.w3.org/2000/svg" id="Layer_1" data-name="Layer 1" viewBox="0 0 274.47 123.71"><defs><style>.cls-1{fill:#6f6f6f;}.cls-2{fill:#fff;}</style></defs><g id="Marketing-Tools"><g id="Desktop-HD-Copy"><path class="cls-1" d="M177,60.35v.53c-3.24,2.44-4,5.23-.75,8.56-.59.42-.92.71-1.3.92-2.56,1.39-3.32,3.26-2,6a2.39,2.39,0,0,1-1,2.13c-2.52,1-3.5,2.49-3,5.21.13.64-.75,2.1-1.28,2.16-3,.36-3.89,2.11-3.86,4.78a10.06,10.06,0,0,1-.28,1.68c-3.47-.42-5.94.45-6.32,4.36,0,.35-1.64,1-2.32.78-2.62-.76-3.88.47-4.71,2.68a14.1,14.1,0,0,1-1.07,1.8c-3.68-2.56-6.28-1.06-8.26,2.73-3.21-3.52-6-2.59-8.64.74-2.58-4-5.56-3.54-8.78-.85-1.73-4.32-4.59-4.71-8-2.67a7.8,7.8,0,0,1-.82-1.35c-.84-2.6-2.33-3.91-5.23-3-1.58.49-2.23-.53-2.39-1.93-.28-2.46-1.72-3.4-4.08-3.25a13.67,13.67,0,0,1-1.85-.15,5.16,5.16,0,0,1-.23-1.1c0-2.77-.6-5-4-5.24-.49,0-1.31-1.4-1.22-2,.38-2.56-.06-4.43-2.85-5.21-1.42-.4-1.63-1.4-1-2.65,1.24-2.36.62-4.13-1.72-5.36-.52-.28-1-.67-1.84-1.26,3.88-3.23,2.47-6-.56-8.62,3.59-2.53,3.87-5.36,1-8.27.31-.42.42-.7.63-.82,2.6-1.55,4-3.44,2.31-6.58-.2-.37.47-1.72,1-1.89,2.74-.94,3.43-2.74,3-5.44a2.62,2.62,0,0,1,1.56-2c2.61-.48,3.68-1.91,3.57-4.47a8.42,8.42,0,0,1,.34-1.83c3.09,0,5.88-.31,6.2-4.25,0-.39,1.35-1.07,2-1,2.56.41,4.44-.05,5.22-2.84.4-1.45,1.41-1.61,2.65-1,2.35,1.23,4.13.64,5.36-1.71a16.74,16.74,0,0,1,1.11-1.59c2.83,2.19,5.37,3.3,7.9.13.22-.28,1.85,0,2.32.55,1.75,1.87,3.45,2,5.43.47a12.73,12.73,0,0,1,1.89-1c.24.36.51.71.72,1.09,1.38,2.53,3.24,3.36,6,2a2.33,2.33,0,0,1,2.13.89c1,2.73,2.75,3.42,5.45,3a2.59,2.59,0,0,1,2,1.56c.46,2.64,1.93,3.65,4.47,3.55a7.57,7.57,0,0,1,1.73.34,17.82,17.82,0,0,0,.47,3A5.05,5.05,0,0,0,165.61,35c.72.54,2,.35,2.67.91a3,3,0,0,1,.75,2.37c-.43,2.34.22,3.88,2.58,4.59,1.6.48,2,1.51,1.21,3-1.13,2.15-.65,3.79,1.52,5a8.31,8.31,0,0,1,1.49,1.35C173.35,57.63,173.35,57.63,177,60.35ZM124.6,44.22a70.07,70.07,0,0,0-7.24,3.15c-3,1.71-3.91,4.65-3.9,8a46,46,0,0,1-.48,5c-.51,4.65.08,9,2.93,12.94,2.46,3.4,4.43,7.19,7.16,10.33a12.53,12.53,0,0,0,6.49,3.88,64.78,64.78,0,0,0,12,.74c3.67,0,6.24-2,7.41-5.54.44-1.32.15-1.9-1.24-2.54a80.5,80.5,0,0,1-8.22-4.56c-1.31-.79-2.73-5.49-2.11-6.54,1.33-2.23,2.78-4.39,4.07-6.65,1.77-3.06,2.86-6.15.42-9.5a36.42,36.42,0,0,1-2.56-4.75l1.93-1.8c-1.58-.71-3.78-1.12-3.9-1.87a7.81,7.81,0,0,1,1-5.15,6.79,6.79,0,0,1,6-3.13c2.11,0,3.53.84,3.87,2.71.21,1.17-.54,2.5-.85,3.74h3.44c.23-1.53.94-3.17.58-4.51-1-3.57-3.72-4.94-7.4-4.68a11.94,11.94,0,0,0-7.73,3.32c-1.71,1.61-3.7,2.93-5.43,4.53a4.75,4.75,0,0,1-5.7,1.09c-1-.44-2.4,0-3.62.05l0,.7Z"></path><path class="cls-2" d="M124.6,44.22l-3.07-1.1,0-.7c1.22,0,2.61-.49,3.62-.05a4.75,4.75,0,0,0,5.7-1.09c1.73-1.6,3.72-2.92,5.43-4.53A11.94,11.94,0,0,1,144,33.43c3.68-.26,6.41,1.11,7.4,4.68.36,1.34-.35,3-.58,4.51h-3.44c.31-1.24,1.06-2.57.85-3.74-.34-1.87-1.76-2.69-3.87-2.71a6.79,6.79,0,0,0-6,3.13,7.81,7.81,0,0,0-1,5.15c.12.75,2.32,1.16,3.9,1.87l-1.93,1.8a36.42,36.42,0,0,0,2.56,4.75c2.44,3.35,1.35,6.44-.42,9.5-1.29,2.26-2.74,4.42-4.07,6.65-.62,1,.8,5.75,2.11,6.54a80.5,80.5,0,0,0,8.22,4.56c1.39.64,1.68,1.22,1.24,2.54-1.17,3.49-3.74,5.59-7.41,5.54a64.78,64.78,0,0,1-12-.74,12.53,12.53,0,0,1-6.49-3.88c-2.73-3.14-4.7-6.93-7.16-10.33-2.85-3.93-3.44-8.29-2.93-12.94a46,46,0,0,0,.48-5c0-3.34.9-6.28,3.9-8A70.07,70.07,0,0,1,124.6,44.22Zm11,4.36a9.6,9.6,0,0,0-1.25.52c-2.08,1.42-4.1,2.7-5.85-.46-.16-.28-1-.3-1.44-.28-1.48.07-3,.18-4.43.35a6.66,6.66,0,0,0-6.34,6.34c-.32,3.56-.48,7.14-.56,10.71a6.28,6.28,0,0,0,.72,3.24c2.47,4.12,5,8.21,7.73,12.14a6.53,6.53,0,0,0,3.69,2.52,45.47,45.47,0,0,0,9.86,1c1.85,0,3.68-1.24,5.52-1.92l-.07-1-6.33-4.51a36.94,36.94,0,0,0-1.3-5.47,5.09,5.09,0,0,1,.74-5.35,29.88,29.88,0,0,0,3.37-5.59c.6-1.42,1.14-3.4.6-4.65C139.09,53.5,137.22,51.14,135.59,48.58Z"></path><path class="cls-1" d="M135.59,48.58c1.63,2.56,3.5,4.92,4.66,7.58.54,1.25,0,3.23-.6,4.65a29.88,29.88,0,0,1-3.37,5.59,5.09,5.09,0,0,0-.74,5.35,36.94,36.94,0,0,1,1.3,5.47l6.33,4.51.07,1c-1.84.68-3.67,1.88-5.52,1.92a45.47,45.47,0,0,1-9.86-1,6.53,6.53,0,0,1-3.69-2.52c-2.74-3.93-5.26-8-7.73-12.14a6.28,6.28,0,0,1-.72-3.24c.08-3.57.24-7.15.56-10.71a6.66,6.66,0,0,1,6.34-6.34c1.47-.17,2.95-.28,4.43-.35.49,0,1.28,0,1.44.28,1.75,3.16,3.77,1.88,5.85.46A9.6,9.6,0,0,1,135.59,48.58Zm.63,33.89.15-.83c-1.18-2.68-2.51-5.31-3.48-8.06-1.16-3.32-1.31-6.58,1.09-9.65a41.15,41.15,0,0,0,3.43-5.87c1.09-2-.66-3.11-1.72-4.2-.58-.58-1.86-.56-2.83-.67-1.26-.15-2.75.24-3.77-.3-2.9-1.54-5.62-.27-8.39.16-.56.08-1.24,1-1.45,1.61-2.48,7.63-1.08,14.63,3.65,21a11,11,0,0,0,2,1.69,6.18,6.18,0,0,0-1.07-3.11,22.29,22.29,0,0,1-3.32-15c.2-1.37,1-3.43,2-3.74a20.46,20.46,0,0,1,7.48-.73c4.73.39,5.33,1.67,3.35,5.84a38.5,38.5,0,0,1-1.68,3.55c-2.19,3.58-1.43,7.21-.33,10.86.4,1.34,1,2.62,1.75,4.61-1.14-.71-1.7-.88-2-1.26-3.87-5.29-7-10.85-5.9-17.77a2.49,2.49,0,0,1,2-1.45c.91.21,2.24,1.08,2.34,1.82.15,1.17-.56,2.45-.93,3.76l-1.35-1-.68.19.79,4.22,1.16.09a52.32,52.32,0,0,0,2.58-8c.15-.84-1.5-2.64-2.61-2.94-3.56-1-5.35.39-5.59,4.07-.5,7.8,3.36,13.88,8.29,19.32C132.28,81.79,134.52,81.88,136.22,82.47Z"></path><path class="cls-2" d="M136.22,82.47c-1.7-.59-3.94-.68-5-1.85-4.93-5.44-8.79-11.52-8.29-19.32.24-3.68,2-5,5.59-4.07,1.11.3,2.76,2.1,2.61,2.94a52.32,52.32,0,0,1-2.58,8l-1.16-.09-.79-4.22.68-.19,1.35,1c.37-1.31,1.08-2.59.93-3.76-.1-.74-1.43-1.61-2.34-1.82a2.49,2.49,0,0,0-2,1.45c-1.13,6.92,2,12.48,5.9,17.77.28.38.84.55,2,1.26-.76-2-1.35-3.27-1.75-4.61-1.1-3.65-1.86-7.28.33-10.86a38.5,38.5,0,0,0,1.68-3.55c2-4.17,1.38-5.45-3.35-5.84a20.46,20.46,0,0,0-7.48.73c-1,.31-1.85,2.37-2,3.74a22.29,22.29,0,0,0,3.32,15,6.18,6.18,0,0,1,1.07,3.11,11,11,0,0,1-2-1.69c-4.73-6.38-6.13-13.38-3.65-21,.21-.65.89-1.53,1.45-1.61,2.77-.43,5.49-1.7,8.39-.16,1,.54,2.51.15,3.77.3,1,.11,2.25.09,2.83.67,1.06,1.09,2.81,2.18,1.72,4.2A41.15,41.15,0,0,1,134,63.93c-2.4,3.07-2.25,6.33-1.09,9.65,1,2.75,2.3,5.38,3.48,8.06Z"></path></g></g></svg> 