<?xml version="1.0" encoding="UTF-8"?> <svg xmlns="http://www.w3.org/2000/svg" id="Layer_1" data-name="Layer 1" viewBox="0 0 63.25 98.38"><defs><style>.cls-1{fill:#222;}.cls-2{fill:#009688;}.cls-3{fill:#fff;}</style></defs><g id="Marketing-Tools"><g id="Desktop-HD-Copy"><g id="Group-3"><circle id="Oval" class="cls-1" cx="31.62" cy="73.61" r="21"></circle></g></g></g><g id="doot-arrow"><g id="next"><g id="Group"><path id="Path" class="cls-2" d="M32.41,41h0a.79.79,0,1,0-.79.78.79.79,0,0,0,.79-.78Z"></path><path id="Path-2" data-name="Path" class="cls-2" d="M32.41,37.84h0a.79.79,0,1,0-.79.78.78.78,0,0,0,.79-.78Z"></path><path id="Path-3" data-name="Path" class="cls-2" d="M32.41,34.72v0a.79.79,0,1,0-.79.78.78.78,0,0,0,.79-.78v0Z"></path><path id="Path-4" data-name="Path" class="cls-2" d="M32.41,31.59v0a.79.79,0,1,0-.79.78.78.78,0,0,0,.79-.78v0Z"></path><path id="Path-5" data-name="Path" class="cls-2" d="M32.41,28.46v0a.79.79,0,1,0-.79.79.78.78,0,0,0,.79-.79v0Z"></path><path id="Path-6" data-name="Path" class="cls-2" d="M32.41,25.33h0a.79.79,0,1,0-.79.78.79.79,0,0,0,.79-.78Z"></path><path id="Path-7" data-name="Path" class="cls-2" d="M32.41,22.2h0a.79.79,0,1,0-.79.78.79.79,0,0,0,.79-.78Z"></path><path id="Path-8" data-name="Path" class="cls-2" d="M35.54,37.84h0a.78.78,0,0,0-.78-.78.78.78,0,1,0,0,1.56.78.78,0,0,0,.78-.78Z"></path><path id="Path-9" data-name="Path" class="cls-2" d="M35.54,34.72v0a.78.78,0,0,0-.78-.78.78.78,0,1,0,0,1.56.78.78,0,0,0,.78-.78Z"></path><path id="Path-10" data-name="Path" class="cls-2" d="M35.54,31.59v0a.78.78,0,0,0-.78-.78.78.78,0,1,0,0,1.56.78.78,0,0,0,.78-.78Z"></path><path id="Path-11" data-name="Path" class="cls-2" d="M35.54,28.46v0a.78.78,0,0,0-.78-.78.79.79,0,1,0,.78.78Z"></path><path id="Path-12" data-name="Path" class="cls-2" d="M35.54,25.33h0a.78.78,0,0,0-.78-.79.79.79,0,1,0,0,1.57.78.78,0,0,0,.78-.78Z"></path><path id="Path-13" data-name="Path" class="cls-2" d="M38.68,34.72v0a.79.79,0,1,0-.79.78.78.78,0,0,0,.79-.78Z"></path><path id="Path-14" data-name="Path" class="cls-2" d="M38.68,31.59v0a.79.79,0,1,0-.79.78.78.78,0,0,0,.79-.78Z"></path><path id="Path-15" data-name="Path" class="cls-2" d="M38.68,28.46v0a.79.79,0,1,0-.79.79.78.78,0,0,0,.79-.79Z"></path><path id="Path-16" data-name="Path" class="cls-2" d="M38.68,25.33h0a.79.79,0,1,0-.79.78.79.79,0,0,0,.79-.78Z"></path><path id="Path-17" data-name="Path" class="cls-2" d="M41.81,31.59v0a.78.78,0,1,0-.78.78.78.78,0,0,0,.78-.78v0Z"></path><path id="Path-18" data-name="Path" class="cls-2" d="M41.81,28.46v0a.78.78,0,1,0-.78.79.78.78,0,0,0,.78-.79v0Z"></path><path id="Path-19" data-name="Path" class="cls-2" d="M41.81,25.33h0a.78.78,0,1,0-.78.78.78.78,0,0,0,.78-.78Z"></path><path id="Path-20" data-name="Path" class="cls-2" d="M45,28.46v0a.79.79,0,1,0-.78.79.78.78,0,0,0,.78-.79Z"></path><path id="Path-21" data-name="Path" class="cls-2" d="M45,25.33h0a.79.79,0,1,0-.78.78.78.78,0,0,0,.78-.78Z"></path><path id="Path-22" data-name="Path" class="cls-2" d="M48.09,25.33h0a.79.79,0,0,0-.79-.79.79.79,0,1,0,.79.79Z"></path><path id="Path-23" data-name="Path" class="cls-2" d="M29.27,37.84h0a.79.79,0,1,0-.78.78.78.78,0,0,0,.78-.78Z"></path><path id="Path-24" data-name="Path" class="cls-2" d="M29.27,34.72v0a.79.79,0,1,0-.78.78.78.78,0,0,0,.78-.78Z"></path><path id="Path-25" data-name="Path" class="cls-2" d="M29.27,31.59v0a.79.79,0,1,0-.78.78.78.78,0,0,0,.78-.78Z"></path><path id="Path-26" data-name="Path" class="cls-2" d="M29.27,28.46v0a.79.79,0,1,0-.78.79.78.78,0,0,0,.78-.79Z"></path><path id="Path-27" data-name="Path" class="cls-2" d="M29.27,25.33h0a.79.79,0,1,0-.78.78.78.78,0,0,0,.78-.78Z"></path><path id="Path-28" data-name="Path" class="cls-2" d="M26.13,34.72v0a.78.78,0,1,0-.78.78.78.78,0,0,0,.78-.78Z"></path><path id="Path-29" data-name="Path" class="cls-2" d="M26.13,31.59v0a.78.78,0,1,0-.78.78.78.78,0,0,0,.78-.78Z"></path><path id="Path-30" data-name="Path" class="cls-2" d="M26.13,28.46v0a.78.78,0,1,0-.78.79.78.78,0,0,0,.78-.79Z"></path><path id="Path-31" data-name="Path" class="cls-2" d="M26.13,25.33h0a.78.78,0,1,0-.78.78.78.78,0,0,0,.78-.78Z"></path><path id="Path-32" data-name="Path" class="cls-2" d="M23,31.59v0a.79.79,0,1,0-.78.78.78.78,0,0,0,.78-.78Z"></path><path id="Path-33" data-name="Path" class="cls-2" d="M23,28.46v0a.79.79,0,1,0-.78.79.78.78,0,0,0,.78-.79Z"></path><path id="Path-34" data-name="Path" class="cls-2" d="M23,25.33h0a.79.79,0,1,0-.78.78.78.78,0,0,0,.78-.78Z"></path><path id="Path-35" data-name="Path" class="cls-2" d="M19.86,28.46v0a.78.78,0,1,0-.78.79.78.78,0,0,0,.78-.79Z"></path><path id="Path-36" data-name="Path" class="cls-2" d="M19.86,25.33h0a.78.78,0,1,0-.78.78.78.78,0,0,0,.78-.78Z"></path><path id="Path-37" data-name="Path" class="cls-2" d="M16.73,25.33h0a.79.79,0,1,0-.79.78.79.79,0,0,0,.79-.78Z"></path><path id="Path-38" data-name="Path" class="cls-2" d="M32.41,19.07h0a.79.79,0,1,0-.79.78.78.78,0,0,0,.79-.78Z"></path><path id="Path-39" data-name="Path" class="cls-2" d="M32.41,16v0a.79.79,0,1,0-.79.78.78.78,0,0,0,.79-.78v0Z"></path><path id="Path-40" data-name="Path" class="cls-2" d="M32.41,12.82v0a.79.79,0,1,0-.79.78.78.78,0,0,0,.79-.78v0Z"></path><path id="Path-41" data-name="Path" class="cls-2" d="M32.41,9.69v0a.79.79,0,1,0-.79.79.78.78,0,0,0,.79-.79v0Z"></path><path id="Path-42" data-name="Path" class="cls-2" d="M32.41,6.56h0a.79.79,0,1,0-.79.78.78.78,0,0,0,.79-.78Z"></path><path id="Path-43" data-name="Path" class="cls-2" d="M29.27,22.2h0a.79.79,0,1,0-.78.78.78.78,0,0,0,.78-.78Z"></path><path id="Path-44" data-name="Path" class="cls-2" d="M29.27,19.07h0a.79.79,0,1,0-.78.78.78.78,0,0,0,.78-.78Z"></path><path id="Path-45" data-name="Path" class="cls-2" d="M29.27,16v0a.79.79,0,1,0-.78.78.78.78,0,0,0,.78-.78Z"></path><path id="Path-46" data-name="Path" class="cls-2" d="M29.27,12.82v0a.79.79,0,1,0-.78.78.78.78,0,0,0,.78-.78Z"></path><path id="Path-47" data-name="Path" class="cls-2" d="M29.27,9.69v0a.79.79,0,1,0-.78.79.78.78,0,0,0,.78-.79Z"></path><path id="Path-48" data-name="Path" class="cls-2" d="M29.27,6.56h0a.79.79,0,1,0-.78.78.78.78,0,0,0,.78-.78Z"></path><path id="Path-49" data-name="Path" class="cls-2" d="M35.54,22.2h0a.78.78,0,0,0-.78-.79.79.79,0,1,0,0,1.57.78.78,0,0,0,.78-.78Z"></path><path id="Path-50" data-name="Path" class="cls-2" d="M35.54,19.07h0a.78.78,0,0,0-.78-.78.78.78,0,1,0,0,1.56A.78.78,0,0,0,35.54,19.07Z"></path><path id="Path-51" data-name="Path" class="cls-2" d="M35.54,16v0a.78.78,0,0,0-.78-.78.78.78,0,1,0,0,1.56A.78.78,0,0,0,35.54,16Z"></path><path id="Path-52" data-name="Path" class="cls-2" d="M35.54,12.82v0a.78.78,0,0,0-.78-.78.78.78,0,1,0,0,1.56A.78.78,0,0,0,35.54,12.82Z"></path><path id="Path-53" data-name="Path" class="cls-2" d="M35.54,9.69v0a.78.78,0,0,0-.78-.78.79.79,0,1,0,.78.8Z"></path><path id="Path-54" data-name="Path" class="cls-2" d="M35.54,6.56h0a.78.78,0,0,0-.78-.78.78.78,0,1,0,0,1.56A.77.77,0,0,0,35.54,6.56Z"></path></g><path id="Path-55" data-name="Path" d="M30.84,41a.79.79,0,0,1,1.57,0h0a.79.79,0,0,1-1.57,0Z"></path><path id="Path-56" data-name="Path" d="M30.84,37.84a.79.79,0,0,1,1.57,0h0a.79.79,0,1,1-1.57,0Z"></path><path id="Path-57" data-name="Path" d="M30.84,34.72a.79.79,0,1,1,1.57,0h0a.79.79,0,0,1-1.57,0Z"></path><path id="Path-58" data-name="Path" d="M30.84,31.59a.79.79,0,0,1,1.57,0h0a.79.79,0,0,1-1.57,0Z"></path><path id="Path-59" data-name="Path" d="M30.84,28.46a.79.79,0,0,1,1.57,0h0a.79.79,0,0,1-1.57,0Z"></path><path id="Path-60" data-name="Path" d="M30.84,25.33a.79.79,0,0,1,1.57,0h0a.79.79,0,0,1-1.57,0Z"></path><path id="Path-61" data-name="Path" d="M30.84,22.2a.79.79,0,0,1,1.57,0h0a.79.79,0,0,1-1.57,0Z"></path><path id="Path-62" data-name="Path" d="M34,37.84a.79.79,0,0,1,.79-.78.78.78,0,0,1,.78.78h0a.78.78,0,0,1-.78.79A.79.79,0,0,1,34,37.84Z"></path><path id="Path-63" data-name="Path" d="M34,34.72a.79.79,0,0,1,.79-.79.78.78,0,0,1,.78.79h0a.78.78,0,0,1-.78.78A.79.79,0,0,1,34,34.72Z"></path><path id="Path-64" data-name="Path" d="M34,31.59a.79.79,0,0,1,.79-.78.78.78,0,0,1,.78.78h0a.78.78,0,0,1-.78.78A.79.79,0,0,1,34,31.59Z"></path><path id="Path-65" data-name="Path" d="M34,28.46a.79.79,0,0,1,.79-.78.78.78,0,0,1,.78.78h0a.78.78,0,0,1-.78.78A.79.79,0,0,1,34,28.46Z"></path><path id="Path-66" data-name="Path" d="M34,25.33a.79.79,0,0,1,.79-.78.78.78,0,0,1,.78.78h0a.78.78,0,0,1-.78.78A.79.79,0,0,1,34,25.33Z"></path><path id="Path-67" data-name="Path" d="M37.11,34.72a.79.79,0,1,1,1.57,0h0a.79.79,0,0,1-1.57,0Z"></path><path id="Path-68" data-name="Path" d="M37.11,31.59a.79.79,0,0,1,1.57,0h0a.79.79,0,0,1-1.57,0Z"></path><path id="Path-69" data-name="Path" d="M37.11,28.46a.79.79,0,0,1,1.57,0h0a.79.79,0,0,1-1.57,0Z"></path><path id="Path-70" data-name="Path" d="M37.11,25.33a.79.79,0,0,1,1.57,0h0a.79.79,0,0,1-1.57,0Z"></path><path id="Path-71" data-name="Path" d="M40.25,31.59a.78.78,0,0,1,1.56,0h0a.78.78,0,1,1-1.56,0Z"></path><path id="Path-72" data-name="Path" d="M40.25,28.46a.78.78,0,0,1,1.56,0h0a.78.78,0,1,1-1.56,0Z"></path><path id="Path-73" data-name="Path" d="M40.25,25.33a.78.78,0,0,1,1.56,0h0a.78.78,0,0,1-1.56,0Z"></path><path id="Path-74" data-name="Path" d="M43.38,28.46a.79.79,0,0,1,1.57,0h0a.79.79,0,0,1-1.57,0Z"></path><path id="Path-75" data-name="Path" d="M43.38,25.33a.79.79,0,0,1,1.57,0h0a.79.79,0,0,1-1.57,0Z"></path><path id="Path-76" data-name="Path" d="M46.52,25.33a.79.79,0,0,1,1.57,0h0a.79.79,0,0,1-1.57,0Z"></path><path id="Path-77" data-name="Path" d="M27.7,37.84a.79.79,0,0,1,1.57,0h0a.79.79,0,1,1-1.57,0Z"></path><path id="Path-78" data-name="Path" d="M27.7,34.72a.79.79,0,1,1,1.57,0h0a.79.79,0,0,1-1.57,0Z"></path><path id="Path-79" data-name="Path" d="M27.7,31.59a.79.79,0,0,1,1.57,0h0a.79.79,0,0,1-1.57,0Z"></path><path id="Path-80" data-name="Path" d="M27.7,28.46a.79.79,0,0,1,1.57,0h0a.79.79,0,0,1-1.57,0Z"></path><path id="Path-81" data-name="Path" d="M27.7,25.33a.79.79,0,0,1,1.57,0h0a.79.79,0,0,1-1.57,0Z"></path><path id="Path-82" data-name="Path" d="M24.57,34.72a.78.78,0,0,1,.78-.79.79.79,0,0,1,.79.79h0a.79.79,0,0,1-.79.78A.78.78,0,0,1,24.57,34.72Z"></path><path id="Path-83" data-name="Path" d="M24.57,31.59a.78.78,0,0,1,.78-.78.79.79,0,0,1,.79.78h0a.79.79,0,0,1-.79.78A.78.78,0,0,1,24.57,31.59Z"></path><path id="Path-84" data-name="Path" d="M24.57,28.46a.78.78,0,0,1,.78-.78.79.79,0,0,1,.79.78h0a.79.79,0,0,1-.79.78A.78.78,0,0,1,24.57,28.46Z"></path><path id="Path-85" data-name="Path" d="M24.57,25.33a.78.78,0,0,1,.78-.78.79.79,0,0,1,.79.78h0a.79.79,0,0,1-.79.78A.78.78,0,0,1,24.57,25.33Z"></path><path id="Path-86" data-name="Path" d="M21.43,31.59a.79.79,0,0,1,1.57,0h0a.79.79,0,0,1-1.57,0Z"></path><path id="Path-87" data-name="Path" d="M21.43,28.46a.79.79,0,0,1,1.57,0h0a.79.79,0,0,1-1.57,0Z"></path><path id="Path-88" data-name="Path" d="M21.43,25.33a.79.79,0,0,1,1.57,0h0a.79.79,0,0,1-1.57,0Z"></path><path id="Path-89" data-name="Path" d="M18.3,28.46a.78.78,0,1,1,1.56,0h0a.78.78,0,1,1-1.56,0Z"></path><path id="Path-90" data-name="Path" d="M18.3,25.33a.78.78,0,1,1,1.56,0h0a.78.78,0,1,1-1.56,0Z"></path><path id="Path-91" data-name="Path" d="M15.16,25.33a.79.79,0,0,1,1.57,0h0a.79.79,0,0,1-1.57,0Z"></path><path id="Path-92" data-name="Path" d="M30.84,19.07a.79.79,0,0,1,1.57,0h0a.79.79,0,1,1-1.57,0Z"></path><path id="Path-93" data-name="Path" d="M30.84,16a.79.79,0,1,1,1.57,0h0a.79.79,0,0,1-1.57,0Z"></path><path id="Path-94" data-name="Path" d="M30.84,12.82a.79.79,0,0,1,1.57,0h0a.79.79,0,0,1-1.57,0Z"></path><path id="Path-95" data-name="Path" d="M30.84,9.69a.79.79,0,0,1,1.57,0h0a.79.79,0,0,1-1.57,0Z"></path><path id="Path-96" data-name="Path" d="M30.84,6.56a.79.79,0,0,1,1.57,0h0a.79.79,0,0,1-1.57,0Z"></path><path id="Path-97" data-name="Path" d="M27.7,22.2a.79.79,0,0,1,1.57,0h0a.79.79,0,0,1-1.57,0Z"></path><path id="Path-98" data-name="Path" d="M27.7,19.07a.79.79,0,0,1,1.57,0h0a.79.79,0,1,1-1.57,0Z"></path><path id="Path-99" data-name="Path" d="M27.7,16a.79.79,0,1,1,1.57,0h0a.79.79,0,0,1-1.57,0Z"></path><path id="Path-100" data-name="Path" d="M27.7,12.82a.79.79,0,0,1,1.57,0h0a.79.79,0,0,1-1.57,0Z"></path><path id="Path-101" data-name="Path" d="M27.7,9.69a.79.79,0,0,1,1.57,0h0a.79.79,0,0,1-1.57,0Z"></path><path id="Path-102" data-name="Path" d="M27.7,6.56a.79.79,0,0,1,1.57,0h0a.79.79,0,0,1-1.57,0Z"></path><path id="Path-103" data-name="Path" d="M34,22.2a.79.79,0,0,1,.79-.78.78.78,0,0,1,.78.78h0a.78.78,0,0,1-.78.78A.79.79,0,0,1,34,22.2Z"></path><path id="Path-104" data-name="Path" d="M34,19.07a.79.79,0,0,1,.79-.78.78.78,0,0,1,.78.78h0a.78.78,0,0,1-.78.79A.79.79,0,0,1,34,19.07Z"></path><path id="Path-105" data-name="Path" d="M34,16a.79.79,0,0,1,.79-.79.78.78,0,0,1,.78.79h0a.78.78,0,0,1-.78.78A.79.79,0,0,1,34,16Z"></path><path id="Path-106" data-name="Path" d="M34,12.82a.79.79,0,0,1,.79-.78.78.78,0,0,1,.78.78h0a.78.78,0,0,1-.78.78A.79.79,0,0,1,34,12.82Z"></path><path id="Path-107" data-name="Path" d="M34,9.69a.79.79,0,0,1,.79-.78.78.78,0,0,1,.78.78h0a.78.78,0,0,1-.78.78A.79.79,0,0,1,34,9.69Z"></path><path id="Path-108" data-name="Path" d="M34,6.56a.79.79,0,0,1,.79-.78.78.78,0,0,1,.78.78h0a.78.78,0,0,1-.78.78A.79.79,0,0,1,34,6.56Z"></path></g></g><path class="cls-3" d="M25.69,78.89a.52.52,0,0,1,.14-.39l6.7-8a4,4,0,0,0,1.12-2.64,2,2,0,0,0-2.08-2.18c-1.28,0-2.07.78-2.24,2.24,0,.17-.11.25-.3.22L26,67.69a.28.28,0,0,1-.23-.34c.2-2.63,2.33-4.92,6-4.92s5.86,2.35,5.86,5.43a6.73,6.73,0,0,1-1.94,4.62l-5,5.91v0h6.67a.27.27,0,0,1,.28.28v2.77a.27.27,0,0,1-.28.28H26a.27.27,0,0,1-.28-.28Z"></path></svg> 