<?xml version="1.0" encoding="UTF-8"?> <svg xmlns="http://www.w3.org/2000/svg" id="Layer_1" data-name="Layer 1" viewBox="0 0 274.47 123.71"><defs><style>.cls-1{fill:#6f6f6f;}</style></defs><g id="Marketing-Tools"><g id="Desktop-HD-Copy"><g id="DDPERKS-LOGO-_2_" data-name="DDPERKS-LOGO-(2)"><g id="Group"><path id="Shape" class="cls-1" d="M67.25,71.4V52a5.52,5.52,0,0,1,1.63-4.1A5.61,5.61,0,0,1,73,46.3h6.86c9.09,0,16.34,6,16.34,15.41S88.94,77.12,79.86,77.12H73a5.6,5.6,0,0,1-4.12-1.62,5.54,5.54,0,0,1-1.63-4.1Zm12.93-4.14a5.55,5.55,0,1,0,0-11.09H77.52V67.26Z"></path><path id="Shape-2" data-name="Shape" class="cls-1" d="M36.1,71.4V52a5.51,5.51,0,0,1,1.63-4.1,5.63,5.63,0,0,1,4.13-1.63h6.86c9.08,0,16.34,6,16.34,15.41S57.8,77.12,48.72,77.12H41.86a5.62,5.62,0,0,1-4.13-1.62,5.54,5.54,0,0,1-1.63-4.1ZM49,67.26a5.6,5.6,0,0,0,5-2.72,5.52,5.52,0,0,0,0-5.66,5.61,5.61,0,0,0-5-2.71H46.37V67.26Z"></path></g><g id="Group-2" data-name="Group"><path id="Shape-3" data-name="Shape" class="cls-1" d="M99.45,72.79V51.53a5,5,0,0,1,5.19-5.24h8.57c6.91,0,11.53,4.48,11.53,10.89s-4.62,10.9-11.53,10.9h-3.46v4.71a5.15,5.15,0,1,1-10.3,0Zm12.11-12.5a3.12,3.12,0,0,0,3-1.46,3.16,3.16,0,0,0,0-3.3,3.12,3.12,0,0,0-3-1.46h-1.81v6.22Z"></path><path id="Path" class="cls-1" d="M127.27,72.17V51.53a5,5,0,0,1,5.19-5.24H145.9a4.45,4.45,0,0,1,0,8.89h-8.34v2.4h5.86a3.83,3.83,0,0,1,0,7.65h-5.86v3.29h8.34a4.45,4.45,0,0,1,0,8.9H132.46a5,5,0,0,1-5.19-5.25Z"></path><path id="Shape-4" data-name="Shape" class="cls-1" d="M179.25,72.88a5.07,5.07,0,0,1-5.1,5.12,5.56,5.56,0,0,1-4.34-2.36l-5.94-7.56v4.71a5.15,5.15,0,1,1-10.29,0V51.53a5,5,0,0,1,5.14-5.24h8.61c6.92,0,11.53,4.48,11.53,10.89a10.4,10.4,0,0,1-4.22,8.72l3.11,3.29a5.52,5.52,0,0,1,1.5,3.69ZM163.86,60.29h1.91a3.12,3.12,0,1,0,0-6.22h-1.91Z"></path><path id="Path-2" data-name="Path" class="cls-1" d="M208.44,72.56A5.13,5.13,0,0,1,199,75.72l-4.08-5c-1-1.2-1.37-1.69-2.22-2.85v4.9a5.15,5.15,0,1,1-10.29,0V50.91a5.15,5.15,0,1,1,10.29,0v4.71c.8-1.15,1.25-1.73,2.22-3l3.55-4.53a5.53,5.53,0,0,1,4.3-2.45,5.35,5.35,0,0,1,5.37,5.47A6.06,6.06,0,0,1,206.48,55l-5.67,6.67,6.12,6.94a6,6,0,0,1,1.51,3.91Z"></path><path id="Path-3" data-name="Path" class="cls-1" d="M212.34,74a6.42,6.42,0,0,1-1.69-4.14,4.8,4.8,0,0,1,4.79-4.76,5.2,5.2,0,0,1,4.26,2.4,3.85,3.85,0,0,0,3.06,1.78c1.11,0,1.6-.57,1.6-1.33s-.71-1.38-2-1.91l-4.43-1.82c-4.17-1.74-6.44-4.59-6.44-8.81,0-5.92,4.84-9.79,11.81-9.79,3.94,0,7.27.89,9.71,3.65a5.17,5.17,0,0,1,1.37,3.43,4.9,4.9,0,0,1-4.88,4.93,5.1,5.1,0,0,1-3.95-2.17,3.15,3.15,0,0,0-2.66-1.56,1.3,1.3,0,0,0-1.46,1.2c0,.8.62,1.2,2.35,1.87L227,58.25c5.28,2,7.68,4.58,7.68,9.66,0,5.51-4.39,10.14-12,10.14C218.91,78,214.73,77,212.34,74Z"></path></g></g></g></g></svg> 