<?xml version="1.0" encoding="UTF-8"?> <svg xmlns="http://www.w3.org/2000/svg" id="Layer_1" data-name="Layer 1" viewBox="0 0 101.09 49.88"><defs><style>.cls-1{fill:#ffb0bb;stroke:#070707;stroke-miterlimit:10;}</style></defs><rect class="cls-1" x="2.36" y="2.43" width="96.15" height="46.15" rx="3.69"></rect><path d="M32.91,29.55a66.86,66.86,0,0,1,.4-6.83,74,74,0,0,0-5.62,11.57c-.21.61-.67.64-1.09.18A2.82,2.82,0,0,1,26,32.78,5.8,5.8,0,0,1,26.42,31a126.21,126.21,0,0,1,7.7-15c.39-.67.76-.67,1.21-.31A2.68,2.68,0,0,1,36.66,18a9.15,9.15,0,0,1-.15,1.45,85.63,85.63,0,0,0-.91,9.06,135.68,135.68,0,0,1,7-12.72c.45-.63.82-.48,1.15.09A2.65,2.65,0,0,1,44,17.07a6.17,6.17,0,0,1-1.12,3.3c-1.69,2.77-5.41,9.87-7.25,14a.65.65,0,0,1-1,.27A3,3,0,0,1,33,31.75C32.94,30.88,32.91,30.28,32.91,29.55Z"></path><path d="M39.59,31.45a83.22,83.22,0,0,1,6.76-12.93A2.54,2.54,0,0,1,45.15,17c-.1-.42.24-.6.69-.6A29,29,0,0,0,50.55,16a18.31,18.31,0,0,1,2.66-.31,2.32,2.32,0,0,1,2.54,1.57c.12.34-.09.61-.67.61a25.27,25.27,0,0,0-4.56.57c-.45.09-.75.15-1.21.21-1,1.51-2.38,4-3.8,6.59.63-.09,1.14-.12,1.57-.15,1.66-.06,2.45.48,2.78,1.45.15.39.09.69-.61.69A23.7,23.7,0,0,0,44,28c-.85,1.6-1.48,2.84-2.09,4.2a26.73,26.73,0,0,1,4.11-.73c1.63-.06,2.48.43,2.84,1.42.15.43.06.67-.57.67a31,31,0,0,0-6.5,1.21c-.72.21-1.21.21-1.6-.37-.21-.3-.42-.78-.75-1.33C39.22,32.69,39.28,32.3,39.59,31.45Z"></path><path d="M59.88,30.21c.37-1.69,1.24-4.38,2-6.79-2.48,3.35-5.5,7.67-7.58,11a.84.84,0,0,1-1.39.22,3.05,3.05,0,0,1-1.15-2.51A8.26,8.26,0,0,1,52,30.37,79.43,79.43,0,0,1,57,16.17c.43-.76.94-.79,1.33-.12a2.65,2.65,0,0,1,.4,1.48,13.23,13.23,0,0,1-1,3.8c-1,2.66-1.6,3.9-2.72,7.68a150.85,150.85,0,0,1,9.18-12.48.7.7,0,0,1,1.24.06,2.44,2.44,0,0,1,.58,1.6,7.71,7.71,0,0,1-.55,2.42c-.93,2.78-1.78,4.8-2.9,9.12,3.14-4.86,7.62-10.21,10.55-13.93.54-.66,1-.48,1.14.22.16,1.08-.21,2.47-3.26,6.4C68.59,25.5,65.08,30,62.3,34.29c-.36.52-.81.7-1.36.18a3.7,3.7,0,0,1-1.24-2.65A8.5,8.5,0,0,1,59.88,30.21Z"></path></svg> 