<?xml version="1.0" encoding="UTF-8"?> <svg xmlns="http://www.w3.org/2000/svg" id="Layer_1" data-name="Layer 1" viewBox="0 0 271.1 98.43"><path d="M61.41,32.2a7.39,7.39,0,0,1,3.71-.55c1.58-2.77,3.17-5.22,4.58-7.59h-.07c1.1-1.82,2.05-1.89,3-.15.55.94.71,3.94-2.53,10.11a10,10,0,0,1,2.13,3.16c1,2.69-.39,5.53-3.39,11.77-.71,1.58-1.51,1.5-2.93.64a4.36,4.36,0,0,1-2.37-3.8,12.63,12.63,0,0,1,1.82-5.37c.79-1.74,1.74-3.64,1.19-4-1.35-1-10,4.19-10,9.87,0,2.06,2.53,3.72,5.06,5.06,2.44,1.66,4.74,3.24,4.74,4.82A6.84,6.84,0,0,1,64,60.72a9.38,9.38,0,0,1-6.8,2.61,14.54,14.54,0,0,1-2.6-.23c-.72,1.42-1.27,2.68-2,4.1-2.21,4.51-2.92,4.35-4,3-.87-1.19-1.1-2.69.24-6.09L50,61.2a21.23,21.23,0,0,1-5.29-5.14c-.56-.71-.32-1.65,1-1.89a5.64,5.64,0,0,1,5.68,1.34c3.24,2.68,3.95,3.71,6.64,4a3.15,3.15,0,0,0,2.37-.79c.63-.63.32-1.26-.24-1.74A13.19,13.19,0,0,0,57.38,55c-3.56-2-7.9-4.51-7.9-8.38C49.48,39.87,56,34.41,61.41,32.2Z"></path><path d="M110.71,33.07C107.94,37.26,104,44.13,100,51.32a7.37,7.37,0,0,1,2.93,4c.16.71-.4,1.11-2,.79a15.74,15.74,0,0,0-3.47-.23,176.59,176.59,0,0,0-8.06,16.67c-.63,1.5-1.9,1.58-2.77.39a7.94,7.94,0,0,1-1.5-4.34,13.12,13.12,0,0,1,1-4.51c.79-2.13,1.58-4.19,3.08-7.5-3.48.55-7,1.18-10,1.89-1.5.32-2.61.32-3.48-.79a30.15,30.15,0,0,1-2.76-4.5,2.66,2.66,0,0,1,.48-3c6.48-7.58,21.65-19.75,31.52-26.15,1.35-.87,3.16-1.34,4.19.4l2.13,3.63C112.37,30,112.37,30.46,110.71,33.07Zm-18.25,17a160.74,160.74,0,0,1,9.4-16.36C94.11,39.15,85.42,45.87,79.34,52A83.3,83.3,0,0,1,92.46,50.06Z"></path><path d="M144.36,33.07c-2.77,4.19-6.72,11.06-10.75,18.25a7.37,7.37,0,0,1,2.93,4c.16.71-.4,1.11-2,.79a15.74,15.74,0,0,0-3.47-.23A176.59,176.59,0,0,0,123,72.58c-.63,1.5-1.9,1.58-2.77.39a7.94,7.94,0,0,1-1.5-4.34,13.12,13.12,0,0,1,.95-4.51c.79-2.13,1.58-4.19,3.08-7.5-3.48.55-7,1.18-10,1.89-1.5.32-2.61.32-3.48-.79a30.15,30.15,0,0,1-2.76-4.5,2.66,2.66,0,0,1,.48-3c6.48-7.58,21.65-19.75,31.52-26.15,1.35-.87,3.16-1.34,4.19.4l2.13,3.63C146,30,146,30.46,144.36,33.07Zm-18.25,17a160.74,160.74,0,0,1,9.4-16.36C127.76,39.15,119.07,45.87,113,52A83.3,83.3,0,0,1,126.11,50.06Z"></path><path d="M131,67.52c1.11-2.45,3.56-3.71,5.53-3s2.53,2.92,1.58,5.21-3.55,3.79-5.45,3.08S130.05,69.5,131,67.52Z"></path><path d="M151.62,69.65c3.79,1.11,9.95-3.79,15.56-14.38a12.93,12.93,0,0,1-4.27.71,13.45,13.45,0,0,1-5.29-1.18,10.43,10.43,0,0,1-5.69-9.56A21.39,21.39,0,0,1,155,34.89c4-7.27,9.4-11.3,14.86-11.3a11.73,11.73,0,0,1,5.37,1.34c3.72,1.9,5.61,5.53,5.61,10.51,0,5.45-2,12.49-6.08,20.54-5.85,11.93-12.33,17.78-20.47,17.86-4.58.08-10.67-1.89-11.06-8.93A8.38,8.38,0,0,1,146.72,58c1.5-.87,3.32-1.19,2.84,1a24,24,0,0,0-.63,4.82C148.93,67.13,150,69.18,151.62,69.65Zm20.46-27.49a25.52,25.52,0,0,0,2.14-9.64c0-2.61-.56-4.11-1.35-4.59-2.53-1.26-8,3.56-11.46,10a22.36,22.36,0,0,0-2.76,9.48c0,2.37.63,3.87,1.74,4.43C163.63,53.38,169.08,49.74,172.08,42.16Z"></path><path d="M204.15,59.7c0,3.24-1.18,6.56-4.5,9.8-2.77,2.92-7.59,4.42-11.85,4.42A13,13,0,0,1,182,72.81c-4.11-2-5.77-5.21-5.77-8.53a16.52,16.52,0,0,1,2.13-7.35c2.22-4,6.72-8.69,11.78-12.8-1.19-2.76-2.06-5.76-1.74-7.82.87-4.74,5.45-9.8,10-11.69a15.43,15.43,0,0,1,5.93-1.19c5,0,8.77,2.69,8.77,8a10.71,10.71,0,0,1,1.58-.16,4.26,4.26,0,0,1,2.85.71,1.27,1.27,0,0,1-.16,2.14,177.62,177.62,0,0,0-18.26,11.61C203.44,54.17,204.15,56.93,204.15,59.7Zm-11.06-9.09c-4.11,3.56-7.5,7.35-9.16,11.14A11.23,11.23,0,0,0,182.82,66a3.52,3.52,0,0,0,3.79,3.79,9.11,9.11,0,0,0,6.32-3c1.66-1.9,3.24-3.79,3.24-7C196.17,57.25,194.67,54,193.09,50.61Zm3.48-11.06a62.34,62.34,0,0,1,10.11-5.77c.24-3.48-1-6.79-3.63-6.4-3.48.55-7,5.06-7,9A11.24,11.24,0,0,0,196.57,39.55Z"></path></svg> 