<?xml version="1.0" encoding="UTF-8"?> <svg xmlns="http://www.w3.org/2000/svg" id="Layer_1" data-name="Layer 1" viewBox="0 0 144.66 49.88"><defs><style>.cls-1{fill:#ffb0bb;stroke:#070707;stroke-miterlimit:10;}</style></defs><rect class="cls-1" x="3.48" y="1.86" width="138.7" height="46.15" rx="3.69"></rect><path d="M19.32,21.51c0-3.05,3.33-4.68,7.9-4.68,3.08,0,6.16.46,7.29,1.11L33.83,21c-1.21-.72-4.27-1.1-6.73-1.1-3.05,0-4.22.44-4.22,1.19C22.88,23.74,35,21.2,35,27c0,2.58-2.56,4.85-8,4.85-2.53,0-5.83-.22-7.32-.92l.14-3.3A18.73,18.73,0,0,0,27,28.73c3.13,0,4.32-.56,4.32-1.23C31.36,25,19.32,27.47,19.32,21.51Z"></path><path d="M49.13,28.6h-9l-1.34,2.92H35l7-14.41h5.51l6.86,14.41H50.48ZM41.5,25.67h6.3l-2.58-5.62H44.09Z"></path><path d="M65.56,31.52H59.51L52.83,17.11H57.1l5.11,11.47h.85l5-11.47h4.19Z"></path><path d="M73.32,31.52V17.11H88.24v3.25H76.92v2.43H87v3.06H76.92v2.43H88.24v3.24Z"></path><path d="M95.3,25.36l.7-8.25h9l-.27,3.16H99l-.25,2.43c3.78.18,6.46,1.29,6.46,4.3,0,2.61-2.07,4.79-6.06,4.79a9.55,9.55,0,0,1-4.25-1l.18-3a8.88,8.88,0,0,0,4,1c2,0,2.54-.71,2.54-1.41C101.6,26.06,99.36,25.59,95.3,25.36Z"></path><path d="M110.78,16.84c2.91,0,4.16,1.7,4.16,4.25s-1.25,4.25-4.16,4.25-4.16-1.69-4.16-4.25S107.86,16.84,110.78,16.84Zm8.93.27h2.88L112.47,31.52h-2.88Zm-8.93,5.78c.75,0,1.15-.57,1.15-1.8s-.24-1.8-1.15-1.8-1.16.58-1.16,1.8S109.91,22.89,110.78,22.89Zm10.85.4c2.92,0,4.16,1.69,4.16,4.25s-1.24,4.25-4.16,4.25-4.16-1.69-4.16-4.25S118.72,23.29,121.63,23.29Zm0,6.05c.76,0,1.16-.58,1.16-1.8s-.24-1.8-1.16-1.8-1.15.58-1.15,1.8S120.77,29.34,121.63,29.34Z"></path></svg> 