<?xml version="1.0" encoding="UTF-8"?> <svg xmlns="http://www.w3.org/2000/svg" id="Layer_1" data-name="Layer 1" viewBox="0 0 280.4 136.12"><defs><style>.cls-1{fill:none;stroke:#000;stroke-linecap:square;}.cls-2,.cls-8{fill:#fff;}.cls-2,.cls-3{stroke:#0b0b0b;}.cls-3{fill:#ffd03b;}.cls-4,.cls-7{fill:#222;}.cls-4{fill-rule:evenodd;}.cls-5{isolation:isolate;}.cls-6{fill:#191919;}</style></defs><g id="Marketing-Tools"><g id="Desktop-HD-Copy"><g id="Group-14"><g id="Group-2"><line id="Line-3" class="cls-1" x1="264.45" y1="66.89" x2="276.45" y2="59.89"></line><line id="Line-3-2" data-name="Line-3" class="cls-1" x1="259.45" y1="62.89" x2="263.95" y2="56.39"></line><line id="Line-3-3" data-name="Line-3" class="cls-1" x1="264.45" y1="73.89" x2="272.7" y2="72.14"></line><rect id="Rectangle" class="cls-2" x="3.95" y="69.39" width="256" height="48" rx="3"></rect><rect id="Rectangle-2" data-name="Rectangle" class="cls-3" x="173.95" y="74.39" width="81" height="38" rx="3"></rect><polygon id="Path" class="cls-4" points="251.2 131.03 248.15 132.39 243.23 121.04 236.95 127.12 236.96 102.39 254.95 119.13 246.28 119.69 251.2 131.03"></polygon><g id="APPLY" class="cls-5"><g class="cls-5"><path class="cls-6" d="M200.44,97.5a11.74,11.74,0,0,1,.07-1.48l-1.54.16a22.23,22.23,0,0,1-2.36.15c-.59,1-1.08,2.13-1.58,3-.27.46-.64.37-.79.06a1.54,1.54,0,0,1-.27-.81,4.14,4.14,0,0,1,.35-1.5c.14-.33.29-.7.53-1.16a2.35,2.35,0,0,1-.66-.73c-.17-.42-.09-.55.49-.46l.79.09c1.65-2.89,4.68-7.13,7-9.09.49-.4.82-.38,1.15.06a3.78,3.78,0,0,1,.51.91,1.91,1.91,0,0,1,.17.77,2.44,2.44,0,0,1-.17.9,50.8,50.8,0,0,0-1.55,6.18,1.68,1.68,0,0,1,1,1.15c.11.35,0,.44-.44.37l-.77-.13c-.13,1.1-.24,2.22-.28,3.3,0,.39-.29.48-.69.31S200.46,98.77,200.44,97.5ZM202,88.8a63.37,63.37,0,0,0-4.38,6c.44,0,.88-.09,1.3-.16.75-.08,1.23-.17,1.83-.19A34.35,34.35,0,0,1,202,88.8Z"></path><path class="cls-6" d="M203,97.21a45.55,45.55,0,0,1,4.42-8.84,1.72,1.72,0,0,1-1.28-1c-.15-.33-.06-.53.42-.57a10.61,10.61,0,0,0,2.49-.64,8,8,0,0,1,2.4-.53,2.47,2.47,0,0,1,2.81,1.87,4,4,0,0,1-.68,3.81,9.17,9.17,0,0,1-6.18,3.89,3.06,3.06,0,0,1-1.48-.09c-.59,1.15-1.29,2.55-2,4.25-.17.4-.35.4-.66.09a1.65,1.65,0,0,1-.42-1.17A4.29,4.29,0,0,1,203,97.21Zm3.78-3.72c4.38-1,6.52-4.2,6.12-5.67a.73.73,0,0,0-.7-.45,7.91,7.91,0,0,0-2.07.55,8.49,8.49,0,0,1-.84.29,6.17,6.17,0,0,1-.84,2.36Z"></path><path class="cls-6" d="M211.79,97.21a45.55,45.55,0,0,1,4.42-8.84,1.7,1.7,0,0,1-1.27-1c-.16-.33-.07-.53.42-.57a10.53,10.53,0,0,0,2.48-.64,8,8,0,0,1,2.4-.53,2.49,2.49,0,0,1,2.82,1.87,4,4,0,0,1-.69,3.81,9.17,9.17,0,0,1-6.18,3.89,3,3,0,0,1-1.47-.09c-.6,1.15-1.3,2.55-2,4.25-.18.4-.36.4-.66.09a1.61,1.61,0,0,1-.42-1.17A4.24,4.24,0,0,1,211.79,97.21Zm3.79-3.72c4.37-1,6.51-4.2,6.11-5.67a.73.73,0,0,0-.7-.45,8,8,0,0,0-2.07.55,7.69,7.69,0,0,1-.84.29,6.3,6.3,0,0,1-.83,2.36C217.05,90.9,216.83,91.29,215.58,93.49Z"></path><path class="cls-6" d="M221.76,97.8a20.68,20.68,0,0,1,2.92-.48,1.89,1.89,0,0,1,2.14,1.06c.11.26.06.48-.44.48a24.52,24.52,0,0,0-4.65.86c-.63.15-.92.15-1.23-.29a5.6,5.6,0,0,1-.59-.94,1.69,1.69,0,0,1,.06-1.35A80,80,0,0,1,226,86c.35-.48.61-.33.83.07a2.1,2.1,0,0,1,.2.9,4.86,4.86,0,0,1-.75,2.29C224.4,92.77,223,95.23,221.76,97.8Z"></path><path class="cls-6" d="M228.12,99.52c-.16.42-.38.53-.71.24a1.9,1.9,0,0,1-.53-1.34,3.93,3.93,0,0,1,.16-1.08,26.94,26.94,0,0,1,1.34-3.12,50.73,50.73,0,0,1,.62-8c.11-.53.33-.57.68-.38a3,3,0,0,1,1,2.67c0,1.21-.22,2.11-.31,3.69,2-2.13,4.67-4.73,6.36-6.27.4-.37.7-.31.79,0,.16.66,0,1.78-1.32,3.08-2.53,2.4-4.11,3.89-6.09,6A38.82,38.82,0,0,0,228.12,99.52Z"></path></g></g><g id="_3lK6---56R0---4LK1" data-name="3lK6---56R0---4LK1" class="cls-5"><g class="cls-5"><path class="cls-6" d="M22.74,92.21v0a2.14,2.14,0,0,1,1.59,2.09c0,1.94-1.95,3-4.16,3a5.57,5.57,0,0,1-2.59-.58l.22-2a6.78,6.78,0,0,0,2.54.62c.85,0,1.47-.38,1.47-1s-.87-1.19-2.35-1.11l-.27-1.51c1.65-.32,2.53-.68,2.53-1.37s-.59-.92-1.36-.93a5.47,5.47,0,0,0-2.36.62l-.26-1.86a5.47,5.47,0,0,1,3.05-.85c1.84,0,3.57.88,3.57,2.57A2.5,2.5,0,0,1,22.74,92.21Z"></path><path class="cls-6" d="M25.65,87.54h2.4v7.32h7.43v2.28H25.65Z"></path><path class="cls-6" d="M41.13,92.19l6.69,5H44.18l-4.93-3.66h-.44v3.66h-2.4v-9.6h2.4V91.2h.43l5.12-3.66h3.48Z"></path><path class="cls-6" d="M55.2,89.65l-.89,0c-2.08,0-3.1.86-3.53,1.92A4.41,4.41,0,0,1,52.84,91a2.82,2.82,0,0,1,3,2.89c0,2.06-1.7,3.43-4,3.43-2.45,0-3.89-1.58-3.89-4.1a5.82,5.82,0,0,1,5.89-5.88c.24,0,.46,0,.55,0Zm-4.71,3.48c0,1.32.52,2.28,1.54,2.28a1.31,1.31,0,0,0,1.33-1.35c0-.81-.67-1.19-1.5-1.19A4.37,4.37,0,0,0,50.49,93.13Z"></path><path class="cls-6" d="M59.78,93.24v-1.8H64.4v1.8Z"></path><path class="cls-6" d="M68.7,93l.47-5.5h6L75,89.64H71.18L71,91.26c2.52.12,4.31.86,4.31,2.87,0,1.74-1.38,3.19-4,3.19a6.41,6.41,0,0,1-2.83-.64l.12-2a5.82,5.82,0,0,0,2.64.65c1.31,0,1.69-.47,1.69-.94C72.9,93.5,71.41,93.19,68.7,93Z"></path><path class="cls-6" d="M83.17,89.65l-.89,0c-2.08,0-3.09.86-3.53,1.92A4.42,4.42,0,0,1,80.82,91a2.82,2.82,0,0,1,3,2.89c0,2.06-1.7,3.43-4,3.43-2.45,0-3.89-1.58-3.89-4.1a5.82,5.82,0,0,1,5.89-5.88c.24,0,.46,0,.55,0Zm-4.7,3.48c0,1.32.51,2.28,1.53,2.28a1.31,1.31,0,0,0,1.33-1.35c0-.81-.67-1.19-1.5-1.19A4.31,4.31,0,0,0,78.47,93.13Z"></path><path class="cls-6" d="M84.9,87.54h7.41a3.23,3.23,0,0,1,3.57,3.28,3.26,3.26,0,0,1-1.75,2.94l1.72,3.38h-2.7L91.82,94.2H87.3v2.94H84.9Zm2.4,2.16v2.46H92c1.18,0,1.44-.67,1.44-1.28S93.14,89.7,92,89.7Z"></path><path class="cls-6" d="M100.36,87.35c2.77,0,4,2.1,4,5s-1.19,5-4,5-4-2.1-4-5S97.59,87.35,100.36,87.35Zm0,7.89c1.26,0,1.54-1.48,1.54-3,0-1.19-.16-2.8-1.52-2.8s-1.6,1.49-1.6,2.89S99.09,95.24,100.38,95.24Z"></path><path class="cls-6" d="M108.43,93.24v-1.8h4.62v1.8Z"></path><path class="cls-6" d="M123.71,95.54v1.6h-2.37v-1.6H117v-2.1l2.52-5.9h2.63l-2.63,5.9h1.87v-2h2.37v2h.83v2.1Z"></path><path class="cls-6" d="M125.55,87.54H128v7.32h7.43v2.28h-9.83Z"></path><path class="cls-6" d="M141,92.19l6.69,5h-3.64l-4.93-3.66h-.45v3.66h-2.39v-9.6h2.39V91.2h.44l5.12-3.66h3.48Z"></path><path class="cls-6" d="M148.13,97.14V95h2.12V90l-2.12.3V88.14l4.12-.79h.4V95h2v2.1Z"></path></g></g></g></g></g></g><g id="Marketing-Tools-2" data-name="Marketing-Tools"><g id="Desktop-HD-Copy-2" data-name="Desktop-HD-Copy"><g id="Group-3"><circle id="Oval" class="cls-7" cx="28.39" cy="30.06" r="21"></circle></g></g></g><path class="cls-8" d="M26.38,23.81h-.06l-3,2.08c-.17.11-.31.05-.31-.17V22.25a.48.48,0,0,1,.2-.4l3.19-2.29a.74.74,0,0,1,.5-.17H30a.26.26,0,0,1,.28.28V38.15a.26.26,0,0,1-.28.28H26.66a.26.26,0,0,1-.28-.28Z"></path></svg> 