<?xml version="1.0" encoding="UTF-8"?> <svg xmlns="http://www.w3.org/2000/svg" id="Layer_1" data-name="Layer 1" viewBox="0 0 144.66 49.88"><defs><style>.cls-1{fill:#ffb0bb;stroke:#070707;stroke-miterlimit:10;}</style></defs><rect class="cls-1" x="3.51" y="1.6" width="138.7" height="46.15" rx="3.69"></rect><path d="M16.81,31.26V16.85H31.74v3.24H20.41v2.43H30.48v3.06H20.41V28H31.74v3.24Z"></path><path d="M46.78,28.34h-9l-1.33,2.92H32.63l7-14.41h5.51L52,31.26h-3.9ZM39.15,25.4h6.3l-2.57-5.61H41.74Z"></path><path d="M53.49,16.85H64.62c3.59,0,5.37,2.29,5.37,4.92a4.89,4.89,0,0,1-2.63,4.41l2.57,5.08H65.88l-2-4.41H57.1v4.41H53.49Zm3.61,3.24v3.69h7c1.76,0,2.16-1,2.16-1.92,0-.76-.4-1.77-2.16-1.77Z"></path><path d="M76.36,21.16h-.9v10.1h-3.6V16.85h5l9.53,9.09h.9V16.85h3.6V31.26H86.58Z"></path><path d="M98.6,25.1l.71-8.25h8.94L108,20h-5.65l-.25,2.43c3.78.18,6.46,1.3,6.46,4.31,0,2.61-2.07,4.79-6.07,4.79a9.67,9.67,0,0,1-4.24-1l.17-3a8.79,8.79,0,0,0,4,1c2,0,2.53-.71,2.53-1.41C104.9,25.8,102.67,25.33,98.6,25.1Z"></path><path d="M114.08,16.58c2.92,0,4.16,1.7,4.16,4.25s-1.24,4.25-4.16,4.25-4.16-1.69-4.16-4.25S111.17,16.58,114.08,16.58Zm8.94.27h2.88L115.78,31.26H112.9Zm-8.94,5.78c.76,0,1.16-.57,1.16-1.8S115,19,114.08,19s-1.15.58-1.15,1.8S113.22,22.63,114.08,22.63Zm10.86.4c2.92,0,4.16,1.69,4.16,4.25s-1.24,4.25-4.16,4.25-4.16-1.7-4.16-4.25S122,23,124.94,23Zm0,6c.76,0,1.15-.58,1.15-1.8s-.23-1.8-1.15-1.8-1.15.57-1.15,1.8S124.08,29.08,124.94,29.08Z"></path></svg> 