<?xml version="1.0" encoding="UTF-8"?> <svg xmlns="http://www.w3.org/2000/svg" xmlns:xlink="http://www.w3.org/1999/xlink" id="Layer_1" data-name="Layer 1" viewBox="0 0 376.49 293.4"><defs><style>.cls-1{fill:none;}.cls-2,.cls-32{isolation:isolate;}.cls-3{clip-path:url(#clip-path);}.cls-4{fill:#fff;}.cls-5{fill:#070707;}.cls-6{clip-path:url(#clip-path-2);}.cls-7{clip-path:url(#clip-path-3);}.cls-8{fill:#141414;}.cls-9{fill:#5fe080;}.cls-10{clip-path:url(#clip-path-4);}.cls-11{fill:#ff5353;}.cls-12{fill:#221e14;}.cls-13{clip-path:url(#clip-path-5);}.cls-14{fill:url(#linear-gradient);}.cls-15{clip-path:url(#clip-path-6);}.cls-16{fill:#262626;}.cls-17{fill:#cecece;}.cls-18{fill:#ff5050;}.cls-19{fill:url(#linear-gradient-2);}.cls-20{fill:url(#linear-gradient-3);}.cls-21{fill:url(#linear-gradient-4);}.cls-22{fill:url(#linear-gradient-5);}.cls-23{fill:#ffdcdc;}.cls-24{fill:#ff9292;}.cls-25{fill:url(#linear-gradient-6);}.cls-26{fill:#1e1e1e;}.cls-27{fill:url(#linear-gradient-7);}.cls-28{fill:#ffc2c2;}.cls-29{fill:url(#linear-gradient-8);}.cls-30{fill:url(#linear-gradient-9);}.cls-31{fill:#7c7272;}.cls-32{opacity:0.62;fill:url(#linear-gradient-10);}.cls-33{fill:url(#linear-gradient-11);}.cls-34{fill:url(#linear-gradient-12);}.cls-35{clip-path:url(#clip-path-7);}.cls-36{clip-path:url(#clip-path-8);}.cls-37{fill:#76ff90;}.cls-38{fill:#111;}.cls-39{clip-path:url(#clip-path-9);}.cls-40{fill:#ffc33f;}.cls-41{fill:#ffdf40;}.cls-42{fill:#231f15;}.cls-43{fill:#161616;}.cls-44{fill:#ffda40;}.cls-45{fill:#ffb3b3;}.cls-46{fill:url(#linear-gradient-13);}</style><clipPath id="clip-path"><polygon class="cls-1" points="4.61 206.34 63.71 171.94 219.31 261.85 160.31 296.14 4.61 206.34"></polygon></clipPath><clipPath id="clip-path-2"><polygon class="cls-1" points="4.51 204.04 63.61 169.75 219.31 259.64 160.21 293.94 4.51 204.04"></polygon></clipPath><clipPath id="clip-path-3"><polygon class="cls-1" points="26.61 205.34 54.81 181.15 86.91 199.65 58.71 223.94 26.61 205.34"></polygon></clipPath><clipPath id="clip-path-4"><polygon class="cls-1" points="70.91 223.65 98.31 203.34 199.31 259.55 171.91 279.94 70.91 223.65"></polygon></clipPath><clipPath id="clip-path-5"><polygon class="cls-1" points="70.61 222.15 98.01 201.75 199.01 258.05 171.61 278.35 70.61 222.15"></polygon></clipPath><linearGradient id="linear-gradient" x1="78.51" y1="26.36" x2="191.31" y2="26.36" gradientTransform="matrix(1, 0, 0, -1, 0, 266.4)" gradientUnits="userSpaceOnUse"><stop offset="0.2" stop-color="#ff5050"></stop><stop offset="0.96" stop-color="#ff5050"></stop><stop offset="0.98" stop-color="#ff5050"></stop></linearGradient><clipPath id="clip-path-6"><polygon class="cls-1" points="99.51 226.04 112.61 218.44 173.51 253.54 160.41 261.14 99.51 226.04"></polygon></clipPath><linearGradient id="linear-gradient-2" x1="-405.44" y1="616.51" x2="-402.8" y2="621.08" gradientTransform="translate(-471.87 177.23) rotate(-131.34)" gradientUnits="userSpaceOnUse"><stop offset="0" stop-color="#fff" stop-opacity="0"></stop><stop offset="0.94" stop-color="#fff"></stop></linearGradient><linearGradient id="linear-gradient-3" x1="180.81" y1="79.86" x2="210.85" y2="79.86" gradientTransform="matrix(1, 0, 0, -1, 0, 266.4)" gradientUnits="userSpaceOnUse"><stop offset="0.2" stop-color="#ffb0bb"></stop><stop offset="0.61" stop-color="#ffe0da"></stop></linearGradient><linearGradient id="linear-gradient-4" x1="-1569.51" y1="-3104.84" x2="-1525.81" y2="-3104.84" gradientTransform="matrix(1, 0, 0, -1, 1814.62, -3011.6)" gradientUnits="userSpaceOnUse"><stop offset="0.2" stop-color="#ffb0bb" stop-opacity="0"></stop><stop offset="0.61" stop-color="#ffe0da"></stop></linearGradient><linearGradient id="linear-gradient-5" x1="134.43" y1="103.06" x2="164.46" y2="103.06" xlink:href="#linear-gradient-3"></linearGradient><linearGradient id="linear-gradient-6" x1="126.49" y1="149.01" x2="285.21" y2="149.01" gradientTransform="matrix(1, 0, 0, -1, 0, 266.4)" gradientUnits="userSpaceOnUse"><stop offset="0.2" stop-color="#ffb0bb" stop-opacity="0"></stop><stop offset="0.61" stop-color="#ffb0bb"></stop></linearGradient><linearGradient id="linear-gradient-7" x1="-1564.07" y1="-3168.11" x2="-1523.07" y2="-3168.11" xlink:href="#linear-gradient-4"></linearGradient><linearGradient id="linear-gradient-8" x1="-1600.41" y1="-3109.84" x2="-1532.07" y2="-3109.84" xlink:href="#linear-gradient-4"></linearGradient><linearGradient id="linear-gradient-9" x1="-1618.05" y1="-3122.9" x2="-1580.45" y2="-3122.9" xlink:href="#linear-gradient-4"></linearGradient><linearGradient id="linear-gradient-10" x1="151.61" y1="135.23" x2="151.61" y2="159.53" gradientTransform="matrix(1, 0, 0, -1, 0, 266.4)" gradientUnits="userSpaceOnUse"><stop offset="0" stop-color="#fff" stop-opacity="0"></stop><stop offset="0.8" stop-color="#fff" stop-opacity="0.86"></stop><stop offset="0.94" stop-color="#fff"></stop></linearGradient><linearGradient id="linear-gradient-11" x1="-24.95" y1="246.44" x2="-22.31" y2="251.01" gradientTransform="matrix(0.85, -0.53, -0.53, -0.85, 249.45, 301.03)" xlink:href="#linear-gradient-2"></linearGradient><linearGradient id="linear-gradient-12" x1="-37.7" y1="49.32" x2="-35.06" y2="53.89" gradientTransform="matrix(0.72, -0.7, -0.7, -0.72, 159.96, 144.63)" xlink:href="#linear-gradient-2"></linearGradient><clipPath id="clip-path-7"><polygon class="cls-1" points="48.61 73.34 94.71 28.45 68.21 5.45 22.01 50.24 48.61 73.34"></polygon></clipPath><clipPath id="clip-path-8"><polygon class="cls-1" points="48.51 71.64 94.61 26.84 68.11 3.75 21.91 48.65 48.51 71.64"></polygon></clipPath><clipPath id="clip-path-9"><polygon class="cls-1" points="48.21 71.84 92.51 28.84 65.91 5.75 21.61 48.74 48.21 71.84"></polygon></clipPath><linearGradient id="linear-gradient-13" x1="32.17" y1="207.56" x2="55.57" y2="207.56" gradientTransform="matrix(1, 0, 0, -1, 0, 266.4)" gradientUnits="userSpaceOnUse"><stop offset="0" stop-color="#fff" stop-opacity="0"></stop><stop offset="0.46" stop-color="#fff"></stop></linearGradient></defs><g class="cls-2"><g class="cls-3"><path class="cls-4" d="M209.61,256.64a.76.76,0,0,0-.4-.2l-146.9-75.6a14.57,14.57,0,0,0-7.1-1.4,13.56,13.56,0,0,0-6.7,1.9L14,203.84c-3.4,2.2-3.2,5.7.4,7.8a.76.76,0,0,0,.4.2l146.9,75.6-.2.1.2-.1c4,2.1,10.2,1.9,13.8-.5l34.5-22.5c3.4-2.3,3.2-5.7-.4-7.8"></path><path class="cls-5" d="M14.31,211.54c-3.6-2.1-3.8-5.5-.4-7.8l34.5-22.5a13.56,13.56,0,0,1,6.7-1.9,14.81,14.81,0,0,1,7.1,1.4l146.9,75.6c.1.1.3.1.4.2,3.6,2.1,3.9,5.5.4,7.8l-34.5,22.5c-3.6,2.3-9.8,2.5-13.8.5l-.2.1.2-.1-146.9-75.6a.52.52,0,0,0-.4-.2m195.6,44.9a.76.76,0,0,0-.4-.2l-147-75.7a14.67,14.67,0,0,0-7.4-1.5,14.12,14.12,0,0,0-7.1,2l-34.5,22.5c-3.6,2.4-3.4,6,.5,8.2a.76.76,0,0,0,.4.2l146.9,75.6c4.2,2.2,10.7,2,14.5-.5l34.5-22.5c3.7-2.3,3.4-5.9-.4-8.1"></path></g></g><g class="cls-2"><g class="cls-6"><path class="cls-4" d="M209.51,254.34a.76.76,0,0,0-.4-.2l-146.9-75.6a14.81,14.81,0,0,0-7.1-1.4,13.56,13.56,0,0,0-6.7,1.9l-34.5,22.5c-3.4,2.2-3.2,5.7.4,7.7a.76.76,0,0,0,.5.2L161.71,285l-.2.1.2-.1a14.81,14.81,0,0,0,7.1,1.4,13.56,13.56,0,0,0,6.7-1.9L210,262c1.7-1.1,2.6-2.6,2.4-4.1a5.44,5.44,0,0,0-2.9-3.6"></path><path class="cls-5" d="M14.31,209.24c-3.6-2.1-3.8-5.5-.4-7.7L48.41,179a13.56,13.56,0,0,1,6.7-1.9,14.81,14.81,0,0,1,7.1,1.4l146.9,75.6c.1.1.3.1.4.2,1.7,1,2.7,2.3,2.8,3.7s-.7,3-2.4,4.1l-34.5,22.5a13.56,13.56,0,0,1-6.7,1.9,14.81,14.81,0,0,1-7.1-1.4l-.2.1.2-.1-146.9-75.6c-.1-.1-.3-.2-.4-.3m195.6,44.9a.76.76,0,0,0-.4-.2l-147-75.6c-4.3-2.2-10.8-2-14.5.5l-34.5,22.5c-3.6,2.4-3.4,6,.4,8.2a.76.76,0,0,0,.4.2l146.9,75.6a14.67,14.67,0,0,0,7.4,1.5,14.12,14.12,0,0,0,7.1-2l34.5-22.5c1.8-1.2,2.7-2.7,2.6-4.3s-1.2-2.8-2.9-3.9"></path></g></g><g class="cls-2"><g class="cls-7"><path class="cls-8" d="M52.41,203.44h0a2.56,2.56,0,0,0-2.9.3,1.17,1.17,0,0,0,.2,2h0a2.77,2.77,0,0,0,2.9-.3h0a1.11,1.11,0,0,0-.2-2M60,198h0a3.24,3.24,0,0,0-3.3.3,1.36,1.36,0,0,0,.2,2.3h0a3.06,3.06,0,0,0,3.2-.3h0c.9-.8.8-1.8-.1-2.3m5.8,3.2h0a2.88,2.88,0,0,0-2.7.1l3.1,1.7c.5-.6.3-1.3-.4-1.8m-12.5,1.3h0a2.13,2.13,0,0,1,1.1,1.4l.4-.4,1.3.7-4.4,3.9-1.3-.7.4-.4a3.46,3.46,0,0,1-2.1-.5l-.1-.1a2,2,0,0,1-.3-3.5,5,5,0,0,1,5-.4h0m6.4,9h0c.7.4,1.2.4,1.5.2s.2-.3-.3-.7l-1-.9c-.9-.8-1-1.5-.4-2a3.15,3.15,0,0,1,3.7.1h.1c1.5.9,1.7,1.8.8,2.6l-1.3-.7c.3-.5.1-.9-.5-1.2h-.1c-.6-.3-1-.4-1.3-.1s-.1.4.4.8l.9.8c.8.8.9,1.4.3,2a3.44,3.44,0,0,1-3.8,0h-.1c-1.5-.9-1.7-1.9-1-2.8l1.3.7c-.1.4.2.8.8,1.2m-4-6.1,1-.9,1,.6,1.2-1.1,1.3.7-1.2,1.1,1.5.8-1,.9-1.5-.8-2.1,1.8c-.2.2-.2.4.1.6h0l1,.5-1,.9-1.4-.8h0c-.8-.5-.9-1.2-.3-1.7l2.3-2.1-.9-.5m-15-3.5,5.9-5.2,4.9,2.7-1,.9-3.6-2-1.4,1.3,3.5,1.9-1,.9-3.5-1.9-1.5,1.3,3.6,2-1,.9-4.9-2.8m21.4,2.7c-1.5-.9-1.7-2.3-.4-3.5h0a4.42,4.42,0,0,1,4.8-.5h0c1.4.8,1.5,2.3.2,3.4l-.3.2-4.1-2.3a1.25,1.25,0,0,0,.4,2h0a3.61,3.61,0,0,0,2.1.3l.3.8a4.45,4.45,0,0,1-3-.4h0m9.7-1,.4.2-.8.7-.4-.2a2,2,0,0,0-2.2.3l-2.5,2.2-1-.6,4.3-3.8,1,.6-.5.5a2,2,0,0,1,1.7.1h0M50.61,197h0a2.89,2.89,0,0,0,3.3-.4l3.7-3.2,1,.6-5.9,5.2-1-.6.6-.5a5.08,5.08,0,0,1-2.5-.4h0a2,2,0,0,1-.3-3.5l3.7-3.3,1.1.6-3.7,3.2c-1,.8-1,1.8,0,2.3m3,2.7,5.9-5.2,1,.6-2.2,1.9a4.51,4.51,0,0,1,2.4.4l.1.1a2,2,0,0,1,.3,3.5,4.4,4.4,0,0,1-4.9.4h0a1.82,1.82,0,0,1-1.1-1.6l-.5.5-1-.6m16.9-9.1c-.1,0-.1-.1-.2-.1-8.8-4.9-22-3.5-29.4,3.1-3.6,3.2-5.4,7.1-4.9,11.1s2.9,7.3,7,9.7a.35.35,0,0,1,.2.1,25.41,25.41,0,0,0,15.2,2.8,25.43,25.43,0,0,0,14.2-5.9c3.6-3.2,5.4-7.1,4.9-11.1-.3-3.9-2.8-7.3-7-9.7"></path><path class="cls-5" d="M43,214.34c-4.1-2.4-6.6-5.8-7-9.7s1.3-7.9,4.9-11.1c7.5-6.6,20.7-8,29.4-3.1.1,0,.1.1.2.1,4.1,2.4,6.6,5.8,7,9.7s-1.3,7.9-4.9,11.1a25.74,25.74,0,0,1-14.2,5.9,25.41,25.41,0,0,1-15.2-2.8c-.1,0-.1-.1-.2-.1m27.9-24c-.1,0-.1-.1-.2-.1-9-5-22.5-3.6-30.1,3.1-3.7,3.3-5.5,7.3-5,11.3s3,7.5,7.2,9.9a.35.35,0,0,1,.2.1,27.55,27.55,0,0,0,15.6,2.9,26.07,26.07,0,0,0,14.6-6c3.7-3.3,5.5-7.3,5-11.3s-3.1-7.4-7.3-9.9"></path><path class="cls-4" d="M63.11,201.34a2.68,2.68,0,0,1,2.6-.1h0a1.15,1.15,0,0,1,.4,1.8l-3-1.7m3.4-.7h0a4.59,4.59,0,0,0-4.9.5h0c-1.3,1.1-1.1,2.6.4,3.5h0a4.57,4.57,0,0,0,3.1.4l-.3-.8a2.58,2.58,0,0,1-2.1-.3h0a1.25,1.25,0,0,1-.4-2l4.1,2.3.3-.2c1.4-1.2,1.3-2.6-.2-3.4m5.7,3.2-.4-.2h0a2.46,2.46,0,0,0-1.7-.2l.5-.5-1-.6-4.3,3.8,1,.6,2.5-2.2a1.86,1.86,0,0,1,2.2-.3l.4.2.8-.6m-13.6-9.9-1-.6-3.7,3.2a2.89,2.89,0,0,1-3.3.4h0c-1-.5-1-1.5-.1-2.3l3.7-3.2-1.1-.6-3.7,3.3c-1.4,1.2-1.2,2.7.3,3.5h0a3.54,3.54,0,0,0,2.5.4l-.6.5,1,.6,6-5.2m-1.7,6.7a1.32,1.32,0,0,1-.2-2.3,3.11,3.11,0,0,1,3.2-.4h0a1.32,1.32,0,0,1,.2,2.3h0a2.7,2.7,0,0,1-3.2.4h0m3.6-5.6-1-.6-5.9,5.2,1,.6.5-.5a2.49,2.49,0,0,0,1.1,1.6h0a4.81,4.81,0,0,0,4.9-.4,2,2,0,0,0-.3-3.5l-.1-.1a3.85,3.85,0,0,0-2.4-.4l2.2-1.9"></path><path class="cls-9" d="M49.71,205.84a1.18,1.18,0,0,1-.2-2,2.56,2.56,0,0,1,2.9-.3h0a1.18,1.18,0,0,1,.2,2h0a2.75,2.75,0,0,1-2.9.3h0m3.6-3.3h0a4.55,4.55,0,0,0-5,.4,2,2,0,0,0,.3,3.5l.1.1a5,5,0,0,0,2.1.5l-.4.4,1.3.7,4.4-3.9-1.3-.7-.4.4a2.13,2.13,0,0,0-1.1-1.4m10.1,5.7h0c-1.4-.8-2.8-.9-3.8-.1-.6.6-.5,1.2.4,2l1,.9c.4.3.4.5.3.7a1.43,1.43,0,0,1-1.4-.1h-.1c-.7-.4-.9-.7-.6-1.3l-1.3-.7c-.7.9-.5,1.9,1,2.8H59c1.5.8,2.9.8,3.8,0,.6-.5.5-1.2-.3-2l-.9-.8c-.5-.4-.6-.7-.4-.8s.7-.2,1.3.1h.1c.6.3.8.7.5,1.2l1.3.7c.6-.8.5-1.8-1-2.6m-3.2-3.5-1.3-.7-1.2,1.1-1-.6-1,.9,1,.6-2.3,2.1c-.6.5-.6,1.2.3,1.7h0l1.4.8,1-.9-1-.5h0c-.3-.2-.3-.4-.1-.6l2.1-1.8,1.5.8,1-.9-1.5-.8,1.1-1.2m-8.7-5.3-4.9-2.7-5.9,5.2,4.9,2.7,1-.9-3.6-2,1.5-1.3,3.5,1.9,1-.9-3.5-1.9,1.4-1.3,3.6,2,1-.8"></path></g></g><g class="cls-2"><g class="cls-10"><path class="cls-11" d="M187.11,253.44c-.1-.1-.2-.1-.3-.2l-79.9-41.6c-6.4-3.3-16.8-1.9-23.3,3.2-6.4,4.9-6.7,11.6-.6,15,.1.1.2.1.3.2l79.9,41.6c3,1.6,7.2,2.1,11.6,1.5a25,25,0,0,0,11.7-4.7c6.5-4.9,6.6-11.6.6-15"></path><path class="cls-12" d="M83,229.84c-6-3.4-5.8-10.1.6-15,6.5-5.1,16.9-6.5,23.3-3.2l79.9,41.6c.1.1.2.1.3.2,6,3.4,5.8,10.1-.6,15a25,25,0,0,1-11.7,4.7,20.61,20.61,0,0,1-11.6-1.5L83.31,230c-.1-.1-.2-.1-.3-.2M187.61,253c-.1-.1-.2-.1-.4-.2l-79.8-41.6c-3.2-1.7-7.4-2.2-12.1-1.6a26,26,0,0,0-12.2,4.9c-3.2,2.6-5.1,5.6-5.1,8.6s1.6,5.4,4.6,7c.1.1.2.1.3.2l79.9,41.6c3.2,1.7,7.4,2.2,12.1,1.6a26,26,0,0,0,12.2-4.9c6.6-5.1,6.8-12.1.5-15.6"></path></g></g><g class="cls-2"><g class="cls-13"><path class="cls-14" d="M186.91,251.84c-.1-.1-.2-.1-.3-.2L106.81,210c-6.4-3.3-16.8-1.8-23.3,3.2s-6.7,11.6-.6,15c.1.1.2.1.3.2l79.9,41.6c3,1.6,7.2,2.1,11.6,1.5a25,25,0,0,0,11.7-4.7c3.1-2.4,4.8-5.3,4.9-8.2s-1.6-5.2-4.4-6.8"></path><path class="cls-12" d="M82.81,228.24c-6.1-3.4-5.9-10,.5-15s16.9-6.5,23.3-3.2l79.9,41.6c.1.1.2.1.3.2,2.9,1.6,4.5,4,4.4,6.8s-1.8,5.8-4.9,8.2a25,25,0,0,1-11.7,4.7A20.61,20.61,0,0,1,163,270l-79.9-41.6c-.1-.1-.2-.1-.3-.2m104.5,23.2c-.1-.1-.1-.1-.3-.1l-79.9-41.7c-3.2-1.7-7.4-2.2-12.1-1.6a26,26,0,0,0-12.2,4.9c-3.2,2.6-5.1,5.6-5.1,8.6s1.6,5.4,4.6,7c.1.1.2.1.3.2l79.9,41.6c3.2,1.7,7.4,2.2,12.1,1.6a26,26,0,0,0,12.2-4.9c3.2-2.6,5.1-5.6,5.1-8.6,0-2.8-1.6-5.3-4.6-7"></path></g></g><g class="cls-2"><g class="cls-15"><path class="cls-4" d="M106.71,225.84l4.8-1.5-2.2,2.9-2.6-1.4m7.5-2-2.2-1.1-11.6,3.4,2.1,1.1,2.2-.7,3.7,1.9-1,1.3,2.2,1.1,4.6-7"></path><path class="cls-16" d="M107.51,225.94l2.9-.9-1.3,1.8-1.6-.9m4-1.6-4.8,1.5,2.7,1.4,2.1-2.9m-11.1,1.8,11.6-3.4,2.2,1.1-4.5,7-2.2-1.1,1-1.3-3.7-1.9-2.2.7-2.2-1.1m14.4-2.4-2.7-1.4L99.61,226l2.9,1.5,2.2-.7,3.2,1.6-1,1.3,3,1.5,4.9-7.5"></path><path class="cls-4" d="M124,228.64a3.13,3.13,0,0,0-1-.5,9.64,9.64,0,0,0-4.8-1,9.81,9.81,0,0,0-4.3,1.2,2.84,2.84,0,0,0-1.6,2.6,3.3,3.3,0,0,0,1.9,2.4c.1.1.2.1.3.2a11.79,11.79,0,0,0,2.5,1l1.6-1a10.06,10.06,0,0,1-2.2-.8c-.1,0-.2-.1-.3-.1a2.24,2.24,0,0,1-1.2-1.4c-.1-.6.3-1.2,1.1-1.7a5.19,5.19,0,0,1,5.5-.2l.6.3a7.63,7.63,0,0,1,1.1.8l1.7-.9a2,2,0,0,0-.9-.9"></path><path class="cls-16" d="M114.21,233.24a3.57,3.57,0,0,1-1.9-2.4,2.94,2.94,0,0,1,1.6-2.6,8.08,8.08,0,0,1,4.3-1.2,9.64,9.64,0,0,1,4.8,1c.3.2.7.3,1,.5a4.31,4.31,0,0,1,1,.7l-1.7.9a7.63,7.63,0,0,0-1.1-.8l-.6-.3a5.4,5.4,0,0,0-5.5.2c-.8.5-1.2,1.1-1.1,1.7a2.24,2.24,0,0,0,1.2,1.4.37.37,0,0,0,.3.1,8.52,8.52,0,0,0,2.2.8l-1.6,1a11.79,11.79,0,0,1-2.5-1c-.2.2-.3.1-.4,0m10.1-4.8a4.67,4.67,0,0,0-1-.5,10,10,0,0,0-5.2-1.1,9.23,9.23,0,0,0-4.6,1.3,3.14,3.14,0,0,0-1.7,2.8,3.57,3.57,0,0,0,2,2.6c.1.1.2.1.4.2a9,9,0,0,0,2.8,1.1h.2l2.2-1.5-.3-.1a7.19,7.19,0,0,1-2.4-.9c-.1,0-.1-.1-.2-.1a2,2,0,0,1-1.1-1.2q-.15-.75.9-1.5a5,5,0,0,1,4.9-.2l.6.3a4.7,4.7,0,0,1,1.2.9l.2.2,2.5-1.3-.1-.1a14.63,14.63,0,0,0-1.3-.9"></path><polyline class="cls-4" points="134.51 234.15 126.61 230.15 125.11 231.15 128.01 232.65 121.61 236.84 123.61 237.84 130.01 233.65 133.01 235.15 134.51 234.15"></polyline><path class="cls-16" d="M125.11,231.14l1.5-1,7.9,4-1.5,1-3-1.5-6.4,4.2-2-1,6.4-4.2-2.9-1.5m10.1,3-8.6-4.4-2.2,1.4,2.9,1.5-6.4,4.2,2.7,1.4L130,234l3,1.5,2.2-1.4"></path><polyline class="cls-4" points="137.91 235.84 135.91 234.84 128.01 240.04 129.91 241.04 137.91 235.84"></polyline><path class="cls-16" d="M128,240l7.9-5.2,2,1L130,241l-2-1m10.6-4.2-2.7-1.4-8.6,5.7,2.7,1.4,8.6-5.7"></path><polyline class="cls-4" points="148.41 241.25 146.41 240.15 137.61 242.94 141.41 237.65 139.21 236.54 134.71 243.44 136.91 244.65 148.41 241.25"></polyline><path class="cls-16" d="M137.61,242.94l8.8-2.7,2,1-11.6,3.4-2.2-1.1,4.5-7,2.2,1.1-3.7,5.3m11.7-1.7-2.9-1.5-7.9,2.4,3.4-4.7-3-1.5-4.9,7.6,2.7,1.4,12.6-3.7"></path><path class="cls-4" d="M146.21,245.84l4.8-1.5-2.2,2.9-2.6-1.4m7.5-2-2.2-1.1-11.6,3.4,2.1,1.1,2.2-.7,3.7,1.9-1,1.3,2.2,1.1,4.6-7"></path><path class="cls-16" d="M147,245.94l3-.9-1.3,1.8-1.7-.9m4-1.6-4.8,1.5,2.7,1.4,2.1-2.9m-11.1,1.8,11.6-3.4,2.2,1.1-4.5,7-2.2-1.1,1-1.3-3.7-1.9-2.2.7-2.2-1.1m14.3-2.4-2.7-1.4L139,246l2.9,1.5,2.2-.7,3.2,1.6-1,1.3,3,1.5,4.9-7.5"></path><polyline class="cls-4" points="164.51 249.34 156.61 245.34 155.01 246.34 158.01 247.84 151.61 252.04 153.61 253.04 160.01 248.84 162.91 250.34 164.51 249.34"></polyline><path class="cls-16" d="M155,246.34l1.5-1,7.9,4-1.5,1-2.9-1.5-6.4,4.2-2-1,6.4-4.2-3-1.5m10.2,3-8.6-4.4-2.2,1.4,3,1.5L151,252l2.7,1.4,6.4-4.2,2.9,1.5,2.2-1.4"></path><polyline class="cls-4" points="172.21 253.25 165.81 250.04 157.91 255.25 164.31 258.55 165.81 257.44 161.41 255.25 163.21 254.15 166.71 255.94 168.11 254.94 164.61 253.25 166.31 252.04 170.71 254.25 172.21 253.25"></polyline><path class="cls-16" d="M157.91,255.24l7.9-5.2,6.3,3.2-1.5,1-4.4-2.2-1.7,1.1,3.5,1.8-1.4.9-3.5-1.8-1.7,1.1,4.4,2.2-1.5,1-6.4-3.1m15-2-7.1-3.6-8.6,5.7,7.1,3.6,2.2-1.4-4.4-2.2,1.1-.7,3.5,1.8,2.1-1.4-3.5-1.8,1.1-.7,4.4,2.2,2.1-1.5"></path></g></g><path class="cls-17" d="M221,104.94l.4.5a1.43,1.43,0,0,0,2,.2l36.5-29.2a1.43,1.43,0,0,0,.2-2l-.4-.5a1.43,1.43,0,0,0-2-.2l-36.5,29.2A1.4,1.4,0,0,0,221,104.94Z"></path><path class="cls-5" d="M222.52,106.22a1.66,1.66,0,0,1-1.3-.62l-.42-.51a1.91,1.91,0,0,1-.34-1.41,1.43,1.43,0,0,1,.61-.94l36.48-29.19a1.68,1.68,0,0,1,2.35.23l.4.51a1.68,1.68,0,0,1-.23,2.35l-36.51,29.2A1.63,1.63,0,0,1,222.52,106.22Zm-1.31-1.43.39.5a1.17,1.17,0,0,0,.8.42,1.14,1.14,0,0,0,.85-.26l36.5-29.2a1.17,1.17,0,0,0,.42-.79,1.19,1.19,0,0,0-.25-.86l-.41-.5a1.16,1.16,0,0,0-1.64-.16l-36.51,29.2a.92.92,0,0,0-.4.63A1.33,1.33,0,0,0,221.21,104.79Z"></path><circle class="cls-18" cx="261.11" cy="73.44" r="5.8"></circle><path class="cls-5" d="M261.11,79.49a6,6,0,1,1,6.05-6A6.05,6.05,0,0,1,261.11,79.49Zm0-11.6a5.55,5.55,0,1,0,5.55,5.55A5.56,5.56,0,0,0,261.11,67.89Z"></path><circle class="cls-19" cx="259.71" cy="71.94" r="2.6"></circle><path class="cls-17" d="M323.61,59.34l-.1-.6a1.44,1.44,0,0,0-1.7-1.1l-56.3,12.8a1.44,1.44,0,0,0-1.1,1.7l.1.6a1.44,1.44,0,0,0,1.7,1.1L322.51,61A1.35,1.35,0,0,0,323.61,59.34Z"></path><path class="cls-5" d="M265.89,74.14a1.55,1.55,0,0,1-.79-.22,1.79,1.79,0,0,1-.83-1.11l-.11-.62a1.53,1.53,0,0,1,.17-1.15,1.8,1.8,0,0,1,1.12-.84l56.3-12.8a1.46,1.46,0,0,1,1.16.17,1.78,1.78,0,0,1,.84,1.11l.1.61a1.65,1.65,0,0,1-.23,1.34,1.52,1.52,0,0,1-1.08.66l-56.28,12.8A1.5,1.5,0,0,1,265.89,74.14Zm56.24-16.29a.69.69,0,0,0-.25,0l-56.32,12.8a1.3,1.3,0,0,0-.8.6,1.05,1.05,0,0,0-.11.79l.1.62a1.28,1.28,0,0,0,.6.79,1,1,0,0,0,.79.11l56.31-12.8a1,1,0,0,0,.75-.45,1.11,1.11,0,0,0,.16-.94v0l-.1-.6a1.28,1.28,0,0,0-.6-.79A1,1,0,0,0,322.13,57.85Z"></path><path class="cls-4" d="M305.21,74.54a7.35,7.35,0,0,1-1.2.9,4.2,4.2,0,0,1-5.1-.2c-3.3-2.7-8.5-8.1-7.1-15.6a4.41,4.41,0,0,1,2-3l3.6-2.5Z"></path><path class="cls-5" d="M301.56,76.46a4.29,4.29,0,0,1-2.82-1c-4-3.28-8.51-8.69-7.18-15.83a4.74,4.74,0,0,1,2.11-3.17l3.86-2.67,8,20.85-.12.11a7,7,0,0,1-1.24.94A4.56,4.56,0,0,1,301.56,76.46Zm-4.27-21.93L294,56.85a4.25,4.25,0,0,0-1.9,2.84c-1.28,6.9,3.11,12.16,7,15.36a3.94,3.94,0,0,0,4.8.19,7.86,7.86,0,0,0,1-.76Z"></path><path class="cls-4" d="M331.91,51.44c2.6-1,13.9-.8,13.9-.8s.1-.1.2-.1a5.08,5.08,0,0,0-.8-8.7c-2.5-1.2-6.7-2.3-12.7-.8-10.6,2.7-12.5,1.8-12.5,1.8a7,7,0,0,1-4.2-2.5.19.19,0,0,1,0-.3c.7-1.1,2.8-8.3-.6-13-6-8.3-7.4-.2-7.4-.2l-.2,6.8a10.91,10.91,0,0,1-2.8,7.1c-3.2,3.6-7.7,9.6-8.5,11.4a21.22,21.22,0,0,0-1.4,8.2,16.46,16.46,0,0,0,5.8,12.5c2.6,2.2,6,4.4,9.3,4.1,6.6-.5,13.9-3.9,13.9-3.9s4.6-2.3,14.2-1.6"></path><path class="cls-5" d="M309.4,77.22c-2.59,0-5.57-1.4-8.85-4.18a16.67,16.67,0,0,1-5.89-12.7,21.05,21.05,0,0,1,1.42-8.3c.79-1.77,5.26-7.77,8.54-11.46a10.67,10.67,0,0,0,2.74-6.94l.2-6.8c0-.17.58-3.28,2.53-3.73,1.47-.34,3.26.93,5.32,3.79,3.51,4.85,1.32,12.16.61,13.28h0a6.76,6.76,0,0,0,4,2.43l.08,0c.08,0,2.1.79,12.34-1.82,6.06-1.51,10.34-.39,12.87.82a5.19,5.19,0,0,1,3,4.29,5.26,5.26,0,0,1-2.18,4.84l-.09,0a.34.34,0,0,1-.25.1c-.12,0-11.29-.18-13.81.79l-.18-.47c2.55-1,13-.83,13.94-.82a.35.35,0,0,1,.15-.08A4.77,4.77,0,0,0,347.83,46a4.69,4.69,0,0,0-2.73-3.89c-2.45-1.17-6.61-2.26-12.53-.78-9.8,2.49-12.25,1.93-12.62,1.8a7.36,7.36,0,0,1-4.34-2.59.42.42,0,0,1,0-.63c.56-.9,2.72-8-.63-12.68-1.9-2.64-3.56-3.88-4.79-3.6-1.63.38-2.15,3.27-2.16,3.3l-.19,6.76A11.13,11.13,0,0,1,305,40.92c-3.26,3.66-7.68,9.59-8.45,11.33a20.42,20.42,0,0,0-1.38,8.1,16.19,16.19,0,0,0,5.71,12.31c3.45,2.91,6.51,4.27,9.12,4,6.48-.5,13.74-3.85,13.81-3.88s4.77-2.32,14.33-1.62l0,.49c-9.41-.68-14,1.56-14.07,1.58s-7.42,3.43-14,3.92Q309.72,77.22,309.4,77.22Zm6.36-37.12.21.13s0,0,0-.06Z"></path><path class="cls-4" d="M307.61,61.54s6.3-2.5,6.4-10.7"></path><path class="cls-5" d="M307.7,61.78l-.18-.47c.06,0,6.14-2.54,6.24-10.47h.5A12.24,12.24,0,0,1,311,59.44,10.39,10.39,0,0,1,307.7,61.78Z"></path><g id="endowment_copy" data-name="endowment copy"><path class="cls-8" d="M274.51,197.14a12.92,12.92,0,0,1-.4,10.7l7.8,4.2a2.7,2.7,0,0,1,.8.7.1.1,0,0,0,.1.1,1.82,1.82,0,0,1-.8,2.5l-25.4,14a4.24,4.24,0,0,1-3.8,0l-9.5-5.2a74.49,74.49,0,0,1-21.6-.4c-5.3,4.4-13.6,10.6-16.8,7.9-4.1-3.5-1.4-11.4-.5-13.5l-.2-.1a43.85,43.85,0,0,1-6.3-4.3,153.14,153.14,0,0,1-38.4-8.3c-35.7-13.1-50.3-35.9-32.4-51s61.3-16.7,97.1-3.6c24.8,9.1,39.4,22.9,40,35.5l1.2.8c1.8-.1,20.3-.9,22.6,1.3C290.11,190.44,278.11,195.64,274.51,197.14Z"></path><path class="cls-5" d="M206.94,232.56a3.28,3.28,0,0,1-2.19-.72c-4.36-3.72-1.26-12.08-.66-13.58a43.82,43.82,0,0,1-6.28-4.27,153.5,153.5,0,0,1-38.39-8.31c-22.79-8.36-37.72-20.87-39.94-33.46-1.17-6.65,1.41-12.86,7.47-18,17.83-15.12,61.5-16.76,97.34-3.64,24.07,8.83,39.44,22.46,40.16,35.6l1,.68c1.42-.07,20.26-1,22.7,1.37a1,1,0,0,1,.3.91c-.41,2.25-8.62,6-13.65,8.11a13.17,13.17,0,0,1-.39,10.46l7.59,4.09a2.81,2.81,0,0,1,.88.77h0l.08.12a2.08,2.08,0,0,1,.13,1.66,2,2,0,0,1-1.05,1.19l-25.38,14a4.44,4.44,0,0,1-4,0l-9.44-5.17a74.93,74.93,0,0,1-21.48-.39C214.87,229.73,210,232.56,206.94,232.56Zm-33.12-90.32c-19.56,0-36.89,4.2-46.55,12.4-5.91,5-8.43,11-7.3,17.49,2.19,12.41,17,24.78,39.62,33.08a153.44,153.44,0,0,0,38.34,8.29H198l.06.05a43.64,43.64,0,0,0,6.27,4.28l.4.2-.09.21c-.17.39-4,9.45.43,13.21,2.29,1.94,7.83-.72,16.48-7.9l.09-.07.11,0a74.91,74.91,0,0,0,21.53.4h.08l.07,0,9.5,5.2a4,4,0,0,0,3.57,0l25.39-14a1.51,1.51,0,0,0,.8-.91,1.57,1.57,0,0,0-.06-1.17.37.37,0,0,1-.16-.21,2.55,2.55,0,0,0-.7-.59l-8-4.3.1-.22a12.65,12.65,0,0,0,.4-10.49l-.1-.23.23-.1c6.36-2.64,13.26-6.09,13.58-7.83a.44.44,0,0,0-.15-.45c-2-1.94-18.2-1.47-22.42-1.24h-.08l-1.38-.92v-.12c-.62-13-15.88-26.49-39.84-35.28A149.66,149.66,0,0,0,173.82,142.24Z"></path><g id="Layer_1-2" data-name="Layer 1"><path class="cls-20" d="M210.81,167.24v31.5c0,4.1-6.7,7.5-15,7.5s-15-3.3-15-7.5v-31.9s9.5,4.5,15,4.5S210.81,167.24,210.81,167.24Z"></path><path class="cls-18" d="M210.81,198.74c0,3.1-3.8,5.8-9.3,6.9-1.8.4-3.3-4.9-6-11.1s-14.8-9.8-14.8-13.9V166l30.1,4.9Z"></path><path class="cls-5" d="M201.31,205.92c-1.44,0-2.58-2.82-4.25-7-.53-1.31-1.12-2.79-1.78-4.31-1.35-3.09-5.16-5.57-8.52-7.75s-6.3-4.1-6.3-6.25V165.75l.29.05,30.31,4.93v28c0,3.19-3.73,6-9.5,7.15ZM181,166.34v14.3c0,1.88,2.95,3.79,6.07,5.83,3.42,2.22,7.3,4.74,8.71,8,.66,1.51,1.26,3,1.78,4.31,1.56,3.85,2.78,6.88,3.93,6.64,5.45-1.09,9.11-3.76,9.11-6.66V171.16Z"></path><path class="cls-5" d="M195.81,206.49c-8.55,0-15.25-3.4-15.25-7.75V166.45l.35.17c.1,0,9.52,4.48,14.9,4.48s14.8-4,14.9-4.09l.35-.15v31.88C211.06,203,204.22,206.49,195.81,206.49Zm-14.75-39.25v31.5c0,4,6.61,7.25,14.75,7.25s14.75-3.25,14.75-7.25V167.62c-1.79.75-9.79,4-14.75,4S182.86,168.06,181.06,167.24Z"></path><path class="cls-21" d="M262.81,103.74l26-17.8s-11.3-5-22.3-2.5-21.4,10.8-21.4,10.8"></path><path class="cls-5" d="M263,104l-.28-.41L288.29,86c-2.15-.86-12.12-4.49-21.73-2.31-10.81,2.46-21.19,10.67-21.3,10.75l-.31-.39c.11-.08,10.57-8.37,21.5-10.85s22.34,2.47,22.46,2.52l.41.18Z"></path><path class="cls-18" d="M276,122.74c.2.1,13.6-36.2,13.2-36.6-1.8-1.8-12.3.3-17.8,2.4-9.3,3.5-13.7,9.4-13.7,9.4"></path><path class="cls-5" d="M276.1,123.06l-.2-.09.11-.23-.2-.14c.84-1.38,12.77-34.38,13.15-36.35-1.87-1.54-12,.43-17.46,2.53a32.16,32.16,0,0,0-13.59,9.31l-.4-.29a32.6,32.6,0,0,1,13.81-9.49c5.07-1.94,16.05-4.35,18.06-2.34.17.16.39.38-6.21,18.46-2.72,7.47-6.66,18-6.95,18.45Z"></path><path class="cls-18" d="M254,147v31.5c0,4.1-6.7,7.5-15,7.5s-15-3.3-15-7.5v-31.9s9.5,4.5,15,4.5S254,147,254,147Z"></path><path class="cls-5" d="M239,186.3c-8.55,0-15.25-3.41-15.25-7.75v-32.3l.35.17c.1,0,9.52,4.47,14.9,4.47s14.8-4,14.9-4.07l.35-.16v31.89C254.26,182.82,247.42,186.3,239,186.3ZM224.26,147v31.51c0,4,6.61,7.25,14.75,7.25s14.75-3.26,14.75-7.25V147.43c-1.79.76-9.79,4-14.76,4S226.06,147.86,224.26,147Z"></path><path class="cls-22" d="M164.51,143.94v31.6c0,4.1-6.7,7.5-15,7.5s-15-3.3-15-7.5v-31.9s9.5,4.5,15,4.5S164.51,143.94,164.51,143.94Z"></path><path class="cls-18" d="M164.51,175.54c0,3.1-3.8,5.8-9.3,6.9-1.8.4-3.3-4.9-6-11.1s-14.8-9.8-14.8-13.9v-14.6l30,4.9Z"></path><path class="cls-5" d="M155,182.72c-1.44,0-2.58-2.82-4.25-7-.53-1.31-1.12-2.79-1.78-4.31-1.35-3.09-5.16-5.57-8.52-7.76s-6.3-4.09-6.3-6.24V142.55l.29,0,30.21,4.93.1,28c0,3.18-3.73,6-9.5,7.14Zm-20.35-39.58v14.3c0,1.88,3,3.8,6.07,5.83,3.42,2.22,7.3,4.74,8.71,8,.66,1.51,1.26,3,1.78,4.31,1.55,3.85,2.78,6.88,3.93,6.64,5.45-1.09,9.11-3.76,9.11-6.65l-.1-27.59Z"></path><path class="cls-5" d="M149.51,183.3c-8.55,0-15.25-3.41-15.25-7.75v-32.3l.35.17c.1,0,9.52,4.47,14.9,4.47s14.8-4.13,14.9-4.17l.35-.16v32C164.76,179.82,157.92,183.3,149.51,183.3ZM134.76,144v31.51c0,4,6.61,7.25,14.75,7.25s14.75-3.26,14.75-7.25V144.33c-1.79.76-9.8,4.06-14.75,4.06S136.56,144.86,134.76,144Z"></path><path class="cls-23" d="M288.31,135.54a46.36,46.36,0,0,1-1.5,11.7,45.6,45.6,0,0,1-55.7,32.3,58.5,58.5,0,0,1-20.3,3.4c-34.4,0-88.2-18.2-91.1-64.8-1.3-21.1,7.1-41.3,22.1-53.2,18-14.2,43.4-19.3,76.9-3.5a104.22,104.22,0,0,1,35.6,27.9C274.21,94.44,288.31,114,288.31,135.54Z"></path><path class="cls-5" d="M211.62,183.2h-.82c-19.64,0-41.13-5.59-57.48-14.95-14.54-8.34-32.23-23.79-33.86-50.08-1.3-21.06,7.2-41.52,22.19-53.41,20.72-16.35,47.4-17.57,77.16-3.53a103.92,103.92,0,0,1,35.64,27.9c19.77,5.11,34.11,24.62,34.11,46.43a46.76,46.76,0,0,1-1.51,11.76,46,46,0,0,1-55.93,32.5A58.65,58.65,0,0,1,211.62,183.2ZM179.91,52A59.91,59.91,0,0,0,142,65.14c-14.86,11.79-23.29,32.09-22,53,1.62,26.07,19.17,41.4,33.61,49.67,16.28,9.33,37.68,14.89,57.24,14.89A57.94,57.94,0,0,0,231,179.31l.08,0,.07,0a45.45,45.45,0,0,0,55.4-32.12,46.65,46.65,0,0,0,1.49-11.63c0-21.61-14.22-40.94-33.81-46l-.08,0-.06-.07A103.48,103.48,0,0,0,218.6,61.67C205,55.24,192,52,179.91,52Z"></path><path class="cls-24" d="M286.31,136.84a42.33,42.33,0,0,1-66.2,35.1,48,48,0,0,0,16.4,2.9,47.73,47.73,0,0,0,47.1-53.9A53.57,53.57,0,0,1,286.31,136.84Z"></path><path class="cls-25" d="M285.21,133.84a42.26,42.26,0,0,1-1.4,10.6c-6.1,22-29.5,35.8-52.4,29.9-6.1,2.1-12.6,2.5-19.1,2.5-32.3,0-83-16.5-85.7-58.7-1.2-19.1,6.6-37.5,20.8-48.2,17-12.9,40.9-17.5,72.4-3.2A98.38,98.38,0,0,1,253.31,92C271.91,96.64,285.21,114.34,285.21,133.84Z"></path><path class="cls-26" d="M254.91,134.74h0a5.13,5.13,0,0,0-6.5-3.1h0a5,5,0,0,0-3,6.5,5.13,5.13,0,0,0,6.5,3.1,4.92,4.92,0,0,0,3-6.5Z"></path><path class="cls-5" d="M250.24,141.77a5.4,5.4,0,0,1-4.9-7.67,5.12,5.12,0,0,1,3-2.69,5.35,5.35,0,0,1,6.81,3.25h0a5.32,5.32,0,0,1-.16,4.2,5,5,0,0,1-3,2.62A5.63,5.63,0,0,1,250.24,141.77Zm-.14-10.16a5,5,0,0,0-1.61.27,4.65,4.65,0,0,0-2.7,2.43,4.83,4.83,0,0,0-.15,3.75,4.89,4.89,0,0,0,6.19,2.95,4.56,4.56,0,0,0,2.7-2.37,4.8,4.8,0,0,0,.14-3.81A4.88,4.88,0,0,0,250.1,131.61Z"></path><path class="cls-26" d="M277,121.84a3.55,3.55,0,0,0-4.9,1,5.29,5.29,0,0,0,.8,6.5,3.42,3.42,0,0,0,5.5-.5,5.29,5.29,0,0,0-.8-6.5C277.51,122.24,277.21,122,277,121.84Z"></path><path class="cls-5" d="M275.56,130.75a4.15,4.15,0,0,1-2.82-1.22,5.58,5.58,0,0,1-.85-6.82,3.92,3.92,0,0,1,2.43-1.62,3.62,3.62,0,0,1,2.83.55l0,0c.11.11.26.22.37.31a1.92,1.92,0,0,1,.23.19,5.58,5.58,0,0,1,.84,6.81,3.69,3.69,0,0,1-2.65,1.74A2.83,2.83,0,0,1,275.56,130.75Zm-.46-9.24a3.21,3.21,0,0,0-.68.07,3.39,3.39,0,0,0-2.11,1.41,5.08,5.08,0,0,0,.77,6.18,3.54,3.54,0,0,0,2.83,1.05,3.17,3.17,0,0,0,2.29-1.51,5.07,5.07,0,0,0-.77-6.19l-.18-.15a4.12,4.12,0,0,1-.4-.33A3.11,3.11,0,0,0,275.1,121.51Z"></path><path class="cls-27" d="M281.91,136.64c-3.3-1.7-7.9-1.4-13.1,1.1-10,5-18.2,16.9-18.2,26.6,0,4.6,1.8,7.9,4.8,9.5,3.3,1.8,7.6,3.6,7.6,3.6,10.1-5,29-32.7,28.6-33.4A46.75,46.75,0,0,0,281.91,136.64Z"></path><path class="cls-24" d="M262.91,177.54s-4.2-1.8-7.6-3.6c-3-1.7-4.8-4.9-4.8-9.5v-1.2c4.3,1.9,9.5,4.1,9.5,4.1C264.91,164.84,269,174.54,262.91,177.54Z"></path><path class="cls-5" d="M262.91,177.82l-.1,0s-4.25-1.82-7.62-3.6-4.93-5.2-4.93-9.73v-1.58l.35.16c3.91,1.73,8.63,3.73,9.39,4a3.57,3.57,0,0,1,3.61.24,6.53,6.53,0,0,1,2.6,5.7,5.52,5.52,0,0,1-3.19,4.76Zm-12.15-14.19v.81c0,4.34,1.61,7.55,4.67,9.29s6.79,3.25,7.47,3.54a5,5,0,0,0,2.81-4.29,6,6,0,0,0-2.37-5.25,3.06,3.06,0,0,0-3.22-.16l-.1.05-.11,0C259.86,167.55,254.94,165.47,250.76,163.63Z"></path><path class="cls-5" d="M211.62,183.2h-.82c-19.64,0-41.13-5.59-57.48-14.95-14.54-8.34-32.23-23.79-33.86-50.08-1.3-21.06,7.2-41.52,22.19-53.41,20.72-16.35,47.4-17.57,77.16-3.53a103.92,103.92,0,0,1,35.64,27.9c19.77,5.11,34.11,24.62,34.11,46.43a46.76,46.76,0,0,1-1.51,11.76,46,46,0,0,1-55.93,32.5A58.65,58.65,0,0,1,211.62,183.2ZM179.91,52A59.91,59.91,0,0,0,142,65.14c-14.86,11.79-23.29,32.09-22,53,1.62,26.07,19.17,41.4,33.61,49.67,16.28,9.33,37.68,14.89,57.24,14.89A57.94,57.94,0,0,0,231,179.31l.08,0,.07,0a45.45,45.45,0,0,0,55.4-32.12,46.65,46.65,0,0,0,1.49-11.63c0-21.61-14.22-40.94-33.81-46l-.08,0-.06-.07A103.48,103.48,0,0,0,218.6,61.67C205,55.24,192,52,179.91,52Z"></path><path class="cls-5" d="M263,177.72l-.11,0s-4.35-1.83-7.62-3.62-4.93-5.14-4.93-9.71c0-9.74,8.22-21.77,18.34-26.83,5.15-2.48,9.89-2.87,13.32-1.1h0a47.46,47.46,0,0,1,9.78,7.47.37.37,0,0,1,0,.35c-.58,1.91-18.68,28.46-28.71,33.43Zm14.14-41.89a19.41,19.41,0,0,0-8.24,2.14c-10,5-18.06,16.81-18.06,26.38,0,4.37,1.66,7.67,4.67,9.27s6.79,3.26,7.47,3.55c10-5.06,27.77-31.24,28.35-33a47.14,47.14,0,0,0-9.56-7.25h0A9.93,9.93,0,0,0,277.16,135.83Z"></path><path class="cls-18" d="M293.21,150.44c0,9.4-7.9,21-17.7,25.8-5.5,2.7-10.3,2.7-13.6.6a45.58,45.58,0,0,0,26.1-35.9C291.21,142.44,293.21,145.74,293.21,150.44Z"></path><path class="cls-24" d="M261.91,176.84c-2.6-1.7-4.1-4.7-4.1-8.9,0-9.4,7.9-21,17.7-25.8,4.9-2.4,9.3-2.7,12.5-1.2A45.37,45.37,0,0,1,261.91,176.84Z"></path><path class="cls-5" d="M267.41,178.67a9.69,9.69,0,0,1-6.37-2.14c-2.83-2.38-4-6.41-3.21-11.37a33.64,33.64,0,0,1,20.42-24.37c4.74-1.62,8.92-1.21,11.75,1.16s4,6.41,3.21,11.37a33.64,33.64,0,0,1-20.42,24.37A16.47,16.47,0,0,1,267.41,178.67Zm16.22-38.36a16.29,16.29,0,0,0-5.22.95,33.15,33.15,0,0,0-20.09,24c-.73,4.77.35,8.65,3,10.9s6.7,2.65,11.27,1.08a33.15,33.15,0,0,0,20.09-24c.73-4.77-.35-8.65-3-10.9A9.18,9.18,0,0,0,283.63,140.31Z"></path><ellipse class="cls-26" cx="269.51" cy="162.81" rx="5.6" ry="3.4" transform="translate(1.42 327.95) rotate(-62.77)"></ellipse><path class="cls-5" d="M268,168.28a2.52,2.52,0,0,1-1.12-.26c-1.79-.92-2-4-.57-6.88h0a8,8,0,0,1,2.79-3.16,3.19,3.19,0,0,1,3.13-.37c1.79.92,2.05,4,.57,6.87C271.56,166.8,269.6,168.28,268,168.28Zm-1.24-6.91c-1.35,2.63-1.19,5.41.35,6.2s3.9-.69,5.25-3.31,1.19-5.41-.35-6.2a2.69,2.69,0,0,0-2.65.35,7.45,7.45,0,0,0-2.6,3Z"></path><path class="cls-28" d="M273.51,160.74a8.17,8.17,0,0,1-4,6.8c-2,1-3.7,0-3.9-2.2a2.76,2.76,0,0,0,2.2-.3,8.31,8.31,0,0,0,4-6.8v-.6C272.81,157.94,273.51,159,273.51,160.74Z"></path><path class="cls-5" d="M268,168.18a2.57,2.57,0,0,1-1.23-.3,3,3,0,0,1-1.42-2.51l0-.35.34.08a2.51,2.51,0,0,0,2-.26,8.11,8.11,0,0,0,3.89-6.6v-.93l.32.1c1.18.35,1.88,1.6,1.88,3.33a8.39,8.39,0,0,1-4.14,7A3.56,3.56,0,0,1,268,168.18Zm-2.11-2.52a2.45,2.45,0,0,0,1.12,1.78,2.54,2.54,0,0,0,2.38-.12,7.94,7.94,0,0,0,3.86-6.58,2.93,2.93,0,0,0-1.2-2.72v.22a8.51,8.51,0,0,1-4.14,7A2.9,2.9,0,0,1,265.9,165.66Z"></path><path class="cls-26" d="M283.51,150.84a8.31,8.31,0,0,0-4,6.8c0,2.7,1.8,3.9,4,2.8a8.31,8.31,0,0,0,4-6.8C287.51,151,285.71,149.74,283.51,150.84Z"></path><path class="cls-5" d="M282,161.1a2.46,2.46,0,0,1-1.31-.36,3.45,3.45,0,0,1-1.38-3.1,8.48,8.48,0,0,1,4.14-7h0a3,3,0,0,1,3-.05,3.47,3.47,0,0,1,1.41,3.07,8.51,8.51,0,0,1-4.14,7A3.73,3.73,0,0,1,282,161.1ZM285,150.7a3.09,3.09,0,0,0-1.4.37h0a8.07,8.07,0,0,0-3.86,6.57,3,3,0,0,0,1.14,2.68,2.55,2.55,0,0,0,2.5-.1,8.09,8.09,0,0,0,3.86-6.58,3,3,0,0,0-1.17-2.64A2,2,0,0,0,285,150.7Z"></path><path class="cls-24" d="M232.51,177.14a78.36,78.36,0,0,1-23.6,3.4c-16.1,0-36.8-4.5-53.9-14.9a110.1,110.1,0,0,0,35,6.1,54.17,54.17,0,0,0,18.7-3.3,8.5,8.5,0,0,1,8,1.2,45.34,45.34,0,0,0,5.5,3.4A56.69,56.69,0,0,0,232.51,177.14Z"></path><path class="cls-28" d="M287.51,153.74a8.17,8.17,0,0,1-4,6.8c-2,1-3.7,0-4-2.2a2.76,2.76,0,0,0,2.2-.3,8.31,8.31,0,0,0,4-6.8v-.6C286.81,150.94,287.51,152,287.51,153.74Z"></path><path class="cls-5" d="M282,161.18a2.51,2.51,0,0,1-1.21-.29,3.18,3.18,0,0,1-1.54-2.51l-.05-.37.36.09a2.51,2.51,0,0,0,2-.26,8.11,8.11,0,0,0,3.89-6.6v-.92l.31.08c1.25.34,2,1.59,2,3.34a8.39,8.39,0,0,1-4.14,7A3.69,3.69,0,0,1,282,161.18Zm-2.19-2.52a2.53,2.53,0,0,0,1.22,1.79,2.56,2.56,0,0,0,2.36-.13,7.94,7.94,0,0,0,3.86-6.58A2.81,2.81,0,0,0,286,151v.24a8.51,8.51,0,0,1-4.14,7A2.85,2.85,0,0,1,279.82,158.66Z"></path><path class="cls-29" d="M229.41,104.44a25.47,25.47,0,0,0-5.2-1.5,30.53,30.53,0,0,0-10-.2,41.74,41.74,0,0,1,6.2-4.9,47.36,47.36,0,0,1,13.9-5.9,56.62,56.62,0,0,1,10.1-.9c12.1,0,22.7,5.7,30.1,14.4a33.88,33.88,0,0,0-9.2-5.3,39.78,39.78,0,0,0-25.5-.8A32.54,32.54,0,0,0,229.41,104.44Z"></path><path class="cls-5" d="M217.56,96.45l-.3-.41c16.6-12.23,36.91-7,37.11-6.94l-.13.49C254,89.53,234,84.36,217.56,96.45Z"></path><path class="cls-5" d="M231.05,179.79c-.18,0-17.48-4.37-22.27-16l.46-.19c2.45,6,8.27,9.93,12.72,12.21a47,47,0,0,0,9.21,3.54Z"></path><path class="cls-24" d="M211.11,122.94c-5.6,8.9-.3,26.4.7,27.7,0,0-7.4,0-13.2-7.8-4.7-6.4-6.3-16.4-2.1-25.5,2.4-5.1,8.7-10.4,17.8-11.8,13.4-2.1,19.8,3.2,19.8,3.2S217.31,113.14,211.11,122.94Z"></path><path class="cls-5" d="M212.32,150.89h-.51c-.08,0-7.6-.09-13.4-7.9-5.23-7.11-6.06-17.22-2.13-25.75,2.15-4.56,8.15-10.43,18-11.94a32.24,32.24,0,0,1,15,.82,16.16,16.16,0,0,1,5,2.43l.37.31-.47.13c-.17,0-16.78,4.49-22.85,14.09-5.53,8.78-.15,26.33.69,27.41Zm8-45.58a38.75,38.75,0,0,0-6,.48c-9.65,1.49-15.52,7.21-17.62,11.66-3.86,8.36-3,18.27,2.08,25.25,4.87,6.55,10.93,7.52,12.57,7.67-1.34-3-5.88-19-.48-27.56h0c5.57-8.81,19.78-13.33,22.64-14.16C232.25,107.78,227.88,105.31,220.33,105.31Z"></path><path class="cls-30" d="M224.91,112.14a28.76,28.76,0,0,0-28.4,5.3c2.4-5.1,8.7-10.4,17.8-11.8,13.4-2.1,19.8,3.2,19.8,3.2A40.61,40.61,0,0,0,224.91,112.14Z"></path><path class="cls-5" d="M212.32,150.89h-.51c-.08,0-7.6-.09-13.4-7.9-5.23-7.11-6.06-17.22-2.13-25.75,2.15-4.56,8.15-10.43,18-11.94a32.24,32.24,0,0,1,15,.82,16.16,16.16,0,0,1,5,2.43l.37.31-.47.13c-.17,0-16.78,4.49-22.85,14.09-5.53,8.78-.15,26.33.69,27.41Zm8-45.58a38.75,38.75,0,0,0-6,.48c-9.65,1.49-15.52,7.21-17.62,11.66-3.86,8.36-3,18.27,2.08,25.25,4.87,6.55,10.93,7.52,12.57,7.67-1.34-3-5.88-19-.48-27.56h0c5.57-8.81,19.78-13.33,22.64-14.16C232.25,107.78,227.88,105.31,220.33,105.31Z"></path><path class="cls-18" d="M215.41,125c-5.7,11.2-3.6,25.5-3.6,25.5-8.5-3.9-14.2-12.4-12.6-18.7a7.92,7.92,0,0,1,4.9-5.3c2-.8,1.2-2.5,1-4.2s.4-6.8,6.9-10.6c8.5-5,22.2-2.9,22.2-2.9S220.71,114.74,215.41,125Z"></path><path class="cls-5" d="M212.12,151l-.42-.19c-8.52-3.91-14.36-12.61-12.73-19a8.26,8.26,0,0,1,5-5.47c1.44-.57,1.25-1.64,1-3,0-.32-.11-.64-.15-1-.28-2.34.89-7.26,7-10.84,8.48-5,22.23-3,22.37-2.93l.85.13-.79.34c-.14.06-13.48,6-18.68,16.09-5.6,11-3.6,25.21-3.57,25.35Zm15.35-42.29c-4.64,0-10.77.61-15.34,3.29-7.39,4.32-6.8,10.11-6.77,10.36s.09.62.14.92c.26,1.38.52,2.81-1.3,3.54a7.76,7.76,0,0,0-4.75,5.12c-1.54,6.07,4,14.32,12.05,18.23-.29-2.54-1.42-15.18,3.68-25.2h0c4.54-8.82,15.16-14.49,18.13-15.94A52.27,52.27,0,0,0,227.47,108.67Z"></path><circle class="cls-4" cx="251.91" cy="134.84" r="1.6"></circle><path class="cls-5" d="M251.91,136.69a1.85,1.85,0,1,1,1.85-1.84A1.85,1.85,0,0,1,251.91,136.69Zm0-3.2a1.35,1.35,0,1,0,1.35,1.36A1.35,1.35,0,0,0,251.91,133.49Z"></path><circle class="cls-4" cx="276.41" cy="124.84" r="1.6"></circle><path class="cls-5" d="M276.41,126.69a1.85,1.85,0,1,1,1.85-1.84A1.84,1.84,0,0,1,276.41,126.69Zm0-3.2a1.35,1.35,0,1,0,1.35,1.36A1.35,1.35,0,0,0,276.41,123.49Z"></path></g></g><path class="cls-31" d="M156.21,107.84a1.81,1.81,0,0,1,1.1-3.1h.4c4-.3,7,5.6,7.6,13.2h0c.6,7.5-2.4,14-5.3,14.3h0a2.17,2.17,0,0,1-2.1-3.3v-.1c1.3-2.2,9.1-12.2-1.7-21Z"></path><path class="cls-5" d="M159.76,132.51a2.43,2.43,0,0,1-2.09-1.19,2.33,2.33,0,0,1,0-2.45v-.09l0-.06c.1-.17.24-.39.41-.65,7.75-12,.37-18.06-2-20h0a2,2,0,0,1-.55-2.07,2.11,2.11,0,0,1,1.79-1.46h.43c4-.3,7.2,5.23,7.85,13.44.5,6.28-1.85,14.18-5.53,14.56Zm-1.6-3.6V129l0,.06a1.82,1.82,0,0,0,0,2A2,2,0,0,0,160,132c2.77-.29,5.66-6.82,5.08-14-.62-7.78-3.69-13.26-7.33-13h-.42a1.62,1.62,0,0,0-1.34,1.12,1.49,1.49,0,0,0,.4,1.55c10.14,8.26,4.13,17.61,2.15,20.68Z"></path><path class="cls-17" d="M162.91,118.14h0c.6,6.6-2.2,12.2-4.9,12.4l-7.6.6c-5,.4-9.6-4.6-10.1-11.2h0c-.6-6.6,3.1-12.3,8.1-12.7l7.6-.6C159.71,106.34,162.41,111.54,162.91,118.14Z"></path><path class="cls-5" d="M149.86,131.42a8.3,8.3,0,0,1-5.39-2.13A14.71,14.71,0,0,1,142.88,110a8,8,0,0,1,5.51-3l7.6-.6a4.18,4.18,0,0,1,3.15,1.11c2.15,1.84,3.65,5.8,4,10.61.45,5-1,9.23-2.71,11.2a3.66,3.66,0,0,1-2.42,1.47l-7.6.6A5.44,5.44,0,0,1,149.86,131.42Zm6.45-24.54H156l-7.6.6a7.54,7.54,0,0,0-5.17,2.84,14.23,14.23,0,0,0,1.53,18.58,7.63,7.63,0,0,0,5.6,2l7.6-.6a3.27,3.27,0,0,0,2.08-1.3c1.6-1.9,3-6,2.59-10.83h0c-.36-4.68-1.79-8.52-3.85-10.27A3.8,3.8,0,0,0,156.31,106.88Z"></path><path class="cls-26" d="M212.81,73a.63.63,0,0,1-.2,1.1,10.63,10.63,0,0,1-1.8.5c-2.5.4-14.7-9.6-40.7-14.8,0,0-.3-1.9,3.6-1.1C177.51,59.34,203.31,65.54,212.81,73Z"></path><path class="cls-5" d="M210.66,74.9c-.92,0-2.52-.82-5.27-2.24a126.84,126.84,0,0,0-35.33-12.57l-.17,0,0-.18a1.27,1.27,0,0,1,.39-1.05c.6-.57,1.78-.68,3.51-.33,4.45.7,29.8,6.93,39.2,14.35a.84.84,0,0,1,.34.79,1,1,0,0,1-.6.74,6,6,0,0,1-1.23.36l-.6.15Zm-40.3-15.26a127,127,0,0,1,35.26,12.58c2.68,1.38,4.45,2.3,5.15,2.18l.58-.14a6.56,6.56,0,0,0,1.15-.34.46.46,0,0,0,.3-.35.35.35,0,0,0-.14-.33h0c-9.32-7.36-34.54-13.55-39-14.25-1.94-.4-2.74-.11-3.07.2A.8.8,0,0,0,170.36,59.64Z"></path><path class="cls-18" d="M212.51,73a.63.63,0,0,1-.2,1.1,2.3,2.3,0,0,1-1.8-.7c-2.3-2-14.1-9.1-39.7-14.3,0,0-.1-.7,1-.7a15,15,0,0,1,2.2.3C177.71,59.54,203.11,65.74,212.51,73Z"></path><path class="cls-32" d="M162.81,118.24h0c.5,6.5-2.2,12.1-4.9,12.3l-7.5.6c-5,.4-9.5-4.6-10-11.1h0c-.5-6.5,3.1-12.2,8-12.6l7.5-.6C159.61,106.64,162.31,111.74,162.81,118.24Z"></path><path class="cls-5" d="M150.21,131.09l-.41-.29s2.22-3.36.56-12.41l.49-.09C152.55,127.6,150.31,131,150.21,131.09Z"></path><path class="cls-17" d="M143.71,116.34l-.2.6a1.43,1.43,0,0,1-1.8,1l-45.2-11.8a1.43,1.43,0,0,1-1-1.8l.2-.6a1.43,1.43,0,0,1,1.8-1l45.2,11.8A1.47,1.47,0,0,1,143.71,116.34Z"></path><path class="cls-5" d="M142.13,118.25a2,2,0,0,1-.48-.06l-45.21-11.8a1.66,1.66,0,0,1-1-.8,1.79,1.79,0,0,1-.14-1.31l.2-.61a1.67,1.67,0,0,1,2.1-1.17l45.2,11.8a1.73,1.73,0,0,1,1.18,2.11h0l-.2.6A1.61,1.61,0,0,1,142.13,118.25Zm-45-15.31a1.15,1.15,0,0,0-1.15.87l-.21.61a1.35,1.35,0,0,0,.11.93,1.12,1.12,0,0,0,.72.55l45.2,11.8a1.19,1.19,0,0,0,1.5-.82l.2-.6a1.23,1.23,0,0,0-.85-1.5L97.44,103A1.33,1.33,0,0,0,97.1,102.94Z"></path><circle class="cls-18" cx="95.31" cy="104.04" r="5.8"></circle><path class="cls-5" d="M95.31,110.1a6.06,6.06,0,1,1,6-6.06A6.06,6.06,0,0,1,95.31,110.1Zm0-11.61a5.56,5.56,0,1,0,5.55,5.55A5.56,5.56,0,0,0,95.31,98.49Z"></path><circle class="cls-33" cx="97.01" cy="103.14" r="2.6"></circle><path class="cls-17" d="M55,55l.5-.4a1.43,1.43,0,0,1,2,.2l36,45a1.43,1.43,0,0,1-.2,2l-.5.4a1.43,1.43,0,0,1-2-.2l-36-45A1.43,1.43,0,0,1,55,55Z"></path><path class="cls-5" d="M91.92,102.82a1.66,1.66,0,0,1-1.3-.62l-36-45A1.62,1.62,0,0,1,54.25,56a1.69,1.69,0,0,1,.6-1.13h0l.5-.4a1.68,1.68,0,0,1,1.22-.37,1.73,1.73,0,0,1,1.13.6l36,45a1.62,1.62,0,0,1,.37,1.22,1.73,1.73,0,0,1-.6,1.13l-.51.4A1.63,1.63,0,0,1,91.92,102.82ZM55.17,55.24a1.22,1.22,0,0,0-.43.79,1.12,1.12,0,0,0,.26.85l36,45a1.17,1.17,0,0,0,1.65.16l.5-.4a1.17,1.17,0,0,0,.42-.79,1.15,1.15,0,0,0-.25-.85l-36-45a1.17,1.17,0,0,0-.79-.42,1.12,1.12,0,0,0-.85.26Z"></path><path class="cls-4" d="M60,78.34a6.76,6.76,0,0,0,.4,1.5,4.32,4.32,0,0,0,4.2,3c4.3,0,11.7-1.1,15.3-7.7a4.52,4.52,0,0,0,.3-3.6l-1.3-4.2Z"></path><path class="cls-5" d="M64.61,83.1a4.6,4.6,0,0,1-4.44-3.18,6.62,6.62,0,0,1-.41-1.57V78.2l.12-.07L79.05,67l1.4,4.5a4.8,4.8,0,0,1-.32,3.79C76.41,82.08,68.81,83.1,64.61,83.1Zm-4.34-4.62a11.43,11.43,0,0,0,.37,1.29,4.07,4.07,0,0,0,4,2.83c4.09,0,11.49-1,15.08-7.57A4.3,4.3,0,0,0,80,71.62l-1.21-3.9Z"></path><path class="cls-4" d="M53.51,43.74c-1.4-2.4-10.4-9.3-10.4-9.3s0-.1-.1-.2a5.13,5.13,0,0,1,6-6.4c2.8.6,6.7,2.4,10.4,7.3,6.6,8.8,8.7,9.2,8.7,9.2a6.48,6.48,0,0,0,4.9.6.22.22,0,0,0,.2-.2c.1-1.4,3-8.2,8.6-9.8,9.8-2.8,5.9,4.4,5.9,4.4l-4.1,5.4a11.35,11.35,0,0,0-2.3,7.3c.3,4.8,0,12.3-.5,14.2a21.63,21.63,0,0,1-4,7.3,16.37,16.37,0,0,1-12.3,6.1c-3.4.2-7.4-.3-9.8-2.5-4.8-4.5-8.5-11.7-8.5-11.7s-2.2-4.6-10.1-10.1-3.3-9.4-3.3-9.4a1.72,1.72,0,0,1,2.2-.3c1.2.9,7.8,3.7,10,6.1"></path><path class="cls-5" d="M63.15,79.94c-2.6,0-6.25-.45-8.61-2.61C49.76,72.85,46,65.63,46,65.56s-2.28-4.62-10-10c-3-2.12-4.63-4.26-4.73-6.37a4.42,4.42,0,0,1,1.42-3.43,1.92,1.92,0,0,1,2.5-.31,26.92,26.92,0,0,0,2.47,1.36c2.55,1.31,6.05,3.11,7.57,4.78l-.37.33c-1.46-1.59-4.91-3.37-7.43-4.67a24.35,24.35,0,0,1-2.53-1.39,1.46,1.46,0,0,0-1.87.26,4.08,4.08,0,0,0-1.26,3c.1,2,1.62,4,4.52,6,7.86,5.47,10.09,10,10.18,10.2s3.74,7.2,8.45,11.62c2.67,2.45,7.17,2.58,9.61,2.44a16.24,16.24,0,0,0,12.12-6,21.61,21.61,0,0,0,4-7.2c.48-1.81.81-9.12.5-14.13a11.58,11.58,0,0,1,2.35-7.47l4.1-5.4h0s1.37-2.57.33-3.87c-.79-1-2.85-1-6-.14-5.36,1.54-8.32,8.13-8.42,9.58a.46.46,0,0,1-.41.43,6.71,6.71,0,0,1-5-.62c-.39-.12-2.72-1.18-8.79-9.28-3.73-4.93-7.64-6.64-10.25-7.2a4.86,4.86,0,0,0-4.61,1.48,4.75,4.75,0,0,0-1.12,4.55.44.44,0,0,1,.12.19c1,.76,9,7,10.37,9.31l-.43.25C51.93,41.54,43,34.71,43,34.64l-.09-.07v-.12l0,0-.06-.1A5.25,5.25,0,0,1,44,29.23a5.35,5.35,0,0,1,5.08-1.63c2.7.58,6.72,2.33,10.55,7.39,6.36,8.49,8.53,9.11,8.55,9.11l.09,0a6.32,6.32,0,0,0,4.69.56h0c.17-1.68,3.15-8.39,8.78-10,3.37-1,5.55-.85,6.49.31,1.24,1.55-.24,4.34-.3,4.45L83.81,44.9A11.09,11.09,0,0,0,81.56,52c.29,4.65,0,12.26-.51,14.27a22.32,22.32,0,0,1-4,7.39,16.68,16.68,0,0,1-12.49,6.19C64.11,79.92,63.65,79.94,63.15,79.94ZM73,44.73h0Z"></path><path class="cls-4" d="M46.51,53.74l-10.7-7.2a6.83,6.83,0,0,1-3.7-5.2,3.72,3.72,0,0,1,1.6-3.5,5.47,5.47,0,0,1,1.9-.9s11.5,5.9,15.3,10.9"></path><path class="cls-5" d="M46.37,54l-10.7-7.2a7,7,0,0,1-3.81-5.38,4,4,0,0,1,1.7-3.73,5.51,5.51,0,0,1,2-.94l.08,0,.07,0c.47.24,11.6,6,15.39,11l-.4.31c-3.56-4.69-14.14-10.27-15.14-10.79a5.28,5.28,0,0,0-1.72.84,3.51,3.51,0,0,0-1.5,3.26,6.67,6.67,0,0,0,3.56,5l10.74,7.22Z"></path><path class="cls-4" d="M49.21,48.94c-.4-2.8-13.9-11.5-13.9-11.5.2-8.3,6.7-6.4,7.4-6.4,0,0,1.5,4.1,2.4,4.9,1.4,1.2,9.4,5.8,9.9,9"></path><path class="cls-5" d="M49,49c-.32-2.2-10.06-8.92-13.79-11.33l-.12-.07v-.14c.06-2.65.77-4.56,2.1-5.68,1.8-1.51,4.19-1.16,5.21-1a2,2,0,0,0,.34,0h.17l.06.17c.41,1.12,1.63,4.18,2.33,4.8.31.26,1,.7,1.79,1.27,2.91,2,7.79,5.3,8.19,7.88l-.49.07c-.37-2.36-5.32-5.73-8-7.54-.84-.57-1.51-1-1.84-1.31-.84-.75-2.13-4.09-2.41-4.85l-.23,0c-1-.14-3.19-.48-4.82.9-1.19,1-1.84,2.74-1.92,5.16,1.43.92,13.5,8.83,13.89,11.6Z"></path><path class="cls-4" d="M66.21,66.74s-3.4-5.9,1.6-12.4"></path><path class="cls-5" d="M66,66.87A10.26,10.26,0,0,1,64.88,63a12.3,12.3,0,0,1,2.73-8.82l.4.31c-4.85,6.29-1.62,12.06-1.59,12.12Z"></path><path class="cls-17" d="M144.21,120.94l.2.6a1.43,1.43,0,0,1-1,1.8l-39.3,12.1a1.43,1.43,0,0,1-1.8-1l-.2-.6a1.43,1.43,0,0,1,1-1.8l39.3-12.1A1.75,1.75,0,0,1,144.21,120.94Z"></path><path class="cls-5" d="M103.71,135.74a1.66,1.66,0,0,1-1.65-1.23l-.19-.59a1.81,1.81,0,0,1,.14-1.32,1.62,1.62,0,0,1,1-.8l39.28-12.09a2,2,0,0,1,2.11,1.14v0l.2.6a1.69,1.69,0,0,1-1.17,2.12l-39.29,12.09A2,2,0,0,1,103.71,135.74Zm38.92-15.56h-.19l-39.26,12.09a1.16,1.16,0,0,0-.73.56,1.32,1.32,0,0,0-.1.94l.19.59a1.2,1.2,0,0,0,1.51.83l39.28-12.09a1.18,1.18,0,0,0,.83-1.5L144,121A1.5,1.5,0,0,0,142.63,120.18Z"></path><circle class="cls-18" cx="98.11" cy="135.04" r="5.8"></circle><path class="cls-5" d="M98.11,141.1a6.06,6.06,0,1,1,6-6A6.06,6.06,0,0,1,98.11,141.1Zm0-11.61a5.56,5.56,0,1,0,5.55,5.56A5.56,5.56,0,0,0,98.11,129.49Z"></path><circle class="cls-34" cx="97.91" cy="132.94" r="2.6"></circle><path class="cls-17" d="M75.71,193.84l-.6-.2a1.48,1.48,0,0,1-.8-1.9l20.2-54a1.48,1.48,0,0,1,1.9-.8l.6.2a1.48,1.48,0,0,1,.8,1.9l-20.2,54A1.62,1.62,0,0,1,75.71,193.84Z"></path><path class="cls-5" d="M76.15,194.15a2.1,2.1,0,0,1-.51-.06h0l-.6-.2a1.72,1.72,0,0,1-1-2.22l20.2-54a1.73,1.73,0,0,1,2.23-.95l.59.2a1.72,1.72,0,0,1,1,2.22l-20.2,54A1.8,1.8,0,0,1,76.15,194.15Zm-.37-.54a1.4,1.4,0,0,0,1.6-.66l20.19-54a1.23,1.23,0,0,0-.66-1.59l-.58-.19a1.22,1.22,0,0,0-1.59.66l-20.2,54a1.24,1.24,0,0,0,.67,1.59Z"></path><g class="cls-2"><g class="cls-35"><path class="cls-8" d="M70.51,7.94h0L92,26.84a3.1,3.1,0,0,1,.9,1.8,2.73,2.73,0,0,1-.8,1.9l-41.7,40.1a3,3,0,0,1-4,.1l-21.5-18.9A3.1,3.1,0,0,1,24,50a2.73,2.73,0,0,1,.8-1.9l41.7-40.2a3.16,3.16,0,0,1,4,0"></path><path class="cls-5" d="M48.3,71.7a3.06,3.06,0,0,1-2.06-.77L24.74,52a3.38,3.38,0,0,1-1-2A3,3,0,0,1,24.63,48L66.33,7.76a3.43,3.43,0,0,1,4.34,0l21.5,18.9a3.36,3.36,0,0,1,1,1.95,3,3,0,0,1-.88,2.11L50.58,70.83A3.44,3.44,0,0,1,48.3,71.7ZM68.55,7.48a3,3,0,0,0-1.88.66L25,48.33A2.48,2.48,0,0,0,24.26,50a2.93,2.93,0,0,0,.82,1.63L46.57,70.56a2.79,2.79,0,0,0,3.67-.1l41.69-40.1a2.45,2.45,0,0,0,.73-1.72A2.82,2.82,0,0,0,91.83,27L70.34,8.13A2.68,2.68,0,0,0,68.55,7.48Z"></path><path d="M46.31,70.74l-21.5-18.9a3.1,3.1,0,0,1-.9-1.8,2.73,2.73,0,0,1,.8-1.9l41.7-40.2a3,3,0,0,1,4-.1h0l21.5,18.9a3.1,3.1,0,0,1,.9,1.8,2.73,2.73,0,0,1-.8,1.9l-41.7,40.1a2.84,2.84,0,0,1-4,.2m24.5-63.1a3.5,3.5,0,0,0-4.6.1l-41.7,40.1a3.1,3.1,0,0,0-.9,2.2,2.81,2.81,0,0,0,1,2.1l.2-.2-.2.2L46.11,71h0a3.5,3.5,0,0,0,4.6-.1l41.7-40.1a3.1,3.1,0,0,0,.9-2.2,2.81,2.81,0,0,0-1-2.1L70.81,7.64h0"></path></g></g><g class="cls-2"><g class="cls-36"><path class="cls-37" d="M70.31,6.34h0l21.5,18.9a3.1,3.1,0,0,1,.9,1.8,2.73,2.73,0,0,1-.8,1.9L50.21,69a2.79,2.79,0,0,1-2,.8,2.88,2.88,0,0,1-2-.7h0l-21.5-18.9a2.57,2.57,0,0,1-.1-3.7l41.7-40.1a2.79,2.79,0,0,1,2-.8,2.37,2.37,0,0,1,2,.7"></path><path class="cls-38" d="M46.21,69.14h0l-21.5-18.9a2.57,2.57,0,0,1-.1-3.7l41.7-40.1a2.79,2.79,0,0,1,2-.8,2.72,2.72,0,0,1,2,.7h0l21.5,18.9a3.1,3.1,0,0,1,.9,1.8,2.73,2.73,0,0,1-.8,1.9L50.21,69a2.79,2.79,0,0,1-2,.8,2.72,2.72,0,0,1-2-.7m24.5-63.2a3.5,3.5,0,0,0-4.6.1l-41.7,40.1a2.86,2.86,0,0,0,.1,4.3L46,69.34h0a3.24,3.24,0,0,0,2.3.8,3.64,3.64,0,0,0,2.3-.9l41.7-40.1a2.86,2.86,0,0,0-.1-4.3L70.71,5.94h0"></path></g></g><g class="cls-2"><g class="cls-39"><path class="cls-37" d="M91.21,29.44,50.11,69a3.1,3.1,0,0,1-2.2.9,3,3,0,0,1-2.2-.8h0l-21.1-18.5a2.78,2.78,0,0,1-.1-4.1l9-8.7,57.7-8.4"></path><path d="M45.71,69.14h0l-21.1-18.5a2.78,2.78,0,0,1-.1-4.1l9-8.7,57.6-8.4L50,69a3.1,3.1,0,0,1-2.2.9,3.44,3.44,0,0,1-2.1-.8m46.8-40.3-59.1,8.6-9.1,8.8a3,3,0,0,0,.1,4.6l21.1,18.5h0a3.84,3.84,0,0,0,2.5.9,3.55,3.55,0,0,0,2.5-1l42-40.4"></path></g></g><path class="cls-40" d="M70.11,10.14l6.5,5.7a2,2,0,0,1-.3,3.1l-7.6,6.9a2.75,2.75,0,0,1-3.5.3l-6.5-5.7a2,2,0,0,1,.3-3.1l7.6-6.9a2.63,2.63,0,0,1,3.5-.3"></path><path class="cls-41" d="M70.11,10.14l6.5,5.7a2,2,0,0,1-.3,3.1l-7.6,6.9a2.75,2.75,0,0,1-3.5.3l-6.5-5.7a2,2,0,0,1,.3-3.1l7.6-6.9a2.63,2.63,0,0,1,3.5-.3"></path><path class="cls-42" d="M65.31,26l-3.2-2.8,3.5-3.1,1.6,1.4-.3,3.1v.1l1.4,1.3a2.55,2.55,0,0,1-3,0M62,23.14l-3.2-2.8a1.94,1.94,0,0,1,.1-2.8l1.4,1.3h.1l3.5-.3,1.6,1.4L62,23.14m6.6,2.6-1.4-1.2.3-3,1.9-1.7,3,2.6-3.8,3.3m-8.1-7.1-1.4-1.2,3.7-3.3,3,2.6-1.9,1.7-3.4.2m6.8,2.6-3.2-2.8h0l3.7-3.4h0l3.2,2.8h0l-3.7,3.4h0m5.2,1-3-2.6,1.9-1.7,3.4-.3,1.4,1.2-3.7,3.4m-6.6-5.8-3-2.6,3.7-3.3,1.4,1.2-.3,3-1.8,1.7m10.5,2.2L75,17.34h-.1l-3.5.3-1.6-1.4,3.5-3.1,3.2,2.8c.8.6.7,1.8-.1,2.7m-6.7-2.5-1.6-1.4.3-3.1v-.1L67,10.24a2.56,2.56,0,0,1,3.1-.2l3.2,2.8-3.6,3.3m.5-6.1a2.88,2.88,0,0,0-3.6.2h0a.1.1,0,0,0-.1.1l-7.6,6.9-.1.1h0a2.16,2.16,0,0,0-.2,3.2l6.5,5.7a2.88,2.88,0,0,0,3.6-.2h0l.1-.1,7.6-6.9.1-.1h0a2.16,2.16,0,0,0,.2-3.2L70.21,10"></path><path class="cls-5" d="M66.66,26.88a2.4,2.4,0,0,1-1.61-.57l-6.5-5.7A2.07,2.07,0,0,1,57.91,19a2.63,2.63,0,0,1,.84-1.69l.1-.11,7.58-6.88a.18.18,0,0,1,.14-.14A3,3,0,0,1,70.26,10l6.5,5.7a2,2,0,0,1,.64,1.63A2.57,2.57,0,0,1,76.57,19l-.1.1-7.7,7A3.34,3.34,0,0,1,66.66,26.88Zm0-16.55v0l0,0-7.69,7a2.06,2.06,0,0,0-.2,3.07l6.49,5.7a2.82,2.82,0,0,0,3.49-.2l.1-.1,3.77-3.42-.06.05-3.85,3.35-1.49-1.28.31-3.08,2-1.77,3.13,2.71,3.91-3.56a2.06,2.06,0,0,0,.2-3.07l-3.3-2.89L71,15.07l2.3-2,3.25,2.85a1.48,1.48,0,0,1,.58,1,2.4,2.4,0,0,1-.67,1.78l-.06.07L75,17.43h-.06l-3.53.3-1.7-1.48h0L68,14.78v0l.3-3.1v-.06l-1.44-1.34.07-.06a2.85,2.85,0,0,1,.49-.34,3.44,3.44,0,0,0-.78.47l0,0Zm.69,14.18,1.31,1.12,3.67-3.19L69.41,20l-1.82,1.63ZM75,17.26h0l1.36,1.26A2.22,2.22,0,0,0,77,16.93a1.3,1.3,0,0,0-.51-.92l-3.15-2.75-3.37,3,1.5,1.32ZM68.2,14.71,69.71,16l3.47-3.18-3.13-2.74a2.48,2.48,0,0,0-2.91.14l1.35,1.26v.13ZM66.77,26.62a2.42,2.42,0,0,1-1.51-.51h0L62,23.25h0l0,0-3.2-2.8a1.68,1.68,0,0,1-.58-1.18,2.49,2.49,0,0,1,.67-1.74l.06-.07,1.44,1.34h.07l.89-.08-.82.05,0,0L59,17.45l.07-.07L62.81,14l3.07,2.67,1.93-1.77,3.33,2.91-3.83,3.52L64,18.47l0,0,1.66,1.45-2.22,2L65.61,20l1.69,1.48v0l-.3,3.1v.06l1.45,1.34-.08.06A2.69,2.69,0,0,1,66.77,26.62ZM65.36,26a2.47,2.47,0,0,0,2.81.06l-1.35-1.26v-.14l.3-3.06-1.51-1.32-3.37,3Zm-6.45-8.31a2.28,2.28,0,0,0-.57,1.55,1.52,1.52,0,0,0,.52,1.06L62,23,65.38,20l-1.5-1.32-3.61.3Zm5.32.77,3.08,2.69,3.57-3.28-3.07-2.69Zm-5-1,1.3,1.12,3.33-.2,1.81-1.61-2.87-2.49Zm13.27,4.92-3.13-2.71,2-1.79,3.47-.3,0,0,1.48,1.26-.07.07Zm-2.87-2.72,2.87,2.49,3.57-3.28-1.3-1.12-3.34.3Zm-3.73-3.08-3.13-2.71,3.83-3.42,1.49,1.28-.31,3.08,0,0ZM63,13.84l2.87,2.49,1.72-1.63.29-2.92-1.31-1.12Z"></path><path class="cls-4" d="M81,65.84c.5-1.9.7-9.3.5-14.2a11.35,11.35,0,0,1,2.3-7.3l4.1-5.4s3.9-7.2-5.9-4.4a11.45,11.45,0,0,0-5.9,4.4,13.38,13.38,0,0,0-2.6,9.3,4.2,4.2,0,0,0,.3,1.4"></path><path class="cls-5" d="M81.25,65.91l-.48-.13c.49-1.89.68-9.35.49-14.12a11.58,11.58,0,0,1,2.35-7.47l4.1-5.4h0s1.37-2.57.33-3.87c-.79-1-2.85-1-6-.13a11.25,11.25,0,0,0-5.77,4.3,13.17,13.17,0,0,0-2.55,9.13l.06.47a2.13,2.13,0,0,0,.2.82l-.42.27a2.32,2.32,0,0,1-.27-1c0-.14,0-.3-.07-.46a13.67,13.67,0,0,1,2.65-9.5,11.76,11.76,0,0,1,6-4.49c3.37-1,5.55-.86,6.49.31,1.24,1.55-.24,4.34-.3,4.45L84,44.5a11.07,11.07,0,0,0-2.25,7.14C82,56.48,81.77,63.92,81.25,65.91Z"></path><path class="cls-4" d="M34.41,46.24h0a4,4,0,0,1-5.7-.4l-1.5-1.7a4,4,0,0,1,.4-5.7h0a4,4,0,0,1,5.7.4l1.5,1.7A4.19,4.19,0,0,1,34.41,46.24Z"></path><path class="cls-5" d="M31.77,47.51A4.33,4.33,0,0,1,28.52,46L27,44.31a4.29,4.29,0,1,1,6.47-5.63l1.5,1.7a4.45,4.45,0,0,1-.41,6h0A4.21,4.21,0,0,1,31.77,47.51Zm-1.53-9.83A3.82,3.82,0,0,0,27.39,44l1.5,1.7a3.76,3.76,0,0,0,5.35.38,3.94,3.94,0,0,0,.38-5.35L33.12,39a3.85,3.85,0,0,0-2.61-1.32Z"></path><path class="cls-4" d="M39.81,41.94h0a4,4,0,0,1-5.7-.4l-2.5-2.9a4,4,0,0,1,.4-5.7h0a4,4,0,0,1,5.7.4l2.5,2.9A4.09,4.09,0,0,1,39.81,41.94Z"></path><path class="cls-5" d="M37.17,43.21a4.33,4.33,0,0,1-3.25-1.5l-2.5-2.9a4.16,4.16,0,0,1-1.06-3.11,4.33,4.33,0,0,1,1.48-2.94A4.18,4.18,0,0,1,35,31.7a4.33,4.33,0,0,1,2.94,1.48l2.51,2.9A4.34,4.34,0,0,1,40,42.13,4.21,4.21,0,0,1,37.17,43.21Zm-2.53-11a3.82,3.82,0,0,0-2.85,6.3l2.51,2.9a3.74,3.74,0,0,0,5.34.38A3.85,3.85,0,0,0,40,36.4l-2.49-2.89a3.85,3.85,0,0,0-2.61-1.32Z"></path><path class="cls-4" d="M51.11,32h0a4,4,0,0,1-5.7-.4l-2.5-2.9a4,4,0,0,1,.4-5.7h0a4,4,0,0,1,5.7.4l2.5,2.9A4.18,4.18,0,0,1,51.11,32Z"></path><path class="cls-5" d="M48.47,33.31l-.31,0a4.35,4.35,0,0,1-2.94-1.48l-2.5-2.9a4.2,4.2,0,0,1-1.06-3.11,4.33,4.33,0,0,1,1.48-2.94,4.25,4.25,0,0,1,6.06.42l2.5,2.9a4.44,4.44,0,0,1-.43,6h0A4.2,4.2,0,0,1,48.47,33.31ZM46,22.29a3.75,3.75,0,0,0-2.48.94,3.86,3.86,0,0,0-1.31,2.61,3.67,3.67,0,0,0,.94,2.74l2.5,2.9a3.83,3.83,0,0,0,2.6,1.32,3.76,3.76,0,0,0,2.74-.94h0a3.93,3.93,0,0,0,.37-5.36l-2.49-2.89A3.8,3.8,0,0,0,46,22.29Z"></path><path class="cls-4" d="M45.61,37.34h0a4,4,0,0,1-5.7-.4l-4-4.5a4,4,0,0,1,.4-5.7h0a4,4,0,0,1,5.7.4l4,4.5A4.18,4.18,0,0,1,45.61,37.34Z"></path><path class="cls-5" d="M43,38.61l-.31,0a4.35,4.35,0,0,1-2.94-1.48l-4-4.5a4.2,4.2,0,0,1-1.06-3.11,4.33,4.33,0,0,1,1.48-2.94,4.22,4.22,0,0,1,3.11-1.06,4.33,4.33,0,0,1,3,1.48l4,4.5a4.43,4.43,0,0,1-.41,6.05h0A4.2,4.2,0,0,1,43,38.61ZM39,26a3.75,3.75,0,0,0-2.48.94,3.86,3.86,0,0,0-1.31,2.61,3.67,3.67,0,0,0,.94,2.74l4,4.5A3.87,3.87,0,0,0,42.7,38.1a3.73,3.73,0,0,0,2.74-.94,3.94,3.94,0,0,0,.37-5.36l-4-4.49A3.8,3.8,0,0,0,39,26Z"></path><path class="cls-4" d="M97.51,164.84a12.27,12.27,0,0,0-.1-1.7,4.67,4.67,0,0,0-3.9-4.1c-4.6-.8-12.9-1.1-18,5.3a5.68,5.68,0,0,0-1.1,3.8l.6,4.8Z"></path><path class="cls-5" d="M74.8,173.29l-.64-5.11a5.92,5.92,0,0,1,1.15-4c5.22-6.56,13.67-6.2,18.24-5.4a4.94,4.94,0,0,1,4.11,4.32,12.66,12.66,0,0,1,.1,1.73V165Zm14-14.42c-4.31,0-9.49,1.13-13.08,5.63a5.44,5.44,0,0,0-1,3.63l.56,4.47,22-7.93a11.29,11.29,0,0,0-.1-1.49,4.44,4.44,0,0,0-3.7-3.89A27.16,27.16,0,0,0,88.78,158.87Z"></path><path class="cls-4" d="M94.71,203.44l-1.8.6c-10.9,3.4-22.8,3.9-25.4-9.7l-.5-1.7c-.4-15,3-24,13.9-27.4l1.8-.6c10.9-3.4,22.4,2.2,25.6,12.4l.5,1.7C112.81,191.54,105.61,200,94.71,203.44Z"></path><path class="cls-16" d="M81.54,206.31a15.55,15.55,0,0,1-8.1-1.95c-3.2-1.92-5.28-5.27-6.18-10l-.5-1.74c-.43-16.16,3.78-24.43,14.07-27.64l1.8-.6c11-3.44,22.66,2.19,25.92,12.56l.5,1.7c1.89,6.05,1.37,11.62-1.49,16.09-2.6,4-7,7.13-12.78,8.92l-1.79.6A39.29,39.29,0,0,1,81.54,206.31Zm-14.28-13.7.49,1.66c.87,4.58,2.87,7.82,6,9.66,4.25,2.55,10.69,2.51,19.13-.12l1.8-.6c5.65-1.77,10-4.78,12.5-8.73,2.83-4.4,3.31-9.67,1.44-15.66l-.5-1.7c-3.17-10.11-14.51-15.6-25.29-12.24l-1.79.6C70.94,168.61,66.84,176.73,67.26,192.61Z"></path><path class="cls-4" d="M99.51,185.24a51,51,0,0,1,3.4,4.9,10.41,10.41,0,0,1,1.6,6.4v.2a7,7,0,0,1-5.7,6.4h-.1"></path><path class="cls-16" d="M98.71,203.39v-.5h.1a6.74,6.74,0,0,0,5.45-6.16v-.18a10.27,10.27,0,0,0-1.56-6.27c-1.41-2.21-3.1-4.63-3.33-4.83l.25-.43a47.14,47.14,0,0,1,3.5,5,10.61,10.61,0,0,1,1.64,6.56v.17a7.26,7.26,0,0,1-5.91,6.65Z"></path><path class="cls-4" d="M94.31,188.84a51,51,0,0,1,3.4,4.9,10.41,10.41,0,0,1,1.6,6.4v.2a7,7,0,0,1-5.7,6.4h-.1s-5.9-5.7-7.3-9"></path><path class="cls-16" d="M93.51,207h-.1l-.08-.07c-.24-.23-6-5.77-7.35-9.08l.46-.19c1.28,3,6.49,8.18,7.17,8.84a6.74,6.74,0,0,0,5.45-6.16v-.19a10.26,10.26,0,0,0-1.56-6.26c-1.44-2.25-3.09-4.63-3.33-4.83l.25-.43a48,48,0,0,1,3.5,5,10.59,10.59,0,0,1,1.64,6.56v.18A7.26,7.26,0,0,1,93.65,207Z"></path><path class="cls-4" d="M91.31,193.64c.1,3-1.4,9.5,9.7,16.3,0,0,3.6,2.6,2.7,6a4.64,4.64,0,0,1-4.2,3.5s-6.3.6-11.3-6-3.2-4.1-8.9-16.9"></path><path class="cls-16" d="M99.13,219.71c-1.45,0-6.81-.42-11.12-6.11l-.56-.75c-3.21-4.33-3.21-4.33-5.42-9.45-.69-1.59-1.63-3.78-3-6.75l.46-.21c1.32,3,2.26,5.17,2.95,6.76,2.18,5.07,2.18,5.07,5.36,9.35l.56.75c4.85,6.4,11,5.9,11.07,5.9a4.38,4.38,0,0,0,4-3.32c.84-3.19-2.57-5.71-2.61-5.73C90.85,204,91,198,91.05,194.73c0-.4,0-.76,0-1.08h.5c0,.32,0,.69,0,1.1-.07,3.37-.19,9,9.59,15,.17.12,3.74,2.75,2.81,6.28a4.92,4.92,0,0,1-4.43,3.68A1.89,1.89,0,0,1,99.13,219.71Z"></path><g class="cls-2"><path class="cls-43" d="M211.71,46.44c-2.6.2-6-2.2-7.5-5.5s-.7-6,2-6.3,6,2.2,7.5,5.5S214.41,46.14,211.71,46.44Zm-4.5-9.7c-1.7.1-2.2,1.9-1.2,4s3.1,3.6,4.7,3.5,2.2-1.9,1.2-4-3-3.6-4.7-3.5"></path><path class="cls-5" d="M211.4,46.71c-2.7,0-6-2.47-7.42-5.66a5.52,5.52,0,0,1-.37-5,3.2,3.2,0,0,1,2.57-1.63c2.77-.22,6.24,2.32,7.75,5.64a5.49,5.49,0,0,1,.37,5,3.19,3.19,0,0,1-2.56,1.63h0Zm-4.87-11.83h-.3a2.7,2.7,0,0,0-2.18,1.38,5,5,0,0,0,.38,4.56c1.44,3.16,4.67,5.56,7.25,5.37a2.69,2.69,0,0,0,2.18-1.38,5,5,0,0,0-.38-4.56C212.1,37.22,209,34.88,206.53,34.88Zm4,9.62c-1.65,0-3.76-1.6-4.79-3.64a3.74,3.74,0,0,1-.21-3.43,1.9,1.9,0,0,1,1.62-.93h0c1.77-.11,4,1.53,4.95,3.64a3.72,3.72,0,0,1,.21,3.42,1.92,1.92,0,0,1-1.63.93ZM207.22,37a1.48,1.48,0,0,0-1.22.69,3.31,3.31,0,0,0,.23,3c1,1.94,3,3.45,4.46,3.36a1.48,1.48,0,0,0,1.23-.69,3.32,3.32,0,0,0-.24-3c-.87-1.94-2.86-3.46-4.46-3.36Z"></path><g class="cls-2"><path class="cls-44" d="M212.41,45.94c-2.6.2-6-2.2-7.5-5.5s-.7-6,2-6.3,6,2.2,7.5,5.5S215.11,45.74,212.41,45.94Zm-4.5-9.6c-1.7.1-2.2,1.9-1.2,4s3.1,3.6,4.7,3.5,2.2-1.9,1.2-4-3-3.6-4.7-3.5"></path><path class="cls-5" d="M212.1,46.21c-2.7,0-6-2.47-7.42-5.66a5.52,5.52,0,0,1-.37-5,3.2,3.2,0,0,1,2.57-1.63c2.76-.21,6.24,2.32,7.76,5.64,1,2,1.08,3.86.33,5.15a3,3,0,0,1-2.54,1.5Zm-4.87-11.83h-.3a2.7,2.7,0,0,0-2.18,1.38,5,5,0,0,0,.38,4.56c1.44,3.16,4.67,5.55,7.26,5.37h0a2.59,2.59,0,0,0,2.15-1.26c.65-1.13.52-2.88-.36-4.69C212.8,36.72,209.74,34.38,207.23,34.38Zm4,9.72c-1.65,0-3.76-1.6-4.79-3.64a3.74,3.74,0,0,1-.21-3.43,1.9,1.9,0,0,1,1.62-.93c1.85-.1,4,1.49,5,3.65a3.7,3.7,0,0,1,.21,3.41,1.92,1.92,0,0,1-1.63.93Zm-3.2-7.51h-.15a1.48,1.48,0,0,0-1.22.69,3.31,3.31,0,0,0,.23,3c1,1.94,3,3.44,4.46,3.36a1.48,1.48,0,0,0,1.23-.69,3.35,3.35,0,0,0-.24-3C211.57,38.06,209.67,36.59,208.07,36.59Z"></path></g></g><g class="cls-2"><path class="cls-43" d="M364.91,146.34a2.69,2.69,0,0,1-2.7-2.4,5.68,5.68,0,0,1,3.1-5.6,4.21,4.21,0,0,1,1.8-.4,2.69,2.69,0,0,1,2.7,2.4,5.68,5.68,0,0,1-3.1,5.6A4.21,4.21,0,0,1,364.91,146.34Z"></path><path class="cls-5" d="M364.91,146.6a2.94,2.94,0,0,1-3-2.62,5.94,5.94,0,0,1,3.24-5.86,4.46,4.46,0,0,1,1.91-.43,2.94,2.94,0,0,1,2.95,2.62,5.93,5.93,0,0,1-3.25,5.86A4.5,4.5,0,0,1,364.91,146.6Zm2.2-8.41a4,4,0,0,0-1.7.38,5.43,5.43,0,0,0-3,5.34,2.46,2.46,0,0,0,2.46,2.19,3.89,3.89,0,0,0,1.69-.38,5.43,5.43,0,0,0,3-5.34A2.44,2.44,0,0,0,367.11,138.19Z"></path><g class="cls-2"><path class="cls-44" d="M364.71,145.94a2.69,2.69,0,0,1-2.7-2.4,5.68,5.68,0,0,1,3.1-5.6,4.21,4.21,0,0,1,1.8-.4,2.69,2.69,0,0,1,2.7,2.4,5.68,5.68,0,0,1-3.1,5.6A4.21,4.21,0,0,1,364.71,145.94Z"></path><path class="cls-5" d="M364.71,146.19a2.93,2.93,0,0,1-2.95-2.61,5.94,5.94,0,0,1,3.24-5.86,4.41,4.41,0,0,1,1.91-.42,2.93,2.93,0,0,1,2.95,2.61,5.94,5.94,0,0,1-3.24,5.86A4.51,4.51,0,0,1,364.71,146.19Zm2.2-8.39a4,4,0,0,0-1.7.37,5.4,5.4,0,0,0-2.95,5.34,2.43,2.43,0,0,0,2.45,2.18,3.88,3.88,0,0,0,1.69-.37,5.43,5.43,0,0,0,3-5.34A2.43,2.43,0,0,0,366.91,137.8Z"></path></g></g><path class="cls-4" d="M298.71,87.74,321,15a3.12,3.12,0,0,1,3.9-2.1l25.9,7.9a3.12,3.12,0,0,1,2.1,3.9l-22.3,72.7a3.12,3.12,0,0,1-3.9,2.1l-25.9-7.9A3.11,3.11,0,0,1,298.71,87.74Z"></path><path class="cls-5" d="M327.61,99.93a3.28,3.28,0,0,1-1-.15l-25.9-7.9a3.13,3.13,0,0,1-1.94-1.51,3.45,3.45,0,0,1-.32-2.7h0L320.77,15A3.37,3.37,0,0,1,325,12.71l25.9,7.9a3.28,3.28,0,0,1,2,1.64,3.35,3.35,0,0,1,.26,2.57l-22.3,72.7a3.37,3.37,0,0,1-3.24,2.41ZM299,87.82a2.94,2.94,0,0,0,.27,2.3,2.66,2.66,0,0,0,1.65,1.28l25.91,7.91a2.88,2.88,0,0,0,3.59-1.94l22.3-72.7a2.89,2.89,0,0,0-.22-2.19,2.84,2.84,0,0,0-1.71-1.4l-25.91-7.9a2.86,2.86,0,0,0-2.18.22,2.8,2.8,0,0,0-1.4,1.72L299,87.82Z"></path><rect x="333.7" y="18.3" width="1" height="22.6" transform="translate(207.95 340.45) rotate(-72.96)"></rect><rect x="334.59" y="16.14" width="0.5" height="22.6" transform="translate(210.47 339.53) rotate(-72.96)"></rect><rect x="332.95" y="21.42" width="0.5" height="22.6" transform="translate(204.25 341.7) rotate(-72.96)"></rect><rect x="333.22" y="20.44" width="0.5" height="22.6" transform="translate(205.38 341.26) rotate(-72.96)"></rect><rect x="335.75" y="12.25" width="0.5" height="22.6" transform="translate(215.01 337.89) rotate(-72.96)"></rect><rect x="335.33" y="13.77" width="0.5" height="22.6" transform="translate(213.26 338.56) rotate(-72.96)"></rect><rect x="335.87" y="11.05" width="1" height="22.6" transform="translate(216.41 337.4) rotate(-72.96)"></rect><rect x="332.68" y="22.4" width="0.5" height="22.6" transform="translate(203.13 342.13) rotate(-72.96)"></rect><rect x="329.39" y="32.32" width="1" height="22.6" transform="translate(191.49 346.23) rotate(-72.96)"></rect><rect x="328.34" y="35.03" width="1.5" height="22.6" transform="translate(188.34 347.39) rotate(-72.96)"></rect><rect x="328.37" y="36.42" width="0.5" height="22.6" transform="translate(186.68 347.92) rotate(-72.96)"></rect><rect x="327.71" y="37.69" width="1" height="22.6" transform="translate(185.17 348.43) rotate(-72.96)"></rect><rect x="330.4" y="28.97" width="1" height="22.6" transform="translate(195.41 344.83) rotate(-72.96)"></rect><rect x="329.77" y="30.9" width="1" height="22.6" transform="translate(193.12 345.59) rotate(-72.96)"></rect><rect x="331.03" y="27.03" width="1" height="22.6" transform="translate(197.71 344.07) rotate(-72.96)"></rect><rect x="331.68" y="24.63" width="1" height="22.6" transform="translate(200.46 342.99) rotate(-72.96)"></rect><rect x="325.03" y="46.64" width="1" height="22.6" transform="translate(174.73 352.19) rotate(-72.96)"></rect><rect x="325.92" y="44.47" width="0.5" height="22.6" transform="translate(177.25 351.27) rotate(-72.96)"></rect><rect x="324.27" y="49.75" width="0.5" height="22.6" transform="translate(171.04 353.43) rotate(-72.96)"></rect><rect x="324.54" y="48.77" width="0.5" height="22.6" transform="translate(172.16 353) rotate(-72.96)"></rect><rect x="327.08" y="40.58" width="0.5" height="22.6" transform="translate(181.79 349.62) rotate(-72.96)"></rect><rect x="326.69" y="42" width="0.5" height="22.6" transform="translate(180.15 350.26) rotate(-72.96)"></rect><rect x="327.19" y="39.38" width="1" height="22.6" transform="translate(183.19 349.13) rotate(-72.96)"></rect><rect x="324.01" y="50.73" width="0.5" height="22.6" transform="translate(169.91 353.87) rotate(-72.96)"></rect><rect x="320.71" y="60.65" width="1" height="22.6" transform="translate(158.28 357.97) rotate(-72.96)"></rect><rect x="319.67" y="63.36" width="1.5" height="22.6" transform="translate(155.12 359.12) rotate(-72.96)"></rect><rect x="319.69" y="64.75" width="0.5" height="22.6" transform="translate(153.46 359.65) rotate(-72.96)"></rect><rect x="319.07" y="65.93" width="1" height="22.6" transform="translate(152.07 360.13) rotate(-72.96)"></rect><rect x="321.72" y="57.3" width="1" height="22.6" transform="translate(162.2 356.56) rotate(-72.96)"></rect><rect x="321.09" y="59.23" width="1" height="22.6" transform="translate(159.9 357.33) rotate(-72.96)"></rect><rect x="322.35" y="55.37" width="1" height="22.6" transform="translate(164.49 355.8) rotate(-72.96)"></rect><rect x="323.03" y="52.87" width="1" height="22.6" transform="translate(167.35 354.68) rotate(-72.96)"></rect><rect x="316.97" y="72.83" width="1" height="22.6" transform="translate(143.99 363) rotate(-72.96)"></rect><rect x="317.49" y="70.21" width="1.5" height="22.6" transform="translate(147.03 361.89) rotate(-72.96)"></rect><rect x="318.49" y="68.73" width="0.5" height="22.6" transform="translate(148.81 361.32) rotate(-72.96)"></rect><rect x="318.61" y="67.53" width="1" height="22.6" transform="translate(150.21 360.83) rotate(-72.96)"></rect><rect x="315.93" y="76.28" width="1" height="22.6" transform="translate(139.96 364.45) rotate(-72.96)"></rect><rect x="316.47" y="74.31" width="1" height="22.6" transform="translate(142.21 363.57) rotate(-72.96)"></rect><rect x="315.3" y="78.21" width="1" height="22.6" transform="translate(137.66 365.21) rotate(-72.96)"></rect><path class="cls-4" d="M337.71,65.34h0a4,4,0,0,0,3.9,4.2l2.3.1a4,4,0,0,0,4.2-3.9h0a4,4,0,0,0-3.9-4.2l-2.3-.1A4.1,4.1,0,0,0,337.71,65.34Z"></path><path class="cls-5" d="M344.09,69.9h-.19l-2.3-.1a4.31,4.31,0,0,1-3-1.39,4.23,4.23,0,0,1-1.11-3.07l.25,0-.25,0a4.35,4.35,0,0,1,4.46-4.13l2.3.09a4.38,4.38,0,0,1,3,1.4,4.33,4.33,0,0,1-.29,6.09A4.19,4.19,0,0,1,344.09,69.9Zm-2.35-8.21A3.86,3.86,0,0,0,338,65.36a3.69,3.69,0,0,0,1,2.7,3.79,3.79,0,0,0,2.68,1.23l2.3.1a3.69,3.69,0,0,0,2.7-1,3.84,3.84,0,0,0,1.24-2.68,3.74,3.74,0,0,0-1-2.7,3.86,3.86,0,0,0-2.68-1.24l-2.3-.1Z"></path><path class="cls-4" d="M337.71,58.44h0a4,4,0,0,0,3.9,4.2l3.8.2a4,4,0,0,0,4.2-3.9h0a4,4,0,0,0-3.9-4.2l-3.8-.2A4.1,4.1,0,0,0,337.71,58.44Z"></path><path class="cls-5" d="M345.59,63.1h-.19l-3.81-.2a4.31,4.31,0,0,1-3-1.39,4.23,4.23,0,0,1-1.11-3.07,4.34,4.34,0,0,1,4.46-4.13l3.8.2a4.33,4.33,0,0,1,3,1.39,4.33,4.33,0,0,1-.29,6.09A4.19,4.19,0,0,1,345.59,63.1Zm-7.88-4.66.25,0a3.69,3.69,0,0,0,1,2.7,3.81,3.81,0,0,0,2.68,1.23l3.8.21a3.73,3.73,0,0,0,2.7-1,3.84,3.84,0,0,0,1.24-2.68,3.74,3.74,0,0,0-1-2.7A3.86,3.86,0,0,0,345.7,55l-3.81-.2A3.88,3.88,0,0,0,338,58.46Z"></path><path class="cls-4" d="M338.31,43.44h0a4,4,0,0,0,3.9,4.2l3.8.2a4,4,0,0,0,4.2-3.9h0a4,4,0,0,0-3.9-4.2l-3.8-.2A4.17,4.17,0,0,0,338.31,43.44Z"></path><path class="cls-5" d="M346.19,48.1H346l-3.81-.2a4.31,4.31,0,0,1-3-1.39,4.23,4.23,0,0,1-1.11-3.07,4.45,4.45,0,0,1,4.45-4.14l3.81.21a4.33,4.33,0,0,1,3,1.39,4.33,4.33,0,0,1-.29,6.09A4.19,4.19,0,0,1,346.19,48.1Zm-7.88-4.66.25,0a3.69,3.69,0,0,0,1,2.7,3.81,3.81,0,0,0,2.68,1.23l3.8.21a3.78,3.78,0,0,0,2.7-1A3.89,3.89,0,0,0,350,43.93a3.74,3.74,0,0,0-1-2.7A3.86,3.86,0,0,0,346.3,40l-3.81-.2a3.94,3.94,0,0,0-3.93,3.67Z"></path><path class="cls-4" d="M337.71,51h0a4,4,0,0,0,3.9,4.2l6,.3a4,4,0,0,0,4.2-3.9h0a4,4,0,0,0-3.9-4.2l-6-.3A4.17,4.17,0,0,0,337.71,51Z"></path><path class="cls-5" d="M347.79,55.8h-.19l-6-.3a4.31,4.31,0,0,1-3-1.39A4.23,4.23,0,0,1,337.46,51a4.45,4.45,0,0,1,4.45-4.14l6,.31a4.33,4.33,0,0,1,3,1.39,4.33,4.33,0,0,1-.29,6.09A4.19,4.19,0,0,1,347.79,55.8ZM338,51.06a3.69,3.69,0,0,0,1,2.7A3.81,3.81,0,0,0,341.62,55l6,.31a3.78,3.78,0,0,0,2.7-1,3.89,3.89,0,0,0,1.24-2.69,3.74,3.74,0,0,0-1-2.7,3.86,3.86,0,0,0-2.68-1.24l-6-.3A3.94,3.94,0,0,0,338,51.06Z"></path><path class="cls-4" d="M296.51,51.64c.8-1.8,5.2-7.8,8.5-11.4a11.68,11.68,0,0,0,2.8-7.1l.2-6.8s1.4-8.1,7.4.2a11.4,11.4,0,0,1,1.9,7.1,13.47,13.47,0,0,1-3.7,8.9,2.7,2.7,0,0,1-1.1.9"></path><path class="cls-5" d="M296.74,51.75l-.46-.21c.79-1.78,5.16-7.77,8.54-11.46a11.47,11.47,0,0,0,2.74-6.94l.2-6.8c0-.17.58-3.28,2.53-3.73,1.47-.33,3.26.93,5.32,3.79a11.64,11.64,0,0,1,1.95,7.26,13.69,13.69,0,0,1-3.77,9.06,2.8,2.8,0,0,1-1.2,1l-.16-.47a2.54,2.54,0,0,0,1-.82,13.18,13.18,0,0,0,3.65-8.75,11.12,11.12,0,0,0-1.86-6.95c-1.9-2.64-3.56-3.88-4.79-3.6-1.63.38-2.15,3.27-2.16,3.3l-.19,6.76a12,12,0,0,1-2.86,7.26C301.84,44.07,297.51,50,296.74,51.75Z"></path><g class="cls-2"><path class="cls-8" d="M7.41,106.24l3.3,3.4c-3.4,4.4-3.3,10.8,0,14.4.2.3.5.4.7.7,3.4,2.8,8.5,2,11.8-1.9l3.3,3.4c-5.1,6.1-12.8,7.4-18,3.1a11.41,11.41,0,0,1-1.1-1.1,14.66,14.66,0,0,1-3.8-10.7A17.74,17.74,0,0,1,7.41,106.24Z"></path><path class="cls-5" d="M15.51,132.11a11.11,11.11,0,0,1-7.16-2.57c-.15-.15-.28-.26-.4-.37a7,7,0,0,1-.74-.77,14.91,14.91,0,0,1-3.85-10.86,18,18,0,0,1,3.85-11.45l.18-.22L11,109.63l-.13.17c-3.26,4.21-3.27,10.53,0,14.08a1.61,1.61,0,0,0,.32.32,1.65,1.65,0,0,1,.38.37c3.32,2.71,8.22,1.9,11.43-1.89l.17-.21,3.65,3.76-.14.18A14.86,14.86,0,0,1,15.51,132.11ZM7.43,106.63a17.4,17.4,0,0,0-3.57,10.91,14.45,14.45,0,0,0,3.73,10.53,6.26,6.26,0,0,0,.7.73c.13.11.25.23.39.37,5,4.15,12.51,2.89,17.49-2.91l-3-3.05c-3.4,3.83-8.5,4.59-12,1.73l-.05-.06a1.38,1.38,0,0,0-.3-.29,1.57,1.57,0,0,1-.4-.41c-3.34-3.64-3.39-10.12-.12-14.52Z"></path><path class="cls-4" d="M6.41,105.94l3.3,3.4c-3.4,4.4-3.3,10.8,0,14.4.2.3.5.4.7.7,3.4,2.8,8.5,2,11.8-1.9l3.3,3.4c-5.1,6.1-12.8,7.4-18,3.1a11.41,11.41,0,0,1-1.1-1.1,14.66,14.66,0,0,1-3.8-10.7A17.74,17.74,0,0,1,6.41,105.94Z"></path><path class="cls-5" d="M14.51,131.81a11.11,11.11,0,0,1-7.16-2.57L7,128.87a6.17,6.17,0,0,1-.75-.77,14.91,14.91,0,0,1-3.85-10.86,18,18,0,0,1,3.85-11.45l.18-.23L10,109.33l-.13.17c-3.26,4.21-3.27,10.53,0,14.08a1.61,1.61,0,0,0,.32.32,1.65,1.65,0,0,1,.38.37c3.32,2.71,8.22,1.9,11.43-1.89l.17-.21,3.65,3.76-.14.17A14.84,14.84,0,0,1,14.51,131.81ZM6.43,106.33a17.42,17.42,0,0,0-3.57,10.91,14.45,14.45,0,0,0,3.73,10.53,5.55,5.55,0,0,0,.7.73c.13.11.25.23.39.37,5,4.15,12.51,2.89,17.49-2.91l-3-3c-3.4,3.83-8.5,4.59-12,1.73l-.05-.06a1.38,1.38,0,0,0-.3-.29,1.74,1.74,0,0,1-.4-.41c-3.34-3.64-3.39-10.12-.12-14.51Z"></path></g><g class="cls-2"><polyline class="cls-43" points="357.91 113.75 358.61 113.94 363.31 115.34 365.01 109.05 368.41 110.44 369.11 106.84 363.41 104.64 361.91 110.34 362.01 110.44 361.91 110.34 361.61 111.44 356.31 109.84 354.21 116.64 349.01 115.05 346.51 122.94 348.71 124.44 350.51 118.84 350.51 118.84 351.21 119.14 355.81 120.64 357.91 113.75"></polyline><path class="cls-5" d="M348.84,124.84l-2.63-1.79,2.63-8.32,5.2,1.6,2.1-6.8,5.29,1.6.24-.85,1.57-6,6.15,2.38-.8,4.1-3.41-1.41-1.7,6.28-5.4-1.61L356,121l-4.84-1.58-.47-.2Zm-2-2,1.77,1.21,1.78-5.54,1,.4,4.33,1.42,2.1-6.89.94.26,4.45,1.33,1.71-6.32,3.38,1.39.6-3.1-5.24-2-1.43,5.43-.08,0h0l.09,0-.37,1.35-5.31-1.6-2.1,6.8-5.2-1.6Z"></path></g><g class="cls-2"><polyline class="cls-37" points="357.31 113.44 358.01 113.64 362.61 115.05 364.31 108.75 367.81 110.05 368.51 106.55 362.81 104.34 361.21 110.05 361.31 110.05 361.21 110.05 361.01 111.14 355.71 109.44 353.51 116.34 348.41 114.64 345.81 122.64 348.11 124.05 349.91 118.44 349.91 118.44 350.61 118.84 355.21 120.34 357.31 113.44"></polyline><path class="cls-5" d="M348.25,124.42l-2.74-1.66,2.74-8.43,5.1,1.7,2.2-6.9,5.26,1.69.1-.53h0l1.76-6.28,6.15,2.38-.8,4-3.51-1.31-1.7,6.29-5.31-1.61-2.1,6.91-4.84-1.58-.48-.27Zm-2.14-1.89,1.86,1.14,1.79-5.6,1,.56L355,120l2.1-6.89.94.26,4.35,1.33,1.71-6.31,3.48,1.29.6-3-5.25-2-1.52,5.42-.25,1.37-5.33-1.71-2.2,6.9-5.1-1.7Z"></path></g><g class="cls-2"><polyline class="cls-43" points="124.01 38.84 124.31 39.65 126.11 44.74 132.91 42.15 133.91 46.15 137.61 44.45 135.81 37.84 129.71 40.24 129.71 40.34 129.71 40.24 128.51 40.65 126.61 34.84 119.01 37.34 117.11 31.64 108.21 34.55 108.41 37.65 114.61 35.55 114.61 35.55 114.81 36.34 116.41 41.55 124.01 38.84"></polyline><path class="cls-5" d="M133.74,46.5l-1-4L126,45.07l-2.1-5.91-7.61,2.71-1.82-6L108.18,38,108,34.37l9.32-3,1.9,5.7,7.6-2.5,1.9,5.8,1-.32,6.36-2.5,1.92,7.07Zm-.66-4.69,1,4,3.23-1.48-1.67-6.13-5.84,2.3-.06-.13,0,.13-1.44.48-1.9-5.8-7.6,2.5L117,32l-8.48,2.76.17,2.58,6.14-2.08.27,1.06,1.52,4.94,7.59-2.69.38,1,1.72,4.86Z"></path></g><g class="cls-2"><polyline class="cls-45" points="123.91 38.05 124.21 38.84 126.01 43.95 132.81 41.34 133.81 45.34 137.51 43.65 135.71 37.05 129.51 39.45 129.61 39.55 129.51 39.45 128.41 39.84 126.41 34.05 118.81 36.65 116.91 30.95 108.11 33.74 108.31 36.84 114.51 34.74 114.51 34.74 114.71 35.55 116.31 40.74 123.91 38.05"></polyline><path class="cls-5" d="M133.64,45.7l-1-4-6.77,2.59-2.1-5.91-7.61,2.71-1.82-6-6.25,2.12-.23-3.62,9.22-2.94,1.9,5.7,7.59-2.6,2,5.79.86-.31,6.46-2.5,1.92,7.07ZM133,41l1,4,3.23-1.48-1.67-6.13-5.94,2.3,0-.09h0l0,.09-1.34.49-2-5.81-7.6,2.6-1.9-5.7-8.38,2.66.17,2.58,6.14-2.08.27,1.06,1.52,4.94,7.59-2.69.38,1,1.72,4.86Z"></path></g><g class="cls-2"><path class="cls-37" d="M196.11,19a2.73,2.73,0,0,1-.9,3.5,5.42,5.42,0,0,1-6.4-.3,3.13,3.13,0,0,1-1.2-1.4,2.73,2.73,0,0,1,.9-3.5,5.42,5.42,0,0,1,6.4.3A2.69,2.69,0,0,1,196.11,19Z"></path><path class="cls-5" d="M192.3,23.71a5.75,5.75,0,0,1-3.65-1.27,3.36,3.36,0,0,1-1.27-1.5,3,3,0,0,1,1-3.8,5.66,5.66,0,0,1,6.71.31,3,3,0,0,1,1.27,1.49,3,3,0,0,1-1,3.8A5,5,0,0,1,192.3,23.71Zm-.9-7a4.57,4.57,0,0,0-2.74.84,2.48,2.48,0,0,0-.83,3.19A3,3,0,0,0,189,22a5.21,5.21,0,0,0,6.11.31,2.48,2.48,0,0,0,.82-3.19v0a2.46,2.46,0,0,0-1.08-1.27A5.38,5.38,0,0,0,191.4,16.7Z"></path><g class="cls-2"><path class="cls-37" d="M195.91,19.34a2.73,2.73,0,0,1-.9,3.5,5.42,5.42,0,0,1-6.4-.3,3.13,3.13,0,0,1-1.2-1.4,2.73,2.73,0,0,1,.9-3.5,5.42,5.42,0,0,1,6.4.3A5.26,5.26,0,0,1,195.91,19.34Z"></path><path class="cls-5" d="M192.1,24a5.75,5.75,0,0,1-3.65-1.27,3.3,3.3,0,0,1-1.27-1.5,3,3,0,0,1,1-3.8,5.58,5.58,0,0,1,8,1.78h0a3,3,0,0,1-1,3.82A5.07,5.07,0,0,1,192.1,24Zm-.89-7a4.54,4.54,0,0,0-2.75.85,2.48,2.48,0,0,0-.83,3.19,2.9,2.9,0,0,0,1.12,1.31,5.21,5.21,0,0,0,6.11.31,2.49,2.49,0,0,0,.83-3.18,5,5,0,0,0-1.14-1.33A5.27,5.27,0,0,0,191.21,17Z"></path></g></g><g class="cls-2"><path class="cls-8" d="M316.61,163.74l3.3-3.4c4.5,3.2,10.9,3,14.4-.5.3-.2.4-.5.7-.7,2.6-3.5,1.7-8.5-2.3-11.7L336,144c6.2,4.8,7.8,12.5,3.7,17.9a10,10,0,0,1-1,1.1,14.72,14.72,0,0,1-10.5,4.2A18.74,18.74,0,0,1,316.61,163.74Z"></path><path class="cls-5" d="M327.71,167.5A18.92,18.92,0,0,1,316.46,164l-.23-.17,3.65-3.76.17.12c4.39,3.12,10.7,2.91,14.08-.47a1.29,1.29,0,0,0,.33-.33,2.18,2.18,0,0,1,.37-.38c2.51-3.41,1.53-8.27-2.28-11.32l-.21-.17,3.64-3.76.18.14c6.32,4.89,7.93,12.74,3.75,18.25a9.5,9.5,0,0,1-1,1.11,14.9,14.9,0,0,1-10.68,4.28ZM317,163.71A18.47,18.47,0,0,0,328.2,167a14.45,14.45,0,0,0,10.33-4.12,10.27,10.27,0,0,0,1-1.07c4-5.24,2.47-12.69-3.48-17.42l-2.95,3c3.86,3.24,4.78,8.3,2.13,11.87l-.06.06a1.42,1.42,0,0,0-.3.3,1.68,1.68,0,0,1-.4.4c-3.52,3.53-9.87,3.8-14.51.62Z"></path><path class="cls-4" d="M316.21,162.74l3.3-3.4c4.5,3.2,10.9,3,14.4-.5.3-.2.4-.5.7-.7,2.6-3.5,1.7-8.5-2.3-11.7l3.3-3.4c6.2,4.8,7.8,12.5,3.7,17.9a10,10,0,0,1-1,1.1,14.72,14.72,0,0,1-10.5,4.2A18.94,18.94,0,0,1,316.21,162.74Z"></path><path class="cls-5" d="M327.32,166.5A19.2,19.2,0,0,1,316.06,163l-.23-.17,3.65-3.76.17.12c4.39,3.12,10.7,2.91,14.08-.47a1.29,1.29,0,0,0,.33-.33,2.18,2.18,0,0,1,.37-.38c2.51-3.41,1.53-8.27-2.28-11.32l-.21-.17,3.64-3.76.18.14c6.32,4.89,7.93,12.74,3.75,18.25a9.5,9.5,0,0,1-1,1.11,14.9,14.9,0,0,1-10.68,4.28Zm-10.73-3.79A18.76,18.76,0,0,0,327.8,166a14.45,14.45,0,0,0,10.33-4.12,10.27,10.27,0,0,0,1-1.07c4-5.24,2.47-12.69-3.48-17.42l-2.95,3c3.86,3.24,4.78,8.3,2.13,11.87l-.06.06a1.42,1.42,0,0,0-.3.3,1.68,1.68,0,0,1-.4.4c-3.52,3.53-9.87,3.8-14.51.62Z"></path></g><g class="cls-2"><path class="cls-37" d="M55.71,118.64a2.78,2.78,0,0,1-2.9-2.1,5.43,5.43,0,0,1,2.7-5.8,4.36,4.36,0,0,1,1.7-.6,2.78,2.78,0,0,1,2.9,2.1,5.43,5.43,0,0,1-2.7,5.8A2.72,2.72,0,0,1,55.71,118.64Z"></path><path class="cls-5" d="M55.48,118.9a3,3,0,0,1-2.91-2.29,5.68,5.68,0,0,1,2.82-6.09,4.23,4.23,0,0,1,1.68-.6l.09,0a3,3,0,0,1,3.19,2.28,5.68,5.68,0,0,1-2.83,6.09,2.91,2.91,0,0,1-1.8.62Zm2-8.51h-.2l-.07,0a4,4,0,0,0-1.51.54,5.19,5.19,0,0,0-2.6,5.54,2.52,2.52,0,0,0,2.64,1.91h0a2.49,2.49,0,0,0,1.54-.54,5.17,5.17,0,0,0,2.61-5.55A2.52,2.52,0,0,0,57.43,110.39Z"></path><g class="cls-2"><path class="cls-37" d="M55.51,118.34a2.78,2.78,0,0,1-2.9-2.1,5.43,5.43,0,0,1,2.7-5.8,4.36,4.36,0,0,1,1.7-.6,2.78,2.78,0,0,1,2.9,2.1,5.43,5.43,0,0,1-2.7,5.8A5.78,5.78,0,0,1,55.51,118.34Z"></path><path class="cls-5" d="M55.29,118.6a3,3,0,0,1-2.92-2.29,5.68,5.68,0,0,1,2.82-6.09,4.23,4.23,0,0,1,1.68-.6l.09,0a3,3,0,0,1,3.19,2.28A5.68,5.68,0,0,1,57.32,118a6.22,6.22,0,0,1-1.76.62h-.27Zm1.94-8.51H57l-.07,0a3.84,3.84,0,0,0-1.51.54,5.19,5.19,0,0,0-2.6,5.54,2.53,2.53,0,0,0,2.62,1.91,5.49,5.49,0,0,0,1.61-.57A5.15,5.15,0,0,0,59.66,112,2.52,2.52,0,0,0,57.23,110.09Z"></path></g></g><g class="cls-2"><path class="cls-8" d="M170.61,33l-4.5-1.3c.7-5.5-2.5-11-7.2-12.5a5.39,5.39,0,0,1-1-.3c-4.3-.7-8.3,2.5-9.2,7.6l-4.5-1.3c1.3-7.8,7.3-12.8,14-11.7a11.31,11.31,0,0,1,1.5.4,14.45,14.45,0,0,1,8.7,7.3A19.45,19.45,0,0,1,170.61,33Z"></path><path class="cls-5" d="M170.81,33.36l-5-1.43,0-.22c.68-5.38-2.4-10.75-7-12.23l-.3-.07a3.23,3.23,0,0,1-.7-.22c-4.19-.66-8,2.51-8.88,7.4l0,.27-5-1.44,0-.22c1.32-7.9,7.46-13,14.29-11.9a11.25,11.25,0,0,1,1.54.41,14.65,14.65,0,0,1,8.84,7.42,19.58,19.58,0,0,1,2.22,12Zm-4.43-1.8,4,1.16a19.21,19.21,0,0,0-2.21-11.36,14.18,14.18,0,0,0-8.55-7.17,10.87,10.87,0,0,0-1.48-.4c-6.47-1.06-12.32,3.77-13.67,11.28l4,1.16c1-5,5-8.25,9.44-7.53l.07,0a2.16,2.16,0,0,0,.61.2A2.37,2.37,0,0,1,159,19C163.77,20.53,167,26,166.38,31.56Z"></path><path class="cls-4" d="M169.91,33.74l-4.5-1.3c.7-5.5-2.5-11-7.2-12.5a5.39,5.39,0,0,1-1-.3c-4.3-.7-8.3,2.5-9.2,7.6l-4.5-1.3c1.3-7.8,7.3-12.8,14-11.7a11.31,11.31,0,0,1,1.5.4,14.45,14.45,0,0,1,8.7,7.3A20.34,20.34,0,0,1,169.91,33.74Z"></path><path class="cls-5" d="M170.12,34.07l-5-1.44,0-.22c.68-5.38-2.4-10.75-7-12.23l-.3-.07a3.23,3.23,0,0,1-.7-.22c-4.2-.67-8,2.51-8.88,7.4l0,.27-5-1.44,0-.22c1.32-7.9,7.46-13,14.29-11.9a12.43,12.43,0,0,1,1.54.41,14.65,14.65,0,0,1,8.84,7.42,20.52,20.52,0,0,1,2.23,12Zm-4.44-1.81,4,1.16a20.06,20.06,0,0,0-2.2-11.36,14.18,14.18,0,0,0-8.55-7.17,10.15,10.15,0,0,0-1.48-.4c-6.48-1.07-12.32,3.77-13.67,11.28l4,1.16c1-5,5-8.25,9.44-7.53l.07,0a2.16,2.16,0,0,0,.61.2,2.37,2.37,0,0,1,.36.09C163.07,21.23,166.29,26.72,165.68,32.26Z"></path></g><path class="cls-46" d="M53.41,62.94l-3.6,3.5a2,2,0,0,1-1.5.6,3,3,0,0,1-1.6-.5h0l-14.8-13a2,2,0,0,1-.1-2.9l16.3,13.7,1.8-1.7"></path><path class="cls-5" d="M48.31,67.22a3.09,3.09,0,0,1-1.69-.53l-14.83-13a2.12,2.12,0,0,1-.74-1.54,2.31,2.31,0,0,1,.63-1.61l.11-.13.13.11L48.1,64.11l1.69-1.59.24.25-1.92,1.81L31.83,50.89a2,2,0,0,0-.44,1.24A1.78,1.78,0,0,0,32,53.41l14.8,13a2.84,2.84,0,0,0,1.49.46,1.85,1.85,0,0,0,1.37-.55l3.61-3.5.24.25-3.6,3.5A2.22,2.22,0,0,1,48.31,67.22Z"></path><g class="cls-2"><path class="cls-43" d="M242.81,32.94c.7,2.5-1.1,6.4-4,8.4s-5.8,1.8-6.5-.8,1.1-6.4,4-8.4C239.21,29.94,242.11,30.34,242.81,32.94Zm-8.6,6.2c.4,1.6,2.3,1.8,4.2.5s2.9-3.7,2.5-5.3-2.3-1.8-4.2-.5-2.9,3.6-2.5,5.3"></path><path class="cls-5" d="M235.16,43a3.52,3.52,0,0,1-1.18-.19,3,3,0,0,1-1.91-2.18c-.75-2.65,1.13-6.63,4.1-8.67,1.71-1.3,3.5-1.77,4.9-1.29a3.08,3.08,0,0,1,2,2.23c.74,2.65-1.14,6.63-4.1,8.67A6.67,6.67,0,0,1,235.16,43Zm4.78-12a6,6,0,0,0-3.48,1.37c-2.77,1.91-4.59,5.71-3.91,8.14a2.54,2.54,0,0,0,1.59,1.84c1.22.43,2.91,0,4.52-1.18,2.76-1.9,4.59-5.7,3.91-8.13h0a2.58,2.58,0,0,0-1.66-1.89A3.08,3.08,0,0,0,239.94,31ZM236,40.75a2.39,2.39,0,0,1-.86-.15,1.93,1.93,0,0,1-1.2-1.39h0c-.42-1.79.7-4.18,2.6-5.56a3.87,3.87,0,0,1,3.39-.75,1.91,1.91,0,0,1,1.2,1.39c.42,1.7-.69,4.09-2.59,5.56A4.61,4.61,0,0,1,236,40.75Zm-1.57-1.66a1.43,1.43,0,0,0,.89,1,3.42,3.42,0,0,0,2.93-.69c1.71-1.33,2.77-3.55,2.39-5a1.39,1.39,0,0,0-.89-1,3.4,3.4,0,0,0-2.92.69C235.13,35.29,234.08,37.5,234.45,39.09Z"></path><g class="cls-2"><path class="cls-4" d="M242.31,32.34c.7,2.5-1.1,6.4-4,8.4s-5.8,1.8-6.5-.8,1.1-6.4,4-8.4C238.61,29.34,241.51,29.74,242.31,32.34Zm-8.7,6.2c.4,1.6,2.3,1.8,4.2.5s2.9-3.7,2.5-5.3-2.3-1.8-4.2-.5-2.9,3.7-2.5,5.3"></path><path class="cls-5" d="M234.66,42.38a3.52,3.52,0,0,1-1.18-.19A3,3,0,0,1,231.57,40c-.75-2.65,1.13-6.63,4.1-8.67A5.39,5.39,0,0,1,240.43,30a3.25,3.25,0,0,1,2.12,2.25h0c.74,2.65-1.14,6.63-4.1,8.67A6.67,6.67,0,0,1,234.66,42.38Zm4.69-12A5.72,5.72,0,0,0,236,31.74c-2.77,1.91-4.59,5.71-3.91,8.14a2.54,2.54,0,0,0,1.59,1.84c1.22.43,2.91,0,4.52-1.18,2.76-1.9,4.58-5.7,3.91-8.12a2.71,2.71,0,0,0-1.79-1.92A3.22,3.22,0,0,0,239.35,30.36Zm-3.93,9.79a2.43,2.43,0,0,1-.86-.15,1.93,1.93,0,0,1-1.2-1.39h0c-.43-1.73.74-4.22,2.6-5.57a3.87,3.87,0,0,1,3.39-.75,1.91,1.91,0,0,1,1.2,1.39c.42,1.7-.69,4.09-2.59,5.56A4.59,4.59,0,0,1,235.42,40.15Zm-1.57-1.67a1.43,1.43,0,0,0,.89,1.05,3.42,3.42,0,0,0,2.93-.69c1.71-1.33,2.77-3.55,2.39-5a1.39,1.39,0,0,0-.89-1.05,3.37,3.37,0,0,0-2.92.69c-1.68,1.21-2.78,3.52-2.4,5Z"></path></g></g><g class="cls-2"><path class="cls-43" d="M36.61,102.94c-2.3,1.2-6.4.3-9.1-2.1s-3-5.3-.6-6.6,6.4-.3,9.1,2.1S39,101.64,36.61,102.94Zm-7.9-7.2c-1.5.8-1.3,2.6.4,4.2s4.3,2.1,5.7,1.4,1.3-2.6-.4-4.2-4.2-2.1-5.7-1.4"></path><path class="cls-5" d="M34.15,103.72A10.79,10.79,0,0,1,27.34,101c-1.62-1.44-2.46-3.11-2.29-4.58A3.1,3.1,0,0,1,26.79,94c2.43-1.27,6.64-.31,9.38,2.13,1.63,1.44,2.46,3.11,2.29,4.58a3.11,3.11,0,0,1-1.73,2.42h0A5.53,5.53,0,0,1,34.15,103.72ZM29.34,94a5,5,0,0,0-2.32.5,2.62,2.62,0,0,0-1.47,2c-.15,1.31.62,2.82,2.12,4.16,2.56,2.27,6.6,3.22,8.82,2.06a2.63,2.63,0,0,0,1.48-2c.15-1.31-.63-2.82-2.13-4.16A10.41,10.41,0,0,0,29.34,94Zm4,7.92a7.09,7.09,0,0,1-4.43-1.76,3.79,3.79,0,0,1-1.47-3.07,2,2,0,0,1,1.12-1.54h0c1.63-.76,4.32-.12,6,1.44A3.82,3.82,0,0,1,36.05,100a2,2,0,0,1-1.12,1.54A3.51,3.51,0,0,1,33.37,101.89ZM28.82,96A1.53,1.53,0,0,0,28,97.12a3.37,3.37,0,0,0,1.32,2.64c1.59,1.41,4.07,2,5.42,1.36a1.5,1.5,0,0,0,.85-1.15,3.33,3.33,0,0,0-1.31-2.64C32.74,95.92,30.26,95.3,28.82,96Z"></path><g class="cls-2"><path class="cls-4" d="M37.11,102.24c-2.3,1.2-6.4.3-9.1-2.1s-3-5.3-.6-6.6,6.4-.3,9.1,2.1S39.51,100.94,37.11,102.24ZM29.21,95c-1.5.8-1.3,2.6.4,4.2s4.3,2.1,5.7,1.4,1.3-2.6-.4-4.2-4.2-2.1-5.7-1.4"></path><path class="cls-5" d="M34.65,103a10.81,10.81,0,0,1-6.81-2.7c-1.62-1.44-2.46-3.11-2.29-4.58a3.1,3.1,0,0,1,1.74-2.42c2.43-1.27,6.64-.32,9.38,2.13C38.3,96.9,39.13,98.57,39,100a3.11,3.11,0,0,1-1.73,2.42h0A5.53,5.53,0,0,1,34.65,103Zm-4.81-9.76a5,5,0,0,0-2.32.5,2.62,2.62,0,0,0-1.47,2c-.15,1.31.62,2.82,2.12,4.16,2.56,2.27,6.6,3.22,8.82,2.06a2.63,2.63,0,0,0,1.48-2c.15-1.31-.63-2.82-2.13-4.16A10.41,10.41,0,0,0,29.84,93.27Zm4,7.92a7.09,7.09,0,0,1-4.43-1.76A3.79,3.79,0,0,1,28,96.36a2,2,0,0,1,1.12-1.54h0c1.63-.76,4.32-.12,6,1.44a3.82,3.82,0,0,1,1.47,3.07,2,2,0,0,1-1.12,1.54A3.54,3.54,0,0,1,33.87,101.19Zm-4.55-5.92a1.53,1.53,0,0,0-.86,1.15,3.37,3.37,0,0,0,1.32,2.64c1.59,1.41,4.08,2,5.42,1.36a1.5,1.5,0,0,0,.85-1.15,3.33,3.33,0,0,0-1.31-2.64C33.24,95.22,30.76,94.6,29.32,95.27Z"></path></g></g><g class="cls-2"><path class="cls-43" d="M45.11,138.74c1,2.4-.4,6.4-3.1,8.8s-5.6,2.4-6.6-.1.4-6.4,3.1-8.8S44.21,136.24,45.11,138.74Zm-7.9,7.1c.6,1.6,2.5,1.6,4.2,0s2.5-4,2-5.5-2.5-1.6-4.2,0c-1.7,1.4-2.6,3.9-2,5.5"></path><path class="cls-5" d="M38.11,149.58a3.33,3.33,0,0,1-.78-.09,3,3,0,0,1-2.15-2c-1-2.52.37-6.6,3.16-9.08,1.65-1.47,3.5-2.12,4.95-1.75a2.91,2.91,0,0,1,2.05,1.94c1,2.53-.37,6.6-3.17,9.08A6.36,6.36,0,0,1,38.11,149.58Zm4.33-12.47a6,6,0,0,0-3.77,1.72c-2.6,2.32-4,6.22-3,8.52a2.57,2.57,0,0,0,1.8,1.66c1.28.3,2.88-.3,4.4-1.65,2.61-2.32,4-6.22,3-8.52h0a2.43,2.43,0,0,0-1.71-1.64A3.38,3.38,0,0,0,42.44,137.11Zm-3.55,10.18a2.07,2.07,0,0,1-.5,0A2,2,0,0,1,37,145.93h0c-.64-1.71.29-4.31,2.08-5.78a3.7,3.7,0,0,1,3.17-1.2,2,2,0,0,1,1.42,1.31c.54,1.61-.39,4.2-2.06,5.77A4.16,4.16,0,0,1,38.89,147.29Zm-1.45-1.53a1.48,1.48,0,0,0,1.07,1,3.2,3.2,0,0,0,2.73-1.09c1.52-1.42,2.4-3.82,1.93-5.24a1.49,1.49,0,0,0-1.06-1,3.2,3.2,0,0,0-2.73,1.09c-1.62,1.33-2.5,3.72-1.94,5.23Z"></path><path class="cls-44" d="M44.51,138.24c1,2.4-.4,6.4-3.1,8.8s-5.6,2.4-6.6-.1.4-6.4,3.1-8.8S43.51,135.74,44.51,138.24Zm-7.9,7.1c.6,1.6,2.5,1.6,4.2,0s2.5-4,2-5.5-2.5-1.6-4.2,0c-1.7,1.4-2.6,3.9-2,5.5"></path><path class="cls-5" d="M37.51,149.08a3.33,3.33,0,0,1-.78-.09,3,3,0,0,1-2.15-2c-1-2.52.37-6.6,3.16-9.08,1.59-1.47,3.33-2.14,4.78-1.81a3.17,3.17,0,0,1,2.22,2c1,2.52-.37,6.6-3.17,9.08A6.36,6.36,0,0,1,37.51,149.08Zm4.26-12.51a5.73,5.73,0,0,0-3.69,1.76c-2.61,2.32-4,6.22-3,8.52a2.57,2.57,0,0,0,1.8,1.66c1.28.3,2.88-.3,4.4-1.65,2.61-2.32,4-6.22,3-8.52h0a2.63,2.63,0,0,0-1.87-1.7A2.73,2.73,0,0,0,41.77,136.57Zm-3.48,10.22a2.07,2.07,0,0,1-.5,0,2,2,0,0,1-1.42-1.31h0c-.64-1.71.29-4.31,2.08-5.78a3.7,3.7,0,0,1,3.17-1.2A2,2,0,0,1,43,139.76c.54,1.61-.39,4.2-2.06,5.77A4.16,4.16,0,0,1,38.29,146.79Zm-1.45-1.53a1.48,1.48,0,0,0,1.07,1,3.2,3.2,0,0,0,2.73-1.09c1.52-1.42,2.4-3.82,1.93-5.24a1.49,1.49,0,0,0-1.06-1A3.23,3.23,0,0,0,38.78,140c-1.62,1.33-2.5,3.72-1.94,5.23Z"></path></g><g class="cls-2"><path class="cls-43" d="M318.41,123.94c-2.3,1.1-6.5,0-8.9-2.5-2.6-2.5-2.7-5.4-.3-6.6s6.5,0,8.9,2.5C320.71,119.84,320.81,122.84,318.41,123.94Zm-7.6-7.5c-1.5.7-1.4,2.6.2,4.2s4.2,2.3,5.6,1.6,1.4-2.6-.2-4.2-4-2.3-5.6-1.6"></path><path class="cls-5" d="M316.26,124.63a10.19,10.19,0,0,1-6.93-3c-1.53-1.47-2.28-3.15-2.06-4.61a3.15,3.15,0,0,1,1.83-2.39c2.46-1.18,6.75,0,9.19,2.55a5.64,5.64,0,0,1,2,4.71,3,3,0,0,1-1.83,2.29A5.2,5.2,0,0,1,316.26,124.63Zm-4.93-10a4.71,4.71,0,0,0-2,.4,2.66,2.66,0,0,0-1.56,2c-.2,1.3.5,2.82,1.92,4.18,2.27,2.37,6.38,3.53,8.62,2.46h0a2.55,2.55,0,0,0,1.55-1.92,5.17,5.17,0,0,0-1.92-4.27A9.78,9.78,0,0,0,311.33,114.67Zm4,8.08a7.09,7.09,0,0,1-4.53-1.92,3.76,3.76,0,0,1-1.31-3.13,2,2,0,0,1,1.17-1.48h0c1.65-.72,4.23,0,5.87,1.65a3.75,3.75,0,0,1,1.31,3.12,2,2,0,0,1-1.18,1.48A3,3,0,0,1,315.37,122.75Zm-4.46-6.08a1.49,1.49,0,0,0-.89,1.12,3.28,3.28,0,0,0,1.16,2.68c1.56,1.46,4.05,2.19,5.32,1.55a1.5,1.5,0,0,0,.9-1.12,3.29,3.29,0,0,0-1.17-2.68C314.74,116.74,312.36,116,310.91,116.67Z"></path><g class="cls-2"><path class="cls-4" d="M318.91,123.24c-2.3,1.1-6.5,0-8.9-2.5-2.6-2.5-2.7-5.4-.3-6.6s6.5,0,8.9,2.5C321.21,119.24,321.31,122.14,318.91,123.24Zm-7.6-7.4c-1.5.7-1.4,2.6.2,4.2s4.2,2.3,5.6,1.6,1.4-2.6-.2-4.2-4-2.3-5.6-1.6"></path><path class="cls-5" d="M316.76,123.93a10.19,10.19,0,0,1-6.93-3c-1.53-1.47-2.28-3.15-2.06-4.61a3.15,3.15,0,0,1,1.83-2.39c2.46-1.18,6.75,0,9.19,2.55,1.56,1.56,2.31,3.3,2,4.76a3,3,0,0,1-1.82,2.24A5.2,5.2,0,0,1,316.76,123.93Zm-4.93-10a4.71,4.71,0,0,0-2,.4,2.66,2.66,0,0,0-1.56,2c-.2,1.3.5,2.82,1.92,4.18,2.27,2.37,6.38,3.53,8.62,2.46h0a2.53,2.53,0,0,0,1.54-1.87c.24-1.3-.46-2.88-1.91-4.33A9.81,9.81,0,0,0,311.83,114Zm4,8.18a7.09,7.09,0,0,1-4.53-1.92A3.76,3.76,0,0,1,310,117.1a2,2,0,0,1,1.17-1.48h0c1.72-.76,4.3,0,5.88,1.65a3.77,3.77,0,0,1,1.3,3.12,2,2,0,0,1-1.18,1.48A3,3,0,0,1,315.87,122.15Zm-4.46-6.08a1.5,1.5,0,0,0-.89,1.12,3.29,3.29,0,0,0,1.16,2.68c1.56,1.46,4.05,2.19,5.32,1.55a1.5,1.5,0,0,0,.9-1.12,3.29,3.29,0,0,0-1.17-2.68C315.31,116.1,312.92,115.41,311.41,116.07Z"></path></g></g></svg> 