<?xml version="1.0" encoding="UTF-8"?> <svg xmlns="http://www.w3.org/2000/svg" id="Layer_1" data-name="Layer 1" viewBox="0 0 97.52 43.1"><defs><style>.cls-1{fill:#222;}.cls-2{fill:#009688;}.cls-3{fill:#fff;}</style></defs><g id="Marketing-Tools"><g id="Desktop-HD-Copy"><g id="Group-3"><circle id="Oval" class="cls-1" cx="23.69" cy="21.55" r="21"></circle><g id="doot-arrow"><g id="next"><g id="Group"><path id="Path" class="cls-2" d="M94.9,21.26h0a.79.79,0,1,0,.78.78.78.78,0,0,0-.78-.78Z"></path><path id="Path-2" data-name="Path" class="cls-2" d="M91.77,21.26h0a.79.79,0,1,0,.79.78.78.78,0,0,0-.79-.78Z"></path><path id="Path-3" data-name="Path" class="cls-2" d="M88.64,21.26h0a.79.79,0,1,0,.78.78.78.78,0,0,0-.78-.78Z"></path><path id="Path-4" data-name="Path" class="cls-2" d="M85.51,21.26h0a.79.79,0,1,0,.78.78.78.78,0,0,0-.78-.78Z"></path><path id="Path-5" data-name="Path" class="cls-2" d="M82.38,21.26h0a.79.79,0,1,0,.78.78.78.78,0,0,0-.78-.78Z"></path><path id="Path-6" data-name="Path" class="cls-2" d="M79.26,21.26h0A.79.79,0,1,0,80,22a.78.78,0,0,0-.78-.78Z"></path><path id="Path-7" data-name="Path" class="cls-2" d="M76.13,21.26h0a.79.79,0,1,0,.78.78.78.78,0,0,0-.78-.78Z"></path><path id="Path-8" data-name="Path" class="cls-2" d="M91.77,18.13h0a.78.78,0,1,0,.79.78.78.78,0,0,0-.79-.78Z"></path><path id="Path-9" data-name="Path" class="cls-2" d="M88.64,18.13h0a.78.78,0,1,0,.78.78.78.78,0,0,0-.78-.78Z"></path><path id="Path-10" data-name="Path" class="cls-2" d="M85.51,18.13h0a.78.78,0,1,0,0,1.56.78.78,0,0,0,0-1.56Z"></path><path id="Path-11" data-name="Path" class="cls-2" d="M82.38,18.13h0a.78.78,0,1,0,.78.78.78.78,0,0,0-.78-.78Z"></path><path id="Path-12" data-name="Path" class="cls-2" d="M79.26,18.13h0a.78.78,0,1,0,.78.78.78.78,0,0,0-.78-.78Z"></path><path id="Path-13" data-name="Path" class="cls-2" d="M88.64,15h0a.79.79,0,1,0,.78.78.78.78,0,0,0-.78-.78Z"></path><path id="Path-14" data-name="Path" class="cls-2" d="M85.51,15h0a.79.79,0,1,0,.78.78A.78.78,0,0,0,85.5,15Z"></path><path id="Path-15" data-name="Path" class="cls-2" d="M82.38,15h0a.79.79,0,1,0,.78.78.78.78,0,0,0-.78-.78Z"></path><path id="Path-16" data-name="Path" class="cls-2" d="M79.26,15h0a.79.79,0,1,0,.78.78.78.78,0,0,0-.78-.78Z"></path><path id="Path-17" data-name="Path" class="cls-2" d="M85.51,11.85h0a.79.79,0,1,0,0,1.57.79.79,0,0,0,0-1.57Z"></path><path id="Path-18" data-name="Path" class="cls-2" d="M82.38,11.85h0a.79.79,0,1,0,.78.79.78.78,0,0,0-.78-.79Z"></path><path id="Path-19" data-name="Path" class="cls-2" d="M79.26,11.85h0a.79.79,0,1,0,.78.79.78.78,0,0,0-.78-.79Z"></path><path id="Path-20" data-name="Path" class="cls-2" d="M82.38,8.72h0a.78.78,0,0,0-.78.78.78.78,0,1,0,1.56,0,.78.78,0,0,0-.78-.78Z"></path><path id="Path-21" data-name="Path" class="cls-2" d="M79.26,8.72h0a.78.78,0,0,0-.78.78A.78.78,0,1,0,80,9.5a.78.78,0,0,0-.78-.78Z"></path><path id="Path-22" data-name="Path" class="cls-2" d="M79.26,5.58h0a.79.79,0,1,0,.78.79.78.78,0,0,0-.78-.79Z"></path><path id="Path-23" data-name="Path" class="cls-2" d="M91.77,24.4h0a.78.78,0,1,0,.79.78.78.78,0,0,0-.79-.78Z"></path><path id="Path-24" data-name="Path" class="cls-2" d="M88.64,24.4h0a.78.78,0,1,0,.78.78.78.78,0,0,0-.78-.78Z"></path><path id="Path-25" data-name="Path" class="cls-2" d="M85.51,24.4h0a.78.78,0,1,0,0,1.56.78.78,0,0,0,0-1.56Z"></path><path id="Path-26" data-name="Path" class="cls-2" d="M82.38,24.4h0a.78.78,0,1,0,.78.78.78.78,0,0,0-.78-.78Z"></path><path id="Path-27" data-name="Path" class="cls-2" d="M79.26,24.4h0a.78.78,0,1,0,.78.78.78.78,0,0,0-.78-.78Z"></path><path id="Path-28" data-name="Path" class="cls-2" d="M88.64,27.53h0a.79.79,0,1,0,.78.79.79.79,0,0,0-.78-.79Z"></path><path id="Path-29" data-name="Path" class="cls-2" d="M85.51,27.53h0a.79.79,0,1,0,0,1.57.79.79,0,0,0,0-1.57Z"></path><path id="Path-30" data-name="Path" class="cls-2" d="M82.38,27.53h0a.79.79,0,1,0,.78.79.78.78,0,0,0-.78-.79Z"></path><path id="Path-31" data-name="Path" class="cls-2" d="M79.26,27.53h0a.79.79,0,1,0,.78.79.78.78,0,0,0-.78-.79Z"></path><path id="Path-32" data-name="Path" class="cls-2" d="M85.51,30.67h0a.79.79,0,1,0,.78.78.78.78,0,0,0-.78-.78Z"></path><path id="Path-33" data-name="Path" class="cls-2" d="M82.38,30.67h0a.79.79,0,1,0,.78.78.78.78,0,0,0-.78-.78Z"></path><path id="Path-34" data-name="Path" class="cls-2" d="M79.26,30.67h0a.79.79,0,1,0,.78.78.78.78,0,0,0-.78-.78Z"></path><path id="Path-35" data-name="Path" class="cls-2" d="M82.38,33.8h0a.79.79,0,0,0-.78.79.78.78,0,0,0,1.56,0,.79.79,0,0,0-.78-.79Z"></path><path id="Path-36" data-name="Path" class="cls-2" d="M79.26,33.8h0a.79.79,0,0,0-.78.79.78.78,0,0,0,1.56,0,.79.79,0,0,0-.78-.79Z"></path><path id="Path-37" data-name="Path" class="cls-2" d="M79.26,36.94h0a.79.79,0,1,0,.78.78.78.78,0,0,0-.78-.78Z"></path><path id="Path-38" data-name="Path" class="cls-2" d="M73,21.26h0a.79.79,0,1,0,.79.78.78.78,0,0,0-.79-.78Z"></path><path id="Path-39" data-name="Path" class="cls-2" d="M69.87,21.26h0a.79.79,0,1,0,.78.78.78.78,0,0,0-.78-.78Z"></path><path id="Path-40" data-name="Path" class="cls-2" d="M66.74,21.26h0a.79.79,0,1,0,.78.78.78.78,0,0,0-.78-.78Z"></path><path id="Path-41" data-name="Path" class="cls-2" d="M63.61,21.26h0a.79.79,0,1,0,.78.78.78.78,0,0,0-.78-.78Z"></path><path id="Path-42" data-name="Path" class="cls-2" d="M60.49,21.26h0a.79.79,0,1,0,.78.78.78.78,0,0,0-.78-.78Z"></path><path id="Path-43" data-name="Path" class="cls-2" d="M76.13,24.4h0a.78.78,0,1,0,.78.78.78.78,0,0,0-.78-.78Z"></path><path id="Path-44" data-name="Path" class="cls-2" d="M73,24.4h0a.78.78,0,1,0,.79.78A.78.78,0,0,0,73,24.4Z"></path><path id="Path-45" data-name="Path" class="cls-2" d="M69.87,24.4h0a.78.78,0,1,0,.78.78.78.78,0,0,0-.78-.78Z"></path><path id="Path-46" data-name="Path" class="cls-2" d="M66.74,24.4h0a.78.78,0,1,0,.78.78.78.78,0,0,0-.78-.78Z"></path><path id="Path-47" data-name="Path" class="cls-2" d="M63.61,24.4h0a.78.78,0,1,0,.78.78.78.78,0,0,0-.78-.78Z"></path><path id="Path-48" data-name="Path" class="cls-2" d="M60.49,24.4h0a.78.78,0,1,0,.78.78.78.78,0,0,0-.78-.78Z"></path><path id="Path-49" data-name="Path" class="cls-2" d="M76.13,18.13h0a.78.78,0,1,0,.78.78.78.78,0,0,0-.78-.78Z"></path><path id="Path-50" data-name="Path" class="cls-2" d="M73,18.13h0a.78.78,0,1,0,.79.78A.77.77,0,0,0,73,18.13Z"></path><path id="Path-51" data-name="Path" class="cls-2" d="M69.87,18.13h0a.78.78,0,1,0,.78.78A.77.77,0,0,0,69.87,18.13Z"></path><path id="Path-52" data-name="Path" class="cls-2" d="M66.74,18.13h0a.78.78,0,1,0,.78.78A.77.77,0,0,0,66.74,18.13Z"></path><path id="Path-53" data-name="Path" class="cls-2" d="M63.61,18.13h0a.78.78,0,1,0,.78.78A.77.77,0,0,0,63.61,18.13Z"></path><path id="Path-54" data-name="Path" class="cls-2" d="M60.49,18.13h0a.78.78,0,1,0,.78.78A.78.78,0,0,0,60.48,18.13Z"></path></g><path id="Path-55" data-name="Path" d="M94.9,22.83a.79.79,0,0,1,0-1.57h0a.79.79,0,0,1,0,1.57Z"></path><path id="Path-56" data-name="Path" d="M91.77,22.83a.79.79,0,0,1,0-1.57h0a.79.79,0,0,1,0,1.57Z"></path><path id="Path-57" data-name="Path" d="M88.64,22.83a.79.79,0,0,1,0-1.57h0a.79.79,0,0,1,0,1.57Z"></path><path id="Path-58" data-name="Path" d="M85.51,22.83a.79.79,0,0,1,0-1.57h0a.79.79,0,0,1,0,1.57Z"></path><path id="Path-59" data-name="Path" d="M82.38,22.83a.79.79,0,0,1,0-1.57h0a.79.79,0,1,1,0,1.57Z"></path><path id="Path-60" data-name="Path" d="M79.26,22.83a.79.79,0,1,1,0-1.57h0a.79.79,0,0,1,0,1.57Z"></path><path id="Path-61" data-name="Path" d="M76.13,22.83a.79.79,0,0,1,0-1.57h0a.79.79,0,0,1,0,1.57Z"></path><path id="Path-62" data-name="Path" d="M91.77,19.69a.78.78,0,0,1-.78-.78.79.79,0,0,1,.78-.79h0a.79.79,0,0,1,.78.79A.78.78,0,0,1,91.77,19.69Z"></path><path id="Path-63" data-name="Path" d="M88.64,19.69a.78.78,0,0,1-.78-.78.79.79,0,0,1,.78-.79h0a.79.79,0,0,1,.78.79A.78.78,0,0,1,88.64,19.69Z"></path><path id="Path-64" data-name="Path" d="M85.51,19.69a.78.78,0,0,1-.78-.78.79.79,0,0,1,.78-.79h0a.79.79,0,0,1,.78.79A.78.78,0,0,1,85.51,19.69Z"></path><path id="Path-65" data-name="Path" d="M82.38,19.69a.78.78,0,0,1-.78-.78.79.79,0,0,1,.78-.79h0a.79.79,0,0,1,.79.79A.78.78,0,0,1,82.38,19.69Z"></path><path id="Path-66" data-name="Path" d="M79.26,19.69a.78.78,0,0,1-.79-.78.79.79,0,0,1,.79-.79h0a.79.79,0,0,1,.78.79A.78.78,0,0,1,79.26,19.69Z"></path><path id="Path-67" data-name="Path" d="M88.64,16.56a.79.79,0,0,1,0-1.57h0a.79.79,0,0,1,0,1.57Z"></path><path id="Path-68" data-name="Path" d="M85.51,16.56a.79.79,0,0,1,0-1.57h0a.79.79,0,0,1,0,1.57Z"></path><path id="Path-69" data-name="Path" d="M82.38,16.56a.79.79,0,0,1,0-1.57h0a.79.79,0,1,1,0,1.57Z"></path><path id="Path-70" data-name="Path" d="M79.26,16.56a.79.79,0,1,1,0-1.57h0a.79.79,0,0,1,0,1.57Z"></path><path id="Path-71" data-name="Path" d="M85.51,13.42a.79.79,0,0,1,0-1.57h0a.79.79,0,0,1,0,1.57Z"></path><path id="Path-72" data-name="Path" d="M82.38,13.42a.79.79,0,0,1,0-1.57h0a.79.79,0,1,1,0,1.57Z"></path><path id="Path-73" data-name="Path" d="M79.26,13.42a.79.79,0,1,1,0-1.57h0a.79.79,0,0,1,0,1.57Z"></path><path id="Path-74" data-name="Path" d="M82.38,10.29a.79.79,0,0,1-.78-.79.78.78,0,0,1,.78-.78h0a.78.78,0,0,1,.79.78A.79.79,0,0,1,82.38,10.29Z"></path><path id="Path-75" data-name="Path" d="M79.26,10.29a.79.79,0,0,1-.79-.79.78.78,0,0,1,.79-.78h0A.78.78,0,0,1,80,9.5.79.79,0,0,1,79.26,10.29Z"></path><path id="Path-76" data-name="Path" d="M79.26,7.15a.79.79,0,1,1,0-1.57h0a.79.79,0,0,1,0,1.57Z"></path><path id="Path-77" data-name="Path" d="M91.77,26a.78.78,0,0,1,0-1.56h0a.78.78,0,0,1,0,1.56Z"></path><path id="Path-78" data-name="Path" d="M88.64,26a.78.78,0,0,1,0-1.56h0a.78.78,0,0,1,0,1.56Z"></path><path id="Path-79" data-name="Path" d="M85.51,26a.78.78,0,0,1,0-1.56h0a.78.78,0,0,1,0,1.56Z"></path><path id="Path-80" data-name="Path" d="M82.38,26a.78.78,0,0,1,0-1.56h0a.78.78,0,1,1,0,1.56Z"></path><path id="Path-81" data-name="Path" d="M79.26,26a.78.78,0,1,1,0-1.56h0a.78.78,0,0,1,0,1.56Z"></path><path id="Path-82" data-name="Path" d="M88.64,29.1a.79.79,0,0,1,0-1.57h0a.79.79,0,0,1,0,1.57Z"></path><path id="Path-83" data-name="Path" d="M85.51,29.1a.79.79,0,0,1,0-1.57h0a.79.79,0,0,1,0,1.57Z"></path><path id="Path-84" data-name="Path" d="M82.38,29.1a.79.79,0,0,1,0-1.57h0a.79.79,0,1,1,0,1.57Z"></path><path id="Path-85" data-name="Path" d="M79.26,29.1a.79.79,0,1,1,0-1.57h0a.79.79,0,0,1,0,1.57Z"></path><path id="Path-86" data-name="Path" d="M85.51,32.24a.79.79,0,0,1,0-1.57h0a.79.79,0,0,1,0,1.57Z"></path><path id="Path-87" data-name="Path" d="M82.38,32.24a.79.79,0,0,1,0-1.57h0a.79.79,0,1,1,0,1.57Z"></path><path id="Path-88" data-name="Path" d="M79.26,32.24a.79.79,0,1,1,0-1.57h0a.79.79,0,0,1,0,1.57Z"></path><path id="Path-89" data-name="Path" d="M82.38,35.37a.78.78,0,0,1-.78-.78.79.79,0,0,1,.78-.79h0a.79.79,0,0,1,.79.79A.78.78,0,0,1,82.38,35.37Z"></path><path id="Path-90" data-name="Path" d="M79.26,35.37a.78.78,0,0,1-.79-.78.79.79,0,0,1,.79-.79h0a.79.79,0,0,1,.78.79A.78.78,0,0,1,79.26,35.37Z"></path><path id="Path-91" data-name="Path" d="M79.26,38.51a.79.79,0,1,1,0-1.57h0a.79.79,0,0,1,0,1.57Z"></path><path id="Path-92" data-name="Path" d="M73,22.83a.79.79,0,0,1,0-1.57h0a.79.79,0,0,1,0,1.57Z"></path><path id="Path-93" data-name="Path" d="M69.87,22.83a.79.79,0,0,1,0-1.57h0a.79.79,0,0,1,0,1.57Z"></path><path id="Path-94" data-name="Path" d="M66.74,22.83a.79.79,0,0,1,0-1.57h0a.79.79,0,0,1,0,1.57Z"></path><path id="Path-95" data-name="Path" d="M63.61,22.83a.79.79,0,0,1,0-1.57h0a.79.79,0,1,1,0,1.57Z"></path><path id="Path-96" data-name="Path" d="M60.49,22.83a.79.79,0,1,1,0-1.57h0a.79.79,0,0,1,0,1.57Z"></path><path id="Path-97" data-name="Path" d="M76.13,26a.78.78,0,0,1,0-1.56h0a.78.78,0,0,1,0,1.56Z"></path><path id="Path-98" data-name="Path" d="M73,26a.78.78,0,0,1,0-1.56h0A.78.78,0,0,1,73,26Z"></path><path id="Path-99" data-name="Path" d="M69.87,26a.78.78,0,0,1,0-1.56h0a.78.78,0,0,1,0,1.56Z"></path><path id="Path-100" data-name="Path" d="M66.74,26a.78.78,0,0,1,0-1.56h0a.78.78,0,0,1,0,1.56Z"></path><path id="Path-101" data-name="Path" d="M63.61,26a.78.78,0,0,1,0-1.56h0a.78.78,0,1,1,0,1.56Z"></path><path id="Path-102" data-name="Path" d="M60.49,26a.78.78,0,1,1,0-1.56h0a.78.78,0,0,1,0,1.56Z"></path><path id="Path-103" data-name="Path" d="M76.13,19.69a.78.78,0,0,1-.78-.78.79.79,0,0,1,.78-.79h0a.79.79,0,0,1,.78.79A.78.78,0,0,1,76.13,19.69Z"></path><path id="Path-104" data-name="Path" d="M73,19.69a.78.78,0,0,1-.78-.78.79.79,0,0,1,.78-.79h0a.79.79,0,0,1,.78.79A.78.78,0,0,1,73,19.69Z"></path><path id="Path-105" data-name="Path" d="M69.87,19.69a.78.78,0,0,1-.78-.78.79.79,0,0,1,.78-.79h0a.79.79,0,0,1,.78.79A.78.78,0,0,1,69.87,19.69Z"></path><path id="Path-106" data-name="Path" d="M66.74,19.69a.78.78,0,0,1-.78-.78.79.79,0,0,1,.78-.79h0a.79.79,0,0,1,.78.79A.78.78,0,0,1,66.74,19.69Z"></path><path id="Path-107" data-name="Path" d="M63.61,19.69a.78.78,0,0,1-.78-.78.79.79,0,0,1,.78-.79h0a.79.79,0,0,1,.79.79A.78.78,0,0,1,63.61,19.69Z"></path><path id="Path-108" data-name="Path" d="M60.49,19.69a.78.78,0,0,1-.79-.78.79.79,0,0,1,.79-.79h0a.79.79,0,0,1,.78.79A.78.78,0,0,1,60.49,19.69Z"></path></g></g></g></g></g><path class="cls-3" d="M17,26.14l3.08-.59a.29.29,0,0,1,.34.22,2.5,2.5,0,0,0,2.49,1.8,2.28,2.28,0,0,0,2.35-2.47,2.46,2.46,0,0,0-2.66-2.69h-.81a.26.26,0,0,1-.28-.28V19.42a.26.26,0,0,1,.28-.28h.76a2.21,2.21,0,0,0,2.35-2.38,2,2,0,0,0-2.16-2.24,2.1,2.1,0,0,0-2.15,1.76.27.27,0,0,1-.34.2l-3-.59a.24.24,0,0,1-.22-.31c.44-2.52,2.6-4.37,6-4.37,3.72,0,5.88,2.22,5.88,5.27a4.58,4.58,0,0,1-2.13,3.92v.05a5,5,0,0,1,2.49,4.62c0,3.48-2.63,5.8-6.21,5.8-3.25,0-5.66-1.62-6.19-4.37A.31.31,0,0,1,17,26.14Z"></path></svg> 