<?xml version="1.0" encoding="UTF-8"?> <svg xmlns="http://www.w3.org/2000/svg" id="Layer_1" data-name="Layer 1" viewBox="0 0 280.4 136.12"><defs><style>.cls-1{fill:#d8d8d8;stroke:#979797;}.cls-2,.cls-4{fill:#fff;}.cls-2,.cls-5{stroke:#0b0b0b;}.cls-3,.cls-7{fill:#222;}.cls-5{fill:#3bff80;}.cls-6{fill:none;stroke:#000;stroke-linecap:square;}.cls-7{fill-rule:evenodd;}.cls-8{isolation:isolate;}.cls-9{fill:#191919;}.cls-10{fill:#009688;}</style></defs><g id="Marketing-Tools"><g id="Desktop-HD-Copy"><g id="Group-15"><g id="Group-9"><circle id="Oval" class="cls-1" cx="31.45" cy="93.63" r="21.5"></circle><rect id="Rectangle" class="cls-2" x="3.95" y="67.13" width="256" height="48" rx="3"></rect><circle id="Oval-2" data-name="Oval" class="cls-3" cx="28.95" cy="91.13" r="19"></circle><g id="Uber_logo_2018-_1_" data-name="Uber_logo_2018-(1)"><path id="Path" class="cls-4" d="M17.44,92.56a2.06,2.06,0,0,0,.46.74,1.91,1.91,0,0,0,.68.48,2.28,2.28,0,0,0,.87.16,2.19,2.19,0,0,0,.85-.17,2,2,0,0,0,.7-.48,2.15,2.15,0,0,0,.46-.74,2.69,2.69,0,0,0,.16-1V86.13H23V95H21.64v-.82a3.17,3.17,0,0,1-1.05.72,3.45,3.45,0,0,1-1.29.25A3.41,3.41,0,0,1,18,94.88a3.06,3.06,0,0,1-1.06-.7,3.27,3.27,0,0,1-.71-1.09A3.82,3.82,0,0,1,16,91.67V86.13h1.33v5.46A2.74,2.74,0,0,0,17.44,92.56Z"></path><path id="Shape" class="cls-4" d="M25.24,86.13v3.22a3.35,3.35,0,0,1,1-.7,3.13,3.13,0,0,1,1.27-.26,3.38,3.38,0,0,1,1.34.27,3.3,3.3,0,0,1,1.08.72,3.47,3.47,0,0,1,.72,1.07A3.25,3.25,0,0,1,31,91.77a3.15,3.15,0,0,1-.27,1.3A3.47,3.47,0,0,1,30,94.14a3.3,3.3,0,0,1-1.08.72,3.38,3.38,0,0,1-1.34.27,3.18,3.18,0,0,1-1.28-.26,3.53,3.53,0,0,1-1-.7V95H24V86.13Zm.14,6.51a2.47,2.47,0,0,0,.48.71,2.34,2.34,0,0,0,.71.48,2.34,2.34,0,0,0,1.75,0,2.29,2.29,0,0,0,.7-.48,2.47,2.47,0,0,0,.48-.71,2.22,2.22,0,0,0,0-1.75,2.39,2.39,0,0,0-.48-.72,2.1,2.1,0,0,0-.7-.47,2.31,2.31,0,0,0-1.74,0,2.25,2.25,0,0,0-.71.47,2.39,2.39,0,0,0-.48.72,2.13,2.13,0,0,0-.18.88A2.29,2.29,0,0,0,25.38,92.64Z"></path><path id="Shape-2" data-name="Shape" class="cls-4" d="M32.22,90.28A3.55,3.55,0,0,1,33,89.16a3.34,3.34,0,0,1,1.12-.75,3.45,3.45,0,0,1,1.41-.28,3.72,3.72,0,0,1,1.38.26,3.31,3.31,0,0,1,1.09.73,3.43,3.43,0,0,1,.72,1.11A3.74,3.74,0,0,1,39,91.62v.44H33.33a2.55,2.55,0,0,0,.27.76,2.46,2.46,0,0,0,.51.6,2.15,2.15,0,0,0,.69.4,2.25,2.25,0,0,0,.82.15,2.4,2.4,0,0,0,2-1l1,.71a3.61,3.61,0,0,1-3,1.44,4,4,0,0,1-1.44-.26A3.7,3.7,0,0,1,33,94.13,3.53,3.53,0,0,1,32.23,93a3.53,3.53,0,0,1,0-2.73Zm1.9-.52A2.19,2.19,0,0,0,33.36,91h4.21a2.17,2.17,0,0,0-.75-1.24,2.17,2.17,0,0,0-2.7,0Z"></path><path id="Path-2" data-name="Path" class="cls-4" d="M41.5,89.89a2,2,0,0,0-.37,1.29v3.95H40V88.18h1.17V89a2,2,0,0,1,.57-.67,1.49,1.49,0,0,1,.85-.24H43v1.28h-.49A1.17,1.17,0,0,0,41.5,89.89Z"></path></g><rect id="Rectangle-2" data-name="Rectangle" class="cls-5" x="155.95" y="72.13" width="99" height="38" rx="3"></rect><line id="Line-3" class="cls-6" x1="266.45" y1="64.63" x2="278.45" y2="57.63"></line><line id="Line-3-2" data-name="Line-3" class="cls-6" x1="261.45" y1="60.63" x2="265.95" y2="54.13"></line><line id="Line-3-3" data-name="Line-3" class="cls-6" x1="266.45" y1="71.63" x2="274.7" y2="69.88"></line><polygon id="Path-3" data-name="Path" class="cls-7" points="253.2 128.77 250.15 130.13 245.23 118.78 238.95 124.86 238.96 100.13 256.95 116.87 248.28 117.43 253.2 128.77"></polygon><g id="CONFIRM" class="cls-8"><g class="cls-8"><path class="cls-9" d="M183.06,93.54a1.8,1.8,0,0,1,.15.73,4.63,4.63,0,0,1-2,3.15,4.91,4.91,0,0,1-2.84.9,4,4,0,0,1-1.93-.46,4.31,4.31,0,0,1-2-3.75c-.09-4.44,3.85-8.42,6.34-9.54a4.78,4.78,0,0,1,1.73-.38,2.21,2.21,0,0,1,1.43.46A3.41,3.41,0,0,1,185.3,87a2.73,2.73,0,0,1-.31,1.28,14.31,14.31,0,0,0-.83,2,.53.53,0,0,1-.86.33,1.64,1.64,0,0,1-.75-1.41,2.72,2.72,0,0,1,.14-.82,8.22,8.22,0,0,1,.37-1c.31-.77.57-1.47.31-1.76-.53-.57-3.66,1.34-5.48,4.29a9.36,9.36,0,0,0-1.39,4.69c0,1.89.84,2.73,1.63,2.73,1.21,0,2.77-1.41,4.05-3.85A.47.47,0,0,1,183.06,93.54Z"></path><path class="cls-9" d="M193.6,85a3.56,3.56,0,0,1,2,3.54,11.19,11.19,0,0,1-1.41,5.06c-1.49,2.73-3.72,5-6.25,5a4.25,4.25,0,0,1-1.47-.26,4.12,4.12,0,0,1-2.62-4.19c0-4.64,4.14-8.71,6.64-9.59a4,4,0,0,1,1.33-.22A2.44,2.44,0,0,1,193.6,85Zm-1.41,7.86a11.35,11.35,0,0,0,1.5-5.15c0-1.06-.22-1.76-.69-1.94-1-.35-3.56,1.1-5.56,4.16A9.67,9.67,0,0,0,185.83,95c0,1.54.55,2.4,1.39,2.4C188.58,97.35,190.63,95.68,192.19,92.82Z"></path><path class="cls-9" d="M198.61,94.71a49.6,49.6,0,0,1,.29-5,53.34,53.34,0,0,0-4.09,8.42c-.16.44-.49.47-.8.14a2.09,2.09,0,0,1-.41-1.24,4.41,4.41,0,0,1,.28-1.32,92.71,92.71,0,0,1,5.61-10.95c.29-.49.55-.49.88-.22a1.94,1.94,0,0,1,1,1.73,6.26,6.26,0,0,1-.11,1.06,62.33,62.33,0,0,0-.66,6.6,96.53,96.53,0,0,1,5.08-9.26c.33-.46.6-.36.84.06a1.94,1.94,0,0,1,.2.86,4.44,4.44,0,0,1-.82,2.4c-1.23,2-3.94,7.19-5.28,10.17-.13.26-.37.39-.75.19a2.19,2.19,0,0,1-1.16-2.07C198.63,95.68,198.61,95.24,198.61,94.71Z"></path><path class="cls-9" d="M203,95.81a60.56,60.56,0,0,1,4.8-9.15,1.71,1.71,0,0,1-.84-1.13c-.06-.28.07-.41.49-.41a19.14,19.14,0,0,0,3.28-.31,12.07,12.07,0,0,1,2-.22,1.91,1.91,0,0,1,2,1.19c.11.24,0,.48-.46.48a24.28,24.28,0,0,0-4.31.59c-.73,1.21-1.59,2.73-2.62,4.62.42-.06.72-.08,1-.11,1.26-.08,1.85.38,2.05,1.08.09.31,0,.51-.44.55a26.24,26.24,0,0,0-3.78.6c-.82,1.58-1.46,3-2.23,4.6a.47.47,0,0,1-.74.15,1.41,1.41,0,0,1-.51-1.19A4.9,4.9,0,0,1,203,95.81Z"></path><path class="cls-9" d="M216.32,84.61c.35-.51.68-.44.93,0a2,2,0,0,1,.2.88,5.83,5.83,0,0,1-.84,2.55c-1.34,2.38-3.79,6.67-5.3,10.06-.18.42-.4.48-.75.09a1.65,1.65,0,0,1-.4-1.17,4.73,4.73,0,0,1,.27-1.36A68.27,68.27,0,0,1,216.32,84.61Z"></path><path class="cls-9" d="M220.37,98.34c-1.36-1.8-2.42-3.21-3.3-4.2-.55,1.07-1.12,2.33-1.78,4-.16.42-.4.46-.73.13a1.65,1.65,0,0,1-.42-1.17,4.35,4.35,0,0,1,.16-1.1A43.18,43.18,0,0,1,218.72,87a1.65,1.65,0,0,1-1.3-.9c-.17-.31-.06-.49.4-.55a15.37,15.37,0,0,0,2.51-.64,9.65,9.65,0,0,1,2.42-.53,2.7,2.7,0,0,1,2.79,1.83,3.79,3.79,0,0,1-.68,3.85,10.78,10.78,0,0,1-5.79,3.47,17.51,17.51,0,0,1,2,2.82,2.55,2.55,0,0,1,.31,1.15,1.49,1.49,0,0,1-.22.74C220.88,98.65,220.63,98.69,220.37,98.34Zm.2-11.44a6,6,0,0,1-.84,2.42c-.59,1.1-1.14,2-1.54,2.7,4.4-1.12,6.56-4,6-5.47a.67.67,0,0,0-.71-.47,8.1,8.1,0,0,0-2,.53Z"></path><path class="cls-9" d="M226.42,95.65A55.11,55.11,0,0,1,228,89.76a63.79,63.79,0,0,0-4.86,8.54c-.13.3-.46.37-.75.08a1.51,1.51,0,0,1-.4-1.1,3.73,3.73,0,0,1,.31-1.38,74.49,74.49,0,0,1,6.67-11.07.65.65,0,0,1,1-.16,2.25,2.25,0,0,1,.9,1.79,6.08,6.08,0,0,1-.3,1.58c-.69,2-1.13,3.32-1.92,6.27,2.31-3.5,4.67-5.65,7.11-9.52.29-.47.57-.49,1-.09a2.17,2.17,0,0,1,.64,1.52,4.27,4.27,0,0,1-.53,1.8,85,85,0,0,0-4.78,10.28c-.15.44-.35.44-.7.13a1.62,1.62,0,0,1-.51-1.26,4.81,4.81,0,0,1,.18-1.25v0a43.19,43.19,0,0,1,2.42-5.54,66.37,66.37,0,0,0-5.37,7.81c-.24.44-.44.44-.77.2a2.36,2.36,0,0,1-1-2A5.64,5.64,0,0,1,226.42,95.65Z"></path></g></g><g id="_25.25" data-name="$25.25" class="cls-8"><g class="cls-8"><path class="cls-9" d="M62,88.34a8.79,8.79,0,0,1-3.24-.7l.12-2.56a8.44,8.44,0,0,0,3.12.85V83.69c-1.63-.46-3.46-1.14-3.46-3.35S60,77,62,76.76V75.62h1.82v1.14a8.46,8.46,0,0,1,3.07.81L66.4,80a7.57,7.57,0,0,0-2.54-.79v2.29c1.61.45,3.4,1.06,3.4,3.14a3.77,3.77,0,0,1-3.4,3.67v1.27H62Zm0-7.47V79.21a.87.87,0,0,0-.69.81C61.35,80.41,61.62,80.66,62,80.87Zm1.82,3.39v1.53a.84.84,0,0,0,.62-.78C64.48,84.67,64.24,84.45,63.86,84.26Z"></path><path class="cls-9" d="M68.35,88.13V85.68c2.29-1.74,4.76-3.83,4.76-5.34,0-.76-.65-1.27-1.77-1.27a7.48,7.48,0,0,0-2.93.7l-.48-2.1a7.36,7.36,0,0,1,3.66-1c2.53,0,4.4,1,4.4,3.09,0,2.32-2.31,4.19-4.5,5.85v0h4.75v2.45Z"></path><path class="cls-9" d="M77.41,83.34,78,76.92h7l-.21,2.45h-4.4l-.2,1.9c3,.14,5,1,5,3.34,0,2-1.61,3.73-4.72,3.73a7.57,7.57,0,0,1-3.3-.74l.14-2.33a6.87,6.87,0,0,0,3.08.76c1.54,0,2-.55,2-1.09C82.31,83.88,80.58,83.52,77.41,83.34Z"></path><path class="cls-9" d="M86.26,85.34h2.93v2.79H86.26Z"></path><path class="cls-9" d="M90.61,88.13V85.68c2.29-1.74,4.76-3.83,4.76-5.34,0-.76-.65-1.27-1.77-1.27a7.48,7.48,0,0,0-2.93.7l-.48-2.1a7.36,7.36,0,0,1,3.66-1c2.53,0,4.4,1,4.4,3.09,0,2.32-2.31,4.19-4.5,5.85v0H98.5v2.45Z"></path><path class="cls-9" d="M99.67,83.34l.55-6.42h7L107,79.37h-4.4l-.2,1.9c2.95.14,5,1,5,3.34,0,2-1.61,3.73-4.72,3.73a7.57,7.57,0,0,1-3.3-.74l.14-2.33a6.87,6.87,0,0,0,3.08.76c1.54,0,2-.55,2-1.09C104.57,83.88,102.84,83.52,99.67,83.34Z"></path></g></g><g id="GIFT-CARD" class="cls-8"><g class="cls-8"><path class="cls-9" d="M64.6,101.45a5.38,5.38,0,0,0-.78,0c.28,1.3-1.42,2.55-2.13,2.74a3.72,3.72,0,0,1-1,.16,2.19,2.19,0,0,1-1.4-.45,2.48,2.48,0,0,1-1-2.19c0-3,2.84-5.63,4.43-6.17a2.9,2.9,0,0,1,1-.17,1.74,1.74,0,0,1,1,.26,2,2,0,0,1,.86,1.53,2.11,2.11,0,0,1-.18.76c-.16.36-.38.91-.54,1.31-.07.19-.24.33-.5.12a1.14,1.14,0,0,1-.51-.93,1.57,1.57,0,0,1,.13-.6c.39-1,.53-1.4.38-1.55-.41-.43-2.51.78-3.77,2.7a6,6,0,0,0-1,3.22c0,1.08.35,1.44.8,1.44a3.36,3.36,0,0,0,2.4-2c-.37.07-.7.11-1,.14a1.44,1.44,0,0,1-1.47-.7c-.09-.21,0-.35.26-.35a10.81,10.81,0,0,0,1.64-.21,9.5,9.5,0,0,1,1.33-.15,1.33,1.33,0,0,1,1.39.75C65,101.34,65,101.48,64.6,101.45Z"></path><path class="cls-9" d="M68.23,95.53c.22-.32.43-.28.59,0a1.29,1.29,0,0,1,.12.56,3.77,3.77,0,0,1-.53,1.63C67.56,99.24,66,102,65,104.13c-.11.27-.25.31-.47.05a1,1,0,0,1-.25-.74,3.17,3.17,0,0,1,.16-.87A43.78,43.78,0,0,1,68.23,95.53Z"></path><path class="cls-9" d="M66.61,102.66a39.72,39.72,0,0,1,3.06-5.83,1.05,1.05,0,0,1-.53-.71c0-.19,0-.27.31-.27a11,11,0,0,0,2.08-.2,8.8,8.8,0,0,1,1.29-.14,1.21,1.21,0,0,1,1.26.76c.07.15,0,.31-.29.31A14.55,14.55,0,0,0,71,97c-.46.77-1,1.73-1.67,2.94a6.55,6.55,0,0,1,.68-.07c.8-.06,1.17.24,1.3.68.06.2,0,.33-.28.36a16.69,16.69,0,0,0-2.41.37c-.52,1-.92,1.88-1.41,2.93a.31.31,0,0,1-.48.1.89.89,0,0,1-.32-.76A3,3,0,0,1,66.61,102.66Z"></path><path class="cls-9" d="M72.22,102.85a32.35,32.35,0,0,1,3-5.91,4.2,4.2,0,0,1-.6.06c-.91,0-1.51-.32-1.67-.87,0-.18.07-.27.27-.27,1.22,0,3.46-.37,4.27-.37.65,0,1.24.16,1.45.75.06.17,0,.34-.31.31a8.9,8.9,0,0,0-2.17.18,6,6,0,0,1-1,2.37c-.73,1.32-1.74,3.18-2.55,5-.11.25-.28.26-.47.06a.94.94,0,0,1-.3-.77A2,2,0,0,1,72.22,102.85Z"></path><path class="cls-9" d="M85.49,101.21a1.21,1.21,0,0,1,.1.47,3,3,0,0,1-1.26,2,3.11,3.11,0,0,1-1.81.58,2.46,2.46,0,0,1-1.23-.3A2.74,2.74,0,0,1,80,101.58c-.06-2.83,2.45-5.37,4-6.08a3.26,3.26,0,0,1,1.11-.24,1.4,1.4,0,0,1,.91.3,2.15,2.15,0,0,1,.84,1.51,1.82,1.82,0,0,1-.2.81,11.41,11.41,0,0,0-.53,1.26.34.34,0,0,1-.55.21,1,1,0,0,1-.47-.89,1.93,1.93,0,0,1,.08-.52c.06-.21.16-.44.24-.65.2-.49.37-.94.2-1.12-.34-.36-2.33.86-3.49,2.73a6,6,0,0,0-.88,3c0,1.2.53,1.74,1,1.74.77,0,1.77-.9,2.58-2.46A.3.3,0,0,1,85.49,101.21Z"></path><path class="cls-9" d="M89.69,102.92a8.14,8.14,0,0,1,0-.93l-1,.09a10.92,10.92,0,0,1-1.5.1c-.38.66-.68,1.36-1,1.94-.17.29-.4.23-.5,0a1,1,0,0,1-.17-.52,2.5,2.5,0,0,1,.23-1,8,8,0,0,1,.33-.75,1.3,1.3,0,0,1-.42-.46c-.11-.27-.06-.35.31-.29l.5,0A26,26,0,0,1,91,95.46c.31-.25.52-.24.73,0a2.41,2.41,0,0,1,.32.57,1.28,1.28,0,0,1,.11.49,1.64,1.64,0,0,1-.11.58,31.83,31.83,0,0,0-1,3.94,1,1,0,0,1,.61.72c.07.23,0,.28-.28.24l-.49-.08c-.08.7-.15,1.41-.18,2.1,0,.25-.18.31-.43.2S89.7,103.74,89.69,102.92Zm1-5.53a38.24,38.24,0,0,0-2.79,3.8l.83-.1c.48-.06.78-.11,1.16-.13A22.38,22.38,0,0,1,90.67,97.39Z"></path><path class="cls-9" d="M95.3,104.27c-.87-1.15-1.54-2-2.1-2.68-.35.69-.71,1.49-1.13,2.53-.1.26-.25.29-.46.08a1,1,0,0,1-.27-.74,2.68,2.68,0,0,1,.1-.7,27.71,27.71,0,0,1,2.81-5.69,1,1,0,0,1-.82-.57c-.12-.2-.05-.31.25-.36a9.14,9.14,0,0,0,1.6-.4,6.18,6.18,0,0,1,1.54-.34,1.71,1.71,0,0,1,1.77,1.16A2.42,2.42,0,0,1,98.16,99a6.92,6.92,0,0,1-3.68,2.21A10.4,10.4,0,0,1,95.72,103a1.61,1.61,0,0,1,.2.73,1,1,0,0,1-.14.48C95.63,104.46,95.47,104.49,95.3,104.27ZM95.43,97a3.88,3.88,0,0,1-.53,1.54c-.38.7-.73,1.28-1,1.72,2.8-.72,4.17-2.56,3.81-3.49a.43.43,0,0,0-.45-.29,5.16,5.16,0,0,0-1.3.33Z"></path><path class="cls-9" d="M97.28,102a24.59,24.59,0,0,1,2.47-4.78,1.06,1.06,0,0,1-.84-.62c-.07-.21,0-.32.26-.36a4.69,4.69,0,0,0,1.3-.42,5.56,5.56,0,0,1,1.27-.41A2.1,2.1,0,0,1,104,96.65a3,3,0,0,1,.32,1.4c0,2.25-2.23,5.15-5.31,6.19a1.34,1.34,0,0,1-.46.09c-.45,0-.72-.24-1.07-.69a1.31,1.31,0,0,1-.36-.76A2.91,2.91,0,0,1,97.28,102Zm3.57-4.94a2.53,2.53,0,0,1-.4,1.45,21.93,21.93,0,0,0-2.19,4.31,1.32,1.32,0,0,0-.07.41c0,.12.07.15.21.1,3.09-1.18,4.81-4.11,4.81-5.77a1.47,1.47,0,0,0-.16-.77.61.61,0,0,0-.52-.31A7.28,7.28,0,0,0,100.85,97.05Z"></path></g></g></g></g></g></g><g id="Marketing-Tools-2" data-name="Marketing-Tools"><g id="Desktop-HD-Copy-2" data-name="Desktop-HD-Copy"><g id="Group-3"><circle id="Oval-3" data-name="Oval" class="cls-3" cx="26.53" cy="25.33" r="21"></circle><g id="doot-arrow"><g id="next"><g id="Group"><path id="Path-4" data-name="Path" class="cls-10" d="M97.74,25h0a.79.79,0,1,0,.78.78.78.78,0,0,0-.78-.78Z"></path><path id="Path-5" data-name="Path" class="cls-10" d="M94.61,25h0a.79.79,0,1,0,.79.78.78.78,0,0,0-.79-.78Z"></path><path id="Path-6" data-name="Path" class="cls-10" d="M91.48,25h0a.79.79,0,1,0,.78.78.78.78,0,0,0-.78-.78Z"></path><path id="Path-7" data-name="Path" class="cls-10" d="M88.35,25h0a.79.79,0,1,0,.78.78.78.78,0,0,0-.78-.78Z"></path><path id="Path-8" data-name="Path" class="cls-10" d="M85.22,25h0a.79.79,0,1,0,.78.78.78.78,0,0,0-.78-.78Z"></path><path id="Path-9" data-name="Path" class="cls-10" d="M82.1,25h0a.79.79,0,1,0,.78.78.78.78,0,0,0-.78-.78Z"></path><path id="Path-10" data-name="Path" class="cls-10" d="M79,25h0a.79.79,0,1,0,.78.78A.78.78,0,0,0,79,25Z"></path><path id="Path-11" data-name="Path" class="cls-10" d="M94.61,21.9h0a.79.79,0,1,0,.79.79.78.78,0,0,0-.79-.79Z"></path><path id="Path-12" data-name="Path" class="cls-10" d="M91.48,21.9h0a.79.79,0,1,0,.78.79.79.79,0,0,0-.78-.79Z"></path><path id="Path-13" data-name="Path" class="cls-10" d="M88.35,21.9h0a.79.79,0,1,0,.78.79.78.78,0,0,0-.78-.79Z"></path><path id="Path-14" data-name="Path" class="cls-10" d="M85.22,21.9h0a.79.79,0,1,0,.78.79.78.78,0,0,0-.78-.79Z"></path><path id="Path-15" data-name="Path" class="cls-10" d="M82.1,21.9h0a.79.79,0,1,0,.78.79.78.78,0,0,0-.78-.79Z"></path><path id="Path-16" data-name="Path" class="cls-10" d="M91.48,18.77h0a.78.78,0,0,0-.79.78.79.79,0,1,0,1.57,0,.78.78,0,0,0-.78-.78Z"></path><path id="Path-17" data-name="Path" class="cls-10" d="M88.35,18.77h0a.78.78,0,0,0-.78.78.78.78,0,1,0,1.56,0,.78.78,0,0,0-.78-.78Z"></path><path id="Path-18" data-name="Path" class="cls-10" d="M85.22,18.77h0a.78.78,0,0,0-.78.78.78.78,0,1,0,1.56,0,.78.78,0,0,0-.78-.78Z"></path><path id="Path-19" data-name="Path" class="cls-10" d="M82.1,18.77h0a.78.78,0,0,0-.78.78.78.78,0,1,0,1.56,0,.78.78,0,0,0-.78-.78Z"></path><path id="Path-20" data-name="Path" class="cls-10" d="M88.35,15.63h0a.79.79,0,1,0,.78.79.78.78,0,0,0-.78-.79Z"></path><path id="Path-21" data-name="Path" class="cls-10" d="M85.22,15.63h0a.79.79,0,1,0,.78.79.78.78,0,0,0-.78-.79Z"></path><path id="Path-22" data-name="Path" class="cls-10" d="M82.1,15.63h0a.79.79,0,1,0,.78.79.78.78,0,0,0-.78-.79Z"></path><path id="Path-23" data-name="Path" class="cls-10" d="M85.22,12.5h0a.78.78,0,1,0,.78.78.78.78,0,0,0-.78-.78Z"></path><path id="Path-24" data-name="Path" class="cls-10" d="M82.1,12.5h0a.78.78,0,1,0,.78.78.78.78,0,0,0-.78-.78Z"></path><path id="Path-25" data-name="Path" class="cls-10" d="M82.1,9.36h0a.79.79,0,1,0,.78.78.78.78,0,0,0-.78-.78Z"></path><path id="Path-26" data-name="Path" class="cls-10" d="M94.61,28.17h0a.79.79,0,0,0-.78.79.79.79,0,0,0,1.57,0,.79.79,0,0,0-.79-.79Z"></path><path id="Path-27" data-name="Path" class="cls-10" d="M91.48,28.17h0a.79.79,0,0,0-.79.79.79.79,0,1,0,.79-.79Z"></path><path id="Path-28" data-name="Path" class="cls-10" d="M88.35,28.17h0a.79.79,0,0,0-.78.79.78.78,0,1,0,1.56,0,.79.79,0,0,0-.78-.79Z"></path><path id="Path-29" data-name="Path" class="cls-10" d="M85.22,28.17h0a.79.79,0,0,0-.78.79A.78.78,0,1,0,86,29a.79.79,0,0,0-.78-.79Z"></path><path id="Path-30" data-name="Path" class="cls-10" d="M82.1,28.17h0a.79.79,0,0,0-.78.79.78.78,0,1,0,1.56,0,.79.79,0,0,0-.78-.79Z"></path><path id="Path-31" data-name="Path" class="cls-10" d="M91.48,31.31h0a.79.79,0,1,0,.78.78.78.78,0,0,0-.78-.78Z"></path><path id="Path-32" data-name="Path" class="cls-10" d="M88.35,31.31h0a.79.79,0,1,0,.78.78.78.78,0,0,0-.78-.78Z"></path><path id="Path-33" data-name="Path" class="cls-10" d="M85.22,31.31h0a.79.79,0,1,0,.78.78.78.78,0,0,0-.78-.78Z"></path><path id="Path-34" data-name="Path" class="cls-10" d="M82.1,31.31h0a.79.79,0,1,0,.78.78.78.78,0,0,0-.78-.78Z"></path><path id="Path-35" data-name="Path" class="cls-10" d="M88.35,34.45h0a.78.78,0,1,0,.78.78.78.78,0,0,0-.78-.78Z"></path><path id="Path-36" data-name="Path" class="cls-10" d="M85.22,34.45h0a.78.78,0,1,0,.78.78.78.78,0,0,0-.78-.78Z"></path><path id="Path-37" data-name="Path" class="cls-10" d="M82.1,34.45h0a.78.78,0,1,0,.78.78.78.78,0,0,0-.78-.78Z"></path><path id="Path-38" data-name="Path" class="cls-10" d="M85.22,37.58h0a.79.79,0,1,0,.78.79.78.78,0,0,0-.78-.79Z"></path><path id="Path-39" data-name="Path" class="cls-10" d="M82.1,37.58h0a.79.79,0,1,0,.78.79.78.78,0,0,0-.78-.79Z"></path><path id="Path-40" data-name="Path" class="cls-10" d="M82.1,40.72h0a.79.79,0,1,0,.78.78.78.78,0,0,0-.78-.78Z"></path><path id="Path-41" data-name="Path" class="cls-10" d="M75.84,25h0a.79.79,0,1,0,.79.78.78.78,0,0,0-.79-.78Z"></path><path id="Path-42" data-name="Path" class="cls-10" d="M72.71,25h0a.79.79,0,1,0,.78.78A.78.78,0,0,0,72.7,25Z"></path><path id="Path-43" data-name="Path" class="cls-10" d="M69.58,25h0a.79.79,0,1,0,.78.78.78.78,0,0,0-.78-.78Z"></path><path id="Path-44" data-name="Path" class="cls-10" d="M66.46,25h0a.79.79,0,1,0,.78.78.78.78,0,0,0-.78-.78Z"></path><path id="Path-45" data-name="Path" class="cls-10" d="M63.33,25h0a.79.79,0,1,0,.78.78.78.78,0,0,0-.78-.78Z"></path><path id="Path-46" data-name="Path" class="cls-10" d="M79,28.17h0a.79.79,0,0,0-.78.79.78.78,0,1,0,1.56,0,.79.79,0,0,0-.78-.79Z"></path><path id="Path-47" data-name="Path" class="cls-10" d="M75.84,28.17h0A.79.79,0,0,0,75,29a.79.79,0,0,0,1.57,0,.79.79,0,0,0-.79-.79Z"></path><path id="Path-48" data-name="Path" class="cls-10" d="M72.71,28.17h0a.79.79,0,0,0-.79.79.79.79,0,1,0,.79-.79Z"></path><path id="Path-49" data-name="Path" class="cls-10" d="M69.58,28.17h0a.79.79,0,0,0-.78.79.78.78,0,1,0,1.56,0,.79.79,0,0,0-.78-.79Z"></path><path id="Path-50" data-name="Path" class="cls-10" d="M66.46,28.17h0a.79.79,0,0,0-.78.79.78.78,0,1,0,1.56,0,.79.79,0,0,0-.78-.79Z"></path><path id="Path-51" data-name="Path" class="cls-10" d="M63.33,28.17h0a.79.79,0,0,0-.79.79.79.79,0,1,0,.79-.79Z"></path><path id="Path-52" data-name="Path" class="cls-10" d="M79,21.9h0a.79.79,0,1,0,.78.79A.78.78,0,0,0,79,21.9Z"></path><path id="Path-53" data-name="Path" class="cls-10" d="M75.84,21.9h0a.79.79,0,1,0,.79.79A.78.78,0,0,0,75.82,21.9Z"></path><path id="Path-54" data-name="Path" class="cls-10" d="M72.71,21.9h0a.79.79,0,1,0,.78.79A.79.79,0,0,0,72.7,21.9Z"></path><path id="Path-55" data-name="Path" class="cls-10" d="M69.58,21.9h0a.79.79,0,1,0,.78.79A.78.78,0,0,0,69.57,21.9Z"></path><path id="Path-56" data-name="Path" class="cls-10" d="M66.46,21.9h0a.79.79,0,1,0,.78.79A.78.78,0,0,0,66.44,21.9Z"></path><path id="Path-57" data-name="Path" class="cls-10" d="M63.33,21.9h0a.79.79,0,1,0,.78.79A.79.79,0,0,0,63.33,21.9Z"></path></g><path id="Path-58" data-name="Path" d="M97.74,26.61a.79.79,0,0,1,0-1.57h0a.79.79,0,0,1,0,1.57Z"></path><path id="Path-59" data-name="Path" d="M94.61,26.61a.79.79,0,0,1,0-1.57h0a.79.79,0,0,1,0,1.57Z"></path><path id="Path-60" data-name="Path" d="M91.48,26.61a.79.79,0,0,1,0-1.57h0a.79.79,0,0,1,0,1.57Z"></path><path id="Path-61" data-name="Path" d="M88.35,26.61a.79.79,0,0,1,0-1.57h0a.79.79,0,1,1,0,1.57Z"></path><path id="Path-62" data-name="Path" d="M85.22,26.61a.79.79,0,0,1,0-1.57h0a.79.79,0,1,1,0,1.57Z"></path><path id="Path-63" data-name="Path" d="M82.1,26.61a.79.79,0,1,1,0-1.57h0a.79.79,0,0,1,0,1.57Z"></path><path id="Path-64" data-name="Path" d="M79,26.61A.79.79,0,0,1,79,25h0a.79.79,0,0,1,0,1.57Z"></path><path id="Path-65" data-name="Path" d="M94.61,23.47a.79.79,0,0,1,0-1.57h0a.79.79,0,0,1,0,1.57Z"></path><path id="Path-66" data-name="Path" d="M91.48,23.47a.79.79,0,0,1,0-1.57h0a.79.79,0,0,1,0,1.57Z"></path><path id="Path-67" data-name="Path" d="M88.35,23.47a.79.79,0,0,1,0-1.57h0a.79.79,0,1,1,0,1.57Z"></path><path id="Path-68" data-name="Path" d="M85.22,23.47a.79.79,0,0,1,0-1.57h0a.79.79,0,1,1,0,1.57Z"></path><path id="Path-69" data-name="Path" d="M82.1,23.47a.79.79,0,1,1,0-1.57h0a.79.79,0,0,1,0,1.57Z"></path><path id="Path-70" data-name="Path" d="M91.48,20.34a.79.79,0,0,1-.78-.79.78.78,0,0,1,.78-.78h0a.78.78,0,0,1,.78.78A.79.79,0,0,1,91.48,20.34Z"></path><path id="Path-71" data-name="Path" d="M88.35,20.34a.79.79,0,0,1-.78-.79.78.78,0,0,1,.78-.78h0a.78.78,0,0,1,.79.78A.79.79,0,0,1,88.35,20.34Z"></path><path id="Path-72" data-name="Path" d="M85.22,20.34a.79.79,0,0,1-.78-.79.78.78,0,0,1,.78-.78h0a.78.78,0,0,1,.79.78A.79.79,0,0,1,85.22,20.34Z"></path><path id="Path-73" data-name="Path" d="M82.1,20.34a.79.79,0,0,1-.79-.79.78.78,0,0,1,.79-.78h0a.78.78,0,0,1,.78.78A.79.79,0,0,1,82.1,20.34Z"></path><path id="Path-74" data-name="Path" d="M88.35,17.2a.79.79,0,0,1,0-1.57h0a.79.79,0,1,1,0,1.57Z"></path><path id="Path-75" data-name="Path" d="M85.22,17.2a.79.79,0,0,1,0-1.57h0a.79.79,0,1,1,0,1.57Z"></path><path id="Path-76" data-name="Path" d="M82.1,17.2a.79.79,0,1,1,0-1.57h0a.79.79,0,0,1,0,1.57Z"></path><path id="Path-77" data-name="Path" d="M85.22,14.06a.78.78,0,0,1,0-1.56h0a.78.78,0,1,1,0,1.56Z"></path><path id="Path-78" data-name="Path" d="M82.1,14.06a.78.78,0,1,1,0-1.56h0a.78.78,0,1,1,0,1.56Z"></path><path id="Path-79" data-name="Path" d="M82.1,10.93a.79.79,0,1,1,0-1.57h0a.79.79,0,0,1,0,1.57Z"></path><path id="Path-80" data-name="Path" d="M94.61,29.74a.78.78,0,0,1-.78-.78.79.79,0,0,1,.78-.79h0a.79.79,0,0,1,.78.79A.78.78,0,0,1,94.61,29.74Z"></path><path id="Path-81" data-name="Path" d="M91.48,29.74A.78.78,0,0,1,90.7,29a.79.79,0,0,1,.78-.79h0a.79.79,0,0,1,.78.79A.78.78,0,0,1,91.48,29.74Z"></path><path id="Path-82" data-name="Path" d="M88.35,29.74a.78.78,0,0,1-.78-.78.79.79,0,0,1,.78-.79h0a.79.79,0,0,1,.79.79A.78.78,0,0,1,88.35,29.74Z"></path><path id="Path-83" data-name="Path" d="M85.22,29.74a.78.78,0,0,1-.78-.78.79.79,0,0,1,.78-.79h0A.79.79,0,0,1,86,29,.78.78,0,0,1,85.22,29.74Z"></path><path id="Path-84" data-name="Path" d="M82.1,29.74a.78.78,0,0,1-.79-.78.79.79,0,0,1,.79-.79h0a.79.79,0,0,1,.78.79A.78.78,0,0,1,82.1,29.74Z"></path><path id="Path-85" data-name="Path" d="M91.48,32.88a.79.79,0,0,1,0-1.57h0a.79.79,0,0,1,0,1.57Z"></path><path id="Path-86" data-name="Path" d="M88.35,32.88a.79.79,0,0,1,0-1.57h0a.79.79,0,1,1,0,1.57Z"></path><path id="Path-87" data-name="Path" d="M85.22,32.88a.79.79,0,0,1,0-1.57h0a.79.79,0,1,1,0,1.57Z"></path><path id="Path-88" data-name="Path" d="M82.1,32.88a.79.79,0,1,1,0-1.57h0a.79.79,0,0,1,0,1.57Z"></path><path id="Path-89" data-name="Path" d="M88.35,36a.78.78,0,0,1,0-1.56h0a.78.78,0,1,1,0,1.56Z"></path><path id="Path-90" data-name="Path" d="M85.22,36a.78.78,0,0,1,0-1.56h0a.78.78,0,1,1,0,1.56Z"></path><path id="Path-91" data-name="Path" d="M82.1,36a.78.78,0,1,1,0-1.56h0a.78.78,0,0,1,0,1.56Z"></path><path id="Path-92" data-name="Path" d="M85.22,39.15a.79.79,0,0,1,0-1.57h0a.79.79,0,1,1,0,1.57Z"></path><path id="Path-93" data-name="Path" d="M82.1,39.15a.79.79,0,1,1,0-1.57h0a.79.79,0,0,1,0,1.57Z"></path><path id="Path-94" data-name="Path" d="M82.1,42.29a.79.79,0,1,1,0-1.57h0a.79.79,0,0,1,0,1.57Z"></path><path id="Path-95" data-name="Path" d="M75.84,26.61a.79.79,0,0,1,0-1.57h0a.79.79,0,0,1,0,1.57Z"></path><path id="Path-96" data-name="Path" d="M72.71,26.61a.79.79,0,0,1,0-1.57h0a.79.79,0,0,1,0,1.57Z"></path><path id="Path-97" data-name="Path" d="M69.58,26.61a.79.79,0,0,1,0-1.57h0a.79.79,0,1,1,0,1.57Z"></path><path id="Path-98" data-name="Path" d="M66.46,26.61a.79.79,0,1,1,0-1.57h0a.79.79,0,0,1,0,1.57Z"></path><path id="Path-99" data-name="Path" d="M63.33,26.61a.79.79,0,1,1,0-1.57h0a.79.79,0,0,1,0,1.57Z"></path><path id="Path-100" data-name="Path" d="M79,29.74a.78.78,0,0,1-.78-.78.79.79,0,0,1,.78-.79h0a.79.79,0,0,1,.78.79A.78.78,0,0,1,79,29.74Z"></path><path id="Path-101" data-name="Path" d="M75.84,29.74a.78.78,0,0,1-.78-.78.79.79,0,0,1,.78-.79h0a.79.79,0,0,1,.78.79A.78.78,0,0,1,75.84,29.74Z"></path><path id="Path-102" data-name="Path" d="M72.71,29.74a.78.78,0,0,1-.78-.78.79.79,0,0,1,.78-.79h0a.79.79,0,0,1,.78.79A.78.78,0,0,1,72.71,29.74Z"></path><path id="Path-103" data-name="Path" d="M69.58,29.74A.78.78,0,0,1,68.8,29a.79.79,0,0,1,.78-.79h0a.79.79,0,0,1,.79.79A.78.78,0,0,1,69.58,29.74Z"></path><path id="Path-104" data-name="Path" d="M66.46,29.74a.78.78,0,0,1-.79-.78.79.79,0,0,1,.79-.79h0a.79.79,0,0,1,.78.79A.78.78,0,0,1,66.46,29.74Z"></path><path id="Path-105" data-name="Path" d="M63.33,29.74a.78.78,0,0,1-.79-.78.79.79,0,0,1,.79-.79h0a.79.79,0,0,1,.78.79A.78.78,0,0,1,63.33,29.74Z"></path><path id="Path-106" data-name="Path" d="M79,23.47a.79.79,0,0,1,0-1.57h0a.79.79,0,0,1,0,1.57Z"></path><path id="Path-107" data-name="Path" d="M75.84,23.47a.79.79,0,0,1,0-1.57h0a.79.79,0,0,1,0,1.57Z"></path><path id="Path-108" data-name="Path" d="M72.71,23.47a.79.79,0,0,1,0-1.57h0a.79.79,0,0,1,0,1.57Z"></path><path id="Path-109" data-name="Path" d="M69.58,23.47a.79.79,0,0,1,0-1.57h0a.79.79,0,1,1,0,1.57Z"></path><path id="Path-110" data-name="Path" d="M66.46,23.47a.79.79,0,1,1,0-1.57h0a.79.79,0,0,1,0,1.57Z"></path><path id="Path-111" data-name="Path" d="M63.33,23.47a.79.79,0,1,1,0-1.57h0a.79.79,0,0,1,0,1.57Z"></path></g></g></g></g></g><path class="cls-4" d="M24.53,19.08h-.06l-3,2.07c-.17.12-.31.06-.31-.16V17.52a.46.46,0,0,1,.19-.4l3.2-2.29a.72.72,0,0,1,.5-.17h3.14a.27.27,0,0,1,.28.28V33.42a.27.27,0,0,1-.28.28H24.81a.26.26,0,0,1-.28-.28Z"></path></svg> 