<?xml version="1.0" encoding="UTF-8"?> <svg xmlns="http://www.w3.org/2000/svg" id="Layer_1" data-name="Layer 1" viewBox="0 0 97.52 43.1"><defs><style>.cls-1{fill:#222;}.cls-2{fill:#009688;}.cls-3{fill:#fff;}</style></defs><g id="Marketing-Tools"><g id="Desktop-HD-Copy"><g id="Group-3"><circle id="Oval" class="cls-1" cx="23.27" cy="21.26" r="21"></circle><g id="doot-arrow"><g id="next"><g id="Group"><path id="Path" class="cls-2" d="M94.47,21h0a.79.79,0,1,0,.78.78.78.78,0,0,0-.78-.78Z"></path><path id="Path-2" data-name="Path" class="cls-2" d="M91.35,21h0a.79.79,0,1,0,.78.78.78.78,0,0,0-.78-.78Z"></path><path id="Path-3" data-name="Path" class="cls-2" d="M88.22,21h0a.79.79,0,1,0,.78.78A.78.78,0,0,0,88.2,21Z"></path><path id="Path-4" data-name="Path" class="cls-2" d="M85.09,21h0a.79.79,0,0,0,0,1.57.79.79,0,1,0,0-1.57Z"></path><path id="Path-5" data-name="Path" class="cls-2" d="M82,21h0a.79.79,0,1,0,.79.78.78.78,0,0,0-.79-.78Z"></path><path id="Path-6" data-name="Path" class="cls-2" d="M78.83,21h0a.79.79,0,1,0,.78.78.78.78,0,0,0-.78-.78Z"></path><path id="Path-7" data-name="Path" class="cls-2" d="M75.7,21h0a.79.79,0,1,0,.78.78.78.78,0,0,0-.78-.78Z"></path><path id="Path-8" data-name="Path" class="cls-2" d="M91.35,17.83h0a.79.79,0,0,0-.78.79.78.78,0,0,0,1.56,0,.79.79,0,0,0-.78-.79Z"></path><path id="Path-9" data-name="Path" class="cls-2" d="M88.22,17.83h0a.79.79,0,0,0-.78.79.78.78,0,1,0,1.56,0,.79.79,0,0,0-.78-.79Z"></path><path id="Path-10" data-name="Path" class="cls-2" d="M85.09,17.83h0a.79.79,0,0,0-.78.79.78.78,0,0,0,.78.78.79.79,0,0,0,.79-.78.8.8,0,0,0-.79-.79Z"></path><path id="Path-11" data-name="Path" class="cls-2" d="M82,17.83h0a.79.79,0,0,0-.78.79.79.79,0,0,0,1.57,0,.79.79,0,0,0-.79-.79Z"></path><path id="Path-12" data-name="Path" class="cls-2" d="M78.83,17.83h0a.79.79,0,0,0-.79.79.79.79,0,1,0,.79-.79Z"></path><path id="Path-13" data-name="Path" class="cls-2" d="M88.22,14.7h0a.79.79,0,1,0,.78.78.78.78,0,0,0-.78-.78Z"></path><path id="Path-14" data-name="Path" class="cls-2" d="M85.09,14.7h0a.79.79,0,0,0,0,1.57.79.79,0,1,0,0-1.57Z"></path><path id="Path-15" data-name="Path" class="cls-2" d="M82,14.7h0a.79.79,0,1,0,.79.78.78.78,0,0,0-.79-.78Z"></path><path id="Path-16" data-name="Path" class="cls-2" d="M78.83,14.7h0a.79.79,0,1,0,.78.78.78.78,0,0,0-.78-.78Z"></path><path id="Path-17" data-name="Path" class="cls-2" d="M85.09,11.56h0a.79.79,0,1,0,.79.79.79.79,0,0,0-.79-.79Z"></path><path id="Path-18" data-name="Path" class="cls-2" d="M82,11.56h0a.79.79,0,1,0,.79.79.78.78,0,0,0-.79-.79Z"></path><path id="Path-19" data-name="Path" class="cls-2" d="M78.83,11.56h0a.79.79,0,1,0,.78.79.79.79,0,0,0-.78-.79Z"></path><path id="Path-20" data-name="Path" class="cls-2" d="M82,8.43h0a.78.78,0,1,0,.79.78.78.78,0,0,0-.79-.78Z"></path><path id="Path-21" data-name="Path" class="cls-2" d="M78.83,8.43h0a.78.78,0,1,0,.78.78.78.78,0,0,0-.78-.78Z"></path><path id="Path-22" data-name="Path" class="cls-2" d="M78.83,5.29h0a.79.79,0,1,0,.78.78.78.78,0,0,0-.78-.78Z"></path><path id="Path-23" data-name="Path" class="cls-2" d="M91.35,24.11h0a.78.78,0,1,0,.78.78.78.78,0,0,0-.78-.78Z"></path><path id="Path-24" data-name="Path" class="cls-2" d="M88.22,24.11h0a.78.78,0,1,0,.78.78.78.78,0,0,0-.78-.78Z"></path><path id="Path-25" data-name="Path" class="cls-2" d="M85.09,24.11h0a.78.78,0,1,0,0,1.56.78.78,0,1,0,0-1.56Z"></path><path id="Path-26" data-name="Path" class="cls-2" d="M82,24.11h0a.78.78,0,1,0,.79.78.78.78,0,0,0-.79-.78Z"></path><path id="Path-27" data-name="Path" class="cls-2" d="M78.83,24.11h0a.78.78,0,1,0,.78.78.78.78,0,0,0-.78-.78Z"></path><path id="Path-28" data-name="Path" class="cls-2" d="M88.22,27.24h0A.79.79,0,1,0,89,28a.78.78,0,0,0-.78-.79Z"></path><path id="Path-29" data-name="Path" class="cls-2" d="M85.09,27.24h0a.79.79,0,1,0,.79.79.79.79,0,0,0-.79-.79Z"></path><path id="Path-30" data-name="Path" class="cls-2" d="M82,27.24h0a.79.79,0,1,0,.79.79.78.78,0,0,0-.79-.79Z"></path><path id="Path-31" data-name="Path" class="cls-2" d="M78.83,27.24h0a.79.79,0,1,0,.78.79.79.79,0,0,0-.78-.79Z"></path><path id="Path-32" data-name="Path" class="cls-2" d="M85.09,30.38h0a.78.78,0,0,0-.78.78.79.79,0,0,0,.78.79.8.8,0,0,0,.79-.79.79.79,0,0,0-.79-.78Z"></path><path id="Path-33" data-name="Path" class="cls-2" d="M82,30.38h0a.78.78,0,0,0-.78.78.79.79,0,1,0,.78-.78Z"></path><path id="Path-34" data-name="Path" class="cls-2" d="M78.83,30.38h0a.78.78,0,0,0-.79.78.79.79,0,1,0,1.57,0,.78.78,0,0,0-.78-.78Z"></path><path id="Path-35" data-name="Path" class="cls-2" d="M82,33.51h0a.79.79,0,1,0,.79.79.78.78,0,0,0-.79-.79Z"></path><path id="Path-36" data-name="Path" class="cls-2" d="M78.83,33.51h0a.79.79,0,1,0,.78.79.79.79,0,0,0-.78-.79Z"></path><path id="Path-37" data-name="Path" class="cls-2" d="M78.83,36.65h0a.79.79,0,1,0,.78.78.78.78,0,0,0-.78-.78Z"></path><path id="Path-38" data-name="Path" class="cls-2" d="M72.58,21h0a.79.79,0,1,0,.78.78.78.78,0,0,0-.78-.78Z"></path><path id="Path-39" data-name="Path" class="cls-2" d="M69.45,21h0a.79.79,0,1,0,.78.78.78.78,0,0,0-.78-.78Z"></path><path id="Path-40" data-name="Path" class="cls-2" d="M66.32,21h0a.79.79,0,1,0,.79.78A.78.78,0,0,0,66.3,21Z"></path><path id="Path-41" data-name="Path" class="cls-2" d="M63.19,21h0a.79.79,0,1,0,.79.78.78.78,0,0,0-.79-.78Z"></path><path id="Path-42" data-name="Path" class="cls-2" d="M60.06,21h0a.79.79,0,1,0,.78.78.78.78,0,0,0-.78-.78Z"></path><path id="Path-43" data-name="Path" class="cls-2" d="M75.7,24.11h0a.78.78,0,1,0,.78.78.78.78,0,0,0-.78-.78Z"></path><path id="Path-44" data-name="Path" class="cls-2" d="M72.58,24.11h0a.78.78,0,1,0,.78.78.78.78,0,0,0-.78-.78Z"></path><path id="Path-45" data-name="Path" class="cls-2" d="M69.45,24.11h0a.78.78,0,1,0,.78.78.78.78,0,0,0-.78-.78Z"></path><path id="Path-46" data-name="Path" class="cls-2" d="M66.32,24.11h0a.78.78,0,1,0,.79.78.78.78,0,0,0-.79-.78Z"></path><path id="Path-47" data-name="Path" class="cls-2" d="M63.19,24.11h0a.78.78,0,1,0,.79.78.78.78,0,0,0-.79-.78Z"></path><path id="Path-48" data-name="Path" class="cls-2" d="M60.06,24.11h0a.78.78,0,1,0,.78.78.78.78,0,0,0-.78-.78Z"></path><path id="Path-49" data-name="Path" class="cls-2" d="M75.7,17.83h0a.79.79,0,0,0-.78.79.78.78,0,1,0,1.56,0,.79.79,0,0,0-.78-.79Z"></path><path id="Path-50" data-name="Path" class="cls-2" d="M72.58,17.83h0a.79.79,0,0,0-.78.79.78.78,0,1,0,.8-.79Z"></path><path id="Path-51" data-name="Path" class="cls-2" d="M69.45,17.83h0a.79.79,0,0,0-.78.79.78.78,0,1,0,.8-.79Z"></path><path id="Path-52" data-name="Path" class="cls-2" d="M66.32,17.83h0a.79.79,0,0,0-.78.79.79.79,0,0,0,1.57,0A.79.79,0,0,0,66.32,17.83Z"></path><path id="Path-53" data-name="Path" class="cls-2" d="M63.19,17.83h0a.79.79,0,0,0,0,1.57.79.79,0,0,0,0-1.57Z"></path><path id="Path-54" data-name="Path" class="cls-2" d="M60.06,17.83h0a.79.79,0,0,0-.78.79.78.78,0,1,0,.79-.79Z"></path></g><path id="Path-55" data-name="Path" d="M94.47,22.54a.79.79,0,0,1,0-1.57h0a.79.79,0,1,1,0,1.57Z"></path><path id="Path-56" data-name="Path" d="M91.35,22.54a.79.79,0,1,1,0-1.57h0a.79.79,0,0,1,0,1.57Z"></path><path id="Path-57" data-name="Path" d="M88.22,22.54a.79.79,0,1,1,0-1.57h0a.79.79,0,0,1,0,1.57Z"></path><path id="Path-58" data-name="Path" d="M85.09,22.54a.79.79,0,0,1,0-1.57h0a.79.79,0,0,1,0,1.57Z"></path><path id="Path-59" data-name="Path" d="M82,22.54A.79.79,0,0,1,82,21h0a.79.79,0,0,1,0,1.57Z"></path><path id="Path-60" data-name="Path" d="M78.83,22.54a.79.79,0,0,1,0-1.57h0a.79.79,0,0,1,0,1.57Z"></path><path id="Path-61" data-name="Path" d="M75.7,22.54a.79.79,0,0,1,0-1.57h0a.79.79,0,1,1,0,1.57Z"></path><path id="Path-62" data-name="Path" d="M91.35,19.4a.78.78,0,0,1-.79-.78.79.79,0,0,1,.79-.79h0a.79.79,0,0,1,.78.79A.78.78,0,0,1,91.35,19.4Z"></path><path id="Path-63" data-name="Path" d="M88.22,19.4a.79.79,0,0,1-.79-.78.8.8,0,0,1,.79-.79h0a.79.79,0,0,1,.78.79A.78.78,0,0,1,88.22,19.4Z"></path><path id="Path-64" data-name="Path" d="M85.09,19.4a.78.78,0,0,1-.78-.78.79.79,0,0,1,.78-.79h0a.79.79,0,0,1,.78.79A.78.78,0,0,1,85.09,19.4Z"></path><path id="Path-65" data-name="Path" d="M82,19.4a.78.78,0,0,1-.78-.78.79.79,0,0,1,.78-.79h0a.79.79,0,0,1,.78.79A.78.78,0,0,1,82,19.4Z"></path><path id="Path-66" data-name="Path" d="M78.83,19.4a.78.78,0,0,1-.78-.78.79.79,0,0,1,.78-.79h0a.79.79,0,0,1,.78.79A.78.78,0,0,1,78.83,19.4Z"></path><path id="Path-67" data-name="Path" d="M88.22,16.27a.79.79,0,1,1,0-1.57h0a.79.79,0,0,1,0,1.57Z"></path><path id="Path-68" data-name="Path" d="M85.09,16.27a.79.79,0,0,1,0-1.57h0a.79.79,0,0,1,0,1.57Z"></path><path id="Path-69" data-name="Path" d="M82,16.27a.79.79,0,0,1,0-1.57h0a.79.79,0,0,1,0,1.57Z"></path><path id="Path-70" data-name="Path" d="M78.83,16.27a.79.79,0,0,1,0-1.57h0a.79.79,0,0,1,0,1.57Z"></path><path id="Path-71" data-name="Path" d="M85.09,13.13a.79.79,0,0,1,0-1.57h0a.79.79,0,0,1,0,1.57Z"></path><path id="Path-72" data-name="Path" d="M82,13.13a.79.79,0,0,1,0-1.57h0a.79.79,0,0,1,0,1.57Z"></path><path id="Path-73" data-name="Path" d="M78.83,13.13a.79.79,0,0,1,0-1.57h0a.79.79,0,0,1,0,1.57Z"></path><path id="Path-74" data-name="Path" d="M82,10a.78.78,0,1,1,0-1.56h0A.78.78,0,1,1,82,10Z"></path><path id="Path-75" data-name="Path" d="M78.83,10a.78.78,0,0,1,0-1.56h0a.78.78,0,1,1,0,1.56Z"></path><path id="Path-76" data-name="Path" d="M78.83,6.86a.79.79,0,0,1,0-1.57h0a.79.79,0,0,1,0,1.57Z"></path><path id="Path-77" data-name="Path" d="M91.35,25.67a.78.78,0,1,1,0-1.56h0a.78.78,0,0,1,0,1.56Z"></path><path id="Path-78" data-name="Path" d="M88.22,25.67a.78.78,0,1,1,0-1.56h0a.78.78,0,0,1,0,1.56Z"></path><path id="Path-79" data-name="Path" d="M85.09,25.67a.78.78,0,0,1,0-1.56h0a.78.78,0,0,1,0,1.56Z"></path><path id="Path-80" data-name="Path" d="M82,25.67a.78.78,0,1,1,0-1.56h0a.78.78,0,0,1,0,1.56Z"></path><path id="Path-81" data-name="Path" d="M78.83,25.67a.78.78,0,0,1,0-1.56h0a.78.78,0,0,1,0,1.56Z"></path><path id="Path-82" data-name="Path" d="M88.22,28.81a.79.79,0,1,1,0-1.57h0a.79.79,0,0,1,0,1.57Z"></path><path id="Path-83" data-name="Path" d="M85.09,28.81a.79.79,0,0,1,0-1.57h0a.79.79,0,0,1,0,1.57Z"></path><path id="Path-84" data-name="Path" d="M82,28.81a.79.79,0,0,1,0-1.57h0a.79.79,0,0,1,0,1.57Z"></path><path id="Path-85" data-name="Path" d="M78.83,28.81a.79.79,0,0,1,0-1.57h0a.79.79,0,0,1,0,1.57Z"></path><path id="Path-86" data-name="Path" d="M85.09,32a.79.79,0,0,1-.78-.79.78.78,0,0,1,.78-.78h0a.78.78,0,0,1,.78.78A.79.79,0,0,1,85.09,32Z"></path><path id="Path-87" data-name="Path" d="M82,32a.79.79,0,0,1-.78-.79.78.78,0,0,1,.78-.78h0a.78.78,0,0,1,.78.78A.79.79,0,0,1,82,32Z"></path><path id="Path-88" data-name="Path" d="M78.83,32a.79.79,0,0,1-.78-.79.78.78,0,0,1,.78-.78h0a.78.78,0,0,1,.78.78A.79.79,0,0,1,78.83,32Z"></path><path id="Path-89" data-name="Path" d="M82,35.08a.79.79,0,0,1,0-1.57h0a.79.79,0,0,1,0,1.57Z"></path><path id="Path-90" data-name="Path" d="M78.83,35.08a.79.79,0,0,1,0-1.57h0a.79.79,0,0,1,0,1.57Z"></path><path id="Path-91" data-name="Path" d="M78.83,38.22a.79.79,0,0,1,0-1.57h0a.79.79,0,0,1,0,1.57Z"></path><path id="Path-92" data-name="Path" d="M72.58,22.54a.79.79,0,1,1,0-1.57h0a.79.79,0,0,1,0,1.57Z"></path><path id="Path-93" data-name="Path" d="M69.45,22.54a.79.79,0,1,1,0-1.57h0a.79.79,0,0,1,0,1.57Z"></path><path id="Path-94" data-name="Path" d="M66.32,22.54a.79.79,0,0,1,0-1.57h0a.79.79,0,0,1,0,1.57Z"></path><path id="Path-95" data-name="Path" d="M63.19,22.54a.79.79,0,0,1,0-1.57h0a.79.79,0,0,1,0,1.57Z"></path><path id="Path-96" data-name="Path" d="M60.06,22.54a.79.79,0,0,1,0-1.57h0a.79.79,0,0,1,0,1.57Z"></path><path id="Path-97" data-name="Path" d="M75.7,25.67a.78.78,0,0,1,0-1.56h0a.78.78,0,1,1,0,1.56Z"></path><path id="Path-98" data-name="Path" d="M72.58,25.67a.78.78,0,1,1,0-1.56h0a.78.78,0,0,1,0,1.56Z"></path><path id="Path-99" data-name="Path" d="M69.45,25.67a.78.78,0,1,1,0-1.56h0a.78.78,0,0,1,0,1.56Z"></path><path id="Path-100" data-name="Path" d="M66.32,25.67a.78.78,0,0,1,0-1.56h0a.78.78,0,0,1,0,1.56Z"></path><path id="Path-101" data-name="Path" d="M63.19,25.67a.78.78,0,0,1,0-1.56h0a.78.78,0,0,1,0,1.56Z"></path><path id="Path-102" data-name="Path" d="M60.06,25.67a.78.78,0,0,1,0-1.56h0a.78.78,0,0,1,0,1.56Z"></path><path id="Path-103" data-name="Path" d="M75.7,19.4a.78.78,0,0,1-.78-.78.79.79,0,0,1,.78-.79h0a.79.79,0,0,1,.79.79A.78.78,0,0,1,75.7,19.4Z"></path><path id="Path-104" data-name="Path" d="M72.58,19.4a.78.78,0,0,1-.79-.78.79.79,0,0,1,.79-.79h0a.79.79,0,0,1,.78.79A.78.78,0,0,1,72.58,19.4Z"></path><path id="Path-105" data-name="Path" d="M69.45,19.4a.79.79,0,0,1-.79-.78.8.8,0,0,1,.79-.79h0a.79.79,0,0,1,.78.79A.78.78,0,0,1,69.45,19.4Z"></path><path id="Path-106" data-name="Path" d="M66.32,19.4a.78.78,0,0,1-.78-.78.79.79,0,0,1,.78-.79h0a.79.79,0,0,1,.78.79A.78.78,0,0,1,66.32,19.4Z"></path><path id="Path-107" data-name="Path" d="M63.19,19.4a.78.78,0,0,1-.78-.78.79.79,0,0,1,.78-.79h0a.79.79,0,0,1,.78.79A.78.78,0,0,1,63.19,19.4Z"></path><path id="Path-108" data-name="Path" d="M60.06,19.4a.78.78,0,0,1-.78-.78.79.79,0,0,1,.78-.79h0a.79.79,0,0,1,.78.79A.78.78,0,0,1,60.06,19.4Z"></path></g></g></g></g></g><path class="cls-3" d="M17.42,25.65l3-.59a.28.28,0,0,1,.34.22A2.22,2.22,0,0,0,23,26.85a1.93,1.93,0,0,0,2-1.34,5.21,5.21,0,0,0,.22-1.85A5.19,5.19,0,0,0,25,21.78a1.89,1.89,0,0,0-2-1.31,2,2,0,0,0-1.93,1.09c-.08.19-.17.28-.36.28h-3a.26.26,0,0,1-.28-.28V11.09a.26.26,0,0,1,.28-.28H28.34a.26.26,0,0,1,.28.28v2.77a.26.26,0,0,1-.28.28H21a.15.15,0,0,0-.17.17v3.75H21a4.29,4.29,0,0,1,2.85-.9c2.44,0,4.2,1.09,4.9,3.22a10,10,0,0,1,.4,3.25,9.48,9.48,0,0,1-.43,3c-.75,2.32-2.91,3.55-5.62,3.55-3.25,0-5.52-1.7-5.85-4.2A.24.24,0,0,1,17.42,25.65Z"></path></svg> 