<?xml version="1.0" encoding="UTF-8"?> <svg xmlns="http://www.w3.org/2000/svg" id="Layer_1" data-name="Layer 1" viewBox="0 0 280.4 136.12"><defs><style>.cls-1,.cls-8{fill:#fff;}.cls-1,.cls-2{stroke:#0b0b0b;}.cls-2{fill:#ffb0bb;}.cls-3,.cls-7{fill:#222;}.cls-3{fill-rule:evenodd;}.cls-4{isolation:isolate;}.cls-5{fill:#191919;}.cls-6{fill:none;stroke:#000;stroke-linecap:square;}</style></defs><g id="Marketing-Tools"><g id="Desktop-HD-Copy"><g id="Group-7"><rect id="Rectangle" class="cls-1" x="3.91" y="70.11" width="256" height="48" rx="3"></rect><rect id="Rectangle-2" data-name="Rectangle" class="cls-2" x="166.91" y="75.11" width="88" height="38" rx="3"></rect><polygon id="Path" class="cls-3" points="251.15 131.75 248.1 133.11 243.18 121.76 236.91 127.84 236.92 103.11 254.91 119.85 246.24 120.4 251.15 131.75"></polygon><g id="REDEEM" class="cls-4"><g class="cls-4"><path class="cls-5" d="M190.44,100.31c-1.36-1.81-2.42-3.22-3.3-4.21-.55,1.08-1.12,2.34-1.78,4-.15.42-.4.47-.73.14a1.65,1.65,0,0,1-.41-1.17,4.24,4.24,0,0,1,.15-1.1A43.7,43.7,0,0,1,188.79,89a1.66,1.66,0,0,1-1.3-.91c-.17-.3-.06-.48.4-.54a16.17,16.17,0,0,0,2.51-.64,9.23,9.23,0,0,1,2.42-.53,2.7,2.7,0,0,1,2.79,1.83,3.77,3.77,0,0,1-.68,3.85,10.84,10.84,0,0,1-5.79,3.47,16.49,16.49,0,0,1,2,2.82,2.51,2.51,0,0,1,.31,1.14,1.49,1.49,0,0,1-.22.75C191,100.62,190.71,100.66,190.44,100.31Zm.2-11.44a6,6,0,0,1-.84,2.42c-.59,1.1-1.14,2-1.54,2.7,4.4-1.12,6.56-4,6-5.48a.67.67,0,0,0-.71-.46,8.1,8.1,0,0,0-2,.53Z"></path><path class="cls-5" d="M192.93,98.06a59.47,59.47,0,0,1,4.93-9.41,1.88,1.88,0,0,1-.88-1.1c-.07-.31.17-.44.5-.44a21.53,21.53,0,0,0,3.43-.31,14.21,14.21,0,0,1,1.94-.22,1.68,1.68,0,0,1,1.85,1.14c.09.24-.07.44-.49.44a18.16,18.16,0,0,0-3.32.42c-.33.07-.55.11-.88.15-.72,1.1-1.74,2.93-2.77,4.8.46-.07.84-.09,1.14-.11,1.21,0,1.79.35,2,1.06.11.28.06.5-.44.5a17.68,17.68,0,0,0-3.81.57c-.61,1.17-1.08,2.07-1.52,3.06a18.94,18.94,0,0,1,3-.52c1.18,0,1.8.3,2.06,1,.11.31.05.48-.41.48a23,23,0,0,0-4.73.88c-.53.16-.88.16-1.17-.26-.15-.22-.31-.57-.55-1S192.71,98.68,192.93,98.06Z"></path><path class="cls-5" d="M201.35,96.72a39,39,0,0,1,3.9-7.5,1.63,1.63,0,0,1-1.32-1c-.11-.33-.07-.51.39-.57a7.11,7.11,0,0,0,2.05-.66,7.94,7.94,0,0,1,2-.64c1.5-.24,2.58.46,3.48,2a4.64,4.64,0,0,1,.5,2.2c0,3.54-3.49,8.1-8.33,9.72a2.21,2.21,0,0,1-.73.13c-.7,0-1.12-.37-1.67-1.07a2,2,0,0,1-.57-1.19A5.09,5.09,0,0,1,201.35,96.72ZM207,89a4,4,0,0,1-.61,2.26A35.12,35.12,0,0,0,202.89,98a2.55,2.55,0,0,0-.11.64q0,.28.33.15c4.87-1.85,7.57-6.45,7.57-9.06a2.34,2.34,0,0,0-.26-1.21,1,1,0,0,0-.82-.49A11.27,11.27,0,0,0,207,89Z"></path><path class="cls-5" d="M210.42,98.06a59.47,59.47,0,0,1,4.93-9.41,1.88,1.88,0,0,1-.88-1.1c-.07-.31.17-.44.5-.44a21.53,21.53,0,0,0,3.43-.31,14.21,14.21,0,0,1,1.94-.22,1.68,1.68,0,0,1,1.85,1.14c.09.24-.07.44-.49.44a18.16,18.16,0,0,0-3.32.42c-.33.07-.55.11-.88.15-.72,1.1-1.74,2.93-2.77,4.8.46-.07.84-.09,1.14-.11,1.21,0,1.79.35,2,1.06.11.28.06.5-.44.5a17.68,17.68,0,0,0-3.81.57c-.61,1.17-1.08,2.07-1.52,3.06a18.94,18.94,0,0,1,3-.52c1.18,0,1.8.3,2.06,1,.11.31.05.48-.41.48a23.18,23.18,0,0,0-4.74.88c-.52.16-.88.16-1.16-.26-.16-.22-.31-.57-.55-1S210.2,98.68,210.42,98.06Z"></path><path class="cls-5" d="M218,98.06a59.47,59.47,0,0,1,4.93-9.41,1.88,1.88,0,0,1-.88-1.1c-.07-.31.17-.44.5-.44A21.53,21.53,0,0,0,226,86.8a14.21,14.21,0,0,1,1.94-.22,1.68,1.68,0,0,1,1.85,1.14c.09.24-.07.44-.49.44a18.16,18.16,0,0,0-3.32.42c-.33.07-.55.11-.88.15-.72,1.1-1.74,2.93-2.77,4.8.46-.07.84-.09,1.14-.11,1.21,0,1.79.35,2,1.06.11.28.06.5-.44.5a17.68,17.68,0,0,0-3.81.57c-.61,1.17-1.08,2.07-1.52,3.06a18.94,18.94,0,0,1,3-.52c1.18,0,1.8.3,2.06,1,.11.31.05.48-.41.48a23,23,0,0,0-4.73.88c-.53.16-.88.16-1.17-.26-.15-.22-.31-.57-.55-1S217.79,98.68,218,98.06Z"></path><path class="cls-5" d="M229.6,97.62a57,57,0,0,1,1.54-5.89,64.81,64.81,0,0,0-4.86,8.53c-.13.31-.46.38-.75.09a1.51,1.51,0,0,1-.4-1.1,3.78,3.78,0,0,1,.31-1.39,74.45,74.45,0,0,1,6.67-11.06.65.65,0,0,1,1-.16,2.26,2.26,0,0,1,.91,1.79,5.76,5.76,0,0,1-.31,1.58c-.68,2-1.12,3.32-1.92,6.27,2.31-3.5,4.67-5.65,7.11-9.53.29-.46.57-.48,1-.08a2.17,2.17,0,0,1,.64,1.51A4.31,4.31,0,0,1,240,90a84,84,0,0,0-4.77,10.27c-.16.44-.36.44-.71.13a1.59,1.59,0,0,1-.5-1.25,4.75,4.75,0,0,1,.17-1.25v0a42.58,42.58,0,0,1,2.42-5.55,67.29,67.29,0,0,0-5.37,7.82c-.24.44-.44.44-.77.19a2.32,2.32,0,0,1-1-2A5.52,5.52,0,0,1,229.6,97.62Z"></path></g></g><g id="DISCOUNT1" class="cls-4"><g class="cls-4"><path class="cls-5" d="M19.32,89.49H26c3,0,5.14,2,5.14,4.8A4.87,4.87,0,0,1,26,99.09H19.32Zm2.4,2.16v5.28H26a2.64,2.64,0,1,0,0-5.28Z"></path><path class="cls-5" d="M32.2,89.49h2.4v9.6H32.2Z"></path><path class="cls-5" d="M35.8,92.42c0-2,2.22-3.12,5.26-3.12a12.69,12.69,0,0,1,4.86.74l-.46,2A11.22,11.22,0,0,0,41,91.35c-2,0-2.81.29-2.81.79,0,1.77,8,.08,8,3.91,0,1.72-1.71,3.23-5.34,3.23A14.54,14.54,0,0,1,36,98.67l.09-2.2a12.52,12.52,0,0,0,4.86.76c2.09,0,2.88-.37,2.88-.82C43.82,94.77,35.8,96.39,35.8,92.42Z"></path><path class="cls-5" d="M57.7,98.78a14,14,0,0,1-3.92.5c-4.58,0-6.81-2.06-6.81-5s2.34-5,7-5a21,21,0,0,1,3.86.34l-.23,2.11a21.17,21.17,0,0,0-3.74-.37c-3.2,0-4.45,1.11-4.45,2.84s1.37,3,4.3,3a17.23,17.23,0,0,0,4-.47Z"></path><path class="cls-5" d="M64.75,89.3c3.78,0,6.45,1.7,6.45,4.94s-2.87,5-6.46,5-6.49-1.69-6.49-5C58.25,91.11,60.89,89.3,64.75,89.3Zm0,8c2.37,0,4-1,4-3.07,0-1.92-1.65-2.87-4-2.87s-4,.93-4,3S62.37,97.26,64.71,97.26Z"></path><path class="cls-5" d="M84.57,89.49v5c0,2.65-2.51,4.8-6.12,4.8s-6.23-1.57-6.23-4.8v-5h2.39v5c0,1.72,1.49,2.66,3.84,2.66s3.72-1.27,3.72-2.66v-5Z"></path><path class="cls-5" d="M89.17,92.36h-.6v6.73h-2.4v-9.6h3.37l6.35,6.06h.6V89.49h2.4v9.6H96Z"></path><path class="cls-5" d="M106.58,91.65v7.44h-2.4V91.65H99.74V89.49h11.4v2.16Z"></path><path class="cls-5" d="M111.65,99.09V97h2.12V92l-2.12.3V90.09l4.12-.79h.4V97h2v2.1Z"></path></g></g><line id="Line-3" class="cls-6" x1="265.41" y1="68.61" x2="277.41" y2="61.61"></line><line id="Line-3-2" data-name="Line-3" class="cls-6" x1="260.41" y1="64.61" x2="264.91" y2="58.11"></line><line id="Line-3-3" data-name="Line-3" class="cls-6" x1="265.41" y1="75.61" x2="273.66" y2="73.86"></line></g></g></g><g id="Marketing-Tools-2" data-name="Marketing-Tools"><g id="Desktop-HD-Copy-2" data-name="Desktop-HD-Copy"><g id="Group-3"><circle id="Oval" class="cls-7" cx="28.79" cy="28.72" r="21"></circle><g id="doot-arrow"><g id="next"><g id="Group"><path id="Path-2" data-name="Path" class="cls-8" d="M100,28.43h0a.78.78,0,1,0,.78.78.78.78,0,0,0-.78-.78Z"></path><path id="Path-3" data-name="Path" class="cls-8" d="M96.87,28.43h0a.78.78,0,1,0,.78.78.78.78,0,0,0-.78-.78Z"></path><path id="Path-4" data-name="Path" class="cls-8" d="M93.74,28.43h0a.78.78,0,1,0,.78.78.78.78,0,0,0-.78-.78Z"></path><path id="Path-5" data-name="Path" class="cls-8" d="M90.61,28.43h0a.78.78,0,1,0,.79.78.78.78,0,0,0-.79-.78Z"></path><path id="Path-6" data-name="Path" class="cls-8" d="M87.48,28.43h0a.78.78,0,1,0,.78.78.78.78,0,0,0-.78-.78Z"></path><path id="Path-7" data-name="Path" class="cls-8" d="M84.35,28.43h0a.78.78,0,1,0,.78.78.78.78,0,0,0-.78-.78Z"></path><path id="Path-8" data-name="Path" class="cls-8" d="M81.23,28.43h0a.78.78,0,1,0,.78.78.78.78,0,0,0-.78-.78Z"></path><path id="Path-9" data-name="Path" class="cls-8" d="M96.87,25.29h0a.79.79,0,1,0,.78.78.78.78,0,0,0-.78-.78Z"></path><path id="Path-10" data-name="Path" class="cls-8" d="M93.74,25.29h0a.79.79,0,1,0,.78.78.78.78,0,0,0-.78-.78Z"></path><path id="Path-11" data-name="Path" class="cls-8" d="M90.61,25.29h0a.79.79,0,1,0,.79.78.78.78,0,0,0-.79-.78Z"></path><path id="Path-12" data-name="Path" class="cls-8" d="M87.48,25.29h0a.79.79,0,1,0,.78.78.78.78,0,0,0-.78-.78Z"></path><path id="Path-13" data-name="Path" class="cls-8" d="M84.35,25.29h0a.79.79,0,1,0,.78.78.78.78,0,0,0-.78-.78Z"></path><path id="Path-14" data-name="Path" class="cls-8" d="M93.74,22.15h0a.79.79,0,0,0-.78.79.78.78,0,0,0,1.56,0,.79.79,0,0,0-.78-.79Z"></path><path id="Path-15" data-name="Path" class="cls-8" d="M90.61,22.15h0a.79.79,0,0,0-.78.79.79.79,0,0,0,1.57,0,.79.79,0,0,0-.79-.79Z"></path><path id="Path-16" data-name="Path" class="cls-8" d="M87.48,22.15h0a.79.79,0,0,0-.79.79.79.79,0,1,0,.79-.79Z"></path><path id="Path-17" data-name="Path" class="cls-8" d="M84.35,22.15h0a.79.79,0,0,0-.78.79.78.78,0,1,0,1.56,0,.79.79,0,0,0-.78-.79Z"></path><path id="Path-18" data-name="Path" class="cls-8" d="M90.61,19h0a.79.79,0,1,0,.79.78.78.78,0,0,0-.79-.78Z"></path><path id="Path-19" data-name="Path" class="cls-8" d="M87.48,19h0a.79.79,0,1,0,.78.78.78.78,0,0,0-.78-.78Z"></path><path id="Path-20" data-name="Path" class="cls-8" d="M84.35,19h0a.79.79,0,1,0,.78.78.78.78,0,0,0-.78-.78Z"></path><path id="Path-21" data-name="Path" class="cls-8" d="M87.48,15.88h0a.79.79,0,1,0,.78.79.79.79,0,0,0-.78-.79Z"></path><path id="Path-22" data-name="Path" class="cls-8" d="M84.35,15.88h0a.79.79,0,1,0,.78.79.78.78,0,0,0-.78-.79Z"></path><path id="Path-23" data-name="Path" class="cls-8" d="M84.35,12.75h0a.78.78,0,0,0-.78.78.78.78,0,1,0,1.56,0,.78.78,0,0,0-.78-.78Z"></path><path id="Path-24" data-name="Path" class="cls-8" d="M96.87,31.56h0a.79.79,0,1,0,.78.79.78.78,0,0,0-.78-.79Z"></path><path id="Path-25" data-name="Path" class="cls-8" d="M93.74,31.56h0a.79.79,0,1,0,.78.79.78.78,0,0,0-.78-.79Z"></path><path id="Path-26" data-name="Path" class="cls-8" d="M90.61,31.56h0a.79.79,0,1,0,.79.79.78.78,0,0,0-.79-.79Z"></path><path id="Path-27" data-name="Path" class="cls-8" d="M87.48,31.56h0a.79.79,0,1,0,.78.79.79.79,0,0,0-.78-.79Z"></path><path id="Path-28" data-name="Path" class="cls-8" d="M84.35,31.56h0a.79.79,0,1,0,.78.79.78.78,0,0,0-.78-.79Z"></path><path id="Path-29" data-name="Path" class="cls-8" d="M93.74,34.7h0a.79.79,0,1,0,.78.78.78.78,0,0,0-.78-.78Z"></path><path id="Path-30" data-name="Path" class="cls-8" d="M90.61,34.7h0a.79.79,0,1,0,.79.78.78.78,0,0,0-.79-.78Z"></path><path id="Path-31" data-name="Path" class="cls-8" d="M87.48,34.7h0a.79.79,0,1,0,.78.78.78.78,0,0,0-.78-.78Z"></path><path id="Path-32" data-name="Path" class="cls-8" d="M84.35,34.7h0a.79.79,0,1,0,.78.78.78.78,0,0,0-.78-.78Z"></path><path id="Path-33" data-name="Path" class="cls-8" d="M90.61,37.83h0a.79.79,0,1,0,.79.79.78.78,0,0,0-.79-.79Z"></path><path id="Path-34" data-name="Path" class="cls-8" d="M87.48,37.83h0a.79.79,0,1,0,.78.79.79.79,0,0,0-.78-.79Z"></path><path id="Path-35" data-name="Path" class="cls-8" d="M84.35,37.83h0a.79.79,0,1,0,.78.79.78.78,0,0,0-.78-.79Z"></path><path id="Path-36" data-name="Path" class="cls-8" d="M87.48,41h0a.79.79,0,1,0,.78.78.78.78,0,0,0-.78-.78Z"></path><path id="Path-37" data-name="Path" class="cls-8" d="M84.35,41h0a.79.79,0,1,0,.78.78.78.78,0,0,0-.78-.78Z"></path><path id="Path-38" data-name="Path" class="cls-8" d="M84.35,44.11h0a.78.78,0,1,0,.78.78.78.78,0,0,0-.78-.78Z"></path><path id="Path-39" data-name="Path" class="cls-8" d="M78.1,28.43h0a.78.78,0,1,0,.78.78.78.78,0,0,0-.78-.78Z"></path><path id="Path-40" data-name="Path" class="cls-8" d="M75,28.43h0a.78.78,0,1,0,.78.78.78.78,0,0,0-.78-.78Z"></path><path id="Path-41" data-name="Path" class="cls-8" d="M71.84,28.43h0a.78.78,0,1,0,.79.78.78.78,0,0,0-.79-.78Z"></path><path id="Path-42" data-name="Path" class="cls-8" d="M68.71,28.43h0a.78.78,0,1,0,.78.78.78.78,0,0,0-.78-.78Z"></path><path id="Path-43" data-name="Path" class="cls-8" d="M65.58,28.43h0a.78.78,0,1,0,.78.78.78.78,0,0,0-.78-.78Z"></path><path id="Path-44" data-name="Path" class="cls-8" d="M81.23,31.56h0a.79.79,0,1,0,.78.79.78.78,0,0,0-.78-.79Z"></path><path id="Path-45" data-name="Path" class="cls-8" d="M78.1,31.56h0a.79.79,0,1,0,.78.79.78.78,0,0,0-.78-.79Z"></path><path id="Path-46" data-name="Path" class="cls-8" d="M75,31.56h0a.79.79,0,1,0,.78.79.78.78,0,0,0-.78-.79Z"></path><path id="Path-47" data-name="Path" class="cls-8" d="M71.84,31.56h0a.79.79,0,1,0,.79.79.78.78,0,0,0-.79-.79Z"></path><path id="Path-48" data-name="Path" class="cls-8" d="M68.71,31.56h0a.79.79,0,1,0,.78.79.79.79,0,0,0-.78-.79Z"></path><path id="Path-49" data-name="Path" class="cls-8" d="M65.58,31.56h0a.79.79,0,1,0,.78.79.78.78,0,0,0-.78-.79Z"></path><path id="Path-50" data-name="Path" class="cls-8" d="M81.23,25.29h0a.79.79,0,1,0,.78.78.78.78,0,0,0-.78-.78Z"></path><path id="Path-51" data-name="Path" class="cls-8" d="M78.1,25.29h0a.79.79,0,1,0,.78.78A.78.78,0,0,0,78.08,25.29Z"></path><path id="Path-52" data-name="Path" class="cls-8" d="M75,25.29h0a.79.79,0,1,0,.78.78A.78.78,0,0,0,75,25.29Z"></path><path id="Path-53" data-name="Path" class="cls-8" d="M71.84,25.29h0a.79.79,0,1,0,.79.78A.78.78,0,0,0,71.82,25.29Z"></path><path id="Path-54" data-name="Path" class="cls-8" d="M68.71,25.29h0a.79.79,0,1,0,.78.78A.78.78,0,0,0,68.7,25.29Z"></path><path id="Path-55" data-name="Path" class="cls-8" d="M65.58,25.29h0a.79.79,0,1,0,.78.78A.78.78,0,0,0,65.57,25.29Z"></path></g><path id="Path-56" data-name="Path" class="cls-8" d="M100,30a.78.78,0,0,1,0-1.56h0A.78.78,0,1,1,100,30Z"></path><path id="Path-57" data-name="Path" class="cls-8" d="M96.87,30a.78.78,0,1,1,0-1.56h0a.78.78,0,1,1,0,1.56Z"></path><path id="Path-58" data-name="Path" class="cls-8" d="M93.74,30a.78.78,0,0,1,0-1.56h0a.78.78,0,0,1,0,1.56Z"></path><path id="Path-59" data-name="Path" class="cls-8" d="M90.61,30a.78.78,0,0,1,0-1.56h0a.78.78,0,0,1,0,1.56Z"></path><path id="Path-60" data-name="Path" class="cls-8" d="M87.48,30a.78.78,0,0,1,0-1.56h0a.78.78,0,0,1,0,1.56Z"></path><path id="Path-61" data-name="Path" class="cls-8" d="M84.35,30a.78.78,0,0,1,0-1.56h0a.78.78,0,1,1,0,1.56Z"></path><path id="Path-62" data-name="Path" class="cls-8" d="M81.23,30a.78.78,0,1,1,0-1.56h0a.78.78,0,0,1,0,1.56Z"></path><path id="Path-63" data-name="Path" class="cls-8" d="M96.87,26.86a.79.79,0,1,1,0-1.57h0a.79.79,0,0,1,0,1.57Z"></path><path id="Path-64" data-name="Path" class="cls-8" d="M93.74,26.86a.79.79,0,0,1,0-1.57h0a.79.79,0,0,1,0,1.57Z"></path><path id="Path-65" data-name="Path" class="cls-8" d="M90.61,26.86a.79.79,0,0,1,0-1.57h0a.79.79,0,0,1,0,1.57Z"></path><path id="Path-66" data-name="Path" class="cls-8" d="M87.48,26.86a.79.79,0,0,1,0-1.57h0a.79.79,0,0,1,0,1.57Z"></path><path id="Path-67" data-name="Path" class="cls-8" d="M84.35,26.86a.79.79,0,0,1,0-1.57h0a.79.79,0,1,1,0,1.57Z"></path><path id="Path-68" data-name="Path" class="cls-8" d="M93.74,23.72a.78.78,0,0,1-.78-.78.79.79,0,0,1,.78-.79h0a.79.79,0,0,1,.78.79A.78.78,0,0,1,93.74,23.72Z"></path><path id="Path-69" data-name="Path" class="cls-8" d="M90.61,23.72a.78.78,0,0,1-.78-.78.79.79,0,0,1,.78-.79h0a.79.79,0,0,1,.78.79A.78.78,0,0,1,90.61,23.72Z"></path><path id="Path-70" data-name="Path" class="cls-8" d="M87.48,23.72a.78.78,0,0,1-.78-.78.79.79,0,0,1,.78-.79h0a.79.79,0,0,1,.78.79A.78.78,0,0,1,87.48,23.72Z"></path><path id="Path-71" data-name="Path" class="cls-8" d="M84.35,23.72a.78.78,0,0,1-.78-.78.79.79,0,0,1,.78-.79h0a.79.79,0,0,1,.79.79A.78.78,0,0,1,84.35,23.72Z"></path><path id="Path-72" data-name="Path" class="cls-8" d="M90.61,20.59a.79.79,0,0,1,0-1.57h0a.79.79,0,0,1,0,1.57Z"></path><path id="Path-73" data-name="Path" class="cls-8" d="M87.48,20.59a.79.79,0,0,1,0-1.57h0a.79.79,0,0,1,0,1.57Z"></path><path id="Path-74" data-name="Path" class="cls-8" d="M84.35,20.59a.79.79,0,0,1,0-1.57h0a.79.79,0,1,1,0,1.57Z"></path><path id="Path-75" data-name="Path" class="cls-8" d="M87.48,17.45a.79.79,0,0,1,0-1.57h0a.79.79,0,0,1,0,1.57Z"></path><path id="Path-76" data-name="Path" class="cls-8" d="M84.35,17.45a.79.79,0,0,1,0-1.57h0a.79.79,0,1,1,0,1.57Z"></path><path id="Path-77" data-name="Path" class="cls-8" d="M84.35,14.31a.78.78,0,0,1,0-1.56h0a.78.78,0,1,1,0,1.56Z"></path><path id="Path-78" data-name="Path" class="cls-8" d="M96.87,33.13a.79.79,0,1,1,0-1.57h0a.79.79,0,0,1,0,1.57Z"></path><path id="Path-79" data-name="Path" class="cls-8" d="M93.74,33.13a.79.79,0,0,1,0-1.57h0a.79.79,0,0,1,0,1.57Z"></path><path id="Path-80" data-name="Path" class="cls-8" d="M90.61,33.13a.79.79,0,0,1,0-1.57h0a.79.79,0,0,1,0,1.57Z"></path><path id="Path-81" data-name="Path" class="cls-8" d="M87.48,33.13a.79.79,0,0,1,0-1.57h0a.79.79,0,0,1,0,1.57Z"></path><path id="Path-82" data-name="Path" class="cls-8" d="M84.35,33.13a.79.79,0,0,1,0-1.57h0a.79.79,0,1,1,0,1.57Z"></path><path id="Path-83" data-name="Path" class="cls-8" d="M93.74,36.27a.79.79,0,0,1-.78-.79.78.78,0,0,1,.78-.78h0a.78.78,0,0,1,.78.78A.79.79,0,0,1,93.74,36.27Z"></path><path id="Path-84" data-name="Path" class="cls-8" d="M90.61,36.27a.79.79,0,0,1-.78-.79.78.78,0,0,1,.78-.78h0a.78.78,0,0,1,.78.78A.79.79,0,0,1,90.61,36.27Z"></path><path id="Path-85" data-name="Path" class="cls-8" d="M87.48,36.27a.79.79,0,0,1-.78-.79.78.78,0,0,1,.78-.78h0a.78.78,0,0,1,.78.78A.79.79,0,0,1,87.48,36.27Z"></path><path id="Path-86" data-name="Path" class="cls-8" d="M84.35,36.27a.79.79,0,0,1-.78-.79.78.78,0,0,1,.78-.78h0a.78.78,0,0,1,.79.78A.79.79,0,0,1,84.35,36.27Z"></path><path id="Path-87" data-name="Path" class="cls-8" d="M90.61,39.4a.79.79,0,0,1,0-1.57h0a.79.79,0,0,1,0,1.57Z"></path><path id="Path-88" data-name="Path" class="cls-8" d="M87.48,39.4a.79.79,0,0,1,0-1.57h0a.79.79,0,0,1,0,1.57Z"></path><path id="Path-89" data-name="Path" class="cls-8" d="M84.35,39.4a.79.79,0,0,1,0-1.57h0a.79.79,0,1,1,0,1.57Z"></path><path id="Path-90" data-name="Path" class="cls-8" d="M87.48,42.54a.79.79,0,0,1,0-1.57h0a.79.79,0,0,1,0,1.57Z"></path><path id="Path-91" data-name="Path" class="cls-8" d="M84.35,42.54a.79.79,0,0,1,0-1.57h0a.79.79,0,1,1,0,1.57Z"></path><path id="Path-92" data-name="Path" class="cls-8" d="M84.35,45.67a.78.78,0,0,1,0-1.56h0a.78.78,0,1,1,0,1.56Z"></path><path id="Path-93" data-name="Path" class="cls-8" d="M78.1,30a.78.78,0,1,1,0-1.56h0a.78.78,0,0,1,0,1.56Z"></path><path id="Path-94" data-name="Path" class="cls-8" d="M75,30a.78.78,0,0,1,0-1.56h0A.78.78,0,0,1,75,30Z"></path><path id="Path-95" data-name="Path" class="cls-8" d="M71.84,30a.78.78,0,0,1,0-1.56h0a.78.78,0,0,1,0,1.56Z"></path><path id="Path-96" data-name="Path" class="cls-8" d="M68.71,30a.78.78,0,0,1,0-1.56h0a.78.78,0,0,1,0,1.56Z"></path><path id="Path-97" data-name="Path" class="cls-8" d="M65.58,30a.78.78,0,0,1,0-1.56h0a.78.78,0,1,1,0,1.56Z"></path><path id="Path-98" data-name="Path" class="cls-8" d="M81.23,33.13a.79.79,0,1,1,0-1.57h0a.79.79,0,0,1,0,1.57Z"></path><path id="Path-99" data-name="Path" class="cls-8" d="M78.1,33.13a.79.79,0,1,1,0-1.57h0a.79.79,0,0,1,0,1.57Z"></path><path id="Path-100" data-name="Path" class="cls-8" d="M75,33.13a.79.79,0,0,1,0-1.57h0a.79.79,0,0,1,0,1.57Z"></path><path id="Path-101" data-name="Path" class="cls-8" d="M71.84,33.13a.79.79,0,0,1,0-1.57h0a.79.79,0,0,1,0,1.57Z"></path><path id="Path-102" data-name="Path" class="cls-8" d="M68.71,33.13a.79.79,0,0,1,0-1.57h0a.79.79,0,0,1,0,1.57Z"></path><path id="Path-103" data-name="Path" class="cls-8" d="M65.58,33.13a.79.79,0,0,1,0-1.57h0a.79.79,0,1,1,0,1.57Z"></path><path id="Path-104" data-name="Path" class="cls-8" d="M81.23,26.86a.79.79,0,1,1,0-1.57h0a.79.79,0,0,1,0,1.57Z"></path><path id="Path-105" data-name="Path" class="cls-8" d="M78.1,26.86a.79.79,0,1,1,0-1.57h0a.79.79,0,0,1,0,1.57Z"></path><path id="Path-106" data-name="Path" class="cls-8" d="M75,26.86a.79.79,0,0,1,0-1.57h0a.79.79,0,0,1,0,1.57Z"></path><path id="Path-107" data-name="Path" class="cls-8" d="M71.84,26.86a.79.79,0,0,1,0-1.57h0a.79.79,0,0,1,0,1.57Z"></path><path id="Path-108" data-name="Path" class="cls-8" d="M68.71,26.86a.79.79,0,0,1,0-1.57h0a.79.79,0,0,1,0,1.57Z"></path><path id="Path-109" data-name="Path" class="cls-8" d="M65.58,26.86a.79.79,0,0,1,0-1.57h0a.79.79,0,1,1,0,1.57Z"></path></g></g></g></g></g><path class="cls-8" d="M26.78,22.47h-.05l-3,2.07c-.17.11-.31.06-.31-.17V20.9a.45.45,0,0,1,.2-.39l3.19-2.3a.8.8,0,0,1,.51-.16h3.13a.26.26,0,0,1,.28.28V36.81a.27.27,0,0,1-.28.28H27.06a.27.27,0,0,1-.28-.28Z"></path></svg> 