<?xml version="1.0" encoding="UTF-8"?> <svg xmlns="http://www.w3.org/2000/svg" id="Layer_1" data-name="Layer 1" viewBox="0 0 280.4 136.12"><defs><style>.cls-1{fill:none;stroke:#000;stroke-linecap:square;}.cls-2,.cls-8{fill:#fff;}.cls-2,.cls-3{stroke:#0b0b0b;}.cls-3{fill:#ffd03b;}.cls-4,.cls-7{fill:#222;}.cls-4{fill-rule:evenodd;}.cls-5{isolation:isolate;}.cls-6{fill:#191919;}</style></defs><g id="Marketing-Tools"><g id="Desktop-HD-Copy"><g id="Group-14"><g id="Group-2"><line id="Line-3" class="cls-1" x1="265.73" y1="63.88" x2="277.73" y2="56.88"></line><line id="Line-3-2" data-name="Line-3" class="cls-1" x1="260.73" y1="59.88" x2="265.23" y2="53.38"></line><line id="Line-3-3" data-name="Line-3" class="cls-1" x1="265.73" y1="70.88" x2="273.98" y2="69.13"></line><rect id="Rectangle" class="cls-2" x="5.23" y="66.38" width="256" height="48" rx="3"></rect><rect id="Rectangle-2" data-name="Rectangle" class="cls-3" x="175.23" y="71.38" width="81" height="38" rx="3"></rect><polygon id="Path" class="cls-4" points="252.48 128.02 249.43 129.38 244.51 118.03 238.23 124.11 238.24 99.38 256.23 116.12 247.56 116.68 252.48 128.02"></polygon><g id="APPLY" class="cls-5"><g class="cls-5"><path class="cls-6" d="M201.72,94.49a11.82,11.82,0,0,1,.07-1.48l-1.54.16a19.86,19.86,0,0,1-2.36.15c-.59,1-1.08,2.14-1.58,3-.27.46-.64.37-.79.06a1.54,1.54,0,0,1-.27-.81,4.14,4.14,0,0,1,.35-1.5c.14-.33.29-.7.53-1.16a2.35,2.35,0,0,1-.66-.73c-.17-.42-.09-.55.49-.46l.79.09a40.43,40.43,0,0,1,7-9.09c.48-.4.81-.38,1.14.07a3.53,3.53,0,0,1,.51.9,1.91,1.91,0,0,1,.17.77,2.44,2.44,0,0,1-.17.9,49.16,49.16,0,0,0-1.54,6.18,1.69,1.69,0,0,1,1,1.15c.11.35,0,.44-.44.37l-.77-.13c-.13,1.1-.24,2.22-.28,3.3,0,.4-.29.48-.68.31S201.74,95.76,201.72,94.49Zm1.54-8.69a61.9,61.9,0,0,0-4.38,6c.44-.05.88-.09,1.3-.16.75-.08,1.23-.17,1.83-.19A34.23,34.23,0,0,1,203.26,85.8Z"></path><path class="cls-6" d="M204.23,94.2a45.55,45.55,0,0,1,4.42-8.84,1.72,1.72,0,0,1-1.28-1c-.15-.33-.06-.53.42-.57a10.61,10.61,0,0,0,2.49-.64,8,8,0,0,1,2.4-.53,2.47,2.47,0,0,1,2.81,1.87,4,4,0,0,1-.68,3.81,9.17,9.17,0,0,1-6.18,3.89,3.06,3.06,0,0,1-1.48-.09c-.59,1.15-1.29,2.55-2,4.25-.17.4-.35.4-.66.09a1.65,1.65,0,0,1-.42-1.17A4.29,4.29,0,0,1,204.23,94.2ZM208,90.48c4.38-1,6.52-4.2,6.12-5.67a.72.72,0,0,0-.7-.44,7.62,7.62,0,0,0-2.07.55c-.35.13-.53.19-.84.28a6.3,6.3,0,0,1-.83,2.36C209.49,87.89,209.27,88.28,208,90.48Z"></path><path class="cls-6" d="M213.07,94.2a45.55,45.55,0,0,1,4.42-8.84,1.7,1.7,0,0,1-1.27-1c-.16-.33-.07-.53.42-.57a10.53,10.53,0,0,0,2.48-.64,8.08,8.08,0,0,1,2.4-.53,2.49,2.49,0,0,1,2.82,1.87,4,4,0,0,1-.68,3.81,9.19,9.19,0,0,1-6.19,3.89,3,3,0,0,1-1.47-.09c-.6,1.15-1.3,2.55-2,4.25-.18.4-.36.4-.66.09a1.61,1.61,0,0,1-.42-1.17A4.24,4.24,0,0,1,213.07,94.2Zm3.79-3.72c4.38-1,6.51-4.2,6.11-5.67a.7.7,0,0,0-.7-.44,7.62,7.62,0,0,0-2.07.55c-.35.13-.53.19-.84.28a6.3,6.3,0,0,1-.83,2.36C218.33,87.89,218.11,88.28,216.86,90.48Z"></path><path class="cls-6" d="M223,94.8a19.48,19.48,0,0,1,2.92-.49,1.89,1.89,0,0,1,2.14,1.06c.11.26.06.48-.44.48a24.28,24.28,0,0,0-4.64.86c-.64.15-.93.15-1.24-.29a5.23,5.23,0,0,1-.59-.94,1.74,1.74,0,0,1,.07-1.35A79,79,0,0,1,227.31,83c.35-.48.61-.33.83.07a2.1,2.1,0,0,1,.2.9,4.86,4.86,0,0,1-.75,2.29C225.68,89.76,224.25,92.22,223,94.8Z"></path><path class="cls-6" d="M229.4,96.51c-.16.42-.38.53-.71.24a1.9,1.9,0,0,1-.53-1.34,3.93,3.93,0,0,1,.16-1.08,26.94,26.94,0,0,1,1.34-3.12,50.73,50.73,0,0,1,.62-8c.11-.53.33-.57.68-.37a3,3,0,0,1,1,2.66c0,1.21-.22,2.11-.31,3.69,2-2.13,4.67-4.73,6.36-6.27.4-.37.71-.31.79,0,.16.66,0,1.78-1.32,3.08-2.53,2.4-4.11,3.89-6.09,6A38.82,38.82,0,0,0,229.4,96.51Z"></path></g></g><g id="_3lK6---56R0---4LK1" data-name="3lK6---56R0---4LK1" class="cls-5"><g class="cls-5"><path class="cls-6" d="M24,89.2v0a2.14,2.14,0,0,1,1.59,2.09c0,1.94-1.95,3-4.16,3a5.7,5.7,0,0,1-2.59-.57l.22-2.06a6.78,6.78,0,0,0,2.54.62c.85,0,1.47-.38,1.47-1s-.87-1.19-2.35-1.11l-.27-1.51c1.65-.32,2.53-.68,2.53-1.37s-.59-.92-1.36-.93a5.47,5.47,0,0,0-2.36.62L19,85.19a5.47,5.47,0,0,1,3.05-.85c1.84,0,3.57.88,3.57,2.57A2.5,2.5,0,0,1,24,89.2Z"></path><path class="cls-6" d="M26.94,84.53h2.39v7.32h7.43v2.28H26.94Z"></path><path class="cls-6" d="M42.41,89.18l6.69,4.95H45.46l-4.93-3.66h-.44v3.66h-2.4v-9.6h2.4v3.66h.43l5.12-3.66h3.48Z"></path><path class="cls-6" d="M56.48,86.64l-.89,0c-2.08,0-3.1.86-3.53,1.92A4.42,4.42,0,0,1,54.13,88a2.82,2.82,0,0,1,3,2.89c0,2.06-1.7,3.43-4,3.43-2.45,0-3.89-1.58-3.89-4.1a5.82,5.82,0,0,1,5.89-5.88c.24,0,.46,0,.55,0Zm-4.71,3.48c0,1.32.52,2.28,1.54,2.28a1.31,1.31,0,0,0,1.33-1.35c0-.81-.67-1.19-1.5-1.19A4.37,4.37,0,0,0,51.77,90.12Z"></path><path class="cls-6" d="M61.06,90.23v-1.8h4.62v1.8Z"></path><path class="cls-6" d="M70,90l.47-5.5h6l-.18,2.1H72.46l-.17,1.62c2.52.12,4.31.87,4.31,2.87,0,1.74-1.38,3.19-4,3.19a6.41,6.41,0,0,1-2.83-.64l.12-2a5.82,5.82,0,0,0,2.64.65c1.32,0,1.69-.47,1.69-.94C74.18,90.5,72.69,90.18,70,90Z"></path><path class="cls-6" d="M84.45,86.64l-.89,0c-2.07,0-3.09.86-3.53,1.92A4.42,4.42,0,0,1,82.1,88a2.82,2.82,0,0,1,3,2.89c0,2.06-1.7,3.43-4,3.43-2.45,0-3.89-1.58-3.89-4.1a5.82,5.82,0,0,1,5.89-5.88c.24,0,.46,0,.55,0Zm-4.7,3.48c0,1.32.51,2.28,1.53,2.28a1.31,1.31,0,0,0,1.33-1.35c0-.81-.67-1.19-1.5-1.19A4.31,4.31,0,0,0,79.75,90.12Z"></path><path class="cls-6" d="M86.18,84.53h7.41a3.31,3.31,0,0,1,1.82,6.22l1.72,3.38h-2.7L93.1,91.19H88.58v2.94h-2.4Zm2.4,2.16v2.46h4.66c1.18,0,1.44-.67,1.44-1.28s-.26-1.18-1.44-1.18Z"></path><path class="cls-6" d="M101.64,84.34c2.78,0,4,2.1,4,5s-1.18,5-4,5-4-2.1-4-5S98.87,84.34,101.64,84.34Zm0,7.89c1.26,0,1.54-1.48,1.54-3,0-1.2-.16-2.81-1.52-2.81s-1.59,1.49-1.59,2.89S100.37,92.23,101.66,92.23Z"></path><path class="cls-6" d="M109.71,90.23v-1.8h4.62v1.8Z"></path><path class="cls-6" d="M125,92.53v1.6h-2.38v-1.6h-4.39v-2.1l2.52-5.9h2.63l-2.63,5.9h1.87v-2H125v2h.82v2.1Z"></path><path class="cls-6" d="M126.83,84.53h2.4v7.32h7.43v2.28h-9.83Z"></path><path class="cls-6" d="M142.31,89.18,149,94.13h-3.64l-4.93-3.66H140v3.66h-2.39v-9.6H140v3.66h.44l5.12-3.66H149Z"></path><path class="cls-6" d="M149.41,94.13V92h2.12V87l-2.12.3V85.13l4.12-.79h.4V92h2v2.1Z"></path></g></g></g></g></g></g><g id="Marketing-Tools-2" data-name="Marketing-Tools"><g id="Desktop-HD-Copy-2" data-name="Desktop-HD-Copy"><g id="Group-3"><circle id="Oval" class="cls-7" cx="29.67" cy="28.05" r="21"></circle><g id="doot-arrow"><g id="next"><g id="Group"><path id="Path-2" data-name="Path" class="cls-8" d="M100.87,27.76h0a.79.79,0,1,0,.78.78.78.78,0,0,0-.78-.78Z"></path><path id="Path-3" data-name="Path" class="cls-8" d="M97.74,27.76h0a.79.79,0,1,0,.78.78.78.78,0,0,0-.78-.78Z"></path><path id="Path-4" data-name="Path" class="cls-8" d="M94.61,27.76h0a.79.79,0,1,0,.78.78.78.78,0,0,0-.78-.78Z"></path><path id="Path-5" data-name="Path" class="cls-8" d="M91.49,27.76h0a.79.79,0,1,0,.78.78.78.78,0,0,0-.78-.78Z"></path><path id="Path-6" data-name="Path" class="cls-8" d="M88.36,27.76h0a.79.79,0,1,0,.78.78.78.78,0,0,0-.78-.78Z"></path><path id="Path-7" data-name="Path" class="cls-8" d="M85.23,27.76h0a.79.79,0,1,0,.79.78.78.78,0,0,0-.79-.78Z"></path><path id="Path-8" data-name="Path" class="cls-8" d="M82.1,27.76h0a.79.79,0,1,0,.78.78.78.78,0,0,0-.78-.78Z"></path><path id="Path-9" data-name="Path" class="cls-8" d="M97.74,24.62h0a.8.8,0,0,0-.79.79.79.79,0,0,0,.79.78.78.78,0,0,0,.78-.78.79.79,0,0,0-.78-.79Z"></path><path id="Path-10" data-name="Path" class="cls-8" d="M94.61,24.62h0a.79.79,0,0,0-.78.79.78.78,0,0,0,1.56,0,.79.79,0,0,0-.78-.79Z"></path><path id="Path-11" data-name="Path" class="cls-8" d="M91.49,24.62h0a.79.79,0,0,0-.78.79.78.78,0,0,0,1.56,0,.79.79,0,0,0-.78-.79Z"></path><path id="Path-12" data-name="Path" class="cls-8" d="M88.36,24.62h0a.79.79,0,0,0-.78.79.78.78,0,0,0,1.56,0,.79.79,0,0,0-.78-.79Z"></path><path id="Path-13" data-name="Path" class="cls-8" d="M85.23,24.62h0a.79.79,0,0,0-.78.79.79.79,0,0,0,1.57,0,.79.79,0,0,0-.79-.79Z"></path><path id="Path-14" data-name="Path" class="cls-8" d="M94.61,21.49h0a.79.79,0,1,0,.78.78.78.78,0,0,0-.78-.78Z"></path><path id="Path-15" data-name="Path" class="cls-8" d="M91.49,21.49h0a.79.79,0,1,0,.78.78.78.78,0,0,0-.78-.78Z"></path><path id="Path-16" data-name="Path" class="cls-8" d="M88.36,21.49h0a.79.79,0,1,0,.78.78.78.78,0,0,0-.78-.78Z"></path><path id="Path-17" data-name="Path" class="cls-8" d="M85.23,21.49h0a.79.79,0,1,0,.79.78.78.78,0,0,0-.79-.78Z"></path><path id="Path-18" data-name="Path" class="cls-8" d="M91.49,18.35h0a.79.79,0,1,0,.78.79.78.78,0,0,0-.78-.79Z"></path><path id="Path-19" data-name="Path" class="cls-8" d="M88.36,18.35h0a.79.79,0,1,0,.78.79.78.78,0,0,0-.78-.79Z"></path><path id="Path-20" data-name="Path" class="cls-8" d="M85.23,18.35h0a.79.79,0,1,0,.79.79.78.78,0,0,0-.79-.79Z"></path><path id="Path-21" data-name="Path" class="cls-8" d="M88.36,15.22h0a.78.78,0,1,0,.78.78.78.78,0,0,0-.78-.78Z"></path><path id="Path-22" data-name="Path" class="cls-8" d="M85.23,15.22h0A.78.78,0,1,0,86,16a.78.78,0,0,0-.79-.78Z"></path><path id="Path-23" data-name="Path" class="cls-8" d="M85.23,12.08h0a.79.79,0,1,0,.79.78.78.78,0,0,0-.79-.78Z"></path><path id="Path-24" data-name="Path" class="cls-8" d="M97.74,30.9h0a.78.78,0,1,0,0,1.56.78.78,0,0,0,0-1.56Z"></path><path id="Path-25" data-name="Path" class="cls-8" d="M94.61,30.9h0a.78.78,0,1,0,.78.78.78.78,0,0,0-.78-.78Z"></path><path id="Path-26" data-name="Path" class="cls-8" d="M91.49,30.9h0a.78.78,0,1,0,.78.78.78.78,0,0,0-.78-.78Z"></path><path id="Path-27" data-name="Path" class="cls-8" d="M88.36,30.9h0a.78.78,0,1,0,.78.78.78.78,0,0,0-.78-.78Z"></path><path id="Path-28" data-name="Path" class="cls-8" d="M85.23,30.9h0a.78.78,0,1,0,.79.78.78.78,0,0,0-.79-.78Z"></path><path id="Path-29" data-name="Path" class="cls-8" d="M94.61,34h0a.79.79,0,1,0,.78.79A.78.78,0,0,0,94.6,34Z"></path><path id="Path-30" data-name="Path" class="cls-8" d="M91.49,34h0a.79.79,0,1,0,.78.79.78.78,0,0,0-.78-.79Z"></path><path id="Path-31" data-name="Path" class="cls-8" d="M88.36,34h0a.79.79,0,1,0,.78.79.78.78,0,0,0-.78-.79Z"></path><path id="Path-32" data-name="Path" class="cls-8" d="M85.23,34h0a.79.79,0,1,0,.79.79.78.78,0,0,0-.79-.79Z"></path><path id="Path-33" data-name="Path" class="cls-8" d="M91.49,37.17h0a.78.78,0,0,0-.78.78.78.78,0,1,0,1.56,0,.78.78,0,0,0-.78-.78Z"></path><path id="Path-34" data-name="Path" class="cls-8" d="M88.36,37.17h0a.78.78,0,0,0-.78.78.78.78,0,1,0,1.56,0,.78.78,0,0,0-.78-.78Z"></path><path id="Path-35" data-name="Path" class="cls-8" d="M85.23,37.17h0a.78.78,0,0,0-.78.78.79.79,0,1,0,.78-.78Z"></path><path id="Path-36" data-name="Path" class="cls-8" d="M88.36,40.3h0a.79.79,0,1,0,.78.79.78.78,0,0,0-.78-.79Z"></path><path id="Path-37" data-name="Path" class="cls-8" d="M85.23,40.3h0a.79.79,0,1,0,.79.79.78.78,0,0,0-.79-.79Z"></path><path id="Path-38" data-name="Path" class="cls-8" d="M85.23,43.44h0a.79.79,0,1,0,.79.78.78.78,0,0,0-.79-.78Z"></path><path id="Path-39" data-name="Path" class="cls-8" d="M79,27.76h0a.79.79,0,1,0,.78.78.78.78,0,0,0-.78-.78Z"></path><path id="Path-40" data-name="Path" class="cls-8" d="M75.84,27.76h0a.79.79,0,1,0,.78.78.78.78,0,0,0-.78-.78Z"></path><path id="Path-41" data-name="Path" class="cls-8" d="M72.72,27.76h0a.79.79,0,1,0,.78.78.78.78,0,0,0-.78-.78Z"></path><path id="Path-42" data-name="Path" class="cls-8" d="M69.59,27.76h0a.79.79,0,1,0,.78.78.78.78,0,0,0-.78-.78Z"></path><path id="Path-43" data-name="Path" class="cls-8" d="M66.46,27.76h0a.79.79,0,1,0,.78.78.78.78,0,0,0-.78-.78Z"></path><path id="Path-44" data-name="Path" class="cls-8" d="M82.1,30.9h0a.78.78,0,1,0,.78.78.78.78,0,0,0-.78-.78Z"></path><path id="Path-45" data-name="Path" class="cls-8" d="M79,30.9h0a.78.78,0,1,0,0,1.56.78.78,0,0,0,0-1.56Z"></path><path id="Path-46" data-name="Path" class="cls-8" d="M75.84,30.9h0a.78.78,0,1,0,.78.78.78.78,0,0,0-.78-.78Z"></path><path id="Path-47" data-name="Path" class="cls-8" d="M72.72,30.9h0a.78.78,0,1,0,.78.78.78.78,0,0,0-.78-.78Z"></path><path id="Path-48" data-name="Path" class="cls-8" d="M69.59,30.9h0a.78.78,0,1,0,.78.78.78.78,0,0,0-.78-.78Z"></path><path id="Path-49" data-name="Path" class="cls-8" d="M66.46,30.9h0a.78.78,0,1,0,.78.78.78.78,0,0,0-.78-.78Z"></path><path id="Path-50" data-name="Path" class="cls-8" d="M82.1,24.62h0a.79.79,0,0,0-.79.79.79.79,0,1,0,.79-.79Z"></path><path id="Path-51" data-name="Path" class="cls-8" d="M79,24.62h0a.79.79,0,1,0,0,1.57.79.79,0,0,0,0-1.57Z"></path><path id="Path-52" data-name="Path" class="cls-8" d="M75.84,24.62h0a.79.79,0,0,0-.78.79.78.78,0,1,0,.79-.79Z"></path><path id="Path-53" data-name="Path" class="cls-8" d="M72.72,24.62h0a.79.79,0,0,0-.78.79.78.78,0,1,0,.8-.79Z"></path><path id="Path-54" data-name="Path" class="cls-8" d="M69.59,24.62h0a.79.79,0,0,0-.78.79.78.78,0,1,0,.8-.79Z"></path><path id="Path-55" data-name="Path" class="cls-8" d="M66.46,24.62h0a.79.79,0,1,0,.78.79A.78.78,0,0,0,66.45,24.62Z"></path></g><path id="Path-56" data-name="Path" class="cls-8" d="M100.87,29.33a.79.79,0,0,1,0-1.57h0a.79.79,0,0,1,0,1.57Z"></path><path id="Path-57" data-name="Path" class="cls-8" d="M97.74,29.33a.79.79,0,0,1,0-1.57h0a.79.79,0,0,1,0,1.57Z"></path><path id="Path-58" data-name="Path" class="cls-8" d="M94.61,29.33a.79.79,0,0,1,0-1.57h0a.79.79,0,1,1,0,1.57Z"></path><path id="Path-59" data-name="Path" class="cls-8" d="M91.49,29.33a.79.79,0,1,1,0-1.57h0a.79.79,0,0,1,0,1.57Z"></path><path id="Path-60" data-name="Path" class="cls-8" d="M88.36,29.33a.79.79,0,0,1,0-1.57h0a.79.79,0,0,1,0,1.57Z"></path><path id="Path-61" data-name="Path" class="cls-8" d="M85.23,29.33a.79.79,0,0,1,0-1.57h0a.79.79,0,0,1,0,1.57Z"></path><path id="Path-62" data-name="Path" class="cls-8" d="M82.1,29.33a.79.79,0,0,1,0-1.57h0a.79.79,0,0,1,0,1.57Z"></path><path id="Path-63" data-name="Path" class="cls-8" d="M97.74,26.19a.79.79,0,0,1,0-1.57h0a.79.79,0,0,1,0,1.57Z"></path><path id="Path-64" data-name="Path" class="cls-8" d="M94.61,26.19a.79.79,0,0,1,0-1.57h0a.79.79,0,1,1,0,1.57Z"></path><path id="Path-65" data-name="Path" class="cls-8" d="M91.49,26.19a.79.79,0,1,1,0-1.57h0a.79.79,0,0,1,0,1.57Z"></path><path id="Path-66" data-name="Path" class="cls-8" d="M88.36,26.19a.79.79,0,0,1,0-1.57h0a.79.79,0,0,1,0,1.57Z"></path><path id="Path-67" data-name="Path" class="cls-8" d="M85.23,26.19a.79.79,0,0,1,0-1.57h0a.79.79,0,0,1,0,1.57Z"></path><path id="Path-68" data-name="Path" class="cls-8" d="M94.61,23.06a.79.79,0,0,1,0-1.57h0a.79.79,0,1,1,0,1.57Z"></path><path id="Path-69" data-name="Path" class="cls-8" d="M91.49,23.06a.79.79,0,1,1,0-1.57h0a.79.79,0,0,1,0,1.57Z"></path><path id="Path-70" data-name="Path" class="cls-8" d="M88.36,23.06a.79.79,0,0,1,0-1.57h0a.79.79,0,0,1,0,1.57Z"></path><path id="Path-71" data-name="Path" class="cls-8" d="M85.23,23.06a.79.79,0,0,1,0-1.57h0a.79.79,0,0,1,0,1.57Z"></path><path id="Path-72" data-name="Path" class="cls-8" d="M91.49,19.92a.79.79,0,1,1,0-1.57h0a.79.79,0,0,1,0,1.57Z"></path><path id="Path-73" data-name="Path" class="cls-8" d="M88.36,19.92a.79.79,0,0,1,0-1.57h0a.79.79,0,0,1,0,1.57Z"></path><path id="Path-74" data-name="Path" class="cls-8" d="M85.23,19.92a.79.79,0,0,1,0-1.57h0a.79.79,0,0,1,0,1.57Z"></path><path id="Path-75" data-name="Path" class="cls-8" d="M88.36,16.78a.78.78,0,0,1,0-1.56h0a.78.78,0,1,1,0,1.56Z"></path><path id="Path-76" data-name="Path" class="cls-8" d="M85.23,16.78a.78.78,0,0,1,0-1.56h0a.78.78,0,1,1,0,1.56Z"></path><path id="Path-77" data-name="Path" class="cls-8" d="M85.23,13.65a.79.79,0,0,1,0-1.57h0a.79.79,0,0,1,0,1.57Z"></path><path id="Path-78" data-name="Path" class="cls-8" d="M97.74,32.46a.78.78,0,0,1,0-1.56h0a.78.78,0,0,1,0,1.56Z"></path><path id="Path-79" data-name="Path" class="cls-8" d="M94.61,32.46a.78.78,0,0,1,0-1.56h0a.78.78,0,1,1,0,1.56Z"></path><path id="Path-80" data-name="Path" class="cls-8" d="M91.49,32.46a.78.78,0,1,1,0-1.56h0a.78.78,0,0,1,0,1.56Z"></path><path id="Path-81" data-name="Path" class="cls-8" d="M88.36,32.46a.78.78,0,0,1,0-1.56h0a.78.78,0,0,1,0,1.56Z"></path><path id="Path-82" data-name="Path" class="cls-8" d="M85.23,32.46a.78.78,0,0,1,0-1.56h0a.78.78,0,0,1,0,1.56Z"></path><path id="Path-83" data-name="Path" class="cls-8" d="M94.61,35.6a.79.79,0,0,1,0-1.57h0a.79.79,0,1,1,0,1.57Z"></path><path id="Path-84" data-name="Path" class="cls-8" d="M91.49,35.6a.79.79,0,1,1,0-1.57h0a.79.79,0,0,1,0,1.57Z"></path><path id="Path-85" data-name="Path" class="cls-8" d="M88.36,35.6a.79.79,0,0,1,0-1.57h0a.79.79,0,0,1,0,1.57Z"></path><path id="Path-86" data-name="Path" class="cls-8" d="M85.23,35.6a.79.79,0,0,1,0-1.57h0a.79.79,0,0,1,0,1.57Z"></path><path id="Path-87" data-name="Path" class="cls-8" d="M91.49,38.74A.79.79,0,0,1,90.7,38a.78.78,0,0,1,.79-.78h0a.78.78,0,0,1,.78.78A.79.79,0,0,1,91.49,38.74Z"></path><path id="Path-88" data-name="Path" class="cls-8" d="M88.36,38.74a.79.79,0,0,1-.78-.79.78.78,0,0,1,.78-.78h0a.78.78,0,0,1,.78.78A.79.79,0,0,1,88.36,38.74Z"></path><path id="Path-89" data-name="Path" class="cls-8" d="M85.23,38.74a.79.79,0,0,1-.78-.79.78.78,0,0,1,.78-.78h0A.78.78,0,0,1,86,38,.79.79,0,0,1,85.23,38.74Z"></path><path id="Path-90" data-name="Path" class="cls-8" d="M88.36,41.87a.79.79,0,0,1,0-1.57h0a.79.79,0,0,1,0,1.57Z"></path><path id="Path-91" data-name="Path" class="cls-8" d="M85.23,41.87a.79.79,0,0,1,0-1.57h0a.79.79,0,0,1,0,1.57Z"></path><path id="Path-92" data-name="Path" class="cls-8" d="M85.23,45a.79.79,0,0,1,0-1.57h0a.79.79,0,0,1,0,1.57Z"></path><path id="Path-93" data-name="Path" class="cls-8" d="M79,29.33a.79.79,0,0,1,0-1.57h0a.79.79,0,0,1,0,1.57Z"></path><path id="Path-94" data-name="Path" class="cls-8" d="M75.84,29.33a.79.79,0,0,1,0-1.57h0a.79.79,0,1,1,0,1.57Z"></path><path id="Path-95" data-name="Path" class="cls-8" d="M72.72,29.33a.79.79,0,1,1,0-1.57h0a.79.79,0,0,1,0,1.57Z"></path><path id="Path-96" data-name="Path" class="cls-8" d="M69.59,29.33a.79.79,0,0,1,0-1.57h0a.79.79,0,0,1,0,1.57Z"></path><path id="Path-97" data-name="Path" class="cls-8" d="M66.46,29.33a.79.79,0,0,1,0-1.57h0a.79.79,0,0,1,0,1.57Z"></path><path id="Path-98" data-name="Path" class="cls-8" d="M82.1,32.46a.78.78,0,0,1,0-1.56h0a.78.78,0,0,1,0,1.56Z"></path><path id="Path-99" data-name="Path" class="cls-8" d="M79,32.46a.78.78,0,0,1,0-1.56h0a.78.78,0,0,1,0,1.56Z"></path><path id="Path-100" data-name="Path" class="cls-8" d="M75.84,32.46a.78.78,0,0,1,0-1.56h0a.78.78,0,1,1,0,1.56Z"></path><path id="Path-101" data-name="Path" class="cls-8" d="M72.72,32.46a.78.78,0,1,1,0-1.56h0a.78.78,0,0,1,0,1.56Z"></path><path id="Path-102" data-name="Path" class="cls-8" d="M69.59,32.46a.78.78,0,0,1,0-1.56h0a.78.78,0,0,1,0,1.56Z"></path><path id="Path-103" data-name="Path" class="cls-8" d="M66.46,32.46a.78.78,0,1,1,0-1.56h0a.78.78,0,0,1,0,1.56Z"></path><path id="Path-104" data-name="Path" class="cls-8" d="M82.1,26.19a.79.79,0,0,1,0-1.57h0a.79.79,0,0,1,0,1.57Z"></path><path id="Path-105" data-name="Path" class="cls-8" d="M79,26.19a.79.79,0,0,1,0-1.57h0a.79.79,0,0,1,0,1.57Z"></path><path id="Path-106" data-name="Path" class="cls-8" d="M75.84,26.19a.79.79,0,0,1,0-1.57h0a.79.79,0,1,1,0,1.57Z"></path><path id="Path-107" data-name="Path" class="cls-8" d="M72.72,26.19a.79.79,0,1,1,0-1.57h0a.79.79,0,0,1,0,1.57Z"></path><path id="Path-108" data-name="Path" class="cls-8" d="M69.59,26.19a.79.79,0,0,1,0-1.57h0a.79.79,0,0,1,0,1.57Z"></path><path id="Path-109" data-name="Path" class="cls-8" d="M66.46,26.19a.79.79,0,0,1,0-1.57h0a.79.79,0,0,1,0,1.57Z"></path></g></g></g></g></g><path class="cls-8" d="M27.66,21.8H27.6l-3,2.08c-.17.11-.31.05-.31-.17V20.24a.48.48,0,0,1,.2-.4l3.19-2.29a.8.8,0,0,1,.5-.17H31.3a.26.26,0,0,1,.28.28V36.14a.26.26,0,0,1-.28.28H27.94a.26.26,0,0,1-.28-.28Z"></path></svg> 