<?xml version="1.0" encoding="UTF-8"?> <svg xmlns="http://www.w3.org/2000/svg" id="Layer_1" data-name="Layer 1" viewBox="0 0 280.4 136.12"><defs><style>.cls-1,.cls-11{fill:#fff;}.cls-1,.cls-2{stroke:#0b0b0b;}.cls-2{fill:#ffd03b;}.cls-10,.cls-3{fill:#222;}.cls-3{fill-rule:evenodd;}.cls-4,.cls-5{isolation:isolate;}.cls-5{font-size:22px;font-family:SignPainter-HouseScriptSemibold, SignPainter;font-weight:600;letter-spacing:-0.02em;}.cls-5,.cls-8{fill:#191919;}.cls-6{letter-spacing:-0.05em;}.cls-7{letter-spacing:-0.08em;}.cls-9{fill:none;stroke:#000;stroke-linecap:square;}</style></defs><g id="Marketing-Tools"><g id="Desktop-HD-Copy"><g id="Group-8"><rect id="Rectangle" class="cls-1" x="3.99" y="72.06" width="256" height="48" rx="3"></rect><rect id="Rectangle-2" data-name="Rectangle" class="cls-2" x="173.99" y="77.06" width="81" height="38" rx="3"></rect><polygon id="Path" class="cls-3" points="251.24 133.71 248.19 135.06 243.27 123.71 236.99 129.79 237 105.06 254.99 121.8 246.32 122.36 251.24 133.71"></polygon><g id="APPLY" class="cls-4"><text class="cls-5" transform="translate(193.99 102.11)">AP<tspan class="cls-6" x="18.06" y="0">P</tspan><tspan class="cls-7" x="26.25" y="0">L</tspan><tspan x="32.19" y="0">Y</tspan></text></g><g id="_3lK6---56R0---4LK1" data-name="3lK6---56R0---4LK1" class="cls-4"><g class="cls-4"><path class="cls-8" d="M24,95.16v0a2.14,2.14,0,0,1,1.59,2.09c0,1.94-1.95,3-4.16,3a5.57,5.57,0,0,1-2.59-.58l.22-2a6.59,6.59,0,0,0,2.54.61c.85,0,1.47-.37,1.47-1s-.87-1.18-2.35-1.1l-.27-1.51C22.08,94.37,23,94,23,93.32s-.59-.92-1.36-.93a5.47,5.47,0,0,0-2.36.62L19,91.15A5.47,5.47,0,0,1,22,90.3c1.84,0,3.57.88,3.57,2.57A2.51,2.51,0,0,1,24,95.16Z"></path><path class="cls-8" d="M26.9,90.49h2.4v7.32h7.42v2.28H26.9Z"></path><path class="cls-8" d="M42.37,95.13l6.7,5H45.42l-4.93-3.66h-.44v3.66h-2.4v-9.6h2.4v3.66h.43l5.12-3.66h3.48Z"></path><path class="cls-8" d="M56.44,92.6l-.89,0c-2.08,0-3.1.86-3.53,1.92A4.42,4.42,0,0,1,54.09,94a2.82,2.82,0,0,1,3,2.89c0,2.06-1.7,3.43-4,3.43-2.45,0-3.89-1.58-3.89-4.1a5.82,5.82,0,0,1,5.89-5.88l.55,0Zm-4.71,3.48c0,1.32.52,2.28,1.54,2.28A1.31,1.31,0,0,0,54.6,97c0-.81-.67-1.19-1.5-1.19A4.37,4.37,0,0,0,51.73,96.08Z"></path><path class="cls-8" d="M61,96.19v-1.8h4.62v1.8Z"></path><path class="cls-8" d="M69.94,96l.47-5.5h6l-.18,2.1H72.42l-.17,1.62c2.52.12,4.31.86,4.31,2.87,0,1.74-1.38,3.19-4,3.19a6.41,6.41,0,0,1-2.83-.64l.12-2a5.82,5.82,0,0,0,2.64.65c1.32,0,1.69-.47,1.69-.94C74.14,96.45,72.65,96.14,69.94,96Z"></path><path class="cls-8" d="M84.41,92.6l-.89,0c-2.07,0-3.09.86-3.53,1.92A4.42,4.42,0,0,1,82.06,94a2.82,2.82,0,0,1,3,2.89c0,2.06-1.7,3.43-4,3.43-2.45,0-3.89-1.58-3.89-4.1a5.82,5.82,0,0,1,5.89-5.88l.55,0Zm-4.7,3.48c0,1.32.51,2.28,1.53,2.28A1.3,1.3,0,0,0,82.57,97c0-.81-.67-1.19-1.5-1.19A4.31,4.31,0,0,0,79.71,96.08Z"></path><path class="cls-8" d="M86.14,90.49h7.41a3.24,3.24,0,0,1,3.58,3.28,3.28,3.28,0,0,1-1.76,2.94l1.72,3.38h-2.7l-1.33-2.94H88.54v2.94h-2.4Zm2.4,2.16v2.46H93.2c1.18,0,1.44-.67,1.44-1.28s-.26-1.18-1.44-1.18Z"></path><path class="cls-8" d="M101.61,90.3c2.77,0,4,2.1,4,5s-1.18,5-4,5-4-2.1-4-5S98.84,90.3,101.61,90.3Zm0,7.89c1.26,0,1.54-1.48,1.54-3,0-1.2-.16-2.8-1.52-2.8s-1.59,1.48-1.59,2.89S100.33,98.19,101.62,98.19Z"></path><path class="cls-8" d="M109.67,96.19v-1.8h4.62v1.8Z"></path><path class="cls-8" d="M125,98.49v1.6h-2.38v-1.6h-4.39v-2.1l2.52-5.9h2.63l-2.63,5.9h1.87v-2H125v2h.82v2.1Z"></path><path class="cls-8" d="M126.8,90.49h2.39v7.32h7.43v2.28H126.8Z"></path><path class="cls-8" d="M142.27,95.13l6.69,5h-3.64l-4.93-3.66H140v3.66h-2.4v-9.6H140v3.66h.43l5.12-3.66H149Z"></path><path class="cls-8" d="M149.37,100.09V98h2.12V93l-2.12.3V91.09l4.12-.79h.4V98h2v2.1Z"></path></g></g><line id="Line-3" class="cls-9" x1="265.49" y1="70.56" x2="277.49" y2="63.56"></line><line id="Line-3-2" data-name="Line-3" class="cls-9" x1="260.49" y1="66.56" x2="264.99" y2="60.06"></line><line id="Line-3-3" data-name="Line-3" class="cls-9" x1="265.49" y1="77.56" x2="273.74" y2="75.81"></line></g></g></g><circle id="Oval" class="cls-10" cx="27.74" cy="26.07" r="21"></circle><path class="cls-11" d="M21.25,32.08a.52.52,0,0,1,.14-.39l6.7-8a4,4,0,0,0,1.12-2.64,2,2,0,0,0-2.07-2.18c-1.29,0-2.08.78-2.25,2.24,0,.17-.11.25-.3.22l-3.08-.5a.28.28,0,0,1-.23-.34c.2-2.63,2.33-4.92,6-4.92s5.86,2.35,5.86,5.43a6.73,6.73,0,0,1-1.94,4.62l-5,5.91v.05h6.67a.27.27,0,0,1,.28.28v2.77a.27.27,0,0,1-.28.28H21.54a.27.27,0,0,1-.29-.28Z"></path></svg> 