<?xml version="1.0" encoding="UTF-8"?> <svg xmlns="http://www.w3.org/2000/svg" id="Layer_1" data-name="Layer 1" viewBox="0 0 63.25 98.38"><defs><style>.cls-1{fill:#222;}.cls-2{fill:#fff;}.cls-3{fill:#009688;}</style></defs><g id="Marketing-Tools"><g id="Desktop-HD-Copy"><g id="Group-3"><circle id="Oval" class="cls-1" cx="30.43" cy="74.44" r="21"></circle></g></g></g><path class="cls-2" d="M28.42,68.19h-.06l-3,2.08c-.17.11-.31,0-.31-.17V66.63a.48.48,0,0,1,.2-.4l3.19-2.29a.8.8,0,0,1,.5-.17h3.14a.26.26,0,0,1,.28.28V82.53a.26.26,0,0,1-.28.28H28.7a.26.26,0,0,1-.28-.28Z"></path><g id="doot-arrow"><g id="next"><g id="Group"><path id="Path" class="cls-3" d="M31.21,41.8h0a.79.79,0,1,0-.78.78.78.78,0,0,0,.78-.78Z"></path><path id="Path-2" data-name="Path" class="cls-3" d="M31.21,38.67h0a.79.79,0,1,0-.78.78.78.78,0,0,0,.78-.78Z"></path><path id="Path-3" data-name="Path" class="cls-3" d="M31.21,35.54h0a.79.79,0,1,0-.78.78.78.78,0,0,0,.78-.78Z"></path><path id="Path-4" data-name="Path" class="cls-3" d="M31.21,32.42v0a.79.79,0,1,0-.78.78.78.78,0,0,0,.78-.78v0Z"></path><path id="Path-5" data-name="Path" class="cls-3" d="M31.21,29.29v0a.79.79,0,1,0-.78.78.78.78,0,0,0,.78-.78v0Z"></path><path id="Path-6" data-name="Path" class="cls-3" d="M31.21,26.16v0a.79.79,0,1,0-.78.79.78.78,0,0,0,.78-.79v0Z"></path><path id="Path-7" data-name="Path" class="cls-3" d="M31.21,23h0a.79.79,0,1,0-.78.78.78.78,0,0,0,.78-.78Z"></path><path id="Path-8" data-name="Path" class="cls-3" d="M34.35,38.67h0a.79.79,0,1,0-.79.78.79.79,0,0,0,.79-.78Z"></path><path id="Path-9" data-name="Path" class="cls-3" d="M34.35,35.54h0a.79.79,0,1,0-.79.78.78.78,0,0,0,.79-.78Z"></path><path id="Path-10" data-name="Path" class="cls-3" d="M34.35,32.42v0a.79.79,0,1,0-.79.78.78.78,0,0,0,.79-.78Z"></path><path id="Path-11" data-name="Path" class="cls-3" d="M34.35,29.29v0a.79.79,0,1,0-.79.78.78.78,0,0,0,.79-.78Z"></path><path id="Path-12" data-name="Path" class="cls-3" d="M34.35,26.16v0a.79.79,0,1,0-.79.79.78.78,0,0,0,.79-.79Z"></path><path id="Path-13" data-name="Path" class="cls-3" d="M37.48,35.54h0a.78.78,0,0,0-.78-.78.78.78,0,1,0,0,1.56.78.78,0,0,0,.78-.78Z"></path><path id="Path-14" data-name="Path" class="cls-3" d="M37.48,32.42v0a.78.78,0,0,0-.78-.78.78.78,0,1,0,0,1.56.78.78,0,0,0,.78-.78Z"></path><path id="Path-15" data-name="Path" class="cls-3" d="M37.48,29.29v0a.78.78,0,0,0-.78-.78.78.78,0,1,0,0,1.56.78.78,0,0,0,.78-.78Z"></path><path id="Path-16" data-name="Path" class="cls-3" d="M37.48,26.16v0a.78.78,0,0,0-.78-.78.79.79,0,1,0,.78.78Z"></path><path id="Path-17" data-name="Path" class="cls-3" d="M40.62,32.42v0a.79.79,0,1,0-.79.78.78.78,0,0,0,.79-.78v0Z"></path><path id="Path-18" data-name="Path" class="cls-3" d="M40.62,29.29v0a.79.79,0,1,0-.79.78.78.78,0,0,0,.79-.78v0Z"></path><path id="Path-19" data-name="Path" class="cls-3" d="M40.62,26.16v0a.79.79,0,1,0-.79.79.78.78,0,0,0,.79-.79v0Z"></path><path id="Path-20" data-name="Path" class="cls-3" d="M43.75,29.29v0a.78.78,0,1,0-.78.78.78.78,0,0,0,.78-.78Z"></path><path id="Path-21" data-name="Path" class="cls-3" d="M43.75,26.16v0a.78.78,0,1,0-.78.79.78.78,0,0,0,.78-.79Z"></path><path id="Path-22" data-name="Path" class="cls-3" d="M46.89,26.16v0a.79.79,0,1,0-.78.79.78.78,0,0,0,.78-.79Z"></path><path id="Path-23" data-name="Path" class="cls-3" d="M28.07,38.67h0a.78.78,0,1,0-.78.78.78.78,0,0,0,.78-.78Z"></path><path id="Path-24" data-name="Path" class="cls-3" d="M28.07,35.54h0a.78.78,0,1,0-.78.78.78.78,0,0,0,.78-.78Z"></path><path id="Path-25" data-name="Path" class="cls-3" d="M28.07,32.42v0a.78.78,0,1,0-.78.78.78.78,0,0,0,.78-.78Z"></path><path id="Path-26" data-name="Path" class="cls-3" d="M28.07,29.29v0a.78.78,0,1,0-.78.78.78.78,0,0,0,.78-.78Z"></path><path id="Path-27" data-name="Path" class="cls-3" d="M28.07,26.16v0a.78.78,0,1,0-.78.79.78.78,0,0,0,.78-.79Z"></path><path id="Path-28" data-name="Path" class="cls-3" d="M24.94,35.54h0a.79.79,0,1,0-.79.78.78.78,0,0,0,.79-.78Z"></path><path id="Path-29" data-name="Path" class="cls-3" d="M24.94,32.42v0a.79.79,0,1,0-.79.78.78.78,0,0,0,.79-.78Z"></path><path id="Path-30" data-name="Path" class="cls-3" d="M24.94,29.29v0a.79.79,0,1,0-.79.78.78.78,0,0,0,.79-.78Z"></path><path id="Path-31" data-name="Path" class="cls-3" d="M24.94,26.16v0a.79.79,0,1,0-.79.79.78.78,0,0,0,.79-.79Z"></path><path id="Path-32" data-name="Path" class="cls-3" d="M21.8,32.42v0a.78.78,0,0,0-.78-.78.78.78,0,1,0,0,1.56.78.78,0,0,0,.78-.78Z"></path><path id="Path-33" data-name="Path" class="cls-3" d="M21.8,29.29v0a.78.78,0,0,0-.78-.78.78.78,0,1,0,0,1.56.78.78,0,0,0,.78-.78Z"></path><path id="Path-34" data-name="Path" class="cls-3" d="M21.8,26.16v0a.78.78,0,0,0-.78-.78.79.79,0,1,0,.78.78Z"></path><path id="Path-35" data-name="Path" class="cls-3" d="M18.67,29.29v0a.79.79,0,1,0-.79.78.78.78,0,0,0,.79-.78Z"></path><path id="Path-36" data-name="Path" class="cls-3" d="M18.67,26.16v0a.79.79,0,1,0-.79.79.78.78,0,0,0,.79-.79Z"></path><path id="Path-37" data-name="Path" class="cls-3" d="M15.53,26.16v0a.79.79,0,1,0-.78.79.78.78,0,0,0,.78-.79Z"></path><path id="Path-38" data-name="Path" class="cls-3" d="M31.21,19.9h0a.79.79,0,1,0-.78.78.78.78,0,0,0,.78-.78Z"></path><path id="Path-39" data-name="Path" class="cls-3" d="M31.21,16.77h0a.79.79,0,1,0-.78.78.78.78,0,0,0,.78-.78Z"></path><path id="Path-40" data-name="Path" class="cls-3" d="M31.21,13.65v0a.79.79,0,1,0-.78.78.78.78,0,0,0,.78-.78v0Z"></path><path id="Path-41" data-name="Path" class="cls-3" d="M31.21,10.52v0a.79.79,0,1,0-.78.78.78.78,0,0,0,.78-.78v0Z"></path><path id="Path-42" data-name="Path" class="cls-3" d="M31.21,7.39h0a.79.79,0,1,0-.78.78.78.78,0,0,0,.78-.78Z"></path><path id="Path-43" data-name="Path" class="cls-3" d="M28.07,23h0a.78.78,0,1,0-.78.78.78.78,0,0,0,.78-.78Z"></path><path id="Path-44" data-name="Path" class="cls-3" d="M28.07,19.9h0a.78.78,0,1,0-.78.78.78.78,0,0,0,.78-.78Z"></path><path id="Path-45" data-name="Path" class="cls-3" d="M28.07,16.77h0a.78.78,0,1,0-.78.78.78.78,0,0,0,.78-.78Z"></path><path id="Path-46" data-name="Path" class="cls-3" d="M28.07,13.65v0a.78.78,0,1,0-.78.78.78.78,0,0,0,.78-.78Z"></path><path id="Path-47" data-name="Path" class="cls-3" d="M28.07,10.52v0a.78.78,0,1,0-.78.78.78.78,0,0,0,.78-.78Z"></path><path id="Path-48" data-name="Path" class="cls-3" d="M28.07,7.39h0a.78.78,0,1,0-.78.78.78.78,0,0,0,.78-.78Z"></path><path id="Path-49" data-name="Path" class="cls-3" d="M34.35,23h0a.79.79,0,1,0-.79.78.79.79,0,0,0,.79-.78Z"></path><path id="Path-50" data-name="Path" class="cls-3" d="M34.35,19.9h0a.79.79,0,1,0-.79.78A.79.79,0,0,0,34.35,19.89Z"></path><path id="Path-51" data-name="Path" class="cls-3" d="M34.35,16.77h0a.79.79,0,1,0-.79.78A.78.78,0,0,0,34.35,16.76Z"></path><path id="Path-52" data-name="Path" class="cls-3" d="M34.35,13.65v0a.79.79,0,1,0-.79.78A.78.78,0,0,0,34.35,13.63Z"></path><path id="Path-53" data-name="Path" class="cls-3" d="M34.35,10.52v0a.79.79,0,1,0-.79.78A.78.78,0,0,0,34.35,10.5Z"></path><path id="Path-54" data-name="Path" class="cls-3" d="M34.35,7.39h0a.79.79,0,1,0-.79.78A.78.78,0,0,0,34.35,7.38Z"></path></g><path id="Path-55" data-name="Path" d="M29.64,41.8a.79.79,0,0,1,1.57,0h0a.79.79,0,0,1-1.57,0Z"></path><path id="Path-56" data-name="Path" d="M29.64,38.67a.79.79,0,0,1,1.57,0h0a.79.79,0,0,1-1.57,0Z"></path><path id="Path-57" data-name="Path" d="M29.64,35.54a.79.79,0,0,1,1.57,0h0a.79.79,0,1,1-1.57,0Z"></path><path id="Path-58" data-name="Path" d="M29.64,32.42a.79.79,0,1,1,1.57,0h0a.79.79,0,0,1-1.57,0Z"></path><path id="Path-59" data-name="Path" d="M29.64,29.29a.79.79,0,0,1,1.57,0h0a.79.79,0,0,1-1.57,0Z"></path><path id="Path-60" data-name="Path" d="M29.64,26.16a.79.79,0,0,1,1.57,0h0a.79.79,0,0,1-1.57,0Z"></path><path id="Path-61" data-name="Path" d="M29.64,23a.79.79,0,0,1,1.57,0h0a.79.79,0,0,1-1.57,0Z"></path><path id="Path-62" data-name="Path" d="M32.78,38.67a.79.79,0,0,1,1.57,0h0a.79.79,0,0,1-1.57,0Z"></path><path id="Path-63" data-name="Path" d="M32.78,35.54a.79.79,0,0,1,1.57,0h0a.79.79,0,1,1-1.57,0Z"></path><path id="Path-64" data-name="Path" d="M32.78,32.42a.79.79,0,1,1,1.57,0h0a.79.79,0,0,1-1.57,0Z"></path><path id="Path-65" data-name="Path" d="M32.78,29.29a.79.79,0,0,1,1.57,0h0a.79.79,0,0,1-1.57,0Z"></path><path id="Path-66" data-name="Path" d="M32.78,26.16a.79.79,0,0,1,1.57,0h0a.79.79,0,0,1-1.57,0Z"></path><path id="Path-67" data-name="Path" d="M35.91,35.54a.79.79,0,0,1,.79-.78.78.78,0,0,1,.78.78h0a.78.78,0,0,1-.78.79A.79.79,0,0,1,35.91,35.54Z"></path><path id="Path-68" data-name="Path" d="M35.91,32.42a.79.79,0,0,1,.79-.79.78.78,0,0,1,.78.79h0a.78.78,0,0,1-.78.78A.79.79,0,0,1,35.91,32.42Z"></path><path id="Path-69" data-name="Path" d="M35.91,29.29a.79.79,0,0,1,.79-.78.78.78,0,0,1,.78.78h0a.78.78,0,0,1-.78.78A.79.79,0,0,1,35.91,29.29Z"></path><path id="Path-70" data-name="Path" d="M35.91,26.16a.79.79,0,0,1,.79-.78.78.78,0,0,1,.78.78h0a.78.78,0,0,1-.78.78A.79.79,0,0,1,35.91,26.16Z"></path><path id="Path-71" data-name="Path" d="M39.05,32.42a.79.79,0,1,1,1.57,0h0a.79.79,0,0,1-1.57,0Z"></path><path id="Path-72" data-name="Path" d="M39.05,29.29a.79.79,0,0,1,1.57,0h0a.79.79,0,0,1-1.57,0Z"></path><path id="Path-73" data-name="Path" d="M39.05,26.16a.79.79,0,0,1,1.57,0h0a.79.79,0,0,1-1.57,0Z"></path><path id="Path-74" data-name="Path" d="M42.19,29.29a.78.78,0,0,1,1.56,0h0a.78.78,0,0,1-1.56,0Z"></path><path id="Path-75" data-name="Path" d="M42.19,26.16a.78.78,0,1,1,1.56,0h0a.78.78,0,0,1-1.56,0Z"></path><path id="Path-76" data-name="Path" d="M45.32,26.16a.79.79,0,0,1,1.57,0h0a.79.79,0,0,1-1.57,0Z"></path><path id="Path-77" data-name="Path" d="M26.51,38.67a.78.78,0,1,1,1.56,0h0a.78.78,0,0,1-1.56,0Z"></path><path id="Path-78" data-name="Path" d="M26.51,35.54a.78.78,0,1,1,1.56,0h0a.78.78,0,1,1-1.56,0Z"></path><path id="Path-79" data-name="Path" d="M26.51,32.42a.78.78,0,1,1,1.56,0h0a.78.78,0,1,1-1.56,0Z"></path><path id="Path-80" data-name="Path" d="M26.51,29.29a.78.78,0,1,1,1.56,0h0a.78.78,0,1,1-1.56,0Z"></path><path id="Path-81" data-name="Path" d="M26.51,26.16a.78.78,0,1,1,1.56,0h0a.78.78,0,1,1-1.56,0Z"></path><path id="Path-82" data-name="Path" d="M23.37,35.54a.79.79,0,0,1,1.57,0h0a.79.79,0,1,1-1.57,0Z"></path><path id="Path-83" data-name="Path" d="M23.37,32.42a.79.79,0,1,1,1.57,0h0a.79.79,0,0,1-1.57,0Z"></path><path id="Path-84" data-name="Path" d="M23.37,29.29a.79.79,0,0,1,1.57,0h0a.79.79,0,0,1-1.57,0Z"></path><path id="Path-85" data-name="Path" d="M23.37,26.16a.79.79,0,0,1,1.57,0h0a.79.79,0,0,1-1.57,0Z"></path><path id="Path-86" data-name="Path" d="M20.23,32.42a.79.79,0,0,1,.79-.79.78.78,0,0,1,.78.79h0a.78.78,0,0,1-.78.78A.79.79,0,0,1,20.23,32.42Z"></path><path id="Path-87" data-name="Path" d="M20.23,29.29a.79.79,0,0,1,.79-.78.78.78,0,0,1,.78.78h0a.78.78,0,0,1-.78.78A.79.79,0,0,1,20.23,29.29Z"></path><path id="Path-88" data-name="Path" d="M20.23,26.16a.79.79,0,0,1,.79-.78.78.78,0,0,1,.78.78h0a.78.78,0,0,1-.78.78A.79.79,0,0,1,20.23,26.16Z"></path><path id="Path-89" data-name="Path" d="M17.1,29.29a.79.79,0,0,1,1.57,0h0a.79.79,0,0,1-1.57,0Z"></path><path id="Path-90" data-name="Path" d="M17.1,26.16a.79.79,0,0,1,1.57,0h0a.79.79,0,0,1-1.57,0Z"></path><path id="Path-91" data-name="Path" d="M14,26.16a.79.79,0,0,1,1.57,0h0a.79.79,0,0,1-1.57,0Z"></path><path id="Path-92" data-name="Path" d="M29.64,19.9a.79.79,0,0,1,1.57,0h0a.79.79,0,0,1-1.57,0Z"></path><path id="Path-93" data-name="Path" d="M29.64,16.77a.79.79,0,0,1,1.57,0h0a.79.79,0,1,1-1.57,0Z"></path><path id="Path-94" data-name="Path" d="M29.64,13.65a.79.79,0,1,1,1.57,0h0a.79.79,0,0,1-1.57,0Z"></path><path id="Path-95" data-name="Path" d="M29.64,10.52a.79.79,0,0,1,1.57,0h0a.79.79,0,0,1-1.57,0Z"></path><path id="Path-96" data-name="Path" d="M29.64,7.39a.79.79,0,0,1,1.57,0h0a.79.79,0,0,1-1.57,0Z"></path><path id="Path-97" data-name="Path" d="M26.51,23a.78.78,0,0,1,1.56,0h0a.78.78,0,0,1-1.56,0Z"></path><path id="Path-98" data-name="Path" d="M26.51,19.9a.78.78,0,1,1,1.56,0h0a.78.78,0,1,1-1.56,0Z"></path><path id="Path-99" data-name="Path" d="M26.51,16.77a.78.78,0,0,1,1.56,0h0a.78.78,0,1,1-1.56,0Z"></path><path id="Path-100" data-name="Path" d="M26.51,13.65a.78.78,0,1,1,1.56,0h0a.78.78,0,0,1-1.56,0Z"></path><path id="Path-101" data-name="Path" d="M26.51,10.52a.78.78,0,0,1,1.56,0h0a.78.78,0,1,1-1.56,0Z"></path><path id="Path-102" data-name="Path" d="M26.51,7.39a.78.78,0,0,1,1.56,0h0a.78.78,0,0,1-1.56,0Z"></path><path id="Path-103" data-name="Path" d="M32.78,23a.79.79,0,0,1,1.57,0h0a.79.79,0,0,1-1.57,0Z"></path><path id="Path-104" data-name="Path" d="M32.78,19.9a.79.79,0,0,1,1.57,0h0a.79.79,0,0,1-1.57,0Z"></path><path id="Path-105" data-name="Path" d="M32.78,16.77a.79.79,0,0,1,1.57,0h0a.79.79,0,1,1-1.57,0Z"></path><path id="Path-106" data-name="Path" d="M32.78,13.65a.79.79,0,1,1,1.57,0h0a.79.79,0,0,1-1.57,0Z"></path><path id="Path-107" data-name="Path" d="M32.78,10.52a.79.79,0,0,1,1.57,0h0a.79.79,0,0,1-1.57,0Z"></path><path id="Path-108" data-name="Path" d="M32.78,7.39a.79.79,0,0,1,1.57,0h0a.79.79,0,0,1-1.57,0Z"></path></g></g></svg> 