<?xml version="1.0" encoding="UTF-8"?> <svg xmlns="http://www.w3.org/2000/svg" xmlns:xlink="http://www.w3.org/1999/xlink" id="Layer_1" data-name="Layer 1" viewBox="0 0 274.47 123.71"><defs><style>.cls-1{fill:#fff;}.cls-2{mask:url(#mask);}.cls-3{fill:#7c7c7c;}.cls-4{mask:url(#mask-4-2);}</style><mask id="mask" x="71.01" y="25.46" width="123.61" height="70.53" maskUnits="userSpaceOnUse"><g id="mask-4"><rect id="path-3" class="cls-1" x="71.01" y="25.46" width="123.61" height="70.53"></rect></g></mask><mask id="mask-4-2" x="71.01" y="25.46" width="123.61" height="70.53" maskUnits="userSpaceOnUse"><g id="mask-13"><rect id="path-12" class="cls-1" x="71.01" y="25.46" width="123.61" height="70.53"></rect></g></mask></defs><g id="Marketing-Tools"><g id="Desktop-HD-Copy"><g id="cvs"><g id="CVS_Pharmacy_Alt_Logo-_1_" data-name="CVS_Pharmacy_Alt_Logo-(1)"><g id="Clipped"><g class="cls-2"><path id="Path" class="cls-3" d="M101.7,53.74c-.43,4.75-3.15,7.33-7.53,7.33-5.74,0-8.77-4.19-8.77-12.26s2.78-12.26,8.4-12.26c4.57,0,7.1,2.34,7.53,6.84H115c-.87-11.46-8.46-17.93-21.37-17.93C79.72,25.46,71,34.33,71,48.81s8.65,23.35,22.91,23.35c12.79,0,20.5-6.77,21.3-18.42Z"></path></g></g><g id="Clipped-2" data-name="Clipped"><g class="cls-2"><polygon id="Path-2" data-name="Path" class="cls-3" points="111.61 26.63 126.55 70.93 140.75 70.93 155.69 26.63 141.68 26.63 133.65 55.22 126.18 26.63 111.61 26.63"></polygon></g></g><g id="Clipped-3" data-name="Clipped"><g class="cls-2"><path id="Path-3-2" data-name="Path" class="cls-3" d="M152.47,57.13c.86,9.43,7.9,15,19.82,15,13,0,19.88-5.6,19.88-15.21,0-4.56-1.79-7.77-5.68-10.36-2.84-1.91-7.22-2.77-12.72-4.19-4.32-1.11-6.61-1.54-6.61-3.88,0-2,1.48-3,4.51-3,3.46,0,5.31,1.24,5.74,3.88h13.53c-.81-8.93-7.54-13.92-19-13.92-11.86,0-18.65,5.54-18.65,14.11a11.82,11.82,0,0,0,5.12,10.23c1.85,1.29,5.87,2.65,12,4.25,5.26,1.35,7.85,1.6,7.85,4.38,0,1.9-1.92,3.2-5.38,3.2-3.89,0-5.8-1.24-6.54-4.5Z"></path></g></g><g id="Clipped-4" data-name="Clipped"><g class="cls-4"><path id="Shape" class="cls-3" d="M82.09,78.07A4.59,4.59,0,0,0,78,80V78.4H73.62V96h4.84V89.77A4.14,4.14,0,0,0,82,91.38c3.35,0,5.55-2.58,5.55-6.67s-2.27-6.64-5.46-6.64m-1.58,9.48c-1.36,0-2.05-1-2.05-2.84s.61-2.9,2.1-2.9,2,.94,2,2.9-.71,2.84-2.06,2.84"></path></g></g><g id="Clipped-5" data-name="Clipped"><g class="cls-2"><path id="Path-4" data-name="Path" class="cls-3" d="M88.11,91h5V84.48c0-1.71.61-2.53,1.86-2.53s1.7.78,1.7,2.5V91h5V84.43c0-2.17-.1-3.71-1-4.85a4.49,4.49,0,0,0-3.66-1.51,5,5,0,0,0-3.84,1.68V74h-5V91"></path></g></g><g id="Clipped-6" data-name="Clipped"><g class="cls-2"><path id="Shape-2" data-name="Shape" class="cls-3" d="M111.34,91h5V90.6a1.25,1.25,0,0,1-.54-1.07v-7c0-1.68-.28-2.63-1.61-3.53A9.53,9.53,0,0,0,109.31,78c-4.39,0-6.65,1.47-6.7,4.28h4.86c.1-.85.64-1.25,1.68-1.25,1.2,0,1.79.3,1.79,1,0,1.16-1,1-3.45,1.35-3.7.47-5.45,1.25-5.45,4,0,2.53,1.58,4,4.44,4A6.4,6.4,0,0,0,111,89.75l.31,1.21m-.45-5.61a4.64,4.64,0,0,1,0,.64c0,1.66-.71,2.41-2.39,2.41-.92,0-1.42-.42-1.42-1.14,0-1.2,1.47-1,3.78-1.91"></path></g></g><g id="Clipped-7" data-name="Clipped"><g class="cls-2"><path id="Path-5" data-name="Path" class="cls-3" d="M116.9,91h5V85.8c0-1.94.92-2.81,2.92-2.81a7.71,7.71,0,0,1,1,.07v-5h-.45a3.63,3.63,0,0,0-3.89,2.62V78.4h-4.6V91"></path></g></g><g id="Clipped-8" data-name="Clipped"><g class="cls-2"><path id="Path-6-2" data-name="Path" class="cls-3" d="M126.81,91h4.91V84.22c0-1.47.59-2.23,1.7-2.23,1.27,0,1.74.74,1.74,2.42V91h4.89V84.29c0-1.56.54-2.3,1.77-2.3s1.67.72,1.67,2.25V91h4.91V82.4c0-2.75-1.7-4.35-4.65-4.35a5.34,5.34,0,0,0-4.43,2.2,4,4,0,0,0-3.73-2.18,5,5,0,0,0-4.25,2.18V78.4h-4.53V91"></path></g></g><g id="Clipped-9" data-name="Clipped"><g class="cls-2"><path id="Shape-3" data-name="Shape" class="cls-3" d="M158.1,91h5V90.6a1.25,1.25,0,0,1-.54-1.07v-7c0-1.68-.28-2.63-1.61-3.53A9.55,9.55,0,0,0,156.07,78c-4.39,0-6.66,1.47-6.7,4.28h4.86c.09-.85.64-1.25,1.67-1.25,1.21,0,1.8.3,1.8,1,0,1.16-1,1-3.45,1.35-3.7.47-5.45,1.25-5.45,4,0,2.53,1.58,4,4.44,4a6.4,6.4,0,0,0,4.55-1.65L158.1,91m-.45-5.61c0,.22,0,.43,0,.64,0,1.66-.7,2.41-2.38,2.41-.92,0-1.42-.42-1.42-1.14,0-1.2,1.47-1,3.78-1.91"></path></g></g><g id="Clipped-10" data-name="Clipped"><g class="cls-2"><path id="Path-7" data-name="Path" class="cls-3" d="M172,86.06a1.79,1.79,0,0,1-1.93,1.87c-1.44,0-2.05-1-2.05-3.26s.63-3.24,2.1-3.24a1.65,1.65,0,0,1,1.84,1.75h5C176.8,80,174.2,78,170.12,78c-4.43,0-7.15,2.55-7.15,6.72s2.72,6.73,7.2,6.73c4,0,6.58-2.05,6.79-5.34h-5"></path></g></g><g id="Clipped-11" data-name="Clipped"><g class="cls-2"><path id="Path-8" data-name="Path" class="cls-3" d="M179.92,96c1.75,0,3-.07,3.94-1,.76-.73,1.23-2.13,1.87-4.06l4.06-12.49h-4.7L183,86l-2.2-7.61h-5.05l4.2,11.49a3.72,3.72,0,0,1,.26,1.23c0,.78-.45,1.07-1.37,1.07H177.4V95.9"></path></g></g></g></g></g></g></svg> 