<?xml version="1.0" encoding="UTF-8"?> <svg xmlns="http://www.w3.org/2000/svg" id="Layer_1" data-name="Layer 1" viewBox="0 0 280.4 136.12"><defs><style>.cls-1,.cls-11{fill:#fff;}.cls-1,.cls-2{stroke:#0b0b0b;}.cls-2{fill:#ffb0bb;}.cls-3,.cls-9{fill:#222;}.cls-3{fill-rule:evenodd;}.cls-4{isolation:isolate;}.cls-5{fill:#191919;}.cls-6{fill:none;stroke:#000;stroke-linecap:square;}.cls-7,.cls-8{fill:#c7232f;stroke-width:0.5px;}.cls-7{stroke:#0d0d0d;}.cls-8{stroke:#0f0f0f;}.cls-10{fill:#009688;}</style></defs><g id="Marketing-Tools"><g id="Desktop-HD-Copy"><g id="Group-11"><g id="Group-6"><rect id="Rectangle" class="cls-1" x="4.07" y="68.56" width="256" height="48" rx="3"></rect><rect id="Rectangle-2" data-name="Rectangle" class="cls-2" x="151.07" y="73.56" width="104" height="38" rx="3"></rect><polygon id="Path" class="cls-3" points="251.32 130.21 248.27 131.56 243.35 120.21 237.07 126.29 237.09 101.56 255.07 118.3 246.4 118.86 251.32 130.21"></polygon><g id="SHOP-NOW" class="cls-4"><g class="cls-4"><path class="cls-5" d="M164.35,95.1A2.63,2.63,0,0,1,165,95a2.74,2.74,0,0,1,1.72.55c.86.7,2.31,1.8,3.58,1.8A1.69,1.69,0,0,0,171.5,97a.6.6,0,0,0,0-.92c-1.59-1.23-4.65-2.42-4.65-4.67,0-3,3.44-5.61,5.42-6.44a3.92,3.92,0,0,1,1.69-.38,2.05,2.05,0,0,1,1.34.46,4.09,4.09,0,0,1,1.17,1.9,3,3,0,0,1-.66,2.26,25.68,25.68,0,0,0-1.47,2.38c-.2.35-.44.53-.86.09a1.64,1.64,0,0,1-.53-1.19,4.37,4.37,0,0,1,1-2.29c.55-.81,1.15-1.78.84-2-.82-.6-5.63,2.64-5.74,5.17-.07,1.45,2.94,2.71,3.8,3.32a1.44,1.44,0,0,1,.66,1.12,2.88,2.88,0,0,1-.86,1.76,3.93,3.93,0,0,1-3,1.13,7.71,7.71,0,0,1-5.47-2.91C163.89,95.45,164,95.21,164.35,95.1Z"></path><path class="cls-5" d="M183.45,92.34a1.54,1.54,0,0,1,.79,1c.06.29-.09.47-.51.4a8,8,0,0,0-1-.07c-.7,1.39-1.43,2.89-2.16,4.49-.15.35-.52.46-.77.07a2,2,0,0,1-.37-1.12,4.58,4.58,0,0,1,.29-1.37c.15-.42.44-1.14.79-1.87a35.29,35.29,0,0,1-3.76.44c-.64,1.32-1.28,2.73-1.92,4.14a.44.44,0,0,1-.81.11,1.88,1.88,0,0,1-.38-1.15c0-.63.22-1.29,1.15-3.47a1.74,1.74,0,0,1-.71-.66c-.22-.42-.08-.57.51-.53.33,0,.46.07.7.07A77.53,77.53,0,0,1,179.57,85c.36-.46.69-.39.93,0a1.82,1.82,0,0,1,.2.9,5.31,5.31,0,0,1-.73,2.44l-2.35,4.29c1.38-.2,2.5-.48,3.71-.59a66.93,66.93,0,0,1,4.18-7.33c.4-.51.73-.44,1,0a2,2,0,0,1,.2.84,5.24,5.24,0,0,1-.86,2.55C184.41,90.61,183.93,91.47,183.45,92.34Z"></path><path class="cls-5" d="M194.12,85.11a3.55,3.55,0,0,1,2,3.54,11.19,11.19,0,0,1-1.41,5.06c-1.5,2.73-3.72,5-6.25,5a4,4,0,0,1-1.47-.26,4.08,4.08,0,0,1-2.62-4.18c0-4.64,4.14-8.71,6.64-9.59a3.74,3.74,0,0,1,1.32-.22A2.41,2.41,0,0,1,194.12,85.11ZM192.71,93a11.44,11.44,0,0,0,1.49-5.15c0-1-.22-1.76-.68-1.93-1-.36-3.56,1.1-5.57,4.15a9.77,9.77,0,0,0-1.6,5.07c0,1.54.55,2.39,1.39,2.39C189.1,97.49,191.15,95.82,192.71,93Z"></path><path class="cls-5" d="M194.33,96.09a45.44,45.44,0,0,1,4.43-8.85,1.68,1.68,0,0,1-1.28-1c-.15-.33-.07-.53.42-.57a10.14,10.14,0,0,0,2.49-.64,8.61,8.61,0,0,1,2.39-.53,2.51,2.51,0,0,1,2.82,1.87,4,4,0,0,1-.68,3.81,9.18,9.18,0,0,1-6.18,3.9,3.18,3.18,0,0,1-1.48-.09c-.59,1.14-1.3,2.55-2,4.24-.18.4-.35.4-.66.09a1.61,1.61,0,0,1-.42-1.16A4.19,4.19,0,0,1,194.33,96.09Zm3.79-3.72c4.38-1,6.51-4.21,6.12-5.68a.73.73,0,0,0-.71-.44,8.11,8.11,0,0,0-2.07.55c-.35.13-.52.2-.83.29a6.08,6.08,0,0,1-.84,2.35C199.59,89.77,199.37,90.17,198.12,92.37Z"></path><path class="cls-5" d="M212.31,94.85c0-1.27.09-3.1.28-5a53.89,53.89,0,0,0-4.09,8.43c-.15.44-.48.46-.79.13a2.08,2.08,0,0,1-.42-1.23,4.11,4.11,0,0,1,.29-1.32,91.35,91.35,0,0,1,5.61-11c.28-.48.55-.48.88-.22a2,2,0,0,1,1,1.74,7.22,7.22,0,0,1-.11,1,62.55,62.55,0,0,0-.66,6.61,95.81,95.81,0,0,1,5.08-9.27c.33-.46.59-.35.84.07a1.9,1.9,0,0,1,.19.86,4.49,4.49,0,0,1-.81,2.39c-1.23,2-3.94,7.2-5.28,10.17a.49.49,0,0,1-.75.2,2.2,2.2,0,0,1-1.17-2.07C212.33,95.82,212.31,95.38,212.31,94.85Z"></path><path class="cls-5" d="M227.75,85.11a3.56,3.56,0,0,1,2,3.54,11.32,11.32,0,0,1-1.41,5.06c-1.5,2.73-3.72,5-6.25,5A4.06,4.06,0,0,1,218,94.26c0-4.64,4.13-8.71,6.64-9.59a3.74,3.74,0,0,1,1.32-.22A2.38,2.38,0,0,1,227.75,85.11ZM226.35,93a11.44,11.44,0,0,0,1.49-5.15c0-1-.22-1.76-.68-1.93-1-.36-3.57,1.1-5.57,4.15A9.77,9.77,0,0,0,220,95.1c0,1.54.55,2.39,1.38,2.39C222.74,97.49,224.78,95.82,226.35,93Z"></path><path class="cls-5" d="M234.33,95.34c.26-1.23.9-3.19,1.47-5-1.8,2.44-4,5.59-5.52,8a.61.61,0,0,1-1,.15,2.22,2.22,0,0,1-.84-1.82,6,6,0,0,1,.18-1.3,57.38,57.38,0,0,1,3.61-10.34c.31-.55.68-.58,1-.09a2,2,0,0,1,.28,1.08,9.51,9.51,0,0,1-.72,2.77,58.53,58.53,0,0,0-2,5.59,109.27,109.27,0,0,1,6.68-9.09.52.52,0,0,1,.91,0,1.86,1.86,0,0,1,.42,1.17,6,6,0,0,1-.4,1.76c-.68,2-1.3,3.5-2.11,6.65,2.29-3.55,5.54-7.44,7.68-10.15.39-.48.77-.35.83.16.11.79-.15,1.8-2.37,4.66-1.74,2.24-4.29,5.52-6.32,8.65-.26.37-.59.5-1,.13a2.68,2.68,0,0,1-.9-1.94A5.86,5.86,0,0,1,234.33,95.34Z"></path></g></g><g id="EARN-2_" data-name="EARN-2%" class="cls-4"><g class="cls-4"><path class="cls-5" d="M64.39,96.35V86.76h9.94v2.16H66.79v1.61H73.5v2H66.79v1.62h7.54v2.16Z"></path><path class="cls-5" d="M84.09,94.41h-6l-.89,1.94H74.66l4.69-9.59H83l4.57,9.59H85Zm-5.08-2H83.2l-1.71-3.74h-.76Z"></path><path class="cls-5" d="M88.3,86.76h7.41A3.3,3.3,0,0,1,97.53,93l1.72,3.38h-2.7l-1.33-2.94H90.7v2.94H88.3Zm2.4,2.16v2.45h4.66c1.18,0,1.44-.67,1.44-1.28s-.26-1.17-1.44-1.17Z"></path><path class="cls-5" d="M103.26,89.62h-.6v6.73h-2.4V86.76h3.37l6.35,6h.6v-6H113v9.59h-2.9Z"></path><path class="cls-5" d="M117.55,96.35v-2.1c2-1.49,4.08-3.27,4.08-4.57,0-.65-.56-1.09-1.52-1.09a6.54,6.54,0,0,0-2.51.6l-.41-1.8a6.37,6.37,0,0,1,3.13-.83c2.17,0,3.77.82,3.77,2.66s-2,3.58-3.85,5v0h4.06v2.1Z"></path><path class="cls-5" d="M127.78,86.58A2.83,2.83,0,1,1,125,89.41,2.51,2.51,0,0,1,127.78,86.58Zm5.94.18h1.92l-6.74,9.59H127Zm-5.94,3.85c.5,0,.76-.39.76-1.2s-.15-1.2-.76-1.2-.77.38-.77,1.2S127.2,90.61,127.78,90.61Zm7.23.26a2.83,2.83,0,1,1-2.77,2.83A2.51,2.51,0,0,1,135,90.87Zm0,4c.5,0,.76-.38.76-1.2s-.15-1.2-.76-1.2-.77.39-.77,1.2S134.43,94.9,135,94.9Z"></path></g></g><line id="Line-3" class="cls-6" x1="265.57" y1="67.06" x2="277.57" y2="60.06"></line><line id="Line-3-2" data-name="Line-3" class="cls-6" x1="260.57" y1="63.06" x2="265.07" y2="56.56"></line><line id="Line-3-3" data-name="Line-3" class="cls-6" x1="265.57" y1="74.06" x2="273.82" y2="72.31"></line><g id="h-m"><g id="Shape"><path class="cls-7" d="M43,78.47c1.59-.79,2.4-.67,2.42.12a31.63,31.63,0,0,1-.24,3.4c-.61,5.39-1.59,9.79-1.67,15.34,2.62-6.77,4.79-11.43,7.62-17.2.89-1.84,1.48-1.5,2.21-1.84,2.86-1.28,3-.49,2.58,1.09C54.52,85.11,51,103.24,50.44,106c-.17.81-1.06.49-1.26.17-1.06-1.4-2.2-1.42-2.07-2.37.65-4.62,3-16.31,3.55-19.06C47.59,91,44.43,98.82,42.8,103.24c-.34.93-1,.87-1.36.18-.57-1-1.62-1.48-1.79-2.61-.56-3.63.63-10.55.8-15C38.8,90.64,36,100,34.78,104.15c-.51,1.74-2.19,1.44-1.75-.22,1.87-7.07,5.87-19.53,7.6-24,.41-1.07,1.48-1,2.35-1.46ZM32.87,77.6c-.55-.12-2.13.73-3.11.87a1.23,1.23,0,0,0-.69.63C27.53,82.64,26.15,86,25,89q-2.67.49-5.32,1.06c1.44-3.65,2.89-7.28,4.29-10.74.69-1.74-1.14-1.9-1.85-.16-.91,2.25-2.64,6.48-4.55,11.4-1.4.35-2.92.73-4.47,1.2-1.13.3-1.18.6-.69,1.29.29.37.81.33,1.08.61.67.69,1.08,1.52,2.27,1.64-1.09,2.84-2.15,5.73-3.08,8.51-.61,1.76,1.11,2.12,1.76.26,1.06-3,2.18-6,3.33-9,1-.2,3.25-.69,5.38-1.18-1.68,4.66-2.78,8.16-3.22,9.89-.09.32.08.48.14.64.55.81,1.11.85,1.85,1.89A.62.62,0,0,0,23,106q2.19-6.6,4.65-13.12a3.88,3.88,0,0,0,2.46-1.44c1.22-1.82,1.56-1.46,1.89-2,.36-.71.1-1.34-1.2-1.2l-1.42.14c1.46-3.7,2.76-6.84,3.65-9.25.31-.83.35-1.44-.14-1.56Z"></path><path class="cls-8" d="M31.44,100.62c.21-.27.41-.55.58-.8.77-1.14,0-1.81-.77-1.14L30.9,99l-.39-1.22a13.14,13.14,0,0,0,1-1.37,1.46,1.46,0,1,0-2.29-1.82A1.9,1.9,0,0,0,29,96.54l.21.73c-.39.41-.77.84-1.14,1.27-1.24,1.42-.9,3.24.41,3.65a2.25,2.25,0,0,0,2.16-.68l.09.23c.34.85,1.42.59,1-.44-.06-.18-.15-.41-.25-.68Zm-1.76-1.79.33,1a2.52,2.52,0,0,1-.43.32c-.5.29-.87,0-.22-.89C29.47,99.12,29.57,99,29.68,98.83Zm.41-2.48a1.86,1.86,0,0,1-.08-.26c-.37-1.36,1.19-1,.41-.1C30.3,96.12,30.2,96.24,30.09,96.35Z"></path></g></g></g></g></g></g><g id="Marketing-Tools-2" data-name="Marketing-Tools"><g id="Desktop-HD-Copy-2" data-name="Desktop-HD-Copy"><g id="Group-3"><circle id="Oval" class="cls-9" cx="28.12" cy="27.57" r="21"></circle><g id="doot-arrow"><g id="next"><g id="Group"><path id="Path-2" data-name="Path" class="cls-10" d="M99.33,27.28h0a.78.78,0,1,0,.79.78.78.78,0,0,0-.79-.78Z"></path><path id="Path-3" data-name="Path" class="cls-10" d="M96.2,27.28h0a.78.78,0,1,0,.79.78.78.78,0,0,0-.79-.78Z"></path><path id="Path-4" data-name="Path" class="cls-10" d="M93.07,27.28h0a.78.78,0,1,0,.78.78.78.78,0,0,0-.78-.78Z"></path><path id="Path-5" data-name="Path" class="cls-10" d="M89.94,27.28h0a.78.78,0,1,0,.78.78.78.78,0,0,0-.78-.78Z"></path><path id="Path-6" data-name="Path" class="cls-10" d="M86.82,27.28h0a.78.78,0,1,0,.78.78.78.78,0,0,0-.78-.78Z"></path><path id="Path-7" data-name="Path" class="cls-10" d="M83.69,27.28h0a.78.78,0,1,0,.78.78.78.78,0,0,0-.78-.78Z"></path><path id="Path-8" data-name="Path" class="cls-10" d="M80.56,27.28h0a.78.78,0,1,0,.79.78.78.78,0,0,0-.79-.78Z"></path><path id="Path-9" data-name="Path" class="cls-10" d="M96.2,24.14h0a.79.79,0,1,0,.79.78.78.78,0,0,0-.79-.78Z"></path><path id="Path-10" data-name="Path" class="cls-10" d="M93.07,24.14h0a.79.79,0,1,0,.78.78.78.78,0,0,0-.78-.78Z"></path><path id="Path-11" data-name="Path" class="cls-10" d="M89.94,24.14h0a.79.79,0,1,0,.78.78.78.78,0,0,0-.78-.78Z"></path><path id="Path-12" data-name="Path" class="cls-10" d="M86.82,24.14h0a.79.79,0,1,0,.78.78.78.78,0,0,0-.78-.78Z"></path><path id="Path-13" data-name="Path" class="cls-10" d="M83.69,24.14h0a.79.79,0,1,0,.78.78.78.78,0,0,0-.78-.78Z"></path><path id="Path-14" data-name="Path" class="cls-10" d="M93.07,21h0a.79.79,0,1,0,.78.79.79.79,0,0,0-.78-.79Z"></path><path id="Path-15" data-name="Path" class="cls-10" d="M89.94,21h0a.79.79,0,1,0,.78.79.78.78,0,0,0-.78-.79Z"></path><path id="Path-16" data-name="Path" class="cls-10" d="M86.82,21h0a.79.79,0,1,0,.78.79A.78.78,0,0,0,86.8,21Z"></path><path id="Path-17" data-name="Path" class="cls-10" d="M83.69,21h0a.79.79,0,1,0,.78.79.78.78,0,0,0-.78-.79Z"></path><path id="Path-18" data-name="Path" class="cls-10" d="M89.94,17.87h0a.78.78,0,0,0-.78.78.78.78,0,1,0,1.56,0,.78.78,0,0,0-.78-.78Z"></path><path id="Path-19" data-name="Path" class="cls-10" d="M86.82,17.87h0a.78.78,0,0,0-.78.78.78.78,0,1,0,1.56,0,.78.78,0,0,0-.78-.78Z"></path><path id="Path-20" data-name="Path" class="cls-10" d="M83.69,17.87h0a.78.78,0,0,0-.78.78.78.78,0,1,0,1.56,0,.78.78,0,0,0-.78-.78Z"></path><path id="Path-21" data-name="Path" class="cls-10" d="M86.82,14.73h0a.79.79,0,1,0,.78.79.78.78,0,0,0-.78-.79Z"></path><path id="Path-22" data-name="Path" class="cls-10" d="M83.69,14.73h0a.79.79,0,1,0,.78.79.78.78,0,0,0-.78-.79Z"></path><path id="Path-23" data-name="Path" class="cls-10" d="M83.69,11.6h0a.78.78,0,1,0,.78.78.78.78,0,0,0-.78-.78Z"></path><path id="Path-24" data-name="Path" class="cls-10" d="M96.2,30.41h0a.79.79,0,1,0,.79.79.78.78,0,0,0-.79-.79Z"></path><path id="Path-25" data-name="Path" class="cls-10" d="M93.07,30.41h0a.79.79,0,1,0,.78.79.79.79,0,0,0-.78-.79Z"></path><path id="Path-26" data-name="Path" class="cls-10" d="M89.94,30.41h0a.79.79,0,1,0,.78.79.78.78,0,0,0-.78-.79Z"></path><path id="Path-27" data-name="Path" class="cls-10" d="M86.82,30.41h0a.79.79,0,1,0,.78.79.78.78,0,0,0-.78-.79Z"></path><path id="Path-28" data-name="Path" class="cls-10" d="M83.69,30.41h0a.79.79,0,1,0,.78.79.78.78,0,0,0-.78-.79Z"></path><path id="Path-29" data-name="Path" class="cls-10" d="M93.07,33.55h0a.78.78,0,0,0-.79.78.79.79,0,1,0,1.57,0,.78.78,0,0,0-.78-.78Z"></path><path id="Path-30" data-name="Path" class="cls-10" d="M89.94,33.55h0a.78.78,0,0,0-.78.78.78.78,0,1,0,1.56,0,.78.78,0,0,0-.78-.78Z"></path><path id="Path-31" data-name="Path" class="cls-10" d="M86.82,33.55h0a.78.78,0,0,0-.78.78.78.78,0,1,0,1.56,0,.78.78,0,0,0-.78-.78Z"></path><path id="Path-32" data-name="Path" class="cls-10" d="M83.69,33.55h0a.78.78,0,0,0-.78.78.78.78,0,1,0,1.56,0,.78.78,0,0,0-.78-.78Z"></path><path id="Path-33" data-name="Path" class="cls-10" d="M89.94,36.68h0a.79.79,0,1,0,.78.79.78.78,0,0,0-.78-.79Z"></path><path id="Path-34" data-name="Path" class="cls-10" d="M86.82,36.68h0a.79.79,0,1,0,.78.79.78.78,0,0,0-.78-.79Z"></path><path id="Path-35" data-name="Path" class="cls-10" d="M83.69,36.68h0a.79.79,0,1,0,.78.79.78.78,0,0,0-.78-.79Z"></path><path id="Path-36" data-name="Path" class="cls-10" d="M86.82,39.82h0a.79.79,0,1,0,.78.78.78.78,0,0,0-.78-.78Z"></path><path id="Path-37" data-name="Path" class="cls-10" d="M83.69,39.82h0a.79.79,0,1,0,.78.78.78.78,0,0,0-.78-.78Z"></path><path id="Path-38" data-name="Path" class="cls-10" d="M83.69,43h0a.79.79,0,0,0-.78.79.78.78,0,0,0,1.56,0,.79.79,0,0,0-.78-.79Z"></path><path id="Path-39" data-name="Path" class="cls-10" d="M77.43,27.28h0a.78.78,0,1,0,.78.78.78.78,0,0,0-.78-.78Z"></path><path id="Path-40" data-name="Path" class="cls-10" d="M74.3,27.28h0a.78.78,0,1,0,.78.78.78.78,0,0,0-.78-.78Z"></path><path id="Path-41" data-name="Path" class="cls-10" d="M71.17,27.28h0a.78.78,0,1,0,.78.78.78.78,0,0,0-.78-.78Z"></path><path id="Path-42" data-name="Path" class="cls-10" d="M68.05,27.28h0a.78.78,0,1,0,.78.78.78.78,0,0,0-.78-.78Z"></path><path id="Path-43" data-name="Path" class="cls-10" d="M64.92,27.28h0a.78.78,0,1,0,.78.78.78.78,0,0,0-.78-.78Z"></path><path id="Path-44" data-name="Path" class="cls-10" d="M80.56,30.41h0a.79.79,0,1,0,.79.79.78.78,0,0,0-.79-.79Z"></path><path id="Path-45" data-name="Path" class="cls-10" d="M77.43,30.41h0a.79.79,0,1,0,.78.79.79.79,0,0,0-.78-.79Z"></path><path id="Path-46" data-name="Path" class="cls-10" d="M74.3,30.41h0a.79.79,0,1,0,.78.79.79.79,0,0,0-.78-.79Z"></path><path id="Path-47" data-name="Path" class="cls-10" d="M71.17,30.41h0a.79.79,0,1,0,.78.79.78.78,0,0,0-.78-.79Z"></path><path id="Path-48" data-name="Path" class="cls-10" d="M68.05,30.41h0a.79.79,0,1,0,.78.79.78.78,0,0,0-.78-.79Z"></path><path id="Path-49" data-name="Path" class="cls-10" d="M64.92,30.41h0a.79.79,0,1,0,.78.79.79.79,0,0,0-.78-.79Z"></path><path id="Path-50" data-name="Path" class="cls-10" d="M80.56,24.14h0a.79.79,0,1,0,.79.78.78.78,0,0,0-.79-.78Z"></path><path id="Path-51" data-name="Path" class="cls-10" d="M77.43,24.14h0a.79.79,0,1,0,.78.78A.78.78,0,0,0,77.42,24.14Z"></path><path id="Path-52" data-name="Path" class="cls-10" d="M74.3,24.14h0a.78.78,0,0,0-.79.78.79.79,0,0,0,.79.79.79.79,0,0,0,0-1.57Z"></path><path id="Path-53" data-name="Path" class="cls-10" d="M71.17,24.14h0a.79.79,0,1,0,.78.78A.78.78,0,0,0,71.16,24.14Z"></path><path id="Path-54" data-name="Path" class="cls-10" d="M68.05,24.14h0a.79.79,0,1,0,.78.78A.78.78,0,0,0,68,24.14Z"></path><path id="Path-55" data-name="Path" class="cls-10" d="M64.92,24.14h0a.79.79,0,1,0,.78.78A.78.78,0,0,0,64.91,24.14Z"></path></g><path id="Path-56" data-name="Path" d="M99.33,28.84a.78.78,0,0,1,0-1.56h0a.78.78,0,1,1,0,1.56Z"></path><path id="Path-57" data-name="Path" d="M96.2,28.84a.78.78,0,0,1,0-1.56h0a.78.78,0,1,1,0,1.56Z"></path><path id="Path-58" data-name="Path" d="M93.07,28.84a.78.78,0,1,1,0-1.56h0a.78.78,0,1,1,0,1.56Z"></path><path id="Path-59" data-name="Path" d="M89.94,28.84a.78.78,0,1,1,0-1.56h0a.78.78,0,1,1,0,1.56Z"></path><path id="Path-60" data-name="Path" d="M86.82,28.84a.78.78,0,1,1,0-1.56h0a.78.78,0,1,1,0,1.56Z"></path><path id="Path-61" data-name="Path" d="M83.69,28.84a.78.78,0,1,1,0-1.56h0a.78.78,0,1,1,0,1.56Z"></path><path id="Path-62" data-name="Path" d="M80.56,28.84a.78.78,0,1,1,0-1.56h0a.78.78,0,1,1,0,1.56Z"></path><path id="Path-63" data-name="Path" d="M96.2,25.71a.79.79,0,0,1,0-1.57h0a.79.79,0,0,1,0,1.57Z"></path><path id="Path-64" data-name="Path" d="M93.07,25.71a.79.79,0,0,1,0-1.57h0a.79.79,0,0,1,0,1.57Z"></path><path id="Path-65" data-name="Path" d="M89.94,25.71a.79.79,0,0,1,0-1.57h0a.79.79,0,1,1,0,1.57Z"></path><path id="Path-66" data-name="Path" d="M86.82,25.71a.79.79,0,1,1,0-1.57h0a.79.79,0,0,1,0,1.57Z"></path><path id="Path-67" data-name="Path" d="M83.69,25.71a.79.79,0,0,1,0-1.57h0a.79.79,0,0,1,0,1.57Z"></path><path id="Path-68" data-name="Path" d="M93.07,22.57a.79.79,0,0,1,0-1.57h0a.79.79,0,0,1,0,1.57Z"></path><path id="Path-69" data-name="Path" d="M89.94,22.57a.79.79,0,0,1,0-1.57h0a.79.79,0,1,1,0,1.57Z"></path><path id="Path-70" data-name="Path" d="M86.82,22.57a.79.79,0,1,1,0-1.57h0a.79.79,0,0,1,0,1.57Z"></path><path id="Path-71" data-name="Path" d="M83.69,22.57a.79.79,0,0,1,0-1.57h0a.79.79,0,0,1,0,1.57Z"></path><path id="Path-72" data-name="Path" d="M89.94,19.44a.79.79,0,0,1-.78-.79.78.78,0,0,1,.78-.78h0a.78.78,0,0,1,.79.78A.79.79,0,0,1,89.94,19.44Z"></path><path id="Path-73" data-name="Path" d="M86.82,19.44a.79.79,0,0,1-.79-.79.78.78,0,0,1,.79-.78h0a.78.78,0,0,1,.78.78A.79.79,0,0,1,86.82,19.44Z"></path><path id="Path-74" data-name="Path" d="M83.69,19.44a.79.79,0,0,1-.78-.79.78.78,0,0,1,.78-.78h0a.78.78,0,0,1,.78.78A.79.79,0,0,1,83.69,19.44Z"></path><path id="Path-75" data-name="Path" d="M86.82,16.3a.79.79,0,1,1,0-1.57h0a.79.79,0,0,1,0,1.57Z"></path><path id="Path-76" data-name="Path" d="M83.69,16.3a.79.79,0,0,1,0-1.57h0a.79.79,0,0,1,0,1.57Z"></path><path id="Path-77" data-name="Path" d="M83.69,13.16a.78.78,0,0,1,0-1.56h0a.78.78,0,1,1,0,1.56Z"></path><path id="Path-78" data-name="Path" d="M96.2,32a.79.79,0,0,1,0-1.57h0a.79.79,0,0,1,0,1.57Z"></path><path id="Path-79" data-name="Path" d="M93.07,32a.79.79,0,0,1,0-1.57h0a.79.79,0,0,1,0,1.57Z"></path><path id="Path-80" data-name="Path" d="M89.94,32a.79.79,0,0,1,0-1.57h0a.79.79,0,1,1,0,1.57Z"></path><path id="Path-81" data-name="Path" d="M86.82,32a.79.79,0,1,1,0-1.57h0a.79.79,0,0,1,0,1.57Z"></path><path id="Path-82" data-name="Path" d="M83.69,32a.79.79,0,0,1,0-1.57h0a.79.79,0,0,1,0,1.57Z"></path><path id="Path-83" data-name="Path" d="M93.07,35.11a.78.78,0,1,1,0-1.56h0a.78.78,0,0,1,0,1.56Z"></path><path id="Path-84" data-name="Path" d="M89.94,35.11a.78.78,0,0,1,0-1.56h0a.78.78,0,1,1,0,1.56Z"></path><path id="Path-85" data-name="Path" d="M86.82,35.11a.78.78,0,1,1,0-1.56h0a.78.78,0,0,1,0,1.56Z"></path><path id="Path-86" data-name="Path" d="M83.69,35.11a.78.78,0,0,1,0-1.56h0a.78.78,0,0,1,0,1.56Z"></path><path id="Path-87" data-name="Path" d="M89.94,38.25a.79.79,0,0,1,0-1.57h0a.79.79,0,1,1,0,1.57Z"></path><path id="Path-88" data-name="Path" d="M86.82,38.25a.79.79,0,1,1,0-1.57h0a.79.79,0,0,1,0,1.57Z"></path><path id="Path-89" data-name="Path" d="M83.69,38.25a.79.79,0,0,1,0-1.57h0a.79.79,0,0,1,0,1.57Z"></path><path id="Path-90" data-name="Path" d="M86.82,41.39a.79.79,0,1,1,0-1.57h0a.79.79,0,0,1,0,1.57Z"></path><path id="Path-91" data-name="Path" d="M83.69,41.39a.79.79,0,0,1,0-1.57h0a.79.79,0,0,1,0,1.57Z"></path><path id="Path-92" data-name="Path" d="M83.69,44.52a.78.78,0,0,1-.78-.78.79.79,0,0,1,.78-.79h0a.79.79,0,0,1,.78.79A.78.78,0,0,1,83.69,44.52Z"></path><path id="Path-93" data-name="Path" d="M77.43,28.84a.78.78,0,1,1,0-1.56h0a.78.78,0,1,1,0,1.56Z"></path><path id="Path-94" data-name="Path" d="M74.3,28.84a.78.78,0,1,1,0-1.56h0a.78.78,0,1,1,0,1.56Z"></path><path id="Path-95" data-name="Path" d="M71.17,28.84a.78.78,0,1,1,0-1.56h0a.78.78,0,1,1,0,1.56Z"></path><path id="Path-96" data-name="Path" d="M68.05,28.84a.78.78,0,1,1,0-1.56h0a.78.78,0,1,1,0,1.56Z"></path><path id="Path-97" data-name="Path" d="M64.92,28.84a.78.78,0,1,1,0-1.56h0a.78.78,0,1,1,0,1.56Z"></path><path id="Path-98" data-name="Path" d="M80.56,32a.79.79,0,0,1,0-1.57h0a.79.79,0,0,1,0,1.57Z"></path><path id="Path-99" data-name="Path" d="M77.43,32a.79.79,0,0,1,0-1.57h0a.79.79,0,0,1,0,1.57Z"></path><path id="Path-100" data-name="Path" d="M74.3,32a.79.79,0,0,1,0-1.57h0a.79.79,0,0,1,0,1.57Z"></path><path id="Path-101" data-name="Path" d="M71.17,32a.79.79,0,0,1,0-1.57h0a.79.79,0,1,1,0,1.57Z"></path><path id="Path-102" data-name="Path" d="M68.05,32a.79.79,0,1,1,0-1.57h0a.79.79,0,0,1,0,1.57Z"></path><path id="Path-103" data-name="Path" d="M64.92,32a.79.79,0,0,1,0-1.57h0a.79.79,0,0,1,0,1.57Z"></path><path id="Path-104" data-name="Path" d="M80.56,25.71a.79.79,0,0,1,0-1.57h0a.79.79,0,0,1,0,1.57Z"></path><path id="Path-105" data-name="Path" d="M77.43,25.71a.79.79,0,0,1,0-1.57h0a.79.79,0,0,1,0,1.57Z"></path><path id="Path-106" data-name="Path" d="M74.3,25.71a.79.79,0,0,1,0-1.57h0a.79.79,0,0,1,0,1.57Z"></path><path id="Path-107" data-name="Path" d="M71.17,25.71a.79.79,0,0,1,0-1.57h0a.79.79,0,1,1,0,1.57Z"></path><path id="Path-108" data-name="Path" d="M68.05,25.71a.79.79,0,1,1,0-1.57h0a.79.79,0,0,1,0,1.57Z"></path><path id="Path-109" data-name="Path" d="M64.92,25.71a.79.79,0,0,1,0-1.57h0a.79.79,0,0,1,0,1.57Z"></path></g></g></g></g></g><path class="cls-11" d="M26.12,21.32h-.06l-3,2.07c-.17.11-.31.06-.31-.17V19.75a.44.44,0,0,1,.19-.39l3.2-2.3a.77.77,0,0,1,.5-.16h3.14a.27.27,0,0,1,.28.28V35.65a.28.28,0,0,1-.28.29H26.4a.27.27,0,0,1-.28-.29Z"></path></svg> 