<?xml version="1.0" encoding="UTF-8"?> <svg xmlns="http://www.w3.org/2000/svg" id="Layer_1" data-name="Layer 1" viewBox="0 0 274.47 123.71"><defs><style>.cls-1{fill:#7c7c7c;}</style></defs><g id="Marketing-Tools"><g id="Desktop-HD-Copy"><g id="Drop__loyalty_program__logo" data-name="Drop_(loyalty_program)_logo"><path id="Fill-1" class="cls-1" d="M66.53,42.1A18.85,18.85,0,1,0,90.66,53.37c-3.55-9.86-7.14-19.64-10.73-29.47L71.3,27.07l5.16,14.19A18.45,18.45,0,0,0,66.53,42.1Zm120,35.44a18.86,18.86,0,1,0-24.16-11.28c3.58,9.82,7.13,19.61,10.72,29.44l8.67-3.14-5.16-14.22A18.93,18.93,0,0,0,186.55,77.54Zm-3.13-8.64a9.68,9.68,0,1,1,5.76-12.39A9.67,9.67,0,0,1,183.42,68.9ZM138.37,41a18.87,18.87,0,1,0,18.82,18.89A18.87,18.87,0,0,0,138.37,41Zm0,9.18a9.67,9.67,0,1,1-9.65,9.71A9.7,9.7,0,0,1,138.37,50.13ZM113.06,75.55l-8.66,3.17c-2.71-7.41-4.73-13.07-7.44-20.49a11,11,0,0,1,6.56-14l10-3.63,3.16,8.68-10,3.63a1.68,1.68,0,0,0-1,2.18ZM69.66,50.7A9.68,9.68,0,1,1,63.9,63.09,9.68,9.68,0,0,1,69.66,50.7Z"></path></g></g></g></svg> 