<?xml version="1.0" encoding="UTF-8"?> <svg xmlns="http://www.w3.org/2000/svg" id="Layer_1" data-name="Layer 1" viewBox="0 0 63.25 98.38"><defs><style>.cls-1{fill:#222;}.cls-2{fill:#009688;}.cls-3{fill:#fff;}</style></defs><g id="Marketing-Tools"><g id="Desktop-HD-Copy"><g id="Group-3"><circle id="Oval" class="cls-1" cx="31.53" cy="72.61" r="21"></circle></g></g></g><g id="doot-arrow"><g id="next"><g id="Group"><path id="Path" class="cls-2" d="M32.32,40h0a.79.79,0,1,0-.79.78.79.79,0,0,0,.79-.78Z"></path><path id="Path-2" data-name="Path" class="cls-2" d="M32.32,36.84h0a.79.79,0,1,0-.79.78.78.78,0,0,0,.79-.78Z"></path><path id="Path-3" data-name="Path" class="cls-2" d="M32.32,33.72v0a.79.79,0,1,0-.79.78.78.78,0,0,0,.79-.78v0Z"></path><path id="Path-4" data-name="Path" class="cls-2" d="M32.32,30.59v0a.79.79,0,1,0-.79.78.78.78,0,0,0,.79-.78v0Z"></path><path id="Path-5" data-name="Path" class="cls-2" d="M32.32,27.46v0a.79.79,0,1,0-.79.79.78.78,0,0,0,.79-.79v0Z"></path><path id="Path-6" data-name="Path" class="cls-2" d="M32.32,24.33h0a.79.79,0,1,0-.79.78.79.79,0,0,0,.79-.78Z"></path><path id="Path-7" data-name="Path" class="cls-2" d="M32.32,21.2h0a.79.79,0,1,0-.79.78.79.79,0,0,0,.79-.78Z"></path><path id="Path-8" data-name="Path" class="cls-2" d="M35.45,36.84h0a.78.78,0,1,0-.78.78.78.78,0,0,0,.78-.78Z"></path><path id="Path-9" data-name="Path" class="cls-2" d="M35.45,33.72v0a.78.78,0,1,0-.78.78.78.78,0,0,0,.78-.78Z"></path><path id="Path-10" data-name="Path" class="cls-2" d="M35.45,30.59v0a.78.78,0,1,0-.78.78.78.78,0,0,0,.78-.78Z"></path><path id="Path-11" data-name="Path" class="cls-2" d="M35.45,27.46v0a.78.78,0,1,0-.78.79.78.78,0,0,0,.78-.79Z"></path><path id="Path-12" data-name="Path" class="cls-2" d="M35.45,24.33h0a.78.78,0,1,0-.78.78.78.78,0,0,0,.78-.78Z"></path><path id="Path-13" data-name="Path" class="cls-2" d="M38.59,33.72v0a.79.79,0,1,0-.78.78.78.78,0,0,0,.78-.78Z"></path><path id="Path-14" data-name="Path" class="cls-2" d="M38.59,30.59v0a.79.79,0,1,0-.78.78.78.78,0,0,0,.78-.78Z"></path><path id="Path-15" data-name="Path" class="cls-2" d="M38.59,27.46v0a.79.79,0,1,0-.78.79.78.78,0,0,0,.78-.79Z"></path><path id="Path-16" data-name="Path" class="cls-2" d="M38.59,24.33h0a.79.79,0,1,0-.78.78.78.78,0,0,0,.78-.78Z"></path><path id="Path-17" data-name="Path" class="cls-2" d="M41.73,30.59v0a.79.79,0,0,0-.79-.78.78.78,0,0,0,0,1.56.79.79,0,0,0,.79-.78v0Z"></path><path id="Path-18" data-name="Path" class="cls-2" d="M41.73,27.46v0a.79.79,0,0,0-.79-.78.79.79,0,0,0,0,1.57.79.79,0,0,0,.79-.79v0Z"></path><path id="Path-19" data-name="Path" class="cls-2" d="M41.73,24.33h0a.79.79,0,0,0-.79-.79.79.79,0,1,0,.79.79Z"></path><path id="Path-20" data-name="Path" class="cls-2" d="M44.86,27.46v0a.79.79,0,1,0-.78.79.78.78,0,0,0,.78-.79Z"></path><path id="Path-21" data-name="Path" class="cls-2" d="M44.86,24.33h0a.79.79,0,1,0-.78.78.78.78,0,0,0,.78-.78Z"></path><path id="Path-22" data-name="Path" class="cls-2" d="M48,24.33h0a.79.79,0,1,0-.79.78.79.79,0,0,0,.79-.78Z"></path><path id="Path-23" data-name="Path" class="cls-2" d="M29.18,36.84h0a.78.78,0,0,0-.78-.78.78.78,0,1,0,0,1.56.78.78,0,0,0,.78-.78Z"></path><path id="Path-24" data-name="Path" class="cls-2" d="M29.18,33.72v0a.78.78,0,0,0-.78-.78.78.78,0,1,0,0,1.56.78.78,0,0,0,.78-.78Z"></path><path id="Path-25" data-name="Path" class="cls-2" d="M29.18,30.59v0a.78.78,0,0,0-.78-.78.78.78,0,1,0,0,1.56.78.78,0,0,0,.78-.78Z"></path><path id="Path-26" data-name="Path" class="cls-2" d="M29.18,27.46v0a.78.78,0,0,0-.78-.78.79.79,0,1,0,.78.78Z"></path><path id="Path-27" data-name="Path" class="cls-2" d="M29.18,24.33h0a.78.78,0,0,0-.78-.79.79.79,0,1,0,0,1.57.78.78,0,0,0,.78-.78Z"></path><path id="Path-28" data-name="Path" class="cls-2" d="M26.05,33.72v0a.79.79,0,1,0-.79.78.78.78,0,0,0,.79-.78Z"></path><path id="Path-29" data-name="Path" class="cls-2" d="M26.05,30.59v0a.79.79,0,1,0-.79.78.78.78,0,0,0,.79-.78Z"></path><path id="Path-30" data-name="Path" class="cls-2" d="M26.05,27.46v0a.79.79,0,1,0-.79.79.78.78,0,0,0,.79-.79Z"></path><path id="Path-31" data-name="Path" class="cls-2" d="M26.05,24.33h0a.79.79,0,1,0-.79.78.79.79,0,0,0,.79-.78Z"></path><path id="Path-32" data-name="Path" class="cls-2" d="M22.91,30.59v0a.79.79,0,1,0-.78.78.78.78,0,0,0,.78-.78Z"></path><path id="Path-33" data-name="Path" class="cls-2" d="M22.91,27.46v0a.79.79,0,1,0-.78.79.78.78,0,0,0,.78-.79Z"></path><path id="Path-34" data-name="Path" class="cls-2" d="M22.91,24.33h0a.79.79,0,1,0-.78.78.78.78,0,0,0,.78-.78Z"></path><path id="Path-35" data-name="Path" class="cls-2" d="M19.77,27.46v0a.78.78,0,1,0-.78.79.78.78,0,0,0,.78-.79Z"></path><path id="Path-36" data-name="Path" class="cls-2" d="M19.77,24.33h0a.78.78,0,1,0-.78.78.78.78,0,0,0,.78-.78Z"></path><path id="Path-37" data-name="Path" class="cls-2" d="M16.64,24.33h0a.79.79,0,1,0-.79.78.79.79,0,0,0,.79-.78Z"></path><path id="Path-38" data-name="Path" class="cls-2" d="M32.32,18.07h0a.79.79,0,1,0-.79.78.78.78,0,0,0,.79-.78Z"></path><path id="Path-39" data-name="Path" class="cls-2" d="M32.32,15v0a.79.79,0,1,0-.79.78.78.78,0,0,0,.79-.78v0Z"></path><path id="Path-40" data-name="Path" class="cls-2" d="M32.32,11.82v0a.79.79,0,1,0-.79.78.78.78,0,0,0,.79-.78v0Z"></path><path id="Path-41" data-name="Path" class="cls-2" d="M32.32,8.69v0a.79.79,0,1,0-.79.79.78.78,0,0,0,.79-.79v0Z"></path><path id="Path-42" data-name="Path" class="cls-2" d="M32.32,5.56h0a.79.79,0,1,0-.79.78.78.78,0,0,0,.79-.78Z"></path><path id="Path-43" data-name="Path" class="cls-2" d="M29.18,21.2h0a.78.78,0,0,0-.78-.79.79.79,0,1,0,0,1.57.78.78,0,0,0,.78-.78Z"></path><path id="Path-44" data-name="Path" class="cls-2" d="M29.18,18.07h0a.78.78,0,0,0-.78-.78.78.78,0,1,0,0,1.56.78.78,0,0,0,.78-.78Z"></path><path id="Path-45" data-name="Path" class="cls-2" d="M29.18,15v0a.78.78,0,0,0-.78-.78.78.78,0,1,0,0,1.56.78.78,0,0,0,.78-.78Z"></path><path id="Path-46" data-name="Path" class="cls-2" d="M29.18,11.82v0A.78.78,0,0,0,28.4,11a.78.78,0,1,0,0,1.56.78.78,0,0,0,.78-.78Z"></path><path id="Path-47" data-name="Path" class="cls-2" d="M29.18,8.69v0a.78.78,0,0,0-.78-.78.79.79,0,1,0,.78.78Z"></path><path id="Path-48" data-name="Path" class="cls-2" d="M29.18,5.56h0a.78.78,0,0,0-.78-.78.78.78,0,1,0,0,1.56.78.78,0,0,0,.78-.78Z"></path><path id="Path-49" data-name="Path" class="cls-2" d="M35.45,21.2h0a.78.78,0,1,0-.78.78.78.78,0,0,0,.78-.78Z"></path><path id="Path-50" data-name="Path" class="cls-2" d="M35.45,18.07h0a.78.78,0,1,0-.78.78A.77.77,0,0,0,35.45,18.07Z"></path><path id="Path-51" data-name="Path" class="cls-2" d="M35.45,15v0a.78.78,0,1,0-.78.78A.77.77,0,0,0,35.45,15Z"></path><path id="Path-52" data-name="Path" class="cls-2" d="M35.45,11.82v0a.78.78,0,1,0-.78.78A.77.77,0,0,0,35.45,11.82Z"></path><path id="Path-53" data-name="Path" class="cls-2" d="M35.45,8.69v0a.78.78,0,1,0-.78.79A.78.78,0,0,0,35.45,8.67Z"></path><path id="Path-54" data-name="Path" class="cls-2" d="M35.45,5.56h0a.78.78,0,1,0-.78.78A.77.77,0,0,0,35.45,5.56Z"></path></g><path id="Path-55" data-name="Path" d="M30.75,40a.79.79,0,0,1,1.57,0h0a.79.79,0,0,1-1.57,0Z"></path><path id="Path-56" data-name="Path" d="M30.75,36.84a.79.79,0,0,1,1.57,0h0a.79.79,0,1,1-1.57,0Z"></path><path id="Path-57" data-name="Path" d="M30.75,33.72a.79.79,0,1,1,1.57,0h0a.79.79,0,0,1-1.57,0Z"></path><path id="Path-58" data-name="Path" d="M30.75,30.59a.79.79,0,0,1,1.57,0h0a.79.79,0,0,1-1.57,0Z"></path><path id="Path-59" data-name="Path" d="M30.75,27.46a.79.79,0,0,1,1.57,0h0a.79.79,0,0,1-1.57,0Z"></path><path id="Path-60" data-name="Path" d="M30.75,24.33a.79.79,0,0,1,1.57,0h0a.79.79,0,0,1-1.57,0Z"></path><path id="Path-61" data-name="Path" d="M30.75,21.2a.79.79,0,0,1,1.57,0h0a.79.79,0,0,1-1.57,0Z"></path><path id="Path-62" data-name="Path" d="M33.89,36.84a.78.78,0,0,1,1.56,0h0a.78.78,0,1,1-1.56,0Z"></path><path id="Path-63" data-name="Path" d="M33.89,33.72a.78.78,0,1,1,1.56,0h0a.78.78,0,0,1-1.56,0Z"></path><path id="Path-64" data-name="Path" d="M33.89,30.59a.78.78,0,0,1,1.56,0h0a.78.78,0,1,1-1.56,0Z"></path><path id="Path-65" data-name="Path" d="M33.89,27.46a.78.78,0,0,1,1.56,0h0a.78.78,0,0,1-1.56,0Z"></path><path id="Path-66" data-name="Path" d="M33.89,24.33a.78.78,0,1,1,1.56,0h0a.78.78,0,0,1-1.56,0Z"></path><path id="Path-67" data-name="Path" d="M37,33.72a.79.79,0,1,1,1.57,0h0a.79.79,0,0,1-1.57,0Z"></path><path id="Path-68" data-name="Path" d="M37,30.59a.79.79,0,0,1,1.57,0h0a.79.79,0,0,1-1.57,0Z"></path><path id="Path-69" data-name="Path" d="M37,27.46a.79.79,0,0,1,1.57,0h0a.79.79,0,0,1-1.57,0Z"></path><path id="Path-70" data-name="Path" d="M37,24.33a.79.79,0,0,1,1.57,0h0a.79.79,0,0,1-1.57,0Z"></path><path id="Path-71" data-name="Path" d="M40.16,30.59a.78.78,0,0,1,.78-.78.79.79,0,0,1,.79.78h0a.79.79,0,0,1-.79.78A.78.78,0,0,1,40.16,30.59Z"></path><path id="Path-72" data-name="Path" d="M40.16,27.46a.78.78,0,0,1,.78-.78.79.79,0,0,1,.79.78h0a.79.79,0,0,1-.79.78A.78.78,0,0,1,40.16,27.46Z"></path><path id="Path-73" data-name="Path" d="M40.16,24.33a.78.78,0,0,1,.78-.78.79.79,0,0,1,.79.78h0a.79.79,0,0,1-.79.78A.78.78,0,0,1,40.16,24.33Z"></path><path id="Path-74" data-name="Path" d="M43.29,27.46a.79.79,0,0,1,1.57,0h0a.79.79,0,0,1-1.57,0Z"></path><path id="Path-75" data-name="Path" d="M43.29,24.33a.79.79,0,0,1,1.57,0h0a.79.79,0,0,1-1.57,0Z"></path><path id="Path-76" data-name="Path" d="M46.43,24.33a.79.79,0,0,1,1.57,0h0a.79.79,0,0,1-1.57,0Z"></path><path id="Path-77" data-name="Path" d="M27.61,36.84a.79.79,0,0,1,.79-.78.78.78,0,0,1,.78.78h0a.78.78,0,0,1-.78.79A.79.79,0,0,1,27.61,36.84Z"></path><path id="Path-78" data-name="Path" d="M27.61,33.72a.79.79,0,0,1,.79-.79.78.78,0,0,1,.78.79h0a.78.78,0,0,1-.78.78A.79.79,0,0,1,27.61,33.72Z"></path><path id="Path-79" data-name="Path" d="M27.61,30.59a.79.79,0,0,1,.79-.78.78.78,0,0,1,.78.78h0a.78.78,0,0,1-.78.78A.79.79,0,0,1,27.61,30.59Z"></path><path id="Path-80" data-name="Path" d="M27.61,27.46a.79.79,0,0,1,.79-.78.78.78,0,0,1,.78.78h0a.78.78,0,0,1-.78.78A.79.79,0,0,1,27.61,27.46Z"></path><path id="Path-81" data-name="Path" d="M27.61,24.33a.79.79,0,0,1,.79-.78.78.78,0,0,1,.78.78h0a.78.78,0,0,1-.78.78A.79.79,0,0,1,27.61,24.33Z"></path><path id="Path-82" data-name="Path" d="M24.48,33.72a.79.79,0,1,1,1.57,0h0a.79.79,0,0,1-1.57,0Z"></path><path id="Path-83" data-name="Path" d="M24.48,30.59a.79.79,0,0,1,1.57,0h0a.79.79,0,0,1-1.57,0Z"></path><path id="Path-84" data-name="Path" d="M24.48,27.46a.79.79,0,0,1,1.57,0h0a.79.79,0,0,1-1.57,0Z"></path><path id="Path-85" data-name="Path" d="M24.48,24.33a.79.79,0,0,1,1.57,0h0a.79.79,0,0,1-1.57,0Z"></path><path id="Path-86" data-name="Path" d="M21.34,30.59a.79.79,0,0,1,1.57,0h0a.79.79,0,0,1-1.57,0Z"></path><path id="Path-87" data-name="Path" d="M21.34,27.46a.79.79,0,0,1,1.57,0h0a.79.79,0,0,1-1.57,0Z"></path><path id="Path-88" data-name="Path" d="M21.34,24.33a.79.79,0,0,1,1.57,0h0a.79.79,0,0,1-1.57,0Z"></path><path id="Path-89" data-name="Path" d="M18.21,27.46a.78.78,0,1,1,1.56,0h0a.78.78,0,1,1-1.56,0Z"></path><path id="Path-90" data-name="Path" d="M18.21,24.33a.78.78,0,1,1,1.56,0h0a.78.78,0,1,1-1.56,0Z"></path><path id="Path-91" data-name="Path" d="M15.07,24.33a.79.79,0,0,1,1.57,0h0a.79.79,0,0,1-1.57,0Z"></path><path id="Path-92" data-name="Path" d="M30.75,18.07a.79.79,0,0,1,1.57,0h0a.79.79,0,1,1-1.57,0Z"></path><path id="Path-93" data-name="Path" d="M30.75,15a.79.79,0,1,1,1.57,0h0a.79.79,0,0,1-1.57,0Z"></path><path id="Path-94" data-name="Path" d="M30.75,11.82a.79.79,0,0,1,1.57,0h0a.79.79,0,0,1-1.57,0Z"></path><path id="Path-95" data-name="Path" d="M30.75,8.69a.79.79,0,0,1,1.57,0h0a.79.79,0,0,1-1.57,0Z"></path><path id="Path-96" data-name="Path" d="M30.75,5.56a.79.79,0,0,1,1.57,0h0a.79.79,0,0,1-1.57,0Z"></path><path id="Path-97" data-name="Path" d="M27.61,21.2a.79.79,0,0,1,.79-.78.78.78,0,0,1,.78.78h0a.78.78,0,0,1-.78.78A.79.79,0,0,1,27.61,21.2Z"></path><path id="Path-98" data-name="Path" d="M27.61,18.07a.79.79,0,0,1,.79-.78.78.78,0,0,1,.78.78h0a.78.78,0,0,1-.78.79A.79.79,0,0,1,27.61,18.07Z"></path><path id="Path-99" data-name="Path" d="M27.61,15a.79.79,0,0,1,.79-.79.78.78,0,0,1,.78.79h0a.78.78,0,0,1-.78.78A.79.79,0,0,1,27.61,15Z"></path><path id="Path-100" data-name="Path" d="M27.61,11.82A.79.79,0,0,1,28.4,11a.78.78,0,0,1,.78.78h0a.78.78,0,0,1-.78.78A.79.79,0,0,1,27.61,11.82Z"></path><path id="Path-101" data-name="Path" d="M27.61,8.69a.79.79,0,0,1,.79-.78.78.78,0,0,1,.78.78h0a.78.78,0,0,1-.78.78A.79.79,0,0,1,27.61,8.69Z"></path><path id="Path-102" data-name="Path" d="M27.61,5.56a.79.79,0,0,1,.79-.78.78.78,0,0,1,.78.78h0a.78.78,0,0,1-.78.78A.79.79,0,0,1,27.61,5.56Z"></path><path id="Path-103" data-name="Path" d="M33.89,21.2a.78.78,0,1,1,1.56,0h0a.78.78,0,1,1-1.56,0Z"></path><path id="Path-104" data-name="Path" d="M33.89,18.07a.78.78,0,0,1,1.56,0h0a.78.78,0,1,1-1.56,0Z"></path><path id="Path-105" data-name="Path" d="M33.89,15a.78.78,0,1,1,1.56,0h0a.78.78,0,1,1-1.56,0Z"></path><path id="Path-106" data-name="Path" d="M33.89,11.82a.78.78,0,0,1,1.56,0h0a.78.78,0,1,1-1.56,0Z"></path><path id="Path-107" data-name="Path" d="M33.89,8.69a.78.78,0,0,1,1.56,0h0a.78.78,0,0,1-1.56,0Z"></path><path id="Path-108" data-name="Path" d="M33.89,5.56a.78.78,0,0,1,1.56,0h0a.78.78,0,0,1-1.56,0Z"></path></g></g><path class="cls-3" d="M26,76.27l3-.59a.28.28,0,0,1,.33.23,2.22,2.22,0,0,0,2.22,1.56,1.91,1.91,0,0,0,2-1.34,5.16,5.16,0,0,0,.23-1.85,5.08,5.08,0,0,0-.23-1.87,1.87,1.87,0,0,0-2-1.32,2.05,2.05,0,0,0-1.94,1.09c-.08.2-.16.28-.36.28h-3a.27.27,0,0,1-.28-.28V61.71a.27.27,0,0,1,.28-.28H36.87a.26.26,0,0,1,.28.28v2.77a.26.26,0,0,1-.28.28h-7.3a.15.15,0,0,0-.17.17v3.75h.08a4.35,4.35,0,0,1,2.86-.89c2.43,0,4.2,1.09,4.9,3.22a10,10,0,0,1,.39,3.24,9.71,9.71,0,0,1-.42,3c-.76,2.33-2.91,3.56-5.63,3.56-3.25,0-5.51-1.71-5.85-4.2A.26.26,0,0,1,26,76.27Z"></path></svg> 