<?xml version="1.0" encoding="UTF-8"?> <svg xmlns="http://www.w3.org/2000/svg" id="Layer_1" data-name="Layer 1" viewBox="0 0 280.4 136.12"><defs><style>.cls-1{fill:#d8d8d8;stroke:#979797;}.cls-2{fill:none;stroke-linecap:square;}.cls-2,.cls-4{stroke:#000;}.cls-10,.cls-3{fill:#fff;}.cls-3,.cls-5{stroke:#0b0b0b;}.cls-4,.cls-5{fill:#3bff80;}.cls-6{isolation:isolate;}.cls-7{fill:#191919;}.cls-8,.cls-9{fill:#222;}.cls-8{fill-rule:evenodd;}</style></defs><g id="Marketing-Tools"><g id="Desktop-HD-Copy"><g id="Group-13"><g id="Group-5"><circle id="Oval" class="cls-1" cx="29.41" cy="90.63" r="21.5"></circle><line id="Line-3" class="cls-2" x1="267.41" y1="73.63" x2="279.41" y2="66.63"></line><line id="Line-3-2" data-name="Line-3" class="cls-2" x1="262.41" y1="69.63" x2="266.91" y2="63.13"></line><line id="Line-3-3" data-name="Line-3" class="cls-2" x1="267.41" y1="80.63" x2="275.66" y2="78.88"></line><rect id="Rectangle" class="cls-3" x="1.91" y="64.13" width="256" height="48" rx="3"></rect><circle id="Oval-2" data-name="Oval" class="cls-4" cx="30.91" cy="88.13" r="17"></circle><rect id="Rectangle-2" data-name="Rectangle" class="cls-5" x="153.91" y="69.13" width="99" height="38" rx="3"></rect><g id="CASHOUT" class="cls-6"><g class="cls-6"><path class="cls-7" d="M180,89.55a1.82,1.82,0,0,1,.16.73,4.64,4.64,0,0,1-2,3.14,4.86,4.86,0,0,1-2.84.91,4,4,0,0,1-1.94-.46,4.36,4.36,0,0,1-2-3.75c-.08-4.44,3.85-8.42,6.34-9.54a4.83,4.83,0,0,1,1.74-.38,2.23,2.23,0,0,1,1.43.46A3.41,3.41,0,0,1,182.26,83a2.86,2.86,0,0,1-.31,1.28,14.31,14.31,0,0,0-.83,2,.53.53,0,0,1-.86.33,1.64,1.64,0,0,1-.75-1.41,2.69,2.69,0,0,1,.13-.82,10.27,10.27,0,0,1,.37-1c.31-.77.58-1.47.31-1.76-.53-.57-3.65,1.34-5.48,4.29a9.44,9.44,0,0,0-1.38,4.69c0,1.89.83,2.73,1.63,2.73,1.21,0,2.77-1.41,4-3.85A.47.47,0,0,1,180,89.55Z"></path><path class="cls-7" d="M186.61,92.24a11.82,11.82,0,0,1,.07-1.48l-1.54.16a19.83,19.83,0,0,1-2.35.15c-.6,1-1.08,2.14-1.59,3-.26.46-.64.37-.79.06a1.62,1.62,0,0,1-.26-.81,3.94,3.94,0,0,1,.35-1.5A9.75,9.75,0,0,1,181,90.7a2.1,2.1,0,0,1-.66-.73c-.18-.42-.09-.55.48-.46l.79.09a40.43,40.43,0,0,1,7-9.09c.48-.4.81-.38,1.14.07a3.53,3.53,0,0,1,.51.9,1.91,1.91,0,0,1,.17.77,2.44,2.44,0,0,1-.17.9,51,51,0,0,0-1.54,6.18,1.73,1.73,0,0,1,1,1.15c.11.35-.05.44-.44.37l-.77-.13c-.14,1.1-.25,2.22-.29,3.3,0,.4-.29.48-.68.31S186.64,93.51,186.61,92.24Zm1.55-8.69a60.26,60.26,0,0,0-4.38,6c.44-.05.88-.09,1.29-.16.75-.08,1.24-.17,1.83-.19A34.23,34.23,0,0,1,188.16,83.55Z"></path><path class="cls-7" d="M188.62,91a3.09,3.09,0,0,1,.68-.07,2.72,2.72,0,0,1,1.71.55c.86.71,2.31,1.81,3.59,1.81a1.72,1.72,0,0,0,1.17-.35.6.6,0,0,0,0-.93c-1.58-1.23-4.64-2.42-4.64-4.66,0-3,3.43-5.61,5.41-6.45a3.93,3.93,0,0,1,1.7-.37,2,2,0,0,1,1.34.46,4.15,4.15,0,0,1,1.17,1.89,3,3,0,0,1-.66,2.27c-.53.7-1.17,1.85-1.48,2.37-.2.36-.44.53-.86.09a1.65,1.65,0,0,1-.52-1.19,4.27,4.27,0,0,1,1-2.28c.55-.82,1.14-1.79.83-2-.81-.59-5.63,2.64-5.74,5.17-.06,1.46,2.95,2.71,3.81,3.33a1.41,1.41,0,0,1,.66,1.12,3,3,0,0,1-.86,1.76,3.93,3.93,0,0,1-3,1.12,7.72,7.72,0,0,1-5.48-2.9C188.15,91.31,188.31,91.07,188.62,91Z"></path><path class="cls-7" d="M207.71,88.21a1.49,1.49,0,0,1,.79,1c.07.28-.08.46-.5.39a8.07,8.07,0,0,0-1-.06q-1.06,2.07-2.16,4.49c-.15.35-.53.46-.77.06a1.92,1.92,0,0,1-.37-1.12,4.39,4.39,0,0,1,.28-1.36c.16-.42.44-1.15.79-1.87a37.76,37.76,0,0,1-3.76.44c-.64,1.32-1.27,2.73-1.91,4.13-.16.38-.55.49-.82.11a1.88,1.88,0,0,1-.37-1.14c0-.64.22-1.3,1.14-3.48a1.64,1.64,0,0,1-.7-.66c-.22-.42-.09-.57.5-.53.33,0,.47.07.71.07a75.24,75.24,0,0,1,4.29-7.81c.35-.46.68-.4.92,0a1.74,1.74,0,0,1,.2.9,5.4,5.4,0,0,1-.72,2.45l-2.36,4.29c1.39-.2,2.51-.49,3.72-.6a66.6,66.6,0,0,1,4.18-7.32c.4-.51.73-.45.95,0a2,2,0,0,1,.19.84,5.23,5.23,0,0,1-.85,2.55C208.68,86.47,208.2,87.33,207.71,88.21Z"></path><path class="cls-7" d="M218.38,81a3.56,3.56,0,0,1,2,3.54,11.3,11.3,0,0,1-1.4,5.06c-1.5,2.73-3.72,5-6.25,5a4.1,4.1,0,0,1-4.1-4.45c0-4.64,4.14-8.71,6.65-9.59a4,4,0,0,1,1.32-.22A2.42,2.42,0,0,1,218.38,81ZM217,88.83a11.35,11.35,0,0,0,1.5-5.15c0-1.06-.22-1.76-.68-1.94-1-.35-3.57,1.1-5.57,4.16a9.74,9.74,0,0,0-1.6,5.06c0,1.54.55,2.4,1.38,2.4C213.37,93.36,215.41,91.69,217,88.83Z"></path><path class="cls-7" d="M220.87,94.39a2.74,2.74,0,0,1-1.79-2.73,5.92,5.92,0,0,1,.16-1.32c.59-2.39,3.08-6.51,5.06-9.54.31-.45.66-.38.92,0a1.75,1.75,0,0,1,.29,1,4.82,4.82,0,0,1-.68,2.15c-1.06,2-3.17,5.24-3.77,7.53a5.67,5.67,0,0,0-.15,1c0,.73.33,1,.81,1,1.13,0,2.58-1.74,3.88-4.29,1.19-2.31,3.58-6.6,4.77-8.5.29-.46.64-.37.9,0a1.84,1.84,0,0,1,.22.9,4.62,4.62,0,0,1-.48,1.89,72.77,72.77,0,0,1-4.91,8.69,5,5,0,0,1-4,2.35A3.16,3.16,0,0,1,220.87,94.39Z"></path><path class="cls-7" d="M229.86,92.13a50.61,50.61,0,0,1,4.71-9.29,6.34,6.34,0,0,1-.94.09c-1.43,0-2.38-.51-2.62-1.36-.07-.29.11-.42.42-.42,1.91,0,5.43-.6,6.71-.6,1,0,1.93.27,2.26,1.19.11.27,0,.53-.48.49a13.5,13.5,0,0,0-3.41.28c0,.79-.62,2.07-1.56,3.72-1.15,2.07-2.73,5-4,7.88-.17.39-.44.42-.75.11a1.49,1.49,0,0,1-.46-1.21A3.41,3.41,0,0,1,229.86,92.13Z"></path></g></g><polygon id="Path" class="cls-8" points="254.15 128.77 251.1 130.13 246.18 118.78 239.91 124.86 239.92 100.13 257.91 116.87 249.24 117.43 254.15 128.77"></polygon><g id="_2_576-PTS" data-name="2,576-PTS" class="cls-6"><g class="cls-6"><path class="cls-7" d="M57,92.13V90c2-1.49,4.08-3.27,4.08-4.57,0-.65-.57-1.09-1.53-1.09A6.49,6.49,0,0,0,57,85l-.41-1.8a6.34,6.34,0,0,1,3.13-.83c2.17,0,3.77.82,3.77,2.65,0,2-2,3.59-3.85,5v0h4.06v2.1Z"></path><path class="cls-7" d="M64.3,93.81l.6-4h2.39l-1.31,4Z"></path><path class="cls-7" d="M68.28,88l.47-5.5h6l-.18,2.1H70.77l-.17,1.62c2.52.12,4.3.87,4.3,2.87,0,1.74-1.38,3.19-4,3.19A6.44,6.44,0,0,1,68,91.67l.12-2a5.82,5.82,0,0,0,2.64.65c1.32,0,1.69-.47,1.69-.94C72.48,88.5,71,88.18,68.28,88Z"></path><path class="cls-7" d="M76.52,92.13l2.9-7.34h-4.1l.27-2.24h6.56l.12.56-3.3,9Z"></path><path class="cls-7" d="M89.65,84.64l-.89,0c-2.07,0-3.09.86-3.52,1.92A4.38,4.38,0,0,1,87.3,86a2.82,2.82,0,0,1,3,2.89c0,2.06-1.71,3.43-4,3.43-2.44,0-3.88-1.58-3.88-4.1a5.82,5.82,0,0,1,5.89-5.88c.24,0,.45,0,.55,0ZM85,88.12c0,1.32.52,2.28,1.54,2.28a1.31,1.31,0,0,0,1.33-1.35c0-.81-.68-1.19-1.5-1.19A4.37,4.37,0,0,0,85,88.12Z"></path><path class="cls-7" d="M94.46,82.53h7.42a3.23,3.23,0,0,1,3.57,3.28,3.4,3.4,0,0,1-3.57,3.38h-5v2.94H94.46Zm2.39,2.16v2.46h4.68c1.18,0,1.44-.67,1.44-1.28s-.26-1.18-1.44-1.18Z"></path><path class="cls-7" d="M112.38,84.69v7.44H110V84.69h-4.44V82.53h11.4v2.16Z"></path><path class="cls-7" d="M117.26,85.46c0-2,2.21-3.12,5.26-3.12a12.46,12.46,0,0,1,4.86.75l-.46,2a11,11,0,0,0-4.48-.74c-2,0-2.81.29-2.81.79,0,1.77,8,.08,8,3.91,0,1.72-1.71,3.23-5.34,3.23a14.54,14.54,0,0,1-4.88-.61l.09-2.2a12.52,12.52,0,0,0,4.86.76c2.09,0,2.88-.37,2.88-.82C125.28,87.81,117.26,89.43,117.26,85.46Z"></path></g></g><path id="path64" class="cls-7" d="M35.08,96.13H28.25V84.05h3.43V94H35c2.27,0,3.23-1.55,3.23-5.54s-1.09-5.18-3.4-5.18H27.29V96.13h-3.4V83.27h-5V81.13h17c4.09,0,6,2.08,6,7.29,0,6.87-2.91,7.71-6.83,7.71"></path></g></g></g></g><circle id="Oval-3" data-name="Oval" class="cls-9" cx="27.16" cy="27.76" r="21"></circle><path class="cls-10" d="M20.67,33.77a.52.52,0,0,1,.15-.4l6.69-7.95a3.88,3.88,0,0,0,1.12-2.63,2,2,0,0,0-2.07-2.18c-1.29,0-2.08.78-2.24,2.24,0,.16-.12.25-.31.22l-3.08-.5a.28.28,0,0,1-.23-.34c.2-2.63,2.33-4.93,6-4.93s5.85,2.35,5.85,5.43a6.73,6.73,0,0,1-1.94,4.62l-5,5.91v.06h6.67a.26.26,0,0,1,.28.28v2.77a.26.26,0,0,1-.28.28H21a.27.27,0,0,1-.29-.28Z"></path></svg> 