<?xml version="1.0" encoding="UTF-8"?> <svg xmlns="http://www.w3.org/2000/svg" id="Layer_1" data-name="Layer 1" viewBox="0 0 274.47 123.71"><defs><style>.cls-1{fill:#7c7c7c;}</style></defs><g id="Marketing-Tools"><g id="Desktop-HD-Copy"><g id="RetailMeNot_logo" data-name="RetailMeNot logo"><path id="Path" class="cls-1" d="M255.92,73.56c-.74,0-1.42,1.55-2.85,1.55-2.57,0,0-6.39,1.85-6.39.71,0,.83.78.15,1.62-.36.43-.09,1,.72,1,3,0,3.61-4.7-.42-4.7-2.67,0-5.45,3-6.32,5.77-.83,1.13-1.82,2.34-2.51,2.34-1.47,0,1.75-3.59,1.75-6a1.91,1.91,0,0,0-2.08-2c-1.23,0-2.65.73-4.22,2.74.33-.87.65-1.73.78-2.11.26-.78-.17-.76-1.27-.56-.88.15-1.31.25-1.62.89-2,4.1-3.9,6.82-4.91,6.82-.76,0-.7-.73-.05-2.25S237.38,67,237.38,67a2.67,2.67,0,0,0-1.38-.25,2.41,2.41,0,0,0-2.49,1.27,49.42,49.42,0,0,0-2.11,5.1c-.84,2.55.18,4.17,1.95,4.17,1.92,0,3.44-1.87,4.78-4-.4,1.1-.88,2.41-1.07,3.06s.05.75.46.75a15.81,15.81,0,0,0,1.66-.09c.5,0,.65-.27.9-.91.39-1,.89-2.09,1.61-3.55,1.39-2.83,2.28-3.39,2.86-3.39s.79.45.34,1.38c-.86,1.77-2,3.2-2,4.71a2,2,0,0,0,2,2.12,5.29,5.29,0,0,0,4-2.32,3.43,3.43,0,0,0,3.39,2.35C255.9,77.46,257.22,73.56,255.92,73.56Z"></path><path id="Path-2" data-name="Path" class="cls-1" d="M235.23,63.22a1.54,1.54,0,0,0,1.5,2,2.69,2.69,0,0,0,2.45-2,1.54,1.54,0,0,0-1.5-2A2.68,2.68,0,0,0,235.23,63.22Z"></path><path id="Path-3" data-name="Path" class="cls-1" d="M259.38,73.39a2.68,2.68,0,0,0-2.45,2,1.54,1.54,0,0,0,1.5,2,2.68,2.68,0,0,0,2.45-2A1.54,1.54,0,0,0,259.38,73.39Z"></path><path id="Shape" class="cls-1" d="M42.77,58.82C44.9,53.11,46.84,47.64,48,44.46c4.63-.52,7,.88,7,4.29s-2.89,6.6-9,8.9ZM31.85,70.66c-2.7,5.46-4.37,7.77-6.49,8.09-1,.15-1.71-.29-1.71-1.68s1.64-7.13,10.43-11.64C33.19,67.67,32.41,69.53,31.85,70.66ZM57.7,79.48A7.84,7.84,0,0,1,53.25,78a10.37,10.37,0,0,1-2.87-4.54c-1.6-4.31-3.2-9.65-4-12.36,10.33-3.57,15.16-8.13,15.16-13.26,0-4.71-3.91-7.81-12.61-6.73-3.84.48-6.65,1-9.63,1.56C28.19,44.75,24,49.47,24,54.33c0,3.28,2.94,5.56,6.34,5.56,2.32,0,2.54-1.26,1.86-1.77C30.76,57.06,29.9,56,29.9,54.17c0-2.85,2.19-6.5,10.23-8.26l1.35-.29c-1.33,3.69-3.69,10.22-5.85,15.84-12.27,4.82-16.12,11.44-16.12,16,0,3.43,2.75,5.4,6,5.4,4.95,0,8.84-3.26,12-10.57,1.14-2.67,2.39-5.81,3.62-9,.79,2.85,2.24,7.84,3.79,11.85a14.29,14.29,0,0,0,2.92,5.18,8,8,0,0,0,5.79,2.16c2.78,0,4.46-.94,4.89-1.6S58.68,79.58,57.7,79.48Z"></path><path id="Shape-2" data-name="Shape" class="cls-1" d="M172,56.9c2.43,0,.54,6.38-5.79,6.58C167.8,60.07,170.4,56.9,172,56.9Zm.07,13.37c-.94,0-2.29,1.5-4.7,1.5-1.64,0-2.51-1-2.51-3.25a8.36,8.36,0,0,1,.2-1.73h.63c7.79,0,12.49-4.51,12.49-8.93a4.63,4.63,0,0,0-4.81-4.8c-5.85,0-12.86,6.93-14.06,14-1.66,2.88-3,3.94-3.92,3.89s-.89-1.38,0-3.93c1.35-3.87,3.29-9.1,5-13.12,3.37-8,5.48-12.41,5.77-13.34s-.22-1.07-1.16-.93c-3.39.49-5.29.34-6.73,2.75-2.27,3.78-12,19.06-12,19.06s2.89-18.85,3.34-20.8c.25-1-.32-1.37-1.22-1.11-1.1.33-2.06.53-3.52,1-1.28.42-1.57.86-2.45,2.91-.46,1.07-4.2,12.2-6.84,17.82-2.8,6-5,9.44-10.29,9.88-1.42.11-1.5.84-1.11,1.74a5.26,5.26,0,0,0,4.74,3c3.28,0,5.61-2.33,7.85-7.73,1.86-4.48,4.6-12.21,6.63-18-1.69,9-3.72,21.1-4,24.26-.17,1.86,2.32,1.91,3.33.09,2.64-4.78,8.3-14.52,13.4-23.36-2.08,5-4.52,10.93-5.66,14.26-.78,2.45-1.47,4.24-1.47,6.48A3.83,3.83,0,0,0,152.71,76c2,0,4.32-1,6.78-4.14.74,2.61,2.68,4.22,6,4.22,4.28,0,7.46-2.94,7.46-4.81C172.92,70.62,172.6,70.27,172.09,70.27Z"></path><path id="Path-4" data-name="Path" class="cls-1" d="M208.61,45.89c2.29-1.68,4-1.79,4.6-2.24.82-.69-.3-4.16-3.51-4.16-5.12,0-7.75,6.47-9.8,12.19-1.31,3.64-2.77,8.15-3.9,11.75,0,.06,0,0,0,0,.55-8,1.49-20.69,1.55-22.11,0-.74,0-1.13-.34-1.31a1.5,1.5,0,0,0-.68-.12c-.69,0-1.33,0-2,0h-8.87c-13,0-12.06,12.34-4,12.34,1.5,0,1.54-1.47.82-1.83-2.93-1.48-3.53-6.91,6.22-6.91h2.64A131.77,131.77,0,0,1,185,61.11c-3.09,6.69-4.84,9.19-9.66,10.44-1.39.37-1.29,1.15-.91,2.08.46,1.08,2.22,2.26,4.36,2.26,3.83,0,5.85-2.82,7.91-8.52,2-5.52,3.69-10.86,4.94-15,0,0,0,0,0,0s0,0,0,.08c-.34,8.92-.67,20.28-.73,22.35,0,1.57.57,1.57,1.78,1,2.47-1.08,3.3-1.45,4-3.49,2.08-6.38,4.07-11.74,6.41-17.72C204.48,50.83,206.7,47.29,208.61,45.89Z"></path><path id="Shape-3" data-name="Shape" class="cls-1" d="M208,71.36c-4,0,1.28-14.43,4.83-14.43C216.14,56.93,212.2,71.36,208,71.36Zm7.67-18.31c-10.59,0-15.79,12-15.79,17.13,0,3.66,2.39,5.93,6.41,5.93,8.86,0,13.94-11.79,13.94-17.22C220.25,55.22,218.5,53.05,215.69,53.05Z"></path><path id="Path-5" data-name="Path" class="cls-1" d="M242.94,47.33c-.84,0-3.83.08-8.36.24.73-1.78,1.33-3.23,1.72-4.21.29-.73.14-1.16-.63-1.16a15.42,15.42,0,0,0-3.34.63c-1.93.51-2.16.86-3.22,3.11-.23.47-.5,1.1-.8,1.86-4.4.17-9.56.38-15.23.63-2.22.1-5.32,2.88-2.64,2.88,5.33,0,11.09.2,16.37.36-.82,2.18-1.82,4.85-3,8-1.53,3.95-3.72,8.69-3.72,11.94a4.32,4.32,0,0,0,4.54,4.5c3.63,0,5.13-2.15,4.74-3.36-.22-.71-.87-.68-2.27-.68a1.24,1.24,0,0,1-1.31-1.41,12.07,12.07,0,0,1,1.13-3.86c2.05-5.35,4.19-10.65,6-15,1.47,0,2.87,0,4.14,0,3.13,0,4.36-.09,5.45-.93a9.2,9.2,0,0,0,1.87-1.75C244.83,48.53,245.07,47.33,242.94,47.33Z"></path><path id="Path-6" data-name="Path" class="cls-1" d="M113,53.05a4.47,4.47,0,0,0,4.09-3.39,2.57,2.57,0,0,0-2.5-3.39,4.49,4.49,0,0,0-4.09,3.39A2.57,2.57,0,0,0,113,53.05Z"></path><path id="Shape-4" data-name="Shape" class="cls-1" d="M87,71.45c-3.73,0,2.58-14,6.13-14a2,2,0,0,1,2,1.61C92.2,65.83,89.81,71.45,87,71.45ZM64.75,56.77c2.49,0,1,6.86-5.64,6.86H59C60.57,60,63.11,56.77,64.75,56.77ZM131.34,45c1.43,0-2.5,10.25-9.75,15.91C124.72,53.4,129.62,45,131.34,45ZM119.88,72.09c-.81-.14-1-.67-1-1.58a16.92,16.92,0,0,1,.87-4.48c13.37-6.19,22.11-25.19,12.16-25.19-6.6,0-14.87,14.58-17.5,24.42-1.48,2.35-4,5.9-5.71,5.9-1.37,0-1-1.79,0-4.43a123.5,123.5,0,0,1,5.63-12.53,7.79,7.79,0,0,0-4-.33,3.66,3.66,0,0,0-2.86,2.34,2.61,2.61,0,0,0-.29.49c-4.33,9.22-7,14.46-9.5,14.46-1.73,0-.74-1.89.24-4.53a123.5,123.5,0,0,1,5.63-12.53,7.72,7.72,0,0,0-4-.32,3.53,3.53,0,0,0-2.76,2.15,3.51,3.51,0,0,0-3.53-2.52c-6.42,0-11.25,8.2-12.6,14-1.32,2-3,4.17-4.34,4.17s-1.28-1.11-.26-3.74c1.63-4.2,4.78-11.48,7.3-17.19,6.3.14,12.28.27,15.67.27,3.15,0,4.38-.09,5.48-.93a9.36,9.36,0,0,0,1.89-1.73c.54-.68.78-1.87-1.37-1.87-1.17,0-9.81.28-20.09.67.77-1.73,1.4-3.12,1.76-3.93.22-.49-.13-1-.91-1a15.22,15.22,0,0,0-2.92.58c-2,.48-2.43,1-3.5,3.28-.15.31-.35.74-.59,1.27-4.1.16-8.26.33-12.16.51-2.24.09-4.78,2.54-2.08,2.54,3.37,0,8,.07,12.8.17-.84,1.91-1.78,4.09-2.58,6-.08.16-.18.35-.28.57-3.26,7.38-8.24,15.13-13.74,15.13a2.86,2.86,0,0,1-3-3.19A10.41,10.41,0,0,1,58,66.82l.71,0c7.85,0,12.49-4.79,12.49-9.2a4.55,4.55,0,0,0-4.76-4.49c-6.47,0-14.35,8.33-14.35,16.05,0,4.15,2.25,6.91,6.08,6.91,5.14,0,9.13-3.13,12-6.57a12.26,12.26,0,0,0-.24,2.27c0,2.41,1.39,4.18,3.67,4.18,2.57,0,4.79-1.55,6.86-4.23.42,2.68,2,4.23,4.3,4.23,2.72,0,5.07-2.06,6.93-4.5.1,2.24.91,4.5,3.87,4.5,2.12,0,4.28-1.12,6.86-4.69.07,2.34,1,4.79,3.85,4.79s5.13-1.91,7.33-4.86c.2,2.94,1.79,4.68,4.08,4.68s4.31-1.51,4.2-3.18C121.76,71.67,120.66,72.22,119.88,72.09Z"></path></g></g></g></svg> 