<?xml version="1.0" encoding="UTF-8"?> <svg xmlns="http://www.w3.org/2000/svg" id="Layer_1" data-name="Layer 1" viewBox="0 0 280.4 136.12"><defs><style>.cls-1{fill:#d8d8d8;stroke:#979797;}.cls-2,.cls-4{fill:#fff;}.cls-2,.cls-5{stroke:#0b0b0b;}.cls-3,.cls-7{fill:#222;}.cls-5{fill:#3bff80;}.cls-6{fill:none;stroke:#000;stroke-linecap:square;}.cls-7{fill-rule:evenodd;}.cls-8{isolation:isolate;}.cls-9{fill:#191919;}</style></defs><g id="Marketing-Tools"><g id="Desktop-HD-Copy"><g id="Group-15"><g id="Group-9"><circle id="Oval" class="cls-1" cx="30.45" cy="97.01" r="21.5"></circle><rect id="Rectangle" class="cls-2" x="2.95" y="70.51" width="256" height="48" rx="3"></rect><circle id="Oval-2" data-name="Oval" class="cls-3" cx="27.95" cy="94.51" r="19"></circle><g id="Uber_logo_2018-_1_" data-name="Uber_logo_2018-(1)"><path id="Path" class="cls-4" d="M16.44,95.94a2.06,2.06,0,0,0,.46.74,1.91,1.91,0,0,0,.68.48,2.28,2.28,0,0,0,.87.16,2,2,0,0,0,.85-.17,2,2,0,0,0,.7-.48,2.15,2.15,0,0,0,.46-.74,2.65,2.65,0,0,0,.16-1V89.51H22v8.85H20.64v-.82a3.17,3.17,0,0,1-1.05.72,3.26,3.26,0,0,1-1.29.25A3.41,3.41,0,0,1,17,98.26a2.93,2.93,0,0,1-1.06-.7,3.27,3.27,0,0,1-.71-1.09A3.82,3.82,0,0,1,15,95.05V89.51h1.33V95A2.74,2.74,0,0,0,16.44,95.94Z"></path><path id="Shape" class="cls-4" d="M24.24,89.51v3.22a3.35,3.35,0,0,1,1-.7,3.13,3.13,0,0,1,1.27-.26,3.38,3.38,0,0,1,1.34.27,3.64,3.64,0,0,1,1.08.72,3.47,3.47,0,0,1,.72,1.07A3.28,3.28,0,0,1,30,95.15a3.23,3.23,0,0,1-.27,1.31A3.55,3.55,0,0,1,29,97.52a3.3,3.3,0,0,1-1.08.72,3.38,3.38,0,0,1-1.34.27,3.18,3.18,0,0,1-1.28-.26,3.53,3.53,0,0,1-1-.7v.81H23V89.51ZM24.38,96a2.26,2.26,0,0,0,1.19,1.19,2.22,2.22,0,0,0,1.75,0,2.29,2.29,0,0,0,.7-.48A2.34,2.34,0,0,0,28.5,96a2.12,2.12,0,0,0,.18-.87,2.16,2.16,0,0,0-.18-.88,2.34,2.34,0,0,0-.48-.71,2,2,0,0,0-.7-.48,2.31,2.31,0,0,0-1.74,0,2.28,2.28,0,0,0-.71.48,2.34,2.34,0,0,0-.48.71,2.16,2.16,0,0,0-.18.88A2.29,2.29,0,0,0,24.38,96Z"></path><path id="Shape-2" data-name="Shape" class="cls-4" d="M31.22,93.66A3.51,3.51,0,0,1,32,92.55a3.22,3.22,0,0,1,1.12-.76,3.45,3.45,0,0,1,1.41-.28,3.72,3.72,0,0,1,1.38.26,3.19,3.19,0,0,1,1.09.74,3.28,3.28,0,0,1,.72,1.1A3.74,3.74,0,0,1,38,95v.44H32.33a2.55,2.55,0,0,0,.27.76,2.46,2.46,0,0,0,.51.6,2.38,2.38,0,0,0,.69.41,2.48,2.48,0,0,0,.82.14,2.4,2.4,0,0,0,2-1l1,.71a3.61,3.61,0,0,1-3,1.44,4,4,0,0,1-1.44-.26A3.7,3.7,0,0,1,32,97.51a3.53,3.53,0,0,1-.78-1.12,3.53,3.53,0,0,1,0-2.73Zm1.9-.52a2.22,2.22,0,0,0-.76,1.24h4.21a2.21,2.21,0,0,0-.75-1.24,2.17,2.17,0,0,0-2.7,0Z"></path><path id="Path-2" data-name="Path" class="cls-4" d="M40.5,93.27a2,2,0,0,0-.37,1.29v4H39v-7h1.17v.86a1.85,1.85,0,0,1,.57-.66,1.42,1.42,0,0,1,.85-.25H42v1.28h-.49A1.17,1.17,0,0,0,40.5,93.27Z"></path></g><rect id="Rectangle-2" data-name="Rectangle" class="cls-5" x="154.95" y="75.51" width="99" height="38" rx="3"></rect><line id="Line-3" class="cls-6" x1="265.45" y1="68.01" x2="277.45" y2="61.01"></line><line id="Line-3-2" data-name="Line-3" class="cls-6" x1="260.45" y1="64.01" x2="264.95" y2="57.51"></line><line id="Line-3-3" data-name="Line-3" class="cls-6" x1="265.45" y1="75.01" x2="273.7" y2="73.26"></line><polygon id="Path-3" data-name="Path" class="cls-7" points="252.2 132.16 249.15 133.51 244.23 122.16 237.95 128.24 237.96 103.51 255.95 120.25 247.28 120.81 252.2 132.16"></polygon><g id="CONFIRM" class="cls-8"><g class="cls-8"><path class="cls-9" d="M182.06,96.92a1.83,1.83,0,0,1,.15.73,4.63,4.63,0,0,1-2,3.15,4.91,4.91,0,0,1-2.84.9,4,4,0,0,1-1.93-.46,4.29,4.29,0,0,1-2-3.74c-.09-4.45,3.85-8.43,6.34-9.55a5,5,0,0,1,1.73-.38A2.27,2.27,0,0,1,183,88a3.41,3.41,0,0,1,1.32,2.38,2.73,2.73,0,0,1-.31,1.28,14.83,14.83,0,0,0-.83,2,.53.53,0,0,1-.86.33,1.64,1.64,0,0,1-.75-1.41,2.72,2.72,0,0,1,.14-.82,8.22,8.22,0,0,1,.37-1c.31-.77.57-1.47.31-1.76-.53-.57-3.66,1.35-5.48,4.29A9.39,9.39,0,0,0,175.5,98c0,1.89.84,2.73,1.63,2.73,1.21,0,2.77-1.41,4.05-3.85A.47.47,0,0,1,182.06,96.92Z"></path><path class="cls-9" d="M192.6,88.34a3.57,3.57,0,0,1,2,3.55A11.22,11.22,0,0,1,193.19,97c-1.49,2.72-3.72,5-6.25,5a4.25,4.25,0,0,1-1.47-.26,4.11,4.11,0,0,1-2.62-4.18c0-4.65,4.14-8.72,6.64-9.6a4,4,0,0,1,1.33-.22A2.44,2.44,0,0,1,192.6,88.34Zm-1.41,7.86a11.35,11.35,0,0,0,1.5-5.15c0-1.06-.22-1.76-.69-1.94-1-.35-3.56,1.1-5.56,4.16a9.67,9.67,0,0,0-1.61,5.06c0,1.54.55,2.4,1.39,2.4C187.58,100.73,189.63,99.06,191.19,96.2Z"></path><path class="cls-9" d="M197.61,98.09a49.6,49.6,0,0,1,.29-5,53.34,53.34,0,0,0-4.09,8.42c-.16.44-.49.47-.8.14a2.09,2.09,0,0,1-.41-1.24,4.41,4.41,0,0,1,.28-1.32,93.49,93.49,0,0,1,5.61-11c.29-.49.55-.49.88-.22a1.94,1.94,0,0,1,1,1.74,6.15,6.15,0,0,1-.11,1,62.33,62.33,0,0,0-.66,6.6,99,99,0,0,1,5.08-9.26c.33-.46.6-.35.84.07a1.87,1.87,0,0,1,.2.85,4.44,4.44,0,0,1-.82,2.4c-1.23,2-3.94,7.2-5.28,10.17-.13.26-.37.39-.75.19a2.18,2.18,0,0,1-1.16-2.06C197.63,99.06,197.61,98.62,197.61,98.09Z"></path><path class="cls-9" d="M202,99.19a60.56,60.56,0,0,1,4.8-9.15,1.71,1.71,0,0,1-.84-1.13c-.06-.28.07-.41.49-.41a19.14,19.14,0,0,0,3.28-.31,13.23,13.23,0,0,1,2-.22,1.91,1.91,0,0,1,2,1.19c.11.24,0,.48-.46.48a24.28,24.28,0,0,0-4.31.59c-.73,1.21-1.59,2.73-2.62,4.63a9.17,9.17,0,0,1,1-.11c1.26-.09,1.85.37,2.05,1.07.09.31,0,.51-.44.55a26.24,26.24,0,0,0-3.78.6c-.82,1.58-1.46,3-2.23,4.6a.47.47,0,0,1-.74.15,1.41,1.41,0,0,1-.51-1.19A4.9,4.9,0,0,1,202,99.19Z"></path><path class="cls-9" d="M215.32,88c.35-.51.68-.44.93,0a2,2,0,0,1,.2.88,5.83,5.83,0,0,1-.84,2.55c-1.34,2.38-3.79,6.67-5.3,10.06-.18.42-.4.48-.75.09a1.65,1.65,0,0,1-.4-1.17,4.73,4.73,0,0,1,.27-1.36A68.69,68.69,0,0,1,215.32,88Z"></path><path class="cls-9" d="M219.37,101.72c-1.36-1.8-2.42-3.21-3.3-4.2-.55,1.08-1.12,2.33-1.78,4-.16.42-.4.46-.73.13a1.63,1.63,0,0,1-.42-1.17,4.35,4.35,0,0,1,.16-1.1,43.43,43.43,0,0,1,4.42-8.93,1.65,1.65,0,0,1-1.3-.9c-.17-.31-.06-.49.4-.55a15.37,15.37,0,0,0,2.51-.64,10.11,10.11,0,0,1,2.42-.53,2.7,2.7,0,0,1,2.79,1.83,3.79,3.79,0,0,1-.68,3.85A10.85,10.85,0,0,1,218.07,97a17,17,0,0,1,2,2.81,2.55,2.55,0,0,1,.31,1.15,1.49,1.49,0,0,1-.22.74C219.88,102,219.63,102.07,219.37,101.72Zm.2-11.44a5.88,5.88,0,0,1-.84,2.42c-.59,1.1-1.14,2-1.54,2.71,4.4-1.13,6.56-4,6-5.48a.67.67,0,0,0-.71-.47,8.1,8.1,0,0,0-2,.53Z"></path><path class="cls-9" d="M225.42,99a54.52,54.52,0,0,1,1.54-5.9,63.79,63.79,0,0,0-4.86,8.54c-.13.3-.46.37-.75.08a1.51,1.51,0,0,1-.4-1.1,3.73,3.73,0,0,1,.31-1.38,74.49,74.49,0,0,1,6.67-11.07.65.65,0,0,1,1-.15,2.22,2.22,0,0,1,.9,1.78,6.08,6.08,0,0,1-.3,1.58c-.69,2-1.13,3.33-1.92,6.27,2.31-3.49,4.67-5.65,7.11-9.52.29-.47.57-.49,1-.09a2.17,2.17,0,0,1,.64,1.52,4.27,4.27,0,0,1-.53,1.8,85.75,85.75,0,0,0-4.78,10.28c-.15.44-.35.44-.7.13a1.62,1.62,0,0,1-.51-1.26A4.81,4.81,0,0,1,230,99.3v0a43.19,43.19,0,0,1,2.42-5.54,66.37,66.37,0,0,0-5.37,7.81c-.24.44-.44.44-.77.2a2.36,2.36,0,0,1-1-2A5.37,5.37,0,0,1,225.42,99Z"></path></g></g><g id="_25.25" data-name="$25.25" class="cls-8"><g class="cls-8"><path class="cls-9" d="M61,91.72A8.79,8.79,0,0,1,57.8,91l.12-2.56a8.44,8.44,0,0,0,3.12.85V87.07c-1.63-.46-3.46-1.13-3.46-3.35,0-2.07,1.46-3.3,3.46-3.58V79h1.82v1.14a8.67,8.67,0,0,1,3.07.81l-.53,2.38a7.34,7.34,0,0,0-2.54-.78v2.28c1.61.45,3.4,1.06,3.4,3.14a3.77,3.77,0,0,1-3.4,3.67v1.27H61Zm0-7.47V82.59a.87.87,0,0,0-.69.81C60.35,83.79,60.62,84,61,84.25Zm1.82,3.39v1.53a.84.84,0,0,0,.62-.78C63.48,88.05,63.24,87.83,62.86,87.64Z"></path><path class="cls-9" d="M67.35,91.51V89.06c2.29-1.74,4.76-3.83,4.76-5.34,0-.75-.65-1.27-1.77-1.27a7.48,7.48,0,0,0-2.93.7l-.48-2.1a7.36,7.36,0,0,1,3.66-1c2.53,0,4.4,1,4.4,3.1,0,2.31-2.31,4.18-4.5,5.84v0h4.75v2.45Z"></path><path class="cls-9" d="M76.41,86.72,77,80.3h7l-.21,2.46h-4.4l-.2,1.89c3,.14,5,1,5,3.34,0,2-1.61,3.73-4.72,3.73a7.57,7.57,0,0,1-3.3-.74l.14-2.33a6.87,6.87,0,0,0,3.08.76c1.54,0,2-.55,2-1.09C81.31,87.27,79.58,86.9,76.41,86.72Z"></path><path class="cls-9" d="M85.26,88.72h2.93v2.79H85.26Z"></path><path class="cls-9" d="M89.61,91.51V89.06c2.29-1.74,4.76-3.83,4.76-5.34,0-.75-.65-1.27-1.77-1.27a7.48,7.48,0,0,0-2.93.7l-.48-2.1a7.36,7.36,0,0,1,3.66-1c2.53,0,4.4,1,4.4,3.1,0,2.31-2.31,4.18-4.5,5.84v0H97.5v2.45Z"></path><path class="cls-9" d="M98.67,86.72l.55-6.42h7L106,82.76h-4.4l-.2,1.89c2.95.14,5,1,5,3.34,0,2-1.61,3.73-4.72,3.73a7.57,7.57,0,0,1-3.3-.74l.14-2.33a6.87,6.87,0,0,0,3.08.76c1.54,0,2-.55,2-1.09C103.57,87.27,101.84,86.9,98.67,86.72Z"></path></g></g><g id="GIFT-CARD" class="cls-8"><g class="cls-8"><path class="cls-9" d="M63.6,104.83a5.38,5.38,0,0,0-.78,0c.28,1.3-1.42,2.55-2.13,2.74a3.72,3.72,0,0,1-1,.16,2.19,2.19,0,0,1-1.4-.45,2.48,2.48,0,0,1-1-2.19c0-3,2.84-5.63,4.43-6.17a2.9,2.9,0,0,1,1-.17,1.67,1.67,0,0,1,1,.27,1.93,1.93,0,0,1,.86,1.52,2.11,2.11,0,0,1-.18.76c-.16.36-.38.91-.54,1.32-.07.18-.24.32-.5.11a1.14,1.14,0,0,1-.51-.93,1.6,1.6,0,0,1,.13-.6c.39-1,.53-1.4.38-1.55-.41-.42-2.51.78-3.77,2.7a6,6,0,0,0-1,3.22c0,1.08.35,1.44.8,1.44a3.36,3.36,0,0,0,2.4-2c-.37.07-.7.11-1,.14a1.44,1.44,0,0,1-1.47-.7c-.09-.21,0-.35.26-.35a9.67,9.67,0,0,0,1.64-.21,9.5,9.5,0,0,1,1.33-.15,1.33,1.33,0,0,1,1.39.75C64,104.72,64,104.86,63.6,104.83Z"></path><path class="cls-9" d="M67.23,98.91c.22-.32.43-.28.59,0a1.29,1.29,0,0,1,.12.56,3.77,3.77,0,0,1-.53,1.63c-.85,1.51-2.41,4.24-3.38,6.4-.11.27-.25.31-.47.06a1.06,1.06,0,0,1-.25-.75,3,3,0,0,1,.16-.86A43.46,43.46,0,0,1,67.23,98.91Z"></path><path class="cls-9" d="M65.61,106a39.72,39.72,0,0,1,3.06-5.83,1.05,1.05,0,0,1-.53-.71c0-.18,0-.27.31-.27A11.89,11.89,0,0,0,70.53,99a7.61,7.61,0,0,1,1.29-.14,1.22,1.22,0,0,1,1.26.75c.07.16,0,.31-.29.31a15.44,15.44,0,0,0-2.75.38c-.46.77-1,1.74-1.67,2.94a6.55,6.55,0,0,1,.68-.07c.8-.06,1.17.24,1.3.69.06.19,0,.32-.28.35a16.69,16.69,0,0,0-2.41.37c-.52,1-.92,1.88-1.41,2.93a.31.31,0,0,1-.48.1.89.89,0,0,1-.32-.76A3,3,0,0,1,65.61,106Z"></path><path class="cls-9" d="M71.22,106.24a32.07,32.07,0,0,1,3-5.92,4.2,4.2,0,0,1-.6.06c-.91,0-1.51-.32-1.67-.87,0-.18.07-.26.27-.26,1.22,0,3.46-.38,4.27-.38.65,0,1.24.17,1.45.75.06.17,0,.34-.31.31a8.9,8.9,0,0,0-2.17.18,6,6,0,0,1-1,2.37c-.73,1.32-1.74,3.18-2.55,5-.11.25-.28.26-.47.07a1,1,0,0,1-.3-.77A1.87,1.87,0,0,1,71.22,106.24Z"></path><path class="cls-9" d="M84.49,104.6a1.13,1.13,0,0,1,.1.46,3,3,0,0,1-1.26,2,3.11,3.11,0,0,1-1.81.58,2.46,2.46,0,0,1-1.23-.3A2.74,2.74,0,0,1,79,105c-.06-2.83,2.45-5.36,4-6.08a3.26,3.26,0,0,1,1.11-.24,1.4,1.4,0,0,1,.91.3,2.15,2.15,0,0,1,.84,1.51,1.82,1.82,0,0,1-.2.81,12.28,12.28,0,0,0-.53,1.26.34.34,0,0,1-.55.21,1,1,0,0,1-.47-.89,1.93,1.93,0,0,1,.08-.52c.06-.21.16-.44.24-.65.2-.49.37-.93.2-1.12-.34-.36-2.33.86-3.49,2.74a5.9,5.9,0,0,0-.88,3c0,1.2.53,1.74,1,1.74.77,0,1.77-.9,2.58-2.46A.3.3,0,0,1,84.49,104.6Z"></path><path class="cls-9" d="M88.69,106.31a8.21,8.21,0,0,1,0-.94l-1,.1a12.53,12.53,0,0,1-1.5.09c-.38.66-.68,1.36-1,1.94-.17.29-.4.23-.5,0a1,1,0,0,1-.17-.52,2.55,2.55,0,0,1,.23-1,8,8,0,0,1,.33-.75,1.3,1.3,0,0,1-.42-.46c-.11-.26-.06-.35.31-.29l.5.05A26,26,0,0,1,90,98.84c.31-.25.52-.24.73,0a2.29,2.29,0,0,1,.32.58,1.21,1.21,0,0,1,.11.49,1.63,1.63,0,0,1-.11.57,32.29,32.29,0,0,0-1,3.94,1,1,0,0,1,.61.73c.07.22,0,.28-.28.23l-.49-.08c-.08.7-.15,1.41-.18,2.1,0,.25-.18.31-.43.2S88.7,107.12,88.69,106.31Zm1-5.54a39.44,39.44,0,0,0-2.79,3.8l.83-.1c.48-.06.78-.11,1.16-.13A22.38,22.38,0,0,1,89.67,100.77Z"></path><path class="cls-9" d="M94.3,107.65c-.87-1.15-1.54-2-2.1-2.67-.35.68-.71,1.48-1.13,2.52-.1.26-.25.29-.46.08a1,1,0,0,1-.27-.74,2.68,2.68,0,0,1,.1-.7,27.71,27.71,0,0,1,2.81-5.69,1,1,0,0,1-.82-.57c-.12-.2-.05-.31.25-.35a10.13,10.13,0,0,0,1.6-.41,6.18,6.18,0,0,1,1.54-.34A1.72,1.72,0,0,1,97.59,100a2.41,2.41,0,0,1-.43,2.45,6.92,6.92,0,0,1-3.68,2.21,10.79,10.79,0,0,1,1.24,1.79,1.61,1.61,0,0,1,.2.73,1,1,0,0,1-.14.48C94.63,107.85,94.47,107.87,94.3,107.65Zm.13-7.28a3.88,3.88,0,0,1-.53,1.54c-.38.7-.73,1.29-1,1.72,2.8-.71,4.17-2.56,3.81-3.49a.43.43,0,0,0-.45-.29,5.16,5.16,0,0,0-1.3.33Z"></path><path class="cls-9" d="M96.28,105.37a24.59,24.59,0,0,1,2.47-4.78,1.06,1.06,0,0,1-.84-.62c-.07-.21,0-.32.26-.36a4.69,4.69,0,0,0,1.3-.42,5.56,5.56,0,0,1,1.27-.41A2.1,2.1,0,0,1,103,100a3,3,0,0,1,.32,1.4c0,2.26-2.23,5.16-5.31,6.19a1.34,1.34,0,0,1-.46.09c-.45,0-.72-.24-1.07-.69a1.31,1.31,0,0,1-.36-.76A3,3,0,0,1,96.28,105.37Zm3.57-4.93a2.5,2.5,0,0,1-.4,1.44,21.93,21.93,0,0,0-2.19,4.31,1.32,1.32,0,0,0-.07.41c0,.13.07.15.21.1,3.09-1.18,4.81-4.11,4.81-5.77a1.47,1.47,0,0,0-.16-.77.61.61,0,0,0-.52-.31A6.88,6.88,0,0,0,99.85,100.44Z"></path></g></g></g></g></g></g><g id="Marketing-Tools-2" data-name="Marketing-Tools"><g id="Desktop-HD-Copy-2" data-name="Desktop-HD-Copy"><g id="Group-3"><circle id="Oval-3" data-name="Oval" class="cls-3" cx="25.53" cy="28.71" r="21"></circle></g></g></g><path class="cls-4" d="M23.53,22.46h-.06l-3,2.08c-.17.11-.31.05-.31-.17V20.9a.47.47,0,0,1,.19-.4l3.2-2.29A.78.78,0,0,1,24,18h3.14a.27.27,0,0,1,.28.28V36.8a.27.27,0,0,1-.28.28H23.81a.26.26,0,0,1-.28-.28Z"></path></svg> 