<?xml version="1.0" encoding="UTF-8"?> <svg xmlns="http://www.w3.org/2000/svg" id="Layer_1" data-name="Layer 1" viewBox="0 0 280.4 136.12"><defs><style>.cls-1,.cls-8{fill:#fff;}.cls-1,.cls-2{stroke:#0b0b0b;}.cls-2{fill:#ffb0bb;}.cls-3,.cls-7{fill:#222;}.cls-3{fill-rule:evenodd;}.cls-4{isolation:isolate;}.cls-5{fill:#191919;}.cls-6{fill:none;stroke:#000;stroke-linecap:square;}</style></defs><g id="Marketing-Tools"><g id="Desktop-HD-Copy"><g id="Group-7"><rect id="Rectangle" class="cls-1" x="3.45" y="69.87" width="256" height="48" rx="3"></rect><rect id="Rectangle-2" data-name="Rectangle" class="cls-2" x="166.45" y="74.87" width="88" height="38" rx="3"></rect><polygon id="Path" class="cls-3" points="250.7 131.52 247.65 132.87 242.73 121.53 236.45 127.61 236.46 102.87 254.45 119.61 245.78 120.17 250.7 131.52"></polygon><g id="REDEEM" class="cls-4"><g class="cls-4"><path class="cls-5" d="M190,100.08c-1.37-1.81-2.42-3.22-3.3-4.21-.55,1.08-1.13,2.34-1.79,4-.15.42-.39.47-.72.14a1.65,1.65,0,0,1-.42-1.17,4.24,4.24,0,0,1,.15-1.1,43.3,43.3,0,0,1,4.43-8.93,1.64,1.64,0,0,1-1.3-.91c-.18-.3-.07-.48.39-.55a15.11,15.11,0,0,0,2.51-.63,9.41,9.41,0,0,1,2.42-.53,2.7,2.7,0,0,1,2.8,1.82,3.78,3.78,0,0,1-.69,3.85,10.82,10.82,0,0,1-5.78,3.48,17.08,17.08,0,0,1,2,2.82,2.62,2.62,0,0,1,.3,1.14,1.4,1.4,0,0,1-.22.75C190.49,100.38,190.25,100.43,190,100.08Zm.19-11.45a5.84,5.84,0,0,1-.83,2.42c-.6,1.1-1.15,2-1.54,2.71,4.4-1.12,6.55-4,6-5.48a.66.66,0,0,0-.7-.46,8.17,8.17,0,0,0-2.05.53Z"></path><path class="cls-5" d="M192.47,97.83a59.54,59.54,0,0,1,4.93-9.42,1.85,1.85,0,0,1-.88-1.1c-.07-.3.18-.44.51-.44a21.68,21.68,0,0,0,3.43-.3,14.09,14.09,0,0,1,1.93-.22,1.67,1.67,0,0,1,1.85,1.14c.09.24-.06.44-.48.44a18.05,18.05,0,0,0-3.32.42c-.33.06-.55.11-.88.15-.73,1.1-1.74,2.93-2.78,4.8.47-.07.84-.09,1.15-.11,1.21,0,1.78.35,2,1.06.11.28.07.5-.44.5a16.91,16.91,0,0,0-3.8.57c-.62,1.17-1.08,2.07-1.52,3.06a20.16,20.16,0,0,1,3-.53c1.19,0,1.8.31,2.07,1,.11.31,0,.48-.42.48a23,23,0,0,0-4.73.88c-.53.16-.88.16-1.17-.26-.15-.22-.3-.58-.55-1S192.25,98.45,192.47,97.83Z"></path><path class="cls-5" d="M200.9,96.49a39.16,39.16,0,0,1,3.89-7.5,1.63,1.63,0,0,1-1.32-1c-.11-.33-.06-.51.4-.57a7.48,7.48,0,0,0,2-.66,8,8,0,0,1,2-.64c1.49-.24,2.57.46,3.47,2a4.64,4.64,0,0,1,.51,2.2c0,3.54-3.5,8.09-8.34,9.72a2.12,2.12,0,0,1-.73.13c-.7,0-1.12-.37-1.67-1.08a2,2,0,0,1-.57-1.18A4.76,4.76,0,0,1,200.9,96.49Zm5.61-7.75a4,4,0,0,1-.62,2.27,35,35,0,0,0-3.45,6.78,2.15,2.15,0,0,0-.11.63c0,.2.11.25.33.16,4.86-1.85,7.57-6.45,7.57-9.07A2.28,2.28,0,0,0,210,88.3a1,1,0,0,0-.81-.48A11.53,11.53,0,0,0,206.51,88.74Z"></path><path class="cls-5" d="M210,97.83a59.54,59.54,0,0,1,4.93-9.42,1.85,1.85,0,0,1-.88-1.1c-.07-.3.18-.44.51-.44a21.68,21.68,0,0,0,3.43-.3,14.09,14.09,0,0,1,1.93-.22,1.67,1.67,0,0,1,1.85,1.14c.09.24-.06.44-.48.44a18.05,18.05,0,0,0-3.32.42c-.33.06-.55.11-.88.15-.73,1.1-1.74,2.93-2.78,4.8.47-.07.84-.09,1.15-.11,1.21,0,1.78.35,2,1.06.11.28.07.5-.44.5a16.91,16.91,0,0,0-3.8.57c-.62,1.17-1.08,2.07-1.52,3.06a20.16,20.16,0,0,1,3-.53c1.19,0,1.8.31,2.07,1,.11.31,0,.48-.42.48a23,23,0,0,0-4.73.88c-.53.16-.88.16-1.17-.26-.15-.22-.31-.58-.55-1S209.74,98.45,210,97.83Z"></path><path class="cls-5" d="M217.55,97.83a59.54,59.54,0,0,1,4.93-9.42,1.85,1.85,0,0,1-.88-1.1c-.07-.3.18-.44.51-.44a21.68,21.68,0,0,0,3.43-.3,14.09,14.09,0,0,1,1.93-.22,1.67,1.67,0,0,1,1.85,1.14c.09.24-.06.44-.48.44a18.05,18.05,0,0,0-3.32.42c-.33.06-.55.11-.88.15-.73,1.1-1.74,2.93-2.78,4.8.47-.07.84-.09,1.15-.11,1.21,0,1.78.35,2,1.06.11.28.07.5-.44.5a16.91,16.91,0,0,0-3.8.57c-.62,1.17-1.08,2.07-1.52,3.06a20.16,20.16,0,0,1,3-.53c1.19,0,1.8.31,2.07,1,.11.31,0,.48-.42.48a23,23,0,0,0-4.73.88c-.53.16-.88.16-1.17-.26-.15-.22-.3-.58-.55-1S217.33,98.45,217.55,97.83Z"></path><path class="cls-5" d="M229.15,97.39a54.52,54.52,0,0,1,1.54-5.9,63.88,63.88,0,0,0-4.87,8.54c-.13.31-.46.38-.75.09a1.53,1.53,0,0,1-.39-1.1,3.78,3.78,0,0,1,.31-1.39,74.29,74.29,0,0,1,6.66-11.06.66.66,0,0,1,1-.16,2.28,2.28,0,0,1,.9,1.78,5.75,5.75,0,0,1-.31,1.59c-.68,2-1.12,3.32-1.91,6.27,2.31-3.5,4.66-5.66,7.1-9.53.29-.46.58-.48,1-.09A2.19,2.19,0,0,1,240.1,88a4.31,4.31,0,0,1-.53,1.81A86.39,86.39,0,0,0,234.8,100c-.15.44-.35.44-.7.13a1.56,1.56,0,0,1-.51-1.25,4.42,4.42,0,0,1,.18-1.25v0a41.23,41.23,0,0,1,2.42-5.55,66.82,66.82,0,0,0-5.37,7.81c-.24.44-.44.44-.77.2a2.32,2.32,0,0,1-1-2A4.4,4.4,0,0,1,229.15,97.39Z"></path></g></g><g id="DISCOUNT1" class="cls-4"><g class="cls-4"><path class="cls-5" d="M18.86,89.26H25.5c3,0,5.13,2,5.13,4.8a4.87,4.87,0,0,1-5.13,4.8H18.86Zm2.4,2.16V96.7H25.5a2.64,2.64,0,1,0,0-5.28Z"></path><path class="cls-5" d="M31.74,89.26h2.4v9.6h-2.4Z"></path><path class="cls-5" d="M35.34,92.19c0-2,2.22-3.12,5.27-3.12a12.59,12.59,0,0,1,4.85.74l-.45,2a11.31,11.31,0,0,0-4.49-.73c-2,0-2.81.29-2.81.79,0,1.76,8,.07,8,3.91,0,1.72-1.7,3.23-5.34,3.23a14.84,14.84,0,0,1-4.88-.61l.1-2.2a12.45,12.45,0,0,0,4.86.76c2.08,0,2.87-.38,2.87-.82C43.36,94.54,35.34,96.16,35.34,92.19Z"></path><path class="cls-5" d="M57.25,98.54a13.62,13.62,0,0,1-3.93.51c-4.58,0-6.81-2.07-6.81-5s2.34-5,7-5a20.85,20.85,0,0,1,3.86.34l-.23,2.11a21,21,0,0,0-3.74-.37C50.23,91.16,49,92.27,49,94s1.37,3,4.31,3a17.3,17.3,0,0,0,4-.47Z"></path><path class="cls-5" d="M64.29,89.07c3.78,0,6.46,1.7,6.46,4.94s-2.87,5-6.47,5-6.49-1.69-6.49-5C57.79,90.88,60.43,89.07,64.29,89.07Zm0,8c2.36,0,4-1,4-3.07,0-1.92-1.65-2.88-4-2.88s-4,.94-4,3S61.92,97,64.26,97Z"></path><path class="cls-5" d="M84.11,89.26v5c0,2.65-2.5,4.8-6.11,4.8s-6.24-1.57-6.24-4.8v-5h2.4v5c0,1.71,1.49,2.66,3.84,2.66s3.71-1.27,3.71-2.66v-5Z"></path><path class="cls-5" d="M88.71,92.13h-.6v6.73H85.72v-9.6h3.37l6.34,6.06H96V89.26h2.4v9.6h-2.9Z"></path><path class="cls-5" d="M106.12,91.42v7.44h-2.39V91.42H99.29V89.26h11.39v2.16Z"></path><path class="cls-5" d="M111.19,98.86v-2.1h2.13v-5l-2.13.3V89.86l4.13-.79h.39v7.69h2v2.1Z"></path></g></g><line id="Line-3" class="cls-6" x1="264.95" y1="68.37" x2="276.95" y2="61.37"></line><line id="Line-3-2" data-name="Line-3" class="cls-6" x1="259.95" y1="64.37" x2="264.45" y2="57.87"></line><line id="Line-3-3" data-name="Line-3" class="cls-6" x1="264.95" y1="75.37" x2="273.2" y2="73.62"></line></g></g></g><g id="Marketing-Tools-2" data-name="Marketing-Tools"><g id="Desktop-HD-Copy-2" data-name="Desktop-HD-Copy"><g id="Group-3"><circle id="Oval" class="cls-7" cx="28.33" cy="28.49" r="21"></circle></g></g></g><path class="cls-8" d="M26.33,22.24h-.06l-3,2.07c-.17.11-.31.06-.31-.17V20.67a.44.44,0,0,1,.19-.39l3.2-2.3a.78.78,0,0,1,.5-.17H30a.27.27,0,0,1,.28.28V36.57a.27.27,0,0,1-.28.28H26.61a.26.26,0,0,1-.28-.28Z"></path></svg> 