<?xml version="1.0" encoding="UTF-8"?> <svg xmlns="http://www.w3.org/2000/svg" xmlns:xlink="http://www.w3.org/1999/xlink" width="165px" height="93px" viewBox="0 0 165 93"><title>DD</title><g id="Marketing-Tools" stroke="none" stroke-width="1" fill="none" fill-rule="evenodd"><g id="Desktop-HD-Copy" transform="translate(-1112.000000, -809.000000)" fill="#FF3008"><g id="DD" transform="translate(1101.000000, 799.000000)"><g id="DoorDash_Logo-(2)" transform="translate(11.716535, 10.197531)"><path d="M3.91625197,77.317679 L3.91625197,88.7753333 L6.78826772,88.7753333 C8.26906952,88.7534616 9.67797378,88.1365623 10.6942677,87.0650617 C11.7267516,85.9777814 12.2916628,84.5324927 12.2686772,83.037037 C12.3128959,81.5367973 11.7541986,80.080888 10.7162362,78.9915309 C9.6952754,77.9180812 8.27385555,77.3118347 6.78826772,77.3161986 L3.91771654,77.3161986 L3.91625197,77.317679 Z M6.78826772,73.7252346 C12.1412598,73.7252346 16.1907874,77.8508642 16.1907874,83.037037 C16.1907874,88.2232099 12.1412598,92.3721481 6.78826772,92.3721481 L0.454015748,92.3721481 C0.332046416,92.3706125 0.215687079,92.3209398 0.130540492,92.2340597 C0.0453939043,92.1471796 -0.00156364433,92.0302103 -3.78358453e-05,91.9088889 L-3.78358453e-05,74.2074321 C-3.78358453e-05,73.951037 0.203574803,73.742716 0.454015748,73.742716 L6.78826772,73.7252346 L6.78826772,73.7252346 Z M29.9884724,89.1745205 C32.4196535,89.1817778 34.6150394,87.6943951 35.5508976,85.4057778 C36.4874852,83.1212985 35.9835327,80.5024429 34.2650079,78.7234815 C32.5731485,76.9701802 29.9696412,76.4360219 27.7183937,77.380321 C25.471748,78.324321 24.004252,80.5575802 23.9998583,83.037037 C23.9998583,86.4167901 26.6770866,89.1584691 29.989937,89.1745205 M29.989937,73.3027654 C35.624126,73.3027654 39.9314173,77.7197531 39.9314173,83.037037 C39.9314173,88.354321 35.624126,92.7713086 29.9884724,92.7713086 C24.3542835,92.7713086 20.0836063,88.3761728 20.0836063,83.037037 C20.0836063,77.6979012 24.3908976,73.3027654 29.9884724,73.3027654 M53.6177953,89.1744938 C56.9321102,89.1657531 59.6137323,86.4211605 59.6108055,83.0414074 C59.6064094,79.6587407 56.9189291,76.9199753 53.6060787,76.9185185 C50.2902992,76.9185185 47.6013543,79.6558272 47.5969606,83.037037 C47.5969606,84.6657284 48.2311181,86.2274074 49.3602992,87.3782716 C50.4769166,88.5241195 52.0120081,89.1719919 53.6163307,89.1744938 M53.6163307,73.3027654 C59.2329449,73.3027654 63.5402362,77.6979012 63.5402362,83.037037 C63.5402362,88.3761728 59.2153701,92.7713086 53.6163307,92.7713086 C48.0187559,92.7713086 43.6748504,88.3761728 43.6748504,83.037037 C43.6748504,77.6979012 47.9821417,73.3027654 53.6163307,73.3027654 M76.6774016,77.317679 L72.627874,77.317679 L72.627874,82.2489136 L76.6774016,82.2489136 C77.3241134,82.2774328 77.9538754,82.0385714 78.4173071,81.5889877 C78.8859685,81.1373827 79.1525197,80.510963 79.158378,79.8524938 C79.1822257,79.1774797 78.9283551,78.5219735 78.4553858,78.0373333 C77.9907494,77.5600282 77.3449831,77.3002361 76.6774016,77.3220494 L76.6774016,77.317679 L76.6774016,77.317679 Z M68.7101575,74.2074321 C68.7101575,73.951037 68.9151969,73.742716 69.1656378,73.742716 L76.7901732,73.742716 C80.4252283,73.742716 83.0555906,76.4596296 83.0555906,79.8714321 C83.0834173,82.1789877 81.8165669,84.2986173 79.794,85.3314815 L83.3104252,91.6728889 C83.4096305,91.8215125 83.4164245,92.0129869 83.328,92.1681975 C83.2415184,92.3212057 83.0732791,92.4100015 82.8974173,92.3954568 L79.8115748,92.3954568 C79.6369085,92.3979201 79.4763119,92.3004877 79.3985669,92.1448889 L76.0095591,85.869037 L72.6132283,85.869037 L72.6132283,91.894321 C72.6151845,92.0158929 72.5684011,92.1332374 72.4832123,92.2204339 C72.3980235,92.3076305 72.2814394,92.3575037 72.1592126,92.359037 L69.1861417,92.359037 C69.0639149,92.3575037 68.9473308,92.3076305 68.862142,92.2204339 C68.7769532,92.1332374 68.7301698,92.0158929 68.732126,91.894321 L68.711622,74.2088889 L68.7101575,74.2074321 Z M93.2665512,77.4050864 L93.2665512,88.8641975 L96.1371024,88.8641975 C97.6175488,88.8442376 99.0269261,88.2294642 100.044567,87.1597531 C101.07754,86.0737435 101.643491,84.6295289 101.621906,83.134642 C101.669271,81.6325248 101.112047,80.1737111 100.073858,79.0818519 C99.0511526,78.006553 97.626697,77.4001423 96.1385669,77.4065432 L93.2665512,77.4050864 L93.2665512,77.4050864 Z M96.1371024,73.8082716 C101.490094,73.8082716 105.539622,77.9382716 105.539622,83.134642 C105.539622,88.3310123 101.490094,92.4610123 96.1371024,92.4610123 L89.8218898,92.4610123 C89.699663,92.459479 89.5830789,92.4096058 89.49789,92.3224092 C89.4127012,92.2352127 89.3659179,92.1178682 89.367815,91.9962963 L89.367815,74.2962963 C89.367815,74.0384444 89.5714488,73.8301235 89.8218898,73.8301235 L96.1385669,73.8082716 L96.1371024,73.8082716 Z M117.48463,78.3651111 L115.262882,84.4923704 L119.701984,84.4923704 L117.48463,78.3651111 L117.48463,78.3651111 Z M113.959417,87.9551605 L112.505102,92.0341728 C112.445094,92.231594 112.258245,92.3634928 112.051087,92.3546667 L108.896409,92.3546667 C108.732767,92.3698364 108.573843,92.2949854 108.481937,92.1594568 C108.388192,92.02255 108.373196,91.8468657 108.442394,91.6961975 L115.258488,74.0122222 C115.323828,73.8205847 115.509351,73.6955752 115.712504,73.7062963 L119.24211,73.7062963 C119.445792,73.6949028 119.632105,73.8200404 119.697591,74.0122222 L126.513685,91.6961975 C126.582454,91.8471161 126.566902,92.0228136 126.472677,92.1594568 C126.380415,92.2944324 126.221556,92.3686941 126.058205,92.3532099 L122.904992,92.3532099 C122.697834,92.362036 122.510984,92.2301372 122.450976,92.032716 L120.996661,87.9537037 L113.959417,87.9537037 L113.959417,87.9551605 Z M130.170709,78.7628148 C130.170709,75.8346667 132.651685,73.3027654 136.569402,73.3027654 C138.679128,73.2559037 140.721866,74.0409048 142.251921,75.4864938 C142.346157,75.5751008 142.399554,75.698396 142.399554,75.8273827 C142.399554,75.9563694 142.346157,76.0796646 142.251921,76.1682716 L140.504693,77.9382716 C140.420254,78.0251502 140.303973,78.0742082 140.182488,78.0742082 C140.061003,78.0742082 139.944723,78.0251502 139.860283,77.9382716 C139.037307,77.1710114 137.956449,76.7362897 136.82863,76.7189383 C135.261543,76.7189383 134.103071,77.6469136 134.103071,78.7176543 C134.103071,82.1789877 143.363528,80.1817284 143.363528,86.8421728 C143.359134,90.2175556 140.859118,92.7713086 136.439055,92.7713086 C133.959134,92.7965737 131.575045,91.8198246 129.832394,90.0645926 C129.738158,89.9759856 129.684761,89.8526904 129.684761,89.7237037 C129.684761,89.594717 129.738158,89.4714218 129.832394,89.3828148 L131.522504,87.6579753 C131.60758,87.5668129 131.726981,87.5150112 131.852031,87.5150112 C131.977082,87.5150112 132.096483,87.5668129 132.181559,87.6579753 C133.245315,88.7067497 134.677765,89.3023937 136.175433,89.318716 C138.133559,89.318716 139.423843,88.2523457 139.423843,86.9164691 C139.423843,83.453679 130.16778,85.4523951 130.16778,78.7904938 M160.156252,74.1841235 L160.156252,81.1825432 L152.31789,81.1825432 L152.31789,74.1841235 C152.319453,74.062802 152.272496,73.9458328 152.187349,73.8589526 C152.102203,73.7720725 151.985843,73.7223999 151.863874,73.7208642 L148.890803,73.7208642 C148.768834,73.7223999 148.652474,73.7720725 148.567328,73.8589526 C148.482181,73.9458328 148.435224,74.062802 148.43675,74.1841235 L148.43675,91.8651852 C148.43675,92.1215802 148.641827,92.3299012 148.890803,92.3299012 L151.863874,92.3299012 C152.11285,92.3299012 152.31789,92.1215802 152.31789,91.8651852 L152.31789,84.7560494 L160.150394,84.7560494 L160.150394,91.8651852 C160.150394,92.1215802 160.355433,92.3299012 160.604409,92.3299012 L163.57748,92.3299012 C163.827921,92.3299012 164.031534,92.1215802 164.031534,91.8651852 L164.031534,74.1841235 C164.03306,74.062802 163.986102,73.9458328 163.900956,73.8589526 C163.815809,73.7720725 163.69945,73.7223999 163.57748,73.7208642 L160.604409,73.7208642 C160.352721,73.7272233 160.152964,73.9337125 160.156252,74.1841235 Z M120.465755,13.7911466 C115.866455,5.27173792 106.867113,-0.0324916206 97.0805338,-1.01581368e-13 L23.03441,-1.01581368e-13 C22.0121547,0.00429620893 21.0913523,0.618568763 20.6955612,1.56040931 C20.3053031,2.49681532 20.5223672,3.57617148 21.2443414,4.2892314 L37.3745584,20.2835236 C38.7987736,21.7001609 40.7391034,22.4933472 42.7578305,22.4933472 L94.9572772,22.4933472 C98.6778761,22.4541775 101.719033,25.3984329 101.758231,29.0640635 C101.79743,32.7296942 98.8150711,35.7327041 95.0944722,35.7686097 L59.1069063,35.7686097 C58.0838488,35.7690295 57.1602544,36.3808776 56.7615244,37.3223409 C56.3674715,38.259907 56.5834133,39.3426963 57.307038,40.0576913 L73.4470546,56.06504 C74.8802015,57.4809591 76.8149634,58.2740023 78.8303267,58.2716049 L95.1075384,58.2716049 C116.284573,58.2716049 132.297194,35.9448733 120.465755,13.7813542" id="Shape" fill-rule="nonzero"></path></g></g></g></g></svg> 