<?xml version="1.0" encoding="UTF-8"?> <svg xmlns="http://www.w3.org/2000/svg" xmlns:xlink="http://www.w3.org/1999/xlink" width="34px" height="37px" viewBox="0 0 34 37" version="1.1"><title>doot-arrow</title><g id="Marketing-Tools" stroke="none" stroke-width="1" fill="none" fill-rule="evenodd"><g id="Desktop-HD-Copy" transform="translate(-703.000000, -619.000000)"><g id="doot-arrow" transform="translate(720.000000, 637.500000) rotate(90.000000) translate(-720.000000, -637.500000) translate(702.000000, 621.000000)"><g id="next"><g id="Group" fill="#009688" fill-rule="nonzero"><path d="M35.2044073,15.7092494 L35.1887902,15.7092494 C34.7568635,15.7092494 34.4066884,16.0602695 34.4066884,16.4932383 C34.4066884,16.9262071 34.7568635,17.2772272 35.1887902,17.2772272 C35.6207169,17.2772272 35.9708921,16.9262071 35.9708921,16.4932383 C35.9708921,16.0602695 35.6207169,15.7092494 35.1887902,15.7092494 L35.2044073,15.7092494 L35.2044073,15.7092494 Z" id="Path"></path><path d="M32.0761466,15.7092494 L32.0605295,15.7092494 C31.6286029,15.7092494 31.2784277,16.0602695 31.2784277,16.4932383 C31.2784277,16.9262071 31.6286029,17.2772272 32.0605295,17.2772272 C32.4924562,17.2772272 32.8426314,16.9262071 32.8426314,16.4932383 C32.8426314,16.0602695 32.4924562,15.7092494 32.0605295,15.7092494 L32.0761466,15.7092494 L32.0761466,15.7092494 Z" id="Path"></path><path d="M28.9478126,15.7092494 L28.9321955,15.7092494 C28.5002688,15.7092494 28.1500937,16.0602695 28.1500937,16.4932383 C28.1500937,16.9262071 28.5002688,17.2772272 28.9321955,17.2772272 C29.3641222,17.2772272 29.7142974,16.9262071 29.7142974,16.4932383 C29.7142974,16.0602695 29.3641222,15.7092494 28.9321955,15.7092494 L28.9478126,15.7092494 L28.9478126,15.7092494 Z" id="Path"></path><path d="M25.8194786,15.7092494 L25.8038615,15.7092494 C25.3719348,15.7092494 25.0217597,16.0602695 25.0217597,16.4932383 C25.0217597,16.9262071 25.3719348,17.2772272 25.8038615,17.2772272 C26.2357882,17.2772272 26.5859633,16.9262071 26.5859633,16.4932383 C26.5859633,16.0602695 26.2357882,15.7092494 25.8038615,15.7092494 L25.8194786,15.7092494 L25.8194786,15.7092494 Z" id="Path"></path><path d="M22.6912179,15.7092494 L22.6756008,15.7092494 C22.2436741,15.7092494 21.893499,16.0602695 21.893499,16.4932383 C21.893499,16.9262071 22.2436741,17.2772272 22.6756008,17.2772272 C23.1075275,17.2772272 23.4577026,16.9262071 23.4577026,16.4932383 C23.4577026,16.0602695 23.1075275,15.7092494 22.6756008,15.7092494 L22.6912179,15.7092494 L22.6912179,15.7092494 Z" id="Path"></path><path d="M19.5628839,15.7092494 L19.5472668,15.7092494 C19.1153401,15.7092494 18.765165,16.0602695 18.765165,16.4932383 C18.765165,16.9262071 19.1153401,17.2772272 19.5472668,17.2772272 C19.9791935,17.2772272 20.3293686,16.9262071 20.3293686,16.4932383 C20.3293686,16.0602695 19.9791935,15.7092494 19.5472668,15.7092494 L19.5628839,15.7092494 L19.5628839,15.7092494 Z" id="Path"></path><path d="M16.4345499,15.7092494 L16.4189328,15.7092494 C15.9870061,15.7092494 15.636831,16.0602695 15.636831,16.4932383 C15.636831,16.9262071 15.9870061,17.2772272 16.4189328,17.2772272 C16.8508595,17.2772272 17.2010346,16.9262071 17.2010346,16.4932383 C17.2010346,16.0602695 16.8508595,15.7092494 16.4189328,15.7092494 L16.4345499,15.7092494 L16.4345499,15.7092494 Z" id="Path"></path><path d="M32.0761466,12.573441 L32.0605295,12.573441 C31.6286029,12.573441 31.2784277,12.924461 31.2784277,13.3574298 C31.2784277,13.7903987 31.6286029,14.1414187 32.0605295,14.1414187 C32.4924562,14.1414187 32.8426314,13.7903987 32.8426314,13.3574298 C32.8426314,12.924461 32.4924562,12.573441 32.0605295,12.573441 L32.0761466,12.573441 Z" id="Path"></path><path d="M28.9478126,12.573441 L28.9321955,12.573441 C28.5002688,12.573441 28.1500937,12.924461 28.1500937,13.3574298 C28.1500937,13.7903987 28.5002688,14.1414187 28.9321955,14.1414187 C29.3641222,14.1414187 29.7142974,13.7903987 29.7142974,13.3574298 C29.7142974,12.924461 29.3641222,12.573441 28.9321955,12.573441 L28.9478126,12.573441 Z" id="Path"></path><path d="M25.8194786,12.573441 L25.8038615,12.573441 C25.3719348,12.573441 25.0217597,12.924461 25.0217597,13.3574298 C25.0217597,13.7903987 25.3719348,14.1414187 25.8038615,14.1414187 C26.2357882,14.1414187 26.5859633,13.7903987 26.5859633,13.3574298 C26.5859633,12.924461 26.2357882,12.573441 25.8038615,12.573441 L25.8194786,12.573441 Z" id="Path"></path><path d="M22.6912179,12.573441 L22.6756008,12.573441 C22.2436741,12.573441 21.893499,12.924461 21.893499,13.3574298 C21.893499,13.7903987 22.2436741,14.1414187 22.6756008,14.1414187 C23.1075275,14.1414187 23.4577026,13.7903987 23.4577026,13.3574298 C23.4577026,12.924461 23.1075275,12.573441 22.6756008,12.573441 L22.6912179,12.573441 Z" id="Path"></path><path d="M19.5628839,12.573441 L19.5472668,12.573441 C19.1153401,12.573441 18.765165,12.924461 18.765165,13.3574298 C18.765165,13.7903987 19.1153401,14.1414187 19.5472668,14.1414187 C19.9791935,14.1414187 20.3293686,13.7903987 20.3293686,13.3574298 C20.3293686,12.924461 19.9791935,12.573441 19.5472668,12.573441 L19.5628839,12.573441 Z" id="Path"></path><path d="M28.9478126,9.43755902 L28.9321955,9.43755902 C28.5002688,9.43755902 28.1500937,9.78857906 28.1500937,10.2215479 C28.1500937,10.6545167 28.5002688,11.0055367 28.9321955,11.0055367 C29.3641222,11.0055367 29.7142974,10.6545167 29.7142974,10.2215479 C29.7142974,9.78857906 29.3641222,9.43755902 28.9321955,9.43755902 L28.9478126,9.43755902 Z" id="Path"></path><path d="M25.8194786,9.43755902 L25.8038615,9.43755902 C25.3719348,9.43755902 25.0217597,9.78857906 25.0217597,10.2215479 C25.0217597,10.6545167 25.3719348,11.0055367 25.8038615,11.0055367 C26.2357882,11.0055367 26.5859633,10.6545167 26.5859633,10.2215479 C26.5859633,9.78857906 26.2357882,9.43755902 25.8038615,9.43755902 L25.8194786,9.43755902 Z" id="Path"></path><path d="M22.6912179,9.43755902 L22.6756008,9.43755902 C22.2436741,9.43755902 21.893499,9.78857906 21.893499,10.2215479 C21.893499,10.6545167 22.2436741,11.0055367 22.6756008,11.0055367 C23.1075275,11.0055367 23.4577026,10.6545167 23.4577026,10.2215479 C23.4577026,9.78857906 23.1075275,9.43755902 22.6756008,9.43755902 L22.6912179,9.43755902 Z" id="Path"></path><path d="M19.5628839,9.43755902 L19.5472668,9.43755902 C19.1153401,9.43755902 18.765165,9.78857906 18.765165,10.2215479 C18.765165,10.6545167 19.1153401,11.0055367 19.5472668,11.0055367 C19.9791935,11.0055367 20.3293686,10.6545167 20.3293686,10.2215479 C20.3293686,9.78857906 19.9791935,9.43755902 19.5472668,9.43755902 L19.5628839,9.43755902 Z" id="Path"></path><path d="M25.8194786,6.30167706 L25.8038615,6.30167706 C25.3719348,6.30167706 25.0217597,6.6526971 25.0217597,7.08566592 C25.0217597,7.51863474 25.3719348,7.86965479 25.8038615,7.86965479 C26.2357882,7.86965479 26.5859633,7.51863474 26.5859633,7.08566592 C26.5859633,6.6526971 26.2357882,6.30167706 25.8038615,6.30167706 L25.8194786,6.30167706 L25.8194786,6.30167706 Z" id="Path"></path><path d="M22.6912179,6.30167706 L22.6756008,6.30167706 C22.2436741,6.30167706 21.893499,6.6526971 21.893499,7.08566592 C21.893499,7.51863474 22.2436741,7.86965479 22.6756008,7.86965479 C23.1075275,7.86965479 23.4577026,7.51863474 23.4577026,7.08566592 C23.4577026,6.6526971 23.1075275,6.30167706 22.6756008,6.30167706 L22.6912179,6.30167706 L22.6912179,6.30167706 Z" id="Path"></path><path d="M19.5628839,6.30167706 L19.5472668,6.30167706 C19.1153401,6.30167706 18.765165,6.6526971 18.765165,7.08566592 C18.765165,7.51863474 19.1153401,7.86965479 19.5472668,7.86965479 C19.9791935,7.86965479 20.3293686,7.51863474 20.3293686,7.08566592 C20.3293686,6.6526971 19.9791935,6.30167706 19.5472668,6.30167706 L19.5628839,6.30167706 L19.5628839,6.30167706 Z" id="Path"></path><path d="M22.6912179,3.1658686 L22.6756008,3.1658686 C22.2436741,3.1658686 21.893499,3.51688864 21.893499,3.94985746 C21.893499,4.38282628 22.2436741,4.73384633 22.6756008,4.73384633 C23.1075275,4.73384633 23.4577026,4.38282628 23.4577026,3.94985746 C23.4577026,3.51688864 23.1075275,3.1658686 22.6756008,3.1658686 L22.6912179,3.1658686 Z" id="Path"></path><path d="M19.5628839,3.1658686 L19.5472668,3.1658686 C19.1153401,3.1658686 18.765165,3.51688864 18.765165,3.94985746 C18.765165,4.38282628 19.1153401,4.73384633 19.5472668,4.73384633 C19.9791935,4.73384633 20.3293686,4.38282628 20.3293686,3.94985746 C20.3293686,3.51688864 19.9791935,3.1658686 19.5472668,3.1658686 L19.5628839,3.1658686 Z" id="Path"></path><path d="M19.5628839,0.029986637 L19.5472668,0.029986637 C19.1153401,0.029986637 18.765165,0.381006682 18.765165,0.813975501 C18.765165,1.24694432 19.1153401,1.59796437 19.5472668,1.59796437 C19.9791935,1.59796437 20.3293686,1.24694432 20.3293686,0.813975501 C20.3293686,0.381006682 19.9791935,0.029986637 19.5472668,0.029986637 L19.5628839,0.029986637 Z" id="Path"></path><path d="M32.0761466,18.8451314 L32.0605295,18.8451314 C31.6286029,18.8451314 31.2784277,19.1961514 31.2784277,19.6291203 C31.2784277,20.0620891 31.6286029,20.4131091 32.0605295,20.4131091 C32.4924562,20.4131091 32.8426314,20.0620891 32.8426314,19.6291203 C32.8426314,19.1961514 32.4924562,18.8451314 32.0605295,18.8451314 L32.0761466,18.8451314 Z" id="Path"></path><path d="M28.9478126,18.8451314 L28.9321955,18.8451314 C28.5002688,18.8451314 28.1500937,19.1961514 28.1500937,19.6291203 C28.1500937,20.0620891 28.5002688,20.4131091 28.9321955,20.4131091 C29.3641222,20.4131091 29.7142974,20.0620891 29.7142974,19.6291203 C29.7142974,19.1961514 29.3641222,18.8451314 28.9321955,18.8451314 L28.9478126,18.8451314 Z" id="Path"></path><path d="M25.8194786,18.8451314 L25.8038615,18.8451314 C25.3719348,18.8451314 25.0217597,19.1961514 25.0217597,19.6291203 C25.0217597,20.0620891 25.3719348,20.4131091 25.8038615,20.4131091 C26.2357882,20.4131091 26.5859633,20.0620891 26.5859633,19.6291203 C26.5859633,19.1961514 26.2357882,18.8451314 25.8038615,18.8451314 L25.8194786,18.8451314 Z" id="Path"></path><path d="M22.6912179,18.8451314 L22.6756008,18.8451314 C22.2436741,18.8451314 21.893499,19.1961514 21.893499,19.6291203 C21.893499,20.0620891 22.2436741,20.4131091 22.6756008,20.4131091 C23.1075275,20.4131091 23.4577026,20.0620891 23.4577026,19.6291203 C23.4577026,19.1961514 23.1075275,18.8451314 22.6756008,18.8451314 L22.6912179,18.8451314 Z" id="Path"></path><path d="M19.5628839,18.8451314 L19.5472668,18.8451314 C19.1153401,18.8451314 18.765165,19.1961514 18.765165,19.6291203 C18.765165,20.0620891 19.1153401,20.4131091 19.5472668,20.4131091 C19.9791935,20.4131091 20.3293686,20.0620891 20.3293686,19.6291203 C20.3293686,19.1961514 19.9791935,18.8451314 19.5472668,18.8451314 L19.5628839,18.8451314 Z" id="Path"></path><path d="M28.9478126,21.9810134 L28.9321955,21.9810134 C28.5002688,21.9810134 28.1500937,22.3320334 28.1500937,22.7650022 C28.1500937,23.197971 28.5002688,23.5489911 28.9321955,23.5489911 C29.3641222,23.5489911 29.7142974,23.197971 29.7142974,22.7650022 C29.7142974,22.3320334 29.3641222,21.9810134 28.9321955,21.9810134 L28.9478126,21.9810134 Z" id="Path"></path><path d="M25.8194786,21.9810134 L25.8038615,21.9810134 C25.3719348,21.9810134 25.0217597,22.3320334 25.0217597,22.7650022 C25.0217597,23.197971 25.3719348,23.5489911 25.8038615,23.5489911 C26.2357882,23.5489911 26.5859633,23.197971 26.5859633,22.7650022 C26.5859633,22.3320334 26.2357882,21.9810134 25.8038615,21.9810134 L25.8194786,21.9810134 Z" id="Path"></path><path d="M22.6912179,21.9810134 L22.6756008,21.9810134 C22.2436741,21.9810134 21.893499,22.3320334 21.893499,22.7650022 C21.893499,23.197971 22.2436741,23.5489911 22.6756008,23.5489911 C23.1075275,23.5489911 23.4577026,23.197971 23.4577026,22.7650022 C23.4577026,22.3320334 23.1075275,21.9810134 22.6756008,21.9810134 L22.6912179,21.9810134 Z" id="Path"></path><path d="M19.5628839,21.9810134 L19.5472668,21.9810134 C19.1153401,21.9810134 18.765165,22.3320334 18.765165,22.7650022 C18.765165,23.197971 19.1153401,23.5489911 19.5472668,23.5489911 C19.9791935,23.5489911 20.3293686,23.197971 20.3293686,22.7650022 C20.3293686,22.3320334 19.9791935,21.9810134 19.5472668,21.9810134 L19.5628839,21.9810134 Z" id="Path"></path><path d="M25.8194786,25.1168218 L25.8038615,25.1168218 C25.3719348,25.1168218 25.0217597,25.4678419 25.0217597,25.9008107 C25.0217597,26.3337795 25.3719348,26.6847996 25.8038615,26.6847996 C26.2357882,26.6847996 26.5859633,26.3337795 26.5859633,25.9008107 C26.5859633,25.4678419 26.2357882,25.1168218 25.8038615,25.1168218 L25.8194786,25.1168218 Z" id="Path"></path><path d="M22.6912179,25.1168218 L22.6756008,25.1168218 C22.2436741,25.1168218 21.893499,25.4678419 21.893499,25.9008107 C21.893499,26.3337795 22.2436741,26.6847996 22.6756008,26.6847996 C23.1075275,26.6847996 23.4577026,26.3337795 23.4577026,25.9008107 C23.4577026,25.4678419 23.1075275,25.1168218 22.6756008,25.1168218 L22.6912179,25.1168218 Z" id="Path"></path><path d="M19.5628839,25.1168218 L19.5472668,25.1168218 C19.1153401,25.1168218 18.765165,25.4678419 18.765165,25.9008107 C18.765165,26.3337795 19.1153401,26.6847996 19.5472668,26.6847996 C19.9791935,26.6847996 20.3293686,26.3337795 20.3293686,25.9008107 C20.3293686,25.4678419 19.9791935,25.1168218 19.5472668,25.1168218 L19.5628839,25.1168218 Z" id="Path"></path><path d="M22.6912179,28.2527038 L22.6756008,28.2527038 C22.2436741,28.2527038 21.893499,28.6037238 21.893499,29.0366927 C21.893499,29.4696615 22.2436741,29.8206815 22.6756008,29.8206815 C23.1075275,29.8206815 23.4577026,29.4696615 23.4577026,29.0366927 C23.4577026,28.6037238 23.1075275,28.2527038 22.6756008,28.2527038 L22.6912179,28.2527038 Z" id="Path"></path><path d="M19.5628839,28.2527038 L19.5472668,28.2527038 C19.1153401,28.2527038 18.765165,28.6037238 18.765165,29.0366927 C18.765165,29.4696615 19.1153401,29.8206815 19.5472668,29.8206815 C19.9791935,29.8206815 20.3293686,29.4696615 20.3293686,29.0366927 C20.3293686,28.6037238 19.9791935,28.2527038 19.5472668,28.2527038 L19.5628839,28.2527038 Z" id="Path"></path><path d="M19.5628839,31.3885857 L19.5472668,31.3885857 C19.1153401,31.3885857 18.765165,31.7396058 18.765165,32.1725746 C18.765165,32.6055434 19.1153401,32.9565635 19.5472668,32.9565635 C19.9791935,32.9565635 20.3293686,32.6055434 20.3293686,32.1725746 C20.3293686,31.7396058 19.9791935,31.3885857 19.5472668,31.3885857 L19.5628839,31.3885857 Z" id="Path"></path><path d="M13.3062892,15.7092494 L13.2906721,15.7092494 C12.8587454,15.7092494 12.5085703,16.0602695 12.5085703,16.4932383 C12.5085703,16.9262071 12.8587454,17.2772272 13.2906721,17.2772272 C13.7225988,17.2772272 14.0727739,16.9262071 14.0727739,16.4932383 C14.0727739,16.0602695 13.7225988,15.7092494 13.2906721,15.7092494 L13.3062892,15.7092494 L13.3062892,15.7092494 Z" id="Path"></path><path d="M10.1779552,15.7092494 L10.1623381,15.7092494 C9.73041141,15.7092494 9.38023625,16.0602695 9.38023625,16.4932383 C9.38023625,16.9262071 9.73041141,17.2772272 10.1623381,17.2772272 C10.5942648,17.2772272 10.9444399,16.9262071 10.9444399,16.4932383 C10.9444399,16.0602695 10.5942648,15.7092494 10.1623381,15.7092494 L10.1779552,15.7092494 L10.1779552,15.7092494 Z" id="Path"></path><path d="M7.04962118,15.7092494 L7.03400407,15.7092494 C6.60207739,15.7092494 6.25190224,16.0602695 6.25190224,16.4932383 C6.25190224,16.9262071 6.60207739,17.2772272 7.03400407,17.2772272 C7.46593075,17.2772272 7.81610591,16.9262071 7.81610591,16.4932383 C7.81610591,16.0602695 7.46593075,15.7092494 7.03400407,15.7092494 L7.04962118,15.7092494 L7.04962118,15.7092494 Z" id="Path"></path><path d="M3.92136049,15.7092494 L3.90574338,15.7092494 C3.4738167,15.7092494 3.12364155,16.0602695 3.12364155,16.4932383 C3.12364155,16.9262071 3.4738167,17.2772272 3.90574338,17.2772272 C4.33767006,17.2772272 4.68784521,16.9262071 4.68784521,16.4932383 C4.68784521,16.0602695 4.33767006,15.7092494 3.90574338,15.7092494 L3.92136049,15.7092494 L3.92136049,15.7092494 Z" id="Path"></path><path d="M0.793026477,15.7092494 L0.782101833,15.7092494 C0.350175153,15.7092494 0,16.0602695 0,16.4932383 C0,16.9262071 0.350175153,17.2772272 0.782101833,17.2772272 C1.21402851,17.2772272 1.56420367,16.9262071 1.56420367,16.4932383 C1.56420367,16.0602695 1.21402851,15.7092494 0.782101833,15.7092494 L0.793026477,15.7092494 L0.793026477,15.7092494 Z" id="Path"></path><path d="M16.4345499,18.8451314 L16.4189328,18.8451314 C15.9870061,18.8451314 15.636831,19.1961514 15.636831,19.6291203 C15.636831,20.0620891 15.9870061,20.4131091 16.4189328,20.4131091 C16.8508595,20.4131091 17.2010346,20.0620891 17.2010346,19.6291203 C17.2010346,19.1961514 16.8508595,18.8451314 16.4189328,18.8451314 L16.4345499,18.8451314 Z" id="Path"></path><path d="M13.3062892,18.8451314 L13.2906721,18.8451314 C12.8587454,18.8451314 12.5085703,19.1961514 12.5085703,19.6291203 C12.5085703,20.0620891 12.8587454,20.4131091 13.2906721,20.4131091 C13.7225988,20.4131091 14.0727739,20.0620891 14.0727739,19.6291203 C14.0727739,19.1961514 13.7225988,18.8451314 13.2906721,18.8451314 L13.3062892,18.8451314 Z" id="Path"></path><path d="M10.1779552,18.8451314 L10.1623381,18.8451314 C9.73041141,18.8451314 9.38023625,19.1961514 9.38023625,19.6291203 C9.38023625,20.0620891 9.73041141,20.4131091 10.1623381,20.4131091 C10.5942648,20.4131091 10.9444399,20.0620891 10.9444399,19.6291203 C10.9444399,19.1961514 10.5942648,18.8451314 10.1623381,18.8451314 L10.1779552,18.8451314 Z" id="Path"></path><path d="M7.04962118,18.8451314 L7.03400407,18.8451314 C6.60207739,18.8451314 6.25190224,19.1961514 6.25190224,19.6291203 C6.25190224,20.0620891 6.60207739,20.4131091 7.03400407,20.4131091 C7.46593075,20.4131091 7.81610591,20.0620891 7.81610591,19.6291203 C7.81610591,19.1961514 7.46593075,18.8451314 7.03400407,18.8451314 L7.04962118,18.8451314 Z" id="Path"></path><path d="M3.92136049,18.8451314 L3.90574338,18.8451314 C3.4738167,18.8451314 3.12364155,19.1961514 3.12364155,19.6291203 C3.12364155,20.0620891 3.4738167,20.4131091 3.90574338,20.4131091 C4.33767006,20.4131091 4.68784521,20.0620891 4.68784521,19.6291203 C4.68784521,19.1961514 4.33767006,18.8451314 3.90574338,18.8451314 L3.92136049,18.8451314 Z" id="Path"></path><path d="M0.793026477,18.8451314 L0.782101833,18.8451314 C0.350175153,18.8451314 0,19.1961514 0,19.6291203 C0,20.0620891 0.350175153,20.4131091 0.782101833,20.4131091 C1.21402851,20.4131091 1.56420367,20.0620891 1.56420367,19.6291203 C1.56420367,19.1961514 1.21402851,18.8451314 0.782101833,18.8451314 L0.793026477,18.8451314 Z" id="Path"></path><path d="M16.4345499,12.573441 L16.4189328,12.573441 C15.9870061,12.573441 15.636831,12.924461 15.636831,13.3574298 C15.636831,13.7903987 15.9870061,14.1414187 16.4189328,14.1414187 C16.8508595,14.1414187 17.2010346,13.7903987 17.2010346,13.3574298 C17.2010346,12.924461 16.8508595,12.573441 16.4189328,12.573441 L16.4345499,12.573441 Z" id="Path"></path><path d="M13.3062892,12.573441 L13.2906721,12.573441 C12.8587454,12.573441 12.5085703,12.924461 12.5085703,13.3574298 C12.5086436,13.7903987 12.8588921,14.1413452 13.2908187,14.1412717 C13.7227454,14.1411982 14.0728473,13.7901047 14.0727739,13.3571359 C14.0726273,12.9302673 13.7319837,12.5819666 13.3062892,12.573441 Z" id="Path"></path><path d="M10.1779552,12.573441 L10.1623381,12.573441 C9.73041141,12.573441 9.38023625,12.924461 9.38023625,13.3574298 C9.38030957,13.7903987 9.73055804,14.1413452 10.1624847,14.1412717 C10.5944114,14.1411982 10.9445132,13.7901047 10.9444399,13.3571359 C10.9442933,12.9302673 10.6036497,12.5819666 10.1779552,12.573441 Z" id="Path"></path><path d="M7.04962118,12.573441 L7.03400407,12.573441 C6.60207739,12.573441 6.25190224,12.924461 6.25190224,13.3574298 C6.25197556,13.7903987 6.60222403,14.1413452 7.03415071,14.1412717 C7.46607739,14.1411982 7.81617923,13.7901047 7.81610592,13.3571359 C7.81603259,12.9302673 7.47531568,12.5819666 7.04962118,12.573441 Z" id="Path"></path><path d="M3.92136049,12.573441 L3.90574338,12.573441 C3.4738167,12.573441 3.12364155,12.924461 3.12364155,13.3574298 C3.12371487,13.7903987 3.47396334,14.1413452 3.90589002,14.1412717 C4.3378167,14.1411982 4.68791853,13.7901047 4.68784523,13.3571359 C4.68769857,12.9302673 4.34705499,12.5819666 3.92136049,12.573441 Z" id="Path"></path><path d="M0.793026477,12.573441 L0.782101833,12.573441 C0.350175153,12.573441 0,12.9243875 0,13.3573563 C7.33197556e-05,13.7903252 0.350248473,14.1412717 0.782175153,14.1412717 C1.21410183,14.1411982 1.56420367,13.7901782 1.56420367,13.3572094 C1.56413035,12.9285768 1.22062729,12.5793942 0.793026477,12.573441 Z" id="Path"></path></g><path d="M35.2044073,17.2772272 C34.7724807,17.2772272 34.4223055,16.9262071 34.4223055,16.4932383 C34.4223055,16.0602695 34.7724807,15.7092494 35.2044073,15.7092494 L35.2044073,15.7092494 C35.636334,15.7092494 35.9865092,16.0602695 35.9865092,16.4932383 C35.9865092,16.9262071 35.636334,17.2772272 35.2044073,17.2772272 Z" id="Path" fill="#000000" fill-rule="nonzero"></path><path d="M32.0761466,17.2772272 C31.64422,17.2772272 31.2940448,16.9262071 31.2940448,16.4932383 C31.2940448,16.0602695 31.64422,15.7092494 32.0761466,15.7092494 L32.0761466,15.7092494 C32.5080733,15.7092494 32.8582485,16.0602695 32.8582485,16.4932383 C32.8581752,16.9262071 32.5080733,17.2772272 32.0761466,17.2772272 Z" id="Path" fill="#000000" fill-rule="nonzero"></path><path d="M28.9478126,17.2772272 C28.5158859,17.2772272 28.1657108,16.9262071 28.1657108,16.4932383 C28.1657108,16.0602695 28.5158859,15.7092494 28.9478126,15.7092494 L28.9478126,15.7092494 C29.3797393,15.7092494 29.7299145,16.0602695 29.7299145,16.4932383 C29.7299145,16.9262071 29.3797393,17.2772272 28.9478126,17.2772272 Z" id="Path" fill="#000000" fill-rule="nonzero"></path><path d="M25.8194786,17.2772272 C25.3875519,17.2772272 25.0373768,16.9262071 25.0373768,16.4932383 C25.0373768,16.0602695 25.3875519,15.7092494 25.8194786,15.7092494 L25.8194786,15.7092494 C26.2514053,15.7092494 26.6015804,16.0602695 26.6015804,16.4932383 C26.6015804,16.9262071 26.2514053,17.2772272 25.8194786,17.2772272 Z" id="Path" fill="#000000" fill-rule="nonzero"></path><path d="M22.6912179,17.2772272 C22.2592912,17.2772272 21.9091161,16.9262071 21.9091161,16.4932383 C21.9091161,16.0602695 22.2592912,15.7092494 22.6912179,15.7092494 L22.6912179,15.7092494 C23.1231446,15.7092494 23.4733198,16.0602695 23.4733198,16.4932383 C23.4732464,16.9262071 23.1231446,17.2772272 22.6912179,17.2772272 Z" id="Path" fill="#000000" fill-rule="nonzero"></path><path d="M19.5628839,17.2772272 C19.1309572,17.2772272 18.7807821,16.9262071 18.7807821,16.4932383 C18.7807821,16.0602695 19.1309572,15.7092494 19.5628839,15.7092494 L19.5628839,15.7092494 C19.9948106,15.7092494 20.3449857,16.0602695 20.3449857,16.4932383 C20.3449857,16.9262071 19.9948106,17.2772272 19.5628839,17.2772272 Z" id="Path" fill="#000000" fill-rule="nonzero"></path><path d="M16.4345499,17.2772272 C16.0026232,17.2772272 15.6524481,16.9262071 15.6524481,16.4932383 C15.6524481,16.0602695 16.0026232,15.7092494 16.4345499,15.7092494 L16.4345499,15.7092494 C16.8664766,15.7092494 17.2166517,16.0602695 17.2166517,16.4932383 C17.2166517,16.9262071 16.8664766,17.2772272 16.4345499,17.2772272 Z" id="Path" fill="#000000" fill-rule="nonzero"></path><path d="M32.0761466,14.1413452 C31.64422,14.1413452 31.2940448,13.7903252 31.2940448,13.3573563 C31.2940448,12.9243875 31.64422,12.5733675 32.0761466,12.5733675 L32.0761466,12.5733675 C32.5080733,12.5733675 32.8582485,12.9243875 32.8582485,13.3573563 C32.8581752,13.7903252 32.5080733,14.1413452 32.0761466,14.1413452 Z" id="Path" fill="#000000" fill-rule="nonzero"></path><path d="M28.9478126,14.1413452 C28.5158859,14.1413452 28.1657108,13.7903252 28.1657108,13.3573563 C28.1657108,12.9243875 28.5158859,12.5733675 28.9478126,12.5733675 L28.9478126,12.5733675 C29.3797393,12.5733675 29.7299145,12.9243875 29.7299145,13.3573563 C29.7299145,13.7903252 29.3797393,14.1413452 28.9478126,14.1413452 Z" id="Path" fill="#000000" fill-rule="nonzero"></path><path d="M25.8194786,14.1413452 C25.3875519,14.1413452 25.0373768,13.7903252 25.0373768,13.3573563 C25.0373768,12.9243875 25.3875519,12.5733675 25.8194786,12.5733675 L25.8194786,12.5733675 C26.2514053,12.5733675 26.6015804,12.9243875 26.6015804,13.3573563 C26.6015804,13.7903252 26.2514053,14.1413452 25.8194786,14.1413452 Z" id="Path" fill="#000000" fill-rule="nonzero"></path><path d="M22.6912179,14.1413452 C22.2592912,14.1413452 21.9091161,13.7903252 21.9091161,13.3573563 C21.9091161,12.9243875 22.2592912,12.5733675 22.6912179,12.5733675 L22.6912179,12.5733675 C23.1231446,12.5733675 23.4733198,12.9243875 23.4733198,13.3573563 C23.4732464,13.7903252 23.1231446,14.1413452 22.6912179,14.1413452 Z" id="Path" fill="#000000" fill-rule="nonzero"></path><path d="M19.5628839,14.1413452 C19.1309572,14.1413452 18.7807821,13.7903252 18.7807821,13.3573563 C18.7807821,12.9243875 19.1309572,12.5733675 19.5628839,12.5733675 L19.5628839,12.5733675 C19.9948106,12.5733675 20.3449857,12.9243875 20.3449857,13.3573563 C20.3449857,13.7903252 19.9948106,14.1413452 19.5628839,14.1413452 Z" id="Path" fill="#000000" fill-rule="nonzero"></path><path d="M28.9478126,11.0054633 C28.5158859,11.0054633 28.1657108,10.6544432 28.1657108,10.2214744 C28.1657108,9.78850557 28.5158859,9.43748552 28.9478126,9.43748552 L28.9478126,9.43748552 C29.3797393,9.43748552 29.7299145,9.78850557 29.7299145,10.2214744 C29.7299145,10.6545167 29.3797393,11.0054633 28.9478126,11.0054633 Z" id="Path" fill="#000000" fill-rule="nonzero"></path><path d="M25.8194786,11.0054633 C25.3875519,11.0054633 25.0373768,10.6544432 25.0373768,10.2214744 C25.0373768,9.78850557 25.3875519,9.43748552 25.8194786,9.43748552 L25.8194786,9.43748552 C26.2514053,9.43748552 26.6015804,9.78850557 26.6015804,10.2214744 C26.6015804,10.6545167 26.2514053,11.0054633 25.8194786,11.0054633 Z" id="Path" fill="#000000" fill-rule="nonzero"></path><path d="M22.6912179,11.0054633 C22.2592912,11.0054633 21.9091161,10.6544432 21.9091161,10.2214744 C21.9091161,9.78850557 22.2592912,9.43748552 22.6912179,9.43748552 L22.6912179,9.43748552 C23.1231446,9.43748552 23.4733198,9.78850557 23.4733198,10.2214744 C23.4732464,10.6545167 23.1231446,11.0054633 22.6912179,11.0054633 Z" id="Path" fill="#000000" fill-rule="nonzero"></path><path d="M19.5628839,11.0054633 C19.1309572,11.0054633 18.7807821,10.6544432 18.7807821,10.2214744 C18.7807821,9.78850557 19.1309572,9.43748552 19.5628839,9.43748552 L19.5628839,9.43748552 C19.9948106,9.43748552 20.3449857,9.78850557 20.3449857,10.2214744 C20.3449857,10.6545167 19.9948106,11.0054633 19.5628839,11.0054633 Z" id="Path" fill="#000000" fill-rule="nonzero"></path><path d="M25.8194786,7.86965479 C25.3875519,7.86965479 25.0373768,7.51863474 25.0373768,7.08566592 C25.0373768,6.6526971 25.3875519,6.30167706 25.8194786,6.30167706 L25.8194786,6.30167706 C26.2514053,6.30167706 26.6015804,6.6526971 26.6015804,7.08566592 C26.6015804,7.51863474 26.2514053,7.86965479 25.8194786,7.86965479 Z" id="Path" fill="#000000" fill-rule="nonzero"></path><path d="M22.6912179,7.86965479 C22.2592912,7.86965479 21.9091161,7.51863474 21.9091161,7.08566592 C21.9091161,6.6526971 22.2592912,6.30167706 22.6912179,6.30167706 L22.6912179,6.30167706 C23.1231446,6.30167706 23.4733198,6.6526971 23.4733198,7.08566592 C23.4733198,7.51863474 23.1231446,7.86965479 22.6912179,7.86965479 Z" id="Path" fill="#000000" fill-rule="nonzero"></path><path d="M19.5628839,7.86965479 C19.1309572,7.86965479 18.7807821,7.51863474 18.7807821,7.08566592 C18.7807821,6.6526971 19.1309572,6.30167706 19.5628839,6.30167706 L19.5628839,6.30167706 C19.9948106,6.30167706 20.3449857,6.6526971 20.3449857,7.08566592 C20.3449857,7.51863474 19.9948106,7.86965479 19.5628839,7.86965479 Z" id="Path" fill="#000000" fill-rule="nonzero"></path><path d="M22.6912179,4.73377283 C22.2592912,4.73377283 21.9091161,4.38275278 21.9091161,3.94978396 C21.9091161,3.51681514 22.2592912,3.1657951 22.6912179,3.1657951 L22.6912179,3.1657951 C23.1231446,3.1657951 23.4733198,3.51681514 23.4733198,3.94978396 C23.4732464,4.38275278 23.1231446,4.73377283 22.6912179,4.73377283 Z" id="Path" fill="#000000" fill-rule="nonzero"></path><path d="M19.5628839,4.73377283 C19.1309572,4.73377283 18.7807821,4.38275278 18.7807821,3.94978396 C18.7807821,3.51681514 19.1309572,3.1657951 19.5628839,3.1657951 L19.5628839,3.1657951 C19.9948106,3.1657951 20.3449857,3.51681514 20.3449857,3.94978396 C20.3449857,4.38275278 19.9948106,4.73377283 19.5628839,4.73377283 Z" id="Path" fill="#000000" fill-rule="nonzero"></path><path d="M19.5628839,1.59789087 C19.1309572,1.59789087 18.7807821,1.24687082 18.7807821,0.813902004 C18.7807821,0.380933185 19.1309572,0.0299131403 19.5628839,0.0299131403 L19.5628839,0.0299131403 C19.9948106,0.0299131403 20.3449857,0.380933185 20.3449857,0.813902004 C20.3449857,1.24687082 19.9948106,1.59789087 19.5628839,1.59789087 Z" id="Path" fill="#000000" fill-rule="nonzero"></path><path d="M32.0761466,20.4130356 C31.64422,20.4130356 31.2940448,20.0620156 31.2940448,19.6290468 C31.2940448,19.196078 31.64422,18.8450579 32.0761466,18.8450579 L32.0761466,18.8450579 C32.5080733,18.8450579 32.8582485,19.196078 32.8582485,19.6290468 C32.8582485,20.0620156 32.5080733,20.4130356 32.0761466,20.4130356 Z" id="Path" fill="#000000" fill-rule="nonzero"></path><path d="M28.9478126,20.4130356 C28.5158859,20.4130356 28.1657108,20.0620156 28.1657108,19.6290468 C28.1657108,19.196078 28.5158859,18.8450579 28.9478126,18.8450579 L28.9478126,18.8450579 C29.3797393,18.8450579 29.7299145,19.196078 29.7299145,19.6290468 C29.7299145,20.0620156 29.3797393,20.4130356 28.9478126,20.4130356 Z" id="Path" fill="#000000" fill-rule="nonzero"></path><path d="M25.8194786,20.4130356 C25.3875519,20.4130356 25.0373768,20.0620156 25.0373768,19.6290468 C25.0373768,19.196078 25.3875519,18.8450579 25.8194786,18.8450579 L25.8194786,18.8450579 C26.2514053,18.8450579 26.6015804,19.196078 26.6015804,19.6290468 C26.6015804,20.0620156 26.2514053,20.4130356 25.8194786,20.4130356 Z" id="Path" fill="#000000" fill-rule="nonzero"></path><path d="M22.6912179,20.4130356 C22.2592912,20.4130356 21.9091161,20.0620156 21.9091161,19.6290468 C21.9091161,19.196078 22.2592912,18.8450579 22.6912179,18.8450579 L22.6912179,18.8450579 C23.1231446,18.8450579 23.4733198,19.196078 23.4733198,19.6290468 C23.4733198,20.0620156 23.1231446,20.4130356 22.6912179,20.4130356 Z" id="Path" fill="#000000" fill-rule="nonzero"></path><path d="M19.5628839,20.4130356 C19.1309572,20.4130356 18.7807821,20.0620156 18.7807821,19.6290468 C18.7807821,19.196078 19.1309572,18.8450579 19.5628839,18.8450579 L19.5628839,18.8450579 C19.9948106,18.8450579 20.3449857,19.196078 20.3449857,19.6290468 C20.3449857,20.0620156 19.9948106,20.4130356 19.5628839,20.4130356 Z" id="Path" fill="#000000" fill-rule="nonzero"></path><path d="M28.9478126,23.5489176 C28.5158859,23.5489176 28.1657108,23.1978976 28.1657108,22.7649287 C28.1657108,22.3319599 28.5158859,21.9809399 28.9478126,21.9809399 L28.9478126,21.9809399 C29.3797393,21.9809399 29.7299145,22.3319599 29.7299145,22.7649287 C29.7299145,23.1978976 29.3797393,23.5489176 28.9478126,23.5489176 Z" id="Path" fill="#000000" fill-rule="nonzero"></path><path d="M25.8194786,23.5489176 C25.3875519,23.5489176 25.0373768,23.1978976 25.0373768,22.7649287 C25.0373768,22.3319599 25.3875519,21.9809399 25.8194786,21.9809399 L25.8194786,21.9809399 C26.2514053,21.9809399 26.6015804,22.3319599 26.6015804,22.7649287 C26.6015804,23.1978976 26.2514053,23.5489176 25.8194786,23.5489176 Z" id="Path" fill="#000000" fill-rule="nonzero"></path><path d="M22.6912179,23.5489176 C22.2592912,23.5489176 21.9091161,23.1978976 21.9091161,22.7649287 C21.9091161,22.3319599 22.2592912,21.9809399 22.6912179,21.9809399 L22.6912179,21.9809399 C23.1231446,21.9809399 23.4733198,22.3319599 23.4733198,22.7649287 C23.4732464,23.1978976 23.1231446,23.5489176 22.6912179,23.5489176 Z" id="Path" fill="#000000" fill-rule="nonzero"></path><path d="M19.5628839,23.5489176 C19.1309572,23.5489176 18.7807821,23.1978976 18.7807821,22.7649287 C18.7807821,22.3319599 19.1309572,21.9809399 19.5628839,21.9809399 L19.5628839,21.9809399 C19.9948106,21.9809399 20.3449857,22.3319599 20.3449857,22.7649287 C20.3449857,23.1978976 19.9948106,23.5489176 19.5628839,23.5489176 Z" id="Path" fill="#000000" fill-rule="nonzero"></path><path d="M25.8194786,26.6847996 C25.3875519,26.6847996 25.0373768,26.3337795 25.0373768,25.9008107 C25.0373768,25.4678419 25.3875519,25.1168218 25.8194786,25.1168218 L25.8194786,25.1168218 C26.2514053,25.1168218 26.6015804,25.4678419 26.6015804,25.9008107 C26.6015804,26.3337795 26.2514053,26.6847996 25.8194786,26.6847996 Z" id="Path" fill="#000000" fill-rule="nonzero"></path><path d="M22.6912179,26.6847996 C22.2592912,26.6847996 21.9091161,26.3337795 21.9091161,25.9008107 C21.9091161,25.4678419 22.2592912,25.1168218 22.6912179,25.1168218 L22.6912179,25.1168218 C23.1231446,25.1168218 23.4733198,25.4678419 23.4733198,25.9008107 C23.4732464,26.3337795 23.1231446,26.6847996 22.6912179,26.6847996 Z" id="Path" fill="#000000" fill-rule="nonzero"></path><path d="M19.5628839,26.6847996 C19.1309572,26.6847996 18.7807821,26.3337795 18.7807821,25.9008107 C18.7807821,25.4678419 19.1309572,25.1168218 19.5628839,25.1168218 L19.5628839,25.1168218 C19.9948106,25.1168218 20.3449857,25.4678419 20.3449857,25.9008107 C20.3449857,26.3337795 19.9948106,26.6847996 19.5628839,26.6847996 Z" id="Path" fill="#000000" fill-rule="nonzero"></path><path d="M22.6912179,29.820608 C22.2592912,29.820608 21.9091161,29.469588 21.9091161,29.0366192 C21.9091161,28.6036503 22.2592912,28.2526303 22.6912179,28.2526303 L22.6912179,28.2526303 C23.1231446,28.2526303 23.4733198,28.6036503 23.4733198,29.0366192 C23.4733198,29.469588 23.1231446,29.820608 22.6912179,29.820608 Z" id="Path" fill="#000000" fill-rule="nonzero"></path><path d="M19.5628839,29.820608 C19.1309572,29.820608 18.7807821,29.469588 18.7807821,29.0366192 C18.7807821,28.6036503 19.1309572,28.2526303 19.5628839,28.2526303 L19.5628839,28.2526303 C19.9948106,28.2526303 20.3449857,28.6036503 20.3449857,29.0366192 C20.3449857,29.469588 19.9948106,29.820608 19.5628839,29.820608 Z" id="Path" fill="#000000" fill-rule="nonzero"></path><path d="M19.5628839,32.95649 C19.1309572,32.95649 18.7807821,32.6054699 18.7807821,32.1725011 C18.7807821,31.7395323 19.1309572,31.3885122 19.5628839,31.3885122 L19.5628839,31.3885122 C19.9948106,31.3885122 20.3449857,31.7395323 20.3449857,32.1725011 C20.3449857,32.6054699 19.9948106,32.95649 19.5628839,32.95649 Z" id="Path" fill="#000000" fill-rule="nonzero"></path><path d="M13.3062892,17.2772272 C12.8743625,17.2772272 12.5241874,16.9262071 12.5241874,16.4932383 C12.5241874,16.0602695 12.8743625,15.7092494 13.3062892,15.7092494 L13.3062892,15.7092494 C13.7382159,15.7092494 14.088391,16.0602695 14.088391,16.4932383 C14.0883177,16.9262071 13.7382159,17.2772272 13.3062892,17.2772272 Z" id="Path" fill="#000000" fill-rule="nonzero"></path><path d="M10.1779552,17.2772272 C9.74602851,17.2772272 9.39585336,16.9262071 9.39585336,16.4932383 C9.39585336,16.0602695 9.74602851,15.7092494 10.1779552,15.7092494 L10.1779552,15.7092494 C10.6098819,15.7092494 10.960057,16.0602695 10.960057,16.4932383 C10.960057,16.9262071 10.6098819,17.2772272 10.1779552,17.2772272 Z" id="Path" fill="#000000" fill-rule="nonzero"></path><path d="M7.04962118,17.2772272 C6.6176945,17.2772272 6.26751935,16.9262071 6.26751935,16.4932383 C6.26751935,16.0602695 6.6176945,15.7092494 7.04962118,15.7092494 L7.04962118,15.7092494 C7.48154786,15.7092494 7.83172301,16.0602695 7.83172301,16.4932383 C7.83172301,16.9262071 7.48154786,17.2772272 7.04962118,17.2772272 Z" id="Path" fill="#000000" fill-rule="nonzero"></path><path d="M3.92136049,17.2772272 C3.48943381,17.2772272 3.13925866,16.9262071 3.13925866,16.4932383 C3.13925866,16.0602695 3.48943381,15.7092494 3.92136049,15.7092494 L3.92136049,15.7092494 C4.35328717,15.7092494 4.70346232,16.0602695 4.70346232,16.4932383 C4.703389,16.9262071 4.35328717,17.2772272 3.92136049,17.2772272 Z" id="Path" fill="#000000" fill-rule="nonzero"></path><path d="M0.793026477,17.2772272 C0.361099796,17.2772272 0.0109246436,16.9262071 0.0109246436,16.4932383 C0.0109246436,16.0602695 0.361099796,15.7092494 0.793026477,15.7092494 L0.793026477,15.7092494 C1.22495316,15.7092494 1.57512831,16.0602695 1.57512831,16.4932383 C1.57512831,16.9262071 1.22495316,17.2772272 0.793026477,17.2772272 Z" id="Path" fill="#000000" fill-rule="nonzero"></path><path d="M16.4345499,20.4130356 C16.0026232,20.4130356 15.6524481,20.0620156 15.6524481,19.6290468 C15.6524481,19.196078 16.0026232,18.8450579 16.4345499,18.8450579 L16.4345499,18.8450579 C16.8664766,18.8450579 17.2166517,19.196078 17.2166517,19.6290468 C17.2166517,20.0620156 16.8664766,20.4130356 16.4345499,20.4130356 Z" id="Path" fill="#000000" fill-rule="nonzero"></path><path d="M13.3062892,20.4130356 C12.8743625,20.4130356 12.5241874,20.0620156 12.5241874,19.6290468 C12.5241874,19.196078 12.8743625,18.8450579 13.3062892,18.8450579 L13.3062892,18.8450579 C13.7382159,18.8450579 14.088391,19.196078 14.088391,19.6290468 C14.088391,20.0620156 13.7382159,20.4130356 13.3062892,20.4130356 Z" id="Path" fill="#000000" fill-rule="nonzero"></path><path d="M10.1779552,20.4130356 C9.74602851,20.4130356 9.39585336,20.0620156 9.39585336,19.6290468 C9.39585336,19.196078 9.74602851,18.8450579 10.1779552,18.8450579 L10.1779552,18.8450579 C10.6098819,18.8450579 10.960057,19.196078 10.960057,19.6290468 C10.960057,20.0620156 10.6098819,20.4130356 10.1779552,20.4130356 Z" id="Path" fill="#000000" fill-rule="nonzero"></path><path d="M7.04962118,20.4130356 C6.6176945,20.4130356 6.26751935,20.0620156 6.26751935,19.6290468 C6.26751935,19.196078 6.6176945,18.8450579 7.04962118,18.8450579 L7.04962118,18.8450579 C7.48154786,18.8450579 7.83172301,19.196078 7.83172301,19.6290468 C7.83172301,20.0620156 7.48154786,20.4130356 7.04962118,20.4130356 Z" id="Path" fill="#000000" fill-rule="nonzero"></path><path d="M3.92136049,20.4130356 C3.48943381,20.4130356 3.13925866,20.0620156 3.13925866,19.6290468 C3.13925866,19.196078 3.48943381,18.8450579 3.92136049,18.8450579 L3.92136049,18.8450579 C4.35328717,18.8450579 4.70346232,19.196078 4.70346232,19.6290468 C4.70346232,20.0620156 4.35328717,20.4130356 3.92136049,20.4130356 Z" id="Path" fill="#000000" fill-rule="nonzero"></path><path d="M0.793026477,20.4130356 C0.361099796,20.4130356 0.0109246436,20.0620156 0.0109246436,19.6290468 C0.0109246436,19.196078 0.361099796,18.8450579 0.793026477,18.8450579 L0.793026477,18.8450579 C1.22495316,18.8450579 1.57512831,19.196078 1.57512831,19.6290468 C1.57512831,20.0620156 1.22495316,20.4130356 0.793026477,20.4130356 Z" id="Path" fill="#000000" fill-rule="nonzero"></path><path d="M16.4345499,14.1413452 C16.0026232,14.1413452 15.6524481,13.7903252 15.6524481,13.3573563 C15.6524481,12.9243875 16.0026232,12.5733675 16.4345499,12.5733675 L16.4345499,12.5733675 C16.8664766,12.5733675 17.2166517,12.9243875 17.2166517,13.3573563 C17.2166517,13.7903252 16.8664766,14.1413452 16.4345499,14.1413452 Z" id="Path" fill="#000000" fill-rule="nonzero"></path><path d="M13.3062892,14.1413452 C12.8743625,14.1413452 12.5241874,13.7903252 12.5241874,13.3573563 C12.5241874,12.9243875 12.8743625,12.5733675 13.3062892,12.5733675 L13.3062892,12.5733675 C13.7382159,12.5733675 14.088391,12.9243875 14.088391,13.3573563 C14.0883177,13.7903252 13.7382159,14.1413452 13.3062892,14.1413452 Z" id="Path" fill="#000000" fill-rule="nonzero"></path><path d="M10.1779552,14.1413452 C9.74602851,14.1413452 9.39585336,13.7903252 9.39585336,13.3573563 C9.39585336,12.9243875 9.74602851,12.5733675 10.1779552,12.5733675 L10.1779552,12.5733675 C10.6098819,12.5733675 10.960057,12.9243875 10.960057,13.3573563 C10.960057,13.7903252 10.6098819,14.1413452 10.1779552,14.1413452 Z" id="Path" fill="#000000" fill-rule="nonzero"></path><path d="M7.04962118,14.1413452 C6.6176945,14.1413452 6.26751935,13.7903252 6.26751935,13.3573563 C6.26751935,12.9243875 6.6176945,12.5733675 7.04962118,12.5733675 L7.04962118,12.5733675 C7.48154786,12.5733675 7.83172301,12.9243875 7.83172301,13.3573563 C7.83172301,13.7903252 7.48154786,14.1413452 7.04962118,14.1413452 Z" id="Path" fill="#000000" fill-rule="nonzero"></path><path d="M3.92136049,14.1413452 C3.48943381,14.1413452 3.13925866,13.7903252 3.13925866,13.3573563 C3.13925866,12.9243875 3.48943381,12.5733675 3.92136049,12.5733675 L3.92136049,12.5733675 C4.35328717,12.5733675 4.70346232,12.9243875 4.70346232,13.3573563 C4.703389,13.7903252 4.35328717,14.1413452 3.92136049,14.1413452 Z" id="Path" fill="#000000" fill-rule="nonzero"></path><path d="M0.793026477,14.1413452 C0.361099796,14.1413452 0.0109246436,13.7903252 0.0109246436,13.3573563 C0.0109246436,12.9243875 0.361099796,12.5733675 0.793026477,12.5733675 L0.793026477,12.5733675 C1.22495316,12.5733675 1.57512831,12.9243875 1.57512831,13.3573563 C1.57512831,13.7903252 1.22495316,14.1413452 0.793026477,14.1413452 Z" id="Path" fill="#000000" fill-rule="nonzero"></path></g></g></g></g></svg> 