<?xml version="1.0" encoding="UTF-8"?> <svg xmlns="http://www.w3.org/2000/svg" xmlns:xlink="http://www.w3.org/1999/xlink" width="210px" height="38px" viewBox="0 0 210 38"><title>Dunkin'_logo</title><g id="Marketing-Tools" stroke="none" stroke-width="1" fill="none" fill-rule="evenodd"><g id="Desktop-HD-Copy" transform="translate(-742.000000, -1039.000000)" fill-rule="nonzero"><g id="Dunkin'_logo" transform="translate(742.000000, 1039.000000)"><path d="M84.0845341,20.958435 C83.9538905,21.1561521 84.0192123,21.3868221 84.0192123,21.5845391 C84.0192123,24.7809655 84.0192123,27.944439 84.0192123,31.1408654 C84.0192123,32.0305924 83.9212296,32.8873654 83.6599424,33.7441395 C82.8760807,36.479226 80.5898175,38.1268685 77.7483189,37.9291514 C74.2536023,37.6984814 72.2612872,35.5565462 72.0326609,31.8328753 C72,31.4703939 72,31.0749597 72,30.7124784 C72,22.5072189 72,14.3349123 72,6.12965286 C72,3.55933062 72.9471662,1.54920672 75.364073,0.560621243 C77.8463016,-0.460917083 80.1978866,-0.0984357477 82.2228626,1.74692382 C83.3333333,2.73550929 84.117195,4.05362336 84.9990394,5.23992593 C87.7098943,8.96359789 90.5840538,12.5884113 93.1316042,16.4438947 C93.3928915,16.8393289 93.6215178,17.234763 94.0134486,17.5972444 C94.0134486,17.3995273 94.0134486,17.1688574 94.0134486,16.9711403 C94.0134486,13.5769968 94.0134486,10.1499005 94.0134486,6.755757 C94.0134486,5.33878448 94.2420749,3.98771766 94.9606148,2.76846214 C96.2670509,0.527668394 98.3246878,-0.197294292 100.741595,0.0663285017 C103.583093,0.329951299 105.477426,2.2741694 105.869356,5.17402023 C105.967339,5.83307722 106,6.4921342 106,7.15119119 C106,15.3564506 106,23.594663 106,31.7999224 C106,34.3372908 105.118156,36.3474146 102.766571,37.4019058 C100.251681,38.4893498 97.8347743,38.0939156 95.7771374,36.2156032 C94.5033622,35.0622535 93.556196,33.5793753 92.4783862,32.1953566 C89.6368876,28.5375903 86.5994236,25.0116355 84.1825168,21.0243407 C84.1825168,20.9913879 84.1498559,20.9913879 84.0845341,20.958435 L84.0845341,20.958435 Z" id="path5" fill="#FE6D01"></path><path d="M173.051737,21.0522515 C173.051737,21.2829292 173.051737,21.5136069 173.051737,21.7442846 C173.051737,25.2044501 173.019027,28.6316617 172.986317,32.0918272 C172.986317,33.0804449 172.691929,34.0031557 172.266702,34.8599586 C171.252699,36.9360579 169.093854,38.1224004 166.70604,37.9246767 C163.304222,37.661045 161.276216,35.5190378 161.047247,32.0259193 C161.047247,31.8281955 161.014538,31.6304718 161.014538,31.432748 C161.014538,22.7988112 160.981828,14.1648744 161.014538,5.53093753 C161.014538,3.32302239 162.061251,1.64237046 164.023838,0.686705695 C166.248103,-0.367820929 168.406948,-0.203051159 170.500374,1.1480611 C171.12186,1.54350859 171.645216,2.07077191 172.070444,2.63098918 C175.374131,7.11272749 178.775949,11.4956038 181.916088,16.1091579 C182.275895,16.6364212 182.602993,17.1636845 183.02822,17.8557176 C183.02822,17.4602701 183.02822,17.2295924 183.02822,16.9989147 C183.02822,13.5387492 183.02822,10.0456297 183.02822,6.58546417 C183.02822,4.9377663 183.388028,3.35597634 184.467451,2.03781795 C186.07023,0.0935344581 188.229075,-0.236005116 190.51876,0.19239633 C192.677606,0.62079778 194.018707,2.07077191 194.640192,4.14687132 C194.93458,5.13549004 195,6.12410876 195,7.14568144 C195,15.3841708 195,23.6226601 195,31.8611495 C195,34.3656493 194.084126,36.3758407 191.761732,37.3974134 C189.341208,38.45194 187.018813,38.1224004 184.958097,36.4087946 C184.630999,36.145163 184.303902,35.8156234 184.042223,35.4860838 C180.771245,31.2350243 177.271299,27.1487336 174.229289,22.7329033 C173.836772,22.172686 173.476964,21.6124687 173.117157,21.0522515 C173.149866,21.0192975 173.117157,21.0192975 173.051737,21.0522515 L173.051737,21.0522515 Z" id="path7" fill="#FE6D01"></path><path d="M11.6176858,1.014508 C13.7508767,1.04701272 16.1794325,0.85198439 18.5751699,1.30705049 C25.2372892,2.54222992 30.3569473,5.85771164 32.6870481,12.3261513 C35.0827856,18.9896192 34.2951459,25.32804 29.5364893,30.8538427 C26.6156587,34.2668375 22.6774601,36.0545972 18.279805,36.6721869 C14.2103332,37.2572719 10.108043,36.8672152 6.03857114,36.9322247 C5.84166121,36.9322247 5.64475128,36.8672152 5.44784136,36.8347105 C2.23164586,36.2821302 0,33.6817525 0,30.463786 C0,22.8251764 0,15.1540621 0,7.51545245 C0,3.90742833 2.78955732,1.07951744 6.46520932,1.014508 C8.07330707,0.982003277 9.71422314,1.014508 11.6176858,1.014508 Z M12.044324,18.9896192 C12.044324,20.9724073 12.044324,22.9226906 12.044324,24.9054786 C12.044324,25.1980211 12.0115056,25.4580589 12.4709621,25.4580589 C13.7508767,25.4255541 14.9979729,25.5230683 16.2778874,25.3605447 C19.6253562,24.970488 21.8570021,22.4676245 21.8898204,19.022124 C21.9226387,15.6416329 19.6909929,13.0412551 16.3435241,12.6186938 C15.0964279,12.4561702 13.8493316,12.586189 12.6022354,12.5211796 C12.1427789,12.4886749 12.0115056,12.6511985 12.0115056,13.1062646 C12.044324,15.0565479 12.044324,17.0393359 12.044324,18.9896192 L12.044324,18.9896192 Z" id="path9" fill="#FE6D01"></path><path d="M122.922326,11.4892692 C125.05622,8.6830619 127.254778,6.0089114 129.324009,3.23571819 C130.520283,1.65103641 131.942879,0.528553488 133.947447,0.297454059 C137.439274,-0.0657021818 140.801774,3.23571819 140.54312,6.80125229 C140.413793,8.45196247 139.767158,9.83855903 138.764875,11.0930988 C136.727975,13.569164 134.658745,16.0122151 132.589514,18.4552662 C132.298528,18.8184224 132.298528,19.0165077 132.589514,19.3466497 C134.820403,21.8557292 136.986629,24.4308371 139.185187,26.9399165 C140.381461,28.3265131 141.060427,29.8781807 140.995764,31.7269761 C140.866437,35.6886795 136.954298,38.7590005 133.365475,37.6695318 C132.13687,37.3063755 131.134586,36.5470488 130.326293,35.5236085 C127.998408,32.6183596 125.60586,29.7461239 123.342639,26.7748455 C123.245643,26.6427887 123.148648,26.5107319 123.019321,26.3456609 C122.792999,26.4777177 122.889994,26.6758029 122.889994,26.8078597 C122.889994,28.5576125 122.922326,30.2743511 122.857663,32.0241039 C122.760667,35.5566227 120.303456,38.032688 116.940956,38 C113.546124,38 111.024249,35.5236085 111.024249,32.0241039 C110.991917,23.3413683 110.991917,14.6256186 111.024249,5.94288299 C111.056581,2.4433773 113.610787,-0.0326879781 116.973287,0 C120.335788,0.0333404293 122.760667,2.4433773 122.857663,5.94288299 C122.954658,7.85770681 122.922326,9.67348801 122.922326,11.4892692 L122.922326,11.4892692 Z" id="path11" fill="#FE6D01"></path><path d="M67.9815618,15.5218261 C67.9495707,17.8991326 68.0775349,20.8707659 67.9175797,23.8093809 C67.533687,31.1063914 62.2551625,36.8845661 55.2171299,37.8090742 C52.0820063,38.205292 49.0428558,38.0402013 46.0996785,36.7855117 C40.8531451,34.5732958 37.97395,30.4460285 37.1741735,24.733889 C37.0782004,24.0074898 37.0462093,23.2480724 37.0142182,22.4886551 C37.0142182,17.0406608 36.9822272,11.6256847 37.0142182,6.17769048 C37.0462093,2.54569422 39.5095207,-0.029721238 42.9005728,0.00329690894 C46.3236159,0.0363150558 48.7549363,2.61173052 48.7549363,6.30976307 C48.7549363,11.4275758 48.7549363,16.5784068 48.7549363,21.6962195 C48.7549363,23.4131632 49.3307753,24.7999253 50.8663461,25.5923609 C53.2656754,26.8470504 55.9529242,25.0970887 56.2088527,22.2245099 C56.2408437,21.8613103 56.2408437,21.4650925 56.2408437,21.1018929 C56.2408437,16.1161527 56.2408437,11.0973944 56.2408437,6.11165419 C56.2408437,2.84285755 58.3842446,0.366496528 61.4873771,0.0363150558 C64.5585186,-0.293866413 67.1817853,1.65420426 67.8216065,4.79092831 C67.9175797,5.28620052 67.9495707,5.78147272 67.9495707,6.30976307 C67.9815618,9.18234185 67.9815618,12.0549206 67.9815618,15.5218261 L67.9815618,15.5218261 Z" id="path13" fill="#FE6D01"></path><path d="M145.014548,18.9666292 C145.014548,14.6460119 144.981815,10.3583764 145.014548,6.03775906 C145.047281,3.53114138 146.094747,1.5852144 148.418811,0.595760053 C150.808342,-0.426676105 153.132407,-0.162821616 155.129138,1.61819621 C156.34027,2.67361418 156.962203,4.12481399 156.962203,5.70794095 C156.994936,14.5800483 157.027669,23.4191738 156.962203,32.2912811 C156.92947,35.6224431 154.212606,38.0960789 150.939276,37.9971335 C147.502279,37.8981881 145.047281,35.4905158 145.014548,32.0933902 C144.981815,27.7068093 145.014548,23.3532101 145.014548,18.9666292 Z" id="path15" fill="#FE6D01"></path><path d="M199.009789,8.48151878 C198.977739,7.03885394 199.009789,5.62824831 199.33028,4.21764268 C199.971263,1.26819446 202.439049,-0.398884908 205.483719,0.0820033575 C208.400193,0.530832424 210.259044,2.93527383 209.970602,5.88472206 C209.714208,8.32122269 209.041176,10.6615457 208.079701,12.905691 C207.502816,14.2201189 206.637489,15.2780732 205.227326,15.7589614 C202.919786,16.5283827 200.516099,15.40631 199.650772,13.0980463 C199.073887,11.6233222 199.041838,10.0524205 199.009789,8.48151878 L199.009789,8.48151878 Z" id="path17" fill="#F40290"></path></g></g></g></svg> 