<?xml version="1.0" encoding="UTF-8"?> <svg xmlns="http://www.w3.org/2000/svg" xmlns:xlink="http://www.w3.org/1999/xlink" width="212px" height="36px" viewBox="0 0 212 36" version="1.1"><title>facebook-logo</title><g id="How-to-Post" stroke="none" stroke-width="1" fill="none" fill-rule="evenodd"><g id="Desktop-HD-Copy" transform="translate(-89.000000, -2060.000000)"><g id="facebook-logo" transform="translate(87.000000, 2060.000000)"><path d="M56.9304763,5.21473965 C54.9285371,5.21473965 54.3279553,6.09723405 54.3279553,8.06278976 L54.3279553,11.3119737 L59.6931525,11.3119737 L59.1726483,16.6069401 L54.3279553,16.6069401 L54.3279553,32.6121795 L47.8817109,32.6121795 L47.8817109,16.6069401 L43.5575221,16.6069401 L43.5575221,11.3520871 L47.8817109,11.3520871 L47.8817109,8.18312991 C47.8817109,2.80793673 50.0438053,0 56.0095843,0 C57.2507866,0 58.5320278,0.0802267638 59.7732301,0.240680291 L59.7732301,5.21473965" id="_Path_" fill="#191919" fill-rule="nonzero"></path><path d="M60.0500101,21.3178978 C60.0500101,15.3935481 62.8538141,10.9102564 68.7818567,10.9102564 C71.9862041,10.9102564 73.9488669,12.5514614 74.9101711,14.6329897 L74.9101711,11.3906091 L81.0785398,11.3906091 L81.0785398,32.6462152 L74.8701168,32.6462152 L74.8701168,29.443864 C73.9889212,31.4853629 71.9461498,33.0865385 68.7418024,33.0865385 C62.8538141,33.0865385 60.0099558,28.6432762 60.0099558,22.6788971 M66.4987592,22.7589558 C66.4987592,25.9212777 67.6603351,28.0428353 70.6644108,28.0428353 C73.3079974,28.0428353 74.6297907,26.1214246 74.6297907,23.079191 L74.6297907,20.9176039 C74.6297907,17.8753703 73.2679431,15.9539595 70.6644108,15.9539595 C67.6603351,15.9539595 66.4987592,18.0354878 66.4987592,21.237839 L66.4987592,22.7589558 L66.4987592,22.7589558 Z" id="_Compound_Path_" fill="#191919" fill-rule="nonzero"></path><path d="M94.4330752,10.9102564 C96.9192478,10.9102564 99.3252212,11.4306385 100.608407,12.3513144 L99.164823,16.9146649 C97.8415376,16.2741947 96.357854,15.9539595 94.8741704,15.9539595 C91.3855088,15.9539595 89.8617257,17.955429 89.8617257,21.3979566 L89.8617257,22.6388677 C89.8617257,26.0813952 91.3855088,28.0828647 94.8741704,28.0828647 C96.357854,28.0828647 97.8415376,27.7226002 99.164823,27.08213 L100.608407,31.6454804 C99.3252212,32.526127 96.9593473,33.0865385 94.4330752,33.0865385 C86.8542588,33.0865385 83.4457965,29.0435701 83.4457965,22.5187795 L83.4457965,21.5180448 C83.4457965,14.9932542 86.8542588,10.9102564 94.4330752,10.9102564" id="_Path_2" fill="#191919" fill-rule="nonzero"></path><path d="M101.436947,22.7775641 L101.436947,20.8995726 C101.436947,14.8660256 104.884413,10.9102564 111.899605,10.9102564 C118.513928,10.9102564 121.440265,14.9059829 121.440265,20.8196581 L121.440265,24.2160256 L107.890923,24.2160256 C108.011184,27.132906 109.334049,28.4115385 112.901775,28.4115385 C115.22681,28.4115385 117.551845,27.9720085 119.756619,27.132906 L120.919137,31.5282051 C119.235491,32.407265 115.747938,33.0865385 112.661254,33.0865385 C104.483545,33.0465812 101.436947,29.0108974 101.436947,22.7775641 M107.890923,19.9805556 L115.667765,19.9805556 L115.667765,19.4611111 C115.667765,17.1435897 114.745768,15.3055556 111.899605,15.3055556 C109.013354,15.3055556 107.890923,17.1435897 107.890923,19.9805556" id="_Compound_Path_2" fill="#191919" fill-rule="nonzero"></path><path d="M145.191219,22.6713906 C145.191219,28.6000132 142.352968,33.0865385 136.436613,33.0865385 C133.238583,33.0865385 130.999962,31.484208 130.120504,29.4412367 L130.120504,32.6458976 L124.044248,32.6458976 L124.044248,0.679405396 L130.480283,0.118589744 L130.480283,14.3392724 C131.399716,12.4565341 133.478435,10.9343202 136.476588,10.9343202 C142.352968,10.9343202 145.231195,15.3807871 145.231195,21.349468 M138.755185,21.189235 C138.755185,18.1848654 137.595899,15.9416028 134.517795,15.9416028 C131.879421,15.9416028 130.480283,17.8243411 130.480283,20.8687689 L130.480283,23.1120315 C130.480283,26.1564593 131.919396,28.0391976 134.517795,28.0391976 C137.595899,28.0391976 138.755185,25.795935 138.755185,22.7915654 L138.755185,21.189235 Z" id="_Compound_Path_3" fill="#191919" fill-rule="nonzero"></path><path d="M147.361726,22.4211817 L147.361726,21.3384337 C147.361726,15.202862 150.833254,10.7916667 157.896018,10.7916667 C164.958782,10.7916667 168.43031,15.202862 168.43031,21.3384337 L168.43031,22.4211817 C168.43031,28.5567534 164.958782,32.9679487 157.896018,32.9679487 C150.833254,32.9679487 147.361726,28.5968551 147.361726,22.4211817 M162.04589,20.8973142 C162.04589,18.0901899 160.888714,15.8444904 157.896018,15.8444904 C154.903321,15.8444904 153.746145,18.0901899 153.746145,20.8973142 L153.746145,22.902403 C153.746145,25.7095273 154.903321,27.9552267 157.896018,27.9552267 C160.888714,27.9552267 162.04589,25.7095273 162.04589,22.902403 L162.04589,20.8973142 L162.04589,20.8973142 Z" id="_Compound_Path_4" fill="#191919" fill-rule="nonzero"></path><path d="M170.679204,22.4211817 L170.679204,21.3384337 C170.679204,15.202862 174.150732,10.7916667 181.213496,10.7916667 C188.27626,10.7916667 191.747788,15.202862 191.747788,21.3384337 L191.747788,22.4211817 C191.747788,28.5567534 188.27626,32.9679487 181.213496,32.9679487 C174.150732,32.9679487 170.679204,28.5968551 170.679204,22.4211817 M185.363368,20.8973142 C185.363368,18.0901899 184.206192,15.8444904 181.213496,15.8444904 C178.220799,15.8444904 177.063623,18.0901899 177.063623,20.8973142 L177.063623,22.902403 C177.063623,25.7095273 178.220799,27.9552267 181.213496,27.9552267 C184.206192,27.9552267 185.363368,25.7095273 185.363368,22.902403 L185.363368,20.8973142 L185.363368,20.8973142 Z" id="_Compound_Path_5" fill="#191919" fill-rule="nonzero"></path><polyline id="_Path_3" fill="#191919" fill-rule="nonzero" points="200.529546 21.4606593 206.903957 11.2718603 213.719366 11.2718603 207.06432 21.8216798 214 32.6121795 207.144501 32.6121795 200.529546 22.1827002 200.529546 32.6121795 194.115044 32.6121795 194.115044 0.601700729 200.529546 0"></polyline><g id="facebook-3" stroke-width="1" fill-rule="evenodd" transform="translate(2.012168, 0.000000)"><ellipse id="Oval" fill="#191919" fill-rule="nonzero" cx="17.8136062" cy="17.8477564" rx="17.8136062" ry="17.8477564"></ellipse><path d="M23.655296,5.45512821 L19.71577,5.45512821 C17.3779239,5.45512821 14.7775795,6.44378918 14.7775795,9.8511874 C14.7889925,11.0384549 14.7775795,12.1755091 14.7775795,13.4551885 L12.0730088,13.4551885 L12.0730088,17.7825763 L14.8612746,17.7825763 L14.8612746,30.2403846 L19.9848503,30.2403846 L19.9848503,17.700365 L23.3665902,17.700365 L23.6725664,13.443045 L19.8965659,13.443045 C19.8965659,13.443045 19.9050199,11.5492094 19.8965659,10.9992315 C19.8965659,9.65270231 21.2900345,9.72981337 21.3738504,9.72981337 C22.0369497,9.72981337 23.3262523,9.73175633 23.6572283,9.72981337 L23.6572283,5.45512821 L23.655296,5.45512821 L23.655296,5.45512821 Z" id="Path" fill="#FFFFFF" fill-rule="nonzero"></path></g></g></g></g></svg> 