<?xml version="1.0" encoding="UTF-8"?> <svg xmlns="http://www.w3.org/2000/svg" xmlns:xlink="http://www.w3.org/1999/xlink" width="188px" height="44px" viewBox="0 0 188 44" version="1.1"><title>instagram-2</title><g id="How-to-Post" stroke="none" stroke-width="1" fill="none" fill-rule="evenodd"><g id="Desktop-HD-Copy" transform="translate(-97.000000, -882.000000)"><g id="instagram-2" transform="translate(97.000000, 881.000000)"><g stroke-width="1" transform="translate(47.165610, 4.897059)" fill="#131313" id="Shape"><path d="M7.20087491,0.137998098 C4.33722761,1.3380705 1.18909957,4.72414051 0.194829928,8.97763623 C-1.06437419,14.3652404 4.17567646,16.6435875 4.60545905,15.8977239 C5.11130727,15.0196969 3.66653128,14.7228592 3.36909817,11.9274019 C2.98476656,8.31681898 4.6626849,4.28241775 6.77462478,2.5122285 C7.16719879,2.18335118 7.14835901,2.64109375 7.14835901,3.48778794 C7.14835901,5.00213137 7.06475746,18.5939997 7.06475746,21.4309199 C7.06475746,25.2693141 6.90626777,26.4814013 6.62155152,27.6788823 C6.33306732,28.8926186 5.86960861,29.7126917 6.2207351,30.0288474 C6.61330912,30.3822256 8.28910798,29.5416566 9.2593569,28.1870401 C10.4227136,26.5624427 10.8298885,24.6113238 10.9031281,22.4924681 C10.9914396,19.9382504 10.9876717,15.8852379 10.9914396,13.5734376 C10.9949721,11.4531684 11.0269997,5.24454882 10.954231,1.51216816 C10.9365687,0.596683014 8.39861423,-0.363798961 7.20087491,0.137998098 Z M139.278835,20.3027011 C138.863418,20.3027011 138.674078,20.7309955 138.517237,21.4521226 C137.973002,23.9594588 137.40145,24.5253351 136.664108,24.5253351 C135.840339,24.5253351 135.099935,23.2837997 134.909889,20.7988441 C134.760348,18.8448982 134.784369,15.2472724 134.975593,11.6689647 C135.014685,10.9337024 134.811922,10.2062145 132.840574,9.48979905 C131.992313,9.18141767 130.759249,8.72791563 130.145307,10.210455 C128.410869,14.3989291 127.731931,17.7244537 127.572264,19.0748296 C127.564021,19.1447985 127.478536,19.1589336 127.463228,18.9956729 C127.361493,17.9138644 127.134003,15.947668 127.105743,11.8171479 C127.100327,11.01121 126.929591,10.3251851 126.040354,9.76354937 C125.463385,9.39886306 123.711285,8.75453679 123.080388,9.5213675 C122.534034,10.148496 121.900782,11.8362304 121.243038,13.8368222 C120.708459,15.4625976 120.336138,16.5625461 120.336138,16.5625461 C120.336138,16.5625461 120.342967,12.1752379 120.349561,10.5110621 C120.352387,9.88322679 119.921898,9.6737913 119.792139,9.63609763 C119.208106,9.46647609 118.056759,9.18306676 117.568338,9.18306676 C116.965229,9.18306676 116.817572,9.52018958 116.817572,10.0113853 C116.817572,10.0757001 116.722431,15.7877055 116.722431,19.7818216 C116.722431,19.9552125 116.722667,20.1446233 116.723373,20.3458133 C116.389909,22.1814953 115.308506,24.6735184 114.132432,24.6735184 C112.954946,24.6735184 112.399643,23.6317594 112.399643,18.8701058 C112.399643,16.0925531 112.483009,14.8844708 112.52375,12.8756335 C112.547771,11.7184376 112.593693,10.8295736 112.590867,10.6281481 C112.582153,10.0097362 111.513231,9.69805661 111.015861,9.58261973 C110.516135,9.46671167 110.081878,9.42147926 109.742762,9.44079727 C109.262819,9.4678896 108.923467,9.78286738 108.923467,10.2161091 C108.923467,10.4483963 108.926058,10.8898835 108.926058,10.8898835 C108.307877,9.91809344 107.313372,9.24172755 106.652096,9.04572043 C104.870323,8.51659546 103.011072,8.98564614 101.608685,10.9485443 C100.494076,12.5083557 99.8222025,14.2752468 99.557739,16.8134447 C99.3643958,18.6689159 99.427509,20.5507726 99.7710996,22.1421525 C99.3559178,23.937785 98.5851352,24.6735184 97.7411128,24.6735184 C96.5158203,24.6735184 95.6275244,22.6729266 95.7306723,19.2126471 C95.798731,16.9366559 96.2539473,15.3396219 96.7515531,13.0289996 C96.9637362,12.0437812 96.7913521,11.5283202 96.3589791,11.0340618 C95.9624016,10.5805598 95.1176728,10.3492149 93.9027421,10.6340377 C93.037525,10.8368768 91.8002221,11.0555001 90.6686576,11.223237 C90.6686576,11.223237 90.7369518,10.9506646 90.7930001,10.4700702 C91.0873718,7.94977681 88.3497156,8.154265 87.476256,8.95926056 C86.954865,9.43985493 86.5999705,10.0066736 86.4652661,11.0258163 C86.25167,12.642875 87.569984,13.4059364 87.569984,13.4059364 C87.1373754,15.3872102 86.076931,17.974881 84.9823395,19.8459009 C84.3959512,20.8483171 83.9470933,21.5911181 83.368241,22.3808006 C83.366086,22.0872645 83.364516,21.7937244 83.363531,21.5001821 C83.3501077,17.3352665 83.405685,14.0573302 83.4299412,12.8758691 C83.453962,11.7186732 83.5003549,10.8536034 83.497529,10.6521778 C83.4911705,10.1998537 83.2271781,10.0288186 82.6779983,9.81278673 C82.1924029,9.62149133 81.6182604,9.48909229 81.0226877,9.44291754 C80.2712158,9.38449234 79.818119,9.78310296 79.8301294,10.2547451 C79.8324843,10.3437964 79.8324843,10.8905903 79.8324843,10.8905903 C79.2143039,9.9188002 78.2197988,9.2424343 77.5585223,9.04642719 C75.7767497,8.51730222 73.9174984,8.98635289 72.5151119,10.9492511 C71.4007386,12.5090625 70.6709325,14.6978871 70.4641658,16.7945978 C70.271529,18.7487793 70.3070891,20.4094213 70.5696686,21.8083279 C70.2863654,23.2091191 69.4717802,24.6739896 68.5507502,24.6739896 C67.3732636,24.6739896 66.7032738,23.6322306 66.7032738,18.870577 C66.7032738,16.0930243 66.7866398,14.8851776 66.8273809,12.8761046 C66.8514016,11.7189088 66.8973236,10.8300448 66.8944976,10.6286192 C66.8857842,10.0102074 65.8168619,9.69852778 65.3194916,9.5830909 C64.7990425,9.46247114 64.3497137,9.41841665 64.0047101,9.44385988 C63.5492583,9.47778419 63.229453,9.88534706 63.229453,10.1894879 L63.229453,10.8905903 C62.6112725,9.9188002 61.6167674,9.2424343 60.9554909,9.04642719 C59.1737183,8.51730222 57.3248289,8.99389163 55.9120805,10.9492511 C54.9908151,12.2242396 54.2449951,13.6377525 53.8611345,16.7667987 C53.7502152,17.6709758 53.7012318,18.5179056 53.7075902,19.3092372 C53.3402144,21.5567226 51.7178735,24.1469849 50.3903751,24.1469849 C49.613705,24.1469849 48.8740079,22.6401802 48.8740079,19.4284434 C48.8740079,15.1502112 49.1389424,9.0591488 49.1834514,8.47206981 C49.1834514,8.47206981 50.8604277,8.44356396 51.1851785,8.4397946 C52.0219005,8.43060676 52.7794953,8.45039594 53.8933976,8.39338426 C54.4522327,8.36487841 54.9905796,6.35863252 54.4138467,6.11032543 C54.1526801,5.99795116 52.3049682,5.89947644 51.5728071,5.88392779 C50.9569816,5.87002825 49.2423257,5.74304768 49.2423257,5.74304768 C49.2423257,5.74304768 49.3961055,1.69992979 49.4321366,1.27281332 C49.4625157,0.916608087 49.0021185,0.733558174 48.738126,0.622126245 C48.0959248,0.35073178 47.5217824,0.220453013 46.8409597,0.0800440712 C45.9003834,-0.114078359 45.4734268,0.0758035326 45.3902962,0.870197749 C45.2647762,2.07521745 45.1997789,5.60570135 45.1997789,5.60570135 C44.5093008,5.60570135 42.1517372,5.47071087 41.4612591,5.47071087 C40.8195289,5.47071087 40.1274023,8.23059469 41.0142852,8.264519 C42.034695,8.30409736 43.8129352,8.33825726 44.9918348,8.37383066 C44.9918348,8.37383066 44.9393189,14.5654881 44.9393189,16.4770286 C44.9393189,16.6803389 44.9400254,16.8761104 44.9414383,17.0662279 C44.2926433,20.4492353 42.0071419,22.2766718 42.0071419,22.2766718 C42.4979183,20.0386098 41.4954062,18.357943 39.6898483,16.9352424 C39.0243329,16.4108291 37.7111999,15.4185431 36.2416967,14.3308449 C36.2416967,14.3308449 37.092784,13.4916895 37.8475529,11.8032484 C38.3823673,10.6074165 38.405446,9.23890052 37.0925485,8.93711553 C34.9238538,8.43838108 33.1352517,10.0316456 32.6018503,11.7328083 C32.1885525,13.0509091 32.408978,14.0285888 33.2186177,15.0446689 C33.2777276,15.1188784 33.3417828,15.1945013 33.4079576,15.270831 C32.9183587,16.214822 32.2457784,17.4858056 31.6761104,18.4714952 C30.0947459,21.2080561 28.9005391,23.3726154 27.9976424,23.3726154 C27.2760786,23.3726154 27.2859695,21.1750741 27.2859695,19.1174706 C27.2859695,17.3437476 27.416906,14.67692 27.5214668,11.9158583 C27.5560849,11.002729 27.0994556,10.4825562 26.3343249,10.0113853 C25.8694532,9.72514894 24.877303,9.16233524 24.3029251,9.16233524 C23.4428889,9.16233524 20.9614537,9.27942122 18.6168425,16.0640473 C18.3212934,16.9192225 17.7407925,18.4773849 17.7407925,18.4773849 L17.790718,10.3185887 C17.790718,10.1272933 17.6887476,9.94212316 17.4556053,9.81561376 C17.0604408,9.60123098 16.0051773,9.16233524 15.0669561,9.16233524 C14.6199822,9.16233524 14.3967307,9.37035722 14.3967307,9.78498765 L14.3147777,22.5497154 C14.3147777,23.5196207 14.3399759,24.6511378 14.4360588,25.1458673 C14.5314352,25.6415391 14.6861569,26.0443903 14.8778517,26.2842163 C15.0690755,26.5235711 15.290443,26.7061499 15.6554638,26.7815372 C15.995051,26.8515061 17.8547732,27.0903898 17.9515626,26.3793928 C18.0674273,25.5272802 18.0716662,24.6056698 19.0482736,21.1684777 C20.5686442,15.8171537 22.5508251,13.2061599 23.4829234,12.2788955 C23.6456521,12.1168127 23.831695,12.1071537 23.8227461,12.3724229 C23.7831825,13.545403 23.6432971,16.4772642 23.5488627,18.9678738 C23.2964096,25.633058 24.5085142,26.8684683 26.2405969,26.8684683 C27.5657403,26.8684683 29.433705,25.5510743 31.4361386,22.2170687 C32.6842743,20.1392048 33.896379,18.1018616 34.7674836,16.6334574 C35.3743601,17.1955643 36.0551828,17.8003122 36.7360056,18.4465232 C38.3176055,19.948145 38.8368771,21.3750862 38.4923445,22.7287603 C38.228823,23.7636873 37.2364374,24.8301827 35.4702075,23.7936067 C34.9554104,23.4913505 34.7354559,23.2576497 34.2180683,22.9165219 C33.939946,22.733472 33.5155799,22.6785806 33.2610073,22.8705828 C32.5994953,23.3693172 32.2212866,24.0039845 32.0053356,24.7894265 C31.795272,25.5536657 32.5604028,25.9576948 33.3535577,26.311073 C34.0364999,26.6152139 35.5043546,26.8908489 36.4404564,26.9221817 C40.0876033,27.044215 43.0096539,25.1604736 45.0434087,20.3012876 C45.407723,24.4977716 46.9570598,26.8724732 49.6495006,26.8724732 C51.4494065,26.8724732 53.2540224,24.5451243 54.0431739,22.2554691 C54.2697223,23.1888587 54.6050705,24.0002151 55.03815,24.6867112 C57.1126458,27.9747776 61.1370594,27.2670789 63.1585683,24.4751554 C63.7833426,23.6124414 63.8787191,23.3021754 63.8787191,23.3021754 C64.1735617,25.9386124 66.2958634,26.8599872 67.5110296,26.8599872 C68.8719685,26.8599872 70.277181,26.2163677 71.2620307,23.9983304 C71.3749086,24.2350111 71.5014265,24.4649367 71.6409459,24.6869468 C73.7154417,27.9750132 77.7398552,27.2673145 79.7613641,24.475391 C79.8565051,24.3441699 79.9394001,24.2254348 80.0114623,24.1187146 L80.0708076,25.850739 L78.2099079,27.5582625 C75.090275,30.4185058 72.7202301,32.5880124 72.5459621,35.114431 C72.3243591,38.3358268 74.9343758,39.5330721 76.9118467,39.6899721 C79.0082438,39.856531 80.8067367,38.6969793 81.9107481,37.074031 C82.8821745,35.6459118 83.5177817,32.571757 83.4713888,29.5352958 C83.4527845,28.3194392 83.4221698,26.7735273 83.3979136,25.1164191 C84.4929761,23.8442575 85.726982,22.2361511 86.8627855,20.3542943 C88.1010304,18.3030516 89.4278222,15.5488218 90.1069965,13.4052296 C90.1069965,13.4052296 91.2597558,13.4151242 92.4899938,13.334554 C92.8835098,13.3088752 92.996313,13.3889742 92.9237798,13.677802 C92.8359393,14.0262329 91.3694976,19.6847604 92.7078288,23.454128 C93.6239133,26.0344957 95.6889892,26.8646989 96.9133397,26.8646989 C98.3465764,26.8646989 99.7174062,25.781948 100.452158,24.1740772 C100.540705,24.3533577 100.633491,24.5267486 100.734284,24.6869468 C102.808779,27.9750132 106.819063,27.2633095 108.854702,24.475391 C109.313922,23.8463778 109.574853,23.3024109 109.574853,23.3024109 C110.0117,26.0309619 112.132824,26.8738867 113.347755,26.8738867 C114.613318,26.8738867 115.814354,26.3548919 116.788606,24.0482746 C116.829347,25.0641191 116.893403,25.8943223 116.994666,26.1560578 C117.056367,26.3162559 117.415971,26.5172103 117.677609,26.6142715 C118.835313,27.0435083 120.016097,26.8406692 120.452944,26.7523246 C120.755558,26.6910724 120.991527,26.4481838 121.02379,25.8210552 C121.108333,24.1743128 121.056524,21.407597 121.555543,19.3511714 C122.393207,15.9003154 123.174587,14.5614831 123.54526,13.8990168 C123.752733,13.5277341 123.986817,13.4664818 123.995295,13.8594384 C124.012486,14.6545394 124.05205,16.989427 124.376801,20.1264832 C124.615124,22.4335717 124.933281,23.797376 125.177962,24.2289686 C125.876212,25.4629653 126.738603,25.5213905 127.440856,25.5213905 C127.887359,25.5213905 128.821812,25.3981793 128.738211,24.6127373 C128.69747,24.229911 128.768825,21.863926 129.594714,18.4641921 C130.134003,16.2440346 131.033132,14.2382599 131.357412,13.5046467 C131.477044,13.2341946 131.532622,13.4473994 131.530738,13.4888625 C131.462444,15.0178122 131.309135,20.0188206 131.93179,22.753968 C132.775812,26.4594919 135.217213,26.8738867 136.068065,26.8738867 C137.884455,26.8738867 139.369972,25.4917067 139.870404,21.8547382 C139.992156,20.9785958 139.813649,20.3027011 139.278835,20.3027011 L139.278835,20.3027011 Z M63.1922444,18.0542734 C63.0881546,19.9790067 62.7127719,21.5880555 62.1103698,22.756795 C61.0204882,24.872117 58.8640393,25.5428288 57.9133367,22.4863429 C57.227804,20.2824408 57.4611819,17.2770769 57.7463691,15.653893 C58.1695578,13.2445603 59.2292957,11.5365656 60.8836643,11.6984129 C62.5830129,11.8647362 63.4091374,14.0493203 63.1922444,18.0542734 L63.1922444,18.0542734 Z M79.7950403,18.0820724 C79.6980154,19.8996144 79.2270208,21.7254018 78.7131656,22.7570306 C77.6524857,24.8869588 75.4350431,25.5527234 74.5161326,22.4865784 C73.8878257,20.3915168 74.0383085,17.6801636 74.349165,15.9719334 C74.7525719,13.755074 75.7303567,11.6986484 77.4864601,11.6986484 C79.1938156,11.6984129 80.0357185,13.5722597 79.7950403,18.0820724 L79.7950403,18.0820724 Z M80.2283553,30.4821138 C80.2052766,33.7977438 79.6838855,36.7048685 78.5652733,37.5492069 C76.9787279,38.7464522 74.8462998,37.8484004 75.2878572,35.4289376 C75.6785473,33.2879368 77.5262592,31.101468 80.2330653,28.4299288 C80.2328298,28.4299288 80.2384817,29.0391528 80.2283553,30.4821138 L80.2283553,30.4821138 Z M108.888849,18.1013904 C108.796534,20.0967994 108.354977,21.6566108 107.806974,22.756795 C106.746059,24.8867233 104.544395,25.5480117 103.609941,22.4863429 C103.100561,20.8174554 103.076775,18.030008 103.442974,15.7010101 C103.815766,13.3286643 104.856664,11.5365656 106.580269,11.6984129 C108.280324,11.8579042 109.076069,14.0493203 108.888849,18.1013904 L108.888849,18.1013904 Z" fill-rule="nonzero"></path></g><ellipse id="Oval" fill="#131313" cx="21.5292459" cy="22.0367647" rx="20.7343199" ry="20.7132353"></ellipse><g id="instagram-glyph-1" stroke-width="1" transform="translate(8.081748, 8.602941)" fill="#FFFFFF"><path d="M8.78941347,13.1691176 C8.78941347,10.7448512 10.7562231,8.77905718 13.1830553,8.77905718 C15.6098876,8.77905718 17.5777621,10.7448512 17.5777621,13.1691176 C17.5777621,15.5933841 15.6098876,17.5591781 13.1830553,17.5591781 C10.7562231,17.5591781 8.78941347,15.5933841 8.78941347,13.1691176 M6.41369485,13.1691176 C6.41369485,16.9039135 9.44430677,19.9313213 13.1830553,19.9313213 C16.9218039,19.9313213 19.9524158,16.9039135 19.9524158,13.1691176 C19.9524158,9.43432184 16.9218039,6.40691402 13.1830553,6.40691402 C9.44430677,6.40691402 6.41369485,9.43432184 6.41369485,13.1691176 M18.6383698,6.13885121 C18.6383698,7.0111191 19.3465064,7.71957082 20.2207623,7.71957082 C21.0939534,7.71957082 21.8031549,7.0111191 21.8031549,6.13885121 C21.8031549,5.26658332 21.0950183,4.55919533 20.2207623,4.55919533 C19.3465064,4.55919533 18.6383698,5.26658332 18.6383698,6.13885121 M7.85658984,23.888439 C6.57129519,23.8299332 5.87274234,23.6161212 5.40846026,23.4352852 C4.79296705,23.1959434 4.35424178,22.9108607 3.89208944,22.4502607 C3.43100196,21.9896607 3.1445527,21.5513993 2.90602246,20.9365568 C2.72499504,20.4727656 2.51095674,19.7749513 2.45238905,18.4910155 C2.38849702,17.1028331 2.37571862,16.6858465 2.37571862,13.1691176 C2.37571862,9.65238881 2.38956189,9.23646596 2.45238905,7.84721978 C2.51095674,6.563284 2.72605991,5.86653343 2.90602246,5.40167847 C3.14561757,4.78683598 3.43100196,4.34857455 3.89208944,3.88691081 C4.35317692,3.42631082 4.79190218,3.1401644 5.40846026,2.90188634 C5.87274234,2.72105032 6.57129519,2.50723831 7.85658984,2.44873254 C9.24624148,2.38490806 9.6636694,2.37214316 13.1830553,2.37214316 C16.7035061,2.37214316 17.1198692,2.3859718 18.5105857,2.44873254 C19.7958803,2.50723831 20.4933683,2.72211406 20.9587153,2.90188634 C21.5742085,3.1401644 22.0129338,3.42631082 22.4750861,3.88691081 C22.9361736,4.34751081 23.221558,4.78683598 23.4611531,5.40167847 C23.6421805,5.86546969 23.8562188,6.563284 23.9147865,7.84721978 C23.9786785,9.23646596 23.9914569,9.65238881 23.9914569,13.1691176 C23.9914569,16.6847827 23.9786785,17.1017693 23.9147865,18.4910155 C23.8562188,19.7749513 23.6411156,20.4727656 23.4611531,20.9365568 C23.221558,21.5513993 22.9361736,21.9896607 22.4750861,22.4502607 C22.0139986,22.9108607 21.5742085,23.1959434 20.9587153,23.4352852 C20.4944332,23.6161212 19.7958803,23.8299332 18.5105857,23.888439 C17.1209341,23.9522635 16.7035061,23.9650284 13.1830553,23.9650284 C9.6636694,23.9650284 9.24624148,23.9522635 7.85658984,23.888439 M7.7479734,0.0797805996 C6.34447849,0.143605079 5.38609805,0.365927017 4.5480476,0.691431864 C3.68124574,1.02757412 2.94648741,1.47860045 2.21279394,2.21045448 C1.48016534,2.94230851 1.02866167,3.67629003 0.692163649,4.54323921 C0.3663143,5.38040364 0.143757065,6.33777084 0.0798650364,7.73978191 C0.0149081401,9.14392046 0,9.5928193 0,13.1691176 C0,16.745416 0.0149081401,17.1943148 0.0798650364,18.5984534 C0.143757065,20.0004645 0.3663143,20.9578317 0.692163649,21.7949961 C1.02866167,22.6608815 1.47910047,23.3959268 2.21279394,24.1277808 C2.94542254,24.8596348 3.68018088,25.3095974 4.5480476,25.6468034 C5.38716292,25.9723083 6.34447849,26.1946302 7.7479734,26.2584547 C9.1546629,26.3222792 9.60297197,26.3382353 13.1830553,26.3382353 C16.7642036,26.3382353 17.2125126,26.3233429 18.6181373,26.2584547 C20.0216322,26.1946302 20.9800126,25.9723083 21.8180631,25.6468034 C22.6848649,25.3095974 23.4196233,24.8596348 24.1533167,24.1277808 C24.8859453,23.3959268 25.3363841,22.6608815 25.673947,21.7949961 C25.9997964,20.9578317 26.2234185,20.0004645 26.2862456,18.5984534 C26.3501377,17.1932511 26.3650458,16.745416 26.3650458,13.1691176 C26.3650458,9.5928193 26.3501377,9.14392046 26.2862456,7.73978191 C26.2223536,6.33777084 25.9997964,5.38040364 25.673947,4.54323921 C25.3363841,3.67735377 24.8859453,2.94337226 24.1533167,2.21045448 C23.4206881,1.47860045 22.6848649,1.02757412 21.8191279,0.691431864 C20.9800126,0.365927017 20.0216322,0.142541338 18.6192021,0.0797805996 C17.2135775,0.0159561199 16.7642036,0 13.1841202,0 C9.60297197,0 9.1546629,0.0148923786 7.7479734,0.0797805996" id="Shape" fill-rule="nonzero"></path></g></g></g></g></svg> 