<?xml version="1.0" encoding="UTF-8"?> <svg xmlns="http://www.w3.org/2000/svg" id="Layer_1" data-name="Layer 1" viewBox="0 0 98.03 49.88"><defs><style>.cls-1{fill:#ff5050;stroke:#070707;stroke-miterlimit:10;}</style></defs><rect class="cls-1" x="2.94" y="1.66" width="91.29" height="46.15" rx="3.69"></rect><path d="M26.88,31.37a28.35,28.35,0,0,1,4.26-.7c1.76-.13,2.69.54,3.1,1.53.16.39.1.71-.64.71a35.46,35.46,0,0,0-6.75,1.25c-.93.22-1.35.22-1.79-.42a7.84,7.84,0,0,1-.87-1.38,2.49,2.49,0,0,1,.1-1.95,116.34,116.34,0,0,1,8.8-16.19c.51-.7.89-.48,1.21.1a3.06,3.06,0,0,1,.29,1.31A7.06,7.06,0,0,1,33.5,19C30.72,24.05,28.64,27.63,26.88,31.37Z"></path><path d="M44.13,14c.51-.74,1-.64,1.34,0a2.92,2.92,0,0,1,.29,1.28,8.35,8.35,0,0,1-1.22,3.71c-1.95,3.46-5.5,9.7-7.71,14.63-.25.6-.57.7-1.08.12a2.36,2.36,0,0,1-.58-1.69,7.28,7.28,0,0,1,.38-2A100.74,100.74,0,0,1,44.13,14Z"></path><path d="M47.18,29.49A140,140,0,0,1,58.92,14.06c.42-.41.77-.38,1,.07.51,1,.07,2.81-3.45,7.36-2.53,3.23-6.18,8.28-9.06,12.41-.35.51-.7.7-1.37.22a3.77,3.77,0,0,1-1.61-3.32c0-.32,0-.68.07-1.06a83.68,83.68,0,0,1,3.26-15.29c.35-.84.77-.9,1.28-.26a3.58,3.58,0,0,1,.71,2.14,11.51,11.51,0,0,1-.32,2.47C48.68,22,47.94,25.32,47.18,29.49Z"></path><path d="M55,30.73A87.89,87.89,0,0,1,62.15,17a2.74,2.74,0,0,1-1.28-1.6c-.09-.45.26-.64.74-.64a30,30,0,0,0,5-.45A20.62,20.62,0,0,1,69.42,14a2.44,2.44,0,0,1,2.68,1.66c.13.36-.09.64-.7.64a26.37,26.37,0,0,0-4.83.61c-.48.1-.8.16-1.28.23-1.06,1.6-2.53,4.25-4,7,.67-.09,1.21-.13,1.66-.16,1.76-.06,2.59.51,3,1.54.16.41.09.73-.64.73a25.48,25.48,0,0,0-5.54.83c-.9,1.7-1.57,3-2.21,4.45a28.84,28.84,0,0,1,4.35-.77c1.73-.06,2.63.45,3,1.51.16.45.07.7-.61.7a33.49,33.49,0,0,0-6.88,1.28c-.76.23-1.28.23-1.69-.38-.23-.32-.45-.83-.8-1.41C54.6,32,54.67,31.63,55,30.73Z"></path></svg> 