<?xml version="1.0" encoding="UTF-8"?> <svg xmlns="http://www.w3.org/2000/svg" id="Layer_1" data-name="Layer 1" viewBox="0 0 84.3 84.3"><defs><style>.cls-1{fill:#282828;}.cls-2{fill:#2ebd59;}</style></defs><circle class="cls-1" cx="42.15" cy="42.19" r="19.23"></circle><path class="cls-2" d="M42.15,19.09a23.06,23.06,0,1,0,23.1,23A23,23,0,0,0,42.15,19.09ZM52.67,52.32a1.4,1.4,0,0,1-2,.47c-5.39-3.32-12.27-4-20.26-2.21a1.46,1.46,0,0,1-.63-2.85c8.78-2,16.3-1.11,22.39,2.61A1.44,1.44,0,0,1,52.67,52.32Zm2.85-6.25a1.73,1.73,0,0,1-2.45.55c-6.17-3.8-15.67-4.91-22.95-2.69a1.78,1.78,0,0,1-1-3.4C37.48,38,47.85,39.18,55,43.61a1.85,1.85,0,0,1,.55,2.46Zm.24-6.57c-7.44-4.43-19.7-4.83-26.82-2.69a2.16,2.16,0,0,1-1.27-4.12c8.15-2.45,21.68-2,30.23,3.09a2.2,2.2,0,0,1,.79,2.93A2,2,0,0,1,55.76,39.5Z"></path></svg> 