<?xml version="1.0" encoding="UTF-8"?> <svg xmlns="http://www.w3.org/2000/svg" id="Layer_1" data-name="Layer 1" viewBox="0 0 84.3 84.3"><defs><style>.cls-1{fill:#0b0b0b;}.cls-2{fill:#fff;}.cls-3{fill:#1bc172;}</style></defs><g id="Marketing-Tools"><g id="Desktop-HD-Copy"><g id="Group-3"><ellipse id="Oval" class="cls-1" cx="42.01" cy="42.89" rx="25.87" ry="25.64"></ellipse><path class="cls-2" d="M29.73,41.5a4.19,4.19,0,0,0,3-1.27v1.09h1.65V30H32.69v7a2.79,2.79,0,0,1-2.77,3,2.74,2.74,0,0,1-2.75-3V30H25.46v7.08A4.2,4.2,0,0,0,29.73,41.5Z"></path><path class="cls-2" d="M37.45,40.26a4.16,4.16,0,0,0,2.92,1.24,4.33,4.33,0,0,0,.18-8.65c0,.06-.09.06-.15.06a4.21,4.21,0,0,0-2.92,1.21V30H35.85V41.32h1.6Zm2.8-5.9a2.86,2.86,0,0,1,2.86,2.84v0a2.85,2.85,0,1,1-2.86-2.87Z"></path><path class="cls-2" d="M49.88,41.56a4.38,4.38,0,0,0,3.56-1.76l-1.18-.87a3,3,0,0,1-2.38,1.21,2.76,2.76,0,0,1-2.71-2.36h6.66V37.2a4.1,4.1,0,0,0-4.1-4.29,4.24,4.24,0,0,0-4.21,4.29v0A4.27,4.27,0,0,0,49.88,41.56Zm-.18-7.23a2.57,2.57,0,0,1,2.5,2.12h-5A2.6,2.6,0,0,1,49.7,34.33Z"></path><path class="cls-2" d="M56.57,36.66a1.89,1.89,0,0,1,1.81-2.12l.66,0V33h-.57a2.16,2.16,0,0,0-1.93,1.06v-1h-1.6v8.29h1.63Z"></path><path class="cls-3" d="M48.89,52c-.48,0-.78-.22-.78-.67v-3.9h2.38V45.52H48.11V43.13H46v2.39H44.4v1.91H46v4.44a2,2,0,0,0,2.23,2h2.29L50.46,52Z"></path><path class="cls-3" d="M56.63,49l-1.81-.36c-1-.18-1.38-.4-1.38-.79S54,47,54.85,47s1.75.28,1.93,1.21h2.11c-.12-1.75-1.39-2.9-3.92-2.9-2.2,0-3.73.91-3.73,2.66,0,1.21.84,2,2.68,2.39l2,.46c.78.15,1,.36,1,.69,0,.52-.6.85-1.56.85-1.21,0-1.9-.27-2.17-1.21H51.09c.36,1.81,1.62,3,4.24,3,2.44,0,3.8-1.18,3.8-2.78C59.13,50.18,58.32,49.33,56.63,49Z"></path><path class="cls-3" d="M41.39,46.28a4.07,4.07,0,0,0-2.65-1,4.4,4.4,0,0,0-.21,8.8h.18a4.05,4.05,0,0,0,2.65-1v.75h2.11V45.52H41.39Zm.06,3.42a2.54,2.54,0,0,1-2.53,2.57,2.57,2.57,0,1,1,2.53-2.6Z"></path><polygon class="cls-3" points="25.55 53.87 33.47 53.87 33.47 51.94 27.69 51.94 27.69 49.12 33.32 49.12 33.32 47.25 27.69 47.25 27.69 44.49 33.47 44.49 33.47 42.56 25.55 42.56 25.55 53.87"></polygon></g></g></g></svg> 