<?xml version="1.0" encoding="UTF-8"?> <svg xmlns="http://www.w3.org/2000/svg" xmlns:xlink="http://www.w3.org/1999/xlink" width="817px" height="480px" viewBox="0 0 817 480"><title>Group 4</title><defs><polygon id="path-1" points="0 469.807595 661.617114 469.807595 661.617114 1.06839494 0 1.06839494"></polygon></defs><g id="Marketing-Tools" stroke="none" stroke-width="1" fill="none" fill-rule="evenodd"><g id="Desktop-HD-Copy" transform="translate(-313.000000, -1957.000000)"><g id="Group-4" transform="translate(313.000000, 1957.000000)"><rect id="Rectangle" fill="#141414" x="0" y="0" width="817" height="480"></rect><g id="uber-eats-thumb" transform="translate(75.000000, 0.000000)"><g id="Group-109"><polygon id="Fill-1" fill="#141414" points="0.298198198 469.633504 661.318915 469.633504 661.318915 1.49169873 0.298198198 1.49169873"></polygon><path d="M0,469.931605 L661.617114,469.931605 L661.617114,1.19240506 L0,1.19240506 L0,469.931605 Z M0.596396396,469.335403 L661.020717,469.335403 L661.020717,1.7898 L0.596396396,1.7898 L0.596396396,469.335403 Z" id="Fill-2" fill="#070707"></path><g id="Group-108" transform="translate(0.000000, 0.124010)"><path d="M438.757259,153.520959 C438.757259,137.040729 452.120116,123.681023 468.605706,123.681023 L468.605706,83.3431519 C468.605706,77.7984684 464.11007,73.3042937 458.56239,73.3042937 L199.745439,73.3042937 C194.198952,73.3042937 189.702124,77.7984684 189.702124,83.3431519 L189.702124,123.681023 C206.187713,123.681023 219.551763,137.040729 219.551763,153.520959 C219.551763,169.999997 206.187713,183.359704 189.702124,183.359704 L189.702124,223.698767 C189.702124,229.243451 194.198952,233.737625 199.745439,233.737625 L458.56239,233.737625 C464.11007,233.737625 468.605706,229.243451 468.605706,223.698767 L468.605706,183.359704 C452.120116,183.359704 438.757259,169.999997 438.757259,153.520959" id="Fill-3" fill="#FFFFFF"></path><path d="M189.999964,183.657209 L189.999964,223.698171 C189.999964,229.069956 194.37155,233.44012 199.745081,233.44012 L458.563225,233.44012 C463.936757,233.44012 468.308342,229.069956 468.308342,223.698171 L468.308342,183.657209 C451.82156,183.496234 438.458703,170.038751 438.458703,153.521556 C438.458703,137.001976 451.82156,123.544492 468.308342,123.383518 L468.308342,83.3437481 C468.308342,77.9719633 463.936757,73.6017987 458.563225,73.6017987 L199.745081,73.6017987 C194.37155,73.6017987 189.999964,77.9719633 189.999964,83.3437481 L189.999964,123.383518 C206.486746,123.544492 219.849604,137.001976 219.849604,153.521556 C219.849604,170.038751 206.486746,183.496234 189.999964,183.657209 M458.563225,234.036323 L199.745081,234.036323 C194.042339,234.036323 189.403568,229.397867 189.403568,223.698171 L189.403568,183.062199 L189.701766,183.062199 C205.996508,183.062199 219.253207,169.811001 219.253207,153.521556 C219.253207,137.230918 205.996508,123.978528 189.701766,123.978528 L189.403568,123.978528 L189.403568,83.3437481 C189.403568,77.6440519 194.042339,73.0055962 199.745081,73.0055962 L458.563225,73.0055962 C464.264775,73.0055962 468.904739,77.6440519 468.904739,83.3437481 L468.904739,123.978528 L468.606541,123.978528 C452.311798,123.978528 439.055099,137.230918 439.055099,153.521556 C439.055099,169.811001 452.311798,183.062199 468.606541,183.062199 L468.904739,183.062199 L468.904739,223.698171 C468.904739,229.397867 464.264775,234.036323 458.563225,234.036323" id="Fill-5" fill="#282828"></path><path d="M389.573283,143.058321 C393.660984,148.130812 393.660984,155.36871 389.573283,160.441202 L385.991326,164.88768 C383.85742,167.532434 382.773171,170.872361 382.941355,174.268331 L383.227625,179.965642 C383.549679,186.473789 379.297373,192.328498 373.004198,194.032445 L367.495881,195.520566 C364.212123,196.408908 361.372083,198.475346 359.510133,201.321617 L356.39098,206.098391 C352.826915,211.553645 345.943308,213.789404 339.851715,211.470176 L334.519932,209.437126 C331.339946,208.228027 327.828364,208.228027 324.648378,209.437126 L319.315402,211.470176 C313.225002,213.789404 306.340202,211.553645 302.77733,206.098391 L299.656984,201.321617 C297.796227,198.475346 294.954995,196.408908 291.672429,195.520566 L286.162919,194.032445 C279.870937,192.328498 275.617438,186.473789 275.940685,179.965642 L276.226955,174.268331 C276.395139,170.872361 275.31089,167.532434 273.176984,164.88768 L269.595027,160.441202 C265.507326,155.36871 265.507326,148.130812 269.595027,143.058321 L273.176984,138.613034 C275.31089,135.967088 276.395139,132.628353 276.226955,129.231191 L275.940685,123.53388 C275.617438,117.026926 279.870937,111.172217 286.162919,109.46827 L291.672429,107.978956 C294.954995,107.090614 297.796227,105.025369 299.656984,102.179098 L302.77733,97.402323 C306.340202,91.9458775 313.225002,89.710118 319.315402,92.0305382 L324.648378,94.0623965 C327.828364,95.2714952 331.339946,95.2714952 334.519932,94.0623965 L339.851715,92.0305382 C345.943308,89.710118 352.826915,91.9458775 356.39098,97.402323 L359.510133,102.179098 C361.372083,105.025369 364.212123,107.090614 367.495881,107.978956 L373.004198,109.46827 C379.297373,111.172217 383.549679,117.026926 383.227625,123.53388 L382.941355,129.231191 C382.773171,132.628353 383.85742,135.967088 385.991326,138.613034 L389.573283,143.058321 Z" id="Fill-7" fill="#E05FFF"></path><path d="M314.431989,91.4320666 C309.94351,91.4320666 305.577888,93.6594828 303.026504,97.5658018 L299.907351,102.341384 C298.002461,105.25443 295.105167,107.357832 291.749841,108.266445 L286.241524,109.755759 C280.130846,111.410817 275.923866,117.198751 276.238764,123.518498 L276.523841,129.215809 C276.696796,132.69167 275.589884,136.094794 273.409459,138.801554 L269.82631,143.245647 C265.855502,148.172665 265.855502,155.327095 269.82631,160.254113 L273.409459,164.699399 C275.591077,167.404966 276.696796,170.80809 276.523841,174.282759 L276.238764,179.981263 C275.923866,186.302202 280.130846,192.090136 286.241524,193.745194 L291.749841,195.233316 C295.105167,196.140736 298.002461,198.245331 299.907351,201.158376 L303.026504,205.935151 C306.486796,211.233007 313.292872,213.443726 319.209124,211.192465 L324.542101,209.158222 C327.793654,207.92289 331.374418,207.92289 334.625971,209.158222 L339.957755,211.192465 C345.874007,213.444918 352.680083,211.235392 356.140374,205.935151 L359.26072,201.158376 C361.166803,198.245331 364.062904,196.140736 367.417037,195.233316 L372.926547,193.745194 C379.036032,192.090136 383.241819,186.302202 382.929308,179.981263 L382.64423,174.282759 C382.471275,170.80809 383.578187,167.404966 385.759805,164.699399 L389.341762,160.254113 C393.312569,155.327095 393.312569,148.172665 389.341762,143.245647 L385.759805,138.801554 C383.578187,136.094794 382.471275,132.69167 382.64423,129.215809 L382.929308,123.518498 C383.241819,117.197559 379.036032,111.410817 372.926547,109.755759 L367.417037,108.266445 C364.062904,107.357832 361.16561,105.25443 359.26072,102.341384 L356.140374,97.5658018 C352.67889,92.2643689 345.874007,90.0560347 339.957755,92.3084878 L334.625971,94.3403461 C331.37561,95.5780625 327.794846,95.5780625 324.542101,94.3403461 L319.209124,92.3084878 C317.653722,91.7158625 316.03391,91.4320666 314.431989,91.4320666 M314.435567,212.663893 C309.749084,212.663893 305.19023,210.338703 302.527917,206.26187 L299.407571,201.485095 C297.582598,198.693675 294.808162,196.678511 291.594778,195.808055 L286.085268,194.319933 C279.706212,192.593331 275.315542,186.550222 275.64356,179.95026 L275.928637,174.252949 C276.093243,170.924946 275.034043,167.666103 272.94427,165.075007 L269.362313,160.628528 C265.216165,155.484493 265.216165,148.015268 269.362313,142.871232 L272.94427,138.425946 C275.034043,135.83485 276.093243,132.574814 275.928637,129.246812 L275.64356,123.549501 C275.315542,116.949538 279.706212,110.907622 286.085268,109.181019 L291.594778,107.691706 C294.808162,106.82125 297.583791,104.806085 299.407571,102.015857 L302.527917,97.2390828 C306.140886,91.7063233 313.246353,89.3978271 319.421441,91.7528271 L324.754418,93.7846853 C327.869992,94.9675511 331.299272,94.9675511 334.413654,93.7846853 L339.74663,91.7528271 C345.921719,89.3990195 353.027185,91.7075157 356.640155,97.2390828 L359.760501,102.015857 C361.585474,104.806085 364.35991,106.82125 367.573293,107.691706 L373.082803,109.181019 C379.460666,110.907622 383.852529,116.949538 383.525704,123.549501 L383.240627,129.246812 C383.074828,132.574814 384.134028,135.83485 386.223801,138.425946 L389.804565,142.871232 C393.950713,148.015268 393.950713,155.484493 389.804565,160.628528 L386.223801,165.075007 C384.134028,167.666103 383.074828,170.924946 383.240627,174.252949 L383.525704,179.95026 C383.852529,186.551414 379.460666,192.593331 373.082803,194.319933 L367.573293,195.808055 C364.35991,196.678511 361.585474,198.693675 359.760501,201.485095 L356.640155,206.26187 C353.027185,211.792245 345.919333,214.101933 339.74663,211.748126 L334.413654,209.715075 C331.298079,208.532209 327.8688,208.532209 324.754418,209.715075 L319.421441,211.748126 C317.796857,212.366984 316.107863,212.663893 314.435567,212.663893" id="Fill-9" fill="#070707"></path><path d="M314.432585,91.3534454 C309.917865,91.3534454 305.526001,93.5946159 302.960304,97.5223982 L299.841151,102.299173 C297.945803,105.195525 295.065209,107.288196 291.728967,108.190846 L286.22065,109.68016 C280.075382,111.344758 275.843353,117.164887 276.160636,123.523983 L276.445713,129.220102 C276.617475,132.675692 275.51772,136.059737 273.34803,138.750996 L269.764881,143.196282 C265.77141,148.15311 265.77141,155.348082 269.764881,160.303717 L273.34803,164.750196 C275.51772,167.440262 276.617475,170.824307 276.445713,174.279897 L276.160636,179.977208 C275.843353,186.33392 280.075382,192.156434 286.22065,193.821031 L291.728967,195.310345 C295.065209,196.211803 297.945803,198.304474 299.841151,201.202018 L302.960304,205.978793 C306.442066,211.307651 313.285119,213.531487 319.238347,211.265917 L324.571324,209.232867 C327.803792,208.002305 331.364279,208.002305 334.59794,209.231674 L339.929724,211.265917 C345.880567,213.531487 352.724812,211.308844 356.206574,205.978793 L359.32692,201.202018 C361.221075,198.304474 364.10167,196.211803 367.437911,195.310345 L372.947421,193.821031 C379.091497,192.156434 383.323526,186.33392 383.007436,179.976016 L382.722358,174.279897 C382.550596,170.824307 383.650351,167.441454 385.820041,164.750196 L389.401998,160.303717 C393.397854,155.348082 393.397854,148.15311 389.401998,143.196282 L385.820041,138.750996 C383.650351,136.059737 382.550596,132.675692 382.722358,129.221294 L383.007436,123.523983 C383.323526,117.164887 379.091497,111.343565 372.947421,109.68016 L367.437911,108.190846 C364.10167,107.287003 361.221075,105.195525 359.32692,102.299173 L356.206574,97.5223982 C352.726005,92.1923476 345.884146,89.9685122 339.929724,92.2352742 L334.59794,94.2671324 C331.364279,95.4988868 327.803792,95.4976944 324.571324,94.2671324 L319.238347,92.2352742 C317.67221,91.6390716 316.045241,91.3534454 314.432585,91.3534454 M314.434971,212.58591 C309.774729,212.58591 305.240924,210.272644 302.594117,206.218467 L299.473771,201.441692 C297.638063,198.635963 294.846928,196.608874 291.614459,195.732456 L286.104949,194.243143 C279.76287,192.527272 275.394863,186.51755 275.720495,179.955745 L276.006765,174.257241 C276.172564,170.911353 275.108592,167.632239 273.005699,165.024449 L269.423742,160.580355 C265.30145,155.463745 265.30145,148.036254 269.423742,142.920836 L273.005699,138.476743 C275.108592,135.868953 276.172564,132.589839 276.006765,129.241565 L275.720495,123.545446 C275.394863,116.982449 279.76287,110.97392 286.104949,109.256856 L291.614459,107.767543 C294.846928,106.892317 297.638063,104.865229 299.473771,102.059499 L302.594117,97.2827248 C306.185616,91.7809678 313.254106,89.4843957 319.394603,91.8262792 L324.726387,93.8581375 C327.858661,95.0493501 331.30941,95.0493501 334.441684,93.8581375 L339.774661,91.8262792 C345.918737,89.4855881 352.982455,91.7809678 356.573955,97.2827248 L359.694301,102.059499 C361.528816,104.865229 364.321144,106.892317 367.553612,107.767543 L373.061929,109.256856 C379.405201,110.97392 383.772016,116.982449 383.446383,123.545446 L383.161306,129.242758 C382.995508,132.589839 384.060672,135.868953 386.16118,138.476743 L389.743137,142.920836 C393.866621,148.036254 393.866621,155.463745 389.743137,160.580355 L386.16118,165.024449 C384.060672,167.632239 382.995508,170.911353 383.161306,174.257241 L383.446383,179.955745 C383.772016,186.51755 379.405201,192.527272 373.061929,194.243143 L367.553612,195.732456 C364.321144,196.607682 361.530009,198.63477 359.694301,201.441692 L356.573955,206.218467 C352.981263,211.719031 345.916351,214.015603 339.774661,211.674912 L334.441684,209.641862 C331.30941,208.451841 327.858661,208.450649 324.726387,209.643054 L319.394603,211.674912 C317.778369,212.290193 316.097724,212.58591 314.434971,212.58591" id="Fill-11" fill="#E05FFF"></path><path d="M329.585348,208.011844 C331.319668,208.011844 333.052796,208.326639 334.703622,208.953844 L340.036598,210.986894 C345.853849,213.199998 352.55138,211.027436 355.956804,205.815434 L359.07715,201.038659 C361.013052,198.07911 363.954479,195.94232 367.359903,195.021783 L372.869413,193.532469 C378.881088,191.904836 383.018886,186.20991 382.70876,179.991517 L382.424876,174.295398 C382.248342,170.767072 383.373146,167.310289 385.588162,164.562988 L389.170119,160.11651 C393.077708,155.269383 393.077708,148.231808 389.170119,143.383489 L385.588162,138.938203 C383.373146,136.190902 382.248342,132.73412 382.424876,129.205793 L382.70876,123.508482 C383.018886,117.290089 378.881088,111.595163 372.869413,109.96753 L367.359903,108.478216 C363.952094,107.555294 361.010667,105.418505 359.07715,102.46134 L355.956804,97.6857577 C352.553766,92.4725628 345.85862,90.2952311 340.036598,92.514297 L334.703622,94.5461552 C331.403164,95.8029501 327.767532,95.8029501 324.464688,94.5461552 L319.131712,92.514297 C317.629986,91.9419425 316.048342,91.6509871 314.432108,91.6509871 C309.873254,91.6509871 305.678202,93.9082185 303.210314,97.6857577 L300.089968,102.46134 C298.155258,105.420889 295.213831,107.557679 291.807214,108.478216 L286.297705,109.96753 C280.287222,111.596355 276.148231,117.290089 276.457164,123.508482 L276.743434,129.204601 C276.918775,132.73412 275.795164,136.190902 273.580148,138.938203 L269.996998,143.383489 C266.091795,148.231808 266.091795,155.269383 269.996998,160.11651 L273.580148,164.562988 C275.795164,167.309097 276.918775,170.765879 276.743434,174.295398 L276.457164,179.99271 C276.148231,186.211102 280.287222,191.904836 286.297705,193.532469 L291.807214,195.021783 C295.213831,195.943512 298.155258,198.080302 300.089968,201.038659 L303.210314,205.815434 C306.61693,211.027436 313.313268,213.202383 319.131712,210.986894 L324.464688,208.955036 C326.115514,208.326639 327.849834,208.011844 329.585348,208.011844 M314.435686,212.884011 C309.522573,212.884011 305.001888,210.452697 302.344346,206.381826 L299.224,201.605051 C297.428847,198.860135 294.698544,196.877165 291.53645,196.019826 L286.026941,194.530512 C279.550076,192.778869 275.090223,186.64156 275.423013,179.940244 L275.709283,174.242932 C275.871503,170.968588 274.829002,167.761018 272.77382,165.211656 L269.191863,160.767563 C264.981305,155.541251 264.981305,147.958748 269.191863,142.733629 L272.77382,138.288343 C274.829002,135.740173 275.871503,132.532603 275.709283,129.257067 L275.423013,123.560948 C275.090223,116.859631 279.550076,110.722322 286.026941,108.968294 L291.53645,107.478981 C294.697351,106.624026 297.428847,104.641056 299.224,101.89614 L302.344346,97.1193653 C306.014569,91.4995603 313.230966,89.1540995 319.500285,91.5472565 L324.833261,93.5791147 C327.896353,94.7440944 331.270764,94.7440944 334.335049,93.5791147 L339.668025,91.5472565 C345.942115,89.1564843 353.154933,91.5019451 356.823964,97.1193653 L359.94431,101.89614 C361.739463,104.641056 364.468573,106.624026 367.630667,107.478981 L373.140177,108.968294 C379.617041,110.722322 384.078086,116.859631 383.744105,123.560948 L383.459027,129.258259 C383.296807,132.532603 384.339308,135.740173 386.393297,138.288343 L389.975254,142.733629 C394.185813,147.958748 394.185813,155.541251 389.975254,160.767563 L386.393297,165.211656 C384.339308,167.761018 383.296807,170.968588 383.459027,174.242932 L383.744105,179.940244 C384.078086,186.64156 379.617041,192.778869 373.140177,194.530512 L367.630667,196.019826 C364.469766,196.875973 361.739463,198.858943 359.94431,201.605051 L356.823964,206.381826 C353.153741,211.999246 345.937344,214.343515 339.668025,211.953935 L334.335049,209.920884 C331.269571,208.754712 327.89516,208.754712 324.833261,209.922077 L319.500285,211.953935 C317.879279,212.570408 316.174778,212.884011 314.435686,212.884011" id="Fill-13" fill="#070707"></path><path d="M259.593221,188.365063 C263.191877,188.365063 265.985397,185.60703 265.985397,181.475346 L265.985397,165.431536 L269.847661,165.431536 L269.847661,191.430736 L266.029531,191.430736 L266.029531,188.971997 C264.228414,190.833341 261.742634,191.876695 259.150695,191.860199 C253.603015,191.860199 249.330432,187.816556 249.330432,181.684017 L249.330432,165.431536 L253.26307,165.431536 L253.26307,181.496809 C253.26307,185.652341 255.940889,188.365063 259.593221,188.365063 L259.593221,188.365063 Z M283.475318,188.542813 C279.853999,188.560617 276.904223,185.640417 276.887442,182.019083 C276.869632,178.398941 279.791974,175.450123 283.413293,175.432166 C287.034612,175.415544 289.984388,178.336936 290.002286,181.957078 L290.002286,182.010736 C290.007052,185.604645 287.09783,188.521268 283.502752,188.526037 L283.475318,188.526037 L283.475318,188.542813 Z M283.743697,172.098273 C281.228097,172.100657 278.81627,173.10824 277.047358,174.896847 L277.047358,165.431536 L273.31988,165.431536 L273.31988,191.430736 L277.003225,191.430736 L277.003225,189.030425 C278.787643,190.833341 281.214976,191.856425 283.752046,191.871926 C289.215037,191.988782 293.736915,187.655582 293.852615,182.195559 C293.969509,176.735536 289.6349,172.215128 284.173102,172.098273 C284.032352,172.094695 283.892796,172.094695 283.752046,172.098273 L283.743697,172.098273 Z M299.412223,180.230475 C300.077801,177.34247 302.385855,175.386926 305.18534,175.386926 C307.983632,175.386926 310.286915,177.34247 310.911938,180.230475 L299.412223,180.230475 Z M314.684742,181.965425 C314.684742,176.319387 310.666223,172.098273 305.229473,172.098273 C299.847592,172.135237 295.514176,176.525673 295.551152,181.906997 C295.551152,181.927268 295.551152,181.945154 295.551152,181.965425 C295.551152,187.605501 299.903653,191.871926 305.58254,191.871926 C308.800695,191.932738 311.84828,190.425538 313.750785,187.829673 L311.046724,185.847895 C309.785942,187.605501 307.745073,188.634546 305.58254,188.601159 C302.446688,188.58685 299.791531,186.285508 299.332306,183.184063 L314.693091,183.184063 L314.684742,181.965425 Z M325.161041,175.834078 C322.719394,175.834078 320.987459,177.744311 320.987459,180.676435 L320.987459,191.430736 L317.259981,191.430736 L317.259981,172.500113 L320.943325,172.500113 L320.943325,174.812187 C321.86774,173.251328 323.566277,172.31529 325.380515,172.366564 L326.718828,172.366564 L326.718828,175.834078 L325.161041,175.834078 Z" id="Fill-15" fill="#141414"></path><path d="M366.78438,187.704828 C363.542369,187.7406 360.884827,185.144734 360.84785,181.903777 C360.810874,178.66282 363.408777,176.004949 366.650787,175.967985 C369.892798,175.932213 372.550341,178.529271 372.587317,181.769035 C372.587317,181.792884 372.58851,181.817924 372.58851,181.84058 C372.617137,185.044572 370.04309,187.665478 366.838056,187.695289 L366.776031,187.695289 L366.78438,187.704828 Z M372.512171,172.241719 L372.512171,173.973091 C370.799321,172.525511 368.626052,171.733754 366.383602,171.740909 C360.809681,171.625246 356.197151,176.046684 356.079065,181.6176 C355.962171,187.188516 360.385047,191.800739 365.958968,191.916403 C366.099717,191.91998 366.241659,191.91998 366.383602,191.916403 C368.626052,191.927134 370.800514,191.135377 372.512171,189.685413 L372.512171,191.421554 L377.364452,191.421554 L377.364452,172.23218 L372.512171,172.241719 Z M393.493396,191.431094 L388.257036,191.431094 C384.970892,191.431094 383.15069,189.387311 383.15069,186.806947 L383.15069,176.588035 L379.467346,176.588035 L379.467346,172.23218 L383.167389,172.23218 L383.167389,166.765003 L388.032791,166.765003 L388.032791,172.23218 L393.493396,172.23218 L393.493396,176.588035 L388.032791,176.588035 L388.032791,185.562076 C388.032791,186.585159 388.743695,187.075238 389.855378,187.075238 L393.493396,187.075238 L393.493396,191.431094 Z M404.622153,191.916403 C410.215159,191.916403 413.36771,189.239453 413.36771,185.562076 C413.36771,182.943554 411.500989,180.98801 407.595786,180.14021 L403.466337,179.29718 C401.068823,178.850028 400.313786,178.404068 400.313786,177.512149 C400.313786,176.355516 401.470795,175.647228 403.59993,175.647228 C405.907984,175.647228 407.617256,176.266086 408.06336,178.399299 L412.902521,178.399299 C412.638914,174.383278 409.751162,171.732562 403.89455,171.732562 C398.832337,171.732562 395.279007,173.820463 395.279007,177.868678 C395.279007,180.667253 397.233995,182.488056 401.45171,183.375205 L406.069011,184.442408 C407.890405,184.798937 408.375872,185.290208 408.375872,186.043808 C408.375872,187.244559 407.001775,187.999352 404.778409,187.999352 C401.983695,187.999352 400.385353,187.379301 399.765101,185.244896 L394.898506,185.244896 C395.609411,189.253762 398.58185,191.916403 404.622153,191.916403 L404.622153,191.916403 Z M335.991241,165.430701 L354.2362,165.430701 L354.2362,169.893873 L340.919861,169.893873 L340.919861,176.231506 L353.865241,176.231506 L353.865241,180.542051 L340.919861,180.542051 L340.919861,186.985808 L354.2362,186.985808 L354.2362,191.44898 L335.991241,191.44898 L335.991241,165.430701 Z" id="Fill-17" fill="#3DE892"></path><path d="M366.396484,187.099325 L366.775792,187.099325 C369.702906,187.073092 372.018116,184.715707 371.991875,181.84678 C371.957284,178.870537 369.541879,176.57635 366.656513,176.564426 C365.249017,176.581119 363.930981,177.143935 362.945734,178.151517 C361.96168,179.159099 361.427309,180.488631 361.444008,181.896861 C361.476214,184.675165 363.663796,186.93358 366.396484,187.099325 L366.396484,187.099325 Z M366.718538,188.301269 C363.185486,188.301269 360.29177,185.449036 360.251215,181.909978 C360.232131,180.183375 360.885781,178.553357 362.092888,177.318026 C363.299994,176.083887 364.916228,175.392292 366.643392,175.372021 C370.237277,175.314785 373.14292,178.199213 373.183475,181.762119 C373.213295,184.945841 370.991122,187.578671 368.036574,188.167719 L368.137961,188.276228 L366.791298,188.301269 L366.718538,188.301269 Z M380.063504,175.992071 L383.746848,175.992071 L383.746848,186.807185 C383.746848,189.254001 385.516952,190.83513 388.256797,190.83513 L392.896761,190.83513 L392.896761,187.670487 L389.85514,187.670487 C388.362956,187.670487 387.437349,186.863228 387.437349,185.562314 L387.437349,175.992071 L392.896761,175.992071 L392.896761,172.828621 L387.437349,172.828621 L387.437349,167.361444 L383.76474,167.361444 L383.76474,172.828621 L380.063504,172.828621 L380.063504,175.992071 Z M394.089554,192.027535 L388.256797,192.027535 C384.846603,192.027535 382.554055,189.928902 382.554055,186.807185 L382.554055,177.184476 L378.870711,177.184476 L378.870711,171.636216 L382.571947,171.636216 L382.571947,166.169038 L388.630142,166.169038 L388.630142,171.636216 L394.089554,171.636216 L394.089554,177.184476 L388.630142,177.184476 L388.630142,185.562314 C388.630142,185.835375 388.630142,186.478082 389.85514,186.478082 L394.089554,186.478082 L394.089554,192.027535 Z M336.587399,190.851823 L353.639565,190.851823 L353.639565,187.582249 L340.323226,187.582249 L340.323226,179.946087 L353.269799,179.946087 L353.269799,176.827947 L340.323226,176.827947 L340.323226,169.297909 L353.639565,169.297909 L353.639565,166.027142 L336.587399,166.027142 L336.587399,190.851823 Z M354.832358,192.044228 L335.394606,192.044228 L335.394606,164.834737 L354.832358,164.834737 L354.832358,170.490314 L341.516019,170.490314 L341.516019,175.635542 L354.462592,175.635542 L354.462592,181.138492 L341.516019,181.138492 L341.516019,186.389844 L354.832358,186.389844 L354.832358,192.044228 Z M395.638992,185.841337 C396.581298,189.478173 399.600257,191.320438 404.621915,191.320438 C409.648343,191.320438 412.771075,189.113297 412.771075,185.562314 C412.771075,182.513335 409.888095,181.248193 407.469111,180.722342 L403.348012,179.881697 C401.36559,179.512051 399.718343,179.076823 399.718343,177.512388 C399.718343,176.935264 399.997457,175.051264 403.599691,175.051264 C404.626686,175.051264 407.638488,175.051264 408.522347,177.803335 L412.240282,177.803335 C411.713068,174.266661 408.776412,172.329003 403.894311,172.329003 C398.873846,172.329003 395.875165,174.400211 395.875165,177.868917 C395.875165,179.467932 396.465597,181.716808 401.574329,182.792357 L406.202365,183.860752 C407.631331,184.14216 408.97203,184.602428 408.97203,186.044046 C408.97203,187.276993 407.871082,188.595793 404.77817,188.595793 C402.488008,188.595793 400.258679,188.249995 399.33665,185.841337 L395.638992,185.841337 Z M404.621915,192.512844 C397.150261,192.512844 394.891111,188.617256 394.311414,185.348874 L394.187363,184.648932 L400.213352,184.648932 L400.338596,185.07939 C400.837183,186.795261 401.998963,187.403388 404.77817,187.403388 C406.600758,187.403388 407.779237,186.870383 407.779237,186.044046 C407.779237,185.797218 407.779237,185.385838 405.953071,185.026925 L401.317879,183.956145 C396.856834,183.017722 394.682372,181.025213 394.682372,177.868917 C394.682372,173.71577 398.213039,171.136598 403.894311,171.136598 C409.697248,171.136598 413.196902,173.769428 413.497486,178.36138 L413.539234,178.99574 L407.578848,178.99574 L407.479846,178.522355 C407.145864,176.924532 405.985277,176.243669 403.599691,176.243669 C402.968704,176.243669 400.911136,176.335484 400.911136,177.512388 C400.911136,177.867725 401.116297,178.252871 403.575835,178.711947 L407.714826,179.55617 C411.747659,180.431395 413.963868,182.563416 413.963868,185.562314 C413.963868,189.784621 410.297223,192.512844 404.621915,192.512844 L404.621915,192.512844 Z M366.182974,172.334965 C361.022952,172.334965 356.783767,176.463071 356.676415,181.629763 C356.62274,184.164816 357.560275,186.569897 359.314873,188.400238 C361.071857,190.23058 363.434779,191.267973 365.970657,191.320438 C366.105443,191.325208 366.235457,191.325208 366.36905,191.320438 L366.409605,191.320438 C368.511306,191.320438 370.534282,190.579955 372.126661,189.230152 L373.108329,188.399046 L373.108329,190.82559 L376.767817,190.82559 L376.767817,172.829813 L373.108329,172.836968 L373.108329,175.258742 L372.126661,174.428828 C370.531897,173.079026 368.502956,172.33735 366.41199,172.33735 C366.341615,172.33735 366.259313,172.334965 366.182974,172.334965 L366.182974,172.334965 Z M366.171046,192.515228 C366.097093,192.515228 366.020754,192.514036 365.944415,192.512844 C363.091255,192.453223 360.431327,191.285859 358.45487,189.225383 C356.478412,187.164907 355.42279,184.458147 355.483623,181.604722 C355.60648,175.714241 360.499316,171.026897 366.395291,171.144945 C368.340736,171.187871 370.279025,171.717299 371.915536,172.785694 L371.915536,171.646947 L377.96061,171.635023 L377.96061,192.017995 L371.915536,192.017995 L371.915536,190.873287 C370.292145,191.938104 368.383677,192.512844 366.426304,192.512844 L366.379785,192.512844 C366.314181,192.515228 366.243806,192.515228 366.171046,192.515228 L366.171046,192.515228 Z" id="Fill-19" fill="#070707"></path><path d="M302.973425,149.042525 C305.614268,148.988866 307.176827,149.958292 307.769645,151.628851 C307.931865,152.112968 307.931865,152.437302 307.230502,152.437302 C304.105385,152.328793 297.045245,153.62136 293.920128,154.537127 C292.518596,154.968778 291.817234,154.806611 291.225609,154.160327 C290.577922,153.460385 290.147324,152.651935 289.877753,151.898335 C289.447155,150.820401 289.609374,150.443601 290.740142,149.742466 C305.18367,141.12257 317.902419,127.600697 314.183292,123.452319 C311.703475,120.703826 307.230502,126.522763 305.453241,129.216406 C303.782138,131.749074 302.435475,132.933132 300.064203,132.825816 C299.364034,132.772157 299.309165,132.611183 299.523868,131.964899 C300.441126,129.378573 303.728463,123.613294 307.98554,121.458618 C310.519032,120.164859 313.697825,120.273368 315.800719,122.374385 C317.793875,124.368087 318.656265,127.222704 316.393537,131.802732 C314.290643,136.004768 306.207086,144.733173 295.643713,150.335092 C298.339425,149.526641 301.087619,149.096183 302.973425,149.042525" id="Fill-21" fill="#141414"></path><path d="M302.973425,149.042525 C305.614268,148.988866 307.176827,149.958292 307.769645,151.628851 C307.931865,152.112968 307.931865,152.437302 307.230502,152.437302 C304.105385,152.328793 297.045245,153.62136 293.920128,154.537127 C292.518596,154.968778 291.817234,154.806611 291.225609,154.160327 C290.577922,153.460385 290.147324,152.651935 289.877753,151.898335 C289.447155,150.820401 289.609374,150.443601 290.740142,149.742466 C305.18367,141.12257 317.902419,127.600697 314.183292,123.452319 C311.703475,120.703826 307.230502,126.522763 305.453241,129.216406 C303.782138,131.749074 302.435475,132.933132 300.064203,132.825816 C299.364034,132.772157 299.309165,132.611183 299.523868,131.964899 C300.441126,129.378573 303.728463,123.613294 307.98554,121.458618 C310.519032,120.164859 313.697825,120.273368 315.800719,122.374385 C317.793875,124.368087 318.656265,127.222704 316.393537,131.802732 C314.290643,136.004768 306.207086,144.733173 295.643713,150.335092 C298.339425,149.526641 301.087619,149.096183 302.973425,149.042525 Z" id="Stroke-23" stroke="#070707" stroke-width="0.5"></path><path d="M336.705963,122.644227 C334.227339,121.780925 327.922237,125.768328 323.34072,133.634624 C318.70672,141.607044 318.760395,150.281791 322.263628,151.629209 C325.549772,152.921776 331.532821,148.396599 335.466651,140.260819 C339.832273,131.264123 339.509026,123.612459 336.705963,122.644227 M339.185779,141.392411 C335.3593,149.311173 329.161548,155.722735 322.263628,153.514401 C318.113902,152.166984 316.226903,148.450257 316.173228,144.300687 C316.011008,133.256632 325.227718,123.128343 330.831458,120.757842 C333.743066,119.518933 336.275365,120.004242 337.675703,121.458976 C343.981999,123.829477 342.742687,134.065082 339.185779,141.392411" id="Fill-25" fill="#141414"></path><path d="M336.705963,122.644227 C334.227339,121.780925 327.922237,125.768328 323.34072,133.634624 C318.70672,141.607044 318.760395,150.281791 322.263628,151.629209 C325.549772,152.921776 331.532821,148.396599 335.466651,140.260819 C339.832273,131.264123 339.509026,123.612459 336.705963,122.644227 Z M339.185779,141.392411 C335.3593,149.311173 329.161548,155.722735 322.263628,153.514401 C318.113902,152.166984 316.226903,148.450257 316.173228,144.300687 C316.011008,133.256632 325.227718,123.128343 330.831458,120.757842 C333.743066,119.518933 336.275365,120.004242 337.675703,121.458976 C343.981999,123.829477 342.742687,134.065082 339.185779,141.392411 Z" id="Stroke-27" stroke="#070707" stroke-width="0.5"></path><path d="M360.576967,144.300807 C358.852189,147.317591 358.259371,151.03551 359.282787,151.843961 C360.414747,152.70607 362.787212,151.358652 364.726693,147.749242 C366.666174,144.139832 367.205317,140.530422 366.451472,139.775629 C365.426863,138.752546 362.409097,141.123047 360.576967,144.300807 M357.181086,152.059786 C355.348956,149.580776 355.99545,145.916515 357.881255,142.631439 C359.607227,139.613462 362.08585,137.297812 364.619342,137.135645 C365.912329,137.028328 366.666174,137.35147 367.528564,138.536721 C368.499497,139.884138 369.685133,140.099964 369.469237,143.170407 C369.199666,146.940791 366.073356,152.868237 362.516448,153.944979 C360.95389,154.429095 358.852189,154.321779 357.181086,152.059786 M349.690347,128.354774 C347.966762,131.26305 347.2654,134.92731 348.23514,135.843077 C349.206074,136.758845 351.684697,135.412619 353.732722,131.909333 C355.780747,128.354774 356.534592,124.745364 355.727072,123.936913 C354.648787,122.860171 351.576153,125.22948 349.690347,128.354774 M358.689969,126.469581 C358.689969,126.791531 358.689969,127.115865 358.636293,127.492665 C358.205695,131.209391 354.972034,137.028328 351.307774,138.052604 C349.744023,138.483062 347.695998,138.320895 346.079764,136.005245 C344.30131,133.472576 345.055155,129.863166 346.995828,126.523239 C348.666931,123.667429 351.360257,121.350586 353.947425,121.296928 C355.240412,121.24327 355.888099,121.512753 356.750488,122.805321 C359.229111,126.469581 365.157292,126.523239 367.637108,123.829596 C368.605655,122.805321 368.983771,122.860171 369.092315,123.612579 C369.414369,125.445305 368.228733,127.546323 366.396603,129.700999 C362.08585,134.765143 352.061619,145.86405 347.10318,153.08287 C346.781126,153.566986 346.40301,153.566986 346.188308,152.974361 C345.810192,151.897619 346.079764,150.28191 347.427619,148.126042 C349.959919,144.084981 357.881255,134.604169 363.864304,127.869465 C362.032174,127.977974 360.146369,127.437814 358.689969,126.469581" id="Fill-29" fill="#141414"></path><path d="M360.576967,144.300807 C358.852189,147.317591 358.259371,151.03551 359.282787,151.843961 C360.414747,152.70607 362.787212,151.358652 364.726693,147.749242 C366.666174,144.139832 367.205317,140.530422 366.451472,139.775629 C365.426863,138.752546 362.409097,141.123047 360.576967,144.300807 Z M357.181086,152.059786 C355.348956,149.580776 355.99545,145.916515 357.881255,142.631439 C359.607227,139.613462 362.08585,137.297812 364.619342,137.135645 C365.912329,137.028328 366.666174,137.35147 367.528564,138.536721 C368.499497,139.884138 369.685133,140.099964 369.469237,143.170407 C369.199666,146.940791 366.073356,152.868237 362.516448,153.944979 C360.95389,154.429095 358.852189,154.321779 357.181086,152.059786 Z M349.690347,128.354774 C347.966762,131.26305 347.2654,134.92731 348.23514,135.843077 C349.206074,136.758845 351.684697,135.412619 353.732722,131.909333 C355.780747,128.354774 356.534592,124.745364 355.727072,123.936913 C354.648787,122.860171 351.576153,125.22948 349.690347,128.354774 Z M358.689969,126.469581 C358.689969,126.791531 358.689969,127.115865 358.636293,127.492665 C358.205695,131.209391 354.972034,137.028328 351.307774,138.052604 C349.744023,138.483062 347.695998,138.320895 346.079764,136.005245 C344.30131,133.472576 345.055155,129.863166 346.995828,126.523239 C348.666931,123.667429 351.360257,121.350586 353.947425,121.296928 C355.240412,121.24327 355.888099,121.512753 356.750488,122.805321 C359.229111,126.469581 365.157292,126.523239 367.637108,123.829596 C368.605655,122.805321 368.983771,122.860171 369.092315,123.612579 C369.414369,125.445305 368.228733,127.546323 366.396603,129.700999 C362.08585,134.765143 352.061619,145.86405 347.10318,153.08287 C346.781126,153.566986 346.40301,153.566986 346.188308,152.974361 C345.810192,151.897619 346.079764,150.28191 347.427619,148.126042 C349.959919,144.084981 357.881255,134.604169 363.864304,127.869465 C362.032174,127.977974 360.146369,127.437814 358.689969,126.469581 Z" id="Stroke-31" stroke="#070707" stroke-width="0.5"></path><polygon id="Fill-33" fill="#FFFFFF" points="121.342214 340.63197 121.342214 316.420185 126.013191 316.420185 126.013191 326.450696 136.635011 326.450696 136.635011 316.420185 141.305987 316.420185 141.305987 340.63197 136.635011 340.63197 136.635011 330.532299 126.013191 330.532299 126.013191 340.63197"></polygon><path d="M153.755524,326.312616 C150.815289,326.312616 148.427318,328.698618 148.427318,331.708249 C148.427318,334.717879 150.815289,337.103882 153.755524,337.103882 C156.731542,337.103882 159.083729,334.717879 159.083729,331.708249 C159.083729,328.698618 156.731542,326.312616 153.755524,326.312616 M153.755524,341.116325 C148.358136,341.116325 143.929297,336.896403 143.929297,331.708249 C143.929297,326.520094 148.358136,322.300173 153.755524,322.300173 C159.187502,322.300173 163.581751,326.485514 163.581751,331.708249 C163.581751,336.896403 159.187502,341.116325 153.755524,341.116325" id="Fill-35" fill="#FFFFFF"></path><polygon id="Fill-37" fill="#FFFFFF" points="179.630658 322.749352 183.506042 334.025926 186.653822 322.749352 191.290208 322.749352 185.85823 340.63185 181.740709 340.63185 177.726961 328.976091 173.714406 340.63185 169.596885 340.63185 164.164907 322.749352 168.939657 322.749352 172.087437 334.025926 175.962821 322.749352"></polygon><path d="M202.042042,336.136006 L202.042042,326.658771 L198.547159,326.658771 L198.547159,322.748875 L202.042042,322.748875 L202.042042,317.561913 L206.540064,317.561913 L206.540064,322.748875 L210.48463,322.748875 L210.48463,326.658771 L206.540064,326.658771 L206.540064,335.33948 C206.540064,336.273133 207.197293,336.723862 208.235022,336.723862 L210.48463,336.723862 L210.48463,340.632566 L206.955156,340.632566 C203.703603,340.632566 202.042042,338.694908 202.042042,336.136006" id="Fill-39" fill="#FFFFFF"></path><path d="M221.621855,326.312616 C218.681621,326.312616 216.29365,328.698618 216.29365,331.708249 C216.29365,334.717879 218.681621,337.103882 221.621855,337.103882 C224.597873,337.103882 226.950061,334.717879 226.950061,331.708249 C226.950061,328.698618 224.597873,326.312616 221.621855,326.312616 M221.621855,341.116325 C216.224468,341.116325 211.795628,336.896403 211.795628,331.708249 C211.795628,326.520094 216.224468,322.300173 221.621855,322.300173 C227.053834,322.300173 231.448082,326.485514 231.448082,331.708249 C231.448082,336.896403 227.053834,341.116325 221.621855,341.116325" id="Fill-41" fill="#FFFFFF"></path><path d="M244.934275,329.737203 L254.103273,329.737203 C253.446044,327.524099 251.576938,326.208876 249.397705,326.208876 C247.287655,326.208876 245.556912,327.557487 244.934275,329.737203 M249.501478,322.334752 C254.864275,322.334752 258.670476,326.312616 258.670476,331.881147 L258.670476,333.195178 L244.865093,333.195178 C245.453139,335.513213 247.391428,337.207621 249.881979,337.207621 C251.785676,337.207621 253.273089,336.550606 254.587547,334.856198 L257.73652,337.207621 C255.936595,339.662783 253.238498,341.081745 249.91657,341.081745 C244.450001,341.081745 240.228707,337.138461 240.228707,331.673669 C240.228707,326.692993 244.207864,322.334752 249.501478,322.334752" id="Fill-43" fill="#FFFFFF"></path><path d="M267.246179,337.622935 C269.495787,337.622935 271.294518,336.169394 271.294518,334.371247 L271.294518,333.230115 L266.658133,333.645072 C265.136129,333.783391 264.375127,334.405827 264.375127,335.581538 C264.375127,336.827601 265.551221,337.622935 267.246179,337.622935 M266.035495,330.290837 L271.294518,329.909267 L271.294518,329.217672 C271.294518,327.454105 270.118425,326.380941 268.007181,326.380941 C266.381405,326.380941 264.859401,326.900829 263.268215,327.972801 L261.364518,324.755692 C263.44117,323.234184 265.827949,322.36969 268.56183,322.36969 C272.851113,322.36969 275.688767,324.859432 275.688767,328.664396 L275.688767,335.685277 C275.688767,336.343485 276.034677,336.723862 276.691906,336.723862 L277.625862,336.723862 L277.625862,340.631373 L275.515812,340.631373 C273.78507,340.631373 272.470612,339.836039 271.847974,338.522009 C270.602698,340.112677 268.631012,341.08091 266.243041,341.08091 C262.678976,341.08091 260.050061,338.764067 260.050061,335.616118 C260.050061,332.400201 262.229293,330.566282 266.035495,330.290837" id="Fill-45" fill="#FFFFFF"></path><path d="M288.0362,326.727096 C285.891559,326.727096 284.229998,328.284377 284.229998,331.017369 L284.229998,340.631731 L279.697386,340.631731 L279.697386,322.749232 L284.195407,322.749232 L284.195407,324.686891 C285.095966,323.37286 286.514196,322.577526 288.451292,322.577526 L289.661977,322.577526 L289.661977,326.727096 L288.0362,326.727096 Z" id="Fill-47" fill="#FFFFFF"></path><path d="M308.377134,340.63197 L303.844521,340.63197 L303.844521,330.151922 C303.844521,327.835078 302.357109,326.312377 300.143285,326.312377 C297.96286,326.312377 296.406266,327.764727 296.406266,330.151922 L296.406266,340.63197 L291.873653,340.63197 L291.873653,322.749471 L296.406266,322.749471 L296.406266,324.27098 C297.651541,322.991529 299.381091,322.266547 301.319379,322.266547 C305.506082,322.266547 308.377134,325.344144 308.377134,329.252848 L308.377134,340.63197 Z" id="Fill-49" fill="#FFFFFF"></path><path d="M330.201545,331.224251 L324.769566,336.723624 L334.353656,336.723624 L334.353656,340.632327 L317.952755,340.632327 L317.952755,337.899335 L327.122946,328.457872 C329.026644,326.484441 329.613498,325.447049 329.613498,323.821801 C329.613498,321.574117 327.849357,319.948869 325.426795,319.948869 C323.420517,319.948869 321.828139,320.91591 320.202363,322.922727 L317.260935,320.189735 C319.475952,317.492515 322.381595,316.040165 325.911069,316.040165 C330.756193,316.040165 334.180701,319.118955 334.180701,323.406844 C334.180701,326.105256 333.142972,328.215813 330.201545,331.224251" id="Fill-51" fill="#FFFFFF"></path><path d="M351.579731,325.551027 C351.579731,322.023892 349.711818,319.878756 346.562845,319.878756 C343.413872,319.878756 341.511367,322.023892 341.511367,325.551027 L341.511367,331.466548 C341.511367,334.993682 343.413872,337.173399 346.562845,337.173399 C349.711818,337.173399 351.579731,335.028262 351.579731,331.466548 L351.579731,325.551027 Z M337.047937,325.447287 C337.047937,319.707049 340.819547,315.936665 346.562845,315.936665 C352.306142,315.936665 356.043162,319.671277 356.043162,325.447287 L356.043162,331.570287 C356.043162,337.346297 352.306142,341.116682 346.562845,341.116682 C340.819547,341.116682 337.047937,337.346297 337.047937,331.570287 L337.047937,325.447287 Z" id="Fill-53" fill="#FFFFFF"></path><path d="M376.346523,334.924881 C376.346523,336.585901 377.800537,338.07283 379.459712,338.07283 C381.191647,338.07283 382.643276,336.585901 382.643276,334.924881 C382.643276,333.161313 381.191647,331.673192 379.459712,331.673192 C377.764754,331.673192 376.346523,333.161313 376.346523,334.924881 L376.346523,334.924881 Z M385.619294,334.924881 C385.619294,338.140797 382.955788,340.977529 379.459712,340.977529 C376.070988,340.977529 373.405096,338.140797 373.405096,334.924881 C373.405096,331.500293 376.138977,328.768493 379.459712,328.768493 C382.921197,328.768493 385.619294,331.500293 385.619294,334.924881 L385.619294,334.924881 Z M363.855597,340.631731 L376.866581,316.419946 L380.291089,316.419946 L367.246707,340.631731 L363.855597,340.631731 Z M367.834754,322.092217 C367.834754,320.466969 366.381932,318.98004 364.686973,318.98004 C362.992015,318.98004 361.538,320.466969 361.538,322.092217 C361.538,323.891556 362.956231,325.378486 364.686973,325.378486 C366.416523,325.378486 367.834754,323.891556 367.834754,322.092217 L367.834754,322.092217 Z M358.563175,322.127989 C358.563175,318.909688 361.226681,316.074149 364.686973,316.074149 C368.112674,316.074149 370.776181,318.909688 370.776181,322.127989 C370.776181,325.551384 368.042299,328.284377 364.686973,328.284377 C361.262465,328.284377 358.563175,325.551384 358.563175,322.127989 L358.563175,322.127989 Z" id="Fill-55" fill="#FFFFFF"></path><path d="M404.363198,337.103643 C406.265702,337.103643 407.822297,336.20457 408.861219,334.7868 L412.078182,337.138223 C410.27945,339.490838 407.858081,341.081506 404.363198,341.081506 C398.826254,341.081506 394.536971,336.861585 394.536971,331.67343 C394.536971,326.485276 398.826254,322.299934 404.363198,322.299934 C407.858081,322.299934 410.27945,323.891795 412.078182,326.243218 L408.861219,328.594641 C407.822297,327.176871 406.265702,326.277797 404.363198,326.277797 C401.421771,326.277797 399.0338,328.664992 399.0338,331.67343 C399.0338,334.683061 401.421771,337.103643 404.363198,337.103643" id="Fill-57" fill="#FFFFFF"></path><path d="M419.825252,337.622935 C422.073666,337.622935 423.87359,336.169394 423.87359,334.371247 L423.87359,333.230115 L419.237205,333.645072 C417.714008,333.783391 416.953006,334.405827 416.953006,335.581538 C416.953006,336.827601 418.1291,337.622935 419.825252,337.622935 M418.613374,330.290837 L423.87359,329.909267 L423.87359,329.217672 C423.87359,327.454105 422.696304,326.380941 420.586253,326.380941 C418.959284,326.380941 417.43728,326.900829 415.846095,327.972801 L413.942397,324.755692 C416.01905,323.234184 418.407021,322.36969 421.139709,322.36969 C425.430185,322.36969 428.266646,324.859432 428.266646,328.664396 L428.266646,335.685277 C428.266646,336.343485 428.612556,336.723862 429.270978,336.723862 L430.204934,336.723862 L430.204934,340.631373 L428.094884,340.631373 C426.364142,340.631373 425.049684,339.836039 424.425853,338.522009 C423.180578,340.112677 421.208891,341.08091 418.82092,341.08091 C415.258048,341.08091 412.62794,338.764067 412.62794,335.616118 C412.62794,332.400201 414.808365,330.566282 418.613374,330.290837" id="Fill-59" fill="#FFFFFF"></path><path d="M431.58428,334.993682 L435.874756,334.993682 C436.324439,336.793022 437.915624,337.552584 439.853912,337.552584 C441.513087,337.552584 442.413646,336.793022 442.413646,335.719857 C442.413646,334.993682 441.825599,334.372439 440.613721,334.060029 L436.912485,333.195535 C433.590557,332.400201 431.895599,330.670022 431.895599,327.938222 C431.895599,324.513634 434.733253,322.299338 438.572853,322.299338 C443.140057,322.299338 445.908529,324.997751 446.426201,328.422338 L442.171509,328.422338 C441.687235,326.555032 440.025675,325.793085 438.538262,325.793085 C437.084248,325.793085 436.324439,326.520452 436.324439,327.454105 C436.324439,328.387758 437.050849,329.010194 438.467887,329.355991 L441.894781,330.187097 C445.180925,330.982432 446.807894,332.711419 446.807894,335.374059 C446.807894,338.592361 444.177786,341.04633 439.853912,341.04633 C435.147152,341.04633 432.2761,338.41827 431.58428,334.993682" id="Fill-61" fill="#FFFFFF"></path><path d="M453.550752,340.63197 L449.018139,340.63197 L449.018139,316.420185 L453.550752,316.420185 L453.550752,324.306752 C454.796028,322.991529 456.560168,322.266547 458.533048,322.266547 C462.683966,322.266547 465.521621,325.344144 465.521621,329.252848 L465.521621,340.63197 L460.989008,340.63197 L460.989008,330.151922 C460.989008,327.835078 459.501595,326.312377 457.287772,326.312377 C455.107347,326.312377 453.550752,327.764727 453.550752,330.151922 L453.550752,340.63197 Z" id="Fill-63" fill="#FFFFFF"></path><path d="M485.444004,337.173518 C488.418829,337.173518 490.875982,334.717164 490.875982,331.708726 C490.875982,328.664515 488.418829,326.277321 485.444004,326.277321 C482.434587,326.277321 480.010832,328.664515 480.010832,331.708726 C480.010832,334.717164 482.434587,337.173518 485.444004,337.173518 L485.444004,337.173518 Z M475.548595,316.4209 L480.081207,316.4209 L480.081207,324.410014 C481.672393,323.095984 483.644079,322.299457 485.823312,322.299457 C491.15271,322.299457 495.374004,326.519379 495.374004,331.708726 C495.374004,336.861108 491.15271,341.116802 485.823312,341.116802 C483.644079,341.116802 481.637802,340.321467 480.046616,338.971665 L480.046616,340.631493 L475.548595,340.631493 L475.548595,316.4209 Z" id="Fill-65" fill="#FFFFFF"></path><path d="M504.260668,337.622935 C506.509082,337.622935 508.309006,336.169394 508.309006,334.371247 L508.309006,333.230115 L503.672621,333.645072 C502.149425,333.783391 501.388423,334.405827 501.388423,335.581538 C501.388423,336.827601 502.564516,337.622935 504.260668,337.622935 M503.04879,330.290837 L508.309006,329.909267 L508.309006,329.217672 C508.309006,327.454105 507.13172,326.380941 505.02167,326.380941 C503.3947,326.380941 501.872697,326.900829 500.281511,327.972801 L498.377814,324.755692 C500.454466,323.234184 502.842437,322.36969 505.575125,322.36969 C509.865601,322.36969 512.702062,324.859432 512.702062,328.664396 L512.702062,335.685277 C512.702062,336.343485 513.047972,336.723862 513.706394,336.723862 L514.640351,336.723862 L514.640351,340.631373 L512.5303,340.631373 C510.799558,340.631373 509.4851,339.836039 508.86127,338.522009 C507.615994,340.112677 505.644307,341.08091 503.256336,341.08091 C499.693464,341.08091 497.063356,338.764067 497.063356,335.616118 C497.063356,332.400201 499.243781,330.566282 503.04879,330.290837" id="Fill-67" fill="#FFFFFF"></path><path d="M525.569076,337.103643 C527.471581,337.103643 529.028175,336.20457 530.067098,334.7868 L533.28406,337.138223 C531.485328,339.490838 529.063959,341.081506 525.569076,341.081506 C520.032132,341.081506 515.742849,336.861585 515.742849,331.67343 C515.742849,326.485276 520.032132,322.299934 525.569076,322.299934 C529.063959,322.299934 531.485328,323.891795 533.28406,326.243218 L530.067098,328.594641 C529.028175,327.176871 527.471581,326.277797 525.569076,326.277797 C522.627649,326.277797 520.239678,328.664992 520.239678,331.67343 C520.239678,334.683061 522.627649,337.103643 525.569076,337.103643" id="Fill-69" fill="#FFFFFF"></path><polygon id="Fill-71" fill="#FFFFFF" points="539.681127 316.420543 539.681127 330.462305 545.908698 322.749829 551.098539 322.749829 543.86783 331.36257 551.617404 340.632327 546.081653 340.632327 539.681127 332.642021 539.681127 340.632327 535.148514 340.632327 535.148514 316.420543"></polygon><path d="M211.184322,371.75553 C209.352192,371.75553 207.881479,373.243652 207.881479,375.113343 C207.881479,377.003305 209.352192,378.492619 211.184322,378.492619 C213.017644,378.492619 214.488358,377.003305 214.488358,375.113343 C214.488358,373.243652 213.017644,371.75553 211.184322,371.75553 M211.184322,380.210875 C208.282257,380.210875 205.952733,377.920265 205.952733,375.113343 C205.952733,372.308806 208.282257,370.037275 211.184322,370.037275 C214.086387,370.037275 216.415911,372.308806 216.415911,375.113343 C216.415911,377.920265 214.086387,380.210875 211.184322,380.210875" id="Fill-73" fill="#FFFFFF"></path><path d="M226.454217,379.981337 L224.525471,379.981337 L224.525471,374.140937 C224.525471,372.729129 223.609406,371.774013 222.234116,371.774013 C220.840934,371.774013 219.847337,372.748208 219.847337,374.198172 L219.847337,379.981337 L217.919784,379.981337 L217.919784,370.247734 L219.847337,370.247734 L219.847337,371.316129 C220.535579,370.514833 221.547067,370.036678 222.711233,370.036678 C224.945334,370.036678 226.454217,371.67862 226.454217,373.759367 L226.454217,379.981337 Z" id="Fill-75" fill="#FFFFFF"></path><path d="M235.154328,379.790313 L231.105989,370.247496 L233.187413,370.247496 L236.146732,377.461546 L239.010627,370.247496 L241.015712,370.247496 L236.356663,381.755397 C235.745953,383.206554 234.982566,383.818258 233.550022,383.818258 L232.271348,383.818258 L232.271348,382.176316 L233.168328,382.176316 C233.893546,382.176316 234.313409,381.890139 234.619957,381.125807 L235.154328,379.790313 Z" id="Fill-77" fill="#FFFFFF"></path><path d="M246.205076,371.75553 C244.371754,371.75553 242.90104,373.243652 242.90104,375.113343 C242.90104,377.003305 244.371754,378.492619 246.205076,378.492619 C248.037206,378.492619 249.507919,377.003305 249.507919,375.113343 C249.507919,373.243652 248.037206,371.75553 246.205076,371.75553 M246.205076,380.210875 C243.303011,380.210875 240.973487,377.920265 240.973487,375.113343 C240.973487,372.308806 243.303011,370.037275 246.205076,370.037275 C249.107141,370.037275 251.436665,372.308806 251.436665,375.113343 C251.436665,377.920265 249.107141,380.210875 246.205076,380.210875" id="Fill-79" fill="#FFFFFF"></path><path d="M252.939107,370.247615 L254.867853,370.247615 L254.867853,376.107093 C254.867853,377.461666 255.783918,378.472825 257.159208,378.472825 C258.55239,378.472825 259.545986,377.461666 259.545986,376.030779 L259.545986,370.247615 L261.473539,370.247615 L261.473539,379.981217 L259.545986,379.981217 L259.545986,378.893744 C258.87683,379.69504 257.846257,380.172002 256.680898,380.172002 C254.44799,380.172002 252.939107,378.550331 252.939107,376.469585 L252.939107,370.247615 Z" id="Fill-81" fill="#FFFFFF"></path><path d="M267.444779,371.965155 C266.18519,371.965155 265.267933,372.938158 265.267933,374.44655 L265.267933,379.981694 L263.340379,379.981694 L263.340379,370.248092 L265.248848,370.248092 L265.248848,371.448844 C265.727158,370.666626 266.50963,370.170586 267.578372,370.170586 L268.246336,370.170586 L268.246336,371.965155 L267.444779,371.965155 Z" id="Fill-83" fill="#FFFFFF"></path><path d="M272.633547,370.266216 L274.505039,370.266216 L274.505039,368.396525 C274.505039,367.078918 275.325681,366.123801 276.853648,366.123801 L278.494931,366.123801 L278.494931,367.822978 L277.178088,367.822978 C276.720055,367.822978 276.433785,368.09127 276.433785,368.625467 L276.433785,370.266216 L278.494931,370.266216 L278.494931,371.946315 L276.433785,371.946315 L276.433785,379.980741 L274.505039,379.980741 L274.505039,371.946315 L272.633547,371.946315 L272.633547,370.266216 Z" id="Fill-85" fill="#FFFFFF"></path><mask id="mask-2" fill="white"><use xlink:href="#path-1"></use></mask><g id="Clip-88"></g><path d="M279.656234,379.981337 L281.58498,379.981337 L281.58498,370.247734 L279.656234,370.247734 L279.656234,379.981337 Z M279.465387,367.728182 C279.465387,367.0974 279.981867,366.583473 280.630746,366.583473 C281.260541,366.583473 281.756742,367.0974 281.756742,367.728182 C281.756742,368.378043 281.260541,368.89197 280.630746,368.89197 C279.981867,368.89197 279.465387,368.378043 279.465387,367.728182 L279.465387,367.728182 Z" id="Fill-87" fill="#FFFFFF" mask="url(#mask-2)"></path><path d="M287.559202,371.965155 C286.299613,371.965155 285.382355,372.938158 285.382355,374.44655 L285.382355,379.981694 L283.454802,379.981694 L283.454802,370.248092 L285.363271,370.248092 L285.363271,371.448844 C285.841581,370.666626 286.624053,370.170586 287.692795,370.170586 L288.360759,370.170586 L288.360759,371.965155 L287.559202,371.965155 Z" id="Fill-89" fill="#FFFFFF" mask="url(#mask-2)"></path><path d="M289.045541,376.965387 L290.897948,376.965387 C291.126965,378.073131 292.081199,378.645485 293.284727,378.645485 C294.334385,378.645485 294.984457,378.149445 294.984457,377.404192 C294.984457,376.812759 294.563401,376.394225 293.646143,376.145012 L291.852183,375.706207 C290.114284,375.267402 289.217303,374.351635 289.217303,372.957713 C289.217303,371.182222 290.649848,370.036321 292.61557,370.036321 C294.88784,370.036321 296.376446,371.430242 296.643631,373.264161 L294.792417,373.264161 C294.563401,372.156417 293.590082,371.58287 292.597678,371.58287 C291.661336,371.58287 291.10788,372.078911 291.10788,372.766928 C291.10788,373.37744 291.584997,373.797166 292.501062,374.026108 L294.181707,374.464913 C295.97686,374.922797 296.872648,375.858835 296.872648,377.251564 C296.872648,378.931663 295.480658,380.190842 293.302619,380.190842 C290.934925,380.190842 289.389066,378.817192 289.045541,376.965387" id="Fill-90" fill="#FFFFFF" mask="url(#mask-2)"></path><path d="M298.969935,377.88175 L298.969935,371.945957 L297.117528,371.945957 L297.117528,370.247973 L298.969935,370.247973 L298.969935,367.383816 L300.897488,367.383816 L300.897488,370.247973 L303.131589,370.247973 L303.131589,371.945957 L300.897488,371.945957 L300.897488,377.460831 C300.897488,377.996221 301.260097,378.282398 301.852915,378.282398 L303.131589,378.282398 L303.131589,379.981575 L301.280375,379.981575 C299.789384,379.981575 298.969935,379.102773 298.969935,377.88175" id="Fill-91" fill="#FFFFFF" mask="url(#mask-2)"></path><path d="M313.323049,374.351158 L313.323049,378.110811 C314.658977,377.99634 315.385388,377.290436 315.385388,376.298355 C315.385388,375.400474 314.773485,374.789963 313.513896,374.408393 L313.323049,374.351158 Z M311.871421,372.194097 L311.871421,368.491679 C310.707255,368.60615 309.885421,369.273897 309.885421,370.304135 C309.885421,371.240173 310.535493,371.812527 311.758105,372.15594 L311.871421,372.194097 Z M308.015121,370.40072 C308.015121,368.377208 309.657597,367.022636 311.871421,366.887894 L311.871421,365.418851 L313.323049,365.418851 L313.323049,366.965401 C315.366303,367.326699 316.777377,368.777856 317.045756,370.800175 L315.155179,370.800175 C314.945248,369.712702 314.315453,368.930484 313.323049,368.625229 L313.323049,372.518431 L314.010098,372.709216 C316.20603,373.300649 317.255687,374.389315 317.255687,376.144535 C317.255687,378.110811 315.767082,379.581046 313.323049,379.714596 L313.323049,381.202717 L311.871421,381.202717 L311.871421,379.656168 C309.695766,379.294869 308.148714,377.824634 307.957867,375.743887 L309.848444,375.743887 C310.019013,376.889788 310.726339,377.710163 311.871421,377.99634 L311.871421,374.026824 L311.222541,373.855117 C309.083864,373.263684 308.015121,372.136862 308.015121,370.40072 L308.015121,370.40072 Z" id="Fill-92" fill="#FFFFFF" mask="url(#mask-2)"></path><polygon id="Fill-93" fill="#FFFFFF" mask="url(#mask-2)" points="326.395939 379.981337 318.568833 379.981337 318.568833 378.264273 321.507874 378.264273 321.507874 368.338694 318.872995 368.338694 318.872995 366.62163 323.437813 366.62163 323.437813 378.264273 326.395939 378.264273"></polygon><polygon id="Fill-94" fill="#FFFFFF" mask="url(#mask-2)" points="329.676119 379.981337 327.443211 379.981337 333.972559 368.338694 326.487784 368.338694 326.487784 366.62163 336.149406 366.62163 336.149406 368.052516"></polygon><path d="M337.233654,378.989136 C337.233654,379.656883 336.718368,380.172002 336.050404,380.172002 C335.401525,380.172002 334.867154,379.656883 334.867154,378.989136 C334.867154,378.339276 335.401525,377.805078 336.050404,377.805078 C336.718368,377.805078 337.233654,378.339276 337.233654,378.989136" id="Fill-95" fill="#FFFFFF" mask="url(#mask-2)"></path><path d="M347.485351,375.648375 C347.485351,378.225163 345.403927,380.191438 342.673625,380.191438 C340.746071,380.191438 339.141765,379.465264 337.976406,378.034378 L339.351697,376.832433 C340.210507,377.958064 341.356781,378.550689 342.636648,378.550689 C344.277931,378.550689 345.519628,377.328474 345.519628,375.764038 C345.519628,374.235375 344.297015,373.109745 342.65454,373.109745 C341.604882,373.109745 340.859387,373.416193 340.154446,374.045783 L338.588309,373.816841 L338.893664,366.621869 L346.58837,366.621869 L346.58837,368.338932 L340.593394,368.338932 L340.440716,372.155821 C341.202911,371.678859 342.024745,371.449917 343.018342,371.449917 C345.556605,371.449917 347.485351,373.282644 347.485351,375.648375" id="Fill-96" fill="#FFFFFF" mask="url(#mask-2)"></path><path d="M357.465686,371.735736 C357.465686,369.483283 356.244267,368.090554 354.277351,368.090554 C352.311629,368.090554 351.089016,369.483283 351.089016,371.735736 L351.089016,374.846721 C351.089016,377.099174 352.311629,378.512174 354.277351,378.512174 C356.244267,378.512174 357.465686,377.118253 357.465686,374.846721 L357.465686,371.735736 Z M349.16027,371.678501 C349.16027,368.472124 351.18444,366.392569 354.277351,366.392569 C357.370263,366.392569 359.394432,368.472124 359.394432,371.678501 L359.394432,374.903957 C359.394432,378.111526 357.370263,380.210159 354.277351,380.210159 C351.18444,380.210159 349.16027,378.111526 349.16027,374.903957 L349.16027,371.678501 Z" id="Fill-97" fill="#FFFFFF" mask="url(#mask-2)"></path><path d="M368.266067,378.682927 C369.659249,378.682927 370.785246,377.711117 370.785246,376.488902 L370.785246,375.686413 L368.037051,375.916547 C366.967116,375.991669 366.41366,376.469823 366.41366,377.271119 C366.41366,378.111765 367.177048,378.682927 368.266067,378.682927 M367.749588,374.446312 L370.785246,374.21737 L370.785246,373.58778 C370.785246,372.480036 370.060028,371.812289 368.781354,371.812289 C367.845012,371.812289 366.986201,372.099658 366.165559,372.747134 L365.306748,371.354405 C366.318237,370.495874 367.596911,370.074955 369.048539,370.074955 C371.243278,370.074955 372.675822,371.354405 372.675822,373.33976 L372.675822,377.729003 C372.675822,378.091494 372.866669,378.282279 373.248363,378.282279 L373.745757,378.282279 L373.745757,379.981456 L372.79033,379.981456 C371.855181,379.981456 371.168132,379.523572 370.920031,378.759241 C370.271152,379.655929 369.182132,380.191319 367.884374,380.191319 C365.974712,380.191319 364.562446,378.989375 364.562446,377.290198 C364.562446,375.591021 365.726612,374.579861 367.749588,374.446312" id="Fill-98" fill="#FFFFFF" mask="url(#mask-2)"></path><path d="M384.068186,378.416305 C385.920594,378.416305 387.353138,376.985419 387.353138,374.865323 L387.353138,366.621034 L389.358222,366.621034 L389.358222,379.980741 L387.372222,379.980741 L387.372222,378.740639 C386.475242,379.676677 385.233545,380.210875 383.840363,380.210875 C380.975275,380.210875 378.779343,378.130128 378.779343,374.980986 L378.779343,366.621034 L380.784428,366.621034 L380.784428,374.865323 C380.784428,377.022384 382.197887,378.416305 384.068186,378.416305" id="Fill-99" fill="#FFFFFF" mask="url(#mask-2)"></path><path d="M396.569251,378.511697 C398.401381,378.511697 399.910264,377.003305 399.910264,375.133614 C399.910264,373.243652 398.401381,371.75553 396.569251,371.75553 C394.716844,371.75553 393.209154,373.243652 393.209154,375.133614 C393.209154,377.003305 394.697759,378.511697 396.569251,378.511697 L396.569251,378.511697 Z M391.318577,366.621034 L393.247323,366.621034 L393.247323,371.487239 C394.125219,370.590551 395.347831,370.037275 396.701651,370.037275 C399.566739,370.037275 401.818732,372.308806 401.818732,375.133614 C401.818732,377.939343 399.566739,380.210875 396.701651,380.210875 C395.347831,380.210875 394.106134,379.656406 393.227046,378.759718 L393.227046,379.980741 L391.318577,379.980741 L391.318577,366.621034 Z" id="Fill-100" fill="#FFFFFF" mask="url(#mask-2)"></path><path d="M404.945639,374.217251 L410.884554,374.217251 C410.558921,372.729129 409.356586,371.735856 407.924042,371.735856 C406.492691,371.735856 405.289163,372.729129 404.945639,374.217251 M407.962212,370.056949 C410.768853,370.056949 412.831192,372.212818 412.831192,375.113939 L412.831192,375.743529 L404.908662,375.743529 C405.174655,377.328235 406.492691,378.512294 408.135166,378.512294 C409.261163,378.512294 410.215397,378.05441 410.940615,377.080215 L412.33499,378.111646 C411.361671,379.408982 409.910042,380.1912 408.135166,380.1912 C405.214017,380.1912 402.960831,378.016253 402.960831,375.113939 C402.960831,372.365446 405.118594,370.056949 407.962212,370.056949" id="Fill-101" fill="#FFFFFF" mask="url(#mask-2)"></path><path d="M418.440181,371.965155 C417.179399,371.965155 416.264526,372.938158 416.264526,374.44655 L416.264526,379.981694 L414.335781,379.981694 L414.335781,370.248092 L416.244249,370.248092 L416.244249,371.448844 C416.722559,370.666626 417.505031,370.170586 418.573773,370.170586 L419.24293,370.170586 L419.24293,371.965155 L418.440181,371.965155 Z" id="Fill-102" fill="#FFFFFF" mask="url(#mask-2)"></path><polygon id="Fill-103" fill="#FFFFFF" mask="url(#mask-2)" points="424.412375 366.621511 432.526944 366.621511 432.526944 368.377924 426.417459 368.377924 426.417459 372.404676 432.336097 372.404676 432.336097 374.140817 426.417459 374.140817 426.417459 378.224805 432.526944 378.224805 432.526944 379.981217 424.412375 379.981217"></polygon><path d="M437.372307,378.682927 C438.765489,378.682927 439.891485,377.711117 439.891485,376.488902 L439.891485,375.686413 L437.143291,375.916547 C436.073356,375.991669 435.5199,376.469823 435.5199,377.271119 C435.5199,378.111765 436.283287,378.682927 437.372307,378.682927 M436.855828,374.446312 L439.891485,374.21737 L439.891485,373.58778 C439.891485,372.480036 439.166267,371.812289 437.887594,371.812289 C436.951251,371.812289 436.09244,372.099658 435.271799,372.747134 L434.412988,371.354405 C435.424476,370.495874 436.70315,370.074955 438.154779,370.074955 C440.349518,370.074955 441.782062,371.354405 441.782062,373.33976 L441.782062,377.729003 C441.782062,378.091494 441.972909,378.282279 442.355795,378.282279 L442.851997,378.282279 L442.851997,379.981456 L441.89657,379.981456 C440.961421,379.981456 440.274372,379.523572 440.026271,378.759241 C439.377392,379.655929 438.288372,380.191319 436.990613,380.191319 C435.080952,380.191319 433.668685,378.989375 433.668685,377.290198 C433.668685,375.591021 434.832851,374.579861 436.855828,374.446312" id="Fill-104" fill="#FFFFFF" mask="url(#mask-2)"></path><path d="M444.775972,377.88175 L444.775972,371.945957 L442.923565,371.945957 L442.923565,370.247973 L444.775972,370.247973 L444.775972,367.383816 L446.703525,367.383816 L446.703525,370.247973 L448.937626,370.247973 L448.937626,371.945957 L446.703525,371.945957 L446.703525,377.460831 C446.703525,377.996221 447.066134,378.282398 447.658952,378.282398 L448.937626,378.282398 L448.937626,379.981575 L447.086412,379.981575 C445.595421,379.981575 444.775972,379.102773 444.775972,377.88175" id="Fill-105" fill="#FFFFFF" mask="url(#mask-2)"></path><path d="M449.450527,376.965387 L451.302934,376.965387 C451.53195,378.073131 452.486185,378.645485 453.689712,378.645485 C454.73937,378.645485 455.389442,378.149445 455.389442,377.404192 C455.389442,376.812759 454.968386,376.394225 454.051129,376.145012 L452.257168,375.706207 C450.519269,375.267402 449.623482,374.351635 449.623482,372.957713 C449.623482,371.182222 451.054833,370.036321 453.020556,370.036321 C455.292826,370.036321 456.781431,371.430242 457.048617,373.264161 L455.197403,373.264161 C454.968386,372.156417 453.995067,371.58287 453.002664,371.58287 C452.066321,371.58287 451.512866,372.078911 451.512866,372.766928 C451.512866,373.37744 451.989983,373.797166 452.906048,374.026108 L454.586693,374.464913 C456.381846,374.922797 457.277633,375.858835 457.277633,377.251564 C457.277633,378.931663 455.885644,380.190842 453.707604,380.190842 C451.341103,380.190842 449.794051,378.817192 449.450527,376.965387" id="Fill-106" fill="#FFFFFF" mask="url(#mask-2)"></path><polygon id="Fill-107" fill="#FFFFFF" mask="url(#mask-2)" points="461.914257 371.239696 461.934535 373.682934 460.673753 373.682934 460.692837 371.239696 458.535075 372.57519 457.886196 371.487716 460.120297 370.131952 457.924365 368.815536 458.573245 367.728063 460.692837 369.044478 460.673753 366.621511 461.934535 366.621511 461.914257 369.026592 464.014765 367.728063 464.682729 368.815536 462.486798 370.131952 464.722092 371.487716 464.052935 372.57519"></polygon></g></g></g></g></g></g></svg> 