<?xml version="1.0" encoding="UTF-8"?> <svg xmlns="http://www.w3.org/2000/svg" xmlns:xlink="http://www.w3.org/1999/xlink" width="127px" height="53px" viewBox="0 0 127 53" version="1.1"><title>Youtube</title><g id="How-to-Post" stroke="none" stroke-width="1" fill="none" fill-rule="evenodd"><g id="Desktop-HD-Copy" transform="translate(-89.000000, -3246.000000)" fill="#010101"><g id="Youtube" transform="translate(89.000000, 3246.000000)"><g id="youtube-2"><path d="M21.2447185,42.9095331 C20.2281847,42.5601608 19.5333292,42.0862848 18.6849916,41.1657204 C16.9030766,39.231849 16.8051525,38.6545588 16.8051525,30.0666049 C16.8051525,21.7916886 16.9319972,21.0123976 18.5921412,19.0693791 C20.9197422,16.3460532 26.3017646,16.4265994 28.6001914,19.2190375 C30.126641,21.0738872 30.2506951,21.8996764 30.2506951,30.1936494 C30.2506951,36.7577845 30.1938687,37.8518917 29.7940541,39.0003739 C29.1811403,40.759178 27.3751248,42.460812 25.5427257,43.0058329 C23.8145929,43.5198549 22.9634647,43.5010523 21.2447185,42.909279 L21.2447185,42.9095331 Z M24.404421,38.9289749 C25.442011,38.5300552 25.5574397,37.6570054 25.5574397,30.218296 C25.5574397,25.4714054 25.4620524,22.8934185 25.2707706,22.4731553 C24.6289362,21.061945 22.4269115,21.061945 21.7850771,22.4731553 C21.5937952,22.8934185 21.4984079,25.4714054 21.4984079,30.218296 C21.4984079,38.518113 21.6041965,38.9996117 23.4436989,39.0669453 C23.7463505,39.0778711 24.1786373,39.0156193 24.404421,38.9289749 L24.404421,38.9289749 Z M35.6750837,42.7702924 C35.3097708,42.5715948 34.7957959,41.975502 34.533481,41.4464887 C34.0907929,40.5541281 34.0507099,39.6414405 33.9806916,28.8596821 L33.9053459,17.2351106 L38.7492929,17.2351106 L38.7492929,27.8755955 C38.7492929,36.9829073 38.8035824,38.5618163 39.1265291,38.8298802 C39.688705,39.2971499 40.6019872,38.9551461 41.6347571,37.8905132 L42.5546351,36.941999 L42.5546351,17.2351106 L47.3747353,17.2351106 L47.3747353,42.8983532 L42.5546351,42.8983532 L42.5546351,40.3142681 L41.3496101,41.3857614 C40.6869731,41.9749938 39.7772427,42.6135195 39.3282123,42.8048485 C38.2814895,43.2502665 36.5267193,43.2334966 35.6750837,42.7702924 L35.6750837,42.7702924 Z M6.27374094,35.8468754 L6.2699356,28.7959058 L3.13509464,18.7593905 L0.000253689484,8.7228752 L2.54729611,8.64995166 C4.03822921,8.60726471 5.15852197,8.68145869 5.2493428,8.82883031 C5.33483616,8.96730881 6.14334455,11.8867914 7.04597173,15.3164846 C7.94910629,18.7461779 8.74518389,21.5528449 8.81596326,21.5533531 C8.88699632,21.5538613 9.55217014,19.2391105 10.2944656,16.4090673 C11.0370147,13.5792782 11.814573,10.6636069 12.022852,9.92979793 L12.4016104,8.5958307 L15.0744828,8.5958307 C17.2521534,8.5958307 17.7224937,8.66138566 17.6121387,8.94901441 C17.5378077,9.1431384 16.0983736,13.7119126 14.4138754,19.1016484 L11.3510823,28.9010987 L11.3510823,42.897845 L6.27729259,42.897845 L6.27374094,35.8468754 L6.27374094,35.8468754 Z" id="Shape" fill-rule="nonzero"></path><path d="M72.2692844,52.7953737 C59.8752847,52.3809545 56.5192265,51.4974871 54.2375432,48.0469585 C53.3156357,46.6530263 52.2808363,43.5333216 51.9512936,41.1540323 C50.7944696,32.8031434 51.0786018,15.3894082 52.4690739,9.38757201 C53.7283885,3.95235432 56.6897058,1.28975574 62.0917697,0.735079463 C67.3984463,0.190058568 81.2321339,-0.106717378 94.6878241,0.0355724593 C109.214591,0.189042212 116.053806,0.500301231 118.528293,1.12053247 C123.368689,2.33329924 125.716839,5.90452007 126.535495,13.2964771 C126.690245,14.6939666 126.880512,19.5729835 126.958141,24.1384545 C127.271194,42.5687998 125.886811,48.4319034 120.61083,51.0208161 C118.618607,51.9985506 117.315404,52.2231652 111.684766,52.5598332 C105.569327,52.9252131 80.6128778,53.0743634 72.2692844,52.7953737 Z M78.3664575,42.7497112 C78.7941779,42.5278915 79.6445451,41.8847922 80.2564441,41.3191901 L81.3691262,40.2926706 L81.3691262,42.8980991 L86.1892264,42.8980991 L86.1892264,17.4889455 L81.3691262,17.4889455 L81.3691262,36.8670427 L80.2610105,37.9766494 C79.0717142,39.1680727 78.590719,39.3167147 77.9625838,38.6875904 C77.6129997,38.3374558 77.5637839,37.0039967 77.5637839,27.8888081 L77.5637839,17.4889455 L72.7436837,17.4889455 L72.7436837,28.4958267 C72.7436837,40.6379775 72.8433837,41.598688 74.2069647,42.6180931 C75.07027,43.263225 77.2421057,43.331829 78.3664575,42.7497112 Z M101.566361,42.6676404 C102.009049,42.3972897 102.62247,41.6436618 102.961653,40.953556 C103.556808,39.7430761 103.568732,39.5763937 103.652196,31.3418775 C103.743524,22.3135874 103.598414,20.6833524 102.539514,18.8534034 C101.951208,17.8365393 100.548305,16.9807675 99.4688561,16.9807675 C98.4292366,16.9807675 96.939572,17.6812909 95.8038041,18.7039991 L94.5612331,19.822753 L94.5612331,8.8499197 L89.9948223,8.8499197 L89.9948223,42.897845 L94.5612331,42.897845 L94.5612331,40.5520954 L95.6026284,41.4945115 C96.1754592,42.012599 97.003248,42.5931923 97.4418771,42.7842673 C98.6197574,43.2980352 100.627456,43.2411193 101.566361,42.6673863 L101.566361,42.6676404 Z M95.5123149,38.5229407 L94.5609794,37.9705512 L94.5609794,22.3872732 L95.6868533,21.7891477 C96.6003891,21.3038377 96.9471826,21.2385368 97.5261021,21.4420621 C98.7770449,21.8821443 98.911754,22.8527642 98.8249922,30.7874554 L98.7468558,37.8607848 L98.0350032,38.4736475 C97.1635798,39.2242263 96.7353519,39.2326113 95.5123149,38.5229407 Z M116.885654,42.6226667 C119.337309,41.5095028 120.441366,39.6269574 120.634423,36.2302957 L120.761268,34.0049843 L115.870642,34.0049843 L115.870642,35.5132566 C115.870642,37.3604836 115.584734,38.1674702 114.732338,38.7269742 C113.771616,39.3571149 112.577499,38.9566706 112.002639,37.8109834 C111.655338,37.1196072 111.558682,36.2770481 111.558682,33.941208 L111.557921,30.9556623 L120.690743,30.9556623 L120.690743,27.2248736 C120.690743,22.5293089 120.324161,21.0327247 118.743422,19.271888 C117.346608,17.7161011 115.850093,17.0966321 113.587437,17.1383027 C111.711911,17.1726047 110.458685,17.6408907 109.14229,18.7985202 C106.991003,20.690721 106.664758,22.3766014 106.793379,30.9559164 C106.877096,36.5303748 106.969186,37.8884805 107.33044,38.8471583 C107.947412,40.4839996 109.06187,41.7303061 110.592379,42.4943517 C112.317467,43.3546971 115.146105,43.4126293 116.885654,42.6226667 Z M111.558175,25.2302749 C111.558175,22.069916 112.367698,20.9915623 114.404824,21.4397753 C115.427447,21.6648982 115.87115,22.8113477 115.87115,25.230529 L115.87115,27.1443273 L111.558428,27.1443273 L111.558428,25.230529 L111.558175,25.2302749 Z M67.9235835,28.2879819 L67.9235835,13.6778647 L73.5047522,13.6778647 L73.5047522,8.85017379 L57.5223147,8.85017379 L57.5223147,13.6778647 L62.8497939,13.6778647 L62.8497939,42.8980991 L67.9235835,42.8980991 L67.9235835,28.2879819 Z" id="Shape" fill-rule="nonzero"></path></g></g></g></g></svg> 