<svg xmlns="http://www.w3.org/2000/svg" viewBox="0 0 150 150">
  <g id="Group_8" data-name="Group 8" transform="translate(-4915.455 -581.689)">
    <rect id="Rectangle_4" data-name="Rectangle 4" width="150" height="150" rx="31.203" transform="translate(4915.455 581.689)" fill="#d40001"/>
    <g id="Group_7" data-name="Group 7">
      <path id="Path_11" data-name="Path 11" d="M5017.805,608.64h-54.7c-6.549,0-11.907,5.114-11.907,11.364s5.358,11.363,11.907,11.363H4992.7l-23.851,26.071c-4.259,4.974-3.859,12.37.888,16.434s12.117,3.32,16.376-1.654l40.144-43.88a12.383,12.383,0,0,0,1.3-1.844,10.92,10.92,0,0,0,2.157-6.49C5029.711,613.754,5024.353,608.64,5017.805,608.64Z" fill="#fff"/>
      <path id="Path_12" data-name="Path 12" d="M5012.506,682.318c-.215.18-21.671,17.664-48.889-.338a7.327,7.327,0,1,0-8.085,12.222c11.717,7.751,23.124,10.537,33.241,10.537,14.91,0,27.011-6.053,33.139-11.181a7.328,7.328,0,0,0-9.406-11.24Z" fill="#fff"/>
    </g>
  </g>
</svg>
