<?xml version="1.0" encoding="UTF-8"?> <!-- Generator: Adobe Illustrator 24.1.0, SVG Export Plug-In . SVG Version: 6.00 Build 0) --> <svg xmlns="http://www.w3.org/2000/svg" xmlns:xlink="http://www.w3.org/1999/xlink" id="Layer_1" x="0px" y="0px" viewBox="0 0 664 634.3" style="enable-background:new 0 0 664 634.3;" xml:space="preserve"> <style type="text/css"> .st0{fill:#EDD5EF;} .st1{fill:#FF5050;stroke:#1C1C1C;stroke-miterlimit:10;} .st2{fill:#FF5050;stroke:#1C1C1C;stroke-width:1;stroke-miterlimit:10.0001;} .st3{fill:#262626;} .st4{fill:none;stroke:#FFFFFF;stroke-width:1.0008;stroke-miterlimit:10;} .st5{fill:url(#SVGID_1_);} .st6{fill:none;stroke:#FFBDBD;stroke-width:1.5;stroke-miterlimit:10;} .st7{fill:#44C87F;stroke:#1D2124;stroke-width:0.8;stroke-miterlimit:10;} .st8{fill:none;stroke:#FFFFFF;stroke-miterlimit:10;} .st9{fill:#ECCCEE;} .st10{clip-path:url(#SVGID_3_);} .st11{fill:#FFFFFF;stroke:#1C1C1C;stroke-miterlimit:10;} .st12{fill:none;stroke:#1D2124;stroke-width:1.0008;stroke-miterlimit:10;} .st13{fill:#AC43B3;stroke:#080808;stroke-width:1.0008;stroke-miterlimit:10;} .st14{fill:#1D2124;} .st15{clip-path:url(#SVGID_5_);fill:#FFFFFF;stroke:#1D2124;stroke-width:1.0008;stroke-miterlimit:10;} .st16{fill:#FF8240;stroke:#1C1C1C;stroke-miterlimit:10;} .st17{fill:#FFC1A0;stroke:#1C1C1C;stroke-miterlimit:10;} .st18{fill:#44C87F;stroke:#1C1C1C;stroke-miterlimit:10;} .st19{fill:#D3F0DF;stroke:#1C1C1C;stroke-miterlimit:10;} .st20{fill:#FFCCCC;stroke:#1C1C1C;stroke-miterlimit:10;} .st21{clip-path:url(#SVGID_7_);} .st22{clip-path:url(#SVGID_9_);fill:#FFFFFF;stroke:#1D2124;stroke-width:1.0008;stroke-miterlimit:10;} .st23{fill:#FF5050;stroke:#1D2124;stroke-width:0.8;stroke-miterlimit:10;} .st24{fill:#FFFFFF;stroke:#1D2124;stroke-width:1.0008;stroke-miterlimit:10;} .st25{fill:#FF8240;stroke:#1D2124;stroke-miterlimit:10;} .st26{fill:#FFDFCE;stroke:#1D2124;stroke-miterlimit:10;} .st27{fill:none;stroke:#1D2124;stroke-width:0.8;stroke-miterlimit:10;} .st28{fill:#FF8240;stroke:#1D2124;stroke-width:0.8;stroke-miterlimit:10;} .st29{fill:#FFFFFF;} .st30{fill:#FBEBFF;stroke:#080808;stroke-width:1.0008;stroke-miterlimit:10;} .st31{fill:#E8F9EF;stroke:#1C1C1C;stroke-miterlimit:10;} .st32{fill:#FFEBEB;stroke:#1D2124;stroke-miterlimit:10;} .st33{fill:#FF5050;} .st34{fill:#FFBDBD;} .st35{clip-path:url(#SVGID_11_);} .st36{clip-path:url(#SVGID_13_);fill:#FFFFFF;stroke:#1D2124;stroke-width:1.0008;stroke-miterlimit:10;} .st37{fill:#FFBDBD;stroke:#1D2124;stroke-miterlimit:10;} .st38{fill:none;} .st39{fill:#EEF3FF;stroke:#1C1C1C;stroke-miterlimit:10;} .st40{fill:none;stroke:#2B2B2B;stroke-width:1.0008;stroke-miterlimit:10;} .st41{fill:#FFC1A0;stroke:#1C1C1C;stroke-width:1;stroke-miterlimit:10.0003;} .st42{fill:#FFC1A0;stroke:#1C1C1C;stroke-width:1;stroke-miterlimit:9.9999;} .st43{fill:#FFC1A0;stroke:#1C1C1C;stroke-width:0.9999;stroke-miterlimit:9.9994;} .st44{fill:#FFC1A0;stroke:#1C1C1C;stroke-width:1;stroke-miterlimit:10;} </style> <rect class="st0" width="664" height="634.3"></rect> <path class="st1" d="M49.5,20.9L49.5,20.9c7,0,12.7,5.6,12.7,12.5l0.2,45.3c0,6.9-5.6,12.6-12.5,12.6h0c-6.9,0-12.6-5.6-12.6-12.5 l-0.2-45.3C36.9,26.6,42.6,20.9,49.5,20.9z"></path> <rect x="83.4" y="108" transform="matrix(1 -3.837487e-03 3.837487e-03 1 -0.4583 0.7246)" class="st2" width="210.3" height="23.5"></rect> <g> <path class="st1" d="M78,135.1l20.5-0.1l-0.1-30.5l-20.5,0.1c-7,0-12.7-5.6-12.7-12.6L65.1,72l-30.5,0.1l0.1,20.1 C34.8,116,54.2,135.2,78,135.1z"></path> </g> <path class="st1" d="M618.9,218.6L618.9,218.6c-7,0-12.6-5.7-12.6-12.6v-63.7c0-6.9,5.7-12.6,12.6-12.6h0c6.9,0,12.6,5.7,12.6,12.6 V206C631.5,212.9,625.9,218.6,618.9,218.6z"></path> <rect x="-1752" y="1218.5" class="st3" width="609.2" height="483.6"></rect> <g> <rect x="-2083.6" y="1234" class="st4" width="470" height="469.2"></rect> <line class="st4" x1="-2083.6" y1="1624.9" x2="-1613.8" y2="1624.9"></line> <line class="st4" x1="-2083.6" y1="1546.7" x2="-1613.8" y2="1546.7"></line> <line class="st4" x1="-2083.6" y1="1468.6" x2="-1613.8" y2="1468.6"></line> <line class="st4" x1="-2083.6" y1="1390.3" x2="-1613.8" y2="1390.3"></line> <line class="st4" x1="-2083.6" y1="1312.1" x2="-1613.8" y2="1312.1"></line> <line class="st4" x1="-1692" y1="1234" x2="-1692" y2="1703.2"></line> <line class="st4" x1="-1770.4" y1="1234" x2="-1770.4" y2="1703.2"></line> <line class="st4" x1="-1848.8" y1="1234" x2="-1848.8" y2="1703.2"></line> <line class="st4" x1="-1927" y1="1234" x2="-1927" y2="1703.2"></line> <line class="st4" x1="-2005.4" y1="1234" x2="-2005.4" y2="1703.2"></line> </g> <g> <rect x="-1613.6" y="1234" class="st4" width="470" height="469.2"></rect> <line class="st4" x1="-1613.6" y1="1624.9" x2="-1143.8" y2="1624.9"></line> <line class="st4" x1="-1613.6" y1="1546.7" x2="-1143.8" y2="1546.7"></line> <line class="st4" x1="-1613.6" y1="1468.6" x2="-1143.8" y2="1468.6"></line> <line class="st4" x1="-1613.6" y1="1390.3" x2="-1143.8" y2="1390.3"></line> <line class="st4" x1="-1613.6" y1="1312.1" x2="-1143.8" y2="1312.1"></line> <line class="st4" x1="-1222" y1="1234" x2="-1222" y2="1703.2"></line> <line class="st4" x1="-1300.4" y1="1234" x2="-1300.4" y2="1703.2"></line> <line class="st4" x1="-1378.8" y1="1234" x2="-1378.8" y2="1703.2"></line> <line class="st4" x1="-1457" y1="1234" x2="-1457" y2="1703.2"></line> <line class="st4" x1="-1535.4" y1="1234" x2="-1535.4" y2="1703.2"></line> </g> <linearGradient id="SVGID_1_" gradientUnits="userSpaceOnUse" x1="-1698.2195" y1="-2170.6626" x2="-1698.2195" y2="-2059.8228" gradientTransform="matrix(6.123234e-17 -1 1 6.123234e-17 416.8326 -228.6045)"> <stop offset="0" style="stop-color:#262626"></stop> <stop offset="0.888" style="stop-color:#262626;stop-opacity:0.112"></stop> <stop offset="1" style="stop-color:#262626;stop-opacity:0"></stop> </linearGradient> <polygon class="st5" points="-1753.8,1205.4 -1753.8,1733.8 -1643,1733.8 -1643,1205.4 "></polygon> <rect x="-1787.8" y="-9.4" class="st3" width="728.8" height="609.3"></rect> <g> <rect x="-1579.2" y="18.3" class="st4" width="519.9" height="519"></rect> <line class="st4" x1="-1579.2" y1="450.8" x2="-1059.5" y2="450.8"></line> <line class="st4" x1="-1579.2" y1="364.2" x2="-1059.5" y2="364.2"></line> <line class="st4" x1="-1579.2" y1="277.8" x2="-1059.5" y2="277.8"></line> <line class="st4" x1="-1579.2" y1="191.3" x2="-1059.5" y2="191.3"></line> <line class="st4" x1="-1579.2" y1="104.7" x2="-1059.5" y2="104.7"></line> <line class="st4" x1="-1146" y1="18.3" x2="-1146" y2="537.3"></line> <line class="st4" x1="-1232.8" y1="18.3" x2="-1232.8" y2="537.3"></line> <line class="st4" x1="-1319.4" y1="18.3" x2="-1319.4" y2="537.3"></line> <line class="st4" x1="-1406" y1="18.3" x2="-1406" y2="537.3"></line> <line class="st4" x1="-1492.7" y1="18.3" x2="-1492.7" y2="537.3"></line> </g> <polyline class="st6" points="-1320.8,191.3 -1406.2,191.3 -1406.2,277.8 -1434.2,277.8 "></polyline> <rect x="-1767.6" y="624.8" class="st3" width="714.4" height="519"></rect> <g> <rect x="-1585.7" y="624.8" class="st4" width="519.9" height="519"></rect> <line class="st4" x1="-1585.7" y1="1057.3" x2="-1065.9" y2="1057.3"></line> <line class="st4" x1="-1585.7" y1="970.7" x2="-1065.9" y2="970.7"></line> <line class="st4" x1="-1585.7" y1="884.3" x2="-1065.9" y2="884.3"></line> <line class="st4" x1="-1585.7" y1="797.8" x2="-1065.9" y2="797.8"></line> <line class="st4" x1="-1585.7" y1="711.2" x2="-1065.9" y2="711.2"></line> <line class="st4" x1="-1152.5" y1="624.8" x2="-1152.5" y2="1143.8"></line> <line class="st4" x1="-1239.2" y1="624.8" x2="-1239.2" y2="1143.8"></line> <line class="st4" x1="-1325.9" y1="624.8" x2="-1325.9" y2="1143.8"></line> <line class="st4" x1="-1412.4" y1="624.8" x2="-1412.4" y2="1143.8"></line> <line class="st4" x1="-1499.1" y1="624.8" x2="-1499.1" y2="1143.8"></line> </g> <g> <rect x="-2019.1" y="624.8" class="st4" width="519.9" height="519"></rect> <line class="st4" x1="-2019.1" y1="1057.3" x2="-1499.3" y2="1057.3"></line> <line class="st4" x1="-2019.1" y1="970.7" x2="-1499.3" y2="970.7"></line> <line class="st4" x1="-2019.1" y1="884.3" x2="-1499.3" y2="884.3"></line> <line class="st4" x1="-2019.1" y1="797.8" x2="-1499.3" y2="797.8"></line> <line class="st4" x1="-2019.1" y1="711.2" x2="-1499.3" y2="711.2"></line> <line class="st4" x1="-1585.8" y1="624.8" x2="-1585.8" y2="1143.8"></line> <line class="st4" x1="-1672.6" y1="624.8" x2="-1672.6" y2="1143.8"></line> <line class="st4" x1="-1759.2" y1="624.8" x2="-1759.2" y2="1143.8"></line> <line class="st4" x1="-1845.8" y1="624.8" x2="-1845.8" y2="1143.8"></line> <line class="st4" x1="-1932.5" y1="624.8" x2="-1932.5" y2="1143.8"></line> </g> <path class="st7" d="M-1143,1696.8h-605.5l0.2-6.5l357.4-48.1c137.3-15.2,226.4-167.7,246-363.9h1.4L-1143,1696.8z"></path> <line class="st8" x1="-1497.8" y1="969.5" x2="-1584.7" y2="1056"></line> <g> <g> <g> <path id="XMLID_20_" class="st9" d="M-1418.5,924.6v1.2h11.4l0,0c25.9-0.4,46.7-21.5,46.7-47.4s-20.9-47-46.7-47.4l0,0h-11.4v1.2 c-21.2,4.8-37.1,23.7-37.1,46.3S-1439.6,919.8-1418.5,924.6z"></path> </g> <g> <g> <defs> <path id="SVGID_2_" d="M-1418.5,924.6v1.2h11.4l0,0c25.9-0.4,46.7-21.5,46.7-47.4s-20.9-47-46.7-47.4l0,0h-11.4v1.2 c-21.2,4.8-37.1,23.7-37.1,46.3S-1439.6,919.8-1418.5,924.6z"></path> </defs> <clipPath id="SVGID_3_"> <use xlink:href="#SVGID_2_" style="overflow:visible;"></use> </clipPath> <g class="st10"> <rect x="-1421.3" y="871.8" class="st11" width="69" height="17.3"></rect> </g> </g> </g> <g> <path id="XMLID_19_" class="st12" d="M-1418.5,924.6v1.2h11.4l0,0c25.9-0.4,46.7-21.5,46.7-47.4s-20.9-47-46.7-47.4l0,0h-11.4 v1.2c-21.2,4.8-37.1,23.7-37.1,46.3S-1439.6,919.8-1418.5,924.6z"></path> </g> </g> <ellipse class="st13" cx="-1418.4" cy="878.3" rx="47.6" ry="47.5"></ellipse> <g> <g> <ellipse id="XMLID_18_" class="st14" cx="-1418.4" cy="878.3" rx="38.4" ry="38.4"></ellipse> </g> <g> <g> <defs> <ellipse id="SVGID_4_" cx="-1418.4" cy="878.3" rx="38.4" ry="38.4"></ellipse> </defs> <clipPath id="SVGID_5_"> <use xlink:href="#SVGID_4_" style="overflow:visible;"></use> </clipPath> <ellipse class="st15" cx="-1413.2" cy="878.3" rx="38.4" ry="38.4"></ellipse> </g> </g> <g> <ellipse id="XMLID_17_" class="st12" cx="-1418.4" cy="878.3" rx="38.4" ry="38.4"></ellipse> </g> </g> </g> <circle class="st16" cx="-1499" cy="883.6" r="9.3"></circle> <circle class="st17" cx="-1499" cy="970.7" r="9.3"></circle> <line class="st8" x1="-1499" y1="797.8" x2="-1585.8" y2="711.2"></line> <circle class="st17" cx="-1585.8" cy="797.8" r="9.3"></circle> <circle class="st17" cx="-1585.8" cy="711.2" r="9.3"></circle> <circle class="st17" cx="-1499" cy="797.8" r="9.3"></circle> <g> <g> <polygon class="st16" points="-1534.7,752.5 -1534.6,749.5 -1547.7,749.3 -1547.8,762.4 -1544.7,762.5 -1544.7,752.5 "></polygon> </g> </g> <g> <g> <polygon class="st16" points="-1539.1,790.6 -1541.3,788.5 -1550.4,797.9 -1541.1,807 -1538.9,804.8 -1546.1,797.8 "></polygon> </g> </g> <g> <g> <polygon class="st16" points="-1492,848 -1489.9,845.8 -1499.3,836.6 -1508.4,846 -1506.2,848.2 -1499.2,841 "></polygon> </g> </g> <g> <g> <polygon class="st16" points="-1544.4,1015.4 -1544.5,1005.4 -1547.6,1005.4 -1547.4,1018.5 -1534.4,1018.4 -1534.4,1015.3 "></polygon> </g> </g> <g> <g> <polygon class="st16" points="-1545.8,970 -1538.6,963.1 -1540.8,960.9 -1550.2,970 -1541.1,979.4 -1538.8,977.2 "></polygon> </g> </g> <g> <g> <polygon class="st16" points="-1498.9,926.9 -1505.9,919.7 -1508.1,921.8 -1499,931.2 -1489.6,922.1 -1491.8,919.9 "></polygon> </g> </g> <circle class="st17" cx="-1585.8" cy="1057.3" r="9.3"></circle> <circle class="st17" cx="-1585.8" cy="970.7" r="9.3"></circle> <line class="st8" x1="-1327" y1="799.1" x2="-1240.2" y2="712.6"></line> <circle class="st18" cx="-1325.8" cy="885" r="9.3"></circle> <circle class="st19" cx="-1325.8" cy="797.8" r="9.3"></circle> <line class="st8" x1="-1325.8" y1="970.8" x2="-1239" y2="1057.3"></line> <circle class="st19" cx="-1239" cy="970.8" r="9.3"></circle> <circle class="st19" cx="-1239" cy="1057.3" r="9.3"></circle> <circle class="st19" cx="-1325.8" cy="970.8" r="9.3"></circle> <g> <g> <polygon class="st18" points="-1290.2,1016 -1290.2,1019.1 -1277.1,1019.2 -1277,1006.2 -1280.1,1006.1 -1280.2,1016.1 "></polygon> </g> </g> <g> <g> <polygon class="st18" points="-1285.7,978 -1283.5,980.1 -1274.4,970.7 -1283.8,961.6 -1285.9,963.8 -1278.7,970.8 "></polygon> </g> </g> <g> <g> <polygon class="st18" points="-1332.8,920.6 -1334.9,922.8 -1325.5,932 -1316.4,922.6 -1318.6,920.4 -1325.6,927.6 "></polygon> </g> </g> <g> <g> <polygon class="st18" points="-1280.4,753.2 -1280.3,763.2 -1277.2,763.2 -1277.4,750.1 -1290.4,750.2 -1290.4,753.3 "></polygon> </g> </g> <g> <g> <polygon class="st18" points="-1279,798.5 -1286.2,805.5 -1284,807.7 -1274.6,798.6 -1283.7,789.2 -1286,791.4 "></polygon> </g> </g> <g> <g> <polygon class="st18" points="-1325.9,841.7 -1318.9,848.9 -1316.7,846.8 -1325.8,837.4 -1335.2,846.5 -1333,848.7 "></polygon> </g> </g> <circle class="st19" cx="-1239" cy="711.3" r="9.3"></circle> <circle class="st19" cx="-1239" cy="797.8" r="9.3"></circle> <g> <path d="M-1434.6,880.5l-5.9-12.1h4.4l1.9,4.4c0.5,1.4,1.1,2.7,1.7,4.2h0.1c0.6-1.5,1.2-2.8,1.7-4.2l1.8-4.4h4.3l-5.9,12.1v6.2 h-4.1V880.5z"></path> <path d="M-1424.3,879.7c0-4.6,3.4-7.3,7.1-7.3c3.7,0,7.1,2.7,7.1,7.3c0,4.6-3.4,7.3-7.1,7.3S-1424.3,884.3-1424.3,879.7z M-1414.3,879.7c0-2.4-1-4-2.9-4s-2.9,1.5-2.9,4c0,2.4,1,4,2.9,4S-1414.3,882.1-1414.3,879.7z"></path> <path d="M-1408.4,881.3v-8.6h4.1v8c0,1.8,0.5,2.7,2,2.7c1,0,1.8-0.4,2.7-1.6v-9.1h4.1v13.9h-3.4l-0.3-2h-0.1 c-1.2,1.4-2.7,2.3-4.7,2.3C-1407.1,887-1408.4,884.8-1408.4,881.3z"></path> </g> <line class="st8" x1="-1406.2" y1="191" x2="-1319.4" y2="104.2"></line> <line class="st8" x1="-1406" y1="364.2" x2="-1320" y2="450.8"></line> <g> <g> <g> <path id="XMLID_16_" class="st20" d="M-1320.6,220.7v0.8h8.2l0,0c18.6-0.3,33.5-15.5,33.5-34.1s-15-33.8-33.5-34.1l0,0h-8.2v0.8 c-15.2,3.4-26.6,17-26.6,33.2S-1335.8,217.3-1320.6,220.7z"></path> </g> <g> <g> <defs> <path id="SVGID_6_" d="M-1320.6,220.7v0.8h8.2l0,0c18.6-0.3,33.5-15.5,33.5-34.1s-15-33.8-33.5-34.1l0,0h-8.2v0.8 c-15.2,3.4-26.6,17-26.6,33.2S-1335.8,217.3-1320.6,220.7z"></path> </defs> <clipPath id="SVGID_7_"> <use xlink:href="#SVGID_6_" style="overflow:visible;"></use> </clipPath> <g class="st21"> <rect x="-1322.7" y="182.8" class="st11" width="49.5" height="12.4"></rect> </g> </g> </g> <g> <path id="XMLID_15_" class="st12" d="M-1320.6,220.7v0.8h8.2l0,0c18.6-0.3,33.5-15.5,33.5-34.1s-15-33.8-33.5-34.1l0,0h-8.2v0.8 c-15.2,3.4-26.6,17-26.6,33.2S-1335.8,217.3-1320.6,220.7z"></path> </g> </g> <ellipse class="st1" cx="-1320.6" cy="187.5" rx="34.1" ry="34.1"></ellipse> <g> <g> <ellipse id="XMLID_14_" class="st14" cx="-1320.6" cy="187.5" rx="27.6" ry="27.6"></ellipse> </g> <g> <g> <defs> <ellipse id="SVGID_8_" cx="-1320.6" cy="187.5" rx="27.6" ry="27.6"></ellipse> </defs> <clipPath id="SVGID_9_"> <use xlink:href="#SVGID_8_" style="overflow:visible;"></use> </clipPath> <ellipse class="st22" cx="-1316.9" cy="187.5" rx="27.6" ry="27.6"></ellipse> </g> </g> <g> <ellipse id="XMLID_13_" class="st12" cx="-1320.6" cy="187.5" rx="27.6" ry="27.6"></ellipse> </g> </g> </g> <circle class="st1" cx="-1405.7" cy="190.6" r="8.9"></circle> <g> <g> <path class="st23" d="M-1309.1,196c0.2,1,0.8,1.3,1.9,1.3c1,0,1.6-0.4,1.5-0.9c0-0.8-0.8-0.9-2.3-1.2c-1.8-0.4-3-0.8-3.5-1.2 c-1-0.7-1.5-1.7-1.5-3c0-2.5,1.9-4.2,5.4-4.2c3.3,0,5.3,1.4,5.6,4l-3.9,0c-0.1-0.8-0.7-1.1-1.7-1.1c-0.9,0-1.3,0.3-1.3,0.9 c0,0.7,0.7,0.8,1.9,1.1c1.6,0.4,2.9,0.6,3.7,1.2c1.2,0.8,1.7,1.7,1.7,3c0,2.8-2,4.5-5.7,4.5c-3.5,0-5.5-1.6-5.8-4.3L-1309.1,196z"></path> <path class="st23" d="M-1324.4,195.2c-0.2,3.4-2.4,5.4-6.1,5.4c-4.1,0.1-6.7-2.5-6.7-6.8c-0.1-4.2,2.5-6.9,6.5-6.9 c3.8,0,6,1.8,6.3,5.2l-3.9,0c-0.1-1.3-0.9-2-2.2-2c-1.6,0-2.4,1.2-2.4,3.6c0,2.4,0.9,3.6,2.6,3.5c1.2,0,2-0.8,2.2-2.2 L-1324.4,195.2L-1324.4,195.2z"></path> <polygon class="st23" points="-1325.4,187.3 -1321.1,187.2 -1318.9,195.6 -1316.6,187.2 -1312.5,187.1 -1316.7,200.1 -1320.9,200.2 "></polygon> <path class="st23" d="M-1323.5,168.9c-0.6,0-1.2,0.2-1.6,0.7l-3.2,3.2c-0.9,0.9-0.8,2.3,0,3.2l9.1,8.9l8.9-9.1 c0.9-0.9,0.8-2.3,0-3.2l-3.2-3.1c-0.4-0.4-1-0.7-1.6-0.6c-0.6,0-1.2,0.2-1.6,0.7l-2.6,2.7l-2.7-2.6 C-1322.4,169.1-1322.9,168.9-1323.5,168.9L-1323.5,168.9z"></path> </g> </g> <path class="st24" d="M-1278.6,191.4l13.9,2.9l0.1,24.3l102.3-0.1v-54.2H-1265l0.3,24.7l-13.9,2.3 C-1278.7,191.3-1278.7,191.4-1278.6,191.4z"></path> <g> <path d="M-1257.4,173.3h11.9v3.4h-7.8v4.1h6.7v3.4h-6.7v6.9h-4V173.3z"></path> <path d="M-1242,177.6h3.3l0.3,3h0.1c1.3-2.2,3.3-3.3,5.5-3.3c1.2,0,1.8,0.2,2.6,0.6l-0.8,3.4c-0.8-0.3-1.4-0.4-2.4-0.4 c-1.7,0-3.4,0.9-4.6,3.3v7.1h-4L-1242,177.6L-1242,177.6z"></path> <path d="M-1222.5,180.8h-5.5v-3.2h9.5v13.6h-4L-1222.5,180.8L-1222.5,180.8z M-1223.3,173c0-1.5,1.1-2.5,2.7-2.5s2.7,1,2.7,2.5 s-1.1,2.5-2.7,2.5C-1222.2,175.5-1223.3,174.5-1223.3,173z"></path> <path d="M-1213.5,184.4c0-4.4,3.4-7.1,7.1-7.1c4.2,0,6.4,2.8,6.4,6.5c0,0.7-0.1,1.5-0.2,1.8h-10.3v-2.7h7.6l-0.6,0.8 c0-2.2-0.9-3.3-2.7-3.3c-2,0-3.3,1.4-3.3,4.1c0,2.8,1.5,4.1,4.2,4.1c1.2,0,2.3-0.3,3.5-0.9l1.3,2.4c-1.6,1-3.6,1.6-5.4,1.6 C-1210.2,191.5-1213.5,188.9-1213.5,184.4z"></path> <path d="M-1198,177.6h3.3l0.3,1.8h0.1c1.2-1.2,2.7-2.1,4.7-2.1c3.1,0,4.4,2.1,4.4,5.5v8.4h-4v-7.9c0-1.8-0.5-2.6-2-2.6 c-1.1,0-1.8,0.5-2.8,1.4v9.1h-4L-1198,177.6L-1198,177.6z"></path> <path d="M-1183.6,184.4c0-4.4,2.9-7.1,5.8-7.1c1.5,0,2.5,0.5,3.4,1.5h0.1l-0.2-2.1V172h4v19.2h-3.3l-0.3-1.4h-0.1 c-1,1-2.4,1.7-3.8,1.7C-1181.3,191.5-1183.6,188.9-1183.6,184.4z M-1174.4,187v-5.5c-0.7-0.7-1.5-0.9-2.3-0.9 c-1.5,0-2.7,1.2-2.7,3.8c0,2.7,1,3.9,2.6,3.9C-1175.9,188.2-1175.2,187.9-1174.4,187z"></path> </g> <g> <path d="M-1255.3,206.9L-1255.3,206.9l-0.2,0.8h-1.8v-10.9h2.3v2.7l-0.1,1.2h0.1c0.6-0.6,1.4-0.9,2.1-0.9c1.9,0,3.1,1.6,3.1,3.9 c0,2.7-1.6,4.2-3.3,4.2C-1253.9,208-1254.6,207.6-1255.3,206.9z M-1252.2,203.8c0-1.4-0.5-2.1-1.4-2.1c-0.5,0-0.9,0.2-1.4,0.7v3.1 c0.4,0.4,0.9,0.5,1.3,0.5C-1252.8,206.1-1252.2,205.4-1252.2,203.8z"></path> <path d="M-1248.9,204.8V200h2.3v4.5c0,1,0.3,1.5,1.1,1.5c0.6,0,1-0.2,1.5-0.9V200h2.3v7.8h-1.9l-0.2-1.1h-0.1 c-0.7,0.8-1.5,1.3-2.6,1.3C-1248.1,208-1248.9,206.8-1248.9,204.8z"></path> <path d="M-1240.2,210.7l0.4-1.8c0.2,0.1,0.4,0.1,0.6,0.1c0.9,0,1.4-0.4,1.6-1l0.2-0.4l-3.3-7.6h2.3l1.3,3.3 c0.3,0.7,0.5,1.5,0.8,2.3h0.1c0.2-0.8,0.5-1.6,0.7-2.3l1.1-3.3h2.2l-3.1,7.8c-0.8,1.9-1.7,2.9-3.6,2.9 C-1239.5,210.8-1239.9,210.8-1240.2,210.7z"></path> <path d="M-1231.8,206.8l1-1.4c0.9,0.6,2,0.9,3.1,0.9c0.8,0,1.2-0.3,1.2-0.7c0-0.4-0.4-0.6-1.9-0.9c-2.1-0.4-2.9-1.2-2.9-2.4 c0-1.4,1.3-2.4,3.6-2.4c1.4,0,2.6,0.5,3.4,1.1l-1,1.4c-0.8-0.5-1.7-0.7-2.5-0.7c-0.7,0-1.1,0.3-1.1,0.6c0,0.4,0.5,0.5,1.8,0.8 c2.4,0.5,3.1,1.2,3.1,2.5c0,1.4-1.3,2.5-3.8,2.5C-1229.4,208-1230.8,207.4-1231.8,206.8z"></path> <path d="M-1218.1,205.6c0-1.7,1.4-2.6,5.1-2.8c-0.1-0.7-0.6-1.1-1.6-1.1c-0.8,0-1.5,0.3-2.4,0.7l-0.8-1.5c1.1-0.6,2.3-1.1,3.6-1.1 c2.2,0,3.5,1.1,3.5,3.5v4.4h-1.9l-0.2-0.9h-0.1c-0.8,0.6-1.8,1.1-2.8,1.1C-1217.1,208-1218.1,206.9-1218.1,205.6z M-1213,205.5 v-1.3c-2.3,0.1-2.9,0.6-2.9,1.3c0,0.5,0.4,0.7,1.1,0.7C-1214.2,206.2-1213.6,205.9-1213,205.5z"></path> <path d="M-1207.8,204.6v-2.7h-1.9v-1.7l2.1-0.1l0.3-2.4h1.9v2.4h3.3v1.8h-3.3v2.7c0,1.2,0.5,1.6,1.6,1.6c0.6,0,1.1-0.1,1.5-0.3 l0.4,1.7c-0.7,0.2-1.5,0.4-2.5,0.4C-1206.9,208-1207.8,206.6-1207.8,204.6z"></path> <path d="M-1196.1,202.8c0-3.4,2.1-5.3,4.9-5.3c1.3,0,2.3,0.6,3,1.3l-1.3,1.4c-0.5-0.4-1-0.7-1.8-0.7c-1.4,0-2.5,1.2-2.5,3.3 c0,2.1,1.1,3.3,2.6,3.3c0.7,0,1.3-0.4,1.8-0.9l1.3,1.4c-0.8,1-2,1.5-3.3,1.5C-1193.9,208-1196.1,206.2-1196.1,202.8z"></path> <path d="M-1188.1,197.6h2.4l1.2,4.7c0.3,1.1,0.5,2.1,0.8,3.3h0.1c0.3-1.1,0.5-2.1,0.8-3.3l1.2-4.7h2.4l-3.1,10.2h-2.8 L-1188.1,197.6z"></path> <path d="M-1178.9,206.5l1.3-1.6c0.8,0.6,1.7,1.1,2.7,1.1c1,0,1.4-0.4,1.4-0.9c0-0.7-0.6-0.9-1.6-1.3l-1.3-0.6 c-1.1-0.4-2.2-1.3-2.2-2.8c0-1.7,1.5-3,3.7-3c1.2,0,2.5,0.5,3.4,1.3l-1.2,1.4c-0.7-0.5-1.3-0.8-2.3-0.8c-0.8,0-1.3,0.3-1.3,0.9 c0,0.6,0.7,0.8,1.7,1.2l1.2,0.5c1.3,0.5,2.2,1.3,2.2,2.8c0,1.7-1.4,3.2-3.9,3.2C-1176.4,208-1177.8,207.5-1178.9,206.5z"></path> </g> <path class="st25" d="M-1143.6,1696.2H-1752v-4.8l339.4-20.4c137.3-8.2,248.8-89.4,268.5-195.3l0,0L-1143.6,1696.2z"></path> <rect x="-1752" y="1696.2" class="st1" width="608.3" height="5.9"></rect> <path class="st26" d="M-1343.3,1552.1h-296.1c-8,0-14.6-6.5-14.6-14.6v-271.3c0-8,6.5-14.6,14.6-14.6h296.1c8,0,14.6,6.5,14.6,14.6 v271.3C-1328.8,1545.6-1335.3,1552.1-1343.3,1552.1z"></path> <rect x="-1405.1" y="1318.1" class="st24" width="76.7" height="11.5"></rect> <rect x="-1405.1" y="1343.2" class="st24" width="76.7" height="21"></rect> <path class="st26" d="M-1358.3,1552.7h-296.1c-8,0-14.6-6.5-14.6-14.6v-271.3c0-8,6.5-14.6,14.6-14.6h296.1c8,0,14.6,6.5,14.6,14.6 v271.3C-1343.8,1546.2-1350.3,1552.7-1358.3,1552.7z"></path> <path class="st3" d="M-1367.1,1523.2h-276.4c-5,0-9-4-9-9v-226.7c0-5,4-9,9-9h276.4c5,0,9,4,9,9v226.7 C-1358,1519.2-1362.1,1523.2-1367.1,1523.2z"></path> <g> <circle class="st14" cx="-1618.9" cy="1417.3" r="9.7"></circle> <circle class="st23" cx="-1619" cy="1413.7" r="9.7"></circle> <path class="st27" d="M-1614.6,1414c0,2.5-2,4.5-4.5,4.5s-4.5-2-4.5-4.5"></path> <circle class="st14" cx="-1622" cy="1410.4" r="0.8"></circle> <circle class="st14" cx="-1616.2" cy="1410.4" r="0.8"></circle> </g> <g> <circle class="st14" cx="-1618.9" cy="1451.1" r="9.7"></circle> <circle class="st28" cx="-1619" cy="1447.5" r="9.7"></circle> <path class="st14" d="M-1614.1,1448.2c0,2.8-2.3,5.1-5.1,5.1s-5.1-2.3-5.1-5.1"></path> <circle class="st14" cx="-1621.9" cy="1444.6" r="0.8"></circle> <circle class="st14" cx="-1616" cy="1444.6" r="0.8"></circle> </g> <g> <circle class="st14" cx="-1618.9" cy="1484.5" r="9.7"></circle> <circle class="st7" cx="-1619" cy="1481" r="9.7"></circle> <path class="st27" d="M-1614.5,1480.9c0,2.5-2,4.5-4.5,4.5s-4.5-2-4.5-4.5"></path> <circle class="st14" cx="-1621.9" cy="1477.3" r="0.8"></circle> <circle class="st14" cx="-1616" cy="1477.3" r="0.8"></circle> </g> <g> <path class="st29" d="M-1625.5,1305.2h-3.4v-2.1h9.3v2.1h-3.4v9.2h-2.6L-1625.5,1305.2L-1625.5,1305.2z"></path> <path class="st29" d="M-1619,1310c0-2.9,2.1-4.5,4.4-4.5s4.4,1.7,4.4,4.5c0,2.9-2.1,4.5-4.4,4.5S-1619,1312.9-1619,1310z M-1612.9,1310c0-1.5-0.6-2.5-1.8-2.5s-1.8,1-1.8,2.5c0,1.5,0.6,2.4,1.8,2.4S-1612.9,1311.5-1612.9,1310z"></path> <path class="st29" d="M-1607.3,1310.8v-3h-2.2v-1.9l2.3-0.1l0.3-2.6h2.1v2.6h3.6v2h-3.6v3c0,1.3,0.6,1.8,1.8,1.8 c0.6,0,1.2-0.1,1.7-0.3l0.5,1.8c-0.8,0.2-1.7,0.5-2.8,0.5C-1606.3,1314.6-1607.3,1313-1607.3,1310.8z"></path> <path class="st29" d="M-1599.7,1311.9c0-1.9,1.6-2.9,5.7-3.2c-0.1-0.8-0.7-1.2-1.8-1.2c-0.8,0-1.7,0.3-2.6,0.8l-0.9-1.7 c1.2-0.7,2.6-1.2,4-1.2c2.4,0,3.9,1.3,3.9,3.9v4.9h-2.1l-0.2-1h-0.1c-0.9,0.7-1.9,1.2-3.1,1.2 C-1598.6,1314.6-1599.7,1313.4-1599.7,1311.9z M-1594.1,1311.8v-1.4c-2.5,0.1-3.2,0.7-3.2,1.4c0,0.6,0.5,0.8,1.2,0.8 C-1595.3,1312.6-1594.7,1312.2-1594.1,1311.8z"></path> <path class="st29" d="M-1587.7,1311v-6.8h-2.7v-2h5.3v8.9c0,1.1,0.7,1.4,1.4,1.4c0.4,0,0.8-0.1,1.3-0.3l0.6,1.9 c-0.9,0.3-1.5,0.5-2.6,0.5C-1586.5,1314.6-1587.7,1313.2-1587.7,1311z"></path> <path class="st29" d="M-1570.9,1305.7h2.1l0.2,1.2h0.1c0.8-0.7,1.7-1.4,3-1.4c1.9,0,2.8,1.3,2.8,3.5v5.3h-2.6v-5 c0-1.2-0.3-1.7-1.3-1.7c-0.7,0-1.1,0.3-1.7,0.9v5.7h-2.6L-1570.9,1305.7L-1570.9,1305.7z"></path> <path class="st29" d="M-1561.7,1310c0-2.8,2.2-4.5,4.5-4.5c2.7,0,4.1,1.8,4.1,4.1c0,0.5-0.1,0.9-0.1,1.1h-6.5v-1.7h4.8l-0.4,0.5 c0-1.4-0.6-2.1-1.7-2.1c-1.3,0-2.1,0.8-2.1,2.6c0,1.8,1,2.6,2.7,2.6c0.8,0,1.4-0.2,2.2-0.6l0.8,1.5c-1,0.6-2.3,1-3.4,1 C-1559.6,1314.6-1561.7,1312.9-1561.7,1310z"></path> <path class="st29" d="M-1550.1,1310.8v-3h-2.2v-1.9l2.3-0.1l0.3-2.6h2.1v2.6h3.6v2h-3.6v3c0,1.3,0.6,1.8,1.8,1.8 c0.6,0,1.2-0.1,1.7-0.3l0.5,1.8c-0.8,0.2-1.7,0.5-2.8,0.5C-1549.1,1314.6-1550.1,1313-1550.1,1310.8z"></path> <path class="st29" d="M-1543.5,1305.7h2.5l0.5,4c0.1,0.8,0.2,1.7,0.3,2.6h0.1c0.1-0.9,0.2-1.7,0.4-2.6l0.5-2.8h1.8l0.6,2.8 c0.2,0.8,0.3,1.7,0.4,2.6h0.1c0.1-0.9,0.2-1.7,0.2-2.6l0.5-4h2.4l-1.3,8.6h-3l-0.5-2.8c-0.1-0.7-0.2-1.6-0.3-2.6h-0.1 c-0.1,0.7-0.2,1.5-0.3,2.6l-0.5,2.8h-2.9L-1543.5,1305.7z"></path> <path class="st29" d="M-1533.2,1310c0-2.9,2.1-4.5,4.4-4.5s4.4,1.7,4.4,4.5c0,2.9-2.1,4.5-4.4,4.5S-1533.2,1312.9-1533.2,1310z M-1527,1310c0-1.5-0.6-2.5-1.8-2.5c-1.2,0-1.8,1-1.8,2.5c0,1.5,0.6,2.4,1.8,2.4C-1527.6,1312.5-1527,1311.5-1527,1310z"></path> <path class="st29" d="M-1522.4,1305.7h2.1l0.2,1.9h0.1c0.8-1.4,2.1-2.1,3.5-2.1c0.8,0,1.2,0.1,1.7,0.3l-0.5,2.2 c-0.5-0.2-0.9-0.2-1.5-0.2c-1.1,0-2.2,0.6-2.9,2.1v4.5h-2.6L-1522.4,1305.7L-1522.4,1305.7z"></path> <path class="st29" d="M-1513.6,1302.2h2.6v7h0.1l3.2-3.5h2.8l-6,6.4v2.2h-2.6V1302.2z M-1510,1310.4l1.5-1.6l3.8,5.5h-2.8 L-1510,1310.4z"></path> <path class="st29" d="M-1502.2,1306.9c0-1.1,0.8-2,2-2c1.2,0,2,0.9,2,2c0,1.2-0.8,2-2,2 C-1501.4,1308.9-1502.2,1308.1-1502.2,1306.9z M-1502.2,1312.5c0-1.1,0.8-2,2-2c1.2,0,2,0.9,2,2c0,1.2-0.8,2-2,2 C-1501.4,1314.6-1502.2,1313.7-1502.2,1312.5z"></path> </g> <g> <path class="st29" d="M-1626.2,1347l2.8-3.2c0.9,0.9,2.5,1.7,4,1.7c2.9,0,5.5-2,5.5-8.1c0-5.7-2.2-7.4-4.3-7.4 c-1.8,0-3.5,1.1-3.5,3.7c0,2.3,1.4,3.3,3.4,3.3c1.4,0,2.9-0.7,4.4-2.5l0.2,3.5c-1.7,1.7-4,2.8-5.8,2.8c-4,0-7.1-2.2-7.1-7.1 c0-4.8,3.8-7.7,8.2-7.7c4.7,0,9.3,3.3,9.3,11.4c0,8.6-4.8,12.4-9.9,12.4C-1622.1,1349.8-1624.6,1348.5-1626.2,1347z"></path> <path class="st29" d="M-1606.5,1346.3c6.6-5.5,11-9.4,11-12.7c0-2.2-1.4-3.4-3.8-3.4c-1.8,0-3.3,1.1-4.6,2.3l-2.8-2.9 c2.4-2.4,4.7-3.6,8.2-3.6c4.8,0,8.1,2.9,8.1,7.3c0,3.9-4,8-8.4,11.8c1.3-0.1,3-0.3,4.2-0.3h5.4v4.5h-17.2L-1606.5,1346.3 L-1606.5,1346.3z"></path> <path class="st29" d="M-1586.5,1343.5c0-2.8,2-4.5,4.3-5.6v-0.1c-1.9-1.3-3.3-3-3.3-5.4c0-3.9,3.3-6.3,7.8-6.3 c4.6,0,7.5,2.5,7.5,6.3c0,2.1-1.5,3.9-3.3,5v0.2c2.4,1.2,4.3,2.9,4.3,6c0,3.6-3.1,6.3-8.7,6.3 C-1583.2,1349.8-1586.5,1347.2-1586.5,1343.5z M-1574.1,1343.2c0-2.1-2.2-2.8-5.5-4c-1.3,0.9-2.2,2.2-2.2,3.6c0,2,1.8,3.2,4.1,3.2 C-1575.6,1346.1-1574.1,1345.2-1574.1,1343.2z M-1574.6,1332.6c0-1.8-1.2-2.9-3.3-2.9c-1.7,0-3,0.9-3,2.6c0,1.9,1.8,2.8,4.6,3.7 C-1575.1,1334.9-1574.6,1333.8-1574.6,1332.6z"></path> <path class="st29" d="M-1553.3,1344.4c0-4,3.3-6.1,11.8-6.6c-0.2-1.6-1.4-2.6-3.8-2.6c-1.7,0-3.4,0.7-5.5,1.7l-1.9-3.5 c2.5-1.4,5.3-2.4,8.4-2.4c5,0,8.1,2.6,8.1,8.1v10.2h-4.3l-0.4-2h-0.1c-1.8,1.4-4.1,2.4-6.3,2.4 C-1551.1,1349.8-1553.3,1347.4-1553.3,1344.4z M-1541.5,1344v-2.9c-5.3,0.3-6.7,1.4-6.7,2.9c0,1.2,1,1.7,2.5,1.7 C-1544.2,1345.7-1542.8,1344.9-1541.5,1344z"></path> <path class="st29" d="M-1529.4,1341.9v-6.3h-4.5v-4l4.8-0.2l0.7-5.5h4.4v5.5h7.6v4.2h-7.6v6.3c0,2.7,1.2,3.8,3.8,3.8 c1.3,0,2.5-0.3,3.5-0.6l1,3.8c-1.6,0.5-3.5,1-5.9,1C-1527.3,1349.8-1529.4,1346.6-1529.4,1341.9z"></path> <path class="st29" d="M-1498,1345.1h6.2v-13.3h-5.1v-3.3c3.1-0.5,4.7-1,6.5-2.1h3.9v18.7h5.2v4.3h-16.7V1345.1z"></path> <path class="st29" d="M-1465.3,1356l0.9-4.1c0.5,0.1,0.9,0.2,1.4,0.2c2.1,0,3.2-0.9,3.8-2.3l0.3-0.9l-7.8-17.5h5.3l3,7.7 c0.6,1.7,1.2,3.5,1.8,5.4h0.1c0.5-1.8,1.1-3.6,1.6-5.4l2.6-7.7h5l-7.1,18.1c-1.7,4.5-3.9,6.8-8.4,6.8 C-1463.6,1356.4-1464.5,1356.2-1465.3,1356z"></path> <path class="st29" d="M-1445.8,1340.4c0-5.9,4.5-9.4,9.3-9.4c5.5,0,8.4,3.7,8.4,8.6c0,1-0.2,1.9-0.2,2.4h-13.6v-3.6h10l-0.8,1 c0-2.9-1.2-4.4-3.6-4.4c-2.6,0-4.3,1.8-4.3,5.3c0,3.7,2,5.3,5.5,5.3c1.6,0,3-0.4,4.6-1.2l1.8,3.2c-2.1,1.3-4.7,2.1-7.1,2.1 C-1441.5,1349.8-1445.8,1346.3-1445.8,1340.4z"></path> <path class="st29" d="M-1425.8,1344.4c0-4,3.3-6.1,11.8-6.6c-0.2-1.6-1.4-2.6-3.8-2.6c-1.7,0-3.4,0.7-5.5,1.7l-1.9-3.5 c2.5-1.4,5.3-2.4,8.4-2.4c5,0,8.1,2.6,8.1,8.1v10.2h-4.3l-0.4-2h-0.1c-1.8,1.4-4.1,2.4-6.3,2.4 C-1423.5,1349.8-1425.8,1347.4-1425.8,1344.4z M-1414,1344v-2.9c-5.3,0.3-6.7,1.4-6.7,2.9c0,1.2,1,1.7,2.5,1.7 C-1416.6,1345.7-1415.2,1344.9-1414,1344z"></path> <path class="st29" d="M-1403.9,1331.4h4.4l0.4,3.9h0.1c1.8-2.9,4.4-4.3,7.3-4.3c1.6,0,2.4,0.3,3.4,0.7l-1.1,4.5 c-1.1-0.3-1.8-0.5-3.2-0.5c-2.2,0-4.5,1.2-6.1,4.4v9.3h-5.3L-1403.9,1331.4L-1403.9,1331.4z"></path> </g> <g> <path class="st29" d="M-1602.1,1409h2.3l2.1,4.4l2-4.4h2.3l-3.3,6.4v4.5h-2.1v-4.5L-1602.1,1409z"></path> <path class="st29" d="M-1592.9,1415.9c0-0.7,0.1-1.3,0.2-1.8c0.1-0.5,0.4-0.9,0.7-1.3c0.2-0.3,0.6-0.5,1-0.7s0.9-0.3,1.5-0.3 c0.6,0,1.1,0.1,1.5,0.3c0.4,0.2,0.7,0.4,1,0.7c0.4,0.4,0.6,0.8,0.7,1.3s0.2,1.1,0.2,1.8c0,0.7-0.1,1.3-0.2,1.8 c-0.1,0.5-0.4,0.9-0.7,1.3c-0.2,0.3-0.6,0.5-1,0.7c-0.4,0.2-0.9,0.3-1.5,0.3c-0.6,0-1.1-0.1-1.5-0.3c-0.4-0.2-0.7-0.4-1-0.7 c-0.4-0.4-0.6-0.8-0.7-1.3S-1592.9,1416.6-1592.9,1415.9z M-1590.9,1415.9c0,0.4,0,0.8,0.1,1.1c0.1,0.3,0.2,0.6,0.4,0.8 c0.2,0.2,0.5,0.3,0.9,0.3c0.4,0,0.7-0.1,0.9-0.3c0.2-0.2,0.3-0.5,0.4-0.8c0.1-0.3,0.1-0.7,0.1-1.1s0-0.8-0.1-1.1 c-0.1-0.3-0.2-0.6-0.4-0.8c-0.2-0.2-0.6-0.3-0.9-0.3c-0.4,0-0.7,0.1-0.9,0.3c-0.2,0.2-0.3,0.5-0.4,0.8 C-1590.9,1415.1-1590.9,1415.5-1590.9,1415.9z"></path> <path class="st29" d="M-1584.7,1417v-5.1h2v4.8c0,0.3,0,0.5,0.1,0.7s0.2,0.3,0.3,0.4c0.1,0.1,0.3,0.2,0.4,0.2s0.3,0.1,0.5,0.1 s0.3,0,0.5-0.1c0.2-0.1,0.3-0.1,0.4-0.2s0.2-0.3,0.3-0.4c0.1-0.2,0.1-0.4,0.1-0.7v-4.8h2v8h-1.9v-0.7c-0.3,0.3-0.6,0.5-0.9,0.6 c-0.3,0.1-0.7,0.2-1.1,0.2c-0.4,0-0.8-0.1-1.1-0.2s-0.6-0.3-0.8-0.5c-0.3-0.3-0.6-0.7-0.7-1.1 C-1584.7,1417.8-1584.7,1417.4-1584.7,1417z"></path> <path class="st29" d="M-1576.2,1419.9v-8h1.9v0.8c0.2-0.2,0.5-0.4,0.8-0.6s0.8-0.2,1.2-0.2c0.4,0,0.7,0.1,1,0.2 c0.3,0.1,0.6,0.3,0.9,0.6l-1.5,1.5c-0.2-0.2-0.3-0.3-0.5-0.3c-0.2-0.1-0.3-0.1-0.6-0.1c-0.2,0-0.3,0-0.5,0.1s-0.3,0.2-0.4,0.3 s-0.2,0.3-0.3,0.5c-0.1,0.2-0.1,0.4-0.1,0.7v4.8L-1576.2,1419.9L-1576.2,1419.9z"></path> <path class="st29" d="M-1567.1,1413.6v-1.5h0.8v-2.4h2v2.4h1.4v1.5h-1.4v3.8c0,0.5,0.2,0.7,0.7,0.7h0.7v1.7h-1.1 c-0.4,0-0.8-0.1-1.1-0.2s-0.5-0.3-0.7-0.5c-0.2-0.2-0.3-0.5-0.4-0.7c-0.1-0.3-0.1-0.6-0.1-0.8v-4L-1567.1,1413.6L-1567.1,1413.6z"></path> <path class="st29" d="M-1561.8,1415.9c0-0.7,0.1-1.3,0.2-1.8c0.1-0.5,0.4-0.9,0.7-1.3c0.2-0.3,0.6-0.5,1-0.7s0.9-0.3,1.5-0.3 c0.6,0,1.1,0.1,1.5,0.3c0.4,0.2,0.7,0.4,1,0.7c0.4,0.4,0.6,0.8,0.7,1.3s0.2,1.1,0.2,1.8c0,0.7-0.1,1.3-0.2,1.8 c-0.1,0.5-0.4,0.9-0.7,1.3c-0.2,0.3-0.6,0.5-1,0.7c-0.4,0.2-0.9,0.3-1.5,0.3c-0.6,0-1.1-0.1-1.5-0.3c-0.4-0.2-0.7-0.4-1-0.7 c-0.4-0.4-0.6-0.8-0.7-1.3S-1561.8,1416.6-1561.8,1415.9z M-1559.8,1415.9c0,0.4,0,0.8,0.1,1.1c0.1,0.3,0.2,0.6,0.4,0.8 c0.2,0.2,0.5,0.3,0.9,0.3c0.4,0,0.7-0.1,0.9-0.3c0.2-0.2,0.3-0.5,0.4-0.8c0.1-0.3,0.1-0.7,0.1-1.1s0-0.8-0.1-1.1 c-0.1-0.3-0.2-0.6-0.4-0.8c-0.2-0.2-0.6-0.3-0.9-0.3c-0.4,0-0.7,0.1-0.9,0.3c-0.2,0.2-0.3,0.5-0.4,0.8 C-1559.8,1415.1-1559.8,1415.5-1559.8,1415.9z"></path> <path class="st29" d="M-1554.2,1413.6v-1.5h0.8v-2.4h2v2.4h1.4v1.5h-1.4v3.8c0,0.5,0.2,0.7,0.7,0.7h0.7v1.7h-1.1 c-0.4,0-0.8-0.1-1.1-0.2s-0.5-0.3-0.7-0.5c-0.2-0.2-0.3-0.5-0.4-0.7s-0.1-0.6-0.1-0.8v-4L-1554.2,1413.6L-1554.2,1413.6z"></path> <path class="st29" d="M-1549.1,1417.5c0-0.3,0.1-0.6,0.2-0.9c0.1-0.3,0.3-0.5,0.5-0.7s0.5-0.4,0.8-0.5s0.7-0.2,1.2-0.2h1.9v-0.4 c0-0.4-0.1-0.8-0.3-1s-0.6-0.3-1.1-0.3c-0.2,0-0.4,0-0.5,0c-0.1,0-0.3,0.1-0.4,0.1c-0.1,0.1-0.2,0.1-0.3,0.2s-0.2,0.2-0.3,0.3 l-1.3-1.2c0.4-0.4,0.8-0.7,1.2-0.9c0.4-0.2,1-0.2,1.7-0.2c1.1,0,2,0.2,2.6,0.7c0.6,0.5,0.9,1.2,0.9,2.1v5.3h-1.9v-0.7 c-0.3,0.3-0.5,0.5-0.8,0.6c-0.3,0.1-0.7,0.2-1.1,0.2c-0.9,0-1.6-0.2-2-0.7c-0.2-0.2-0.4-0.5-0.5-0.8 C-1549,1418.2-1549.1,1417.8-1549.1,1417.5z M-1547.1,1417.4c0,0.3,0.1,0.5,0.3,0.7c0.2,0.2,0.5,0.3,0.9,0.3c0.3,0,0.5,0,0.7-0.1 s0.4-0.2,0.6-0.3c0.2-0.2,0.3-0.5,0.3-1v-0.4h-1.6c-0.4,0-0.6,0.1-0.8,0.2C-1547,1416.9-1547.1,1417.1-1547.1,1417.4z"></path> <path class="st29" d="M-1540.8,1417.6v-8.6h2v8.5c0,0.2,0.1,0.4,0.2,0.5c0.1,0.1,0.3,0.2,0.6,0.2h0.8v1.7h-1.1 c-0.4,0-0.8-0.1-1.1-0.2s-0.5-0.3-0.7-0.5c-0.2-0.2-0.3-0.5-0.4-0.7C-1540.7,1418.2-1540.8,1417.9-1540.8,1417.6z"></path> <path class="st29" d="M-1532.9,1410.5v-1.6h2.1v1.6H-1532.9z M-1532.9,1419.9v-8h2v8H-1532.9z"></path> <path class="st29" d="M-1529.1,1419.9v-8h1.9v0.7c0.3-0.3,0.6-0.5,0.9-0.6c0.3-0.1,0.7-0.2,1.1-0.2c0.4,0,0.8,0.1,1.1,0.2 s0.6,0.3,0.8,0.5c0.3,0.3,0.6,0.7,0.7,1.1c0.1,0.4,0.2,0.8,0.2,1.2v5.1h-2v-4.8c0-0.3,0-0.5-0.1-0.7c-0.1-0.2-0.2-0.3-0.3-0.4 s-0.3-0.2-0.4-0.2s-0.3-0.1-0.5-0.1c-0.2,0-0.3,0-0.5,0.1c-0.2,0.1-0.3,0.1-0.4,0.2c-0.1,0.1-0.2,0.3-0.3,0.4 c-0.1,0.2-0.1,0.4-0.1,0.7v4.8L-1529.1,1419.9L-1529.1,1419.9z"></path> <path class="st29" d="M-1521.7,1411.9h2.1l1.6,4.9l1.6-4.9h2.1l-2.9,8h-1.6L-1521.7,1411.9z"></path> <path class="st29" d="M-1513.5,1410.5v-1.6h2.1v1.6H-1513.5z M-1513.5,1419.9v-8h2v8H-1513.5z"></path> <path class="st29" d="M-1510.3,1413.6v-1.5h0.8v-2.4h2v2.4h1.4v1.5h-1.4v3.8c0,0.5,0.2,0.7,0.7,0.7h0.7v1.7h-1.1 c-0.4,0-0.8-0.1-1.1-0.2s-0.5-0.3-0.7-0.5c-0.2-0.2-0.3-0.5-0.4-0.7c-0.1-0.3-0.1-0.6-0.1-0.8v-4L-1510.3,1413.6L-1510.3,1413.6z"></path> <path class="st29" d="M-1505.1,1415.9c0-0.7,0.1-1.2,0.3-1.7c0.2-0.5,0.4-0.9,0.7-1.3c0.3-0.3,0.7-0.6,1.1-0.8s0.9-0.3,1.4-0.3 c0.6,0,1.1,0.1,1.5,0.3c0.4,0.2,0.8,0.5,1.1,0.8c0.3,0.3,0.5,0.7,0.7,1.2c0.2,0.5,0.2,1,0.2,1.5v0.9h-5c0,0.5,0.2,0.9,0.4,1.3 c0.3,0.3,0.7,0.5,1.3,0.5c0.4,0,0.8-0.1,1-0.2c0.3-0.1,0.5-0.3,0.8-0.6l1.2,1.2c-0.2,0.2-0.4,0.4-0.6,0.5s-0.4,0.3-0.7,0.4 c-0.2,0.1-0.5,0.2-0.8,0.2c-0.3,0.1-0.6,0.1-1,0.1c-0.5,0-0.9-0.1-1.4-0.2c-0.4-0.1-0.8-0.3-1.2-0.7c-0.3-0.3-0.6-0.7-0.8-1.3 C-1504.9,1417.4-1505.1,1416.7-1505.1,1415.9z M-1503.1,1415.2h3c0-0.2,0-0.3-0.1-0.5s-0.1-0.3-0.1-0.4c-0.1-0.2-0.3-0.4-0.5-0.6 s-0.5-0.2-0.8-0.2s-0.6,0.1-0.8,0.2s-0.4,0.4-0.5,0.6c-0.1,0.2-0.1,0.3-0.1,0.4C-1503.1,1414.8-1503.1,1415-1503.1,1415.2z"></path> <path class="st29" d="M-1497.4,1418.8l1.3-1.3c0.3,0.3,0.7,0.5,1.1,0.6c0.4,0.1,0.7,0.1,1.1,0.1c0.2,0,0.3,0,0.5-0.1 c0.2,0,0.3-0.1,0.4-0.2c0.1-0.1,0.2-0.2,0.3-0.3c0.1-0.1,0.1-0.2,0.1-0.4c0-0.2-0.1-0.4-0.2-0.5s-0.3-0.2-0.7-0.2l-1.3-0.1 c-0.7-0.1-1.3-0.3-1.7-0.6c-0.4-0.3-0.6-0.9-0.6-1.6c0-0.4,0.1-0.8,0.2-1.1s0.4-0.6,0.7-0.8c0.3-0.2,0.6-0.4,1-0.5s0.8-0.2,1.2-0.2 c0.6,0,1.2,0.1,1.7,0.2s1,0.4,1.3,0.7l-1.2,1.2c-0.2-0.2-0.5-0.3-0.8-0.4c-0.3-0.1-0.7-0.1-1-0.1c-0.4,0-0.7,0.1-0.9,0.2 c-0.2,0.2-0.3,0.3-0.3,0.5c0,0.1,0,0.2,0,0.2c0,0.1,0.1,0.2,0.1,0.2c0.1,0.1,0.1,0.1,0.2,0.2s0.2,0.1,0.4,0.1l1.3,0.1 c0.8,0.1,1.4,0.3,1.8,0.7c0.4,0.4,0.6,0.9,0.6,1.6c0,0.4-0.1,0.8-0.3,1.2c-0.2,0.3-0.4,0.6-0.7,0.8c-0.3,0.2-0.7,0.4-1.1,0.5 c-0.4,0.1-0.9,0.2-1.3,0.2c-0.3,0-0.6,0-0.9,0s-0.6-0.1-0.9-0.2c-0.3-0.1-0.6-0.2-0.8-0.3 C-1496.9,1419.3-1497.2,1419.1-1497.4,1418.8z"></path> <path class="st29" d="M-1489,1415.7v-2.3h2.2v2.3H-1489z M-1489,1419.9v-2.3h2.2v2.3H-1489z"></path> </g> <g> <path class="st29" d="M-1602.1,1453.2v-10.9h4.2c0.6,0,1.1,0.1,1.5,0.3s0.8,0.4,1.1,0.7c0.3,0.3,0.6,0.7,0.7,1.1 c0.2,0.4,0.2,0.8,0.2,1.3c0,0.5-0.1,0.9-0.2,1.3c-0.2,0.4-0.4,0.8-0.7,1.1c-0.3,0.3-0.7,0.6-1.1,0.7c-0.4,0.2-0.9,0.3-1.5,0.3h-2.1 v4.1H-1602.1z M-1599.9,1447.2h2c0.5,0,0.9-0.1,1.2-0.4s0.4-0.6,0.4-1.1c0-0.4-0.1-0.8-0.4-1.1c-0.3-0.3-0.7-0.4-1.2-0.4h-2V1447.2 z"></path> <path class="st29" d="M-1593,1451v-8.6h2v8.5c0,0.2,0.1,0.4,0.2,0.5c0.1,0.1,0.3,0.2,0.6,0.2h0.8v1.7h-1.1c-0.4,0-0.8-0.1-1.1-0.2 s-0.5-0.3-0.7-0.5s-0.3-0.5-0.4-0.7C-1593,1451.5-1593,1451.2-1593,1451z"></path> <path class="st29" d="M-1588.4,1450.4v-5.1h2v4.8c0,0.3,0,0.5,0.1,0.7s0.2,0.3,0.3,0.4s0.3,0.2,0.4,0.2s0.3,0.1,0.5,0.1 c0.2,0,0.3,0,0.5-0.1c0.2-0.1,0.3-0.1,0.4-0.2s0.2-0.3,0.3-0.4c0.1-0.2,0.1-0.4,0.1-0.7v-4.8h2v8h-1.9v-0.7 c-0.3,0.3-0.6,0.5-0.9,0.6c-0.3,0.1-0.7,0.2-1.1,0.2c-0.4,0-0.8-0.1-1.1-0.2s-0.6-0.3-0.8-0.5c-0.3-0.3-0.6-0.7-0.7-1.1 C-1588.4,1451.2-1588.4,1450.8-1588.4,1450.4z"></path> <path class="st29" d="M-1580.7,1452.2l1.3-1.3c0.3,0.3,0.7,0.5,1.1,0.6c0.4,0.1,0.7,0.1,1.1,0.1c0.2,0,0.3,0,0.5-0.1 c0.2,0,0.3-0.1,0.4-0.2c0.1-0.1,0.2-0.2,0.3-0.3c0.1-0.1,0.1-0.2,0.1-0.4c0-0.2-0.1-0.4-0.2-0.5s-0.3-0.2-0.7-0.2l-1.3-0.1 c-0.7-0.1-1.3-0.3-1.7-0.6c-0.4-0.3-0.6-0.9-0.6-1.6c0-0.4,0.1-0.8,0.2-1.1s0.4-0.6,0.7-0.8c0.3-0.2,0.6-0.4,1-0.5s0.8-0.2,1.2-0.2 c0.6,0,1.2,0.1,1.7,0.2s1,0.4,1.3,0.7l-1.2,1.2c-0.2-0.2-0.5-0.3-0.8-0.4c-0.3-0.1-0.7-0.1-1-0.1c-0.4,0-0.7,0.1-0.9,0.2 s-0.3,0.3-0.3,0.5c0,0.1,0,0.2,0,0.2c0,0.1,0.1,0.2,0.1,0.2s0.1,0.1,0.2,0.2s0.2,0.1,0.4,0.1l1.3,0.1c0.8,0.1,1.4,0.3,1.8,0.7 c0.4,0.4,0.6,0.9,0.6,1.6c0,0.4-0.1,0.8-0.3,1.2c-0.2,0.3-0.4,0.6-0.7,0.8c-0.3,0.2-0.7,0.4-1.1,0.5c-0.4,0.1-0.9,0.2-1.3,0.2 c-0.3,0-0.6,0-0.9,0s-0.6-0.1-0.9-0.2c-0.3-0.1-0.6-0.2-0.8-0.3C-1580.2,1452.7-1580.5,1452.4-1580.7,1452.2z"></path> <path class="st29" d="M-1569.5,1443.9v-1.6h2.1v1.6H-1569.5z M-1569.5,1453.2v-8h2v8H-1569.5z"></path> <path class="st29" d="M-1565.6,1453.2v-8h1.9v0.7c0.3-0.3,0.6-0.5,0.9-0.6c0.3-0.1,0.7-0.2,1.1-0.2c0.4,0,0.8,0.1,1.1,0.2 s0.6,0.3,0.8,0.5c0.3,0.3,0.6,0.7,0.7,1.1c0.1,0.4,0.2,0.8,0.2,1.2v5.1h-2v-4.8c0-0.3,0-0.5-0.1-0.7c-0.1-0.2-0.2-0.3-0.3-0.4 s-0.3-0.2-0.4-0.2s-0.3-0.1-0.5-0.1c-0.2,0-0.3,0-0.5,0.1s-0.3,0.1-0.4,0.2c-0.1,0.1-0.2,0.3-0.3,0.4c-0.1,0.2-0.1,0.4-0.1,0.7v4.8 L-1565.6,1453.2L-1565.6,1453.2z"></path> <path class="st29" d="M-1558.3,1445.2h2.1l1.6,4.9l1.6-4.9h2.1l-2.9,8h-1.6L-1558.3,1445.2z"></path> <path class="st29" d="M-1550.1,1443.9v-1.6h2.1v1.6H-1550.1z M-1550.1,1453.2v-8h2v8H-1550.1z"></path> <path class="st29" d="M-1546.9,1447v-1.5h0.8v-2.4h2v2.4h1.4v1.5h-1.4v3.8c0,0.5,0.2,0.7,0.7,0.7h0.7v1.7h-1.1 c-0.4,0-0.8-0.1-1.1-0.2s-0.5-0.3-0.7-0.5s-0.3-0.5-0.4-0.7c-0.1-0.3-0.1-0.6-0.1-0.8v-4L-1546.9,1447L-1546.9,1447z"></path> <path class="st29" d="M-1541.6,1449.2c0-0.7,0.1-1.2,0.3-1.7c0.2-0.5,0.4-0.9,0.7-1.3c0.3-0.3,0.7-0.6,1.1-0.8 c0.4-0.2,0.9-0.3,1.4-0.3c0.6,0,1.1,0.1,1.5,0.3c0.4,0.2,0.8,0.5,1.1,0.8c0.3,0.3,0.5,0.7,0.7,1.2c0.2,0.5,0.2,1,0.2,1.5v0.9h-5 c0,0.5,0.2,0.9,0.4,1.3c0.3,0.3,0.7,0.5,1.3,0.5c0.4,0,0.8-0.1,1-0.2c0.3-0.1,0.5-0.3,0.8-0.6l1.2,1.2c-0.2,0.2-0.4,0.4-0.6,0.5 s-0.4,0.3-0.7,0.4c-0.2,0.1-0.5,0.2-0.8,0.2c-0.3,0.1-0.6,0.1-1,0.1c-0.5,0-0.9-0.1-1.4-0.2c-0.4-0.1-0.8-0.3-1.2-0.7 c-0.3-0.3-0.6-0.7-0.8-1.3C-1541.5,1450.7-1541.6,1450-1541.6,1449.2z M-1539.6,1448.5h3c0-0.2,0-0.3-0.1-0.5s-0.1-0.3-0.1-0.4 c-0.1-0.2-0.3-0.4-0.5-0.6s-0.5-0.2-0.8-0.2s-0.6,0.1-0.8,0.2s-0.4,0.4-0.5,0.6c-0.1,0.2-0.1,0.3-0.1,0.4 C-1539.6,1448.2-1539.6,1448.3-1539.6,1448.5z"></path> <path class="st29" d="M-1534,1452.2l1.3-1.3c0.3,0.3,0.7,0.5,1.1,0.6c0.4,0.1,0.7,0.1,1.1,0.1c0.2,0,0.3,0,0.5-0.1 c0.2,0,0.3-0.1,0.4-0.2c0.1-0.1,0.2-0.2,0.3-0.3c0.1-0.1,0.1-0.2,0.1-0.4c0-0.2-0.1-0.4-0.2-0.5s-0.3-0.2-0.7-0.2l-1.3-0.1 c-0.7-0.1-1.3-0.3-1.7-0.6c-0.4-0.3-0.6-0.9-0.6-1.6c0-0.4,0.1-0.8,0.2-1.1s0.4-0.6,0.7-0.8c0.3-0.2,0.6-0.4,1-0.5s0.8-0.2,1.2-0.2 c0.6,0,1.2,0.1,1.7,0.2s1,0.4,1.3,0.7l-1.2,1.2c-0.2-0.2-0.5-0.3-0.8-0.4s-0.7-0.1-1-0.1c-0.4,0-0.7,0.1-0.9,0.2s-0.3,0.3-0.3,0.5 c0,0.1,0,0.2,0,0.2c0,0.1,0.1,0.2,0.1,0.2s0.1,0.1,0.2,0.2s0.2,0.1,0.4,0.1l1.3,0.1c0.8,0.1,1.4,0.3,1.8,0.7 c0.4,0.4,0.6,0.9,0.6,1.6c0,0.4-0.1,0.8-0.3,1.2c-0.2,0.3-0.4,0.6-0.7,0.8c-0.3,0.2-0.7,0.4-1.1,0.5c-0.4,0.1-0.9,0.2-1.3,0.2 c-0.3,0-0.6,0-0.9,0s-0.6-0.1-0.9-0.2c-0.3-0.1-0.6-0.2-0.8-0.3C-1533.4,1452.7-1533.7,1452.4-1534,1452.2z"></path> <path class="st29" d="M-1522.7,1453.2v-10.9h2v3.6c0.3-0.3,0.6-0.5,0.9-0.6c0.3-0.1,0.7-0.2,1.1-0.2c0.4,0,0.8,0.1,1.1,0.2 c0.3,0.1,0.6,0.3,0.8,0.5c0.2,0.2,0.3,0.4,0.5,0.7s0.2,0.5,0.2,0.8c0.1,0.3,0.1,0.6,0.1,0.9s0,0.6,0,0.9s0,0.6,0,0.9 c0,0.3,0,0.6-0.1,0.9c-0.1,0.3-0.1,0.6-0.2,0.8s-0.3,0.5-0.5,0.7c-0.2,0.2-0.5,0.4-0.8,0.5s-0.7,0.2-1.1,0.2 c-0.4,0-0.8-0.1-1.1-0.2c-0.3-0.1-0.6-0.3-0.9-0.7v0.8L-1522.7,1453.2L-1522.7,1453.2z M-1520.7,1449.2c0,0.3,0,0.6,0,0.9 c0,0.3,0.1,0.5,0.2,0.7c0.1,0.2,0.2,0.4,0.4,0.5s0.4,0.2,0.7,0.2c0.3,0,0.5-0.1,0.7-0.2c0.2-0.1,0.3-0.3,0.4-0.5 c0.1-0.2,0.2-0.4,0.2-0.7s0-0.6,0-0.9s0-0.6,0-0.9c0-0.3-0.1-0.5-0.2-0.7s-0.2-0.4-0.4-0.5s-0.4-0.2-0.7-0.2 c-0.3,0-0.5,0.1-0.7,0.2c-0.2,0.1-0.3,0.3-0.4,0.5s-0.2,0.4-0.2,0.7C-1520.7,1448.6-1520.7,1448.9-1520.7,1449.2z"></path> <path class="st29" d="M-1515.6,1445.2h2.1l1.7,4.9l1.6-4.9h2.1l-3.4,9.3c-0.2,0.5-0.4,0.8-0.6,1s-0.5,0.4-0.8,0.5 c-0.3,0.1-0.6,0.1-0.9,0.1h-0.8v-1.8h0.5c0.3,0,0.5-0.1,0.6-0.1c0.1-0.1,0.3-0.3,0.4-0.6l0.3-1L-1515.6,1445.2z"></path> <path class="st29" d="M-1504.7,1447v-1.5h0.8v-1c0-0.3,0.1-0.6,0.1-0.8c0.1-0.3,0.2-0.5,0.4-0.7c0.2-0.2,0.4-0.4,0.7-0.5 c0.3-0.1,0.6-0.2,1.1-0.2h1.1v1.7h-0.8c-0.5,0-0.7,0.2-0.7,0.7v0.9h1.5v1.5h-1.5v6.2h-2v-6.2L-1504.7,1447L-1504.7,1447z"></path> <path class="st29" d="M-1499.3,1453.2v-8h1.9v0.8c0.2-0.2,0.5-0.4,0.8-0.6s0.8-0.2,1.2-0.2c0.4,0,0.7,0.1,1,0.2 c0.3,0.1,0.6,0.3,0.9,0.6l-1.5,1.5c-0.2-0.2-0.3-0.3-0.5-0.3c-0.2-0.1-0.3-0.1-0.6-0.1c-0.2,0-0.3,0-0.5,0.1 c-0.2,0.1-0.3,0.2-0.4,0.3c-0.1,0.1-0.2,0.3-0.3,0.5c-0.1,0.2-0.1,0.4-0.1,0.7v4.8L-1499.3,1453.2L-1499.3,1453.2z"></path> <path class="st29" d="M-1492.7,1443.9v-1.6h2.1v1.6H-1492.7z M-1492.7,1453.2v-8h2v8H-1492.7z"></path> <path class="st29" d="M-1489.2,1449.2c0-0.7,0.1-1.2,0.3-1.7c0.2-0.5,0.4-0.9,0.7-1.3c0.3-0.3,0.7-0.6,1.1-0.8 c0.4-0.2,0.9-0.3,1.4-0.3c0.6,0,1.1,0.1,1.5,0.3c0.4,0.2,0.8,0.5,1.1,0.8c0.3,0.3,0.5,0.7,0.7,1.2c0.2,0.5,0.2,1,0.2,1.5v0.9h-5 c0,0.5,0.2,0.9,0.4,1.3c0.3,0.3,0.7,0.5,1.3,0.5c0.4,0,0.8-0.1,1-0.2c0.3-0.1,0.5-0.3,0.8-0.6l1.2,1.2c-0.2,0.2-0.4,0.4-0.6,0.5 s-0.4,0.3-0.7,0.4c-0.2,0.1-0.5,0.2-0.8,0.2c-0.3,0.1-0.6,0.1-1,0.1c-0.5,0-0.9-0.1-1.4-0.2c-0.4-0.1-0.8-0.3-1.2-0.7 c-0.3-0.3-0.6-0.7-0.8-1.3C-1489.1,1450.7-1489.2,1450-1489.2,1449.2z M-1487.3,1448.5h3c0-0.2,0-0.3-0.1-0.5s-0.1-0.3-0.1-0.4 c-0.1-0.2-0.3-0.4-0.5-0.6s-0.5-0.2-0.8-0.2s-0.6,0.1-0.8,0.2s-0.4,0.4-0.5,0.6c-0.1,0.2-0.1,0.3-0.1,0.4 C-1487.2,1448.2-1487.3,1448.3-1487.3,1448.5z"></path> <path class="st29" d="M-1480.8,1453.2v-8h1.9v0.7c0.3-0.3,0.6-0.5,0.9-0.6c0.3-0.1,0.7-0.2,1.1-0.2c0.4,0,0.8,0.1,1.1,0.2 s0.6,0.3,0.8,0.5c0.3,0.3,0.6,0.7,0.7,1.1c0.1,0.4,0.2,0.8,0.2,1.2v5.1h-2v-4.8c0-0.3,0-0.5-0.1-0.7c-0.1-0.2-0.2-0.3-0.3-0.4 s-0.3-0.2-0.4-0.2s-0.3-0.1-0.5-0.1c-0.2,0-0.3,0-0.5,0.1c-0.2,0.1-0.3,0.1-0.4,0.2c-0.1,0.1-0.2,0.3-0.3,0.4 c-0.1,0.2-0.1,0.4-0.1,0.7v4.8L-1480.8,1453.2L-1480.8,1453.2z"></path> <path class="st29" d="M-1472.8,1449.2c0-0.3,0-0.6,0-0.9s0-0.6,0.1-0.9c0.1-0.3,0.1-0.6,0.2-0.8s0.3-0.5,0.5-0.7 c0.2-0.2,0.5-0.4,0.8-0.5s0.7-0.2,1.1-0.2c0.4,0,0.8,0.1,1.1,0.2c0.3,0.1,0.6,0.3,0.9,0.6v-3.6h2v10.9h-1.9v-0.8 c-0.3,0.3-0.6,0.5-0.9,0.7s-0.7,0.2-1.1,0.2c-0.4,0-0.8-0.1-1.1-0.2c-0.3-0.1-0.6-0.3-0.9-0.5c-0.2-0.2-0.4-0.4-0.5-0.7 c-0.1-0.3-0.2-0.6-0.2-0.8c-0.1-0.3-0.1-0.6-0.1-0.9C-1472.8,1449.8-1472.8,1449.5-1472.8,1449.2z M-1470.8,1449.2 c0,0.3,0,0.6,0,0.9s0.1,0.5,0.2,0.7c0.1,0.2,0.2,0.4,0.4,0.5s0.4,0.2,0.7,0.2c0.3,0,0.5-0.1,0.7-0.2c0.2-0.1,0.3-0.3,0.4-0.5 c0.1-0.2,0.2-0.4,0.2-0.7c0-0.3,0.1-0.6,0.1-0.9s0-0.6-0.1-0.9s-0.1-0.5-0.2-0.7c-0.1-0.2-0.2-0.4-0.4-0.5s-0.4-0.2-0.7-0.2 c-0.3,0-0.5,0.1-0.7,0.2c-0.2,0.1-0.3,0.3-0.4,0.5s-0.2,0.4-0.2,0.7C-1470.8,1448.6-1470.8,1448.9-1470.8,1449.2z"></path> <path class="st29" d="M-1465,1452.2l1.3-1.3c0.3,0.3,0.7,0.5,1.1,0.6c0.4,0.1,0.7,0.1,1.1,0.1c0.2,0,0.3,0,0.5-0.1 c0.2,0,0.3-0.1,0.4-0.2c0.1-0.1,0.2-0.2,0.3-0.3c0.1-0.1,0.1-0.2,0.1-0.4c0-0.2-0.1-0.4-0.2-0.5s-0.3-0.2-0.7-0.2l-1.3-0.1 c-0.7-0.1-1.3-0.3-1.7-0.6c-0.4-0.3-0.6-0.9-0.6-1.6c0-0.4,0.1-0.8,0.2-1.1s0.4-0.6,0.7-0.8c0.3-0.2,0.6-0.4,1-0.5s0.8-0.2,1.2-0.2 c0.6,0,1.2,0.1,1.7,0.2s1,0.4,1.3,0.7l-1.2,1.2c-0.2-0.2-0.5-0.3-0.8-0.4c-0.3-0.1-0.7-0.1-1-0.1c-0.4,0-0.7,0.1-0.9,0.2 c-0.2,0.2-0.3,0.3-0.3,0.5c0,0.1,0,0.2,0,0.2c0,0.1,0.1,0.2,0.1,0.2s0.1,0.1,0.2,0.2s0.2,0.1,0.4,0.1l1.3,0.1 c0.8,0.1,1.4,0.3,1.8,0.7c0.4,0.4,0.6,0.9,0.6,1.6c0,0.4-0.1,0.8-0.3,1.2c-0.2,0.3-0.4,0.6-0.7,0.8c-0.3,0.2-0.7,0.4-1.1,0.5 c-0.4,0.1-0.9,0.2-1.3,0.2c-0.3,0-0.6,0-0.9,0s-0.6-0.1-0.9-0.2c-0.3-0.1-0.6-0.2-0.8-0.3 C-1464.5,1452.7-1464.7,1452.4-1465,1452.2z"></path> <path class="st29" d="M-1456.6,1449.1v-2.3h2.2v2.3H-1456.6z M-1456.6,1453.2v-2.3h2.2v2.3H-1456.6z"></path> </g> <g> <path class="st29" d="M-1602.1,1485.9V1475h2.1v10.9H-1602.1z"></path> <path class="st29" d="M-1597.9,1485.9v-8h1.9v0.7c0.3-0.3,0.6-0.5,0.9-0.6c0.3-0.1,0.7-0.2,1.1-0.2c0.4,0,0.8,0.1,1.1,0.2 s0.6,0.3,0.8,0.5c0.3,0.3,0.6,0.7,0.7,1.1c0.1,0.4,0.2,0.8,0.2,1.2v5.1h-2v-4.8c0-0.3,0-0.5-0.1-0.7c-0.1-0.2-0.2-0.3-0.3-0.4 s-0.3-0.2-0.4-0.2s-0.3-0.1-0.5-0.1c-0.2,0-0.3,0-0.5,0.1s-0.3,0.1-0.4,0.2c-0.1,0.1-0.2,0.3-0.3,0.4c-0.1,0.2-0.1,0.4-0.1,0.7v4.8 L-1597.9,1485.9L-1597.9,1485.9z"></path> <path class="st29" d="M-1590.6,1477.9h2.1l1.6,4.9l1.6-4.9h2.1l-2.9,8h-1.6L-1590.6,1477.9z"></path> <path class="st29" d="M-1582.4,1476.6v-1.6h2.1v1.6H-1582.4z M-1582.3,1485.9v-8h2v8H-1582.3z"></path> <path class="st29" d="M-1579.2,1479.7v-1.5h0.8v-2.4h2v2.4h1.4v1.5h-1.4v3.8c0,0.5,0.2,0.7,0.7,0.7h0.7v1.7h-1.1 c-0.4,0-0.8-0.1-1.1-0.2s-0.5-0.3-0.7-0.5s-0.3-0.5-0.4-0.7c-0.1-0.3-0.1-0.6-0.1-0.8v-4L-1579.2,1479.7L-1579.2,1479.7z"></path> <path class="st29" d="M-1573.9,1481.9c0-0.7,0.1-1.2,0.3-1.7c0.2-0.5,0.4-0.9,0.7-1.3c0.3-0.3,0.7-0.6,1.1-0.8 c0.4-0.2,0.9-0.3,1.4-0.3c0.6,0,1.1,0.1,1.5,0.3c0.4,0.2,0.8,0.5,1.1,0.8c0.3,0.3,0.5,0.7,0.7,1.2c0.2,0.5,0.2,1,0.2,1.5v0.9h-5 c0,0.5,0.2,0.9,0.4,1.3c0.3,0.3,0.7,0.5,1.3,0.5c0.4,0,0.8-0.1,1-0.2c0.3-0.1,0.5-0.3,0.8-0.6l1.2,1.2c-0.2,0.2-0.4,0.4-0.6,0.5 s-0.4,0.3-0.7,0.4c-0.2,0.1-0.5,0.2-0.8,0.2c-0.3,0.1-0.6,0.1-1,0.1c-0.5,0-0.9-0.1-1.4-0.2c-0.4-0.1-0.8-0.3-1.2-0.7 c-0.3-0.3-0.6-0.7-0.8-1.3C-1573.8,1483.4-1573.9,1482.7-1573.9,1481.9z M-1571.9,1481.2h3c0-0.2,0-0.3-0.1-0.5s-0.1-0.3-0.1-0.4 c-0.1-0.2-0.3-0.4-0.5-0.6s-0.5-0.2-0.8-0.2s-0.6,0.1-0.8,0.2s-0.4,0.4-0.5,0.6c-0.1,0.2-0.1,0.3-0.1,0.4 C-1571.9,1480.9-1571.9,1481-1571.9,1481.2z"></path> <path class="st29" d="M-1566.2,1484.9l1.3-1.3c0.3,0.3,0.7,0.5,1.1,0.6c0.4,0.1,0.7,0.1,1.1,0.1c0.2,0,0.3,0,0.5-0.1 c0.2,0,0.3-0.1,0.4-0.2c0.1-0.1,0.2-0.2,0.3-0.3c0.1-0.1,0.1-0.2,0.1-0.4c0-0.2-0.1-0.4-0.2-0.5s-0.3-0.2-0.7-0.2l-1.3-0.1 c-0.7-0.1-1.3-0.3-1.7-0.6c-0.4-0.3-0.6-0.9-0.6-1.6c0-0.4,0.1-0.8,0.2-1.1s0.4-0.6,0.7-0.8c0.3-0.2,0.6-0.4,1-0.5s0.8-0.2,1.2-0.2 c0.6,0,1.2,0.1,1.7,0.2s1,0.4,1.3,0.7l-1.2,1.2c-0.2-0.2-0.5-0.3-0.8-0.4c-0.3-0.1-0.7-0.1-1-0.1c-0.4,0-0.7,0.1-0.9,0.2 c-0.2,0.2-0.3,0.3-0.3,0.5c0,0.1,0,0.2,0,0.2c0,0.1,0.1,0.2,0.1,0.2s0.1,0.1,0.2,0.2s0.2,0.1,0.4,0.1l1.3,0.1 c0.8,0.1,1.4,0.3,1.8,0.7c0.4,0.4,0.6,0.9,0.6,1.6c0,0.4-0.1,0.8-0.3,1.2c-0.2,0.3-0.4,0.6-0.7,0.8c-0.3,0.2-0.7,0.4-1.1,0.5 c-0.4,0.1-0.9,0.2-1.3,0.2c-0.3,0-0.6,0-0.9,0s-0.6-0.1-0.9-0.2c-0.3-0.1-0.6-0.2-0.8-0.3 C-1565.7,1485.3-1566,1485.1-1566.2,1484.9z"></path> <path class="st29" d="M-1555,1485.9V1475h2v3.6c0.3-0.3,0.6-0.5,0.9-0.6c0.3-0.1,0.7-0.2,1.1-0.2c0.4,0,0.8,0.1,1.1,0.2 c0.3,0.1,0.6,0.3,0.8,0.5c0.2,0.2,0.3,0.4,0.5,0.7s0.2,0.5,0.2,0.8c0.1,0.3,0.1,0.6,0.1,0.9s0,0.6,0,0.9s0,0.6,0,0.9 c0,0.3,0,0.6-0.1,0.9c-0.1,0.3-0.1,0.6-0.2,0.8s-0.3,0.5-0.5,0.7c-0.2,0.2-0.5,0.4-0.8,0.5s-0.7,0.2-1.1,0.2 c-0.4,0-0.8-0.1-1.1-0.2c-0.3-0.1-0.6-0.3-0.9-0.7v0.8L-1555,1485.9L-1555,1485.9z M-1553,1481.9c0,0.3,0,0.6,0,0.9 c0,0.3,0.1,0.5,0.2,0.7c0.1,0.2,0.2,0.4,0.4,0.5s0.4,0.2,0.7,0.2c0.3,0,0.5-0.1,0.7-0.2c0.2-0.1,0.3-0.3,0.4-0.5 c0.1-0.2,0.2-0.4,0.2-0.7s0-0.6,0-0.9s0-0.6,0-0.9c0-0.3-0.1-0.5-0.2-0.7s-0.2-0.4-0.4-0.5s-0.4-0.2-0.7-0.2 c-0.3,0-0.5,0.1-0.7,0.2c-0.2,0.1-0.3,0.3-0.4,0.5s-0.2,0.4-0.2,0.7C-1553,1481.3-1553,1481.6-1553,1481.9z"></path> <path class="st29" d="M-1547.8,1477.9h2.1l1.7,4.9l1.6-4.9h2.1l-3.4,9.3c-0.2,0.5-0.4,0.8-0.6,1s-0.5,0.4-0.8,0.5 c-0.3,0.1-0.6,0.1-0.9,0.1h-0.8v-1.8h0.5c0.3,0,0.5-0.1,0.6-0.1c0.1-0.1,0.3-0.3,0.4-0.6l0.3-1L-1547.8,1477.9z"></path> <path class="st29" d="M-1537,1479.7v-1.5h0.8v-1c0-0.3,0.1-0.6,0.1-0.8c0.1-0.3,0.2-0.5,0.4-0.7c0.2-0.2,0.4-0.4,0.7-0.5 c0.3-0.1,0.6-0.2,1.1-0.2h1.1v1.7h-0.8c-0.5,0-0.7,0.2-0.7,0.7v0.9h1.5v1.5h-1.5v6.2h-2v-6.2L-1537,1479.7L-1537,1479.7z"></path> <path class="st29" d="M-1531.5,1485.9v-8h1.9v0.8c0.2-0.2,0.5-0.4,0.8-0.6s0.8-0.2,1.2-0.2c0.4,0,0.7,0.1,1,0.2 c0.3,0.1,0.6,0.3,0.9,0.6l-1.5,1.5c-0.2-0.2-0.3-0.3-0.5-0.3c-0.2-0.1-0.3-0.1-0.6-0.1c-0.2,0-0.3,0-0.5,0.1 c-0.2,0.1-0.3,0.2-0.4,0.3s-0.2,0.3-0.3,0.5c-0.1,0.2-0.1,0.4-0.1,0.7v4.8L-1531.5,1485.9L-1531.5,1485.9z"></path> <path class="st29" d="M-1525,1476.6v-1.6h2.1v1.6H-1525z M-1524.9,1485.9v-8h2v8H-1524.9z"></path> <path class="st29" d="M-1521.5,1481.9c0-0.7,0.1-1.2,0.3-1.7c0.2-0.5,0.4-0.9,0.7-1.3c0.3-0.3,0.7-0.6,1.1-0.8 c0.4-0.2,0.9-0.3,1.4-0.3c0.6,0,1.1,0.1,1.5,0.3c0.4,0.2,0.8,0.5,1.1,0.8c0.3,0.3,0.5,0.7,0.7,1.2c0.2,0.5,0.2,1,0.2,1.5v0.9h-5 c0,0.5,0.2,0.9,0.4,1.3c0.3,0.3,0.7,0.5,1.3,0.5c0.4,0,0.8-0.1,1-0.2c0.3-0.1,0.5-0.3,0.8-0.6l1.2,1.2c-0.2,0.2-0.4,0.4-0.6,0.5 s-0.4,0.3-0.7,0.4c-0.2,0.1-0.5,0.2-0.8,0.2c-0.3,0.1-0.6,0.1-1,0.1c-0.5,0-0.9-0.1-1.4-0.2c-0.4-0.1-0.8-0.3-1.2-0.7 c-0.3-0.3-0.6-0.7-0.8-1.3C-1521.4,1483.4-1521.5,1482.7-1521.5,1481.9z M-1519.6,1481.2h3c0-0.2,0-0.3-0.1-0.5s-0.1-0.3-0.1-0.4 c-0.1-0.2-0.3-0.4-0.5-0.6s-0.5-0.2-0.8-0.2s-0.6,0.1-0.8,0.2s-0.4,0.4-0.5,0.6c-0.1,0.2-0.1,0.3-0.1,0.4 C-1519.5,1480.9-1519.6,1481-1519.6,1481.2z"></path> <path class="st29" d="M-1513.1,1485.9v-8h1.9v0.7c0.3-0.3,0.6-0.5,0.9-0.6c0.3-0.1,0.7-0.2,1.1-0.2c0.4,0,0.8,0.1,1.1,0.2 s0.6,0.3,0.8,0.5c0.3,0.3,0.6,0.7,0.7,1.1c0.1,0.4,0.2,0.8,0.2,1.2v5.1h-2v-4.8c0-0.3,0-0.5-0.1-0.7c-0.1-0.2-0.2-0.3-0.3-0.4 s-0.3-0.2-0.4-0.2s-0.3-0.1-0.5-0.1c-0.2,0-0.3,0-0.5,0.1c-0.2,0.1-0.3,0.1-0.4,0.2c-0.1,0.1-0.2,0.3-0.3,0.4 c-0.1,0.2-0.1,0.4-0.1,0.7v4.8L-1513.1,1485.9L-1513.1,1485.9z"></path> <path class="st29" d="M-1505,1481.9c0-0.3,0-0.6,0-0.9s0-0.6,0.1-0.9c0.1-0.3,0.1-0.6,0.2-0.8s0.3-0.5,0.5-0.7 c0.2-0.2,0.5-0.4,0.8-0.5s0.7-0.2,1.1-0.2c0.4,0,0.8,0.1,1.1,0.2c0.3,0.1,0.6,0.3,0.9,0.6v-3.6h2v10.9h-1.9v-0.8 c-0.3,0.3-0.6,0.5-0.9,0.7s-0.7,0.2-1.1,0.2c-0.4,0-0.8-0.1-1.1-0.2c-0.3-0.1-0.6-0.3-0.9-0.5c-0.2-0.2-0.4-0.4-0.5-0.7 c-0.1-0.3-0.2-0.6-0.2-0.8c-0.1-0.3-0.1-0.6-0.1-0.9C-1505,1482.5-1505,1482.2-1505,1481.9z M-1503,1481.9c0,0.3,0,0.6,0,0.9 s0.1,0.5,0.2,0.7c0.1,0.2,0.2,0.4,0.4,0.5s0.4,0.2,0.7,0.2c0.3,0,0.5-0.1,0.7-0.2c0.2-0.1,0.3-0.3,0.4-0.5c0.1-0.2,0.2-0.4,0.2-0.7 c0-0.3,0.1-0.6,0.1-0.9s0-0.6-0.1-0.9s-0.1-0.5-0.2-0.7c-0.1-0.2-0.2-0.4-0.4-0.5s-0.4-0.2-0.7-0.2c-0.3,0-0.5,0.1-0.7,0.2 c-0.2,0.1-0.3,0.3-0.4,0.5s-0.2,0.4-0.2,0.7C-1503,1481.3-1503,1481.6-1503,1481.9z"></path> <path class="st29" d="M-1497.3,1484.9l1.3-1.3c0.3,0.3,0.7,0.5,1.1,0.6c0.4,0.1,0.7,0.1,1.1,0.1c0.2,0,0.3,0,0.5-0.1 c0.2,0,0.3-0.1,0.4-0.2c0.1-0.1,0.2-0.2,0.3-0.3c0.1-0.1,0.1-0.2,0.1-0.4c0-0.2-0.1-0.4-0.2-0.5s-0.3-0.2-0.7-0.2l-1.3-0.1 c-0.7-0.1-1.3-0.3-1.7-0.6c-0.4-0.3-0.6-0.9-0.6-1.6c0-0.4,0.1-0.8,0.2-1.1s0.4-0.6,0.7-0.8c0.3-0.2,0.6-0.4,1-0.5s0.8-0.2,1.2-0.2 c0.6,0,1.2,0.1,1.7,0.2s1,0.4,1.3,0.7l-1.2,1.2c-0.2-0.2-0.5-0.3-0.8-0.4c-0.3-0.1-0.7-0.1-1-0.1c-0.4,0-0.7,0.1-0.9,0.2 c-0.2,0.2-0.3,0.3-0.3,0.5c0,0.1,0,0.2,0,0.2c0,0.1,0.1,0.2,0.1,0.2s0.1,0.1,0.2,0.2s0.2,0.1,0.4,0.1l1.3,0.1 c0.8,0.1,1.4,0.3,1.8,0.7c0.4,0.4,0.6,0.9,0.6,1.6c0,0.4-0.1,0.8-0.3,1.2c-0.2,0.3-0.4,0.6-0.7,0.8c-0.3,0.2-0.7,0.4-1.1,0.5 c-0.4,0.1-0.9,0.2-1.3,0.2c-0.3,0-0.6,0-0.9,0s-0.6-0.1-0.9-0.2c-0.3-0.1-0.6-0.2-0.8-0.3 C-1496.7,1485.3-1497,1485.1-1497.3,1484.9z"></path> <path class="st29" d="M-1486.3,1481.9c0-0.7,0.1-1.3,0.2-1.8c0.1-0.5,0.4-0.9,0.7-1.3c0.2-0.3,0.6-0.5,1-0.7s0.9-0.3,1.5-0.3 c0.6,0,1.1,0.1,1.5,0.3s0.7,0.4,1,0.7c0.4,0.4,0.6,0.8,0.7,1.3s0.2,1.1,0.2,1.8s-0.1,1.3-0.2,1.8c-0.1,0.5-0.4,0.9-0.7,1.3 c-0.2,0.3-0.6,0.5-1,0.7c-0.4,0.2-0.9,0.3-1.5,0.3c-0.6,0-1.1-0.1-1.5-0.3c-0.4-0.2-0.7-0.4-1-0.7c-0.4-0.4-0.6-0.8-0.7-1.3 C-1486.3,1483.3-1486.3,1482.7-1486.3,1481.9z M-1484.3,1481.9c0,0.4,0,0.8,0.1,1.1c0.1,0.3,0.2,0.6,0.4,0.8 c0.2,0.2,0.5,0.3,0.9,0.3c0.4,0,0.7-0.1,0.9-0.3c0.2-0.2,0.3-0.5,0.4-0.8c0.1-0.3,0.1-0.7,0.1-1.1s0-0.8-0.1-1.1 c-0.1-0.3-0.2-0.6-0.4-0.8c-0.2-0.2-0.6-0.3-0.9-0.3c-0.4,0-0.7,0.1-0.9,0.3c-0.2,0.2-0.3,0.5-0.4,0.8 C-1484.3,1481.1-1484.3,1481.5-1484.3,1481.9z"></path> <path class="st29" d="M-1478.6,1479.7v-1.5h0.8v-1c0-0.3,0.1-0.6,0.1-0.8c0.1-0.3,0.2-0.5,0.4-0.7c0.2-0.2,0.4-0.4,0.7-0.5 c0.3-0.1,0.6-0.2,1.1-0.2h1.1v1.7h-0.8c-0.5,0-0.7,0.2-0.7,0.7v0.9h1.5v1.5h-1.5v6.2h-2v-6.2L-1478.6,1479.7L-1478.6,1479.7z"></path> <path class="st29" d="M-1470.6,1479.7v-1.5h0.8v-1c0-0.3,0.1-0.6,0.1-0.8c0.1-0.3,0.2-0.5,0.4-0.7c0.2-0.2,0.4-0.4,0.7-0.5 c0.3-0.1,0.6-0.2,1.1-0.2h1.1v1.7h-0.8c-0.5,0-0.7,0.2-0.7,0.7v0.9h1.5v1.5h-1.5v6.2h-2v-6.2L-1470.6,1479.7L-1470.6,1479.7z"></path> <path class="st29" d="M-1465.2,1485.9v-8h1.9v0.8c0.2-0.2,0.5-0.4,0.8-0.6s0.8-0.2,1.2-0.2c0.4,0,0.7,0.1,1,0.2 c0.3,0.1,0.6,0.3,0.9,0.6l-1.5,1.5c-0.2-0.2-0.3-0.3-0.5-0.3c-0.2-0.1-0.3-0.1-0.6-0.1c-0.2,0-0.3,0-0.5,0.1 c-0.2,0.1-0.3,0.2-0.4,0.3c-0.1,0.1-0.2,0.3-0.3,0.5c-0.1,0.2-0.1,0.4-0.1,0.7v4.8L-1465.2,1485.9L-1465.2,1485.9z"></path> <path class="st29" d="M-1458.6,1476.6v-1.6h2.1v1.6H-1458.6z M-1458.6,1485.9v-8h2v8H-1458.6z"></path> <path class="st29" d="M-1455.1,1481.9c0-0.7,0.1-1.2,0.3-1.7c0.2-0.5,0.4-0.9,0.7-1.3c0.3-0.3,0.7-0.6,1.1-0.8 c0.4-0.2,0.9-0.3,1.4-0.3c0.6,0,1.1,0.1,1.5,0.3c0.4,0.2,0.8,0.5,1.1,0.8c0.3,0.3,0.5,0.7,0.7,1.2c0.2,0.5,0.2,1,0.2,1.5v0.9h-5 c0,0.5,0.2,0.9,0.4,1.3c0.3,0.3,0.7,0.5,1.3,0.5c0.4,0,0.8-0.1,1-0.2c0.3-0.1,0.5-0.3,0.8-0.6l1.2,1.2c-0.2,0.2-0.4,0.4-0.6,0.5 s-0.4,0.3-0.7,0.4c-0.2,0.1-0.5,0.2-0.8,0.2c-0.3,0.1-0.6,0.1-1,0.1c-0.5,0-0.9-0.1-1.4-0.2c-0.4-0.1-0.8-0.3-1.2-0.7 c-0.3-0.3-0.6-0.7-0.8-1.3C-1455,1483.4-1455.1,1482.7-1455.1,1481.9z M-1453.2,1481.2h3c0-0.2,0-0.3-0.1-0.5s-0.1-0.3-0.1-0.4 c-0.1-0.2-0.3-0.4-0.5-0.6s-0.5-0.2-0.8-0.2s-0.6,0.1-0.8,0.2s-0.4,0.4-0.5,0.6c-0.1,0.2-0.1,0.3-0.1,0.4 C-1453.1,1480.9-1453.2,1481-1453.2,1481.2z"></path> <path class="st29" d="M-1446.7,1485.9v-8h1.9v0.7c0.3-0.3,0.6-0.5,0.9-0.6c0.3-0.1,0.7-0.2,1.1-0.2c0.4,0,0.8,0.1,1.1,0.2 s0.6,0.3,0.8,0.5c0.3,0.3,0.6,0.7,0.7,1.1c0.1,0.4,0.2,0.8,0.2,1.2v5.1h-2v-4.8c0-0.3,0-0.5-0.1-0.7c-0.1-0.2-0.2-0.3-0.3-0.4 s-0.3-0.2-0.4-0.2s-0.3-0.1-0.5-0.1c-0.2,0-0.3,0-0.5,0.1s-0.3,0.1-0.4,0.2c-0.1,0.1-0.2,0.3-0.3,0.4c-0.1,0.2-0.1,0.4-0.1,0.7v4.8 L-1446.7,1485.9L-1446.7,1485.9z"></path> <path class="st29" d="M-1438.6,1481.9c0-0.3,0-0.6,0-0.9s0-0.6,0.1-0.9s0.1-0.6,0.2-0.8s0.3-0.5,0.5-0.7c0.2-0.2,0.5-0.4,0.8-0.5 s0.7-0.2,1.1-0.2c0.4,0,0.8,0.1,1.1,0.2c0.3,0.1,0.6,0.3,0.9,0.6v-3.6h2v10.9h-1.9v-0.8c-0.3,0.3-0.6,0.5-0.9,0.7s-0.7,0.2-1.1,0.2 c-0.4,0-0.8-0.1-1.1-0.2c-0.3-0.1-0.6-0.3-0.9-0.5c-0.2-0.2-0.4-0.4-0.5-0.7c-0.1-0.3-0.2-0.6-0.2-0.8s-0.1-0.6-0.1-0.9 C-1438.6,1482.5-1438.6,1482.2-1438.6,1481.9z M-1436.6,1481.9c0,0.3,0,0.6,0,0.9s0.1,0.5,0.2,0.7c0.1,0.2,0.2,0.4,0.4,0.5 s0.4,0.2,0.7,0.2c0.3,0,0.5-0.1,0.7-0.2c0.2-0.1,0.3-0.3,0.4-0.5c0.1-0.2,0.2-0.4,0.2-0.7c0-0.3,0.1-0.6,0.1-0.9s0-0.6-0.1-0.9 s-0.1-0.5-0.2-0.7c-0.1-0.2-0.2-0.4-0.4-0.5s-0.4-0.2-0.7-0.2c-0.3,0-0.5,0.1-0.7,0.2c-0.2,0.1-0.3,0.3-0.4,0.5s-0.2,0.4-0.2,0.7 C-1436.6,1481.3-1436.6,1481.6-1436.6,1481.9z"></path> <path class="st29" d="M-1430.9,1484.9l1.3-1.3c0.3,0.3,0.7,0.5,1.1,0.6c0.4,0.1,0.7,0.1,1.1,0.1c0.2,0,0.3,0,0.5-0.1 c0.2,0,0.3-0.1,0.4-0.2c0.1-0.1,0.2-0.2,0.3-0.3c0.1-0.1,0.1-0.2,0.1-0.4c0-0.2-0.1-0.4-0.2-0.5s-0.3-0.2-0.7-0.2l-1.3-0.1 c-0.7-0.1-1.3-0.3-1.7-0.6c-0.4-0.3-0.6-0.9-0.6-1.6c0-0.4,0.1-0.8,0.2-1.1s0.4-0.6,0.7-0.8c0.3-0.2,0.6-0.4,1-0.5s0.8-0.2,1.2-0.2 c0.6,0,1.2,0.1,1.7,0.2s1,0.4,1.3,0.7l-1.2,1.2c-0.2-0.2-0.5-0.3-0.8-0.4c-0.3-0.1-0.7-0.1-1-0.1c-0.4,0-0.7,0.1-0.9,0.2 c-0.2,0.2-0.3,0.3-0.3,0.5c0,0.1,0,0.2,0,0.2c0,0.1,0.1,0.2,0.1,0.2s0.1,0.1,0.2,0.2s0.2,0.1,0.4,0.1l1.3,0.1 c0.8,0.1,1.4,0.3,1.8,0.7c0.4,0.4,0.6,0.9,0.6,1.6c0,0.4-0.1,0.8-0.3,1.2c-0.2,0.3-0.4,0.6-0.7,0.8c-0.3,0.2-0.7,0.4-1.1,0.5 c-0.4,0.1-0.9,0.2-1.3,0.2c-0.3,0-0.6,0-0.9,0s-0.6-0.1-0.9-0.2c-0.3-0.1-0.6-0.2-0.8-0.3 C-1430.3,1485.3-1430.6,1485.1-1430.9,1484.9z"></path> <path class="st29" d="M-1422.5,1481.8v-2.3h2.2v2.3H-1422.5z M-1422.5,1485.9v-2.3h2.2v2.3H-1422.5z"></path> </g> <g> <path class="st29" d="M-1406.1,1477h-5.5v-2.1h8.3v1.5c-2.8,3-3.2,5-3.4,9.2h-2.6C-1409.1,1482.1-1408.4,1479.9-1406.1,1477z"></path> <path class="st29" d="M-1397.2,1479.4c0-0.7,0.1-1.7,0.1-2.4h-0.1c-0.4,0.6-0.8,1.2-1.2,1.8l-1.7,2.3h6.6v1.9h-9.1v-1.7l4.6-6.5 h3.1v10.8h-2.4V1479.4z"></path> <path class="st29" d="M-1392.6,1484.3c3.2-2.6,5.3-4.4,5.3-6c0-1-0.7-1.6-1.8-1.6c-0.9,0-1.6,0.5-2.2,1.1l-1.4-1.3 c1.1-1.1,2.2-1.7,3.9-1.7c2.3,0,3.9,1.4,3.9,3.4c0,1.8-1.9,3.8-4,5.6c0.6-0.1,1.4-0.1,2-0.1h2.6v2.1h-8.3V1484.3z"></path> </g> <g> <path class="st29" d="M-1446.5,1451.9h3v-6.2h-2.4v-1.6c1.5-0.2,2.3-0.5,3.1-1h1.9v8.8h2.5v2h-8L-1446.5,1451.9L-1446.5,1451.9z"></path> <path class="st29" d="M-1437.3,1451.2c0-1.3,0.9-2.1,2.1-2.6v-0.1c-0.9-0.6-1.6-1.4-1.6-2.5c0-1.8,1.6-3,3.8-3c2.2,0,3.6,1.2,3.6,3 c0,1-0.7,1.8-1.6,2.3v0.1c1.2,0.6,2.1,1.4,2.1,2.8c0,1.7-1.5,3-4.2,3C-1435.7,1454.1-1437.3,1452.9-1437.3,1451.2z M-1431.3,1451 c0-1-1.1-1.3-2.7-1.9c-0.6,0.4-1.1,1-1.1,1.7c0,0.9,0.8,1.5,2,1.5C-1432.1,1452.4-1431.3,1451.9-1431.3,1451z M-1431.6,1446.1 c0-0.8-0.6-1.4-1.6-1.4c-0.8,0-1.4,0.4-1.4,1.2c0,0.9,0.9,1.3,2.2,1.7C-1431.8,1447.1-1431.6,1446.6-1431.6,1446.1z"></path> <path class="st29" d="M-1428.1,1452.6l1.2-1.6c0.7,0.6,1.7,1.1,2.7,1.1c1.2,0,2.1-0.5,2.1-1.3c0-0.9-0.8-1.5-3.3-1.5v-1.8 c2.2,0,3-0.6,3-1.4c0-0.8-0.6-1.2-1.6-1.2c-0.9,0-1.6,0.3-2.3,0.9l-1.3-1.5c1.1-0.8,2.3-1.4,3.7-1.4c2.4,0,4.1,1.1,4.1,3 c0,1.1-0.8,1.9-2.1,2.4v0.1c1.4,0.3,2.5,1.2,2.5,2.6c0,2-2,3.1-4.4,3.1C-1425.8,1454.1-1427.2,1453.5-1428.1,1452.6z"></path> </g> <g> <path class="st29" d="M-1480,1418.9l1.2-1.6c0.7,0.6,1.7,1.1,2.7,1.1c1.2,0,2.1-0.5,2.1-1.3c0-0.9-0.8-1.5-3.3-1.5v-1.8 c2.2,0,3-0.6,3-1.4c0-0.8-0.6-1.2-1.6-1.2c-0.9,0-1.6,0.3-2.3,0.9l-1.3-1.5c1.1-0.8,2.3-1.4,3.7-1.4c2.4,0,4.1,1.1,4.1,3 c0,1.1-0.8,1.9-2.1,2.4v0.1c1.4,0.3,2.5,1.2,2.5,2.6c0,2-2,3.1-4.4,3.1C-1477.8,1420.5-1479.1,1419.8-1480,1418.9z"></path> </g> <circle class="st30" cx="-1476.9" cy="-249.3" r="109.1"></circle> <g> <path class="st3" d="M-1474.9-124.3c-69.5,0-126.1-56.6-126.1-126.1c0-13.5,2.1-26.9,6.4-39.6l32.3,10.7c-3.1,9.3-4.6,19-4.6,28.9 c0,50.8,41.3,92.1,92.1,92.1V-124.3z"></path> </g> <circle class="st31" cx="-1756.8" cy="-242.5" r="109.1"></circle> <g> <path class="st3" d="M-1754.8-117.5c-69.5,0-126.1-56.6-126.1-126.1c0-69.5,56.6-126.1,126.1-126.1v34c-50.8,0-92.1,41.3-92.1,92.1 s41.3,92.1,92.1,92.1V-117.5z"></path> </g> <circle class="st32" cx="-1219.2" cy="-249.3" r="109.1"></circle> <g> <path class="st3" d="M-1217.2-124.3c-24,0-47.4-6.8-67.6-19.6c-19.6-12.5-35.4-30.1-45.7-51l30.5-15c15.6,31.8,47.3,51.6,82.7,51.6 V-124.3z"></path> </g> <g> <path class="st13" d="M-1480.9-126.3c-69.5,0-126.1-56.6-126.1-126.1c0-13.5,2.1-26.9,6.4-39.6l32.3,10.7c-3.1,9.3-4.6,19-4.6,28.9 c0,50.8,41.3,92.1,92.1,92.1V-126.3z"></path> </g> <g> <path class="st18" d="M-1761.6-120.1c-69.5,0-126.1-56.6-126.1-126.1c0-69.5,56.6-126.1,126.1-126.1v34 c-50.8,0-92.1,41.3-92.1,92.1s41.3,92.1,92.1,92.1V-120.1z"></path> </g> <g> <path class="st1" d="M-1223.3-124.3c-24,0-47.4-6.8-67.6-19.6c-19.6-12.5-35.4-30.1-45.7-51l30.5-15c15.6,31.8,47.3,51.6,82.7,51.6 V-124.3z"></path> </g> <g> <path d="M-1806.5-242.4l4.3-6c2.7,2.3,5.8,4.1,9.7,4.1c4.7,0,8-2.2,8-6.4c0-4.1-3.2-6.3-7.5-6.3c-2.7,0-4.2,0.5-6.9,2.1l-4.3-2.8 l1.1-20.8h25.2v8h-17l-0.7,7.7c1.9-0.7,3.4-0.9,5.4-0.9c7.6,0,14.2,4,14.2,12.8c0,9.1-7.7,14.4-16.1,14.4 C-1798.3-236.6-1803.1-239.1-1806.5-242.4z"></path> <path d="M-1768.6-258.1c0-14,6.3-21.2,15.8-21.2s15.8,7.2,15.8,21.2c0,14-6.3,21.5-15.8,21.5S-1768.6-244.1-1768.6-258.1z M-1745.4-258.1c0-10.7-3.2-13.8-7.3-13.8c-4.1,0-7.3,3.1-7.3,13.8s3.2,14.1,7.3,14.1C-1748.7-244-1745.4-247.4-1745.4-258.1z M-1757.6-258.2c0-3,2.1-4.9,4.9-4.9s4.9,2,4.9,4.9c0,3-2.1,4.9-4.9,4.9S-1757.6-255.2-1757.6-258.2z"></path> <path d="M-1733.8-243.9l12.1-11.2l3.3,3.1l-10.5,12.9L-1733.8-243.9z M-1733.3-268.5c0-6.7,4.1-10.8,9.6-10.8 c5.5,0,9.6,4.1,9.6,10.8c0,6.7-4.1,11-9.6,11C-1729.2-257.6-1733.3-261.8-1733.3-268.5z M-1720.6-268.5c0-4.4-1.5-5.7-3.1-5.7 c-1.6,0-3.1,1.2-3.1,5.7c0,4.4,1.4,5.8,3.1,5.8C-1722.1-262.7-1720.6-264.1-1720.6-268.5z M-1716.9-247.5c0-6.7,4.1-10.8,9.6-10.8 c5.5,0,9.6,4.1,9.6,10.8c0,6.7-4.1,10.9-9.6,10.9C-1712.8-236.6-1716.9-240.8-1716.9-247.5z M-1712.5-264.9l10.5-12.9l4.9,4.7 l-12.1,11.2L-1712.5-264.9z M-1704.2-247.5c0-4.4-1.4-5.7-3.1-5.7s-3.1,1.2-3.1,5.7c0,4.4,1.5,5.8,3.1,5.8 C-1705.6-241.7-1704.2-243.1-1704.2-247.5z"></path> <path d="M-1812.4-225.6h3.9c2.4,0,4.3,0.7,4.3,2.9c0,1.1-0.6,2.2-2,2.5v0.1c1.7,0.3,2.6,1.2,2.6,2.8c0,2.4-2,3.5-4.5,3.5h-4.3 V-225.6z M-1808.6-220.9c1.3,0,1.8-0.6,1.8-1.4c0-0.9-0.6-1.2-1.8-1.2h-1.2v2.6H-1808.6z M-1808.4-215.9c1.4,0,2.1-0.5,2.1-1.6 c0-1-0.7-1.5-2.1-1.5h-1.4v3.1L-1808.4-215.9L-1808.4-215.9z"></path> <path d="M-1802.3-217.2v-5.5h2.7v5.2c0,1.2,0.3,1.7,1.3,1.7c0.7,0,1.1-0.2,1.7-1v-5.9h2.7v8.9h-2.2l-0.2-1.3h-0.1 c-0.8,0.9-1.7,1.5-3,1.5C-1801.4-213.6-1802.3-215-1802.3-217.2z"></path> <path d="M-1791.8-210.5l0.5-2c0.2,0.1,0.5,0.1,0.7,0.1c1,0,1.6-0.5,1.9-1.2l0.2-0.5l-3.9-8.7h2.6l1.5,3.9c0.3,0.8,0.6,1.8,0.9,2.7 h0.1c0.2-0.9,0.6-1.8,0.8-2.7l1.3-3.9h2.5l-3.5,9c-0.9,2.2-1.9,3.4-4.2,3.4C-1791-210.3-1791.4-210.4-1791.8-210.5z"></path> <path d="M-1781.7-218.3c0-2.9,2.3-4.7,4.7-4.7c2.8,0,4.2,1.9,4.2,4.3c0,0.5-0.1,1-0.1,1.2h-6.8v-1.8h5l-0.4,0.5 c0-1.4-0.6-2.2-1.8-2.2c-1.3,0-2.2,0.9-2.2,2.7c0,1.9,1,2.7,2.8,2.7c0.8,0,1.5-0.2,2.3-0.6l0.9,1.6c-1,0.7-2.3,1.1-3.6,1.1 C-1779.5-213.6-1781.7-215.3-1781.7-218.3z"></path> <path d="M-1770.2-222.8h2.2l0.2,2h0.1c0.9-1.5,2.2-2.2,3.6-2.2c0.8,0,1.2,0.1,1.7,0.4l-0.5,2.2c-0.6-0.2-0.9-0.3-1.6-0.3 c-1.1,0-2.2,0.6-3,2.2v4.6h-2.7L-1770.2-222.8L-1770.2-222.8z"></path> <path d="M-1752.3-225.6h4.2c2.5,0,4.5,0.9,4.5,3.7c0,2.7-2.1,3.9-4.5,3.9h-1.5v4.2h-2.7V-225.6z M-1748.4-220.2 c1.4,0,2.2-0.6,2.2-1.8c0-1.2-0.8-1.6-2.2-1.6h-1.3v3.3H-1748.4z M-1746.8-220.5l3.8,6.6h-3l-2.6-4.9L-1746.8-220.5z"></path> <path d="M-1742.2-218.3c0-2.9,2.3-4.7,4.7-4.7c2.8,0,4.2,1.9,4.2,4.3c0,0.5-0.1,1-0.1,1.2h-6.8v-1.8h5l-0.4,0.5 c0-1.4-0.6-2.2-1.8-2.2c-1.3,0-2.2,0.9-2.2,2.7c0,1.9,1,2.7,2.8,2.7c0.8,0,1.5-0.2,2.3-0.6l0.9,1.6c-1,0.7-2.3,1.1-3.6,1.1 C-1740.1-213.6-1742.2-215.3-1742.2-218.3z"></path> <path d="M-1732.8-222.8h2.6l0.6,4.1c0.1,0.9,0.2,1.7,0.3,2.6h0.1c0.1-0.9,0.2-1.8,0.4-2.6l0.6-3h1.9l0.6,3c0.2,0.9,0.3,1.7,0.4,2.6 h0.1c0.1-0.9,0.2-1.8,0.2-2.6l0.5-4.1h2.5l-1.4,8.9h-3.1l-0.5-2.9c-0.1-0.8-0.2-1.6-0.3-2.6h-0.1c-0.1,0.8-0.2,1.5-0.3,2.6 l-0.5,2.9h-3.1L-1732.8-222.8z"></path> <path d="M-1721.4-216.3c0-2,1.7-3,5.9-3.3c-0.1-0.8-0.7-1.3-1.9-1.3c-0.9,0-1.7,0.3-2.7,0.8l-0.9-1.7c1.2-0.7,2.7-1.2,4.2-1.2 c2.5,0,4,1.3,4,4.1v5.1h-2.2l-0.2-1h-0.1c-0.9,0.7-2,1.2-3.2,1.2C-1720.2-213.6-1721.4-214.8-1721.4-216.3z M-1715.5-216.5v-1.5 c-2.6,0.1-3.3,0.7-3.3,1.5c0,0.6,0.5,0.9,1.2,0.9C-1716.8-215.7-1716.1-216-1715.5-216.5z"></path> <path d="M-1710-222.8h2.2l0.2,2h0.1c0.9-1.5,2.2-2.2,3.6-2.2c0.8,0,1.2,0.1,1.7,0.4l-0.5,2.2c-0.6-0.2-0.9-0.3-1.6-0.3 c-1.1,0-2.2,0.6-3,2.2v4.6h-2.7L-1710-222.8L-1710-222.8z"></path> <path d="M-1700.9-218.3c0-2.9,1.9-4.7,3.8-4.7c1,0,1.7,0.4,2.3,1h0.1l-0.1-1.4v-3.1h2.7v12.6h-2.2l-0.2-0.9h-0.1 c-0.7,0.6-1.6,1.1-2.5,1.1C-1699.4-213.6-1700.9-215.4-1700.9-218.3z M-1694.9-216.6v-3.6c-0.5-0.4-1-0.6-1.5-0.6 c-1,0-1.8,0.8-1.8,2.5c0,1.8,0.7,2.5,1.7,2.5C-1695.8-215.8-1695.3-216-1694.9-216.6z"></path> <path d="M-1690.4-215l1.1-1.6c1.1,0.7,2.3,1.1,3.6,1.1c1,0,1.4-0.3,1.4-0.8c0-0.5-0.4-0.7-2.2-1.1c-2.4-0.5-3.4-1.4-3.4-2.8 c0-1.7,1.6-2.8,4.1-2.8c1.6,0,2.9,0.6,3.9,1.2l-1.2,1.6c-0.9-0.6-1.9-0.9-2.9-0.9c-0.8,0-1.2,0.3-1.2,0.7c0,0.5,0.6,0.6,2.1,0.9 c2.8,0.6,3.5,1.4,3.5,2.9c0,1.6-1.5,2.9-4.4,2.9C-1687.7-213.6-1689.3-214.2-1690.4-215z"></path> </g> <g> <path class="st3" d="M-1526.1-256.4l4.3-5.9c2.6,2.3,6.1,4,9.7,4c4.3,0,7.5-1.7,7.5-4.8c0-3.5-2.7-5.7-12-5.7v-6.5 c7.8,0,10.7-2.2,10.7-5.4c0-2.8-2.3-4.4-5.9-4.4c-3.1,0-5.7,1.3-8.5,3.5l-4.7-5.6c3.9-3.2,8.4-5.1,13.6-5.1c8.7,0,14.8,3.9,14.8,11 c0,4.1-2.9,7.1-7.6,8.9v0.2c5,1.3,8.9,4.6,8.9,9.7c0,7.4-7.4,11.6-15.8,11.6C-1518-250.8-1523-253.1-1526.1-256.4z"></path> <path class="st3" d="M-1489.1-271.7c0-13.6,6.1-20.5,15.3-20.5c9.2,0,15.3,7,15.3,20.5c0,13.6-6.1,20.9-15.3,20.9 C-1483-250.8-1489.1-258.1-1489.1-271.7z M-1466.6-271.7c0-10.4-3.1-13.4-7.1-13.4c-4,0-7.1,3-7.1,13.4s3.1,13.7,7.1,13.7 S-1466.6-261.3-1466.6-271.7z M-1478.4-271.8c0-2.9,2.1-4.8,4.7-4.8c2.7,0,4.7,1.9,4.7,4.8c0,2.9-2.1,4.8-4.7,4.8 C-1476.4-267-1478.4-268.9-1478.4-271.8z"></path> <path class="st3" d="M-1455.3-257.9l11.7-10.9l3.2,3l-10.2,12.5L-1455.3-257.9z M-1454.9-281.8c0-6.5,4-10.5,9.3-10.5 s9.3,3.9,9.3,10.5c0,6.5-4,10.6-9.3,10.6S-1454.9-275.2-1454.9-281.8z M-1442.6-281.8c0-4.3-1.4-5.5-3-5.5s-3,1.2-3,5.5 c0,4.3,1.4,5.7,3,5.7C-1444-276.1-1442.6-277.5-1442.6-281.8z M-1438.9-261.4c0-6.5,4-10.5,9.3-10.5s9.3,3.9,9.3,10.5 c0,6.5-4,10.6-9.3,10.6S-1438.9-254.9-1438.9-261.4z M-1434.6-278.2l10.2-12.5l4.8,4.6l-11.7,10.9L-1434.6-278.2z M-1426.6-261.4 c0-4.3-1.4-5.5-3-5.5s-3,1.2-3,5.5c0,4.3,1.4,5.7,3,5.7C-1428-255.7-1426.6-257.1-1426.6-261.4z"></path> <path d="M-1543.2-239.4h2.6l2.3,5.5l0.9,2.4h0.1c-0.1-1.2-0.3-2.7-0.3-4.1v-3.9h2.4v11.1h-2.6l-2.3-5.6l-0.9-2.4h-0.1 c0.1,1.2,0.3,2.7,0.3,4v3.9h-2.4V-239.4z"></path> <path d="M-1533.6-232.5c0-2.8,2.1-4.4,4.4-4.4c2.6,0,4,1.8,4,4.1c0,0.5-0.1,0.9-0.1,1.1h-6.4v-1.7h4.7l-0.4,0.5 c0-1.4-0.6-2.1-1.7-2.1c-1.2,0-2.1,0.8-2.1,2.5c0,1.8,1,2.5,2.6,2.5c0.8,0,1.4-0.2,2.2-0.6l0.8,1.5c-1,0.6-2.2,1-3.4,1 C-1531.5-228.1-1533.6-229.7-1533.6-232.5z"></path> <path d="M-1521.7-231.8v-3h-2.1v-1.9l2.2-0.1l0.3-2.6h2.1v2.6h3.6v2h-3.6v3c0,1.3,0.6,1.8,1.8,1.8c0.6,0,1.2-0.1,1.7-0.3l0.5,1.8 c-0.8,0.2-1.6,0.5-2.8,0.5C-1520.8-228.1-1521.7-229.5-1521.7-231.8z"></path> <path d="M-1514.8-236.7h2.4l0.5,3.9c0.1,0.8,0.2,1.6,0.3,2.5h0.1c0.1-0.9,0.2-1.7,0.4-2.5l0.5-2.8h1.8l0.6,2.8 c0.2,0.8,0.3,1.6,0.4,2.5h0.1c0.1-0.9,0.2-1.7,0.2-2.5l0.5-3.9h2.3l-1.3,8.5h-2.9l-0.5-2.8c-0.1-0.7-0.2-1.5-0.3-2.5h-0.1 c-0.1,0.7-0.2,1.4-0.3,2.5l-0.4,2.8h-2.9L-1514.8-236.7z"></path> <path d="M-1504.3-232.5c0-2.8,2.1-4.4,4.3-4.4s4.3,1.6,4.3,4.4c0,2.8-2.1,4.4-4.3,4.4S-1504.3-229.7-1504.3-232.5z M-1498.2-232.5 c0-1.5-0.6-2.4-1.8-2.4s-1.8,0.9-1.8,2.4c0,1.5,0.6,2.4,1.8,2.4C-1498.8-230.1-1498.2-231-1498.2-232.5z"></path> <path d="M-1493.3-236.7h2.1l0.2,1.9h0.1c0.8-1.4,2.1-2.1,3.4-2.1c0.7,0,1.1,0.1,1.6,0.3l-0.5,2.1c-0.5-0.2-0.9-0.2-1.5-0.2 c-1.1,0-2.1,0.6-2.9,2.1v4.4h-2.5L-1493.3-236.7L-1493.3-236.7z"></path> <path d="M-1484.2-240.2h2.5v6.9h0.1l3.1-3.4h2.7l-5.9,6.3v2.1h-2.5L-1484.2-240.2L-1484.2-240.2z M-1480.6-232.1l1.4-1.6l3.7,5.4 h-2.7L-1480.6-232.1z"></path> <path d="M-1465.6-239.5h4c2.4,0,4.3,0.8,4.3,3.5c0,2.6-1.9,3.7-4.3,3.7h-1.4v4h-2.5L-1465.6-239.5L-1465.6-239.5z M-1461.8-234.4 c1.3,0,2-0.6,2-1.7c0-1.1-0.7-1.5-2-1.5h-1.2v3.1H-1461.8z M-1460.4-234.6l3.6,6.3h-2.8l-2.5-4.7L-1460.4-234.6z"></path> <path d="M-1456-232.6c0-2.8,2.1-4.4,4.4-4.4c2.6,0,4,1.8,4,4.1c0,0.5-0.1,0.9-0.1,1.1h-6.4v-1.7h4.7l-0.4,0.5 c0-1.4-0.6-2.1-1.7-2.1c-1.2,0-2.1,0.8-2.1,2.5c0,1.8,1,2.5,2.6,2.5c0.8,0,1.4-0.2,2.2-0.6l0.8,1.5c-1,0.6-2.2,1-3.4,1 C-1454-228.1-1456-229.8-1456-232.6z"></path> <path d="M-1447.1-236.8h2.4l0.5,3.9c0.1,0.8,0.2,1.6,0.3,2.5h0.1c0.1-0.9,0.2-1.7,0.4-2.5l0.5-2.8h1.8l0.6,2.8 c0.2,0.8,0.3,1.6,0.4,2.5h0.1c0.1-0.9,0.2-1.7,0.2-2.5l0.5-3.9h2.3l-1.3,8.5h-2.9l-0.5-2.8c-0.1-0.7-0.2-1.5-0.3-2.5h-0.1 c-0.1,0.7-0.2,1.4-0.3,2.5l-0.4,2.8h-2.9L-1447.1-236.8z"></path> <path d="M-1436.3-230.7c0-1.9,1.6-2.9,5.6-3.1c-0.1-0.8-0.7-1.2-1.8-1.2c-0.8,0-1.6,0.3-2.6,0.8l-0.9-1.6c1.2-0.7,2.5-1.1,4-1.1 c2.4,0,3.8,1.2,3.8,3.8v4.8h-2.1l-0.2-1h-0.1c-0.9,0.6-1.9,1.2-3,1.2C-1435.2-228.1-1436.3-229.3-1436.3-230.7z M-1430.7-230.9 v-1.4c-2.5,0.1-3.2,0.7-3.2,1.4c0,0.6,0.5,0.8,1.2,0.8C-1431.9-230.1-1431.3-230.4-1430.7-230.9z"></path> <path d="M-1425.5-236.8h2.1l0.2,1.9h0.1c0.8-1.4,2.1-2.1,3.4-2.1c0.7,0,1.1,0.1,1.6,0.3l-0.5,2.1c-0.5-0.2-0.9-0.2-1.5-0.2 c-1.1,0-2.1,0.6-2.9,2.1v4.4h-2.5L-1425.5-236.8L-1425.5-236.8z"></path> <path d="M-1416.9-232.6c0-2.8,1.8-4.4,3.6-4.4c0.9,0,1.6,0.3,2.1,0.9h0.1l-0.1-1.3v-2.9h2.5v12h-2.1l-0.2-0.9h-0.1 c-0.6,0.6-1.5,1.1-2.3,1.1C-1415.5-228.1-1416.9-229.8-1416.9-232.6z M-1411.2-231v-3.4c-0.5-0.4-0.9-0.6-1.4-0.6 c-0.9,0-1.7,0.8-1.7,2.4c0,1.7,0.6,2.4,1.6,2.4C-1412.1-230.2-1411.6-230.4-1411.2-231z"></path> <path d="M-1407-229.4l1.1-1.6c1,0.6,2.2,1,3.4,1c0.9,0,1.3-0.3,1.3-0.7c0-0.5-0.4-0.6-2.1-1c-2.3-0.5-3.2-1.3-3.2-2.6 c0-1.6,1.5-2.6,3.9-2.6c1.5,0,2.8,0.6,3.7,1.2l-1.1,1.5c-0.9-0.5-1.8-0.8-2.8-0.8c-0.8,0-1.2,0.3-1.2,0.7c0,0.5,0.5,0.6,2,0.9 c2.6,0.6,3.3,1.3,3.3,2.7c0,1.5-1.5,2.7-4.2,2.7C-1404.3-228.1-1405.9-228.7-1407-229.4z"></path> </g> <g> <path d="M-1268.7-252.2c11.5-9.7,19.2-16.4,19.2-22.2c0-3.9-2.4-6-6.6-6c-3.2,0-5.8,2-8.1,4.1l-5-5c4.2-4.2,8.2-6.4,14.3-6.4 c8.4,0,14.2,5,14.2,12.8c0,6.8-6.9,14-14.7,20.7c2.3-0.2,5.2-0.4,7.3-0.4h9.5v7.8h-30.1L-1268.7-252.2L-1268.7-252.2z"></path> <path d="M-1232.6-267.1c0-13.6,6.1-20.6,15.4-20.6s15.4,7,15.4,20.6c0,13.6-6.1,21-15.4,21S-1232.6-253.5-1232.6-267.1z M-1210-267.1c0-10.4-3.2-13.5-7.1-13.5s-7.1,3-7.1,13.5s3.2,13.8,7.1,13.8S-1210-256.7-1210-267.1z M-1221.9-267.2 c0-2.9,2.1-4.8,4.7-4.8s4.7,1.9,4.7,4.8c0,2.9-2.1,4.8-4.7,4.8S-1221.9-264.3-1221.9-267.2z"></path> <path d="M-1198.7-253.2l11.8-11l3.2,3l-10.2,12.6L-1198.7-253.2z M-1198.2-277.2c0-6.6,4-10.5,9.4-10.5s9.4,4,9.4,10.5 c0,6.5-4,10.7-9.4,10.7C-1194.2-266.6-1198.2-270.7-1198.2-277.2z M-1185.8-277.2c0-4.3-1.4-5.5-3-5.5c-1.6,0-3,1.2-3,5.5 c0,4.3,1.4,5.7,3,5.7S-1185.8-272.9-1185.8-277.2z M-1182.2-256.8c0-6.6,4-10.5,9.4-10.5s9.4,4,9.4,10.5c0,6.5-4,10.7-9.4,10.7 C-1178.2-246.1-1182.2-250.3-1182.2-256.8z M-1177.9-273.7l10.2-12.6l4.8,4.6l-11.8,11L-1177.9-273.7z M-1169.8-256.8 c0-4.3-1.4-5.5-3-5.5c-1.6,0-3,1.2-3,5.5c0,4.3,1.4,5.7,3,5.7C-1171.3-251.1-1169.8-252.5-1169.8-256.8z"></path> <path d="M-1277.9-235h8.1v2.3h-5.4v2.8h4.6v2.3h-4.6v4.8h-2.8V-235z"></path> <path d="M-1265.3-226.4v-7.3h-2.9v-2.2h5.7v9.6c0,1.1,0.7,1.5,1.5,1.5c0.4,0,0.9-0.1,1.4-0.3l0.6,2c-1,0.3-1.6,0.5-2.8,0.5 C-1264-222.5-1265.3-224-1265.3-226.4z"></path> <path d="M-1257.2-226.3v-5.8h2.8v5.4c0,1.2,0.3,1.8,1.4,1.8c0.7,0,1.2-0.2,1.8-1.1v-6.1h2.8v9.3h-2.2l-0.2-1.3h-0.1 c-0.8,0.9-1.8,1.6-3.1,1.6C-1256.3-222.5-1257.2-224-1257.2-226.3z"></path> <path d="M-1246.2-224.2l4.8-5.7h-4.3v-2.2h8.1v1.5l-4.9,5.7h5v2.2h-8.8L-1246.2-224.2L-1246.2-224.2z"></path> <path d="M-1226.7-235h4.3c2.6,0,4.7,0.9,4.7,3.8c0,2.8-2.1,4-4.7,4h-1.6v4.4h-2.8L-1226.7-235L-1226.7-235z M-1222.6-229.3 c1.4,0,2.2-0.6,2.2-1.8c0-1.2-0.8-1.6-2.2-1.6h-1.3v3.4L-1222.6-229.3L-1222.6-229.3z M-1220.9-229.6l3.9,6.9h-3.1l-2.7-5.1 L-1220.9-229.6z"></path> <path d="M-1216.2-227.4c0-3,2.3-4.9,4.8-4.9c2.9,0,4.4,1.9,4.4,4.5c0,0.5-0.1,1-0.1,1.2h-7.1v-1.9h5.2l-0.4,0.5 c0-1.5-0.7-2.3-1.9-2.3c-1.4,0-2.3,0.9-2.3,2.8c0,1.9,1.1,2.8,2.9,2.8c0.8,0,1.6-0.2,2.4-0.6l0.9,1.7c-1.1,0.7-2.4,1.1-3.7,1.1 C-1213.9-222.5-1216.2-224.3-1216.2-227.4z"></path> <path d="M-1206.4-232.1h2.7l0.6,4.3c0.1,0.9,0.2,1.8,0.3,2.8h0.1c0.1-0.9,0.2-1.9,0.4-2.8l0.6-3.1h2l0.6,3.1 c0.2,0.9,0.3,1.8,0.5,2.8h0.1c0.1-0.9,0.2-1.8,0.3-2.8l0.5-4.3h2.6l-1.4,9.3h-3.2l-0.5-3c-0.1-0.8-0.2-1.7-0.3-2.8h-0.1 c-0.1,0.8-0.2,1.6-0.3,2.8l-0.5,3h-3.2L-1206.4-232.1z"></path> <path d="M-1194.5-225.3c0-2.1,1.7-3.1,6.1-3.4c-0.1-0.8-0.7-1.3-2-1.3c-0.9,0-1.8,0.4-2.8,0.9l-1-1.8c1.3-0.7,2.8-1.3,4.4-1.3 c2.6,0,4.2,1.4,4.2,4.2v5.3h-2.2l-0.2-1.1h-0.1c-0.9,0.7-2.1,1.3-3.3,1.3C-1193.3-222.5-1194.5-223.8-1194.5-225.3z M-1188.4-225.5 v-1.5c-2.7,0.1-3.5,0.7-3.5,1.5c0,0.6,0.5,0.9,1.3,0.9C-1189.7-224.6-1189-225-1188.4-225.5z"></path> <path d="M-1182.7-232.1h2.3l0.2,2h0.1c0.9-1.5,2.3-2.3,3.8-2.3c0.8,0,1.2,0.1,1.8,0.4l-0.6,2.3c-0.6-0.2-1-0.3-1.7-0.3 c-1.2,0-2.3,0.6-3.1,2.3v4.8h-2.8L-1182.7-232.1L-1182.7-232.1z"></path> <path d="M-1173.2-227.4c0-3,2-4.9,4-4.9c1,0,1.7,0.4,2.3,1h0.1l-0.1-1.4v-3.2h2.8v13.1h-2.2l-0.2-1h-0.1c-0.7,0.7-1.7,1.2-2.6,1.2 C-1171.7-222.5-1173.2-224.4-1173.2-227.4z M-1166.9-225.6v-3.8c-0.5-0.5-1-0.6-1.6-0.6c-1,0-1.9,0.8-1.9,2.6 c0,1.8,0.7,2.6,1.8,2.6C-1167.9-224.8-1167.4-225-1166.9-225.6z"></path> <path d="M-1162.3-223.9l1.2-1.7c1.1,0.7,2.4,1.1,3.8,1.1c1,0,1.5-0.3,1.5-0.8c0-0.5-0.4-0.7-2.3-1.1c-2.5-0.5-3.5-1.5-3.5-2.9 c0-1.7,1.6-2.9,4.3-2.9c1.7,0,3.1,0.6,4,1.3l-1.2,1.7c-0.9-0.6-2-0.9-3-0.9c-0.9,0-1.3,0.3-1.3,0.8c0,0.5,0.6,0.6,2.2,1 c2.9,0.6,3.7,1.5,3.7,3c0,1.7-1.6,3-4.6,3C-1159.4-222.5-1161.1-223.2-1162.3-223.9z"></path> </g> <g> <path class="st33" d="M-1541.7-215.1l1.3-0.7l-1.3-0.7l0.5-1l1.3,0.8l-0.1-1.5h1.1l-0.1,1.5l1.3-0.8l0.6,1l-1.3,0.7l1.3,0.7 l-0.6,0.9l-1.3-0.8l0.1,1.5h-1.1l0.1-1.5l-1.3,0.8L-1541.7-215.1z"></path> <path d="M-1535.5-214.9v-1.7l1.7-1.5h1.6v8.5h-1.6v-6.9L-1535.5-214.9z"></path> <path d="M-1529.8-211.9h1.6c0,0.3,0.1,0.6,0.3,0.8c0.2,0.2,0.4,0.3,0.7,0.3c0.3,0,0.6-0.1,0.7-0.3c0.1-0.1,0.2-0.3,0.3-0.5 c0-0.2,0.1-0.5,0.1-0.7c0-0.5-0.1-0.9-0.2-1.1c-0.2-0.3-0.4-0.4-0.8-0.4c-0.3,0-0.6,0.1-0.7,0.2s-0.3,0.3-0.3,0.5h-1.5v-4.8h4.9 v1.4h-3.4v1.8c0.1-0.1,0.3-0.2,0.5-0.3s0.5-0.1,0.8-0.1c0.4,0,0.7,0.1,0.9,0.2s0.5,0.2,0.7,0.4c0.3,0.3,0.6,0.7,0.6,1.1 c0.1,0.4,0.1,0.8,0.1,1.2c0,0.5-0.1,0.9-0.1,1.3s-0.3,0.7-0.6,1c-0.2,0.2-0.4,0.4-0.8,0.5s-0.7,0.2-1.1,0.2s-0.8-0.1-1.2-0.2 c-0.3-0.1-0.6-0.3-0.8-0.5c-0.3-0.3-0.4-0.6-0.5-0.9S-1529.8-211.6-1529.8-211.9z"></path> <path d="M-1521.3-212.7c0-0.2,0-0.5,0-0.7s0-0.5,0.1-0.7s0.1-0.4,0.2-0.6c0.1-0.2,0.2-0.4,0.4-0.5c0.2-0.2,0.4-0.3,0.7-0.4 c0.3-0.1,0.6-0.1,0.9-0.1c0.3,0,0.6,0.1,0.8,0.1s0.5,0.2,0.7,0.5v-2.8h1.6v8.5h-1.5v-0.6c-0.2,0.2-0.4,0.4-0.7,0.5 c-0.2,0.1-0.5,0.1-0.9,0.1c-0.3,0-0.6-0.1-0.9-0.1c-0.3-0.1-0.5-0.2-0.7-0.4c-0.2-0.1-0.3-0.3-0.4-0.5c-0.1-0.2-0.1-0.4-0.2-0.7 s-0.1-0.5-0.1-0.7S-1521.3-212.4-1521.3-212.7z M-1519.7-212.7c0,0.3,0,0.5,0,0.7c0,0.2,0.1,0.4,0.1,0.6c0.1,0.2,0.2,0.3,0.3,0.4 c0.1,0.1,0.3,0.1,0.6,0.1s0.4-0.1,0.6-0.1s0.2-0.2,0.3-0.4s0.1-0.4,0.2-0.6s0-0.5,0-0.7s0-0.5,0-0.7c0-0.2-0.1-0.4-0.2-0.6 c-0.1-0.2-0.2-0.3-0.3-0.4c-0.1-0.1-0.3-0.1-0.6-0.1s-0.4,0.1-0.6,0.1s-0.2,0.2-0.3,0.4s-0.1,0.4-0.1,0.6 C-1519.7-213.2-1519.7-212.9-1519.7-212.7z"></path> <path d="M-1514.9-212.7c0-0.5,0.1-1,0.2-1.4s0.3-0.7,0.6-1s0.5-0.5,0.9-0.6s0.7-0.2,1.1-0.2c0.4,0,0.8,0.1,1.2,0.2s0.6,0.4,0.9,0.6 s0.4,0.6,0.5,0.9s0.2,0.8,0.2,1.2v0.7h-3.9c0,0.4,0.1,0.7,0.3,1s0.6,0.4,1,0.4c0.3,0,0.6-0.1,0.8-0.1s0.4-0.2,0.6-0.4l0.9,0.9 c-0.2,0.2-0.3,0.3-0.5,0.4s-0.3,0.2-0.5,0.3s-0.4,0.1-0.6,0.2s-0.5,0.1-0.8,0.1c-0.4,0-0.7-0.1-1.1-0.1s-0.7-0.3-0.9-0.5 s-0.5-0.6-0.7-1S-1514.9-212-1514.9-212.7z M-1513.3-213.2h2.4c0-0.1,0-0.3,0-0.4s-0.1-0.2-0.1-0.3c-0.1-0.2-0.2-0.3-0.4-0.5 c-0.2-0.1-0.4-0.2-0.7-0.2s-0.5,0.1-0.7,0.2s-0.3,0.3-0.4,0.5c-0.1,0.1-0.1,0.2-0.1,0.3C-1513.3-213.5-1513.3-213.4-1513.3-213.2z"></path> <path d="M-1508.6-212.8c0-0.3,0-0.5,0-0.8s0-0.5,0.1-0.7c0-0.2,0.1-0.4,0.2-0.6c0.1-0.2,0.2-0.3,0.3-0.5c0.2-0.2,0.4-0.3,0.7-0.4 s0.5-0.1,0.8-0.1c0.3,0,0.6,0.1,0.8,0.1c0.2,0.1,0.5,0.3,0.7,0.5v-0.6h1.5v6c0,0.4-0.1,0.7-0.2,1s-0.3,0.6-0.6,0.8 s-0.5,0.4-0.9,0.5c-0.3,0.1-0.7,0.2-1.1,0.2c-0.5,0-0.9-0.1-1.2-0.2s-0.7-0.3-1-0.6l1-1c0.2,0.2,0.4,0.3,0.5,0.4s0.4,0.1,0.7,0.1 c0.2,0,0.4,0,0.6-0.1s0.3-0.2,0.4-0.3s0.2-0.3,0.2-0.4s0.1-0.3,0.1-0.5v-0.6c-0.2,0.2-0.4,0.4-0.7,0.5s-0.5,0.1-0.8,0.1 c-0.3,0-0.6-0.1-0.8-0.1c-0.2-0.1-0.5-0.2-0.7-0.4c-0.1-0.1-0.3-0.3-0.3-0.5s-0.2-0.4-0.2-0.6c0-0.2-0.1-0.4-0.1-0.7 S-1508.6-212.6-1508.6-212.8z M-1507-212.8c0,0.2,0,0.4,0,0.6s0.1,0.4,0.1,0.5c0.1,0.1,0.2,0.3,0.3,0.4c0.1,0.1,0.3,0.1,0.6,0.1 c0.2,0,0.4-0.1,0.6-0.1c0.1-0.1,0.2-0.2,0.3-0.4c0.1-0.1,0.1-0.3,0.1-0.5s0-0.4,0-0.6s0-0.4,0-0.6s-0.1-0.4-0.1-0.5 c-0.1-0.1-0.2-0.3-0.3-0.4c-0.1-0.1-0.3-0.1-0.6-0.1s-0.4,0.1-0.6,0.1c-0.1,0.1-0.2,0.2-0.3,0.4c-0.1,0.1-0.1,0.3-0.1,0.5 C-1507-213.2-1507-213-1507-212.8z"></path> <path d="M-1501.9-209.5v-6.2h1.5v0.6c0.2-0.2,0.4-0.3,0.7-0.5s0.6-0.2,0.9-0.2c0.3,0,0.6,0,0.8,0.1c0.2,0.1,0.5,0.2,0.7,0.5 l-1.2,1.2c-0.1-0.1-0.2-0.2-0.4-0.3s-0.3-0.1-0.5-0.1c-0.1,0-0.2,0-0.4,0.1s-0.2,0.1-0.3,0.2s-0.2,0.2-0.2,0.4 c-0.1,0.1-0.1,0.3-0.1,0.5v3.8L-1501.9-209.5L-1501.9-209.5z"></path> <path d="M-1497.1-212.7c0-0.5,0.1-1,0.2-1.4s0.3-0.7,0.6-1s0.5-0.5,0.9-0.6s0.7-0.2,1.1-0.2c0.4,0,0.8,0.1,1.2,0.2s0.6,0.4,0.9,0.6 s0.4,0.6,0.5,0.9s0.2,0.8,0.2,1.2v0.7h-3.9c0,0.4,0.1,0.7,0.3,1s0.6,0.4,1,0.4c0.3,0,0.6-0.1,0.8-0.1s0.4-0.2,0.6-0.4l0.9,0.9 c-0.2,0.2-0.3,0.3-0.5,0.4s-0.3,0.2-0.5,0.3s-0.4,0.1-0.6,0.2s-0.5,0.1-0.8,0.1c-0.4,0-0.7-0.1-1.1-0.1s-0.7-0.3-0.9-0.5 s-0.5-0.6-0.7-1S-1497.1-212-1497.1-212.7z M-1495.6-213.2h2.4c0-0.1,0-0.3,0-0.4s-0.1-0.2-0.1-0.3c-0.1-0.2-0.2-0.3-0.4-0.5 c-0.2-0.1-0.4-0.2-0.7-0.2s-0.5,0.1-0.7,0.2s-0.3,0.3-0.4,0.5c-0.1,0.1-0.1,0.2-0.1,0.3C-1495.5-213.5-1495.6-213.4-1495.6-213.2z"></path> <path d="M-1490.8-212.7c0-0.5,0.1-1,0.2-1.4s0.3-0.7,0.6-1s0.5-0.5,0.9-0.6s0.7-0.2,1.1-0.2c0.4,0,0.8,0.1,1.2,0.2s0.6,0.4,0.9,0.6 s0.4,0.6,0.5,0.9s0.2,0.8,0.2,1.2v0.7h-3.9c0,0.4,0.1,0.7,0.3,1s0.6,0.4,1,0.4c0.3,0,0.6-0.1,0.8-0.1s0.4-0.2,0.6-0.4l0.9,0.9 c-0.2,0.2-0.3,0.3-0.5,0.4s-0.3,0.2-0.5,0.3s-0.4,0.1-0.6,0.2s-0.5,0.1-0.8,0.1c-0.4,0-0.7-0.1-1.1-0.1s-0.7-0.3-0.9-0.5 s-0.5-0.6-0.7-1S-1490.8-212-1490.8-212.7z M-1489.3-213.2h2.4c0-0.1,0-0.3,0-0.4s-0.1-0.2-0.1-0.3c-0.1-0.2-0.2-0.3-0.4-0.5 c-0.2-0.1-0.4-0.2-0.7-0.2s-0.5,0.1-0.7,0.2s-0.3,0.3-0.4,0.5c-0.1,0.1-0.1,0.2-0.1,0.3C-1489.3-213.5-1489.3-213.4-1489.3-213.2z"></path> <path d="M-1484.8-210.4l1-1c0.3,0.3,0.5,0.4,0.8,0.5c0.3,0.1,0.6,0.1,0.8,0.1c0.1,0,0.3,0,0.4,0s0.2-0.1,0.3-0.1 c0.1-0.1,0.2-0.1,0.2-0.2s0.1-0.2,0.1-0.3c0-0.2-0.1-0.3-0.1-0.4s-0.3-0.2-0.5-0.2l-1-0.1c-0.6-0.1-1-0.2-1.3-0.5s-0.5-0.7-0.5-1.3 c0-0.3,0.1-0.6,0.2-0.9s0.3-0.5,0.5-0.6s0.5-0.3,0.8-0.4c0.3-0.1,0.6-0.1,0.9-0.1c0.5,0,0.9,0.1,1.3,0.1s0.8,0.3,1.1,0.6l-1,1 c-0.2-0.2-0.4-0.3-0.7-0.3s-0.5-0.1-0.8-0.1c-0.3,0-0.5,0.1-0.7,0.2s-0.2,0.3-0.2,0.4c0,0.1,0,0.1,0,0.2s0.1,0.1,0.1,0.2 s0.1,0.1,0.2,0.1c0.1,0,0.2,0.1,0.3,0.1l1,0.1c0.6,0.1,1.1,0.2,1.4,0.6s0.5,0.7,0.5,1.3c0,0.3-0.1,0.6-0.2,0.9s-0.3,0.5-0.6,0.6 c-0.2,0.2-0.5,0.3-0.8,0.4c-0.3,0.1-0.7,0.1-1,0.1c-0.2,0-0.5,0-0.7,0s-0.5-0.1-0.7-0.1c-0.2-0.1-0.4-0.1-0.7-0.3 S-1484.6-210.2-1484.8-210.4z"></path> <path d="M-1476.3-212.7c0-0.6,0.1-1,0.2-1.4s0.3-0.7,0.6-1c0.2-0.2,0.4-0.4,0.8-0.5c0.3-0.1,0.7-0.2,1.2-0.2s0.9,0.1,1.2,0.2 c0.3,0.1,0.6,0.3,0.8,0.5c0.3,0.3,0.5,0.6,0.6,1s0.1,0.9,0.1,1.4s-0.1,1-0.2,1.4s-0.3,0.7-0.6,1c-0.2,0.2-0.4,0.4-0.8,0.5 c-0.3,0.1-0.7,0.2-1.2,0.2s-0.8-0.1-1.2-0.2c-0.3-0.1-0.6-0.3-0.8-0.5c-0.3-0.3-0.5-0.6-0.6-1S-1476.3-212.1-1476.3-212.7z M-1474.7-212.7c0,0.3,0,0.6,0.1,0.9s0.1,0.5,0.3,0.6c0.2,0.2,0.4,0.3,0.7,0.3c0.3,0,0.6-0.1,0.7-0.3c0.2-0.2,0.3-0.4,0.3-0.6 s0.1-0.6,0.1-0.9s0-0.6-0.1-0.9s-0.1-0.5-0.3-0.6c-0.2-0.2-0.4-0.3-0.7-0.3c-0.3,0-0.5,0.1-0.7,0.3c-0.2,0.2-0.3,0.4-0.3,0.6 S-1474.7-213-1474.7-212.7z"></path> <path d="M-1470.3-214.4v-1.2h0.7v-0.8c0-0.2,0-0.4,0.1-0.6s0.2-0.4,0.3-0.6c0.2-0.2,0.3-0.3,0.6-0.4c0.2-0.1,0.5-0.2,0.8-0.2h0.9 v1.3h-0.6c-0.4,0-0.5,0.2-0.5,0.6v0.7h1.2v1.2h-1.2v4.9h-1.6v-4.9L-1470.3-214.4L-1470.3-214.4z"></path> <path d="M-1464.2-210.4l1-1c0.3,0.3,0.5,0.4,0.8,0.5c0.3,0.1,0.6,0.1,0.8,0.1c0.1,0,0.3,0,0.4,0s0.2-0.1,0.3-0.1 c0.1-0.1,0.2-0.1,0.2-0.2s0.1-0.2,0.1-0.3c0-0.2-0.1-0.3-0.1-0.4s-0.3-0.2-0.5-0.2l-1-0.1c-0.6-0.1-1-0.2-1.3-0.5s-0.5-0.7-0.5-1.3 c0-0.3,0.1-0.6,0.2-0.9s0.3-0.5,0.5-0.6s0.5-0.3,0.8-0.4c0.3-0.1,0.6-0.1,0.9-0.1c0.5,0,0.9,0.1,1.3,0.1s0.8,0.3,1.1,0.6l-1,1 c-0.2-0.2-0.4-0.3-0.7-0.3s-0.5-0.1-0.8-0.1c-0.3,0-0.5,0.1-0.7,0.2s-0.2,0.3-0.2,0.4c0,0.1,0,0.1,0,0.2s0.1,0.1,0.1,0.2 s0.1,0.1,0.2,0.1c0.1,0,0.2,0.1,0.3,0.1l1,0.1c0.6,0.1,1.1,0.2,1.4,0.6s0.5,0.7,0.5,1.3c0,0.3-0.1,0.6-0.2,0.9s-0.3,0.5-0.6,0.6 c-0.2,0.2-0.5,0.3-0.8,0.4c-0.3,0.1-0.7,0.1-1,0.1c-0.2,0-0.5,0-0.7,0s-0.5-0.1-0.7-0.1c-0.2-0.1-0.4-0.1-0.7-0.3 S-1463.9-210.2-1464.2-210.4z"></path> <path d="M-1458.1-212.7c0-0.5,0.1-1,0.2-1.4s0.3-0.7,0.6-1s0.5-0.5,0.9-0.6s0.7-0.2,1.1-0.2c0.4,0,0.8,0.1,1.2,0.2s0.6,0.4,0.9,0.6 s0.4,0.6,0.5,0.9s0.2,0.8,0.2,1.2v0.7h-3.9c0,0.4,0.1,0.7,0.3,1s0.6,0.4,1,0.4c0.3,0,0.6-0.1,0.8-0.1s0.4-0.2,0.6-0.4l0.9,0.9 c-0.2,0.2-0.3,0.3-0.5,0.4s-0.3,0.2-0.5,0.3s-0.4,0.1-0.6,0.2s-0.5,0.1-0.8,0.1c-0.4,0-0.7-0.1-1.1-0.1s-0.7-0.3-0.9-0.5 s-0.5-0.6-0.7-1S-1458.1-212-1458.1-212.7z M-1456.6-213.2h2.4c0-0.1,0-0.3,0-0.4s-0.1-0.2-0.1-0.3c-0.1-0.2-0.2-0.3-0.4-0.5 c-0.2-0.1-0.4-0.2-0.7-0.2s-0.5,0.1-0.7,0.2s-0.3,0.3-0.4,0.5c-0.1,0.1-0.1,0.2-0.1,0.3C-1456.6-213.5-1456.6-213.4-1456.6-213.2z"></path> <path d="M-1451.6-207.2v-8.5h1.5v0.6c0.2-0.2,0.4-0.4,0.7-0.5c0.2-0.1,0.5-0.1,0.9-0.1c0.3,0,0.6,0.1,0.9,0.1s0.5,0.2,0.7,0.4 c0.2,0.2,0.3,0.3,0.4,0.5s0.2,0.4,0.2,0.6s0.1,0.5,0.1,0.7s0,0.5,0,0.7s0,0.5,0,0.7s0,0.5-0.1,0.7s-0.1,0.4-0.2,0.7 s-0.2,0.4-0.4,0.5c-0.2,0.2-0.4,0.3-0.7,0.4s-0.6,0.1-0.9,0.1c-0.3,0-0.6-0.1-0.8-0.1s-0.5-0.2-0.7-0.5v2.8L-1451.6-207.2 L-1451.6-207.2z M-1450-212.7c0,0.3,0,0.5,0,0.7c0,0.2,0.1,0.4,0.1,0.6c0.1,0.2,0.2,0.3,0.3,0.4c0.1,0.1,0.3,0.1,0.6,0.1 s0.4-0.1,0.6-0.1s0.2-0.2,0.3-0.4s0.1-0.4,0.1-0.6s0-0.5,0-0.7s0-0.5,0-0.7c0-0.2-0.1-0.4-0.1-0.6c-0.1-0.2-0.2-0.3-0.3-0.4 c-0.1-0.1-0.3-0.1-0.6-0.1s-0.4,0.1-0.6,0.1s-0.2,0.2-0.3,0.4s-0.1,0.4-0.1,0.6C-1450-213.2-1450-212.9-1450-212.7z"></path> <path d="M-1445.4-212.7c0-0.5,0.1-1,0.2-1.4s0.3-0.7,0.6-1s0.5-0.5,0.9-0.6s0.7-0.2,1.1-0.2c0.4,0,0.8,0.1,1.2,0.2s0.6,0.4,0.9,0.6 s0.4,0.6,0.5,0.9s0.2,0.8,0.2,1.2v0.7h-3.9c0,0.4,0.1,0.7,0.3,1s0.6,0.4,1,0.4c0.3,0,0.6-0.1,0.8-0.1s0.4-0.2,0.6-0.4l0.9,0.9 c-0.2,0.2-0.3,0.3-0.5,0.4s-0.3,0.2-0.5,0.3s-0.4,0.1-0.6,0.2s-0.5,0.1-0.8,0.1c-0.4,0-0.7-0.1-1.1-0.1s-0.7-0.3-0.9-0.5 s-0.5-0.6-0.7-1S-1445.4-212-1445.4-212.7z M-1443.9-213.2h2.4c0-0.1,0-0.3,0-0.4s-0.1-0.2-0.1-0.3c-0.1-0.2-0.2-0.3-0.4-0.5 c-0.2-0.1-0.4-0.2-0.7-0.2s-0.5,0.1-0.7,0.2s-0.3,0.3-0.4,0.5c-0.1,0.1-0.1,0.2-0.1,0.3C-1443.9-213.5-1443.9-213.4-1443.9-213.2z"></path> <path d="M-1438.9-209.5v-6.2h1.5v0.6c0.2-0.2,0.4-0.3,0.7-0.5s0.6-0.2,0.9-0.2c0.3,0,0.6,0,0.8,0.1c0.2,0.1,0.5,0.2,0.7,0.5 l-1.2,1.2c-0.1-0.1-0.2-0.2-0.4-0.3s-0.3-0.1-0.5-0.1c-0.1,0-0.2,0-0.4,0.1s-0.2,0.1-0.3,0.2s-0.2,0.2-0.2,0.4 c-0.1,0.1-0.1,0.3-0.1,0.5v3.8L-1438.9-209.5L-1438.9-209.5z"></path> <path d="M-1434.2-211.4c0-0.2,0-0.5,0.1-0.7s0.2-0.4,0.4-0.6s0.4-0.3,0.7-0.4s0.6-0.1,0.9-0.1h1.5v-0.3c0-0.3-0.1-0.6-0.3-0.8 s-0.5-0.2-0.9-0.2c-0.2,0-0.3,0-0.4,0s-0.2,0.1-0.3,0.1s-0.2,0.1-0.3,0.2s-0.2,0.1-0.2,0.2l-1-1c0.3-0.3,0.6-0.6,1-0.7 s0.8-0.2,1.3-0.2c0.9,0,1.5,0.2,2,0.6s0.7,0.9,0.7,1.7v4.1h-1.5v-0.5c-0.2,0.2-0.4,0.4-0.7,0.4s-0.5,0.1-0.9,0.1 c-0.7,0-1.2-0.2-1.6-0.6c-0.2-0.2-0.3-0.4-0.4-0.6S-1434.2-211.1-1434.2-211.4z M-1432.7-211.5c0,0.2,0.1,0.4,0.2,0.5 s0.4,0.2,0.7,0.2c0.2,0,0.4,0,0.6-0.1s0.3-0.1,0.4-0.2c0.2-0.1,0.2-0.4,0.2-0.8v-0.3h-1.2c-0.3,0-0.5,0.1-0.7,0.2 S-1432.7-211.7-1432.7-211.5z"></path> <path d="M-1428.1-214.4v-1.2h0.7v-1.9h1.6v1.9h1.1v1.2h-1.1v3c0,0.4,0.2,0.6,0.5,0.6h0.6v1.3h-0.9c-0.3,0-0.6-0.1-0.8-0.2 s-0.4-0.2-0.6-0.4s-0.3-0.4-0.3-0.6s-0.1-0.4-0.1-0.6v-3.1H-1428.1z"></path> <path d="M-1423.7-216.9v-1.3h1.6v1.3H-1423.7z M-1423.7-209.5v-6.2h1.6v6.2H-1423.7z"></path> <path d="M-1420.9-212.7c0-0.6,0.1-1,0.2-1.4s0.3-0.7,0.6-1c0.2-0.2,0.4-0.4,0.8-0.5c0.3-0.1,0.7-0.2,1.2-0.2s0.9,0.1,1.2,0.2 c0.3,0.1,0.6,0.3,0.8,0.5c0.3,0.3,0.5,0.6,0.6,1s0.1,0.9,0.1,1.4s-0.1,1-0.2,1.4s-0.3,0.7-0.6,1c-0.2,0.2-0.4,0.4-0.8,0.5 c-0.3,0.1-0.7,0.2-1.2,0.2s-0.8-0.1-1.2-0.2c-0.3-0.1-0.6-0.3-0.8-0.5c-0.3-0.3-0.5-0.6-0.6-1S-1420.9-212.1-1420.9-212.7z M-1419.4-212.7c0,0.3,0,0.6,0.1,0.9s0.1,0.5,0.3,0.6c0.2,0.2,0.4,0.3,0.7,0.3c0.3,0,0.6-0.1,0.7-0.3c0.2-0.2,0.3-0.4,0.3-0.6 s0.1-0.6,0.1-0.9s0-0.6-0.1-0.9s-0.1-0.5-0.3-0.6c-0.2-0.2-0.4-0.3-0.7-0.3c-0.3,0-0.5,0.1-0.7,0.3c-0.2,0.2-0.3,0.4-0.3,0.6 S-1419.4-213-1419.4-212.7z"></path> <path d="M-1414.5-209.5v-6.2h1.5v0.6c0.2-0.2,0.4-0.4,0.7-0.5s0.6-0.2,0.8-0.2c0.3,0,0.6,0.1,0.8,0.1s0.5,0.2,0.6,0.4 c0.3,0.3,0.4,0.5,0.5,0.8s0.1,0.6,0.1,0.9v4h-1.6v-3.8c0-0.2,0-0.4-0.1-0.5c-0.1-0.1-0.1-0.3-0.2-0.4s-0.2-0.1-0.3-0.2 s-0.2-0.1-0.4-0.1s-0.2,0-0.4,0.1s-0.2,0.1-0.3,0.2s-0.2,0.2-0.2,0.4c-0.1,0.1-0.1,0.3-0.1,0.5v3.8H-1414.5z"></path> <path d="M-1408.5-210.4l1-1c0.3,0.3,0.5,0.4,0.8,0.5c0.3,0.1,0.6,0.1,0.8,0.1c0.1,0,0.3,0,0.4,0s0.2-0.1,0.3-0.1 c0.1-0.1,0.2-0.1,0.2-0.2s0.1-0.2,0.1-0.3c0-0.2-0.1-0.3-0.1-0.4s-0.3-0.2-0.5-0.2l-1-0.1c-0.6-0.1-1-0.2-1.3-0.5s-0.5-0.7-0.5-1.3 c0-0.3,0.1-0.6,0.2-0.9s0.3-0.5,0.5-0.6s0.5-0.3,0.8-0.4c0.3-0.1,0.6-0.1,0.9-0.1c0.5,0,0.9,0.1,1.3,0.1s0.8,0.3,1.1,0.6l-1,1 c-0.2-0.2-0.4-0.3-0.7-0.3s-0.5-0.1-0.8-0.1c-0.3,0-0.5,0.1-0.7,0.2s-0.2,0.3-0.2,0.4c0,0.1,0,0.1,0,0.2s0.1,0.1,0.1,0.2 s0.1,0.1,0.2,0.1c0.1,0,0.2,0.1,0.3,0.1l1,0.1c0.6,0.1,1.1,0.2,1.4,0.6s0.5,0.7,0.5,1.3c0,0.3-0.1,0.6-0.2,0.9s-0.3,0.5-0.6,0.6 c-0.2,0.2-0.5,0.3-0.8,0.4c-0.3,0.1-0.7,0.1-1,0.1c-0.2,0-0.5,0-0.7,0s-0.5-0.1-0.7-0.1c-0.2-0.1-0.4-0.1-0.7-0.3 S-1408.3-210.2-1408.5-210.4z"></path> </g> <g> <rect x="-2012.6" y="18.3" class="st4" width="519.9" height="519"></rect> <line class="st4" x1="-2012.6" y1="450.8" x2="-1492.9" y2="450.8"></line> <line class="st4" x1="-2012.6" y1="364.2" x2="-1492.9" y2="364.2"></line> <line class="st4" x1="-2012.6" y1="277.8" x2="-1492.9" y2="277.8"></line> <line class="st4" x1="-2012.6" y1="191.3" x2="-1492.9" y2="191.3"></line> <line class="st4" x1="-2012.6" y1="104.7" x2="-1492.9" y2="104.7"></line> <line class="st4" x1="-1579.4" y1="18.3" x2="-1579.4" y2="537.3"></line> <line class="st4" x1="-1666.1" y1="18.3" x2="-1666.1" y2="537.3"></line> <line class="st4" x1="-1752.8" y1="18.3" x2="-1752.8" y2="537.3"></line> <line class="st4" x1="-1839.4" y1="18.3" x2="-1839.4" y2="537.3"></line> <line class="st4" x1="-1926.1" y1="18.3" x2="-1926.1" y2="537.3"></line> </g> <g> <g> <g> <path id="XMLID_24_" class="st34" d="M-1498.6,325.1v1.3h12.6l0,0c28.7-0.5,51.8-23.9,51.8-52.6s-23.1-52.1-51.8-52.6l0,0h-12.6 v1.3c-23.5,5.3-41.1,26.2-41.1,51.3S-1522.1,319.8-1498.6,325.1z"></path> </g> <g> <g> <defs> <path id="SVGID_10_" d="M-1498.6,325.1v1.3h12.6l0,0c28.7-0.5,51.8-23.9,51.8-52.6s-23.1-52.1-51.8-52.6l0,0h-12.6v1.3 c-23.5,5.3-41.1,26.2-41.1,51.3S-1522.1,319.8-1498.6,325.1z"></path> </defs> <clipPath id="SVGID_11_"> <use xlink:href="#SVGID_10_" style="overflow:visible;"></use> </clipPath> <g class="st35"> <rect x="-1501.7" y="266.6" class="st11" width="76.4" height="19.2"></rect> </g> </g> </g> <g> <path id="XMLID_23_" class="st12" d="M-1498.6,325.1v1.3h12.6l0,0c28.7-0.5,51.8-23.9,51.8-52.6s-23.1-52.1-51.8-52.6l0,0h-12.6 v1.3c-23.5,5.3-41.1,26.2-41.1,51.3S-1522.1,319.8-1498.6,325.1z"></path> </g> </g> <ellipse class="st1" cx="-1498.5" cy="273.8" rx="52.7" ry="52.7"></ellipse> <g> <g> <ellipse id="XMLID_22_" class="st14" cx="-1498.5" cy="273.8" rx="42.6" ry="42.5"></ellipse> </g> <g> <g> <defs> <ellipse id="SVGID_12_" cx="-1498.5" cy="273.8" rx="42.6" ry="42.5"></ellipse> </defs> <clipPath id="SVGID_13_"> <use xlink:href="#SVGID_12_" style="overflow:visible;"></use> </clipPath> <ellipse class="st36" cx="-1492.8" cy="273.8" rx="42.6" ry="42.5"></ellipse> </g> </g> <g> <ellipse id="XMLID_21_" class="st12" cx="-1498.5" cy="273.8" rx="42.6" ry="42.5"></ellipse> </g> </g> </g> <g> <path d="M-1512.4,265.6l-5.4-11.2h4.1l1.7,4.1c0.5,1.3,1,2.5,1.5,3.9h0.1c0.5-1.4,1.1-2.6,1.6-3.9l1.7-4.1h4l-5.4,11.2v5.7h-3.8 V265.6z"></path> <path d="M-1502.8,264.9c0-4.3,3.2-6.8,6.6-6.8s6.6,2.5,6.6,6.8c0,4.3-3.2,6.7-6.6,6.7S-1502.8,269.2-1502.8,264.9z M-1493.6,264.9 c0-2.2-0.9-3.7-2.7-3.7c-1.8,0-2.7,1.4-2.7,3.7c0,2.2,0.9,3.7,2.7,3.7C-1494.5,268.6-1493.6,267.2-1493.6,264.9z"></path> <path d="M-1488.2,266.4v-7.9h3.8v7.5c0,1.7,0.5,2.5,1.9,2.5c0.9,0,1.6-0.3,2.5-1.5v-8.5h3.8v12.9h-3.1l-0.3-1.9h-0.1 c-1.1,1.3-2.5,2.2-4.3,2.2C-1486.9,271.7-1488.2,269.7-1488.2,266.4z"></path> <path d="M-1524,283.8c0-4.2,3.2-6.7,6.7-6.7c4,0,6.1,2.7,6.1,6.2c0,0.7-0.1,1.4-0.2,1.7h-9.8v-2.6h7.2l-0.6,0.7 c0-2.1-0.9-3.1-2.6-3.1c-1.9,0-3.1,1.3-3.1,3.8c0,2.7,1.4,3.8,3.9,3.8c1.2,0,2.2-0.3,3.3-0.9l1.3,2.3c-1.5,0.9-3.4,1.5-5.1,1.5 C-1520.8,290.5-1524,288-1524,283.8z"></path> <path d="M-1509.5,286.6c0-2.9,2.4-4.4,8.5-4.7c-0.1-1.1-1-1.9-2.7-1.9c-1.2,0-2.5,0.5-3.9,1.2l-1.4-2.5c1.8-1,3.8-1.7,6-1.7 c3.6,0,5.8,1.9,5.8,5.8v7.4h-3.1l-0.3-1.5h-0.1c-1.3,1-2.9,1.8-4.6,1.8C-1507.9,290.5-1509.5,288.8-1509.5,286.6z M-1501.1,286.3 v-2.1c-3.8,0.2-4.8,1-4.8,2.1c0,0.8,0.7,1.2,1.8,1.2C-1503,287.6-1502,287-1501.1,286.3z"></path> <path d="M-1493.9,277.4h3.1l0.3,2.8h0.1c1.3-2.1,3.2-3.1,5.2-3.1c1.1,0,1.7,0.2,2.5,0.5l-0.8,3.2c-0.8-0.2-1.3-0.4-2.3-0.4 c-1.6,0-3.2,0.8-4.3,3.1v6.7h-3.8V277.4z"></path> <path d="M-1480.8,277.4h3.1l0.3,1.7h0.1c1.1-1.1,2.5-2,4.4-2c2.9,0,4.2,2,4.2,5.2v7.9h-3.8v-7.5c0-1.7-0.5-2.5-1.9-2.5 c-1,0-1.7,0.5-2.6,1.3v8.6h-3.8L-1480.8,277.4L-1480.8,277.4z"></path> </g> <g> <g> <polygon class="st1" points="-1406,232.4 -1413,225.2 -1415.2,227.4 -1406.1,236.8 -1396.7,227.7 -1398.8,225.4 "></polygon> </g> </g> <g> <g> <polygon class="st1" points="-1370.1,191.1 -1362.9,184.1 -1365,181.9 -1374.4,191 -1365.3,200.4 -1363.1,198.2 "></polygon> </g> </g> <circle class="st19" cx="-1319.3" cy="104.7" r="9.3"></circle> <circle class="st1" cx="-1406.2" cy="278.2" r="8.9"></circle> <circle class="st19" cx="-1405.7" cy="364.2" r="9.3"></circle> <circle class="st19" cx="-1405.9" cy="450.8" r="9.3"></circle> <circle class="st19" cx="-1319.9" cy="450.8" r="9.3"></circle> <polygon class="st37" points="-1586.4,184.2 -1593.9,189.8 -1577,197.2 -1584.1,202.5 -1550.7,213.5 -1571.3,200.2 -1565.1,195.7 -1582.7,187.8 -1575.5,182.4 -1610,169.5 "></polygon> <polygon class="st37" points="-1587.4,365.9 -1583.1,374.2 -1573,358.7 -1569,366.5 -1552.8,335.3 -1569.2,353.6 -1572.7,346.7 -1583.3,362.8 -1587.4,354.9 -1605.7,386.9 "></polygon> <path class="st1" d="M-1994.9-151.9"></path> <rect x="-1673.1" y="1363.1" class="st38" width="255.4" height="23.6"></rect> <text transform="matrix(1 0 0 1 -1627.6725 1372.3778)" class="st33" style="font-family:'DIN-Medium'; font-size:13px;">*</text> <text transform="matrix(1 0 0 1 -1621.6925 1372.3778)" class="st29" style="font-family:'DIN-Medium'; font-size:13px;">If your friends invite like you.</text> <path class="st39" d="M525.5,669.5L525.5,669.5c-15.1,0-27.4-12.3-27.4-27.4V445.2c0-15.1,12.3-27.4,27.4-27.4l0,0 c15.1,0,27.4,12.3,27.4,27.4v196.9C552.9,657.2,540.5,669.5,525.5,669.5z"></path> <g> <rect x="333" y="197.2" class="st40" width="252" height="251.6"></rect> <line class="st40" x1="333" y1="406.8" x2="585" y2="406.8"></line> <line class="st40" x1="333" y1="364.8" x2="585" y2="364.8"></line> <line class="st40" x1="333" y1="323" x2="585" y2="323"></line> <line class="st40" x1="333" y1="281" x2="585" y2="281"></line> <line class="st40" x1="333" y1="239.1" x2="585" y2="239.1"></line> <line class="st40" x1="543" y1="197.2" x2="543" y2="448.8"></line> <line class="st40" x1="501" y1="197.2" x2="501" y2="448.8"></line> <line class="st40" x1="459" y1="197.2" x2="459" y2="448.8"></line> <line class="st40" x1="417" y1="197.2" x2="417" y2="448.8"></line> <line class="st40" x1="375" y1="197.2" x2="375" y2="448.8"></line> </g> <g> <path class="st18" d="M367.7,392.3V331h113.9c40.9,0,74.2,33.3,74.2,74.2v42h-61.3v-42c0-7.1-5.8-12.9-12.9-12.9H367.7z"></path> </g> <g> <rect x="90.6" y="197.2" class="st40" width="252" height="251.6"></rect> <line class="st40" x1="90.6" y1="406.9" x2="342.6" y2="406.9"></line> <line class="st40" x1="90.6" y1="364.9" x2="342.6" y2="364.9"></line> <line class="st40" x1="90.6" y1="323" x2="342.6" y2="323"></line> <line class="st40" x1="90.6" y1="281.1" x2="342.6" y2="281.1"></line> <line class="st40" x1="90.6" y1="239.1" x2="342.6" y2="239.1"></line> <line class="st40" x1="300.6" y1="197.2" x2="300.6" y2="448.8"></line> <line class="st40" x1="258.6" y1="197.2" x2="258.6" y2="448.8"></line> <line class="st40" x1="216.5" y1="197.2" x2="216.5" y2="448.8"></line> <line class="st40" x1="174.6" y1="197.2" x2="174.6" y2="448.8"></line> <line class="st40" x1="132.6" y1="197.2" x2="132.6" y2="448.8"></line> </g> <rect x="262.6" y="202" class="st16" width="210.3" height="23.5"></rect> <path class="st16" d="M499.2,184.4h25.1V58c0-6.9-5.6-12.5-12.5-12.5l0,0c-6.9,0-12.5,5.6-12.5,12.5L499.2,184.4L499.2,184.4z"></path> <path class="st17" d="M547.7,571.5c0-1.6-0.6-3.1-1.7-4.5c-3.2-4.1-10.7-7-19.5-7c-11.7,0-21.2,5.2-21.2,11.5L547.7,571.5 L547.7,571.5z"></path> <path class="st16" d="M526,565L526,565c-3.3,0-6.1-2.7-6.1-6.1v-15.5c0-3.3,2.7-6.1,6.1-6.1l0,0c3.3,0,6.1,2.7,6.1,6.1v15.5 C532.1,562.2,529.3,565,526,565z"></path> <g> <path class="st17" d="M518.4,534.3h-6.4c-4.6,0-8.4-3.8-8.4-8.4v-17c0-4.6,3.8-8.4,8.4-8.4h6.4V534.3z M512,505.7 c-1.7,0-3.1,1.4-3.1,3.1v17c0,1.7,1.4,3.1,3.1,3.1h1.1v-23.3H512z"></path> </g> <g> <path class="st17" d="M533.9,500.4h6.4c4.6,0,8.4,3.8,8.4,8.4v17.1c0,4.6-3.8,8.4-8.4,8.4h-6.4V500.4z M539.2,505.7V529h1.1 c1.7,0,3.1-1.4,3.1-3.1v-17c0-1.7-1.4-3.1-3.1-3.1H539.2z"></path> </g> <path class="st17" d="M526.1,552.9L526.1,552.9c-7.5,0-13.6-6.1-13.6-13.6v-57.7h27.2v57.7C539.8,546.8,533.7,552.9,526.1,552.9z"></path> <polygon class="st11" points="539.6,495.4 539.6,506.1 512.5,537.7 512.5,527.1 "></polygon> <polygon class="st3" points="552.9,588.6 497.1,582.6 497.1,578.4 552.9,578.4 "></polygon> <rect x="375.1" y="557" class="st1" width="216.3" height="23.5"></rect> <rect x="90.6" y="561.1" class="st1" width="210.3" height="23.5"></rect> <g> <path class="st1" d="M78.5,557.1H99v30.5H78.5c-7,0-12.7,5.7-12.7,12.7l-0.9,37.4H34.4l0.9-37.4C35.4,576.4,54.7,557.1,78.5,557.1z "></path> </g> <path class="st39" d="M350.1,568.8h-65.9c-15.4,0-27.9-12.6-27.9-27.9V75.1c0-15.4,12.6-27.9,27.9-27.9h65.9 c15.4,0,27.9,12.6,27.9,27.9v465.7C378,556.2,365.5,568.8,350.1,568.8z"></path> <path class="st16" d="M324.3,112.1c-9-30.2-24.9-49.6-37.8-48.2c-17.1,1.9-21.2,24.9-9.6,62.9c11.6,38.3,26.3,53.4,42.4,47.3 C331.7,169.4,333.3,142.3,324.3,112.1z"></path> <ellipse transform="matrix(0.9585 -0.2852 0.2852 0.9585 -21.2937 91.474)" class="st41" cx="303.4" cy="118.9" rx="21.9" ry="57"></ellipse> <ellipse transform="matrix(0.9585 -0.2852 0.2852 0.9585 -21.3004 92.5464)" class="st3" cx="307.1" cy="119.4" rx="13.7" ry="46.5"></ellipse> <ellipse transform="matrix(0.9585 -0.2852 0.2852 0.9585 -20.9948 91.7653)" class="st41" cx="304.6" cy="118" rx="13.7" ry="48.6"></ellipse> <rect x="369.8" y="108.3" class="st1" width="210.3" height="23.5"></rect> <g> <path class="st1" d="M590.8,105.1h-20.5v30.5h20.5c7,0,12.7,5.7,12.7,12.6v20.1H634v-20.1C634,124.5,614.6,105.1,590.8,105.1z"></path> </g> <polygon class="st13" points="389.7,651.1 243.4,651.1 243.4,538.4 317.6,546.3 389.7,538.4 "></polygon> <g> <path class="st13" d="M255.2,532.1c-3.8,0.8-6.4,1.6-7.7,2.4c5.1,3,31,6.9,70,6.9c38.2,0,63.7-3.7,69.6-6.7c0.2-0.1,0.2-0.3,0-0.4 c-0.9-0.3-3.2-1.1-8.5-1.5v-6c12.5,2.4,14.5,5.1,14.5,7.7c0,3.2-2.9,6.5-23.6,9.1c-13.9,1.8-32.4,2.8-52,2.8s-38.1-1-52-2.8 c-20.7-2.7-23.6-6-23.6-9.1c0-2.4,2.5-5.8,13.2-7L255.2,532.1z"></path> </g> <path class="st13" d="M319.1,26.4L319.1,26.4c40.4,0,73.1,32.7,73.1,73.1v15l-74.1-7.9l-72.1,7.9v-15 C245.9,59.1,278.7,26.4,319.1,26.4z"></path> <g> <path class="st13" d="M255.6,124.3c-10.6-1.2-13.2-4.6-13.2-7c0-3.2,2.9-6.4,23.6-9.1c13.9-1.8,32.4-2.8,52-2.8s38.1,1,52,2.8 c20.7,2.7,23.6,5.9,23.6,9.1c0,2.6-2,5.3-14.5,7.7v-6c5.3-0.4,7.6-1.1,8.5-1.5c0.2-0.1,0.2-0.3,0-0.4c-5.9-3-31.5-6.7-69.6-6.7 c-39.1,0-64.9,3.9-70,6.9c1.3,0.8,3.9,1.6,7.7,2.4L255.6,124.3z"></path> </g> <path class="st16" d="M306.9,228.6c-25.7,25.7-39.9,49.4-35.5,57.6c5.8,10.8,28-1,59.3-33.8c31.9-33.5,44.1-52.7,34.6-60.1 C358,186.6,332.6,202.9,306.9,228.6z"></path> <ellipse transform="matrix(0.7071 -0.7071 0.7071 0.7071 -75.5519 294.3185)" class="st42" cx="317.5" cy="238.4" rx="65.8" ry="14.4"></ellipse> <ellipse transform="matrix(0.7071 -0.7071 0.7071 0.7071 -76.2437 293.5332)" class="st3" cx="316.2" cy="238.8" rx="56.8" ry="8.1"></ellipse> <ellipse transform="matrix(0.7071 -0.7071 0.7071 0.7071 -76.1471 294.5633)" class="st42" cx="317.5" cy="239.2" rx="56.2" ry="8.1"></ellipse> <path class="st16" d="M309.4,451.8c-30.3,12.9-49.7,29.1-48.2,39c2.1,13,25.2,11.9,62.5-5.2c38.1-17.5,54.5-30.3,48.1-41.8 C367,435,339.6,439,309.4,451.8z"></path> <ellipse transform="matrix(0.9206 -0.3906 0.3906 0.9206 -156.9377 160.4421)" class="st43" cx="316" cy="466" rx="59.6" ry="15.7"></ellipse> <ellipse transform="matrix(0.9206 -0.3906 0.3906 0.9206 -156.9773 159.9302)" class="st3" cx="314.7" cy="465.9" rx="51.4" ry="8.8"></ellipse> <ellipse transform="matrix(0.9206 -0.3906 0.3906 0.9206 -157.2749 160.4094)" class="st43" cx="315.7" cy="466.8" rx="50.8" ry="8.8"></ellipse> <path class="st16" d="M330.2,341.7c-26.3-17.3-51-22-60-12.6c-11.9,12.4-0.1,32.7,33.1,54.4c33.6,21.9,54.5,24,62.9,8.9 C372.8,380.7,356.5,359,330.2,341.7z"></path> <ellipse transform="matrix(0.5501 -0.8351 0.8351 0.5501 -157.5503 428.1275)" class="st44" cx="318.6" cy="360.3" rx="21.9" ry="57"></ellipse> <ellipse transform="matrix(0.5501 -0.8351 0.8351 0.5501 -154.5015 429.9047)" class="st3" cx="321.7" cy="358.3" rx="13.7" ry="46.5"></ellipse> <ellipse transform="matrix(0.5501 -0.8351 0.8351 0.5501 -156.2232 427.7552)" class="st44" cx="318.9" cy="358.9" rx="13.7" ry="48.6"></ellipse> <g> <path class="st13" d="M255.6,522.3c-3.8,0.8-6.4,1.6-7.7,2.4c5.1,3,31,6.9,70,6.9c38.2,0,63.7-3.7,69.6-6.7c0.2-0.1,0.2-0.3,0-0.4 c-0.9-0.3-3.2-1.1-8.5-1.5v-6c12.5,2.4,14.5,5.1,14.5,7.7c0,3.2-2.9,6.5-23.6,9.1c-13.9,1.8-32.4,2.8-52,2.8s-38.1-1-52-2.8 c-20.7-2.7-23.6-6-23.6-9.1c0-2.4,2.5-5.8,13.2-7L255.6,522.3z"></path> </g> <g> <path class="st13" d="M255.6,511.3c-3.8,0.8-6.4,1.6-7.7,2.4c5.1,3,31,6.9,70,6.9c38.2,0,63.7-3.7,69.6-6.7c0.2-0.1,0.2-0.3,0-0.4 c-0.9-0.3-3.2-1.1-8.5-1.5v-6c12.5,2.4,14.5,5.1,14.5,7.7c0,3.2-2.9,6.5-23.6,9.1c-13.9,1.8-32.4,2.8-52,2.8s-38.1-1-52-2.8 c-20.7-2.7-23.6-6-23.6-9.1c0-2.4,2.5-5.8,13.2-7L255.6,511.3z"></path> </g> <g> <path class="st13" d="M256.6,133.1c-10.6-1.2-13.2-4.6-13.2-7c0-3.2,2.9-6.4,23.6-9.1c13.9-1.8,32.4-2.8,52-2.8s38.1,1,52,2.8 c20.7,2.7,23.6,5.9,23.6,9.1c0,2.6-2,5.3-14.5,7.7v-6c5.3-0.4,7.6-1.1,8.5-1.5c0.2-0.1,0.2-0.3,0-0.4c-5.9-3-31.5-6.7-69.6-6.7 c-39.1,0-64.9,3.9-70,6.9c1.3,0.8,3.9,1.6,7.7,2.4L256.6,133.1z"></path> </g> <g> <path class="st13" d="M255.6,142.7c-10.6-1.2-13.2-4.6-13.2-7c0-3.2,2.9-6.4,23.6-9.1c13.9-1.8,32.4-2.8,52-2.8s38.1,1,52,2.8 c20.7,2.7,23.6,5.9,23.6,9.1c0,2.6-2,5.3-14.5,7.7v-6c5.3-0.4,7.6-1.1,8.5-1.5c0.2-0.1,0.2-0.3,0-0.4c-5.9-3-31.5-6.7-69.6-6.7 c-39.1,0-64.9,3.9-70,6.9c1.3,0.8,3.9,1.6,7.7,2.4L255.6,142.7z"></path> </g> <polygon class="st18" points="561,457.5 489.2,457.5 494.8,447.4 556.6,447.4 "></polygon> <path class="st39" d="M115.2,484.1H97.6c-16.7,0-30.4-13.7-30.4-30.4V201.2c0-16.7,13.7-30.4,30.4-30.4h17.6 c16.7,0,30.4,13.7,30.4,30.4v252.6C145.6,470.4,131.9,484.1,115.2,484.1z"></path> <path class="st18" d="M142.3,252.2H70.4c-1.8,0-3.3-1.5-3.3-3.3v-43.8c0-21.6,17.6-39.2,39.2-39.2l0,0c21.6,0,39.2,17.6,39.2,39.2 v43.8C145.6,250.7,144.1,252.2,142.3,252.2z"></path> <path class="st18" d="M67.2,424.2h78.4v47c0,21.5-17.6,39.2-39.2,39.2l0,0c-21.5,0-39.2-17.6-39.2-39.2V424.2z"></path> <polygon class="st18" points="149.3,263.4 61.3,263.4 66.9,251.7 145.1,251.7 "></polygon> <polygon class="st18" points="149.3,413.3 61.3,413.3 66.9,425 145.1,425 "></polygon> <path class="st17" d="M131.2,393.3c0-1.9-0.7-3.7-2-5.4c-3.9-5-12.9-8.5-23.5-8.5c-14.1,0-25.5,6.2-25.5,13.9H131.2z"></path> <path class="st16" d="M106.3,385.5h-2.5c-3.3,0-6.1-2.7-6.1-6.1v-21.1c0-3.4,2.7-6.1,6.1-6.1h2.5c3.3,0,6.1,2.7,6.1,6.1v21.1 C112.4,382.7,109.7,385.5,106.3,385.5z"></path> <g> <path class="st17" d="M96,348.5h-7.7c-5.6,0-10.1-4.5-10.1-10.1v-20.5c0-5.6,4.5-10.1,10.1-10.1H96V348.5z M88.4,314.1 c-2.1,0-3.8,1.7-3.8,3.8v20.5c0,2.1,1.7,3.8,3.8,3.8h1.3v-28.1H88.4z"></path> </g> <g> <path class="st17" d="M114.7,307.8h7.7c5.6,0,10.1,4.5,10.1,10.1v20.5c0,5.6-4.5,10.1-10.1,10.1h-7.7 C114.6,348.5,114.6,307.8,114.7,307.8z M121,314.1v28.1h1.3c2.1,0,3.8-1.7,3.8-3.8v-20.5c0-2.1-1.7-3.8-3.8-3.8H121z"></path> </g> <path class="st17" d="M108.1,370.9h-5.5c-7.5,0-13.6-6.1-13.6-13.6v-72.1h32.8v72.1C121.7,364.9,115.6,370.9,108.1,370.9z"></path> <ellipse class="st16" cx="105.3" cy="285.1" rx="16.6" ry="2.2"></ellipse> <polygon class="st11" points="121.5,301.8 121.5,314.6 88.8,352.6 88.8,339.9 "></polygon> <polygon class="st3" points="390,580.3 390,557.3 393.4,557.3 396.3,580.3 "></polygon> <g> <path class="st16" d="M526.8,185.7v-20.5h-30.5v20.5c0,7-5.7,12.6-12.6,12.6h-20.1v30.5h20.1C507.5,228.8,526.8,209.5,526.8,185.7z "></path> </g> <polygon class="st3" points="525.7,136.3 497.8,133.4 497.8,131.3 525.7,131.3 "></polygon> <path class="st1" d="M608.8,538.4L608.8,538.4c-7,0-12.6-5.7-12.6-12.6v-63.7c0-6.9,5.7-12.6,12.6-12.6h0c6.9,0,12.6,5.7,12.6,12.6 v63.7C621.3,532.8,615.7,538.4,608.8,538.4z"></path> <g> <path class="st1" d="M581.1,584.7h-20.5v-30.5h20.5c7,0,12.7-5.7,12.7-12.7v-20.1h30.5v20.1C624.2,565.4,604.8,584.7,581.1,584.7z"></path> </g> <polygon class="st3" points="378,392.3 378,331.4 381.3,331.4 386.3,392.3 "></polygon> <polygon class="st3" points="378,225 378,201.9 381.3,201.9 384.3,225 "></polygon> </svg> 