<?xml version="1.0" encoding="UTF-8"?> <!-- Generator: Adobe Illustrator 24.1.0, SVG Export Plug-In . SVG Version: 6.00 Build 0) --> <svg xmlns="http://www.w3.org/2000/svg" xmlns:xlink="http://www.w3.org/1999/xlink" id="Layer_1" x="0px" y="0px" viewBox="0 0 663.99 591.3" style="enable-background:new 0 0 663.99 591.3;" xml:space="preserve"> <style type="text/css"> .st0{fill:#262626;} .st1{fill:#EEF3FF;stroke:#1C1C1C;stroke-miterlimit:10;} .st2{fill:none;stroke:#FFFFFF;stroke-width:1.0008;stroke-miterlimit:10;} .st3{fill:#44C87F;stroke:#1C1C1C;stroke-miterlimit:10;} .st4{fill:#FF8240;stroke:#1C1C1C;stroke-miterlimit:10;} .st5{fill:#FFC1A0;stroke:#1C1C1C;stroke-miterlimit:10;} .st6{fill:#FFFFFF;stroke:#1C1C1C;stroke-miterlimit:10;} .st7{fill:#FF5050;stroke:#1C1C1C;stroke-miterlimit:10;} .st8{fill:url(#SVGID_1_);} .st9{fill:none;stroke:#FFBDBD;stroke-width:1.5;stroke-miterlimit:10;} .st10{fill:#44C87F;stroke:#1D2124;stroke-width:0.8;stroke-miterlimit:10;} .st11{fill:#FFFFFF;stroke:#FFFFFF;stroke-miterlimit:10;} .st12{fill:#ECCCEE;} .st13{clip-path:url(#SVGID_5_);} .st14{fill:none;stroke:#1D2124;stroke-width:1.0008;stroke-miterlimit:10;} .st15{fill:#AC43B3;stroke:#080808;stroke-width:1.0008;stroke-miterlimit:10;} .st16{fill:#1D2124;} .st17{clip-path:url(#SVGID_7_);fill:#FFFFFF;stroke:#1D2124;stroke-width:1.0008;stroke-miterlimit:10;} .st18{fill:#D3F0DF;stroke:#1C1C1C;stroke-miterlimit:10;} .st19{fill:#FFCCCC;stroke:#1C1C1C;stroke-miterlimit:10;} .st20{clip-path:url(#SVGID_11_);} .st21{clip-path:url(#SVGID_13_);fill:#FFFFFF;stroke:#1D2124;stroke-width:1.0008;stroke-miterlimit:10;} .st22{fill:#FF5050;stroke:#1D2124;stroke-width:0.8;stroke-miterlimit:10;} .st23{fill:#FFFFFF;stroke:#1D2124;stroke-width:1.0008;stroke-miterlimit:10;} .st24{fill:#FF8240;stroke:#1D2124;stroke-miterlimit:10;} .st25{fill:#FFDFCE;stroke:#1D2124;stroke-miterlimit:10;} .st26{fill:none;stroke:#1D2124;stroke-width:0.8;stroke-miterlimit:10;} .st27{fill:#FF8240;stroke:#1D2124;stroke-width:0.8;stroke-miterlimit:10;} .st28{fill:#FFFFFF;} .st29{fill:#FBEBFF;stroke:#080808;stroke-width:1.0008;stroke-miterlimit:10;} .st30{fill:#E8F9EF;stroke:#1C1C1C;stroke-miterlimit:10;} .st31{fill:#FFEBEB;stroke:#1D2124;stroke-miterlimit:10;} .st32{fill:#FF5050;} .st33{fill:#FFBDBD;} .st34{clip-path:url(#SVGID_17_);} .st35{clip-path:url(#SVGID_19_);fill:#FFFFFF;stroke:#1D2124;stroke-width:1.0008;stroke-miterlimit:10;} .st36{fill:#FFBDBD;stroke:#1D2124;stroke-miterlimit:10;} .st37{fill-rule:evenodd;clip-rule:evenodd;fill:#FD5050;stroke:#FFFFFF;stroke-width:1.25;stroke-miterlimit:10;} .st38{fill:url(#SVGID_20_);} .st39{display:none;fill:url(#SVGID_21_);} </style> <rect x="0.11" class="st0" width="663.99" height="602.64"></rect> <path class="st1" d="M530.57,625.84L530.57,625.84c-15.08,0-27.43-12.34-27.43-27.43V418.85c0-15.08,12.34-27.43,27.43-27.43l0,0 c15.08,0,27.43,12.34,27.43,27.43v179.56C557.99,613.5,545.65,625.84,530.57,625.84z"></path> <g> <rect x="338.3" y="149.66" class="st2" width="252.03" height="251.58"></rect> <line class="st2" x1="338.3" y1="359.28" x2="590.26" y2="359.28"></line> <line class="st2" x1="338.3" y1="317.32" x2="590.26" y2="317.32"></line> <line class="st2" x1="338.3" y1="275.44" x2="590.26" y2="275.44"></line> <line class="st2" x1="338.3" y1="233.49" x2="590.26" y2="233.49"></line> <line class="st2" x1="338.3" y1="191.53" x2="590.26" y2="191.53"></line> <line class="st2" x1="548.3" y1="149.66" x2="548.3" y2="401.23"></line> <line class="st2" x1="506.27" y1="149.66" x2="506.27" y2="401.23"></line> <line class="st2" x1="464.24" y1="149.66" x2="464.24" y2="401.23"></line> <line class="st2" x1="422.29" y1="149.66" x2="422.29" y2="401.23"></line> <line class="st2" x1="380.26" y1="149.66" x2="380.26" y2="401.23"></line> </g> <g> <path class="st3" d="M372.81,365.95v-61.29h113.94c40.93,0,74.23,33.3,74.23,74.23v41.98h-61.29v-41.98 c0-7.13-5.8-12.94-12.94-12.94H372.81z"></path> </g> <g> <rect x="95.72" y="148.9" class="st2" width="252.03" height="251.58"></rect> <line class="st2" x1="95.72" y1="358.52" x2="347.67" y2="358.52"></line> <line class="st2" x1="95.72" y1="316.56" x2="347.67" y2="316.56"></line> <line class="st2" x1="95.72" y1="274.68" x2="347.67" y2="274.68"></line> <line class="st2" x1="95.72" y1="232.73" x2="347.67" y2="232.73"></line> <line class="st2" x1="95.72" y1="190.77" x2="347.67" y2="190.77"></line> <line class="st2" x1="305.72" y1="148.9" x2="305.72" y2="400.47"></line> <line class="st2" x1="263.69" y1="148.9" x2="263.69" y2="400.47"></line> <line class="st2" x1="221.66" y1="148.9" x2="221.66" y2="400.47"></line> <line class="st2" x1="179.7" y1="148.9" x2="179.7" y2="400.47"></line> <line class="st2" x1="137.67" y1="148.9" x2="137.67" y2="400.47"></line> </g> <rect x="267.69" y="140.61" transform="matrix(-1 -4.489665e-11 4.489665e-11 -1 745.722 304.7544)" class="st4" width="210.33" height="23.53"></rect> <rect x="504.34" y="-1.59" transform="matrix(-1 -4.490465e-11 4.490465e-11 -1 1033.776 121.4562)" class="st4" width="25.09" height="124.63"></rect> <path class="st5" d="M552.78,545.16c0-1.59-0.59-3.11-1.66-4.49c-3.21-4.14-10.73-7.04-19.5-7.04c-11.69,0-21.16,5.16-21.16,11.52 H552.78z"></path> <path class="st4" d="M531.08,538.64L531.08,538.64c-3.35,0-6.1-2.74-6.1-6.1v-15.52c0-3.35,2.74-6.1,6.1-6.1l0,0 c3.35,0,6.1,2.74,6.1,6.1v15.52C537.18,535.89,534.43,538.64,531.08,538.64z"></path> <g> <path class="st5" d="M523.54,507.94h-6.37c-4.63,0-8.41-3.77-8.41-8.41v-17.05c0-4.63,3.77-8.4,8.41-8.4h6.37V507.94z M517.17,479.34c-1.73,0-3.14,1.41-3.14,3.14v17.05c0,1.73,1.41,3.14,3.14,3.14h1.11v-23.33H517.17z"></path> </g> <g> <path class="st5" d="M539.01,474.08h6.37c4.63,0,8.41,3.77,8.41,8.4v17.05c0,4.63-3.77,8.41-8.41,8.41h-6.37V474.08z M544.27,479.34v23.33h1.11c1.73,0,3.14-1.41,3.14-3.14v-17.05c0-1.73-1.41-3.14-3.14-3.14H544.27z"></path> </g> <path class="st5" d="M531.25,526.55L531.25,526.55c-7.52,0-13.62-6.1-13.62-13.62v-57.66h27.23v57.66 C544.87,520.45,538.77,526.55,531.25,526.55z"></path> <polygon class="st6" points="544.67,469.08 544.67,479.73 517.57,511.33 517.57,500.73 "></polygon> <polygon class="st0" points="557.99,562.23 502.23,556.23 502.23,552.06 557.99,552.06 "></polygon> <rect x="380.26" y="530.69" transform="matrix(-1 4.366229e-11 -4.366229e-11 -1 976.7725 1084.9132)" class="st7" width="216.26" height="23.53"></rect> <rect x="95.67" y="534.7" transform="matrix(-1 4.489197e-11 -4.489197e-11 -1 401.6827 1092.9253)" class="st7" width="210.33" height="23.53"></rect> <g> <path class="st7" d="M83.58,530.71h20.54v30.46H83.58c-6.97,0-12.65,5.67-12.65,12.65v20.08H40.47v-20.08 C40.47,550.05,59.81,530.71,83.58,530.71z"></path> </g> <path class="st1" d="M355.2,542.46h-65.93c-15.36,0-27.94-12.57-27.94-27.94V48.79c0-15.36,12.57-27.94,27.94-27.94h65.93 c15.36,0,27.94,12.57,27.94,27.94v465.73C383.13,529.89,370.56,542.46,355.2,542.46z"></path> <path class="st4" d="M329.41,85.74c-8.98-30.16-24.87-49.64-37.8-48.21c-17.07,1.9-21.16,24.93-9.64,62.91 c11.63,38.35,26.33,53.44,42.44,47.32C336.84,143.04,338.38,115.91,329.41,85.74z"></path> <ellipse transform="matrix(0.9585 -0.2852 0.2852 0.9585 -13.563 91.8452)" class="st5" cx="308.55" cy="92.49" rx="21.92" ry="56.98"></ellipse> <ellipse transform="matrix(0.9585 -0.2852 0.2852 0.9585 -13.5709 92.917)" class="st0" cx="312.22" cy="93.05" rx="13.71" ry="46.54"></ellipse> <ellipse transform="matrix(0.9585 -0.2852 0.2852 0.9585 -13.2643 92.136)" class="st5" cx="309.69" cy="91.61" rx="13.71" ry="48.64"></ellipse> <rect x="93.85" y="30.73" transform="matrix(-1 -4.489665e-11 4.489665e-11 -1 398.0372 85.001)" class="st7" width="210.33" height="23.53"></rect> <g> <path class="st7" d="M81.75,58.25h20.54V27.79H81.75c-6.97,0-12.65-5.67-12.65-12.65V-4.93H38.65v20.08 C38.65,38.91,57.98,58.25,81.75,58.25z"></path> </g> <rect x="360.93" y="31.73" class="st7" width="210.33" height="23.53"></rect> <g> <path class="st7" d="M583.36,59.25h-20.54V28.79h20.54c6.97,0,12.65-5.67,12.65-12.65V-3.93h30.46v20.08 C626.46,39.91,607.13,59.25,583.36,59.25z"></path> </g> <polygon class="st15" points="394.81,624.7 248.56,624.7 248.56,512.07 322.69,519.94 394.81,512.07 "></polygon> <g> <path class="st15" d="M260.33,505.71c-3.79,0.79-6.4,1.6-7.69,2.36c5.12,3,30.95,6.87,70.04,6.87c38.17,0,63.7-3.7,69.65-6.66 c0.17-0.08,0.16-0.33-0.02-0.41c-0.85-0.35-3.2-1.09-8.47-1.46l0-6.04c12.5,2.37,14.47,5.08,14.47,7.7c0,3.16-2.86,6.45-23.6,9.11 c-13.91,1.78-32.39,2.77-52.03,2.77s-38.11-0.98-52.03-2.77c-20.74-2.66-23.6-5.95-23.6-9.11c0-2.37,2.51-5.81,13.16-7.01 L260.33,505.71z"></path> </g> <polygon class="st15" points="251.06,0 397.31,0 397.31,88.15 323.19,80.28 251.06,88.15 "></polygon> <g> <path class="st15" d="M260.72,97.99c-10.65-1.2-13.16-4.64-13.16-7.01c0-3.16,2.86-6.45,23.6-9.11 c13.91-1.78,32.39-2.77,52.03-2.77s38.11,0.98,52.03,2.77c20.74,2.66,23.6,5.95,23.6,9.11c0,2.62-1.97,5.33-14.47,7.7l0-6.04 c5.27-0.37,7.62-1.11,8.47-1.46c0.18-0.07,0.19-0.32,0.02-0.41c-5.94-2.97-31.47-6.66-69.65-6.66c-39.08,0-64.91,3.87-70.04,6.87 c1.29,0.75,3.89,1.57,7.69,2.36L260.72,97.99z"></path> </g> <path class="st4" d="M312.02,202.25c-25.7,25.7-39.88,49.41-35.46,57.59c5.83,10.81,27.98-0.96,59.28-33.77 c31.93-33.47,44.12-52.7,34.62-60.12C363.12,160.22,337.71,176.56,312.02,202.25z"></path> <ellipse transform="matrix(0.7071 -0.7071 0.7071 0.7071 -55.4186 290.2153)" class="st5" cx="322.61" cy="212" rx="65.8" ry="14.39"></ellipse> <ellipse transform="matrix(0.7071 -0.7071 0.7071 0.7071 -56.1114 289.4344)" class="st0" cx="321.32" cy="212.45" rx="56.79" ry="8.12"></ellipse> <ellipse transform="matrix(0.7071 -0.7071 0.7071 0.7071 -56.0147 290.4622)" class="st5" cx="322.61" cy="212.85" rx="56.16" ry="8.12"></ellipse> <path class="st4" d="M314.47,425.48c-30.28,12.85-49.74,29.08-48.17,38.96c2.07,13.05,25.18,11.92,62.51-5.18 c38.08-17.45,54.47-30.29,48.15-41.77C372.09,408.62,344.76,412.63,314.47,425.48z"></path> <ellipse transform="matrix(0.9205 -0.3906 0.3906 0.9205 -146.2442 160.3607)" class="st5" cx="321.09" cy="439.69" rx="59.57" ry="15.67"></ellipse> <ellipse transform="matrix(0.9205 -0.3906 0.3906 0.9205 -146.2816 159.8492)" class="st0" cx="319.82" cy="439.53" rx="51.41" ry="8.85"></ellipse> <ellipse transform="matrix(0.9205 -0.3906 0.3906 0.9205 -146.5794 160.3299)" class="st5" cx="320.85" cy="440.5" rx="50.84" ry="8.85"></ellipse> <path class="st4" d="M335.3,315.32c-26.28-17.31-50.99-21.99-59.96-12.57c-11.85,12.44-0.15,32.7,33.1,54.35 c33.58,21.87,54.55,23.96,62.94,8.9C377.86,354.39,361.59,332.63,335.3,315.32z"></path> <ellipse transform="matrix(0.5501 -0.8351 0.8351 0.5501 -133.2172 420.5483)" class="st5" cx="323.68" cy="333.9" rx="21.92" ry="56.98"></ellipse> <ellipse transform="matrix(0.5501 -0.8351 0.8351 0.5501 -130.1726 422.3301)" class="st0" cx="326.85" cy="331.97" rx="13.71" ry="46.54"></ellipse> <ellipse transform="matrix(0.5501 -0.8351 0.8351 0.5501 -131.8976 420.1734)" class="st5" cx="323.99" cy="332.49" rx="13.71" ry="48.64"></ellipse> <g> <path class="st15" d="M260.68,495.92c-3.79,0.79-6.4,1.6-7.69,2.36c5.12,3,30.95,6.87,70.04,6.87c38.17,0,63.7-3.7,69.65-6.66 c0.17-0.08,0.16-0.33-0.02-0.41c-0.85-0.35-3.2-1.09-8.47-1.46l0-6.04c12.5,2.37,14.47,5.08,14.47,7.7c0,3.16-2.86,6.45-23.6,9.11 c-13.91,1.78-32.39,2.77-52.03,2.77s-38.11-0.98-52.03-2.77c-20.74-2.66-23.6-5.95-23.6-9.11c0-2.37,2.51-5.81,13.16-7.01 L260.68,495.92z"></path> </g> <g> <path class="st15" d="M260.74,484.99c-3.79,0.79-6.4,1.6-7.69,2.36c5.12,3,30.95,6.87,70.04,6.87c38.17,0,63.7-3.7,69.65-6.66 c0.17-0.08,0.16-0.33-0.02-0.41c-0.85-0.35-3.2-1.09-8.47-1.46l0-6.04c12.5,2.37,14.47,5.08,14.47,7.7c0,3.16-2.86,6.45-23.6,9.11 c-13.91,1.78-32.39,2.77-52.03,2.77s-38.11-0.98-52.03-2.77c-20.74-2.66-23.6-5.95-23.6-9.11c0-2.37,2.51-5.81,13.16-7.01 L260.74,484.99z"></path> </g> <g> <path class="st15" d="M261.72,106.77c-10.65-1.2-13.16-4.64-13.16-7.01c0-3.16,2.86-6.45,23.6-9.11 c13.91-1.78,32.39-2.77,52.03-2.77s38.11,0.98,52.03,2.77c20.74,2.66,23.6,5.95,23.6,9.11c0,2.62-1.97,5.33-14.47,7.7l0-6.04 c5.27-0.37,7.62-1.11,8.47-1.46c0.18-0.07,0.19-0.32,0.02-0.41c-5.94-2.97-31.47-6.66-69.65-6.66c-39.08,0-64.91,3.87-70.04,6.87 c1.29,0.75,3.89,1.57,7.69,2.36L261.72,106.77z"></path> </g> <g> <path class="st15" d="M260.72,116.35c-10.65-1.2-13.16-4.64-13.16-7.01c0-3.16,2.86-6.45,23.6-9.11 c13.91-1.78,32.39-2.77,52.03-2.77s38.11,0.98,52.03,2.77c20.74,2.66,23.6,5.95,23.6,9.11c0,2.62-1.97,5.33-14.47,7.7l0-6.04 c5.27-0.37,7.62-1.11,8.47-1.46c0.18-0.07,0.19-0.32,0.02-0.41c-5.94-2.97-31.47-6.66-69.65-6.66c-39.08,0-64.91,3.87-70.04,6.87 c1.29,0.75,3.89,1.57,7.69,2.36L260.72,116.35z"></path> </g> <polygon class="st3" points="566.13,431.17 494.32,431.17 499.89,421.05 561.67,421.05 "></polygon> <path class="st1" d="M120.3,430.74h-17.63c-16.7,0-30.37-13.66-30.37-30.37V147.81c0-16.7,13.66-30.37,30.37-30.37h17.63 c16.7,0,30.37,13.66,30.37,30.37v252.57C150.66,417.08,137,430.74,120.3,430.74z"></path> <path class="st3" d="M147.4,198.83H75.56c-1.8,0-3.26-1.46-3.26-3.26v-43.77c0-21.55,17.63-39.18,39.18-39.18h0 c21.55,0,39.18,17.63,39.18,39.18v43.77C150.66,197.37,149.2,198.83,147.4,198.83z"></path> <path class="st3" d="M72.3,370.87h78.36v47.03c0,21.55-17.63,39.18-39.18,39.18h0c-21.55,0-39.18-17.63-39.18-39.18V370.87z"></path> <polygon class="st3" points="154.42,210.07 66.47,210.07 72.02,198.35 150.24,198.35 "></polygon> <polygon class="st3" points="154.42,359.97 66.47,359.97 72.02,371.69 150.24,371.69 "></polygon> <path class="st5" d="M136.34,339.98c0-1.91-0.71-3.74-2-5.4c-3.87-4.98-12.92-8.47-23.47-8.47c-14.06,0-25.47,6.21-25.47,13.87 H136.34z"></path> <path class="st4" d="M111.47,332.13h-2.48c-3.35,0-6.1-2.74-6.1-6.1v-21.15c0-3.35,2.74-6.1,6.1-6.1h2.48c3.35,0,6.1,2.74,6.1,6.1 v21.15C117.56,329.39,114.82,332.13,111.47,332.13z"></path> <g> <path class="st5" d="M101.15,295.19h-7.67c-5.58,0-10.11-4.54-10.11-10.11v-20.51c0-5.58,4.54-10.11,10.11-10.11h7.67V295.19z M93.48,260.78c-2.08,0-3.78,1.7-3.78,3.78v20.51c0,2.08,1.7,3.78,3.78,3.78h1.34v-28.07H93.48z"></path> </g> <g> <path class="st5" d="M119.76,254.45h7.67c5.58,0,10.11,4.54,10.11,10.11v20.51c0,5.58-4.54,10.11-10.11,10.11h-7.67V254.45z M126.1,260.78v28.07h1.34c2.08,0,3.78-1.7,3.78-3.78v-20.51c0-2.08-1.7-3.78-3.78-3.78H126.1z"></path> </g> <path class="st5" d="M113.2,317.59h-5.54c-7.52,0-13.62-6.1-13.62-13.62v-72.15h32.77v72.15 C126.82,311.49,120.72,317.59,113.2,317.59z"></path> <ellipse class="st4" cx="110.43" cy="231.77" rx="16.6" ry="2.24"></ellipse> <polygon class="st6" points="126.58,248.43 126.58,261.25 93.97,299.27 93.97,286.52 "></polygon> <polygon class="st0" points="397.72,54.8 397.72,31.73 401.02,31.73 404.01,54.8 "></polygon> <polygon class="st0" points="395.17,553.99 395.17,530.92 398.47,530.92 401.46,553.99 "></polygon> <g> <path class="st4" d="M531.93,124.33v-20.54h-30.46v20.54c0,6.97-5.67,12.65-12.65,12.65h-20.08v30.46h20.08 C512.59,167.44,531.93,148.1,531.93,124.33z"></path> </g> <polygon class="st0" points="530.83,60.61 502.95,57.68 502.95,55.65 530.83,55.65 "></polygon> <path class="st7" d="M613.87,512.07h-0.05c-6.93,0-12.59-5.67-12.59-12.59v-63.71c0-6.93,5.67-12.59,12.59-12.59h0.05 c6.93,0,12.59,5.67,12.59,12.59v63.71C626.46,506.4,620.8,512.07,613.87,512.07z"></path> <g> <path class="st7" d="M586.19,558.37h-20.54v-30.46h20.54c6.97,0,12.65-5.67,12.65-12.65v-20.08h30.46v20.08 C629.3,539.04,609.96,558.37,586.19,558.37z"></path> </g> <polygon class="st0" points="383.13,365.95 383.13,305.05 386.44,305.05 391.42,365.95 "></polygon> <polygon class="st0" points="383.13,163.62 383.13,140.55 386.44,140.55 389.42,163.62 "></polygon> </svg> 