<?xml version="1.0" encoding="UTF-8"?> <!-- Generator: Adobe Illustrator 24.1.0, SVG Export Plug-In . SVG Version: 6.00 Build 0) --> <svg xmlns="http://www.w3.org/2000/svg" xmlns:xlink="http://www.w3.org/1999/xlink" id="Layer_1" x="0px" y="0px" viewBox="0 0 664 591.3" style="enable-background:new 0 0 664 591.3;" xml:space="preserve"> <style type="text/css"> .st0{fill:#EDD5EF;} .st1{fill:#EEF3FF;stroke:#1C1C1C;stroke-miterlimit:10;} .st2{fill:none;stroke:#2B2B2B;stroke-width:1.0008;stroke-miterlimit:10;} .st3{fill:#44C87F;stroke:#1C1C1C;stroke-miterlimit:10;} .st4{fill:#FF8240;stroke:#1C1C1C;stroke-miterlimit:10;} .st5{fill:#FFC1A0;stroke:#1C1C1C;stroke-miterlimit:10;} .st6{fill:#FFFFFF;stroke:#1C1C1C;stroke-miterlimit:10;} .st7{fill:#262626;} .st8{fill:#FF5050;stroke:#1C1C1C;stroke-miterlimit:10;} .st9{fill:#FFC1A0;stroke:#1C1C1C;stroke-width:1;stroke-miterlimit:10.0003;} .st10{fill:#AC43B3;stroke:#080808;stroke-width:1.0008;stroke-miterlimit:10;} .st11{fill:#FFC1A0;stroke:#1C1C1C;stroke-width:1;stroke-miterlimit:9.9999;} .st12{fill:#FFC1A0;stroke:#1C1C1C;stroke-width:0.9999;stroke-miterlimit:9.9994;} .st13{fill:#FFC1A0;stroke:#1C1C1C;stroke-width:1;stroke-miterlimit:10;} </style> <rect x="0.1" class="st0" width="664" height="602.6"></rect> <path class="st1" d="M530.6,625.8L530.6,625.8c-15.1,0-27.4-12.3-27.4-27.4V418.9c0-15.1,12.3-27.4,27.4-27.4l0,0 c15.1,0,27.4,12.3,27.4,27.4v179.6C558,613.5,545.7,625.8,530.6,625.8z"></path> <g> <rect x="338.3" y="149.7" class="st2" width="252" height="251.6"></rect> <line class="st2" x1="338.3" y1="359.3" x2="590.3" y2="359.3"></line> <line class="st2" x1="338.3" y1="317.3" x2="590.3" y2="317.3"></line> <line class="st2" x1="338.3" y1="275.4" x2="590.3" y2="275.4"></line> <line class="st2" x1="338.3" y1="233.5" x2="590.3" y2="233.5"></line> <line class="st2" x1="338.3" y1="191.5" x2="590.3" y2="191.5"></line> <line class="st2" x1="548.3" y1="149.7" x2="548.3" y2="401.2"></line> <line class="st2" x1="506.3" y1="149.7" x2="506.3" y2="401.2"></line> <line class="st2" x1="464.2" y1="149.7" x2="464.2" y2="401.2"></line> <line class="st2" x1="422.3" y1="149.7" x2="422.3" y2="401.2"></line> <line class="st2" x1="380.3" y1="149.7" x2="380.3" y2="401.2"></line> </g> <g> <path class="st3" d="M372.8,366v-61.3h113.9c40.9,0,74.2,33.3,74.2,74.2v42h-61.3v-42c0-7.1-5.8-12.9-12.9-12.9H372.8z"></path> </g> <g> <rect x="95.7" y="148.9" class="st2" width="252" height="251.6"></rect> <line class="st2" x1="95.7" y1="358.5" x2="347.7" y2="358.5"></line> <line class="st2" x1="95.7" y1="316.6" x2="347.7" y2="316.6"></line> <line class="st2" x1="95.7" y1="274.7" x2="347.7" y2="274.7"></line> <line class="st2" x1="95.7" y1="232.7" x2="347.7" y2="232.7"></line> <line class="st2" x1="95.7" y1="190.8" x2="347.7" y2="190.8"></line> <line class="st2" x1="305.7" y1="148.9" x2="305.7" y2="400.5"></line> <line class="st2" x1="263.7" y1="148.9" x2="263.7" y2="400.5"></line> <line class="st2" x1="221.7" y1="148.9" x2="221.7" y2="400.5"></line> <line class="st2" x1="179.7" y1="148.9" x2="179.7" y2="400.5"></line> <line class="st2" x1="137.7" y1="148.9" x2="137.7" y2="400.5"></line> </g> <rect x="267.7" y="140.6" class="st4" width="210.3" height="23.5"></rect> <rect x="504.3" y="-1.6" class="st4" width="25.1" height="124.6"></rect> <path class="st5" d="M552.8,545.2c0-1.6-0.6-3.1-1.7-4.5c-3.2-4.1-10.7-7-19.5-7c-11.7,0-21.2,5.2-21.2,11.5L552.8,545.2 L552.8,545.2z"></path> <path class="st4" d="M531.1,538.6L531.1,538.6c-3.3,0-6.1-2.7-6.1-6.1V517c0-3.3,2.7-6.1,6.1-6.1l0,0c3.3,0,6.1,2.7,6.1,6.1v15.5 C537.2,535.9,534.4,538.6,531.1,538.6z"></path> <g> <path class="st5" d="M523.5,507.9h-6.4c-4.6,0-8.4-3.8-8.4-8.4v-17c0-4.6,3.8-8.4,8.4-8.4h6.4V507.9z M517.2,479.3 c-1.7,0-3.1,1.4-3.1,3.1v17c0,1.7,1.4,3.1,3.1,3.1h1.1v-23.3L517.2,479.3L517.2,479.3z"></path> </g> <g> <path class="st5" d="M539,474.1h6.4c4.6,0,8.4,3.8,8.4,8.4v17c0,4.6-3.8,8.4-8.4,8.4H539V474.1z M544.3,479.3v23.3h1.1 c1.7,0,3.1-1.4,3.1-3.1v-17c0-1.7-1.4-3.1-3.1-3.1L544.3,479.3L544.3,479.3z"></path> </g> <path class="st5" d="M531.2,526.5L531.2,526.5c-7.5,0-13.6-6.1-13.6-13.6v-57.7h27.2v57.7C544.9,520.5,538.8,526.5,531.2,526.5z"></path> <polygon class="st6" points="544.7,469.1 544.7,479.7 517.6,511.3 517.6,500.7 "></polygon> <polygon class="st7" points="558,562.2 502.2,556.2 502.2,552.1 558,552.1 "></polygon> <rect x="380.3" y="530.7" class="st8" width="216.3" height="23.5"></rect> <rect x="95.7" y="534.7" class="st8" width="210.3" height="23.5"></rect> <g> <path class="st8" d="M83.6,530.7h20.5v30.5H83.6c-7,0-12.7,5.7-12.7,12.7v20.1H40.5v-20.1C40.5,550,59.8,530.7,83.6,530.7z"></path> </g> <path class="st1" d="M355.2,542.5h-65.9c-15.4,0-27.9-12.6-27.9-27.9V48.8c0-15.4,12.6-27.9,27.9-27.9h65.9 c15.4,0,27.9,12.6,27.9,27.9v465.7C383.1,529.9,370.6,542.5,355.2,542.5z"></path> <path class="st4" d="M329.4,85.7c-9-30.2-24.9-49.6-37.8-48.2c-17.1,1.9-21.2,24.9-9.6,62.9c11.6,38.4,26.3,53.4,42.4,47.3 C336.8,143,338.4,115.9,329.4,85.7z"></path> <ellipse transform="matrix(0.9585 -0.2852 0.2852 0.9585 -13.5654 91.8401)" class="st9" cx="308.6" cy="92.5" rx="21.9" ry="57"></ellipse> <ellipse transform="matrix(0.9585 -0.2852 0.2852 0.9585 -13.5733 92.91)" class="st7" cx="312.2" cy="93.1" rx="13.7" ry="46.5"></ellipse> <ellipse transform="matrix(0.9585 -0.2852 0.2852 0.9585 -13.2677 92.1289)" class="st9" cx="309.7" cy="91.6" rx="13.7" ry="48.6"></ellipse> <rect x="93.9" y="30.7" class="st8" width="210.3" height="23.5"></rect> <g> <path class="st8" d="M81.8,58.2h20.5V27.8H81.8c-7,0-12.7-5.7-12.7-12.6V-4.9H38.7v20.1C38.7,38.9,58,58.2,81.8,58.2z"></path> </g> <rect x="360.9" y="31.7" class="st8" width="210.3" height="23.5"></rect> <g> <path class="st8" d="M583.4,59.2h-20.5V28.8h20.5c7,0,12.7-5.7,12.7-12.6V-3.9h30.5v20.1C626.5,39.9,607.1,59.2,583.4,59.2z"></path> </g> <polygon class="st10" points="394.8,624.7 248.6,624.7 248.6,512.1 322.7,519.9 394.8,512.1 "></polygon> <g> <path class="st10" d="M260.3,505.7c-3.8,0.8-6.4,1.6-7.7,2.4c5.1,3,31,6.9,70,6.9c38.2,0,63.7-3.7,69.6-6.7c0.2-0.1,0.2-0.3,0-0.4 c-0.9-0.4-3.2-1.1-8.5-1.5v-6c12.5,2.4,14.5,5.1,14.5,7.7c0,3.2-2.9,6.5-23.6,9.1c-13.9,1.8-32.4,2.8-52,2.8s-38.1-1-52-2.8 c-20.7-2.7-23.6-6-23.6-9.1c0-2.4,2.5-5.8,13.2-7L260.3,505.7z"></path> </g> <polygon class="st10" points="251.1,0 397.3,0 397.3,88.2 323.2,80.3 251.1,88.2 "></polygon> <g> <path class="st10" d="M260.7,98c-10.6-1.2-13.2-4.6-13.2-7c0-3.2,2.9-6.4,23.6-9.1c13.9-1.8,32.4-2.8,52-2.8s38.1,1,52,2.8 c20.7,2.7,23.6,5.9,23.6,9.1c0,2.6-2,5.3-14.5,7.7v-6c5.3-0.4,7.6-1.1,8.5-1.5c0.2-0.1,0.2-0.3,0-0.4c-5.9-3-31.5-6.7-69.6-6.7 c-39.1,0-64.9,3.9-70,6.9c1.3,0.8,3.9,1.6,7.7,2.4L260.7,98z"></path> </g> <path class="st4" d="M312,202.2c-25.7,25.7-39.9,49.4-35.5,57.6c5.8,10.8,28-1,59.3-33.8c31.9-33.5,44.1-52.7,34.6-60.1 C363.1,160.2,337.7,176.6,312,202.2z"></path> <ellipse transform="matrix(0.7071 -0.7071 0.7071 0.7071 -55.4202 290.2098)" class="st11" cx="322.6" cy="212" rx="65.8" ry="14.4"></ellipse> <ellipse transform="matrix(0.7071 -0.7071 0.7071 0.7071 -56.1149 289.4315)" class="st7" cx="321.3" cy="212.5" rx="56.8" ry="8.1"></ellipse> <ellipse transform="matrix(0.7071 -0.7071 0.7071 0.7071 -56.0183 290.4616)" class="st11" cx="322.6" cy="212.9" rx="56.2" ry="8.1"></ellipse> <path class="st4" d="M314.5,425.5c-30.3,12.9-49.7,29.1-48.2,39c2.1,13,25.2,11.9,62.5-5.2c38.1-17.5,54.5-30.3,48.1-41.8 C372.1,408.6,344.8,412.6,314.5,425.5z"></path> <ellipse transform="matrix(0.9206 -0.3906 0.3906 0.9206 -146.2397 160.3456)" class="st12" cx="321.1" cy="439.7" rx="59.6" ry="15.7"></ellipse> <ellipse transform="matrix(0.9206 -0.3906 0.3906 0.9206 -146.2769 159.8371)" class="st7" cx="319.8" cy="439.5" rx="51.4" ry="8.8"></ellipse> <ellipse transform="matrix(0.9206 -0.3906 0.3906 0.9206 -146.5745 160.3162)" class="st12" cx="320.8" cy="440.5" rx="50.8" ry="8.8"></ellipse> <path class="st4" d="M335.3,315.3c-26.3-17.3-51-22-60-12.6c-11.9,12.4-0.1,32.7,33.1,54.4c33.6,21.9,54.5,24,62.9,8.9 C377.9,354.4,361.6,332.6,335.3,315.3z"></path> <ellipse transform="matrix(0.5501 -0.8351 0.8351 0.5501 -133.2342 420.5356)" class="st13" cx="323.7" cy="333.9" rx="21.9" ry="57"></ellipse> <ellipse transform="matrix(0.5501 -0.8351 0.8351 0.5501 -130.1956 422.3214)" class="st7" cx="326.9" cy="332" rx="13.7" ry="46.5"></ellipse> <ellipse transform="matrix(0.5501 -0.8351 0.8351 0.5501 -131.9165 420.1626)" class="st13" cx="324" cy="332.5" rx="13.7" ry="48.6"></ellipse> <g> <path class="st10" d="M260.7,495.9c-3.8,0.8-6.4,1.6-7.7,2.4c5.1,3,31,6.9,70,6.9c38.2,0,63.7-3.7,69.6-6.7c0.2-0.1,0.2-0.3,0-0.4 c-0.9-0.4-3.2-1.1-8.5-1.5v-6c12.5,2.4,14.5,5.1,14.5,7.7c0,3.2-2.9,6.5-23.6,9.1c-13.9,1.8-32.4,2.8-52,2.8s-38.1-1-52-2.8 c-20.7-2.7-23.6-6-23.6-9.1c0-2.4,2.5-5.8,13.2-7L260.7,495.9z"></path> </g> <g> <path class="st10" d="M260.7,485c-3.8,0.8-6.4,1.6-7.7,2.4c5.1,3,31,6.9,70,6.9c38.2,0,63.7-3.7,69.6-6.7c0.2-0.1,0.2-0.3,0-0.4 c-0.9-0.4-3.2-1.1-8.5-1.5v-6c12.5,2.4,14.5,5.1,14.5,7.7c0,3.2-2.9,6.5-23.6,9.1c-13.9,1.8-32.4,2.8-52,2.8s-38.1-1-52-2.8 c-20.7-2.7-23.6-6-23.6-9.1c0-2.4,2.5-5.8,13.2-7L260.7,485z"></path> </g> <g> <path class="st10" d="M261.7,106.8c-10.6-1.2-13.2-4.6-13.2-7c0-3.2,2.9-6.4,23.6-9.1c13.9-1.8,32.4-2.8,52-2.8s38.1,1,52,2.8 c20.7,2.7,23.6,5.9,23.6,9.1c0,2.6-2,5.3-14.5,7.7v-6c5.3-0.4,7.6-1.1,8.5-1.5c0.2-0.1,0.2-0.3,0-0.4c-5.9-3-31.5-6.7-69.6-6.7 c-39.1,0-64.9,3.9-70,6.9c1.3,0.8,3.9,1.6,7.7,2.4L261.7,106.8z"></path> </g> <g> <path class="st10" d="M260.7,116.3c-10.6-1.2-13.2-4.6-13.2-7c0-3.2,2.9-6.4,23.6-9.1c13.9-1.8,32.4-2.8,52-2.8s38.1,1,52,2.8 c20.7,2.7,23.6,5.9,23.6,9.1c0,2.6-2,5.3-14.5,7.7v-6c5.3-0.4,7.6-1.1,8.5-1.5c0.2-0.1,0.2-0.3,0-0.4c-5.9-3-31.5-6.7-69.6-6.7 c-39.1,0-64.9,3.9-70,6.9c1.3,0.8,3.9,1.6,7.7,2.4L260.7,116.3z"></path> </g> <polygon class="st3" points="566.1,431.2 494.3,431.2 499.9,421 561.7,421 "></polygon> <path class="st1" d="M120.3,430.7h-17.6c-16.7,0-30.4-13.7-30.4-30.4V147.8c0-16.7,13.7-30.4,30.4-30.4h17.6 c16.7,0,30.4,13.7,30.4,30.4v252.6C150.7,417.1,137,430.7,120.3,430.7z"></path> <path class="st3" d="M147.4,198.8H75.6c-1.8,0-3.3-1.5-3.3-3.3v-43.8c0-21.6,17.6-39.2,39.2-39.2l0,0c21.6,0,39.2,17.6,39.2,39.2 v43.8C150.7,197.4,149.2,198.8,147.4,198.8z"></path> <path class="st3" d="M72.3,370.9h78.4v47c0,21.5-17.6,39.2-39.2,39.2l0,0c-21.5,0-39.2-17.6-39.2-39.2V370.9z"></path> <polygon class="st3" points="154.4,210.1 66.5,210.1 72,198.4 150.2,198.4 "></polygon> <polygon class="st3" points="154.4,360 66.5,360 72,371.7 150.2,371.7 "></polygon> <path class="st5" d="M136.3,340c0-1.9-0.7-3.7-2-5.4c-3.9-5-12.9-8.5-23.5-8.5c-14.1,0-25.5,6.2-25.5,13.9H136.3z"></path> <path class="st4" d="M111.5,332.1H109c-3.3,0-6.1-2.7-6.1-6.1v-21.1c0-3.4,2.7-6.1,6.1-6.1h2.5c3.3,0,6.1,2.7,6.1,6.1V326 C117.6,329.4,114.8,332.1,111.5,332.1z"></path> <g> <path class="st5" d="M101.2,295.2h-7.7c-5.6,0-10.1-4.5-10.1-10.1v-20.5c0-5.6,4.5-10.1,10.1-10.1h7.7V295.2z M93.5,260.8 c-2.1,0-3.8,1.7-3.8,3.8v20.5c0,2.1,1.7,3.8,3.8,3.8h1.3v-28.1H93.5z"></path> </g> <g> <path class="st5" d="M119.8,254.4h7.7c5.6,0,10.1,4.5,10.1,10.1v20.5c0,5.6-4.5,10.1-10.1,10.1h-7.7 C119.8,295.2,119.8,254.4,119.8,254.4z M126.1,260.8v28.1h1.3c2.1,0,3.8-1.7,3.8-3.8v-20.5c0-2.1-1.7-3.8-3.8-3.8H126.1z"></path> </g> <path class="st5" d="M113.2,317.6h-5.5c-7.5,0-13.6-6.1-13.6-13.6v-72.1h32.8V304C126.8,311.5,120.7,317.6,113.2,317.6z"></path> <ellipse class="st4" cx="110.4" cy="231.8" rx="16.6" ry="2.2"></ellipse> <polygon class="st6" points="126.6,248.4 126.6,261.2 94,299.3 94,286.5 "></polygon> <polygon class="st7" points="397.7,54.8 397.7,31.7 401,31.7 404,54.8 "></polygon> <polygon class="st7" points="395.2,554 395.2,530.9 398.5,530.9 401.5,554 "></polygon> <g> <path class="st4" d="M531.9,124.3v-20.5h-30.5v20.5c0,7-5.7,12.6-12.6,12.6h-20.1v30.5h20.1C512.6,167.4,531.9,148.1,531.9,124.3z"></path> </g> <polygon class="st7" points="530.8,60.6 503,57.7 503,55.7 530.8,55.7 "></polygon> <path class="st8" d="M613.9,512.1L613.9,512.1c-7,0-12.6-5.7-12.6-12.6v-63.7c0-6.9,5.7-12.6,12.6-12.6h0c6.9,0,12.6,5.7,12.6,12.6 v63.7C626.5,506.4,620.8,512.1,613.9,512.1z"></path> <g> <path class="st8" d="M586.2,558.4h-20.5v-30.5h20.5c7,0,12.7-5.7,12.7-12.7v-20.1h30.5v20.1C629.3,539,610,558.4,586.2,558.4z"></path> </g> <polygon class="st7" points="383.1,366 383.1,305 386.4,305 391.4,366 "></polygon> <polygon class="st7" points="383.1,163.6 383.1,140.6 386.4,140.6 389.4,163.6 "></polygon> </svg> 